 999
Conversion of STL file (binary) from www.cadforum.cz; drag the file into AutoCAD or load it with _DXFIN
 0
SECTION
 2
ENTITIES
 0
3DFACE
 8
STL2DXF
 10
-18.9427356719971
 20
-23.7413883209229
 30
72.191650390625
 11
-21.9427356719971
 21
-24.945484161377
 31
71.039176940918
 12
-22.5421981811523
 22
-23.0244407653809
 32
72.0313949584961
 13
-22.5421981811523
 23
-23.0244407653809
 33
72.0313949584961
 0
3DFACE
 8
STL2DXF
 10
-22.75
 20
-23.4041557312012
 30
75
 11
-21.9427356719971
 21
-24.945484161377
 31
71.039176940918
 12
-18.9427356719971
 22
-25.5
 32
75
 13
-18.9427356719971
 23
-25.5
 33
75
 0
3DFACE
 8
STL2DXF
 10
-3.65849614143372
 20
-15.8082666397095
 30
5.87747175411144E-39
 11
-4.75604486465454
 21
-25.2507457733154
 31
75
 12
-4.75604486465454
 22
-26.2507457733154
 32
75
 13
-4.75604486465454
 23
-26.2507457733154
 33
75
 0
3DFACE
 8
STL2DXF
 10
-4.75604486465454
 20
-25.2507457733154
 30
75
 11
-3.65849614143372
 21
-15.8082666397095
 31
5.87747175411144E-39
 12
-3.65849614143372
 22
-14.8082666397095
 32
5.87747175411144E-39
 13
-3.65849614143372
 23
-14.8082666397095
 33
5.87747175411144E-39
 0
3DFACE
 8
STL2DXF
 10
-17.7886753082275
 20
-10.8108892440796
 30
4.12393045425415
 11
-14.235782623291
 21
-11.9740905761719
 31
5.87747175411144E-39
 12
-16.5186939239502
 22
-10.8108892440796
 32
5.87747175411144E-39
 13
-16.5186939239502
 23
-10.8108892440796
 33
5.87747175411144E-39
 0
3DFACE
 8
STL2DXF
 10
-14.235782623291
 20
-11.9740905761719
 30
5.87747175411144E-39
 11
-17.7886753082275
 21
-10.8108892440796
 31
4.12393045425415
 12
-18.5065174102783
 22
-21.5663185119629
 32
75
 13
-18.5065174102783
 23
-21.5663185119629
 33
75
 0
3DFACE
 8
STL2DXF
 10
-18.5065174102783
 20
-21.5663185119629
 30
75
 11
-17.7886753082275
 21
-10.8108892440796
 31
4.12393045425415
 12
-22.75
 22
-19.4041557312012
 32
75
 13
-22.75
 23
-19.4041557312012
 33
75
 0
3DFACE
 8
STL2DXF
 10
-14.0602731704712
 20
-23.2730712890625
 30
75
 11
-7.27690935134888
 21
-14.2351655960083
 31
5.87747175411144E-39
 12
-10.8155946731567
 22
-13.2869777679443
 32
5.87747175411144E-39
 13
-10.8155946731567
 23
-13.2869777679443
 33
5.87747175411144E-39
 0
3DFACE
 8
STL2DXF
 10
-7.27690935134888
 20
-14.2351655960083
 30
5.87747175411144E-39
 11
-14.0602731704712
 21
-23.2730712890625
 31
75
 12
-9.45998191833496
 22
-24.5057163238525
 32
75
 13
-9.45998191833496
 23
-24.5057163238525
 33
75
 0
3DFACE
 8
STL2DXF
 10
-18.9427356719971
 20
-25.5
 30
75
 11
-22.75
 21
-19.4041557312012
 31
75
 12
-22.75
 22
-23.4041557312012
 32
75
 13
-22.75
 23
-23.4041557312012
 33
75
 0
3DFACE
 8
STL2DXF
 10
-22.75
 20
-19.4041557312012
 30
75
 11
-18.9427356719971
 21
-25.5
 31
75
 12
-18.9427356719971
 22
-22.0992584228516
 32
75
 13
-18.9427356719971
 23
-22.0992584228516
 33
75
 0
3DFACE
 8
STL2DXF
 10
-22.75
 20
-19.4041557312012
 30
75
 11
-18.9427356719971
 21
-22.0992584228516
 31
75
 12
-18.5065174102783
 22
-21.5663185119629
 32
75
 13
-18.5065174102783
 23
-21.5663185119629
 33
75
 0
3DFACE
 8
STL2DXF
 10
-18.9427356719971
 20
-22.0992584228516
 30
75
 11
-18.9427356719971
 21
-25.5
 31
75
 12
-18.9427356719971
 22
-24.1328754425049
 32
75
 13
-18.9427356719971
 23
-24.1328754425049
 33
75
 0
3DFACE
 8
STL2DXF
 10
-18.5065174102783
 20
-21.5663185119629
 30
75
 11
-18.9427356719971
 21
-22.0992584228516
 31
75
 12
-14.0602731704712
 22
-24.2730712890625
 32
75
 13
-14.0602731704712
 23
-24.2730712890625
 33
75
 0
3DFACE
 8
STL2DXF
 10
-18.5065174102783
 20
-21.5663185119629
 30
75
 11
-14.0602731704712
 21
-24.2730712890625
 31
75
 12
-14.0602731704712
 22
-23.2730712890625
 32
75
 13
-14.0602731704712
 23
-23.2730712890625
 33
75
 0
3DFACE
 8
STL2DXF
 10
-14.0602731704712
 20
-23.2730712890625
 30
75
 11
-14.0602731704712
 21
-24.2730712890625
 31
75
 12
-4.75604486465454
 22
-26.2507457733154
 32
75
 13
-4.75604486465454
 23
-26.2507457733154
 33
75
 0
3DFACE
 8
STL2DXF
 10
-14.0602731704712
 20
-23.2730712890625
 30
75
 11
-4.75604486465454
 21
-26.2507457733154
 31
75
 12
-9.45998191833496
 22
-24.5057163238525
 32
75
 13
-9.45998191833496
 23
-24.5057163238525
 33
75
 0
3DFACE
 8
STL2DXF
 10
-9.45998191833496
 20
-24.5057163238525
 30
75
 11
-4.75604486465454
 21
-26.2507457733154
 31
75
 12
-4.75604486465454
 22
-25.2507457733154
 32
75
 13
-4.75604486465454
 23
-25.2507457733154
 33
75
 0
3DFACE
 8
STL2DXF
 10
-9.45998191833496
 20
-24.5057163238525
 30
75
 11
-3.65849614143372
 21
-14.8082666397095
 31
5.87747175411144E-39
 12
-7.27690935134888
 22
-14.2351655960083
 32
5.87747175411144E-39
 13
-7.27690935134888
 23
-14.2351655960083
 33
5.87747175411144E-39
 0
3DFACE
 8
STL2DXF
 10
-3.65849614143372
 20
-14.8082666397095
 30
5.87747175411144E-39
 11
-9.45998191833496
 21
-24.5057163238525
 31
75
 12
-4.75604486465454
 22
-25.2507457733154
 32
75
 13
-4.75604486465454
 23
-25.2507457733154
 33
75
 0
3DFACE
 8
STL2DXF
 10
-16.5186939239502
 20
-10.8108892440796
 30
5.87747175411144E-39
 11
-17.5
 21
-11.3108892440796
 31
5.87747175411144E-39
 12
-17.5
 22
-10.8108892440796
 32
5.87747175411144E-39
 13
-17.5
 23
-10.8108892440796
 33
5.87747175411144E-39
 0
3DFACE
 8
STL2DXF
 10
-17.5
 20
-11.3108892440796
 30
5.87747175411144E-39
 11
-16.5186939239502
 21
-10.8108892440796
 31
5.87747175411144E-39
 12
-10.8155946731567
 22
-14.2869777679443
 32
5.87747175411144E-39
 13
-10.8155946731567
 23
-14.2869777679443
 33
5.87747175411144E-39
 0
3DFACE
 8
STL2DXF
 10
-10.8155946731567
 20
-14.2869777679443
 30
5.87747175411144E-39
 11
-16.5186939239502
 21
-10.8108892440796
 31
5.87747175411144E-39
 12
-14.235782623291
 22
-11.9740905761719
 32
5.87747175411144E-39
 13
-14.235782623291
 23
-11.9740905761719
 33
5.87747175411144E-39
 0
3DFACE
 8
STL2DXF
 10
-10.8155946731567
 20
-14.2869777679443
 30
5.87747175411144E-39
 11
-14.235782623291
 21
-11.9740905761719
 31
5.87747175411144E-39
 12
-10.8155946731567
 22
-13.2869777679443
 32
5.87747175411144E-39
 13
-10.8155946731567
 23
-13.2869777679443
 33
5.87747175411144E-39
 0
3DFACE
 8
STL2DXF
 10
-10.8155946731567
 20
-14.2869777679443
 30
5.87747175411144E-39
 11
-10.8155946731567
 21
-13.2869777679443
 31
5.87747175411144E-39
 12
-7.27690935134888
 22
-14.2351655960083
 32
5.87747175411144E-39
 13
-7.27690935134888
 23
-14.2351655960083
 33
5.87747175411144E-39
 0
3DFACE
 8
STL2DXF
 10
-10.8155946731567
 20
-14.2869777679443
 30
5.87747175411144E-39
 11
-7.27690935134888
 21
-14.2351655960083
 31
5.87747175411144E-39
 12
-3.65849614143372
 22
-15.8082666397095
 32
5.87747175411144E-39
 13
-3.65849614143372
 23
-15.8082666397095
 33
5.87747175411144E-39
 0
3DFACE
 8
STL2DXF
 10
-3.65849614143372
 20
-15.8082666397095
 30
5.87747175411144E-39
 11
-7.27690935134888
 21
-14.2351655960083
 31
5.87747175411144E-39
 12
-3.65849614143372
 22
-14.8082666397095
 32
5.87747175411144E-39
 13
-3.65849614143372
 23
-14.8082666397095
 33
5.87747175411144E-39
 0
3DFACE
 8
STL2DXF
 10
-18.9427356719971
 20
-21.6712398529053
 30
72.191650390625
 11
-22.5421981811523
 21
-23.0244407653809
 31
72.0313949584961
 12
-22.5421981811523
 22
-20.0442314147949
 32
72.0313949584961
 13
-22.5421981811523
 23
-20.0442314147949
 33
72.0313949584961
 0
3DFACE
 8
STL2DXF
 10
-22.5421981811523
 20
-23.0244407653809
 30
72.0313949584961
 11
-18.9427356719971
 21
-21.6712398529053
 31
72.191650390625
 12
-18.9427356719971
 22
-23.7413883209229
 32
72.191650390625
 13
-18.9427356719971
 23
-23.7413883209229
 33
72.191650390625
 0
3DFACE
 8
STL2DXF
 10
-22.5421981811523
 20
-23.0244407653809
 30
72.0313949584961
 11
-21.9427356719971
 21
-24.945484161377
 31
71.039176940918
 12
-22.75
 22
-23.4041557312012
 32
75
 13
-22.75
 23
-23.4041557312012
 33
75
 0
3DFACE
 8
STL2DXF
 10
-18.9427356719971
 20
-25.5
 30
72.191650390625
 11
-21.9427356719971
 21
-24.945484161377
 31
71.039176940918
 12
-18.9427356719971
 22
-23.7413883209229
 32
72.191650390625
 13
-18.9427356719971
 23
-23.7413883209229
 33
72.191650390625
 0
3DFACE
 8
STL2DXF
 10
-18.9427356719971
 20
-23.7413883209229
 30
72.191650390625
 11
-18.9427356719971
 21
-25.5
 31
75
 12
-18.9427356719971
 22
-25.5
 32
72.191650390625
 13
-18.9427356719971
 23
-25.5
 33
72.191650390625
 0
3DFACE
 8
STL2DXF
 10
-18.9427356719971
 20
-25.5
 30
75
 11
-18.9427356719971
 21
-23.7413883209229
 31
72.191650390625
 12
-18.9427356719971
 22
-24.1328754425049
 32
75
 13
-18.9427356719971
 23
-24.1328754425049
 33
75
 0
3DFACE
 8
STL2DXF
 10
-18.9427356719971
 20
-24.1328754425049
 30
75
 11
-18.9427356719971
 21
-23.7413883209229
 31
72.191650390625
 12
-18.9427356719971
 22
-22.0992584228516
 32
75
 13
-18.9427356719971
 23
-22.0992584228516
 33
75
 0
3DFACE
 8
STL2DXF
 10
-18.9427356719971
 20
-22.0992584228516
 30
75
 11
-18.9427356719971
 21
-23.7413883209229
 31
72.191650390625
 12
-18.9427356719971
 22
-21.6712398529053
 32
72.191650390625
 13
-18.9427356719971
 23
-21.6712398529053
 33
72.191650390625
 0
3DFACE
 8
STL2DXF
 10
-18.9427356719971
 20
-25.5
 30
75
 11
-21.9427356719971
 21
-24.945484161377
 31
71.039176940918
 12
-18.9427356719971
 22
-25.5
 32
72.191650390625
 13
-18.9427356719971
 23
-25.5
 33
72.191650390625
 0
3DFACE
 8
STL2DXF
 10
-17.7886753082275
 20
-10.8108892440796
 30
4.12393045425415
 11
-16.5186939239502
 21
-10.8108892440796
 31
5.87747175411144E-39
 12
-17.5
 22
-10.8108892440796
 32
5.87747175411144E-39
 13
-17.5
 23
-10.8108892440796
 33
5.87747175411144E-39
 0
3DFACE
 8
STL2DXF
 10
-4.75604486465454
 20
-26.2507457733154
 30
75
 11
-10.8155946731567
 21
-14.2869777679443
 31
5.87747175411144E-39
 12
-3.65849614143372
 22
-15.8082666397095
 32
5.87747175411144E-39
 13
-3.65849614143372
 23
-15.8082666397095
 33
5.87747175411144E-39
 0
3DFACE
 8
STL2DXF
 10
-10.8155946731567
 20
-14.2869777679443
 30
5.87747175411144E-39
 11
-4.75604486465454
 21
-26.2507457733154
 31
75
 12
-14.0602731704712
 22
-24.2730712890625
 32
75
 13
-14.0602731704712
 23
-24.2730712890625
 33
75
 0
3DFACE
 8
STL2DXF
 10
-14.0602731704712
 20
-24.2730712890625
 30
75
 11
-17.5
 21
-11.3108892440796
 31
5.87747175411144E-39
 12
-10.8155946731567
 22
-14.2869777679443
 32
5.87747175411144E-39
 13
-10.8155946731567
 23
-14.2869777679443
 33
5.87747175411144E-39
 0
3DFACE
 8
STL2DXF
 10
-17.5
 20
-11.3108892440796
 30
5.87747175411144E-39
 11
-14.0602731704712
 21
-24.2730712890625
 31
75
 12
-18.9427356719971
 22
-21.6712398529053
 32
72.191650390625
 13
-18.9427356719971
 23
-21.6712398529053
 33
72.191650390625
 0
3DFACE
 8
STL2DXF
 10
-17.5
 20
-11.3108892440796
 30
5.87747175411144E-39
 11
-18.9427356719971
 21
-21.6712398529053
 31
72.191650390625
 12
-22.5421981811523
 22
-20.0442314147949
 32
72.0313949584961
 13
-22.5421981811523
 23
-20.0442314147949
 33
72.0313949584961
 0
3DFACE
 8
STL2DXF
 10
-18.9427356719971
 20
-21.6712398529053
 30
72.191650390625
 11
-14.0602731704712
 21
-24.2730712890625
 31
75
 12
-18.9427356719971
 22
-22.0992584228516
 32
75
 13
-18.9427356719971
 23
-22.0992584228516
 33
75
 0
3DFACE
 8
STL2DXF
 10
-18.5065174102783
 20
-21.5663185119629
 30
75
 11
-10.8155946731567
 21
-13.2869777679443
 31
5.87747175411144E-39
 12
-14.235782623291
 22
-11.9740905761719
 32
5.87747175411144E-39
 13
-14.235782623291
 23
-11.9740905761719
 33
5.87747175411144E-39
 0
3DFACE
 8
STL2DXF
 10
-10.8155946731567
 20
-13.2869777679443
 30
5.87747175411144E-39
 11
-18.5065174102783
 21
-21.5663185119629
 31
75
 12
-14.0602731704712
 22
-23.2730712890625
 32
75
 13
-14.0602731704712
 23
-23.2730712890625
 33
75
 0
3DFACE
 8
STL2DXF
 10
-22.75
 20
-19.4041557312012
 30
75
 11
-22.5421981811523
 21
-23.0244407653809
 31
72.0313949584961
 12
-22.75
 22
-23.4041557312012
 32
75
 13
-22.75
 23
-23.4041557312012
 33
75
 0
3DFACE
 8
STL2DXF
 10
-22.5421981811523
 20
-23.0244407653809
 30
72.0313949584961
 11
-22.75
 21
-19.4041557312012
 31
75
 12
-22.5421981811523
 22
-20.0442314147949
 32
72.0313949584961
 13
-22.5421981811523
 23
-20.0442314147949
 33
72.0313949584961
 0
3DFACE
 8
STL2DXF
 10
-22.5421981811523
 20
-20.0442314147949
 30
72.0313949584961
 11
-22.75
 21
-19.4041557312012
 31
75
 12
-17.5
 22
-11.3108892440796
 32
5.87747175411144E-39
 13
-17.5
 23
-11.3108892440796
 33
5.87747175411144E-39
 0
3DFACE
 8
STL2DXF
 10
-17.5
 20
-11.3108892440796
 30
5.87747175411144E-39
 11
-22.75
 21
-19.4041557312012
 31
75
 12
-17.7886753082275
 22
-10.8108892440796
 32
4.12393045425415
 13
-17.7886753082275
 23
-10.8108892440796
 33
4.12393045425415
 0
3DFACE
 8
STL2DXF
 10
-17.5
 20
-11.3108892440796
 30
5.87747175411144E-39
 11
-17.7886753082275
 21
-10.8108892440796
 31
4.12393045425415
 12
-17.5
 22
-10.8108892440796
 32
5.87747175411144E-39
 13
-17.5
 23
-10.8108892440796
 33
5.87747175411144E-39
 0
3DFACE
 8
STL2DXF
 10
4.75604486465454
 20
-25.2507457733154
 30
75
 11
7.27690935134888
 21
-14.2351655960083
 31
5.87747175411144E-39
 12
3.65849614143372
 22
-14.8082666397095
 32
5.87747175411144E-39
 13
3.65849614143372
 23
-14.8082666397095
 33
5.87747175411144E-39
 0
3DFACE
 8
STL2DXF
 10
7.27690935134888
 20
-14.2351655960083
 30
5.87747175411144E-39
 11
4.75604486465454
 21
-25.2507457733154
 31
75
 12
9.45998191833496
 22
-24.5057163238525
 32
75
 13
9.45998191833496
 23
-24.5057163238525
 33
75
 0
3DFACE
 8
STL2DXF
 10
7.27690935134888
 20
-14.2351655960083
 30
5.87747175411144E-39
 11
3.65849614143372
 21
-15.3082666397095
 31
5.87747175411144E-39
 12
3.65849614143372
 22
-14.8082666397095
 32
5.87747175411144E-39
 13
3.65849614143372
 23
-14.8082666397095
 33
5.87747175411144E-39
 0
3DFACE
 8
STL2DXF
 10
3.65849614143372
 20
-15.3082666397095
 30
5.87747175411144E-39
 11
7.27690935134888
 21
-14.2351655960083
 31
5.87747175411144E-39
 12
3.65849614143372
 22
-15.8082666397095
 32
5.87747175411144E-39
 13
3.65849614143372
 23
-15.8082666397095
 33
5.87747175411144E-39
 0
3DFACE
 8
STL2DXF
 10
3.65849614143372
 20
-15.8082666397095
 30
5.87747175411144E-39
 11
7.27690935134888
 21
-14.2351655960083
 31
5.87747175411144E-39
 12
10.6576499938965
 22
-14.3292989730835
 32
5.87747175411144E-39
 13
10.6576499938965
 23
-14.3292989730835
 33
5.87747175411144E-39
 0
3DFACE
 8
STL2DXF
 10
10.6576499938965
 20
-14.3292989730835
 30
5.87747175411144E-39
 11
7.27690935134888
 21
-14.2351655960083
 31
5.87747175411144E-39
 12
10.6576499938965
 22
-13.3292989730835
 32
5.87747175411144E-39
 13
10.6576499938965
 23
-13.3292989730835
 33
5.87747175411144E-39
 0
3DFACE
 8
STL2DXF
 10
10.6576499938965
 20
-14.3292989730835
 30
5.87747175411144E-39
 11
10.6576499938965
 21
-13.3292989730835
 31
5.87747175411144E-39
 12
14.235782623291
 22
-11.9740905761719
 32
5.87747175411144E-39
 13
14.235782623291
 23
-11.9740905761719
 33
5.87747175411144E-39
 0
3DFACE
 8
STL2DXF
 10
10.6576499938965
 20
-14.3292989730835
 30
5.87747175411144E-39
 11
14.235782623291
 21
-11.9740905761719
 31
5.87747175411144E-39
 12
17.5
 22
-11.3108892440796
 32
-3.52495805024531E-16
 13
17.5
 23
-11.3108892440796
 33
-3.52495805024531E-16
 0
3DFACE
 8
STL2DXF
 10
17.5
 20
-11.3108892440796
 30
-3.52495805024531E-16
 11
14.235782623291
 21
-11.9740905761719
 31
5.87747175411144E-39
 12
16.5186939239502
 22
-10.8108892440796
 32
5.87747175411144E-39
 13
16.5186939239502
 23
-10.8108892440796
 33
5.87747175411144E-39
 0
3DFACE
 8
STL2DXF
 10
17.5
 20
-11.3108892440796
 30
-3.52495805024531E-16
 11
16.5186939239502
 21
-10.8108892440796
 31
5.87747175411144E-39
 12
17.5
 22
-10.8108892440796
 32
5.87747175411144E-39
 13
17.5
 23
-10.8108892440796
 33
5.87747175411144E-39
 0
3DFACE
 8
STL2DXF
 10
9.45998191833496
 20
-24.5057163238525
 30
75
 11
10.6576499938965
 21
-13.3292989730835
 31
5.87747175411144E-39
 12
7.27690935134888
 22
-14.2351655960083
 32
5.87747175411144E-39
 13
7.27690935134888
 23
-14.2351655960083
 33
5.87747175411144E-39
 0
3DFACE
 8
STL2DXF
 10
10.6576499938965
 20
-13.3292989730835
 30
5.87747175411144E-39
 11
9.45998191833496
 21
-24.5057163238525
 31
75
 12
14.0602731704712
 22
-23.2730712890625
 32
75
 13
14.0602731704712
 23
-23.2730712890625
 33
75
 0
3DFACE
 8
STL2DXF
 10
14.0602731704712
 20
-24.2730712890625
 30
75
 11
4.75604486465454
 21
-25.2507457733154
 31
75
 12
4.75604486465454
 22
-26.2507457733154
 32
75
 13
4.75604486465454
 23
-26.2507457733154
 33
75
 0
3DFACE
 8
STL2DXF
 10
4.75604486465454
 20
-25.2507457733154
 30
75
 11
14.0602731704712
 21
-24.2730712890625
 31
75
 12
9.45998191833496
 22
-24.5057163238525
 32
75
 13
9.45998191833496
 23
-24.5057163238525
 33
75
 0
3DFACE
 8
STL2DXF
 10
9.45998191833496
 20
-24.5057163238525
 30
75
 11
14.0602731704712
 21
-24.2730712890625
 31
75
 12
14.0602731704712
 22
-23.2730712890625
 32
75
 13
14.0602731704712
 23
-23.2730712890625
 33
75
 0
3DFACE
 8
STL2DXF
 10
14.0602731704712
 20
-23.2730712890625
 30
75
 11
14.0602731704712
 21
-24.2730712890625
 31
75
 12
22.75
 22
-20.4041557312012
 32
75
 13
22.75
 23
-20.4041557312012
 33
75
 0
3DFACE
 8
STL2DXF
 10
14.0602731704712
 20
-23.2730712890625
 30
75
 11
22.75
 21
-20.4041557312012
 31
75
 12
18.5065174102783
 22
-21.5663185119629
 32
75
 13
18.5065174102783
 23
-21.5663185119629
 33
75
 0
3DFACE
 8
STL2DXF
 10
18.5065174102783
 20
-21.5663185119629
 30
75
 11
22.75
 21
-20.4041557312012
 31
75
 12
22.75
 22
-19.4041557312012
 32
75
 13
22.75
 23
-19.4041557312012
 33
75
 0
3DFACE
 8
STL2DXF
 10
22.75
 20
-19.4041557312012
 30
75
 11
22.75
 21
-20.4041557312012
 31
75
 12
22.75
 22
-19.9041557312012
 32
75
 13
22.75
 23
-19.9041557312012
 33
75
 0
3DFACE
 8
STL2DXF
 10
4.75604486465454
 20
-25.2507457733154
 30
75
 11
3.65849614143372
 21
-15.8082666397095
 31
5.87747175411144E-39
 12
4.75604486465454
 22
-26.2507457733154
 32
75
 13
4.75604486465454
 23
-26.2507457733154
 33
75
 0
3DFACE
 8
STL2DXF
 10
3.65849614143372
 20
-15.8082666397095
 30
5.87747175411144E-39
 11
4.75604486465454
 21
-25.2507457733154
 31
75
 12
3.65849614143372
 22
-14.8082666397095
 32
5.87747175411144E-39
 13
3.65849614143372
 23
-14.8082666397095
 33
5.87747175411144E-39
 0
3DFACE
 8
STL2DXF
 10
3.65849614143372
 20
-15.8082666397095
 30
5.87747175411144E-39
 11
3.65849614143372
 21
-14.8082666397095
 31
5.87747175411144E-39
 12
3.65849614143372
 22
-15.3082666397095
 32
5.87747175411144E-39
 13
3.65849614143372
 23
-15.3082666397095
 33
5.87747175411144E-39
 0
3DFACE
 8
STL2DXF
 10
17.7886753082275
 20
-10.8108892440796
 30
4.12393045425415
 11
17.5
 21
-10.8108892440796
 31
5.87747175411144E-39
 12
16.5186939239502
 22
-10.8108892440796
 32
5.87747175411144E-39
 13
16.5186939239502
 23
-10.8108892440796
 33
5.87747175411144E-39
 0
3DFACE
 8
STL2DXF
 10
14.0602731704712
 20
-24.2730712890625
 30
75
 11
3.65849614143372
 21
-15.8082666397095
 31
5.87747175411144E-39
 12
10.6576499938965
 22
-14.3292989730835
 32
5.87747175411144E-39
 13
10.6576499938965
 23
-14.3292989730835
 33
5.87747175411144E-39
 0
3DFACE
 8
STL2DXF
 10
3.65849614143372
 20
-15.8082666397095
 30
5.87747175411144E-39
 11
14.0602731704712
 21
-24.2730712890625
 31
75
 12
4.75604486465454
 22
-26.2507457733154
 32
75
 13
4.75604486465454
 23
-26.2507457733154
 33
75
 0
3DFACE
 8
STL2DXF
 10
17.5
 20
-11.3108892440796
 30
-3.52495805024531E-16
 11
15.7141160964966
 21
-14.2796201705933
 31
14.3275995254517
 12
10.6576499938965
 22
-14.3292989730835
 32
5.87747175411144E-39
 13
10.6576499938965
 23
-14.3292989730835
 33
5.87747175411144E-39
 0
3DFACE
 8
STL2DXF
 10
15.7141160964966
 20
-14.2796201705933
 30
14.3275995254517
 11
17.5
 21
-11.3108892440796
 31
-3.52495805024531E-16
 12
15.7822637557983
 22
-14.3280639648438
 32
14.8435039520264
 13
15.7822637557983
 23
-14.3280639648438
 33
14.8435039520264
 0
3DFACE
 8
STL2DXF
 10
15.7822637557983
 20
-14.3280639648438
 30
14.8435039520264
 11
17.5
 21
-11.3108892440796
 31
-3.52495805024531E-16
 12
22.75
 22
-20.4041557312012
 32
75
 13
22.75
 23
-20.4041557312012
 33
75
 0
3DFACE
 8
STL2DXF
 10
10.6576499938965
 20
-14.3292989730835
 30
5.87747175411144E-39
 11
15.7141160964966
 21
-14.2796201705933
 31
14.3275995254517
 12
15.5143146514893
 22
-14.2936840057373
 32
13.8385639190674
 13
15.5143146514893
 23
-14.2936840057373
 33
13.8385639190674
 0
3DFACE
 8
STL2DXF
 10
10.6576499938965
 20
-14.3292989730835
 30
5.87747175411144E-39
 11
15.5143146514893
 21
-14.2936840057373
 31
13.8385639190674
 12
15.1964778900146
 22
-14.3692960739136
 32
13.409725189209
 13
15.1964778900146
 23
-14.3692960739136
 33
13.409725189209
 0
3DFACE
 8
STL2DXF
 10
10.6576499938965
 20
-14.3292989730835
 30
5.87747175411144E-39
 11
15.1964778900146
 21
-14.3692960739136
 31
13.409725189209
 12
14.7822637557983
 22
-14.5013036727905
 32
13.0703077316284
 13
14.7822637557983
 23
-14.5013036727905
 33
13.0703077316284
 0
3DFACE
 8
STL2DXF
 10
10.6576499938965
 20
-14.3292989730835
 30
5.87747175411144E-39
 11
14.7822637557983
 21
-14.5013036727905
 31
13.0703077316284
 12
14.2999019622803
 22
-14.6807107925415
 32
12.8434410095215
 13
14.2999019622803
 23
-14.6807107925415
 33
12.8434410095215
 0
3DFACE
 8
STL2DXF
 10
10.6576499938965
 20
-14.3292989730835
 30
5.87747175411144E-39
 11
14.2999019622803
 21
-14.6807107925415
 31
12.8434410095215
 12
13.7822637557983
 22
-14.8952913284302
 32
12.7445869445801
 13
13.7822637557983
 23
-14.8952913284302
 33
12.7445869445801
 0
3DFACE
 8
STL2DXF
 10
15.7822637557983
 20
-14.3280639648438
 30
14.8435039520264
 11
22.75
 21
-20.4041557312012
 31
75
 12
15.7141160964966
 22
-14.4357128143311
 32
15.3511190414429
 13
15.7141160964966
 23
-14.4357128143311
 33
15.3511190414429
 0
3DFACE
 8
STL2DXF
 10
15.7141160964966
 20
-14.4357128143311
 30
15.3511190414429
 11
22.75
 21
-20.4041557312012
 31
75
 12
15.5143146514893
 22
-14.5952320098877
 32
15.8158521652222
 13
15.5143146514893
 23
-14.5952320098877
 33
15.8158521652222
 0
3DFACE
 8
STL2DXF
 10
15.5143146514893
 20
-14.5952320098877
 30
15.8158521652222
 11
22.75
 21
-20.4041557312012
 31
75
 12
15.1964778900146
 22
-14.7957487106323
 32
16.206033706665
 13
15.1964778900146
 23
-14.7957487106323
 33
16.206033706665
 0
3DFACE
 8
STL2DXF
 10
15.1964778900146
 20
-14.7957487106323
 30
16.206033706665
 11
22.75
 21
-20.4041557312012
 31
75
 12
14.7822637557983
 22
-15.0236005783081
 32
16.4950714111328
 13
14.7822637557983
 23
-15.0236005783081
 33
16.4950714111328
 0
3DFACE
 8
STL2DXF
 10
14.7822637557983
 20
-15.0236005783081
 30
16.4950714111328
 11
22.75
 21
-20.4041557312012
 31
75
 12
14.2999019622803
 22
-15.2632570266724
 32
16.6632690429688
 13
14.2999019622803
 23
-15.2632570266724
 33
16.6632690429688
 0
3DFACE
 8
STL2DXF
 10
14.2999019622803
 20
-15.2632570266724
 30
16.6632690429688
 11
22.75
 21
-20.4041557312012
 31
75
 12
13.7822637557983
 22
-15.4983882904053
 32
16.6991634368896
 13
13.7822637557983
 23
-15.4983882904053
 33
16.6991634368896
 0
3DFACE
 8
STL2DXF
 10
10.6576499938965
 20
-14.3292989730835
 30
5.87747175411144E-39
 11
11.7822637557983
 21
-16.065616607666
 31
14.6002464294434
 12
14.0602731704712
 22
-24.2730712890625
 32
75
 13
14.0602731704712
 23
-24.2730712890625
 33
75
 0
3DFACE
 8
STL2DXF
 10
11.7822637557983
 20
-16.065616607666
 30
14.6002464294434
 11
10.6576499938965
 21
-14.3292989730835
 31
5.87747175411144E-39
 12
11.8504123687744
 22
-15.9579668045044
 32
14.0926313400269
 13
11.8504123687744
 23
-15.9579668045044
 33
14.0926313400269
 0
3DFACE
 8
STL2DXF
 10
11.8504123687744
 20
-15.9579668045044
 30
14.0926313400269
 11
10.6576499938965
 21
-14.3292989730835
 31
5.87747175411144E-39
 12
12.0502128601074
 22
-15.7984476089478
 32
13.6278972625732
 13
12.0502128601074
 23
-15.7984476089478
 33
13.6278972625732
 0
3DFACE
 8
STL2DXF
 10
12.0502128601074
 20
-15.7984476089478
 30
13.6278972625732
 11
10.6576499938965
 21
-14.3292989730835
 31
5.87747175411144E-39
 12
12.3680505752563
 22
-15.5979309082031
 32
13.2377166748047
 13
12.3680505752563
 23
-15.5979309082031
 33
13.2377166748047
 0
3DFACE
 8
STL2DXF
 10
12.3680505752563
 20
-15.5979309082031
 30
13.2377166748047
 11
10.6576499938965
 21
-14.3292989730835
 31
5.87747175411144E-39
 12
12.7822637557983
 22
-15.3700790405273
 32
12.9486789703369
 13
12.7822637557983
 23
-15.3700790405273
 33
12.9486789703369
 0
3DFACE
 8
STL2DXF
 10
12.7822637557983
 20
-15.3700790405273
 30
12.9486789703369
 11
10.6576499938965
 21
-14.3292989730835
 31
5.87747175411144E-39
 12
13.2646255493164
 22
-15.1304225921631
 32
12.780481338501
 13
13.2646255493164
 23
-15.1304225921631
 33
12.780481338501
 0
3DFACE
 8
STL2DXF
 10
13.2646255493164
 20
-15.1304225921631
 30
12.780481338501
 11
10.6576499938965
 21
-14.3292989730835
 31
5.87747175411144E-39
 12
13.7822637557983
 22
-14.8952913284302
 32
12.7445869445801
 13
13.7822637557983
 23
-14.8952913284302
 33
12.7445869445801
 0
3DFACE
 8
STL2DXF
 10
14.0602731704712
 20
-24.2730712890625
 30
75
 11
11.7822637557983
 21
-16.065616607666
 31
14.6002464294434
 12
11.8504123687744
 22
-16.1140594482422
 32
15.1161508560181
 13
11.8504123687744
 23
-16.1140594482422
 33
15.1161508560181
 0
3DFACE
 8
STL2DXF
 10
14.0602731704712
 20
-24.2730712890625
 30
75
 11
11.8504123687744
 21
-16.1140594482422
 31
15.1161508560181
 12
12.0502128601074
 22
-16.0999965667725
 32
15.605185508728
 13
12.0502128601074
 23
-16.0999965667725
 33
15.605185508728
 0
3DFACE
 8
STL2DXF
 10
14.0602731704712
 20
-24.2730712890625
 30
75
 11
12.0502128601074
 21
-16.0999965667725
 31
15.605185508728
 12
12.3680505752563
 22
-16.0243835449219
 32
16.0340251922607
 13
12.3680505752563
 23
-16.0243835449219
 33
16.0340251922607
 0
3DFACE
 8
STL2DXF
 10
14.0602731704712
 20
-24.2730712890625
 30
75
 11
12.3680505752563
 21
-16.0243835449219
 31
16.0340251922607
 12
12.7822637557983
 22
-15.8923759460449
 32
16.373441696167
 13
12.7822637557983
 23
-15.8923759460449
 33
16.373441696167
 0
3DFACE
 8
STL2DXF
 10
14.0602731704712
 20
-24.2730712890625
 30
75
 11
12.7822637557983
 21
-15.8923759460449
 31
16.373441696167
 12
13.2646255493164
 22
-15.7129688262939
 32
16.6003093719482
 13
13.2646255493164
 23
-15.7129688262939
 33
16.6003093719482
 0
3DFACE
 8
STL2DXF
 10
14.0602731704712
 20
-24.2730712890625
 30
75
 11
13.2646255493164
 21
-15.7129688262939
 31
16.6003093719482
 12
13.7822637557983
 22
-15.4983882904053
 32
16.6991634368896
 13
13.7822637557983
 23
-15.4983882904053
 33
16.6991634368896
 0
3DFACE
 8
STL2DXF
 10
14.0602731704712
 20
-24.2730712890625
 30
75
 11
13.7822637557983
 21
-15.4983882904053
 31
16.6991634368896
 12
22.75
 22
-20.4041557312012
 32
75
 13
22.75
 23
-20.4041557312012
 33
75
 0
3DFACE
 8
STL2DXF
 10
17.5
 20
-11.3108892440796
 30
-3.52495805024531E-16
 11
22.75
 21
-19.9041557312012
 31
75
 12
22.75
 22
-20.4041557312012
 32
75
 13
22.75
 23
-20.4041557312012
 33
75
 0
3DFACE
 8
STL2DXF
 10
22.75
 20
-19.9041557312012
 30
75
 11
17.5
 21
-11.3108892440796
 31
-3.52495805024531E-16
 12
22.75
 22
-19.4041557312012
 32
75
 13
22.75
 23
-19.4041557312012
 33
75
 0
3DFACE
 8
STL2DXF
 10
22.75
 20
-19.4041557312012
 30
75
 11
17.5
 21
-11.3108892440796
 31
-3.52495805024531E-16
 12
17.7886753082275
 22
-10.8108892440796
 32
4.12393045425415
 13
17.7886753082275
 23
-10.8108892440796
 33
4.12393045425415
 0
3DFACE
 8
STL2DXF
 10
17.7886753082275
 20
-10.8108892440796
 30
4.12393045425415
 11
17.5
 21
-11.3108892440796
 31
-3.52495805024531E-16
 12
17.5
 22
-10.8108892440796
 32
5.87747175411144E-39
 13
17.5
 23
-10.8108892440796
 33
5.87747175411144E-39
 0
3DFACE
 8
STL2DXF
 10
18.5065174102783
 20
-21.5663185119629
 30
75
 11
16.5186939239502
 21
-10.8108892440796
 31
5.87747175411144E-39
 12
14.235782623291
 22
-11.9740905761719
 32
5.87747175411144E-39
 13
14.235782623291
 23
-11.9740905761719
 33
5.87747175411144E-39
 0
3DFACE
 8
STL2DXF
 10
16.5186939239502
 20
-10.8108892440796
 30
5.87747175411144E-39
 11
18.5065174102783
 21
-21.5663185119629
 31
75
 12
17.7886753082275
 22
-10.8108892440796
 32
4.12393045425415
 13
17.7886753082275
 23
-10.8108892440796
 33
4.12393045425415
 0
3DFACE
 8
STL2DXF
 10
17.7886753082275
 20
-10.8108892440796
 30
4.12393045425415
 11
18.5065174102783
 21
-21.5663185119629
 31
75
 12
22.75
 22
-19.4041557312012
 32
75
 13
22.75
 23
-19.4041557312012
 33
75
 0
3DFACE
 8
STL2DXF
 10
14.0602731704712
 20
-23.2730712890625
 30
75
 11
14.235782623291
 21
-11.9740905761719
 31
5.87747175411144E-39
 12
10.6576499938965
 22
-13.3292989730835
 32
5.87747175411144E-39
 13
10.6576499938965
 23
-13.3292989730835
 33
5.87747175411144E-39
 0
3DFACE
 8
STL2DXF
 10
14.235782623291
 20
-11.9740905761719
 30
5.87747175411144E-39
 11
14.0602731704712
 21
-23.2730712890625
 31
75
 12
18.5065174102783
 22
-21.5663185119629
 32
75
 13
18.5065174102783
 23
-21.5663185119629
 33
75
 0
3DFACE
 8
STL2DXF
 10
15.7822637557983
 20
-18.5107383728027
 30
14.2579288482666
 11
15.7141160964966
 21
-14.4357128143311
 31
15.3511190414429
 12
15.7141160964966
 22
-18.5825080871582
 32
14.7705678939819
 13
15.7141160964966
 23
-18.5825080871582
 33
14.7705678939819
 0
3DFACE
 8
STL2DXF
 10
15.7141160964966
 20
-14.4357128143311
 30
15.3511190414429
 11
15.7822637557983
 21
-18.5107383728027
 31
14.2579288482666
 12
15.7822637557983
 22
-14.3280639648438
 32
14.8435039520264
 13
15.7822637557983
 23
-14.3280639648438
 33
14.8435039520264
 0
3DFACE
 8
STL2DXF
 10
15.7141160964966
 20
-18.4389686584473
 30
13.7452907562256
 11
15.7822637557983
 21
-14.3280639648438
 31
14.8435039520264
 12
15.7822637557983
 22
-18.5107383728027
 32
14.2579288482666
 13
15.7822637557983
 23
-18.5107383728027
 33
14.2579288482666
 0
3DFACE
 8
STL2DXF
 10
15.7822637557983
 20
-14.3280639648438
 30
14.8435039520264
 11
15.7141160964966
 21
-18.4389686584473
 31
13.7452907562256
 12
15.7141160964966
 22
-14.2796201705933
 32
14.3275995254517
 13
15.7141160964966
 23
-14.2796201705933
 33
14.3275995254517
 0
3DFACE
 8
STL2DXF
 10
15.7141160964966
 20
-18.5825080871582
 30
14.7705678939819
 11
15.5143146514893
 21
-14.5952320098877
 31
15.8158521652222
 12
15.5143146514893
 22
-18.6493873596191
 32
15.2482709884644
 13
15.5143146514893
 23
-18.6493873596191
 33
15.2482709884644
 0
3DFACE
 8
STL2DXF
 10
15.5143146514893
 20
-14.5952320098877
 30
15.8158521652222
 11
15.7141160964966
 21
-18.5825080871582
 31
14.7705678939819
 12
15.7141160964966
 22
-14.4357128143311
 32
15.3511190414429
 13
15.7141160964966
 23
-14.4357128143311
 33
15.3511190414429
 0
3DFACE
 8
STL2DXF
 10
15.5143146514893
 20
-18.6493873596191
 30
15.2482709884644
 11
15.1964778900146
 21
-14.7957487106323
 31
16.206033706665
 12
15.1964778900146
 22
-18.7068157196045
 32
15.658483505249
 13
15.1964778900146
 23
-18.7068157196045
 33
15.658483505249
 0
3DFACE
 8
STL2DXF
 10
15.1964778900146
 20
-14.7957487106323
 30
16.206033706665
 11
15.5143146514893
 21
-18.6493873596191
 31
15.2482709884644
 12
15.5143146514893
 22
-14.5952320098877
 32
15.8158521652222
 13
15.5143146514893
 23
-14.5952320098877
 33
15.8158521652222
 0
3DFACE
 8
STL2DXF
 10
15.1964778900146
 20
-18.7068157196045
 30
15.658483505249
 11
14.7822637557983
 21
-15.0236005783081
 31
16.4950714111328
 12
14.7822637557983
 22
-18.750883102417
 32
15.9732513427734
 13
14.7822637557983
 23
-18.750883102417
 33
15.9732513427734
 0
3DFACE
 8
STL2DXF
 10
14.7822637557983
 20
-15.0236005783081
 30
16.4950714111328
 11
15.1964778900146
 21
-18.7068157196045
 31
15.658483505249
 12
15.1964778900146
 22
-14.7957487106323
 32
16.206033706665
 13
15.1964778900146
 23
-14.7957487106323
 33
16.206033706665
 0
3DFACE
 8
STL2DXF
 10
12.3680505752563
 20
-16.0243835449219
 30
16.0340251922607
 11
12.0502128601074
 21
-18.6493873596191
 31
15.2482709884644
 12
12.3680505752563
 22
-18.7068157196045
 32
15.658483505249
 13
12.3680505752563
 23
-18.7068157196045
 33
15.658483505249
 0
3DFACE
 8
STL2DXF
 10
12.0502128601074
 20
-18.6493873596191
 30
15.2482709884644
 11
12.3680505752563
 21
-16.0243835449219
 31
16.0340251922607
 12
12.0502128601074
 22
-16.0999965667725
 32
15.605185508728
 13
12.0502128601074
 23
-16.0999965667725
 33
15.605185508728
 0
3DFACE
 8
STL2DXF
 10
14.7822637557983
 20
-18.750883102417
 30
15.9732513427734
 11
14.2999019622803
 21
-15.2632570266724
 31
16.6632690429688
 12
14.2999019622803
 22
-18.77858543396
 32
16.17112159729
 13
14.2999019622803
 23
-18.77858543396
 33
16.17112159729
 0
3DFACE
 8
STL2DXF
 10
14.2999019622803
 20
-15.2632570266724
 30
16.6632690429688
 11
14.7822637557983
 21
-18.750883102417
 31
15.9732513427734
 12
14.7822637557983
 22
-15.0236005783081
 32
16.4950714111328
 13
14.7822637557983
 23
-15.0236005783081
 33
16.4950714111328
 0
3DFACE
 8
STL2DXF
 10
13.7822637557983
 20
-18.7880344390869
 30
16.2386131286621
 11
14.2999019622803
 21
-15.2632570266724
 31
16.6632690429688
 12
13.7822637557983
 22
-15.4983882904053
 32
16.6991634368896
 13
13.7822637557983
 23
-15.4983882904053
 33
16.6991634368896
 0
3DFACE
 8
STL2DXF
 10
14.2999019622803
 20
-15.2632570266724
 30
16.6632690429688
 11
13.7822637557983
 21
-18.7880344390869
 31
16.2386131286621
 12
14.2999019622803
 22
-18.77858543396
 32
16.17112159729
 13
14.2999019622803
 23
-18.77858543396
 33
16.17112159729
 0
3DFACE
 8
STL2DXF
 10
13.2646255493164
 20
-18.77858543396
 30
16.17112159729
 11
13.7822637557983
 21
-15.4983882904053
 31
16.6991634368896
 12
13.2646255493164
 22
-15.7129688262939
 32
16.6003093719482
 13
13.2646255493164
 23
-15.7129688262939
 33
16.6003093719482
 0
3DFACE
 8
STL2DXF
 10
13.7822637557983
 20
-15.4983882904053
 30
16.6991634368896
 11
13.2646255493164
 21
-18.77858543396
 31
16.17112159729
 12
13.7822637557983
 22
-18.7880344390869
 32
16.2386131286621
 13
13.7822637557983
 23
-18.7880344390869
 33
16.2386131286621
 0
3DFACE
 8
STL2DXF
 10
12.7822637557983
 20
-18.750883102417
 30
15.9732513427734
 11
13.2646255493164
 21
-15.7129688262939
 31
16.6003093719482
 12
12.7822637557983
 22
-15.8923759460449
 32
16.373441696167
 13
12.7822637557983
 23
-15.8923759460449
 33
16.373441696167
 0
3DFACE
 8
STL2DXF
 10
13.2646255493164
 20
-15.7129688262939
 30
16.6003093719482
 11
12.7822637557983
 21
-18.750883102417
 31
15.9732513427734
 12
13.2646255493164
 22
-18.77858543396
 32
16.17112159729
 13
13.2646255493164
 23
-18.77858543396
 33
16.17112159729
 0
3DFACE
 8
STL2DXF
 10
12.3680505752563
 20
-18.7068157196045
 30
15.658483505249
 11
12.7822637557983
 21
-15.8923759460449
 31
16.373441696167
 12
12.3680505752563
 22
-16.0243835449219
 32
16.0340251922607
 13
12.3680505752563
 23
-16.0243835449219
 33
16.0340251922607
 0
3DFACE
 8
STL2DXF
 10
12.7822637557983
 20
-15.8923759460449
 30
16.373441696167
 11
12.3680505752563
 21
-18.7068157196045
 31
15.658483505249
 12
12.7822637557983
 22
-18.750883102417
 32
15.9732513427734
 13
12.7822637557983
 23
-18.750883102417
 33
15.9732513427734
 0
3DFACE
 8
STL2DXF
 10
12.0502128601074
 20
-16.0999965667725
 30
15.605185508728
 11
11.8504123687744
 21
-18.5825080871582
 31
14.7705678939819
 12
12.0502128601074
 22
-18.6493873596191
 32
15.2482709884644
 13
12.0502128601074
 23
-18.6493873596191
 33
15.2482709884644
 0
3DFACE
 8
STL2DXF
 10
11.8504123687744
 20
-18.5825080871582
 30
14.7705678939819
 11
12.0502128601074
 21
-16.0999965667725
 31
15.605185508728
 12
11.8504123687744
 22
-16.1140594482422
 32
15.1161508560181
 13
11.8504123687744
 23
-16.1140594482422
 33
15.1161508560181
 0
3DFACE
 8
STL2DXF
 10
11.8504123687744
 20
-16.1140594482422
 30
15.1161508560181
 11
11.7822637557983
 21
-18.5107383728027
 31
14.2579288482666
 12
11.8504123687744
 22
-18.5825080871582
 32
14.7705678939819
 13
11.8504123687744
 23
-18.5825080871582
 33
14.7705678939819
 0
3DFACE
 8
STL2DXF
 10
11.7822637557983
 20
-18.5107383728027
 30
14.2579288482666
 11
11.8504123687744
 21
-16.1140594482422
 31
15.1161508560181
 12
11.7822637557983
 22
-16.065616607666
 32
14.6002464294434
 13
11.7822637557983
 23
-16.065616607666
 33
14.6002464294434
 0
3DFACE
 8
STL2DXF
 10
11.7822637557983
 20
-16.065616607666
 30
14.6002464294434
 11
11.8504123687744
 21
-18.4389686584473
 31
13.7452907562256
 12
11.7822637557983
 22
-18.5107383728027
 32
14.2579288482666
 13
11.7822637557983
 23
-18.5107383728027
 33
14.2579288482666
 0
3DFACE
 8
STL2DXF
 10
11.8504123687744
 20
-18.4389686584473
 30
13.7452907562256
 11
11.7822637557983
 21
-16.065616607666
 31
14.6002464294434
 12
11.8504123687744
 22
-15.9579668045044
 32
14.0926313400269
 13
11.8504123687744
 23
-15.9579668045044
 33
14.0926313400269
 0
3DFACE
 8
STL2DXF
 10
11.8504123687744
 20
-15.9579668045044
 30
14.0926313400269
 11
12.0502128601074
 21
-18.372091293335
 31
13.2675876617432
 12
11.8504123687744
 22
-18.4389686584473
 32
13.7452907562256
 13
11.8504123687744
 23
-18.4389686584473
 33
13.7452907562256
 0
3DFACE
 8
STL2DXF
 10
12.0502128601074
 20
-18.372091293335
 30
13.2675876617432
 11
11.8504123687744
 21
-15.9579668045044
 31
14.0926313400269
 12
12.0502128601074
 22
-15.7984476089478
 32
13.6278972625732
 13
12.0502128601074
 23
-15.7984476089478
 33
13.6278972625732
 0
3DFACE
 8
STL2DXF
 10
12.0502128601074
 20
-15.7984476089478
 30
13.6278972625732
 11
12.3680505752563
 21
-18.314661026001
 31
12.8573741912842
 12
12.0502128601074
 22
-18.372091293335
 32
13.2675876617432
 13
12.0502128601074
 23
-18.372091293335
 33
13.2675876617432
 0
3DFACE
 8
STL2DXF
 10
12.3680505752563
 20
-18.314661026001
 30
12.8573741912842
 11
12.0502128601074
 21
-15.7984476089478
 31
13.6278972625732
 12
12.3680505752563
 22
-15.5979309082031
 32
13.2377166748047
 13
12.3680505752563
 23
-15.5979309082031
 33
13.2377166748047
 0
3DFACE
 8
STL2DXF
 10
12.3680505752563
 20
-15.5979309082031
 30
13.2377166748047
 11
12.7822637557983
 21
-18.2705936431885
 31
12.5426073074341
 12
12.3680505752563
 22
-18.314661026001
 32
12.8573741912842
 13
12.3680505752563
 23
-18.314661026001
 33
12.8573741912842
 0
3DFACE
 8
STL2DXF
 10
12.7822637557983
 20
-18.2705936431885
 30
12.5426073074341
 11
12.3680505752563
 21
-15.5979309082031
 31
13.2377166748047
 12
12.7822637557983
 22
-15.3700790405273
 32
12.9486789703369
 13
12.7822637557983
 23
-15.3700790405273
 33
12.9486789703369
 0
3DFACE
 8
STL2DXF
 10
12.7822637557983
 20
-15.3700790405273
 30
12.9486789703369
 11
13.2646255493164
 21
-18.2428913116455
 31
12.3447360992432
 12
12.7822637557983
 22
-18.2705936431885
 32
12.5426073074341
 13
12.7822637557983
 23
-18.2705936431885
 33
12.5426073074341
 0
3DFACE
 8
STL2DXF
 10
13.2646255493164
 20
-18.2428913116455
 30
12.3447360992432
 11
12.7822637557983
 21
-15.3700790405273
 31
12.9486789703369
 12
13.2646255493164
 22
-15.1304225921631
 32
12.780481338501
 13
13.2646255493164
 23
-15.1304225921631
 33
12.780481338501
 0
3DFACE
 8
STL2DXF
 10
13.2646255493164
 20
-15.1304225921631
 30
12.780481338501
 11
13.7822637557983
 21
-18.2334423065186
 31
12.2772455215454
 12
13.2646255493164
 22
-18.2428913116455
 32
12.3447360992432
 13
13.2646255493164
 23
-18.2428913116455
 33
12.3447360992432
 0
3DFACE
 8
STL2DXF
 10
13.7822637557983
 20
-18.2334423065186
 30
12.2772455215454
 11
13.2646255493164
 21
-15.1304225921631
 31
12.780481338501
 12
13.7822637557983
 22
-14.8952913284302
 32
12.7445869445801
 13
13.7822637557983
 23
-14.8952913284302
 33
12.7445869445801
 0
3DFACE
 8
STL2DXF
 10
14.2999019622803
 20
-14.6807107925415
 30
12.8434410095215
 11
13.7822637557983
 21
-18.2334423065186
 31
12.2772455215454
 12
13.7822637557983
 22
-14.8952913284302
 32
12.7445869445801
 13
13.7822637557983
 23
-14.8952913284302
 33
12.7445869445801
 0
3DFACE
 8
STL2DXF
 10
13.7822637557983
 20
-18.2334423065186
 30
12.2772455215454
 11
14.2999019622803
 21
-14.6807107925415
 31
12.8434410095215
 12
14.2999019622803
 22
-18.2428913116455
 32
12.3447360992432
 13
14.2999019622803
 23
-18.2428913116455
 33
12.3447360992432
 0
3DFACE
 8
STL2DXF
 10
14.7822637557983
 20
-14.5013036727905
 30
13.0703077316284
 11
14.2999019622803
 21
-18.2428913116455
 31
12.3447360992432
 12
14.2999019622803
 22
-14.6807107925415
 32
12.8434410095215
 13
14.2999019622803
 23
-14.6807107925415
 33
12.8434410095215
 0
3DFACE
 8
STL2DXF
 10
14.2999019622803
 20
-18.2428913116455
 30
12.3447360992432
 11
14.7822637557983
 21
-14.5013036727905
 31
13.0703077316284
 12
14.7822637557983
 22
-18.2705936431885
 32
12.5426073074341
 13
14.7822637557983
 23
-18.2705936431885
 33
12.5426073074341
 0
3DFACE
 8
STL2DXF
 10
15.1964778900146
 20
-14.3692960739136
 30
13.409725189209
 11
14.7822637557983
 21
-18.2705936431885
 31
12.5426073074341
 12
14.7822637557983
 22
-14.5013036727905
 32
13.0703077316284
 13
14.7822637557983
 23
-14.5013036727905
 33
13.0703077316284
 0
3DFACE
 8
STL2DXF
 10
14.7822637557983
 20
-18.2705936431885
 30
12.5426073074341
 11
15.1964778900146
 21
-14.3692960739136
 31
13.409725189209
 12
15.1964778900146
 22
-18.314661026001
 32
12.8573741912842
 13
15.1964778900146
 23
-18.314661026001
 33
12.8573741912842
 0
3DFACE
 8
STL2DXF
 10
15.1964778900146
 20
-18.314661026001
 30
12.8573741912842
 11
15.5143146514893
 21
-14.2936840057373
 31
13.8385639190674
 12
15.5143146514893
 22
-18.372091293335
 32
13.2675876617432
 13
15.5143146514893
 23
-18.372091293335
 33
13.2675876617432
 0
3DFACE
 8
STL2DXF
 10
15.5143146514893
 20
-14.2936840057373
 30
13.8385639190674
 11
15.1964778900146
 21
-18.314661026001
 31
12.8573741912842
 12
15.1964778900146
 22
-14.3692960739136
 32
13.409725189209
 13
15.1964778900146
 23
-14.3692960739136
 33
13.409725189209
 0
3DFACE
 8
STL2DXF
 10
15.5143146514893
 20
-18.372091293335
 30
13.2675876617432
 11
15.7141160964966
 21
-14.2796201705933
 31
14.3275995254517
 12
15.7141160964966
 22
-18.4389686584473
 32
13.7452907562256
 13
15.7141160964966
 23
-18.4389686584473
 33
13.7452907562256
 0
3DFACE
 8
STL2DXF
 10
15.7141160964966
 20
-14.2796201705933
 30
14.3275995254517
 11
15.5143146514893
 21
-18.372091293335
 31
13.2675876617432
 12
15.5143146514893
 22
-14.2936840057373
 32
13.8385639190674
 13
15.5143146514893
 23
-14.2936840057373
 33
13.8385639190674
 0
3DFACE
 8
STL2DXF
 10
14.2999019622803
 20
-18.2428913116455
 30
12.3447360992432
 11
13.2646255493164
 21
-18.2428913116455
 31
12.3447360992432
 12
13.7822637557983
 22
-18.2334423065186
 32
12.2772455215454
 13
13.7822637557983
 23
-18.2334423065186
 33
12.2772455215454
 0
3DFACE
 8
STL2DXF
 10
13.2646255493164
 20
-18.2428913116455
 30
12.3447360992432
 11
14.2999019622803
 21
-18.2428913116455
 31
12.3447360992432
 12
14.7822637557983
 22
-18.2705936431885
 32
12.5426073074341
 13
14.7822637557983
 23
-18.2705936431885
 33
12.5426073074341
 0
3DFACE
 8
STL2DXF
 10
13.2646255493164
 20
-18.2428913116455
 30
12.3447360992432
 11
14.7822637557983
 21
-18.2705936431885
 31
12.5426073074341
 12
12.7822637557983
 22
-18.2705936431885
 32
12.5426073074341
 13
12.7822637557983
 23
-18.2705936431885
 33
12.5426073074341
 0
3DFACE
 8
STL2DXF
 10
12.7822637557983
 20
-18.2705936431885
 30
12.5426073074341
 11
14.7822637557983
 21
-18.2705936431885
 31
12.5426073074341
 12
15.1964778900146
 22
-18.314661026001
 32
12.8573741912842
 13
15.1964778900146
 23
-18.314661026001
 33
12.8573741912842
 0
3DFACE
 8
STL2DXF
 10
12.7822637557983
 20
-18.2705936431885
 30
12.5426073074341
 11
15.1964778900146
 21
-18.314661026001
 31
12.8573741912842
 12
12.3680505752563
 22
-18.314661026001
 32
12.8573741912842
 13
12.3680505752563
 23
-18.314661026001
 33
12.8573741912842
 0
3DFACE
 8
STL2DXF
 10
12.3680505752563
 20
-18.314661026001
 30
12.8573741912842
 11
15.1964778900146
 21
-18.314661026001
 31
12.8573741912842
 12
15.5143146514893
 22
-18.372091293335
 32
13.2675876617432
 13
15.5143146514893
 23
-18.372091293335
 33
13.2675876617432
 0
3DFACE
 8
STL2DXF
 10
12.3680505752563
 20
-18.314661026001
 30
12.8573741912842
 11
15.5143146514893
 21
-18.372091293335
 31
13.2675876617432
 12
12.0502128601074
 22
-18.372091293335
 32
13.2675876617432
 13
12.0502128601074
 23
-18.372091293335
 33
13.2675876617432
 0
3DFACE
 8
STL2DXF
 10
12.0502128601074
 20
-18.372091293335
 30
13.2675876617432
 11
15.5143146514893
 21
-18.372091293335
 31
13.2675876617432
 12
15.7141160964966
 22
-18.4389686584473
 32
13.7452907562256
 13
15.7141160964966
 23
-18.4389686584473
 33
13.7452907562256
 0
3DFACE
 8
STL2DXF
 10
12.0502128601074
 20
-18.372091293335
 30
13.2675876617432
 11
15.7141160964966
 21
-18.4389686584473
 31
13.7452907562256
 12
11.8504123687744
 22
-18.4389686584473
 32
13.7452907562256
 13
11.8504123687744
 23
-18.4389686584473
 33
13.7452907562256
 0
3DFACE
 8
STL2DXF
 10
11.8504123687744
 20
-18.4389686584473
 30
13.7452907562256
 11
15.7141160964966
 21
-18.4389686584473
 31
13.7452907562256
 12
15.7822637557983
 22
-18.5107383728027
 32
14.2579288482666
 13
15.7822637557983
 23
-18.5107383728027
 33
14.2579288482666
 0
3DFACE
 8
STL2DXF
 10
11.8504123687744
 20
-18.4389686584473
 30
13.7452907562256
 11
15.7822637557983
 21
-18.5107383728027
 31
14.2579288482666
 12
11.7822637557983
 22
-18.5107383728027
 32
14.2579288482666
 13
11.7822637557983
 23
-18.5107383728027
 33
14.2579288482666
 0
3DFACE
 8
STL2DXF
 10
11.7822637557983
 20
-18.5107383728027
 30
14.2579288482666
 11
15.7822637557983
 21
-18.5107383728027
 31
14.2579288482666
 12
15.7141160964966
 22
-18.5825080871582
 32
14.7705678939819
 13
15.7141160964966
 23
-18.5825080871582
 33
14.7705678939819
 0
3DFACE
 8
STL2DXF
 10
11.7822637557983
 20
-18.5107383728027
 30
14.2579288482666
 11
15.7141160964966
 21
-18.5825080871582
 31
14.7705678939819
 12
11.8504123687744
 22
-18.5825080871582
 32
14.7705678939819
 13
11.8504123687744
 23
-18.5825080871582
 33
14.7705678939819
 0
3DFACE
 8
STL2DXF
 10
11.8504123687744
 20
-18.5825080871582
 30
14.7705678939819
 11
15.7141160964966
 21
-18.5825080871582
 31
14.7705678939819
 12
12.0502128601074
 22
-18.6493873596191
 32
15.2482709884644
 13
12.0502128601074
 23
-18.6493873596191
 33
15.2482709884644
 0
3DFACE
 8
STL2DXF
 10
12.0502128601074
 20
-18.6493873596191
 30
15.2482709884644
 11
15.7141160964966
 21
-18.5825080871582
 31
14.7705678939819
 12
15.5143146514893
 22
-18.6493873596191
 32
15.2482709884644
 13
15.5143146514893
 23
-18.6493873596191
 33
15.2482709884644
 0
3DFACE
 8
STL2DXF
 10
12.0502128601074
 20
-18.6493873596191
 30
15.2482709884644
 11
15.5143146514893
 21
-18.6493873596191
 31
15.2482709884644
 12
15.1964778900146
 22
-18.7068157196045
 32
15.658483505249
 13
15.1964778900146
 23
-18.7068157196045
 33
15.658483505249
 0
3DFACE
 8
STL2DXF
 10
12.0502128601074
 20
-18.6493873596191
 30
15.2482709884644
 11
15.1964778900146
 21
-18.7068157196045
 31
15.658483505249
 12
12.3680505752563
 22
-18.7068157196045
 32
15.658483505249
 13
12.3680505752563
 23
-18.7068157196045
 33
15.658483505249
 0
3DFACE
 8
STL2DXF
 10
12.3680505752563
 20
-18.7068157196045
 30
15.658483505249
 11
15.1964778900146
 21
-18.7068157196045
 31
15.658483505249
 12
14.7822637557983
 22
-18.750883102417
 32
15.9732513427734
 13
14.7822637557983
 23
-18.750883102417
 33
15.9732513427734
 0
3DFACE
 8
STL2DXF
 10
12.3680505752563
 20
-18.7068157196045
 30
15.658483505249
 11
14.7822637557983
 21
-18.750883102417
 31
15.9732513427734
 12
12.7822637557983
 22
-18.750883102417
 32
15.9732513427734
 13
12.7822637557983
 23
-18.750883102417
 33
15.9732513427734
 0
3DFACE
 8
STL2DXF
 10
12.7822637557983
 20
-18.750883102417
 30
15.9732513427734
 11
14.7822637557983
 21
-18.750883102417
 31
15.9732513427734
 12
13.2646255493164
 22
-18.77858543396
 32
16.17112159729
 13
13.2646255493164
 23
-18.77858543396
 33
16.17112159729
 0
3DFACE
 8
STL2DXF
 10
13.2646255493164
 20
-18.77858543396
 30
16.17112159729
 11
14.7822637557983
 21
-18.750883102417
 31
15.9732513427734
 12
14.2999019622803
 22
-18.77858543396
 32
16.17112159729
 13
14.2999019622803
 23
-18.77858543396
 33
16.17112159729
 0
3DFACE
 8
STL2DXF
 10
13.2646255493164
 20
-18.77858543396
 30
16.17112159729
 11
14.2999019622803
 21
-18.77858543396
 31
16.17112159729
 12
13.7822637557983
 22
-18.7880344390869
 32
16.2386131286621
 13
13.7822637557983
 23
-18.7880344390869
 33
16.2386131286621
 0
ENDSEC
 0
EOF
