 999
Conversion of STL file (binary) from www.cadforum.cz; drag the file into AutoCAD or load it with _DXFIN
 0
SECTION
 2
ENTITIES
 0
3DFACE
 8
STL2DXF
 10
2.15000009536743
 20
21.8999996185303
 30
11.3629293441772
 11
2.15000009536743
 21
6.65000009536743
 31
7.20079708099365
 12
2.15000009536743
 22
6.65000009536743
 32
11.3629293441772
 13
2.15000009536743
 23
6.65000009536743
 33
11.3629293441772
 0
3DFACE
 8
STL2DXF
 10
2.15000009536743
 20
6.65000009536743
 30
7.20079708099365
 11
2.15000009536743
 21
21.8999996185303
 31
11.3629293441772
 12
2.15000009536743
 22
7.25
 32
7.20079708099365
 13
2.15000009536743
 23
7.25
 33
7.20079708099365
 0
3DFACE
 8
STL2DXF
 10
2.15000009536743
 20
7.25
 30
7.20079708099365
 11
2.15000009536743
 21
21.8999996185303
 31
11.3629293441772
 12
2.15000009536743
 22
21.8999996185303
 32
7.20079708099365
 13
2.15000009536743
 23
21.8999996185303
 33
7.20079708099365
 0
3DFACE
 8
STL2DXF
 10
1.14999997615814
 20
21.8999996185303
 30
13.1507968902588
 11
4.84999990463257
 21
1.64999997615814
 31
13.1507968902588
 12
4.84999990463257
 22
21.8999996185303
 32
13.1507968902588
 13
4.84999990463257
 23
21.8999996185303
 33
13.1507968902588
 0
3DFACE
 8
STL2DXF
 10
4.84999990463257
 20
1.64999997615814
 30
13.1507968902588
 11
1.14999997615814
 21
21.8999996185303
 31
13.1507968902588
 12
1.14999997615814
 22
1.64999997615814
 32
13.1507968902588
 13
1.14999997615814
 23
1.64999997615814
 33
13.1507968902588
 0
3DFACE
 8
STL2DXF
 10
1.14999997615814
 20
1.64999997615814
 30
13.1507968902588
 11
1.14999997615814
 21
6.65000009536743
 31
12.3629293441772
 12
1.14999997615814
 22
1.64999997615814
 32
7.20079708099365
 13
1.14999997615814
 23
1.64999997615814
 33
7.20079708099365
 0
3DFACE
 8
STL2DXF
 10
1.14999997615814
 20
6.65000009536743
 30
12.3629293441772
 11
1.14999997615814
 21
1.64999997615814
 31
13.1507968902588
 12
1.14999997615814
 22
21.8999996185303
 32
13.1507968902588
 13
1.14999997615814
 23
21.8999996185303
 33
13.1507968902588
 0
3DFACE
 8
STL2DXF
 10
1.14999997615814
 20
6.65000009536743
 30
12.3629293441772
 11
1.14999997615814
 21
21.8999996185303
 31
13.1507968902588
 12
1.14999997615814
 22
21.8999996185303
 32
12.3629293441772
 13
1.14999997615814
 23
21.8999996185303
 33
12.3629293441772
 0
3DFACE
 8
STL2DXF
 10
1.14999997615814
 20
6.65000009536743
 30
7.20079708099365
 11
1.14999997615814
 21
1.64999997615814
 31
7.20079708099365
 12
1.14999997615814
 22
6.65000009536743
 32
12.3629293441772
 13
1.14999997615814
 23
6.65000009536743
 33
12.3629293441772
 0
3DFACE
 8
STL2DXF
 10
2.15000009536743
 20
6.65000009536743
 30
11.3629293441772
 11
1.14999997615814
 21
21.8999996185303
 31
12.3629293441772
 12
2.15000009536743
 22
21.8999996185303
 32
11.3629293441772
 13
2.15000009536743
 23
21.8999996185303
 33
11.3629293441772
 0
3DFACE
 8
STL2DXF
 10
1.14999997615814
 20
21.8999996185303
 30
12.3629293441772
 11
2.15000009536743
 21
6.65000009536743
 31
11.3629293441772
 12
1.14999997615814
 22
6.65000009536743
 32
12.3629293441772
 13
1.14999997615814
 23
6.65000009536743
 33
12.3629293441772
 0
3DFACE
 8
STL2DXF
 10
2.15000009536743
 20
6.65000009536743
 30
11.3629293441772
 11
1.14999997615814
 21
6.65000009536743
 31
7.20079708099365
 12
1.14999997615814
 22
6.65000009536743
 32
12.3629293441772
 13
1.14999997615814
 23
6.65000009536743
 33
12.3629293441772
 0
3DFACE
 8
STL2DXF
 10
1.14999997615814
 20
6.65000009536743
 30
7.20079708099365
 11
2.15000009536743
 21
6.65000009536743
 31
11.3629293441772
 12
2.15000009536743
 22
6.65000009536743
 32
7.20079708099365
 13
2.15000009536743
 23
6.65000009536743
 33
7.20079708099365
 0
3DFACE
 8
STL2DXF
 10
4.84999990463257
 20
6.65000009536743
 30
7.20079708099365
 11
3.84999990463257
 21
6.65000009536743
 31
11.3629293441772
 12
4.84999990463257
 22
6.65000009536743
 32
12.3629293441772
 13
4.84999990463257
 23
6.65000009536743
 33
12.3629293441772
 0
3DFACE
 8
STL2DXF
 10
3.84999990463257
 20
6.65000009536743
 30
11.3629293441772
 11
4.84999990463257
 21
6.65000009536743
 31
7.20079708099365
 12
3.84999990463257
 22
6.65000009536743
 32
7.20079708099365
 13
3.84999990463257
 23
6.65000009536743
 33
7.20079708099365
 0
3DFACE
 8
STL2DXF
 10
4.84999990463257
 20
6.65000009536743
 30
7.20079708099365
 11
4.84999990463257
 21
6.65000009536743
 31
12.3629293441772
 12
4.84999990463257
 22
1.64999997615814
 32
7.20079708099365
 13
4.84999990463257
 23
1.64999997615814
 33
7.20079708099365
 0
3DFACE
 8
STL2DXF
 10
4.84999990463257
 20
1.64999997615814
 30
13.1507968902588
 11
4.84999990463257
 21
6.65000009536743
 31
12.3629293441772
 12
4.84999990463257
 22
21.8999996185303
 32
13.1507968902588
 13
4.84999990463257
 23
21.8999996185303
 33
13.1507968902588
 0
3DFACE
 8
STL2DXF
 10
4.84999990463257
 20
6.65000009536743
 30
12.3629293441772
 11
4.84999990463257
 21
1.64999997615814
 31
13.1507968902588
 12
4.84999990463257
 22
1.64999997615814
 32
7.20079708099365
 13
4.84999990463257
 23
1.64999997615814
 33
7.20079708099365
 0
3DFACE
 8
STL2DXF
 10
4.84999990463257
 20
21.8999996185303
 30
13.1507968902588
 11
4.84999990463257
 21
6.65000009536743
 31
12.3629293441772
 12
4.84999990463257
 22
21.8999996185303
 32
12.3629293441772
 13
4.84999990463257
 23
21.8999996185303
 33
12.3629293441772
 0
3DFACE
 8
STL2DXF
 10
3.84999990463257
 20
6.65000009536743
 30
11.3629293441772
 11
4.84999990463257
 21
21.8999996185303
 31
12.3629293441772
 12
4.84999990463257
 22
6.65000009536743
 32
12.3629293441772
 13
4.84999990463257
 23
6.65000009536743
 33
12.3629293441772
 0
3DFACE
 8
STL2DXF
 10
4.84999990463257
 20
21.8999996185303
 30
12.3629293441772
 11
3.84999990463257
 21
6.65000009536743
 31
11.3629293441772
 12
3.84999990463257
 22
21.8999996185303
 32
11.3629293441772
 13
3.84999990463257
 23
21.8999996185303
 33
11.3629293441772
 0
3DFACE
 8
STL2DXF
 10
3.84999990463257
 20
7.25
 30
7.20079708099365
 11
3.84999990463257
 21
6.65000009536743
 31
11.3629293441772
 12
3.84999990463257
 22
6.65000009536743
 32
7.20079708099365
 13
3.84999990463257
 23
6.65000009536743
 33
7.20079708099365
 0
3DFACE
 8
STL2DXF
 10
3.84999990463257
 20
6.65000009536743
 30
11.3629293441772
 11
3.84999990463257
 21
7.25
 31
7.20079708099365
 12
3.84999990463257
 22
21.8999996185303
 32
11.3629293441772
 13
3.84999990463257
 23
21.8999996185303
 33
11.3629293441772
 0
3DFACE
 8
STL2DXF
 10
3.84999990463257
 20
21.8999996185303
 30
11.3629293441772
 11
3.84999990463257
 21
7.25
 31
7.20079708099365
 12
3.84999990463257
 22
21.8999996185303
 32
7.20079708099365
 13
3.84999990463257
 23
21.8999996185303
 33
7.20079708099365
 0
3DFACE
 8
STL2DXF
 10
4.84999990463257
 20
21.8999996185303
 30
13.1507968902588
 11
1.14999997615814
 21
21.8999996185303
 31
12.3629293441772
 12
1.14999997615814
 22
21.8999996185303
 32
13.1507968902588
 13
1.14999997615814
 23
21.8999996185303
 33
13.1507968902588
 0
3DFACE
 8
STL2DXF
 10
1.14999997615814
 20
21.8999996185303
 30
12.3629293441772
 11
4.84999990463257
 21
21.8999996185303
 31
13.1507968902588
 12
4.84999990463257
 22
21.8999996185303
 32
12.3629293441772
 13
4.84999990463257
 23
21.8999996185303
 33
12.3629293441772
 0
3DFACE
 8
STL2DXF
 10
1.14999997615814
 20
21.8999996185303
 30
12.3629293441772
 11
4.84999990463257
 21
21.8999996185303
 31
12.3629293441772
 12
2.15000009536743
 22
21.8999996185303
 32
11.3629293441772
 13
2.15000009536743
 23
21.8999996185303
 33
11.3629293441772
 0
3DFACE
 8
STL2DXF
 10
2.15000009536743
 20
21.8999996185303
 30
11.3629293441772
 11
4.84999990463257
 21
21.8999996185303
 31
12.3629293441772
 12
3.84999990463257
 22
21.8999996185303
 32
11.3629293441772
 13
3.84999990463257
 23
21.8999996185303
 33
11.3629293441772
 0
3DFACE
 8
STL2DXF
 10
2.15000009536743
 20
21.8999996185303
 30
11.3629293441772
 11
3.84999990463257
 21
21.8999996185303
 31
11.3629293441772
 12
2.15000009536743
 22
21.8999996185303
 32
7.20079708099365
 13
2.15000009536743
 23
21.8999996185303
 33
7.20079708099365
 0
3DFACE
 8
STL2DXF
 10
2.15000009536743
 20
21.8999996185303
 30
7.20079708099365
 11
3.84999990463257
 21
21.8999996185303
 31
11.3629293441772
 12
3.84999990463257
 22
21.8999996185303
 32
7.20079708099365
 13
3.84999990463257
 23
21.8999996185303
 33
7.20079708099365
 0
3DFACE
 8
STL2DXF
 10
2.15000009536743
 20
21.8999996185303
 30
7.20079708099365
 11
3.84999990463257
 21
21.8999996185303
 31
7.20079708099365
 12
1
 22
21.8999996185303
 32
7.20079708099365
 13
1
 23
21.8999996185303
 33
7.20079708099365
 0
3DFACE
 8
STL2DXF
 10
1
 20
21.8999996185303
 30
7.20079708099365
 11
3.84999990463257
 21
21.8999996185303
 31
7.20079708099365
 12
1
 22
21.8999996185303
 32
6.20079708099365
 13
1
 23
21.8999996185303
 33
6.20079708099365
 0
3DFACE
 8
STL2DXF
 10
-8.43769498715119E-14
 20
62.25
 30
7.20079708099365
 11
1
 21
21.8999996185303
 31
7.20079708099365
 12
1
 22
62.25
 32
7.20079708099365
 13
1
 23
62.25
 33
7.20079708099365
 0
3DFACE
 8
STL2DXF
 10
1
 20
21.8999996185303
 30
7.20079708099365
 11
2.15000009536743
 21
7.25
 31
7.20079708099365
 12
2.15000009536743
 22
21.8999996185303
 32
7.20079708099365
 13
2.15000009536743
 23
21.8999996185303
 33
7.20079708099365
 0
3DFACE
 8
STL2DXF
 10
2.15000009536743
 20
7.25
 30
7.20079708099365
 11
1
 21
21.8999996185303
 31
7.20079708099365
 12
2.15000009536743
 22
6.65000009536743
 32
7.20079708099365
 13
2.15000009536743
 23
6.65000009536743
 33
7.20079708099365
 0
3DFACE
 8
STL2DXF
 10
2.15000009536743
 20
6.65000009536743
 30
7.20079708099365
 11
1
 21
21.8999996185303
 31
7.20079708099365
 12
1.14999997615814
 22
6.65000009536743
 32
7.20079708099365
 13
1.14999997615814
 23
6.65000009536743
 33
7.20079708099365
 0
3DFACE
 8
STL2DXF
 10
1.14999997615814
 20
6.65000009536743
 30
7.20079708099365
 11
1
 21
21.8999996185303
 31
7.20079708099365
 12
1.14999997615814
 22
1.64999997615814
 32
7.20079708099365
 13
1.14999997615814
 23
1.64999997615814
 33
7.20079708099365
 0
3DFACE
 8
STL2DXF
 10
1.14999997615814
 20
1.64999997615814
 30
7.20079708099365
 11
1
 21
21.8999996185303
 31
7.20079708099365
 12
-9.59232693276135E-14
 22
1.64999997615814
 32
7.20079708099365
 13
-9.59232693276135E-14
 23
1.64999997615814
 33
7.20079708099365
 0
3DFACE
 8
STL2DXF
 10
-9.59232693276135E-14
 20
1.64999997615814
 30
7.20079708099365
 11
1
 21
21.8999996185303
 31
7.20079708099365
 12
-8.43769498715119E-14
 22
62.25
 32
7.20079708099365
 13
-8.43769498715119E-14
 23
62.25
 33
7.20079708099365
 0
3DFACE
 8
STL2DXF
 10
3.84999990463257
 20
7.25
 30
7.20079708099365
 11
1
 21
21.8999996185303
 31
6.20079708099365
 12
3.84999990463257
 22
21.8999996185303
 32
7.20079708099365
 13
3.84999990463257
 23
21.8999996185303
 33
7.20079708099365
 0
3DFACE
 8
STL2DXF
 10
1
 20
21.8999996185303
 30
6.20079708099365
 11
3.84999990463257
 21
7.25
 31
7.20079708099365
 12
1
 22
7.25
 32
6.20079708099365
 13
1
 23
7.25
 33
6.20079708099365
 0
3DFACE
 8
STL2DXF
 10
-8.26005930321116E-14
 20
62.25
 30
9.10079669952393
 11
3
 21
62.25
 31
7.20079708099365
 12
2
 22
62.25
 32
9.10079669952393
 13
2
 23
62.25
 33
9.10079669952393
 0
3DFACE
 8
STL2DXF
 10
3
 20
62.25
 30
7.20079708099365
 11
-8.26005930321116E-14
 21
62.25
 31
9.10079669952393
 12
-8.43769498715119E-14
 22
62.25
 32
7.20079708099365
 13
-8.43769498715119E-14
 23
62.25
 33
7.20079708099365
 0
3DFACE
 8
STL2DXF
 10
3
 20
62.25
 30
7.20079708099365
 11
-8.43769498715119E-14
 21
62.25
 31
7.20079708099365
 12
1
 22
62.25
 32
7.20079708099365
 13
1
 23
62.25
 33
7.20079708099365
 0
3DFACE
 8
STL2DXF
 10
3
 20
62.25
 30
7.20079708099365
 11
1
 21
62.25
 31
7.20079708099365
 12
3
 22
62.25
 32
4.20079708099365
 13
3
 23
62.25
 33
4.20079708099365
 0
3DFACE
 8
STL2DXF
 10
3
 20
62.25
 30
4.20079708099365
 11
1
 21
62.25
 31
7.20079708099365
 12
1
 22
62.25
 32
2.20079684257507
 13
1
 23
62.25
 33
2.20079684257507
 0
3DFACE
 8
STL2DXF
 10
31
 20
62.25
 30
-4.79920291900635
 11
1
 21
7.25
 31
-4.79920291900635
 12
31
 22
7.25
 32
-4.79920291900635
 13
31
 23
7.25
 33
-4.79920291900635
 0
3DFACE
 8
STL2DXF
 10
1
 20
7.25
 30
-4.79920291900635
 11
31
 21
62.25
 31
-4.79920291900635
 12
1
 22
62.25
 32
-4.79920291900635
 13
1
 23
62.25
 33
-4.79920291900635
 0
3DFACE
 8
STL2DXF
 10
-1.03028696685215E-13
 20
6.25
 30
-6.29920291900635
 11
32
 21
63.25
 31
-6.29920291900635
 12
32
 22
6.25
 32
-6.29920291900635
 13
32
 23
6.25
 33
-6.29920291900635
 0
3DFACE
 8
STL2DXF
 10
32
 20
63.25
 30
-6.29920291900635
 11
-1.03028696685215E-13
 21
6.25
 31
-6.29920291900635
 12
-5.95079541199084E-14
 22
63.25
 32
-6.29920291900635
 13
-5.95079541199084E-14
 23
63.25
 33
-6.29920291900635
 0
3DFACE
 8
STL2DXF
 10
7.84999990463257
 20
6.25
 30
0.700796961784363
 11
7.84999990463257
 21
1.64999997615814
 31
7.20079708099365
 12
7.84999990463257
 22
1.64999997615814
 32
6.20079708099365
 13
7.84999990463257
 23
1.64999997615814
 33
6.20079708099365
 0
3DFACE
 8
STL2DXF
 10
7.84999990463257
 20
1.64999997615814
 30
7.20079708099365
 11
7.84999990463257
 21
6.25
 31
0.700796961784363
 12
7.84999990463257
 22
6.25
 32
7.20079708099365
 13
7.84999990463257
 23
6.25
 33
7.20079708099365
 0
3DFACE
 8
STL2DXF
 10
32
 20
36.75
 30
4.20079708099365
 11
31
 21
33.75
 31
7.20079708099365
 12
32
 22
33.75
 32
7.20079708099365
 13
32
 23
33.75
 33
7.20079708099365
 0
3DFACE
 8
STL2DXF
 10
31
 20
33.75
 30
7.20079708099365
 11
32
 21
36.75
 31
4.20079708099365
 12
31
 22
36.75
 32
4.20079708099365
 13
31
 23
36.75
 33
4.20079708099365
 0
3DFACE
 8
STL2DXF
 10
32
 20
62.25
 30
4.20079708099365
 11
31
 21
36.75
 31
4.20079708099365
 12
32
 22
36.75
 32
4.20079708099365
 13
32
 23
36.75
 33
4.20079708099365
 0
3DFACE
 8
STL2DXF
 10
31
 20
36.75
 30
4.20079708099365
 11
32
 21
62.25
 31
4.20079708099365
 12
31
 22
62.25
 32
4.20079708099365
 13
31
 23
62.25
 33
4.20079708099365
 0
3DFACE
 8
STL2DXF
 10
31
 20
33.75
 30
7.20079708099365
 11
32
 21
7.25
 31
7.20079708099365
 12
32
 22
33.75
 32
7.20079708099365
 13
32
 23
33.75
 33
7.20079708099365
 0
3DFACE
 8
STL2DXF
 10
32
 20
7.25
 30
7.20079708099365
 11
31
 21
33.75
 31
7.20079708099365
 12
31
 22
6.25
 32
7.20079708099365
 13
31
 23
6.25
 33
7.20079708099365
 0
3DFACE
 8
STL2DXF
 10
31
 20
6.25
 30
7.20079708099365
 11
31
 21
33.75
 31
7.20079708099365
 12
31
 22
8.25
 32
7.20079708099365
 13
31
 23
8.25
 33
7.20079708099365
 0
3DFACE
 8
STL2DXF
 10
31
 20
6.25
 30
7.20079708099365
 11
31
 21
8.25
 31
7.20079708099365
 12
30
 22
7.25
 32
7.20079708099365
 13
30
 23
7.25
 33
7.20079708099365
 0
3DFACE
 8
STL2DXF
 10
31
 20
6.25
 30
7.20079708099365
 11
30
 21
7.25
 31
7.20079708099365
 12
7.84999990463257
 22
6.25
 32
7.20079708099365
 13
7.84999990463257
 23
6.25
 33
7.20079708099365
 0
3DFACE
 8
STL2DXF
 10
7.84999990463257
 20
6.25
 30
7.20079708099365
 11
30
 21
7.25
 31
7.20079708099365
 12
3.84999990463257
 22
7.25
 32
7.20079708099365
 13
3.84999990463257
 23
7.25
 33
7.20079708099365
 0
3DFACE
 8
STL2DXF
 10
7.84999990463257
 20
6.25
 30
7.20079708099365
 11
3.84999990463257
 21
7.25
 31
7.20079708099365
 12
4.84999990463257
 22
6.65000009536743
 32
7.20079708099365
 13
4.84999990463257
 23
6.65000009536743
 33
7.20079708099365
 0
3DFACE
 8
STL2DXF
 10
7.84999990463257
 20
6.25
 30
7.20079708099365
 11
4.84999990463257
 21
6.65000009536743
 31
7.20079708099365
 12
4.84999990463257
 22
1.64999997615814
 32
7.20079708099365
 13
4.84999990463257
 23
1.64999997615814
 33
7.20079708099365
 0
3DFACE
 8
STL2DXF
 10
4.84999990463257
 20
6.65000009536743
 30
7.20079708099365
 11
3.84999990463257
 21
7.25
 31
7.20079708099365
 12
3.84999990463257
 22
6.65000009536743
 32
7.20079708099365
 13
3.84999990463257
 23
6.65000009536743
 33
7.20079708099365
 0
3DFACE
 8
STL2DXF
 10
4.84999990463257
 20
1.64999997615814
 30
7.20079708099365
 11
7.84999990463257
 21
1.64999997615814
 31
7.20079708099365
 12
7.84999990463257
 22
6.25
 32
7.20079708099365
 13
7.84999990463257
 23
6.25
 33
7.20079708099365
 0
3DFACE
 8
STL2DXF
 10
2
 20
63.25
 30
9.10079669952393
 11
-8.17124146124115E-14
 21
63.25
 31
1.20079696178436
 12
-8.26005930321116E-14
 22
63.25
 32
9.10079669952393
 13
-8.26005930321116E-14
 23
63.25
 33
9.10079669952393
 0
3DFACE
 8
STL2DXF
 10
-8.17124146124115E-14
 20
63.25
 30
1.20079696178436
 11
2
 21
63.25
 31
9.10079669952393
 12
3
 22
63.25
 32
7.20079708099365
 13
3
 23
63.25
 33
7.20079708099365
 0
3DFACE
 8
STL2DXF
 10
-8.17124146124115E-14
 20
63.25
 30
1.20079696178436
 11
3
 21
63.25
 31
7.20079708099365
 12
3
 22
63.25
 32
4.20079708099365
 13
3
 23
63.25
 33
4.20079708099365
 0
3DFACE
 8
STL2DXF
 10
8.80000019073486
 20
63.25
 30
6.20079708099365
 11
17
 21
62.25
 31
6.20079708099365
 12
17
 22
63.25
 32
6.20079708099365
 13
17
 23
63.25
 33
6.20079708099365
 0
3DFACE
 8
STL2DXF
 10
17
 20
62.25
 30
6.20079708099365
 11
8.80000019073486
 21
63.25
 31
6.20079708099365
 12
8.80000019073486
 22
62.25
 32
6.20079708099365
 13
8.80000019073486
 23
62.25
 33
6.20079708099365
 0
3DFACE
 8
STL2DXF
 10
8.80000019073486
 20
63.25
 30
6.20079708099365
 11
7.80000019073486
 21
62.25
 31
7.20079708099365
 12
8.80000019073486
 22
62.25
 32
6.20079708099365
 13
8.80000019073486
 23
62.25
 33
6.20079708099365
 0
3DFACE
 8
STL2DXF
 10
7.80000019073486
 20
62.25
 30
7.20079708099365
 11
8.80000019073486
 21
63.25
 31
6.20079708099365
 12
7.80000019073486
 22
63.25
 32
7.20079708099365
 13
7.80000019073486
 23
63.25
 33
7.20079708099365
 0
3DFACE
 8
STL2DXF
 10
17
 20
63.25
 30
6.20079708099365
 11
18
 21
62.25
 31
7.20079708099365
 12
18
 22
63.25
 32
7.20079708099365
 13
18
 23
63.25
 33
7.20079708099365
 0
3DFACE
 8
STL2DXF
 10
18
 20
62.25
 30
7.20079708099365
 11
17
 21
63.25
 31
6.20079708099365
 12
17
 22
62.25
 32
6.20079708099365
 13
17
 23
62.25
 33
6.20079708099365
 0
3DFACE
 8
STL2DXF
 10
18
 20
63.25
 30
7.20079708099365
 11
32
 21
62.25
 31
7.20079708099365
 12
32
 22
63.25
 32
7.20079708099365
 13
32
 23
63.25
 33
7.20079708099365
 0
3DFACE
 8
STL2DXF
 10
32
 20
62.25
 30
7.20079708099365
 11
18
 21
63.25
 31
7.20079708099365
 12
18
 22
62.25
 32
7.20079708099365
 13
18
 23
62.25
 33
7.20079708099365
 0
3DFACE
 8
STL2DXF
 10
3.5
 20
63.25
 30
7.20079708099365
 11
7.80000019073486
 21
62.25
 31
7.20079708099365
 12
7.80000019073486
 22
63.25
 32
7.20079708099365
 13
7.80000019073486
 23
63.25
 33
7.20079708099365
 0
3DFACE
 8
STL2DXF
 10
7.80000019073486
 20
62.25
 30
7.20079708099365
 11
3.5
 21
63.25
 31
7.20079708099365
 12
3.5
 22
62.25
 32
7.20079708099365
 13
3.5
 23
62.25
 33
7.20079708099365
 0
3DFACE
 8
STL2DXF
 10
-8.26005930321116E-14
 20
63.25
 30
9.10079669952393
 11
2
 21
62.25
 31
9.10079669952393
 12
2
 22
63.25
 32
9.10079669952393
 13
2
 23
63.25
 33
9.10079669952393
 0
3DFACE
 8
STL2DXF
 10
2
 20
62.25
 30
9.10079669952393
 11
-8.26005930321116E-14
 21
63.25
 31
9.10079669952393
 12
-8.26005930321116E-14
 22
62.25
 32
9.10079669952393
 13
-8.26005930321116E-14
 23
62.25
 33
9.10079669952393
 0
3DFACE
 8
STL2DXF
 10
3
 20
63.25
 30
4.20079708099365
 11
3
 21
62.25
 31
7.20079708099365
 12
3
 22
62.25
 32
4.20079708099365
 13
3
 23
62.25
 33
4.20079708099365
 0
3DFACE
 8
STL2DXF
 10
3
 20
62.25
 30
7.20079708099365
 11
3
 21
63.25
 31
4.20079708099365
 12
3
 22
63.25
 32
7.20079708099365
 13
3
 23
63.25
 33
7.20079708099365
 0
3DFACE
 8
STL2DXF
 10
3.5
 20
63.25
 30
7.20079708099365
 11
3.5
 21
62.25
 31
4.20079708099365
 12
3.5
 22
62.25
 32
7.20079708099365
 13
3.5
 23
62.25
 33
7.20079708099365
 0
3DFACE
 8
STL2DXF
 10
3.5
 20
62.25
 30
4.20079708099365
 11
3.5
 21
63.25
 31
7.20079708099365
 12
3.5
 22
63.25
 32
4.20079708099365
 13
3.5
 23
63.25
 33
4.20079708099365
 0
3DFACE
 8
STL2DXF
 10
32
 20
63.25
 30
-6.29920291900635
 11
18
 21
63.25
 31
7.20079708099365
 12
32
 22
63.25
 32
7.20079708099365
 13
32
 23
63.25
 33
7.20079708099365
 0
3DFACE
 8
STL2DXF
 10
18
 20
63.25
 30
7.20079708099365
 11
32
 21
63.25
 31
-6.29920291900635
 12
17
 22
63.25
 32
6.20079708099365
 13
17
 23
63.25
 33
6.20079708099365
 0
3DFACE
 8
STL2DXF
 10
17
 20
63.25
 30
6.20079708099365
 11
32
 21
63.25
 31
-6.29920291900635
 12
8.80000019073486
 22
63.25
 32
6.20079708099365
 13
8.80000019073486
 23
63.25
 33
6.20079708099365
 0
3DFACE
 8
STL2DXF
 10
8.80000019073486
 20
63.25
 30
6.20079708099365
 11
32
 21
63.25
 31
-6.29920291900635
 12
3.5
 22
63.25
 32
4.20079708099365
 13
3.5
 23
63.25
 33
4.20079708099365
 0
3DFACE
 8
STL2DXF
 10
3.5
 20
63.25
 30
4.20079708099365
 11
32
 21
63.25
 31
-6.29920291900635
 12
-8.17124146124115E-14
 22
63.25
 32
0.700796961784363
 13
-8.17124146124115E-14
 23
63.25
 33
0.700796961784363
 0
3DFACE
 8
STL2DXF
 10
-8.17124146124115E-14
 20
63.25
 30
0.700796961784363
 11
32
 21
63.25
 31
-6.29920291900635
 12
-5.95079541199084E-14
 22
63.25
 32
-6.29920291900635
 13
-5.95079541199084E-14
 23
63.25
 33
-6.29920291900635
 0
3DFACE
 8
STL2DXF
 10
7.80000019073486
 20
63.25
 30
7.20079708099365
 11
3.5
 21
63.25
 31
4.20079708099365
 12
3.5
 22
63.25
 32
7.20079708099365
 13
3.5
 23
63.25
 33
7.20079708099365
 0
3DFACE
 8
STL2DXF
 10
3.5
 20
63.25
 30
4.20079708099365
 11
7.80000019073486
 21
63.25
 31
7.20079708099365
 12
8.80000019073486
 22
63.25
 32
6.20079708099365
 13
8.80000019073486
 23
63.25
 33
6.20079708099365
 0
3DFACE
 8
STL2DXF
 10
1
 20
62.25
 30
2.20079684257507
 11
3
 21
63.25
 31
4.20079708099365
 12
3
 22
62.25
 32
4.20079708099365
 13
3
 23
62.25
 33
4.20079708099365
 0
3DFACE
 8
STL2DXF
 10
3
 20
63.25
 30
4.20079708099365
 11
1
 21
62.25
 31
2.20079684257507
 12
-8.17124146124115E-14
 22
63.25
 32
1.20079696178436
 13
-8.17124146124115E-14
 23
63.25
 33
1.20079696178436
 0
3DFACE
 8
STL2DXF
 10
3.5
 20
63.25
 30
4.20079708099365
 11
1
 21
62.25
 31
1.70079696178436
 12
3.5
 22
62.25
 32
4.20079708099365
 13
3.5
 23
62.25
 33
4.20079708099365
 0
3DFACE
 8
STL2DXF
 10
1
 20
62.25
 30
1.70079696178436
 11
3.5
 21
63.25
 31
4.20079708099365
 12
-8.17124146124115E-14
 22
63.25
 32
0.700796961784363
 13
-8.17124146124115E-14
 23
63.25
 33
0.700796961784363
 0
3DFACE
 8
STL2DXF
 10
3.5
 20
62.25
 30
7.20079708099365
 11
8.80000019073486
 21
62.25
 31
6.20079708099365
 12
7.80000019073486
 22
62.25
 32
7.20079708099365
 13
7.80000019073486
 23
62.25
 33
7.20079708099365
 0
3DFACE
 8
STL2DXF
 10
8.80000019073486
 20
62.25
 30
6.20079708099365
 11
3.5
 21
62.25
 31
7.20079708099365
 12
3.5
 22
62.25
 32
4.20079708099365
 13
3.5
 23
62.25
 33
4.20079708099365
 0
3DFACE
 8
STL2DXF
 10
8.80000019073486
 20
62.25
 30
6.20079708099365
 11
3.5
 21
62.25
 31
4.20079708099365
 12
17
 22
62.25
 32
6.20079708099365
 13
17
 23
62.25
 33
6.20079708099365
 0
3DFACE
 8
STL2DXF
 10
1
 20
62.25
 30
1.70079696178436
 11
31
 21
62.25
 31
4.20079708099365
 12
3.5
 22
62.25
 32
4.20079708099365
 13
3.5
 23
62.25
 33
4.20079708099365
 0
3DFACE
 8
STL2DXF
 10
31
 20
62.25
 30
4.20079708099365
 11
1
 21
62.25
 31
1.70079696178436
 12
31
 22
62.25
 32
-4.79920291900635
 13
31
 23
62.25
 33
-4.79920291900635
 0
3DFACE
 8
STL2DXF
 10
31
 20
62.25
 30
-4.79920291900635
 11
1
 21
62.25
 31
1.70079696178436
 12
1
 22
62.25
 32
-4.79920291900635
 13
1
 23
62.25
 33
-4.79920291900635
 0
3DFACE
 8
STL2DXF
 10
17
 20
62.25
 30
6.20079708099365
 11
32
 21
62.25
 31
7.20079708099365
 12
18
 22
62.25
 32
7.20079708099365
 13
18
 23
62.25
 33
7.20079708099365
 0
3DFACE
 8
STL2DXF
 10
32
 20
62.25
 30
7.20079708099365
 11
17
 21
62.25
 31
6.20079708099365
 12
32
 22
62.25
 32
4.20079708099365
 13
32
 23
62.25
 33
4.20079708099365
 0
3DFACE
 8
STL2DXF
 10
32
 20
62.25
 30
4.20079708099365
 11
17
 21
62.25
 31
6.20079708099365
 12
3.5
 22
62.25
 32
4.20079708099365
 13
3.5
 23
62.25
 33
4.20079708099365
 0
3DFACE
 8
STL2DXF
 10
32
 20
62.25
 30
4.20079708099365
 11
3.5
 21
62.25
 31
4.20079708099365
 12
31
 22
62.25
 32
4.20079708099365
 13
31
 23
62.25
 33
4.20079708099365
 0
3DFACE
 8
STL2DXF
 10
3
 20
63.25
 30
7.20079708099365
 11
2
 21
62.25
 31
9.10079669952393
 12
3
 22
62.25
 32
7.20079708099365
 13
3
 23
62.25
 33
7.20079708099365
 0
3DFACE
 8
STL2DXF
 10
2
 20
62.25
 30
9.10079669952393
 11
3
 21
63.25
 31
7.20079708099365
 12
2
 22
63.25
 32
9.10079669952393
 13
2
 23
63.25
 33
9.10079669952393
 0
3DFACE
 8
STL2DXF
 10
1
 20
62.25
 30
-4.79920291900635
 11
1
 21
7.25
 31
6.20079708099365
 12
1
 22
7.25
 32
-4.79920291900635
 13
1
 23
7.25
 33
-4.79920291900635
 0
3DFACE
 8
STL2DXF
 10
1
 20
7.25
 30
6.20079708099365
 11
1
 21
62.25
 31
-4.79920291900635
 12
1
 22
21.8999996185303
 32
6.20079708099365
 13
1
 23
21.8999996185303
 33
6.20079708099365
 0
3DFACE
 8
STL2DXF
 10
1
 20
21.8999996185303
 30
6.20079708099365
 11
1
 21
62.25
 31
-4.79920291900635
 12
1
 22
21.8999996185303
 32
7.20079708099365
 13
1
 23
21.8999996185303
 33
7.20079708099365
 0
3DFACE
 8
STL2DXF
 10
1
 20
21.8999996185303
 30
7.20079708099365
 11
1
 21
62.25
 31
-4.79920291900635
 12
1
 22
58.25
 32
-3.29920315742493
 13
1
 23
58.25
 33
-3.29920315742493
 0
3DFACE
 8
STL2DXF
 10
1
 20
21.8999996185303
 30
7.20079708099365
 11
1
 21
58.25
 31
-3.29920315742493
 12
1
 22
58.25
 32
-2.79920315742493
 13
1
 23
58.25
 33
-2.79920315742493
 0
3DFACE
 8
STL2DXF
 10
1
 20
58.25
 30
-3.29920315742493
 11
1
 21
62.25
 31
-4.79920291900635
 12
1
 22
62.25
 32
1.70079696178436
 13
1
 23
62.25
 33
1.70079696178436
 0
3DFACE
 8
STL2DXF
 10
1
 20
58.25
 30
-2.79920315742493
 11
1
 21
62.25
 31
7.20079708099365
 12
1
 22
21.8999996185303
 32
7.20079708099365
 13
1
 23
21.8999996185303
 33
7.20079708099365
 0
3DFACE
 8
STL2DXF
 10
1
 20
62.25
 30
7.20079708099365
 11
1
 21
58.25
 31
-2.79920315742493
 12
1
 22
62.25
 32
2.20079684257507
 13
1
 23
62.25
 33
2.20079684257507
 0
3DFACE
 8
STL2DXF
 10
-8.17124146124115E-14
 20
63.25
 30
0.700796961784363
 11
-7.01660951563099E-14
 21
58.25
 31
-4.29920291900635
 12
1
 22
62.25
 32
1.70079696178436
 13
1
 23
62.25
 33
1.70079696178436
 0
3DFACE
 8
STL2DXF
 10
-7.01660951563099E-14
 20
58.25
 30
-4.29920291900635
 11
1
 21
58.25
 31
-3.29920315742493
 12
1
 22
62.25
 32
1.70079696178436
 13
1
 23
62.25
 33
1.70079696178436
 0
3DFACE
 8
STL2DXF
 10
1
 20
58.25
 30
-3.29920315742493
 11
-7.01660951563099E-14
 21
58.25
 31
-3.79920315742493
 12
1
 22
58.25
 32
-2.79920315742493
 13
1
 23
58.25
 33
-2.79920315742493
 0
3DFACE
 8
STL2DXF
 10
-7.01660951563099E-14
 20
58.25
 30
-3.79920315742493
 11
1
 21
58.25
 31
-3.29920315742493
 12
-7.01660951563099E-14
 22
58.25
 32
-4.29920291900635
 13
-7.01660951563099E-14
 23
58.25
 33
-4.29920291900635
 0
3DFACE
 8
STL2DXF
 10
-7.01660951563099E-14
 20
58.25
 30
-3.79920315742493
 11
1
 21
62.25
 31
2.20079684257507
 12
1
 22
58.25
 32
-2.79920315742493
 13
1
 23
58.25
 33
-2.79920315742493
 0
3DFACE
 8
STL2DXF
 10
-8.17124146124115E-14
 20
63.25
 30
1.20079696178436
 11
1
 21
62.25
 31
2.20079684257507
 12
-7.01660951563099E-14
 22
58.25
 32
-3.79920315742493
 13
-7.01660951563099E-14
 23
58.25
 33
-3.79920315742493
 0
3DFACE
 8
STL2DXF
 10
-8.26005930321116E-14
 20
63.25
 30
9.10079669952393
 11
-8.43769498715119E-14
 21
62.25
 31
7.20079708099365
 12
-8.26005930321116E-14
 22
62.25
 32
9.10079669952393
 13
-8.26005930321116E-14
 23
62.25
 33
9.10079669952393
 0
3DFACE
 8
STL2DXF
 10
-8.43769498715119E-14
 20
62.25
 30
7.20079708099365
 11
-9.59232693276135E-14
 21
1.64999997615814
 31
6.20079708099365
 12
-9.59232693276135E-14
 22
1.64999997615814
 32
7.20079708099365
 13
-9.59232693276135E-14
 23
1.64999997615814
 33
7.20079708099365
 0
3DFACE
 8
STL2DXF
 10
-9.59232693276135E-14
 20
1.64999997615814
 30
6.20079708099365
 11
-8.43769498715119E-14
 21
62.25
 31
7.20079708099365
 12
-9.76996261670138E-14
 22
6.25
 32
0.700796961784363
 13
-9.76996261670138E-14
 23
6.25
 33
0.700796961784363
 0
3DFACE
 8
STL2DXF
 10
-9.76996261670138E-14
 20
6.25
 30
0.700796961784363
 11
-8.43769498715119E-14
 21
62.25
 31
7.20079708099365
 12
-7.01660951563099E-14
 22
58.25
 32
-3.79920315742493
 13
-7.01660951563099E-14
 23
58.25
 33
-3.79920315742493
 0
3DFACE
 8
STL2DXF
 10
-7.01660951563099E-14
 20
58.25
 30
-3.79920315742493
 11
-8.43769498715119E-14
 21
62.25
 31
7.20079708099365
 12
-8.17124146124115E-14
 22
63.25
 32
1.20079696178436
 13
-8.17124146124115E-14
 23
63.25
 33
1.20079696178436
 0
3DFACE
 8
STL2DXF
 10
-8.17124146124115E-14
 20
63.25
 30
1.20079696178436
 11
-8.43769498715119E-14
 21
62.25
 31
7.20079708099365
 12
-8.26005930321116E-14
 22
63.25
 32
9.10079669952393
 13
-8.26005930321116E-14
 23
63.25
 33
9.10079669952393
 0
3DFACE
 8
STL2DXF
 10
-9.76996261670138E-14
 20
6.25
 30
0.700796961784363
 11
-5.95079541199084E-14
 21
63.25
 31
-6.29920291900635
 12
-1.03028696685215E-13
 22
6.25
 32
-6.29920291900635
 13
-1.03028696685215E-13
 23
6.25
 33
-6.29920291900635
 0
3DFACE
 8
STL2DXF
 10
-5.95079541199084E-14
 20
63.25
 30
-6.29920291900635
 11
-9.76996261670138E-14
 21
6.25
 31
0.700796961784363
 12
-7.01660951563099E-14
 22
58.25
 32
-4.29920291900635
 13
-7.01660951563099E-14
 23
58.25
 33
-4.29920291900635
 0
3DFACE
 8
STL2DXF
 10
-7.01660951563099E-14
 20
58.25
 30
-4.29920291900635
 11
-9.76996261670138E-14
 21
6.25
 31
0.700796961784363
 12
-7.01660951563099E-14
 22
58.25
 32
-3.79920315742493
 13
-7.01660951563099E-14
 23
58.25
 33
-3.79920315742493
 0
3DFACE
 8
STL2DXF
 10
-5.95079541199084E-14
 20
63.25
 30
-6.29920291900635
 11
-7.01660951563099E-14
 21
58.25
 31
-4.29920291900635
 12
-8.17124146124115E-14
 22
63.25
 32
0.700796961784363
 13
-8.17124146124115E-14
 23
63.25
 33
0.700796961784363
 0
3DFACE
 8
STL2DXF
 10
31
 20
33.75
 30
7.20079708099365
 11
31
 21
8.25
 31
6.20079708099365
 12
31
 22
8.25
 32
7.20079708099365
 13
31
 23
8.25
 33
7.20079708099365
 0
3DFACE
 8
STL2DXF
 10
31
 20
8.25
 30
6.20079708099365
 11
31
 21
33.75
 31
7.20079708099365
 12
31
 22
11.25
 32
6.20079708099365
 13
31
 23
11.25
 33
6.20079708099365
 0
3DFACE
 8
STL2DXF
 10
31
 20
11.25
 30
6.20079708099365
 11
31
 21
33.75
 31
7.20079708099365
 12
31
 22
12.25
 32
5.20079708099365
 13
31
 23
12.25
 33
5.20079708099365
 0
3DFACE
 8
STL2DXF
 10
31
 20
7.25
 30
-2.79920315742493
 11
31
 21
62.25
 31
-4.79920291900635
 12
31
 22
7.25
 32
-4.79920291900635
 13
31
 23
7.25
 33
-4.79920291900635
 0
3DFACE
 8
STL2DXF
 10
31
 20
62.25
 30
-4.79920291900635
 11
31
 21
7.25
 31
-2.79920315742493
 12
31
 22
11.25
 32
-2.79920315742493
 13
31
 23
11.25
 33
-2.79920315742493
 0
3DFACE
 8
STL2DXF
 10
31
 20
62.25
 30
-4.79920291900635
 11
31
 21
11.25
 31
-2.79920315742493
 12
31
 22
12.25
 32
-1.79920303821564
 13
31
 23
12.25
 33
-1.79920303821564
 0
3DFACE
 8
STL2DXF
 10
31
 20
62.25
 30
-4.79920291900635
 11
31
 21
12.25
 31
-1.79920303821564
 12
31
 22
12.25
 32
5.20079708099365
 13
31
 23
12.25
 33
5.20079708099365
 0
3DFACE
 8
STL2DXF
 10
31
 20
62.25
 30
-4.79920291900635
 11
31
 21
12.25
 31
5.20079708099365
 12
31
 22
36.75
 32
4.20079708099365
 13
31
 23
36.75
 33
4.20079708099365
 0
3DFACE
 8
STL2DXF
 10
31
 20
36.75
 30
4.20079708099365
 11
31
 21
12.25
 31
5.20079708099365
 12
31
 22
33.75
 32
7.20079708099365
 13
31
 23
33.75
 33
7.20079708099365
 0
3DFACE
 8
STL2DXF
 10
31
 20
62.25
 30
-4.79920291900635
 11
31
 21
36.75
 31
4.20079708099365
 12
31
 22
62.25
 32
4.20079708099365
 13
31
 23
62.25
 33
4.20079708099365
 0
3DFACE
 8
STL2DXF
 10
31
 20
7.25
 30
-4.79920291900635
 11
30
 21
7.25
 31
-2.79920315742493
 12
31
 22
7.25
 32
-2.79920315742493
 13
31
 23
7.25
 33
-2.79920315742493
 0
3DFACE
 8
STL2DXF
 10
30
 20
7.25
 30
7.20079708099365
 11
1
 21
7.25
 31
6.20079708099365
 12
3.84999990463257
 22
7.25
 32
7.20079708099365
 13
3.84999990463257
 23
7.25
 33
7.20079708099365
 0
3DFACE
 8
STL2DXF
 10
1
 20
7.25
 30
6.20079708099365
 11
30
 21
7.25
 31
7.20079708099365
 12
30
 22
7.25
 32
6.20079708099365
 13
30
 23
7.25
 33
6.20079708099365
 0
3DFACE
 8
STL2DXF
 10
1
 20
7.25
 30
6.20079708099365
 11
30
 21
7.25
 31
6.20079708099365
 12
29
 22
7.25
 32
5.20079708099365
 13
29
 23
7.25
 33
5.20079708099365
 0
3DFACE
 8
STL2DXF
 10
1
 20
7.25
 30
6.20079708099365
 11
29
 21
7.25
 31
5.20079708099365
 12
1
 22
7.25
 32
-4.79920291900635
 13
1
 23
7.25
 33
-4.79920291900635
 0
3DFACE
 8
STL2DXF
 10
1
 20
7.25
 30
-4.79920291900635
 11
29
 21
7.25
 31
5.20079708099365
 12
29
 22
7.25
 32
-1.79920303821564
 13
29
 23
7.25
 33
-1.79920303821564
 0
3DFACE
 8
STL2DXF
 10
1
 20
7.25
 30
-4.79920291900635
 11
29
 21
7.25
 31
-1.79920303821564
 12
30
 22
7.25
 32
-2.79920315742493
 13
30
 23
7.25
 33
-2.79920315742493
 0
3DFACE
 8
STL2DXF
 10
1
 20
7.25
 30
-4.79920291900635
 11
30
 21
7.25
 31
-2.79920315742493
 12
31
 22
7.25
 32
-4.79920291900635
 13
31
 23
7.25
 33
-4.79920291900635
 0
3DFACE
 8
STL2DXF
 10
-9.76996261670138E-14
 20
6.25
 30
0.700796961784363
 11
7.84999990463257
 21
1.64999997615814
 31
6.20079708099365
 12
-9.59232693276135E-14
 22
1.64999997615814
 32
6.20079708099365
 13
-9.59232693276135E-14
 23
1.64999997615814
 33
6.20079708099365
 0
3DFACE
 8
STL2DXF
 10
7.84999990463257
 20
1.64999997615814
 30
6.20079708099365
 11
-9.76996261670138E-14
 21
6.25
 31
0.700796961784363
 12
7.84999990463257
 22
6.25
 32
0.700796961784363
 13
7.84999990463257
 23
6.25
 33
0.700796961784363
 0
3DFACE
 8
STL2DXF
 10
-9.59232693276135E-14
 20
1.64999997615814
 30
6.20079708099365
 11
1.14999997615814
 21
1.64999997615814
 31
7.20079708099365
 12
-9.59232693276135E-14
 22
1.64999997615814
 32
7.20079708099365
 13
-9.59232693276135E-14
 23
1.64999997615814
 33
7.20079708099365
 0
3DFACE
 8
STL2DXF
 10
1.14999997615814
 20
1.64999997615814
 30
7.20079708099365
 11
-9.59232693276135E-14
 21
1.64999997615814
 31
6.20079708099365
 12
4.84999990463257
 22
1.64999997615814
 32
7.20079708099365
 13
4.84999990463257
 23
1.64999997615814
 33
7.20079708099365
 0
3DFACE
 8
STL2DXF
 10
4.84999990463257
 20
1.64999997615814
 30
7.20079708099365
 11
7.84999990463257
 21
1.64999997615814
 31
6.20079708099365
 12
7.84999990463257
 22
1.64999997615814
 32
7.20079708099365
 13
7.84999990463257
 23
1.64999997615814
 33
7.20079708099365
 0
3DFACE
 8
STL2DXF
 10
7.84999990463257
 20
1.64999997615814
 30
6.20079708099365
 11
4.84999990463257
 21
1.64999997615814
 31
7.20079708099365
 12
-9.59232693276135E-14
 22
1.64999997615814
 32
6.20079708099365
 13
-9.59232693276135E-14
 23
1.64999997615814
 33
6.20079708099365
 0
3DFACE
 8
STL2DXF
 10
1.14999997615814
 20
1.64999997615814
 30
7.20079708099365
 11
4.84999990463257
 21
1.64999997615814
 31
13.1507968902588
 12
1.14999997615814
 22
1.64999997615814
 32
13.1507968902588
 13
1.14999997615814
 23
1.64999997615814
 33
13.1507968902588
 0
3DFACE
 8
STL2DXF
 10
4.84999990463257
 20
1.64999997615814
 30
13.1507968902588
 11
1.14999997615814
 21
1.64999997615814
 31
7.20079708099365
 12
4.84999990463257
 22
1.64999997615814
 32
7.20079708099365
 13
4.84999990463257
 23
1.64999997615814
 33
7.20079708099365
 0
3DFACE
 8
STL2DXF
 10
31
 20
6.25
 30
7.20079708099365
 11
32
 21
7.25
 31
6.20079708099365
 12
32
 22
7.25
 32
7.20079708099365
 13
32
 23
7.25
 33
7.20079708099365
 0
3DFACE
 8
STL2DXF
 10
32
 20
7.25
 30
6.20079708099365
 11
31
 21
6.25
 31
7.20079708099365
 12
31
 22
6.25
 32
6.20079708099365
 13
31
 23
6.25
 33
6.20079708099365
 0
3DFACE
 8
STL2DXF
 10
31
 20
12.25
 30
5.20079708099365
 11
32
 21
11.25
 31
6.20079708099365
 12
31
 22
11.25
 32
6.20079708099365
 13
31
 23
11.25
 33
6.20079708099365
 0
3DFACE
 8
STL2DXF
 10
32
 20
11.25
 30
6.20079708099365
 11
31
 21
12.25
 31
5.20079708099365
 12
32
 22
12.25
 32
5.20079708099365
 13
32
 23
12.25
 33
5.20079708099365
 0
3DFACE
 8
STL2DXF
 10
31
 20
8.25
 30
6.20079708099365
 11
32
 21
11.25
 31
6.20079708099365
 12
32
 22
8.25
 32
6.20079708099365
 13
32
 23
8.25
 33
6.20079708099365
 0
3DFACE
 8
STL2DXF
 10
32
 20
11.25
 30
6.20079708099365
 11
31
 21
8.25
 31
6.20079708099365
 12
31
 22
11.25
 32
6.20079708099365
 13
31
 23
11.25
 33
6.20079708099365
 0
3DFACE
 8
STL2DXF
 10
31
 20
12.25
 30
-1.79920303821564
 11
32
 21
11.25
 31
-2.79920315742493
 12
32
 22
12.25
 32
-1.79920303821564
 13
32
 23
12.25
 33
-1.79920303821564
 0
3DFACE
 8
STL2DXF
 10
32
 20
11.25
 30
-2.79920315742493
 11
31
 21
12.25
 31
-1.79920303821564
 12
31
 22
11.25
 32
-2.79920315742493
 13
31
 23
11.25
 33
-2.79920315742493
 0
3DFACE
 8
STL2DXF
 10
31
 20
12.25
 30
-1.79920303821564
 11
32
 21
12.25
 31
5.20079708099365
 12
31
 22
12.25
 32
5.20079708099365
 13
31
 23
12.25
 33
5.20079708099365
 0
3DFACE
 8
STL2DXF
 10
32
 20
12.25
 30
5.20079708099365
 11
31
 21
12.25
 31
-1.79920303821564
 12
32
 22
12.25
 32
-1.79920303821564
 13
32
 23
12.25
 33
-1.79920303821564
 0
3DFACE
 8
STL2DXF
 10
32
 20
63.25
 30
-6.29920291900635
 11
32
 21
6.25
 31
-2.79920315742493
 12
32
 22
6.25
 32
-6.29920291900635
 13
32
 23
6.25
 33
-6.29920291900635
 0
3DFACE
 8
STL2DXF
 10
32
 20
6.25
 30
-2.79920315742493
 11
32
 21
63.25
 31
-6.29920291900635
 12
32
 22
11.25
 32
-2.79920315742493
 13
32
 23
11.25
 33
-2.79920315742493
 0
3DFACE
 8
STL2DXF
 10
32
 20
11.25
 30
-2.79920315742493
 11
32
 21
63.25
 31
-6.29920291900635
 12
32
 22
12.25
 32
-1.79920303821564
 13
32
 23
12.25
 33
-1.79920303821564
 0
3DFACE
 8
STL2DXF
 10
32
 20
12.25
 30
-1.79920303821564
 11
32
 21
63.25
 31
-6.29920291900635
 12
32
 22
12.25
 32
5.20079708099365
 13
32
 23
12.25
 33
5.20079708099365
 0
3DFACE
 8
STL2DXF
 10
32
 20
12.25
 30
5.20079708099365
 11
32
 21
63.25
 31
-6.29920291900635
 12
32
 22
36.75
 32
4.20079708099365
 13
32
 23
36.75
 33
4.20079708099365
 0
3DFACE
 8
STL2DXF
 10
32
 20
12.25
 30
5.20079708099365
 11
32
 21
36.75
 31
4.20079708099365
 12
32
 22
33.75
 32
7.20079708099365
 13
32
 23
33.75
 33
7.20079708099365
 0
3DFACE
 8
STL2DXF
 10
32
 20
36.75
 30
4.20079708099365
 11
32
 21
63.25
 31
-6.29920291900635
 12
32
 22
62.25
 32
4.20079708099365
 13
32
 23
62.25
 33
4.20079708099365
 0
3DFACE
 8
STL2DXF
 10
32
 20
62.25
 30
4.20079708099365
 11
32
 21
63.25
 31
-6.29920291900635
 12
32
 22
62.25
 32
7.20079708099365
 13
32
 23
62.25
 33
7.20079708099365
 0
3DFACE
 8
STL2DXF
 10
32
 20
62.25
 30
7.20079708099365
 11
32
 21
63.25
 31
-6.29920291900635
 12
32
 22
63.25
 32
7.20079708099365
 13
32
 23
63.25
 33
7.20079708099365
 0
3DFACE
 8
STL2DXF
 10
32
 20
7.25
 30
6.20079708099365
 11
32
 21
33.75
 31
7.20079708099365
 12
32
 22
7.25
 32
7.20079708099365
 13
32
 23
7.25
 33
7.20079708099365
 0
3DFACE
 8
STL2DXF
 10
32
 20
33.75
 30
7.20079708099365
 11
32
 21
7.25
 31
6.20079708099365
 12
32
 22
8.25
 32
6.20079708099365
 13
32
 23
8.25
 33
6.20079708099365
 0
3DFACE
 8
STL2DXF
 10
32
 20
33.75
 30
7.20079708099365
 11
32
 21
8.25
 31
6.20079708099365
 12
32
 22
11.25
 32
6.20079708099365
 13
32
 23
11.25
 33
6.20079708099365
 0
3DFACE
 8
STL2DXF
 10
32
 20
33.75
 30
7.20079708099365
 11
32
 21
11.25
 31
6.20079708099365
 12
32
 22
12.25
 32
5.20079708099365
 13
32
 23
12.25
 33
5.20079708099365
 0
3DFACE
 8
STL2DXF
 10
-1.03028696685215E-13
 20
6.25
 30
-6.29920291900635
 11
7.84999990463257
 21
6.25
 31
0.700796961784363
 12
-9.76996261670138E-14
 22
6.25
 32
0.700796961784363
 13
-9.76996261670138E-14
 23
6.25
 33
0.700796961784363
 0
3DFACE
 8
STL2DXF
 10
7.84999990463257
 20
6.25
 30
0.700796961784363
 11
-1.03028696685215E-13
 21
6.25
 31
-6.29920291900635
 12
30
 22
6.25
 32
-1.79920303821564
 13
30
 23
6.25
 33
-1.79920303821564
 0
3DFACE
 8
STL2DXF
 10
30
 20
6.25
 30
-1.79920303821564
 11
-1.03028696685215E-13
 21
6.25
 31
-6.29920291900635
 12
31
 22
6.25
 32
-2.79920315742493
 13
31
 23
6.25
 33
-2.79920315742493
 0
3DFACE
 8
STL2DXF
 10
31
 20
6.25
 30
-2.79920315742493
 11
-1.03028696685215E-13
 21
6.25
 31
-6.29920291900635
 12
32
 22
6.25
 32
-2.79920315742493
 13
32
 23
6.25
 33
-2.79920315742493
 0
3DFACE
 8
STL2DXF
 10
32
 20
6.25
 30
-2.79920315742493
 11
-1.03028696685215E-13
 21
6.25
 31
-6.29920291900635
 12
32
 22
6.25
 32
-6.29920291900635
 13
32
 23
6.25
 33
-6.29920291900635
 0
3DFACE
 8
STL2DXF
 10
7.84999990463257
 20
6.25
 30
0.700796961784363
 11
31
 21
6.25
 31
7.20079708099365
 12
7.84999990463257
 22
6.25
 32
7.20079708099365
 13
7.84999990463257
 23
6.25
 33
7.20079708099365
 0
3DFACE
 8
STL2DXF
 10
31
 20
6.25
 30
7.20079708099365
 11
7.84999990463257
 21
6.25
 31
0.700796961784363
 12
31
 22
6.25
 32
6.20079708099365
 13
31
 23
6.25
 33
6.20079708099365
 0
3DFACE
 8
STL2DXF
 10
31
 20
6.25
 30
6.20079708099365
 11
7.84999990463257
 21
6.25
 31
0.700796961784363
 12
30
 22
6.25
 32
5.20079708099365
 13
30
 23
6.25
 33
5.20079708099365
 0
3DFACE
 8
STL2DXF
 10
30
 20
6.25
 30
5.20079708099365
 11
7.84999990463257
 21
6.25
 31
0.700796961784363
 12
30
 22
6.25
 32
-1.79920303821564
 13
30
 23
6.25
 33
-1.79920303821564
 0
3DFACE
 8
STL2DXF
 10
31
 20
11.25
 30
-2.79920315742493
 11
32
 21
6.25
 31
-2.79920315742493
 12
32
 22
11.25
 32
-2.79920315742493
 13
32
 23
11.25
 33
-2.79920315742493
 0
3DFACE
 8
STL2DXF
 10
32
 20
6.25
 30
-2.79920315742493
 11
31
 21
11.25
 31
-2.79920315742493
 12
31
 22
6.25
 32
-2.79920315742493
 13
31
 23
6.25
 33
-2.79920315742493
 0
3DFACE
 8
STL2DXF
 10
31
 20
6.25
 30
-2.79920315742493
 11
31
 21
11.25
 31
-2.79920315742493
 12
31
 22
7.25
 32
-2.79920315742493
 13
31
 23
7.25
 33
-2.79920315742493
 0
3DFACE
 8
STL2DXF
 10
31
 20
6.25
 30
-2.79920315742493
 11
31
 21
7.25
 31
-2.79920315742493
 12
30
 22
7.25
 32
-2.79920315742493
 13
30
 23
7.25
 33
-2.79920315742493
 0
3DFACE
 8
STL2DXF
 10
30
 20
7.25
 30
-2.79920315742493
 11
30
 21
6.25
 31
-1.79920303821564
 12
31
 22
6.25
 32
-2.79920315742493
 13
31
 23
6.25
 33
-2.79920315742493
 0
3DFACE
 8
STL2DXF
 10
30
 20
6.25
 30
-1.79920303821564
 11
30
 21
7.25
 31
-2.79920315742493
 12
29
 22
7.25
 32
-1.79920303821564
 13
29
 23
7.25
 33
-1.79920303821564
 0
3DFACE
 8
STL2DXF
 10
29
 20
7.25
 30
-1.79920303821564
 11
30
 21
6.25
 31
5.20079708099365
 12
30
 22
6.25
 32
-1.79920303821564
 13
30
 23
6.25
 33
-1.79920303821564
 0
3DFACE
 8
STL2DXF
 10
30
 20
6.25
 30
5.20079708099365
 11
29
 21
7.25
 31
-1.79920303821564
 12
29
 22
7.25
 32
5.20079708099365
 13
29
 23
7.25
 33
5.20079708099365
 0
3DFACE
 8
STL2DXF
 10
30
 20
6.25
 30
5.20079708099365
 11
30
 21
7.25
 31
6.20079708099365
 12
31
 22
6.25
 32
6.20079708099365
 13
31
 23
6.25
 33
6.20079708099365
 0
3DFACE
 8
STL2DXF
 10
30
 20
7.25
 30
6.20079708099365
 11
30
 21
6.25
 31
5.20079708099365
 12
29
 22
7.25
 32
5.20079708099365
 13
29
 23
7.25
 33
5.20079708099365
 0
3DFACE
 8
STL2DXF
 10
31
 20
6.25
 30
6.20079708099365
 11
32
 21
8.25
 31
6.20079708099365
 12
32
 22
7.25
 32
6.20079708099365
 13
32
 23
7.25
 33
6.20079708099365
 0
3DFACE
 8
STL2DXF
 10
32
 20
8.25
 30
6.20079708099365
 11
31
 21
6.25
 31
6.20079708099365
 12
31
 22
8.25
 32
6.20079708099365
 13
31
 23
8.25
 33
6.20079708099365
 0
3DFACE
 8
STL2DXF
 10
31
 20
8.25
 30
6.20079708099365
 11
31
 21
6.25
 31
6.20079708099365
 12
30
 22
7.25
 32
6.20079708099365
 13
30
 23
7.25
 33
6.20079708099365
 0
3DFACE
 8
STL2DXF
 10
31
 20
8.25
 30
7.20079708099365
 11
30
 21
7.25
 31
6.20079708099365
 12
30
 22
7.25
 32
7.20079708099365
 13
30
 23
7.25
 33
7.20079708099365
 0
3DFACE
 8
STL2DXF
 10
30
 20
7.25
 30
6.20079708099365
 11
31
 21
8.25
 31
7.20079708099365
 12
31
 22
8.25
 32
6.20079708099365
 13
31
 23
8.25
 33
6.20079708099365
 0
3DFACE
 8
STL2DXF
 10
-3.77767546519588E-14
 20
63.125
 30
7
 11
-2.08659739470542E-14
 21
3.125
 31
2
 12
-2.1817300367038E-14
 22
63.125
 32
2
 13
-2.1817300367038E-14
 23
63.125
 33
2
 0
3DFACE
 8
STL2DXF
 10
-2.08659739470542E-14
 20
3.125
 30
2
 11
-3.77767546519588E-14
 21
63.125
 31
7
 12
-3.68254316201067E-14
 22
3.125
 32
7
 13
-3.68254316201067E-14
 23
3.125
 33
7
 0
3DFACE
 8
STL2DXF
 10
-5
 20
3.125
 30
7
 11
-5
 21
63.125
 31
2
 12
-5
 22
3.125
 32
2
 13
-5
 23
3.125
 33
2
 0
3DFACE
 8
STL2DXF
 10
-5
 20
63.125
 30
2
 11
-5
 21
3.125
 31
7
 12
-5
 22
63.125
 32
7
 13
-5
 23
63.125
 33
7
 0
3DFACE
 8
STL2DXF
 10
-3.77767546519588E-14
 20
63.125
 30
7
 11
-5
 21
3.125
 31
7
 12
-3.68254316201067E-14
 22
3.125
 32
7
 13
-3.68254316201067E-14
 23
3.125
 33
7
 0
3DFACE
 8
STL2DXF
 10
-5
 20
3.125
 30
7
 11
-3.77767546519588E-14
 21
63.125
 31
7
 12
-5
 22
63.125
 32
7
 13
-5
 23
63.125
 33
7
 0
3DFACE
 8
STL2DXF
 10
-5
 20
3.125
 30
7
 11
-2.08659739470542E-14
 21
3.125
 31
2
 12
-3.68254316201067E-14
 22
3.125
 32
7
 13
-3.68254316201067E-14
 23
3.125
 33
7
 0
3DFACE
 8
STL2DXF
 10
-2.08659739470542E-14
 20
3.125
 30
2
 11
-5
 21
3.125
 31
7
 12
-5
 22
3.125
 32
2
 13
-5
 23
3.125
 33
2
 0
3DFACE
 8
STL2DXF
 10
-5
 20
63.125
 30
2
 11
-2.08659739470542E-14
 21
3.125
 31
2
 12
-5
 22
3.125
 32
2
 13
-5
 23
3.125
 33
2
 0
3DFACE
 8
STL2DXF
 10
-2.08659739470542E-14
 20
3.125
 30
2
 11
-5
 21
63.125
 31
2
 12
-2.1817300367038E-14
 22
63.125
 32
2
 13
-2.1817300367038E-14
 23
63.125
 33
2
 0
3DFACE
 8
STL2DXF
 10
-2.1817300367038E-14
 20
63.125
 30
2
 11
-5
 21
63.125
 31
7
 12
-3.77767546519588E-14
 22
63.125
 32
7
 13
-3.77767546519588E-14
 23
63.125
 33
7
 0
3DFACE
 8
STL2DXF
 10
-5
 20
63.125
 30
7
 11
-2.1817300367038E-14
 21
63.125
 31
2
 12
-5
 22
63.125
 32
2
 13
-5
 23
63.125
 33
2
 0
3DFACE
 8
STL2DXF
 10
-1.56532461146643E-13
 20
63.125
 30
45.4500007629395
 11
-1.39621671971409E-13
 21
3.125
 31
40.4500007629395
 12
-1.40573005167656E-13
 22
63.125
 32
40.4500007629395
 13
-1.40573005167656E-13
 23
63.125
 33
40.4500007629395
 0
3DFACE
 8
STL2DXF
 10
-1.39621671971409E-13
 20
3.125
 30
40.4500007629395
 11
-1.56532461146643E-13
 21
63.125
 31
45.4500007629395
 12
-1.55581127950395E-13
 22
3.125
 32
45.4500007629395
 13
-1.55581127950395E-13
 23
3.125
 33
45.4500007629395
 0
3DFACE
 8
STL2DXF
 10
-5
 20
3.125
 30
45.4500007629395
 11
-5
 21
63.125
 31
40.4500007629395
 12
-5
 22
3.125
 32
40.4500007629395
 13
-5
 23
3.125
 33
40.4500007629395
 0
3DFACE
 8
STL2DXF
 10
-5
 20
63.125
 30
40.4500007629395
 11
-5
 21
3.125
 31
45.4500007629395
 12
-5
 22
63.125
 32
45.4500007629395
 13
-5
 23
63.125
 33
45.4500007629395
 0
3DFACE
 8
STL2DXF
 10
-5
 20
63.125
 30
40.4500007629395
 11
-1.39621671971409E-13
 21
3.125
 31
40.4500007629395
 12
-5
 22
3.125
 32
40.4500007629395
 13
-5
 23
3.125
 33
40.4500007629395
 0
3DFACE
 8
STL2DXF
 10
-1.39621671971409E-13
 20
3.125
 30
40.4500007629395
 11
-5
 21
63.125
 31
40.4500007629395
 12
-1.40573005167656E-13
 22
63.125
 32
40.4500007629395
 13
-1.40573005167656E-13
 23
63.125
 33
40.4500007629395
 0
3DFACE
 8
STL2DXF
 10
-5
 20
63.125
 30
40.4500007629395
 11
-1.56532461146643E-13
 21
63.125
 31
45.4500007629395
 12
-1.40573005167656E-13
 22
63.125
 32
40.4500007629395
 13
-1.40573005167656E-13
 23
63.125
 33
40.4500007629395
 0
3DFACE
 8
STL2DXF
 10
-1.56532461146643E-13
 20
63.125
 30
45.4500007629395
 11
-5
 21
63.125
 31
40.4500007629395
 12
-5
 22
63.125
 32
45.4500007629395
 13
-5
 23
63.125
 33
45.4500007629395
 0
3DFACE
 8
STL2DXF
 10
-1.56532461146643E-13
 20
63.125
 30
45.4500007629395
 11
-5
 21
3.125
 31
45.4500007629395
 12
-1.55581127950395E-13
 22
3.125
 32
45.4500007629395
 13
-1.55581127950395E-13
 23
3.125
 33
45.4500007629395
 0
3DFACE
 8
STL2DXF
 10
-5
 20
3.125
 30
45.4500007629395
 11
-1.56532461146643E-13
 21
63.125
 31
45.4500007629395
 12
-5
 22
63.125
 32
45.4500007629395
 13
-5
 23
63.125
 33
45.4500007629395
 0
3DFACE
 8
STL2DXF
 10
-1.55581127950395E-13
 20
3.125
 30
45.4500007629395
 11
-5
 21
3.125
 31
40.4500007629395
 12
-1.39621671971409E-13
 22
3.125
 32
40.4500007629395
 13
-1.39621671971409E-13
 23
3.125
 33
40.4500007629395
 0
3DFACE
 8
STL2DXF
 10
-5
 20
3.125
 30
40.4500007629395
 11
-1.55581127950395E-13
 21
3.125
 31
45.4500007629395
 12
-5
 22
3.125
 32
45.4500007629395
 13
-5
 23
3.125
 33
45.4500007629395
 0
ENDSEC
 0
EOF
