 999
Conversion of STL file (binary) from www.cadforum.cz; drag the file into AutoCAD or load it with _DXFIN
 0
SECTION
 2
ENTITIES
 0
3DFACE
 8
STL2DXF
 10
28.3250007629395
 20
58.125
 30
5
 11
28.273889541626
 21
57.7367706298828
 31
1
 12
28.273889541626
 22
57.7367706298828
 32
5
 13
28.273889541626
 23
57.7367706298828
 33
5
 0
3DFACE
 8
STL2DXF
 10
28.273889541626
 20
57.7367706298828
 30
1
 11
28.3250007629395
 21
58.125
 31
5
 12
28.3250007629395
 22
58.125
 32
1
 13
28.3250007629395
 23
58.125
 33
1
 0
3DFACE
 8
STL2DXF
 10
28.273889541626
 20
58.5132293701172
 30
5
 11
28.3250007629395
 21
58.125
 31
1
 12
28.3250007629395
 22
58.125
 32
5
 13
28.3250007629395
 23
58.125
 33
5
 0
3DFACE
 8
STL2DXF
 10
28.3250007629395
 20
58.125
 30
1
 11
28.273889541626
 21
58.5132293701172
 31
5
 12
28.273889541626
 22
58.5132293701172
 32
1
 13
28.273889541626
 23
58.5132293701172
 33
1
 0
3DFACE
 8
STL2DXF
 10
28.1240386962891
 20
58.875
 30
5
 11
28.273889541626
 21
58.5132293701172
 31
1
 12
28.273889541626
 22
58.5132293701172
 32
5
 13
28.273889541626
 23
58.5132293701172
 33
5
 0
3DFACE
 8
STL2DXF
 10
28.273889541626
 20
58.5132293701172
 30
1
 11
28.1240386962891
 21
58.875
 31
5
 12
28.1240386962891
 22
58.875
 32
1
 13
28.1240386962891
 23
58.875
 33
1
 0
3DFACE
 8
STL2DXF
 10
27.8856601715088
 20
59.185661315918
 30
5
 11
28.1240386962891
 21
58.875
 31
1
 12
28.1240386962891
 22
58.875
 32
5
 13
28.1240386962891
 23
58.875
 33
5
 0
3DFACE
 8
STL2DXF
 10
28.1240386962891
 20
58.875
 30
1
 11
27.8856601715088
 21
59.185661315918
 31
5
 12
27.8856601715088
 22
59.185661315918
 32
1
 13
27.8856601715088
 23
59.185661315918
 33
1
 0
3DFACE
 8
STL2DXF
 10
27.5750007629395
 20
59.4240379333496
 30
1
 11
27.8856601715088
 21
59.185661315918
 31
5
 12
27.5750007629395
 22
59.4240379333496
 32
5
 13
27.5750007629395
 23
59.4240379333496
 33
5
 0
3DFACE
 8
STL2DXF
 10
27.8856601715088
 20
59.185661315918
 30
5
 11
27.5750007629395
 21
59.4240379333496
 31
1
 12
27.8856601715088
 22
59.185661315918
 32
1
 13
27.8856601715088
 23
59.185661315918
 33
1
 0
3DFACE
 8
STL2DXF
 10
27.213228225708
 20
59.5738868713379
 30
1
 11
27.5750007629395
 21
59.4240379333496
 31
5
 12
27.213228225708
 22
59.5738868713379
 32
5
 13
27.213228225708
 23
59.5738868713379
 33
5
 0
3DFACE
 8
STL2DXF
 10
27.5750007629395
 20
59.4240379333496
 30
5
 11
27.213228225708
 21
59.5738868713379
 31
1
 12
27.5750007629395
 22
59.4240379333496
 32
1
 13
27.5750007629395
 23
59.4240379333496
 33
1
 0
3DFACE
 8
STL2DXF
 10
26.8250007629395
 20
59.625
 30
4
 11
27.213228225708
 21
59.5738868713379
 31
5
 12
26.8250007629395
 22
59.625
 32
5
 13
26.8250007629395
 23
59.625
 33
5
 0
3DFACE
 8
STL2DXF
 10
27.213228225708
 20
59.5738868713379
 30
5
 11
26.8250007629395
 21
59.625
 31
4
 12
27.213228225708
 22
59.5738868713379
 32
1
 13
27.213228225708
 23
59.5738868713379
 33
1
 0
3DFACE
 8
STL2DXF
 10
27.213228225708
 20
59.5738868713379
 30
1
 11
26.8250007629395
 21
59.625
 31
4
 12
26.8250007629395
 22
59.625
 32
1
 13
26.8250007629395
 23
59.625
 33
1
 0
3DFACE
 8
STL2DXF
 10
26.4367713928223
 20
59.5738868713379
 30
4
 11
26.8250007629395
 21
59.625
 31
5
 12
26.4367713928223
 22
59.5738868713379
 32
5
 13
26.4367713928223
 23
59.5738868713379
 33
5
 0
3DFACE
 8
STL2DXF
 10
26.8250007629395
 20
59.625
 30
5
 11
26.4367713928223
 21
59.5738868713379
 31
4
 12
26.8250007629395
 22
59.625
 32
4
 13
26.8250007629395
 23
59.625
 33
4
 0
3DFACE
 8
STL2DXF
 10
26.0750007629395
 20
59.4240379333496
 30
4
 11
26.4367713928223
 21
59.5738868713379
 31
5
 12
26.0750007629395
 22
59.4240379333496
 32
5
 13
26.0750007629395
 23
59.4240379333496
 33
5
 0
3DFACE
 8
STL2DXF
 10
26.4367713928223
 20
59.5738868713379
 30
5
 11
26.0750007629395
 21
59.4240379333496
 31
4
 12
26.4367713928223
 22
59.5738868713379
 32
4
 13
26.4367713928223
 23
59.5738868713379
 33
4
 0
3DFACE
 8
STL2DXF
 10
25.7643394470215
 20
59.185661315918
 30
4
 11
26.0750007629395
 21
59.4240379333496
 31
5
 12
25.7643394470215
 22
59.185661315918
 32
5
 13
25.7643394470215
 23
59.185661315918
 33
5
 0
3DFACE
 8
STL2DXF
 10
26.0750007629395
 20
59.4240379333496
 30
5
 11
25.7643394470215
 21
59.185661315918
 31
4
 12
26.0750007629395
 22
59.4240379333496
 32
4
 13
26.0750007629395
 23
59.4240379333496
 33
4
 0
3DFACE
 8
STL2DXF
 10
25.7643394470215
 20
59.185661315918
 30
4
 11
25.5259628295898
 21
58.875
 31
5
 12
25.5259628295898
 22
58.875
 32
4
 13
25.5259628295898
 23
58.875
 33
4
 0
3DFACE
 8
STL2DXF
 10
25.5259628295898
 20
58.875
 30
5
 11
25.7643394470215
 21
59.185661315918
 31
4
 12
25.7643394470215
 22
59.185661315918
 32
5
 13
25.7643394470215
 23
59.185661315918
 33
5
 0
3DFACE
 8
STL2DXF
 10
25.5259628295898
 20
58.875
 30
4
 11
25.3761119842529
 21
58.5132293701172
 31
5
 12
25.3761119842529
 22
58.5132293701172
 32
4
 13
25.3761119842529
 23
58.5132293701172
 33
4
 0
3DFACE
 8
STL2DXF
 10
25.3761119842529
 20
58.5132293701172
 30
5
 11
25.5259628295898
 21
58.875
 31
4
 12
25.5259628295898
 22
58.875
 32
5
 13
25.5259628295898
 23
58.875
 33
5
 0
3DFACE
 8
STL2DXF
 10
25.3761119842529
 20
58.5132293701172
 30
4
 11
25.3250007629395
 21
58.125
 31
5
 12
25.3250007629395
 22
58.125
 32
4
 13
25.3250007629395
 23
58.125
 33
4
 0
3DFACE
 8
STL2DXF
 10
25.3250007629395
 20
58.125
 30
5
 11
25.3761119842529
 21
58.5132293701172
 31
4
 12
25.3761119842529
 22
58.5132293701172
 32
5
 13
25.3761119842529
 23
58.5132293701172
 33
5
 0
3DFACE
 8
STL2DXF
 10
25.3250007629395
 20
58.125
 30
4
 11
25.3761119842529
 21
57.7367706298828
 31
5
 12
25.3761119842529
 22
57.7367706298828
 32
4
 13
25.3761119842529
 23
57.7367706298828
 33
4
 0
3DFACE
 8
STL2DXF
 10
25.3761119842529
 20
57.7367706298828
 30
5
 11
25.3250007629395
 21
58.125
 31
4
 12
25.3250007629395
 22
58.125
 32
5
 13
25.3250007629395
 23
58.125
 33
5
 0
3DFACE
 8
STL2DXF
 10
25.3761119842529
 20
57.7367706298828
 30
4
 11
25.5259628295898
 21
57.375
 31
5
 12
25.5259628295898
 22
57.375
 32
4
 13
25.5259628295898
 23
57.375
 33
4
 0
3DFACE
 8
STL2DXF
 10
25.5259628295898
 20
57.375
 30
5
 11
25.3761119842529
 21
57.7367706298828
 31
4
 12
25.3761119842529
 22
57.7367706298828
 32
5
 13
25.3761119842529
 23
57.7367706298828
 33
5
 0
3DFACE
 8
STL2DXF
 10
25.5259628295898
 20
57.375
 30
4
 11
25.7643394470215
 21
57.064338684082
 31
5
 12
25.7643394470215
 22
57.064338684082
 32
4
 13
25.7643394470215
 23
57.064338684082
 33
4
 0
3DFACE
 8
STL2DXF
 10
25.7643394470215
 20
57.064338684082
 30
5
 11
25.5259628295898
 21
57.375
 31
4
 12
25.5259628295898
 22
57.375
 32
5
 13
25.5259628295898
 23
57.375
 33
5
 0
3DFACE
 8
STL2DXF
 10
26.0750007629395
 20
56.8259620666504
 30
4
 11
25.7643394470215
 21
57.064338684082
 31
5
 12
26.0750007629395
 22
56.8259620666504
 32
5
 13
26.0750007629395
 23
56.8259620666504
 33
5
 0
3DFACE
 8
STL2DXF
 10
25.7643394470215
 20
57.064338684082
 30
5
 11
26.0750007629395
 21
56.8259620666504
 31
4
 12
25.7643394470215
 22
57.064338684082
 32
4
 13
25.7643394470215
 23
57.064338684082
 33
4
 0
3DFACE
 8
STL2DXF
 10
26.4367713928223
 20
56.6761131286621
 30
4
 11
26.0750007629395
 21
56.8259620666504
 31
5
 12
26.4367713928223
 22
56.6761131286621
 32
5
 13
26.4367713928223
 23
56.6761131286621
 33
5
 0
3DFACE
 8
STL2DXF
 10
26.0750007629395
 20
56.8259620666504
 30
5
 11
26.4367713928223
 21
56.6761131286621
 31
4
 12
26.0750007629395
 22
56.8259620666504
 32
4
 13
26.0750007629395
 23
56.8259620666504
 33
4
 0
3DFACE
 8
STL2DXF
 10
26.8250007629395
 20
56.625
 30
4
 11
26.4367713928223
 21
56.6761131286621
 31
5
 12
26.8250007629395
 22
56.625
 32
5
 13
26.8250007629395
 23
56.625
 33
5
 0
3DFACE
 8
STL2DXF
 10
26.4367713928223
 20
56.6761131286621
 30
5
 11
26.8250007629395
 21
56.625
 31
4
 12
26.4367713928223
 22
56.6761131286621
 32
4
 13
26.4367713928223
 23
56.6761131286621
 33
4
 0
3DFACE
 8
STL2DXF
 10
27.213228225708
 20
56.6761131286621
 30
1
 11
26.8250007629395
 21
56.625
 31
5
 12
27.213228225708
 22
56.6761131286621
 32
5
 13
27.213228225708
 23
56.6761131286621
 33
5
 0
3DFACE
 8
STL2DXF
 10
26.8250007629395
 20
56.625
 30
5
 11
27.213228225708
 21
56.6761131286621
 31
1
 12
26.8250007629395
 22
56.625
 32
4
 13
26.8250007629395
 23
56.625
 33
4
 0
3DFACE
 8
STL2DXF
 10
26.8250007629395
 20
56.625
 30
4
 11
27.213228225708
 21
56.6761131286621
 31
1
 12
26.8250007629395
 22
56.625
 32
1
 13
26.8250007629395
 23
56.625
 33
1
 0
3DFACE
 8
STL2DXF
 10
27.5750007629395
 20
56.8259620666504
 30
1
 11
27.213228225708
 21
56.6761131286621
 31
5
 12
27.5750007629395
 22
56.8259620666504
 32
5
 13
27.5750007629395
 23
56.8259620666504
 33
5
 0
3DFACE
 8
STL2DXF
 10
27.213228225708
 20
56.6761131286621
 30
5
 11
27.5750007629395
 21
56.8259620666504
 31
1
 12
27.213228225708
 22
56.6761131286621
 32
1
 13
27.213228225708
 23
56.6761131286621
 33
1
 0
3DFACE
 8
STL2DXF
 10
27.8856601715088
 20
57.064338684082
 30
1
 11
27.5750007629395
 21
56.8259620666504
 31
5
 12
27.8856601715088
 22
57.064338684082
 32
5
 13
27.8856601715088
 23
57.064338684082
 33
5
 0
3DFACE
 8
STL2DXF
 10
27.5750007629395
 20
56.8259620666504
 30
5
 11
27.8856601715088
 21
57.064338684082
 31
1
 12
27.5750007629395
 22
56.8259620666504
 32
1
 13
27.5750007629395
 23
56.8259620666504
 33
1
 0
3DFACE
 8
STL2DXF
 10
28.1240386962891
 20
57.375
 30
5
 11
27.8856601715088
 21
57.064338684082
 31
1
 12
27.8856601715088
 22
57.064338684082
 32
5
 13
27.8856601715088
 23
57.064338684082
 33
5
 0
3DFACE
 8
STL2DXF
 10
27.8856601715088
 20
57.064338684082
 30
1
 11
28.1240386962891
 21
57.375
 31
5
 12
28.1240386962891
 22
57.375
 32
1
 13
28.1240386962891
 23
57.375
 33
1
 0
3DFACE
 8
STL2DXF
 10
28.273889541626
 20
57.7367706298828
 30
5
 11
28.1240386962891
 21
57.375
 31
1
 12
28.1240386962891
 22
57.375
 32
5
 13
28.1240386962891
 23
57.375
 33
5
 0
3DFACE
 8
STL2DXF
 10
28.1240386962891
 20
57.375
 30
1
 11
28.273889541626
 21
57.7367706298828
 31
5
 12
28.273889541626
 22
57.7367706298828
 32
1
 13
28.273889541626
 23
57.7367706298828
 33
1
 0
3DFACE
 8
STL2DXF
 10
47.4500007629395
 20
65.25
 30
4.44089209850063E-14
 11
47.4500007629395
 21
-7.5786595830343E-15
 31
5
 12
47.4500007629395
 22
-7.65793678469961E-15
 32
4.52970994047064E-14
 13
47.4500007629395
 23
-7.65793678469961E-15
 33
4.52970994047064E-14
 0
3DFACE
 8
STL2DXF
 10
47.4500007629395
 20
-7.5786595830343E-15
 30
5
 11
47.4500007629395
 21
65.25
 31
4.44089209850063E-14
 12
47.4500007629395
 22
65.25
 32
5
 13
47.4500007629395
 23
65.25
 33
5
 0
3DFACE
 8
STL2DXF
 10
47.4500007629395
 20
65.25
 30
4.44089209850063E-14
 11
46.4500007629395
 21
66.25
 31
5
 12
47.4500007629395
 22
65.25
 32
5
 13
47.4500007629395
 23
65.25
 33
5
 0
3DFACE
 8
STL2DXF
 10
46.4500007629395
 20
66.25
 30
5
 11
47.4500007629395
 21
65.25
 31
4.44089209850063E-14
 12
46.4500007629395
 22
66.25
 32
4.35207425653061E-14
 13
46.4500007629395
 23
66.25
 33
4.35207425653061E-14
 0
3DFACE
 8
STL2DXF
 10
23.7250003814697
 20
-7.70651412422465E-15
 30
3.46389583683049E-14
 11
47.4500007629395
 21
-7.5786595830343E-15
 31
5
 12
23.7250003814697
 22
-7.70651412422465E-15
 32
5
 13
23.7250003814697
 23
-7.70651412422465E-15
 33
5
 0
3DFACE
 8
STL2DXF
 10
47.4500007629395
 20
-7.5786595830343E-15
 30
5
 11
23.7250003814697
 21
-7.70651412422465E-15
 31
3.46389583683049E-14
 12
47.4500007629395
 22
-7.65793678469961E-15
 32
4.52970994047064E-14
 13
47.4500007629395
 23
-7.65793678469961E-15
 33
4.52970994047064E-14
 0
3DFACE
 8
STL2DXF
 10
45.4500007629395
 20
63.125
 30
5
 11
45.4500007629395
 21
3.125
 31
4.17443857259059E-14
 12
45.4500007629395
 22
3.125
 32
5
 13
45.4500007629395
 23
3.125
 33
5
 0
3DFACE
 8
STL2DXF
 10
45.4500007629395
 20
3.125
 30
4.17443857259059E-14
 11
45.4500007629395
 21
63.125
 31
5
 12
45.4500007629395
 22
63.125
 32
4.08562073062058E-14
 13
45.4500007629395
 23
63.125
 33
4.08562073062058E-14
 0
3DFACE
 8
STL2DXF
 10
40.4500007629395
 20
3.125
 30
3.64153152077051E-14
 11
40.4500007629395
 21
63.125
 31
5
 12
40.4500007629395
 22
3.125
 32
5
 13
40.4500007629395
 23
3.125
 33
5
 0
3DFACE
 8
STL2DXF
 10
40.4500007629395
 20
63.125
 30
5
 11
40.4500007629395
 21
3.125
 31
3.64153152077051E-14
 12
40.4500007629395
 22
63.125
 32
3.5527136788005E-14
 13
40.4500007629395
 23
63.125
 33
3.5527136788005E-14
 0
3DFACE
 8
STL2DXF
 10
45.4500007629395
 20
3.125
 30
4.17443857259059E-14
 11
40.4500007629395
 21
3.125
 31
5
 12
45.4500007629395
 22
3.125
 32
5
 13
45.4500007629395
 23
3.125
 33
5
 0
3DFACE
 8
STL2DXF
 10
40.4500007629395
 20
3.125
 30
5
 11
45.4500007629395
 21
3.125
 31
4.17443857259059E-14
 12
40.4500007629395
 22
3.125
 32
3.64153152077051E-14
 13
40.4500007629395
 23
3.125
 33
3.64153152077051E-14
 0
3DFACE
 8
STL2DXF
 10
7
 20
63.125
 30
5
 11
7
 21
3.125
 31
5.32907051820075E-15
 12
7
 22
3.125
 32
5
 13
7
 23
3.125
 33
5
 0
3DFACE
 8
STL2DXF
 10
7
 20
3.125
 30
5.32907051820075E-15
 11
7
 21
63.125
 31
5
 12
7
 22
63.125
 32
4.44089209850063E-15
 13
7
 23
63.125
 33
4.44089209850063E-15
 0
3DFACE
 8
STL2DXF
 10
2
 20
3.125
 30
5.87747175411144E-39
 11
2
 21
63.125
 31
5
 12
2
 22
3.125
 32
5
 13
2
 23
3.125
 33
5
 0
3DFACE
 8
STL2DXF
 10
2
 20
63.125
 30
5
 11
2
 21
3.125
 31
5.87747175411144E-39
 12
2
 22
63.125
 32
-8.88178419700125E-16
 13
2
 23
63.125
 33
-8.88178419700125E-16
 0
3DFACE
 8
STL2DXF
 10
7
 20
3.125
 30
5.32907051820075E-15
 11
2
 21
3.125
 31
5
 12
7
 22
3.125
 32
5
 13
7
 23
3.125
 33
5
 0
3DFACE
 8
STL2DXF
 10
2
 20
3.125
 30
5
 11
7
 21
3.125
 31
5.32907051820075E-15
 12
2
 22
3.125
 32
5.87747175411144E-39
 13
2
 23
3.125
 33
5.87747175411144E-39
 0
3DFACE
 8
STL2DXF
 10
36.8250007629395
 20
9.625
 30
1
 11
37.2132301330566
 21
9.57388877868652
 31
5
 12
36.8250007629395
 22
9.625
 32
5
 13
36.8250007629395
 23
9.625
 33
5
 0
3DFACE
 8
STL2DXF
 10
37.2132301330566
 20
9.57388877868652
 30
5
 11
36.8250007629395
 21
9.625
 31
1
 12
37.2132301330566
 22
9.57388877868652
 32
1
 13
37.2132301330566
 23
9.57388877868652
 33
1
 0
3DFACE
 8
STL2DXF
 10
36.4367713928223
 20
9.57388877868652
 30
1
 11
36.8250007629395
 21
9.625
 31
5
 12
36.4367713928223
 22
9.57388877868652
 32
5
 13
36.4367713928223
 23
9.57388877868652
 33
5
 0
3DFACE
 8
STL2DXF
 10
36.8250007629395
 20
9.625
 30
5
 11
36.4367713928223
 21
9.57388877868652
 31
1
 12
36.8250007629395
 22
9.625
 32
1
 13
36.8250007629395
 23
9.625
 33
1
 0
3DFACE
 8
STL2DXF
 10
36.0750007629395
 20
9.42403793334961
 30
1
 11
36.4367713928223
 21
9.57388877868652
 31
5
 12
36.0750007629395
 22
9.42403793334961
 32
5
 13
36.0750007629395
 23
9.42403793334961
 33
5
 0
3DFACE
 8
STL2DXF
 10
36.4367713928223
 20
9.57388877868652
 30
5
 11
36.0750007629395
 21
9.42403793334961
 31
1
 12
36.4367713928223
 22
9.57388877868652
 32
1
 13
36.4367713928223
 23
9.57388877868652
 33
1
 0
3DFACE
 8
STL2DXF
 10
35.7643394470215
 20
9.18566036224365
 30
4
 11
36.0750007629395
 21
9.42403793334961
 31
5
 12
35.7643394470215
 22
9.18566036224365
 32
5
 13
35.7643394470215
 23
9.18566036224365
 33
5
 0
3DFACE
 8
STL2DXF
 10
36.0750007629395
 20
9.42403793334961
 30
5
 11
35.7643394470215
 21
9.18566036224365
 31
4
 12
36.0750007629395
 22
9.42403793334961
 32
1
 13
36.0750007629395
 23
9.42403793334961
 33
1
 0
3DFACE
 8
STL2DXF
 10
36.0750007629395
 20
9.42403793334961
 30
1
 11
35.7643394470215
 21
9.18566036224365
 31
4
 12
35.7643394470215
 22
9.18566036224365
 32
1
 13
35.7643394470215
 23
9.18566036224365
 33
1
 0
3DFACE
 8
STL2DXF
 10
35.7643394470215
 20
9.18566036224365
 30
4
 11
35.5259628295898
 21
8.875
 31
5
 12
35.5259628295898
 22
8.875
 32
4
 13
35.5259628295898
 23
8.875
 33
4
 0
3DFACE
 8
STL2DXF
 10
35.5259628295898
 20
8.875
 30
5
 11
35.7643394470215
 21
9.18566036224365
 31
4
 12
35.7643394470215
 22
9.18566036224365
 32
5
 13
35.7643394470215
 23
9.18566036224365
 33
5
 0
3DFACE
 8
STL2DXF
 10
35.5259628295898
 20
8.875
 30
4
 11
35.3761100769043
 21
8.51322841644287
 31
5
 12
35.3761100769043
 22
8.51322841644287
 32
4
 13
35.3761100769043
 23
8.51322841644287
 33
4
 0
3DFACE
 8
STL2DXF
 10
35.3761100769043
 20
8.51322841644287
 30
5
 11
35.5259628295898
 21
8.875
 31
4
 12
35.5259628295898
 22
8.875
 32
5
 13
35.5259628295898
 23
8.875
 33
5
 0
3DFACE
 8
STL2DXF
 10
35.3761100769043
 20
8.51322841644287
 30
4
 11
35.3250007629395
 21
8.125
 31
5
 12
35.3250007629395
 22
8.125
 32
4
 13
35.3250007629395
 23
8.125
 33
4
 0
3DFACE
 8
STL2DXF
 10
35.3250007629395
 20
8.125
 30
5
 11
35.3761100769043
 21
8.51322841644287
 31
4
 12
35.3761100769043
 22
8.51322841644287
 32
5
 13
35.3761100769043
 23
8.51322841644287
 33
5
 0
3DFACE
 8
STL2DXF
 10
35.3250007629395
 20
8.125
 30
4
 11
35.3761100769043
 21
7.73677158355713
 31
5
 12
35.3761100769043
 22
7.73677158355713
 32
4
 13
35.3761100769043
 23
7.73677158355713
 33
4
 0
3DFACE
 8
STL2DXF
 10
35.3761100769043
 20
7.73677158355713
 30
5
 11
35.3250007629395
 21
8.125
 31
4
 12
35.3250007629395
 22
8.125
 32
5
 13
35.3250007629395
 23
8.125
 33
5
 0
3DFACE
 8
STL2DXF
 10
35.3761100769043
 20
7.73677158355713
 30
4
 11
35.5259628295898
 21
7.375
 31
5
 12
35.5259628295898
 22
7.375
 32
4
 13
35.5259628295898
 23
7.375
 33
4
 0
3DFACE
 8
STL2DXF
 10
35.5259628295898
 20
7.375
 30
5
 11
35.3761100769043
 21
7.73677158355713
 31
4
 12
35.3761100769043
 22
7.73677158355713
 32
5
 13
35.3761100769043
 23
7.73677158355713
 33
5
 0
3DFACE
 8
STL2DXF
 10
35.5259628295898
 20
7.375
 30
4
 11
35.7643394470215
 21
7.06433963775635
 31
5
 12
35.7643394470215
 22
7.06433963775635
 32
4
 13
35.7643394470215
 23
7.06433963775635
 33
4
 0
3DFACE
 8
STL2DXF
 10
35.7643394470215
 20
7.06433963775635
 30
5
 11
35.5259628295898
 21
7.375
 31
4
 12
35.5259628295898
 22
7.375
 32
5
 13
35.5259628295898
 23
7.375
 33
5
 0
3DFACE
 8
STL2DXF
 10
36.0750007629395
 20
6.82596206665039
 30
4
 11
35.7643394470215
 21
7.06433963775635
 31
5
 12
36.0750007629395
 22
6.82596206665039
 32
5
 13
36.0750007629395
 23
6.82596206665039
 33
5
 0
3DFACE
 8
STL2DXF
 10
35.7643394470215
 20
7.06433963775635
 30
5
 11
36.0750007629395
 21
6.82596206665039
 31
4
 12
35.7643394470215
 22
7.06433963775635
 32
4
 13
35.7643394470215
 23
7.06433963775635
 33
4
 0
3DFACE
 8
STL2DXF
 10
36.4367713928223
 20
6.67611122131348
 30
5
 11
36.0750007629395
 21
6.82596206665039
 31
4
 12
36.0750007629395
 22
6.82596206665039
 32
5
 13
36.0750007629395
 23
6.82596206665039
 33
5
 0
3DFACE
 8
STL2DXF
 10
36.0750007629395
 20
6.82596206665039
 30
4
 11
36.4367713928223
 21
6.67611122131348
 31
5
 12
36.4367713928223
 22
6.67611122131348
 32
4
 13
36.4367713928223
 23
6.67611122131348
 33
4
 0
3DFACE
 8
STL2DXF
 10
36.8250007629395
 20
6.625
 30
4
 11
36.4367713928223
 21
6.67611122131348
 31
5
 12
36.8250007629395
 22
6.625
 32
5
 13
36.8250007629395
 23
6.625
 33
5
 0
3DFACE
 8
STL2DXF
 10
36.4367713928223
 20
6.67611122131348
 30
5
 11
36.8250007629395
 21
6.625
 31
4
 12
36.4367713928223
 22
6.67611122131348
 32
4
 13
36.4367713928223
 23
6.67611122131348
 33
4
 0
3DFACE
 8
STL2DXF
 10
37.2132301330566
 20
6.67611122131348
 30
4
 11
36.8250007629395
 21
6.625
 31
5
 12
37.2132301330566
 22
6.67611122131348
 32
5
 13
37.2132301330566
 23
6.67611122131348
 33
5
 0
3DFACE
 8
STL2DXF
 10
36.8250007629395
 20
6.625
 30
5
 11
37.2132301330566
 21
6.67611122131348
 31
4
 12
36.8250007629395
 22
6.625
 32
4
 13
36.8250007629395
 23
6.625
 33
4
 0
3DFACE
 8
STL2DXF
 10
37.5750007629395
 20
6.82596206665039
 30
4
 11
37.2132301330566
 21
6.67611122131348
 31
5
 12
37.5750007629395
 22
6.82596206665039
 32
5
 13
37.5750007629395
 23
6.82596206665039
 33
5
 0
3DFACE
 8
STL2DXF
 10
37.2132301330566
 20
6.67611122131348
 30
5
 11
37.5750007629395
 21
6.82596206665039
 31
4
 12
37.2132301330566
 22
6.67611122131348
 32
4
 13
37.2132301330566
 23
6.67611122131348
 33
4
 0
3DFACE
 8
STL2DXF
 10
37.8856620788574
 20
7.06433963775635
 30
4
 11
37.5750007629395
 21
6.82596206665039
 31
5
 12
37.8856620788574
 22
7.06433963775635
 32
5
 13
37.8856620788574
 23
7.06433963775635
 33
5
 0
3DFACE
 8
STL2DXF
 10
37.5750007629395
 20
6.82596206665039
 30
5
 11
37.8856620788574
 21
7.06433963775635
 31
4
 12
37.5750007629395
 22
6.82596206665039
 32
4
 13
37.5750007629395
 23
6.82596206665039
 33
4
 0
3DFACE
 8
STL2DXF
 10
38.1240386962891
 20
7.375
 30
5
 11
37.8856620788574
 21
7.06433963775635
 31
4
 12
37.8856620788574
 22
7.06433963775635
 32
5
 13
37.8856620788574
 23
7.06433963775635
 33
5
 0
3DFACE
 8
STL2DXF
 10
37.8856620788574
 20
7.06433963775635
 30
4
 11
38.1240386962891
 21
7.375
 31
5
 12
38.1240386962891
 22
7.375
 32
1
 13
38.1240386962891
 23
7.375
 33
1
 0
3DFACE
 8
STL2DXF
 10
38.1240386962891
 20
7.375
 30
1
 11
37.8856620788574
 21
7.06433963775635
 31
1
 12
37.8856620788574
 22
7.06433963775635
 32
4
 13
37.8856620788574
 23
7.06433963775635
 33
4
 0
3DFACE
 8
STL2DXF
 10
38.1240386962891
 20
7.375
 30
5
 11
38.2738876342773
 21
7.73677158355713
 31
1
 12
38.1240386962891
 22
7.375
 32
1
 13
38.1240386962891
 23
7.375
 33
1
 0
3DFACE
 8
STL2DXF
 10
38.2738876342773
 20
7.73677158355713
 30
1
 11
38.1240386962891
 21
7.375
 31
5
 12
38.2738876342773
 22
7.73677158355713
 32
5
 13
38.2738876342773
 23
7.73677158355713
 33
5
 0
3DFACE
 8
STL2DXF
 10
38.2738876342773
 20
7.73677158355713
 30
5
 11
38.3250007629395
 21
8.125
 31
1
 12
38.2738876342773
 22
7.73677158355713
 32
1
 13
38.2738876342773
 23
7.73677158355713
 33
1
 0
3DFACE
 8
STL2DXF
 10
38.3250007629395
 20
8.125
 30
1
 11
38.2738876342773
 21
7.73677158355713
 31
5
 12
38.3250007629395
 22
8.125
 32
5
 13
38.3250007629395
 23
8.125
 33
5
 0
3DFACE
 8
STL2DXF
 10
38.3250007629395
 20
8.125
 30
5
 11
38.2738876342773
 21
8.51322841644287
 31
1
 12
38.3250007629395
 22
8.125
 32
1
 13
38.3250007629395
 23
8.125
 33
1
 0
3DFACE
 8
STL2DXF
 10
38.2738876342773
 20
8.51322841644287
 30
1
 11
38.3250007629395
 21
8.125
 31
5
 12
38.2738876342773
 22
8.51322841644287
 32
5
 13
38.2738876342773
 23
8.51322841644287
 33
5
 0
3DFACE
 8
STL2DXF
 10
38.2738876342773
 20
8.51322841644287
 30
5
 11
38.1240386962891
 21
8.875
 31
1
 12
38.2738876342773
 22
8.51322841644287
 32
1
 13
38.2738876342773
 23
8.51322841644287
 33
1
 0
3DFACE
 8
STL2DXF
 10
38.1240386962891
 20
8.875
 30
1
 11
38.2738876342773
 21
8.51322841644287
 31
5
 12
38.1240386962891
 22
8.875
 32
5
 13
38.1240386962891
 23
8.875
 33
5
 0
3DFACE
 8
STL2DXF
 10
38.1240386962891
 20
8.875
 30
5
 11
37.8856620788574
 21
9.18566036224365
 31
1
 12
38.1240386962891
 22
8.875
 32
1
 13
38.1240386962891
 23
8.875
 33
1
 0
3DFACE
 8
STL2DXF
 10
37.8856620788574
 20
9.18566036224365
 30
1
 11
38.1240386962891
 21
8.875
 31
5
 12
37.8856620788574
 22
9.18566036224365
 32
5
 13
37.8856620788574
 23
9.18566036224365
 33
5
 0
3DFACE
 8
STL2DXF
 10
37.5750007629395
 20
9.42403793334961
 30
1
 11
37.8856620788574
 21
9.18566036224365
 31
5
 12
37.5750007629395
 22
9.42403793334961
 32
5
 13
37.5750007629395
 23
9.42403793334961
 33
5
 0
3DFACE
 8
STL2DXF
 10
37.8856620788574
 20
9.18566036224365
 30
5
 11
37.5750007629395
 21
9.42403793334961
 31
1
 12
37.8856620788574
 22
9.18566036224365
 32
1
 13
37.8856620788574
 23
9.18566036224365
 33
1
 0
3DFACE
 8
STL2DXF
 10
37.2132301330566
 20
9.57388877868652
 30
1
 11
37.5750007629395
 21
9.42403793334961
 31
5
 12
37.2132301330566
 22
9.57388877868652
 32
5
 13
37.2132301330566
 23
9.57388877868652
 33
5
 0
3DFACE
 8
STL2DXF
 10
37.5750007629395
 20
9.42403793334961
 30
5
 11
37.2132301330566
 21
9.57388877868652
 31
1
 12
37.5750007629395
 22
9.42403793334961
 32
1
 13
37.5750007629395
 23
9.42403793334961
 33
1
 0
3DFACE
 8
STL2DXF
 10
26.8250007629395
 20
9.625
 30
4
 11
27.213228225708
 21
9.57388877868652
 31
5
 12
26.8250007629395
 22
9.625
 32
5
 13
26.8250007629395
 23
9.625
 33
5
 0
3DFACE
 8
STL2DXF
 10
27.213228225708
 20
9.57388877868652
 30
5
 11
26.8250007629395
 21
9.625
 31
4
 12
27.213228225708
 22
9.57388877868652
 32
1
 13
27.213228225708
 23
9.57388877868652
 33
1
 0
3DFACE
 8
STL2DXF
 10
27.213228225708
 20
9.57388877868652
 30
1
 11
26.8250007629395
 21
9.625
 31
4
 12
26.8250007629395
 22
9.625
 32
1
 13
26.8250007629395
 23
9.625
 33
1
 0
3DFACE
 8
STL2DXF
 10
26.4367713928223
 20
9.57388877868652
 30
4
 11
26.8250007629395
 21
9.625
 31
5
 12
26.4367713928223
 22
9.57388877868652
 32
5
 13
26.4367713928223
 23
9.57388877868652
 33
5
 0
3DFACE
 8
STL2DXF
 10
26.8250007629395
 20
9.625
 30
5
 11
26.4367713928223
 21
9.57388877868652
 31
4
 12
26.8250007629395
 22
9.625
 32
4
 13
26.8250007629395
 23
9.625
 33
4
 0
3DFACE
 8
STL2DXF
 10
26.0750007629395
 20
9.42403793334961
 30
4
 11
26.4367713928223
 21
9.57388877868652
 31
5
 12
26.0750007629395
 22
9.42403793334961
 32
5
 13
26.0750007629395
 23
9.42403793334961
 33
5
 0
3DFACE
 8
STL2DXF
 10
26.4367713928223
 20
9.57388877868652
 30
5
 11
26.0750007629395
 21
9.42403793334961
 31
4
 12
26.4367713928223
 22
9.57388877868652
 32
4
 13
26.4367713928223
 23
9.57388877868652
 33
4
 0
3DFACE
 8
STL2DXF
 10
25.7643394470215
 20
9.18566036224365
 30
4
 11
26.0750007629395
 21
9.42403793334961
 31
5
 12
25.7643394470215
 22
9.18566036224365
 32
5
 13
25.7643394470215
 23
9.18566036224365
 33
5
 0
3DFACE
 8
STL2DXF
 10
26.0750007629395
 20
9.42403793334961
 30
5
 11
25.7643394470215
 21
9.18566036224365
 31
4
 12
26.0750007629395
 22
9.42403793334961
 32
4
 13
26.0750007629395
 23
9.42403793334961
 33
4
 0
3DFACE
 8
STL2DXF
 10
25.7643394470215
 20
9.18566036224365
 30
4
 11
25.5259628295898
 21
8.875
 31
5
 12
25.5259628295898
 22
8.875
 32
4
 13
25.5259628295898
 23
8.875
 33
4
 0
3DFACE
 8
STL2DXF
 10
25.5259628295898
 20
8.875
 30
5
 11
25.7643394470215
 21
9.18566036224365
 31
4
 12
25.7643394470215
 22
9.18566036224365
 32
5
 13
25.7643394470215
 23
9.18566036224365
 33
5
 0
3DFACE
 8
STL2DXF
 10
25.5259628295898
 20
8.875
 30
4
 11
25.3761119842529
 21
8.51322841644287
 31
5
 12
25.3761119842529
 22
8.51322841644287
 32
4
 13
25.3761119842529
 23
8.51322841644287
 33
4
 0
3DFACE
 8
STL2DXF
 10
25.3761119842529
 20
8.51322841644287
 30
5
 11
25.5259628295898
 21
8.875
 31
4
 12
25.5259628295898
 22
8.875
 32
5
 13
25.5259628295898
 23
8.875
 33
5
 0
3DFACE
 8
STL2DXF
 10
25.3761119842529
 20
8.51322841644287
 30
4
 11
25.3250007629395
 21
8.125
 31
5
 12
25.3250007629395
 22
8.125
 32
4
 13
25.3250007629395
 23
8.125
 33
4
 0
3DFACE
 8
STL2DXF
 10
25.3250007629395
 20
8.125
 30
5
 11
25.3761119842529
 21
8.51322841644287
 31
4
 12
25.3761119842529
 22
8.51322841644287
 32
5
 13
25.3761119842529
 23
8.51322841644287
 33
5
 0
3DFACE
 8
STL2DXF
 10
25.3250007629395
 20
8.125
 30
4
 11
25.3761119842529
 21
7.73677158355713
 31
5
 12
25.3761119842529
 22
7.73677158355713
 32
4
 13
25.3761119842529
 23
7.73677158355713
 33
4
 0
3DFACE
 8
STL2DXF
 10
25.3761119842529
 20
7.73677158355713
 30
5
 11
25.3250007629395
 21
8.125
 31
4
 12
25.3250007629395
 22
8.125
 32
5
 13
25.3250007629395
 23
8.125
 33
5
 0
3DFACE
 8
STL2DXF
 10
25.3761119842529
 20
7.73677158355713
 30
4
 11
25.5259628295898
 21
7.375
 31
5
 12
25.5259628295898
 22
7.375
 32
4
 13
25.5259628295898
 23
7.375
 33
4
 0
3DFACE
 8
STL2DXF
 10
25.5259628295898
 20
7.375
 30
5
 11
25.3761119842529
 21
7.73677158355713
 31
4
 12
25.3761119842529
 22
7.73677158355713
 32
5
 13
25.3761119842529
 23
7.73677158355713
 33
5
 0
3DFACE
 8
STL2DXF
 10
25.5259628295898
 20
7.375
 30
4
 11
25.7643394470215
 21
7.06433963775635
 31
5
 12
25.7643394470215
 22
7.06433963775635
 32
4
 13
25.7643394470215
 23
7.06433963775635
 33
4
 0
3DFACE
 8
STL2DXF
 10
25.7643394470215
 20
7.06433963775635
 30
5
 11
25.5259628295898
 21
7.375
 31
4
 12
25.5259628295898
 22
7.375
 32
5
 13
25.5259628295898
 23
7.375
 33
5
 0
3DFACE
 8
STL2DXF
 10
26.0750007629395
 20
6.82596206665039
 30
4
 11
25.7643394470215
 21
7.06433963775635
 31
5
 12
26.0750007629395
 22
6.82596206665039
 32
5
 13
26.0750007629395
 23
6.82596206665039
 33
5
 0
3DFACE
 8
STL2DXF
 10
25.7643394470215
 20
7.06433963775635
 30
5
 11
26.0750007629395
 21
6.82596206665039
 31
4
 12
25.7643394470215
 22
7.06433963775635
 32
4
 13
25.7643394470215
 23
7.06433963775635
 33
4
 0
3DFACE
 8
STL2DXF
 10
26.4367713928223
 20
6.67611122131348
 30
4
 11
26.0750007629395
 21
6.82596206665039
 31
5
 12
26.4367713928223
 22
6.67611122131348
 32
5
 13
26.4367713928223
 23
6.67611122131348
 33
5
 0
3DFACE
 8
STL2DXF
 10
26.0750007629395
 20
6.82596206665039
 30
5
 11
26.4367713928223
 21
6.67611122131348
 31
4
 12
26.0750007629395
 22
6.82596206665039
 32
4
 13
26.0750007629395
 23
6.82596206665039
 33
4
 0
3DFACE
 8
STL2DXF
 10
26.8250007629395
 20
6.625
 30
5
 11
26.4367713928223
 21
6.67611122131348
 31
4
 12
26.4367713928223
 22
6.67611122131348
 32
5
 13
26.4367713928223
 23
6.67611122131348
 33
5
 0
3DFACE
 8
STL2DXF
 10
26.4367713928223
 20
6.67611122131348
 30
4
 11
26.8250007629395
 21
6.625
 31
5
 12
26.8250007629395
 22
6.625
 32
4
 13
26.8250007629395
 23
6.625
 33
4
 0
3DFACE
 8
STL2DXF
 10
27.213228225708
 20
6.67611122131348
 30
1
 11
26.8250007629395
 21
6.625
 31
5
 12
27.213228225708
 22
6.67611122131348
 32
5
 13
27.213228225708
 23
6.67611122131348
 33
5
 0
3DFACE
 8
STL2DXF
 10
26.8250007629395
 20
6.625
 30
5
 11
27.213228225708
 21
6.67611122131348
 31
1
 12
26.8250007629395
 22
6.625
 32
4
 13
26.8250007629395
 23
6.625
 33
4
 0
3DFACE
 8
STL2DXF
 10
26.8250007629395
 20
6.625
 30
4
 11
27.213228225708
 21
6.67611122131348
 31
1
 12
26.8250007629395
 22
6.625
 32
1
 13
26.8250007629395
 23
6.625
 33
1
 0
3DFACE
 8
STL2DXF
 10
27.5750007629395
 20
6.82596206665039
 30
1
 11
27.213228225708
 21
6.67611122131348
 31
5
 12
27.5750007629395
 22
6.82596206665039
 32
5
 13
27.5750007629395
 23
6.82596206665039
 33
5
 0
3DFACE
 8
STL2DXF
 10
27.213228225708
 20
6.67611122131348
 30
5
 11
27.5750007629395
 21
6.82596206665039
 31
1
 12
27.213228225708
 22
6.67611122131348
 32
1
 13
27.213228225708
 23
6.67611122131348
 33
1
 0
3DFACE
 8
STL2DXF
 10
27.8856601715088
 20
7.06433963775635
 30
1
 11
27.5750007629395
 21
6.82596206665039
 31
5
 12
27.8856601715088
 22
7.06433963775635
 32
5
 13
27.8856601715088
 23
7.06433963775635
 33
5
 0
3DFACE
 8
STL2DXF
 10
27.5750007629395
 20
6.82596206665039
 30
5
 11
27.8856601715088
 21
7.06433963775635
 31
1
 12
27.5750007629395
 22
6.82596206665039
 32
1
 13
27.5750007629395
 23
6.82596206665039
 33
1
 0
3DFACE
 8
STL2DXF
 10
27.8856601715088
 20
7.06433963775635
 30
5
 11
28.1240386962891
 21
7.375
 31
1
 12
27.8856601715088
 22
7.06433963775635
 32
1
 13
27.8856601715088
 23
7.06433963775635
 33
1
 0
3DFACE
 8
STL2DXF
 10
28.1240386962891
 20
7.375
 30
1
 11
27.8856601715088
 21
7.06433963775635
 31
5
 12
28.1240386962891
 22
7.375
 32
5
 13
28.1240386962891
 23
7.375
 33
5
 0
3DFACE
 8
STL2DXF
 10
28.1240386962891
 20
7.375
 30
5
 11
28.273889541626
 21
7.73677158355713
 31
1
 12
28.1240386962891
 22
7.375
 32
1
 13
28.1240386962891
 23
7.375
 33
1
 0
3DFACE
 8
STL2DXF
 10
28.273889541626
 20
7.73677158355713
 30
1
 11
28.1240386962891
 21
7.375
 31
5
 12
28.273889541626
 22
7.73677158355713
 32
5
 13
28.273889541626
 23
7.73677158355713
 33
5
 0
3DFACE
 8
STL2DXF
 10
28.273889541626
 20
7.73677158355713
 30
5
 11
28.3250007629395
 21
8.125
 31
1
 12
28.273889541626
 22
7.73677158355713
 32
1
 13
28.273889541626
 23
7.73677158355713
 33
1
 0
3DFACE
 8
STL2DXF
 10
28.3250007629395
 20
8.125
 30
1
 11
28.273889541626
 21
7.73677158355713
 31
5
 12
28.3250007629395
 22
8.125
 32
5
 13
28.3250007629395
 23
8.125
 33
5
 0
3DFACE
 8
STL2DXF
 10
28.3250007629395
 20
8.125
 30
5
 11
28.273889541626
 21
8.51322841644287
 31
1
 12
28.3250007629395
 22
8.125
 32
1
 13
28.3250007629395
 23
8.125
 33
1
 0
3DFACE
 8
STL2DXF
 10
28.273889541626
 20
8.51322841644287
 30
1
 11
28.3250007629395
 21
8.125
 31
5
 12
28.273889541626
 22
8.51322841644287
 32
5
 13
28.273889541626
 23
8.51322841644287
 33
5
 0
3DFACE
 8
STL2DXF
 10
28.273889541626
 20
8.51322841644287
 30
5
 11
28.1240386962891
 21
8.875
 31
1
 12
28.273889541626
 22
8.51322841644287
 32
1
 13
28.273889541626
 23
8.51322841644287
 33
1
 0
3DFACE
 8
STL2DXF
 10
28.1240386962891
 20
8.875
 30
1
 11
28.273889541626
 21
8.51322841644287
 31
5
 12
28.1240386962891
 22
8.875
 32
5
 13
28.1240386962891
 23
8.875
 33
5
 0
3DFACE
 8
STL2DXF
 10
28.1240386962891
 20
8.875
 30
5
 11
27.8856601715088
 21
9.18566036224365
 31
1
 12
28.1240386962891
 22
8.875
 32
1
 13
28.1240386962891
 23
8.875
 33
1
 0
3DFACE
 8
STL2DXF
 10
27.8856601715088
 20
9.18566036224365
 30
1
 11
28.1240386962891
 21
8.875
 31
5
 12
27.8856601715088
 22
9.18566036224365
 32
5
 13
27.8856601715088
 23
9.18566036224365
 33
5
 0
3DFACE
 8
STL2DXF
 10
27.5750007629395
 20
9.42403793334961
 30
1
 11
27.8856601715088
 21
9.18566036224365
 31
5
 12
27.5750007629395
 22
9.42403793334961
 32
5
 13
27.5750007629395
 23
9.42403793334961
 33
5
 0
3DFACE
 8
STL2DXF
 10
27.8856601715088
 20
9.18566036224365
 30
5
 11
27.5750007629395
 21
9.42403793334961
 31
1
 12
27.8856601715088
 22
9.18566036224365
 32
1
 13
27.8856601715088
 23
9.18566036224365
 33
1
 0
3DFACE
 8
STL2DXF
 10
27.213228225708
 20
9.57388877868652
 30
1
 11
27.5750007629395
 21
9.42403793334961
 31
5
 12
27.213228225708
 22
9.57388877868652
 32
5
 13
27.213228225708
 23
9.57388877868652
 33
5
 0
3DFACE
 8
STL2DXF
 10
27.5750007629395
 20
9.42403793334961
 30
5
 11
27.213228225708
 21
9.57388877868652
 31
1
 12
27.5750007629395
 22
9.42403793334961
 32
1
 13
27.5750007629395
 23
9.42403793334961
 33
1
 0
3DFACE
 8
STL2DXF
 10
11.9318513870239
 20
8.64263820648193
 30
3
 11
11.9318513870239
 21
7.60736179351807
 31
3
 12
12
 22
8.125
 32
3
 13
12
 23
8.125
 33
3
 0
3DFACE
 8
STL2DXF
 10
11.9318513870239
 20
7.60736179351807
 30
3
 11
11.9318513870239
 21
8.64263820648193
 31
3
 12
11.7320508956909
 22
9.125
 32
3
 13
11.7320508956909
 23
9.125
 33
3
 0
3DFACE
 8
STL2DXF
 10
11.9318513870239
 20
7.60736179351807
 30
3
 11
11.7320508956909
 21
9.125
 31
3
 12
11.7320508956909
 22
7.125
 32
3
 13
11.7320508956909
 23
7.125
 33
3
 0
3DFACE
 8
STL2DXF
 10
11.7320508956909
 20
7.125
 30
3
 11
11.7320508956909
 21
9.125
 31
3
 12
11.414213180542
 22
9.53921318054199
 32
3
 13
11.414213180542
 23
9.53921318054199
 33
3
 0
3DFACE
 8
STL2DXF
 10
11.7320508956909
 20
7.125
 30
3
 11
11.414213180542
 21
9.53921318054199
 31
3
 12
11.414213180542
 22
6.71078634262085
 32
3
 13
11.414213180542
 23
6.71078634262085
 33
3
 0
3DFACE
 8
STL2DXF
 10
11.414213180542
 20
6.71078634262085
 30
3
 11
11.414213180542
 21
9.53921318054199
 31
3
 12
11
 22
9.85705089569092
 32
3
 13
11
 23
9.85705089569092
 33
3
 0
3DFACE
 8
STL2DXF
 10
11.414213180542
 20
6.71078634262085
 30
3
 11
11
 21
9.85705089569092
 31
3
 12
11
 22
6.39294910430908
 32
3
 13
11
 23
6.39294910430908
 33
3
 0
3DFACE
 8
STL2DXF
 10
11
 20
6.39294910430908
 30
3
 11
11
 21
9.85705089569092
 31
3
 12
10.5176382064819
 22
10.0568513870239
 32
3
 13
10.5176382064819
 23
10.0568513870239
 33
3
 0
3DFACE
 8
STL2DXF
 10
11
 20
6.39294910430908
 30
3
 11
10.5176382064819
 21
10.0568513870239
 31
3
 12
10.5176382064819
 22
6.19314813613892
 32
3
 13
10.5176382064819
 23
6.19314813613892
 33
3
 0
3DFACE
 8
STL2DXF
 10
10.5176382064819
 20
6.19314813613892
 30
3
 11
10.5176382064819
 21
10.0568513870239
 31
3
 12
10
 22
6.125
 32
3
 13
10
 23
6.125
 33
3
 0
3DFACE
 8
STL2DXF
 10
10
 20
6.125
 30
3
 11
10.5176382064819
 21
10.0568513870239
 31
3
 12
10
 22
10.125
 32
3
 13
10
 23
10.125
 33
3
 0
3DFACE
 8
STL2DXF
 10
10
 20
6.125
 30
3
 11
10
 21
10.125
 31
3
 12
9.48236179351807
 22
10.0568513870239
 32
3
 13
9.48236179351807
 23
10.0568513870239
 33
3
 0
3DFACE
 8
STL2DXF
 10
10
 20
6.125
 30
3
 11
9.48236179351807
 21
10.0568513870239
 31
3
 12
9.48236179351807
 22
6.19314813613892
 32
3
 13
9.48236179351807
 23
6.19314813613892
 33
3
 0
3DFACE
 8
STL2DXF
 10
9.48236179351807
 20
6.19314813613892
 30
3
 11
9.48236179351807
 21
10.0568513870239
 31
3
 12
9
 22
9.85705089569092
 32
3
 13
9
 23
9.85705089569092
 33
3
 0
3DFACE
 8
STL2DXF
 10
9.48236179351807
 20
6.19314813613892
 30
3
 11
9
 21
9.85705089569092
 31
3
 12
9
 22
6.39294910430908
 32
3
 13
9
 23
6.39294910430908
 33
3
 0
3DFACE
 8
STL2DXF
 10
9
 20
6.39294910430908
 30
3
 11
9
 21
9.85705089569092
 31
3
 12
8.58578681945801
 22
9.53921318054199
 32
3
 13
8.58578681945801
 23
9.53921318054199
 33
3
 0
3DFACE
 8
STL2DXF
 10
9
 20
6.39294910430908
 30
3
 11
8.58578681945801
 21
9.53921318054199
 31
3
 12
8.58578681945801
 22
6.71078634262085
 32
3
 13
8.58578681945801
 23
6.71078634262085
 33
3
 0
3DFACE
 8
STL2DXF
 10
8.58578681945801
 20
6.71078634262085
 30
3
 11
8.58578681945801
 21
9.53921318054199
 31
3
 12
8.26794910430908
 22
9.125
 32
3
 13
8.26794910430908
 23
9.125
 33
3
 0
3DFACE
 8
STL2DXF
 10
8.58578681945801
 20
6.71078634262085
 30
3
 11
8.26794910430908
 21
9.125
 31
3
 12
8.26794910430908
 22
7.125
 32
3
 13
8.26794910430908
 23
7.125
 33
3
 0
3DFACE
 8
STL2DXF
 10
8.26794910430908
 20
7.125
 30
3
 11
8.26794910430908
 21
9.125
 31
3
 12
8.06814861297607
 22
8.64263820648193
 32
3
 13
8.06814861297607
 23
8.64263820648193
 33
3
 0
3DFACE
 8
STL2DXF
 10
8.26794910430908
 20
7.125
 30
3
 11
8.06814861297607
 21
8.64263820648193
 31
3
 12
8.06814861297607
 22
7.60736179351807
 32
3
 13
8.06814861297607
 23
7.60736179351807
 33
3
 0
3DFACE
 8
STL2DXF
 10
8.06814861297607
 20
7.60736179351807
 30
3
 11
8.06814861297607
 21
8.64263820648193
 31
3
 12
8
 22
8.125
 32
3
 13
8
 23
8.125
 33
3
 0
3DFACE
 8
STL2DXF
 10
8.26794910430908
 20
9.125
 30
3
 11
8.06814861297607
 21
8.64263820648193
 31
5
 12
8.06814861297607
 22
8.64263820648193
 32
3
 13
8.06814861297607
 23
8.64263820648193
 33
3
 0
3DFACE
 8
STL2DXF
 10
8.06814861297607
 20
8.64263820648193
 30
5
 11
8.26794910430908
 21
9.125
 31
3
 12
8.26794910430908
 22
9.125
 32
5
 13
8.26794910430908
 23
9.125
 33
5
 0
3DFACE
 8
STL2DXF
 10
8.06814861297607
 20
8.64263820648193
 30
3
 11
8
 21
8.125
 31
5
 12
8
 22
8.125
 32
3
 13
8
 23
8.125
 33
3
 0
3DFACE
 8
STL2DXF
 10
8
 20
8.125
 30
5
 11
8.06814861297607
 21
8.64263820648193
 31
3
 12
8.06814861297607
 22
8.64263820648193
 32
5
 13
8.06814861297607
 23
8.64263820648193
 33
5
 0
3DFACE
 8
STL2DXF
 10
8
 20
8.125
 30
3
 11
8.06814861297607
 21
7.60736179351807
 31
5
 12
8.06814861297607
 22
7.60736179351807
 32
3
 13
8.06814861297607
 23
7.60736179351807
 33
3
 0
3DFACE
 8
STL2DXF
 10
8.06814861297607
 20
7.60736179351807
 30
5
 11
8
 21
8.125
 31
3
 12
8
 22
8.125
 32
5
 13
8
 23
8.125
 33
5
 0
3DFACE
 8
STL2DXF
 10
8.06814861297607
 20
7.60736179351807
 30
3
 11
8.26794910430908
 21
7.125
 31
5
 12
8.26794910430908
 22
7.125
 32
3
 13
8.26794910430908
 23
7.125
 33
3
 0
3DFACE
 8
STL2DXF
 10
8.26794910430908
 20
7.125
 30
5
 11
8.06814861297607
 21
7.60736179351807
 31
3
 12
8.06814861297607
 22
7.60736179351807
 32
5
 13
8.06814861297607
 23
7.60736179351807
 33
5
 0
3DFACE
 8
STL2DXF
 10
8.26794910430908
 20
7.125
 30
3
 11
8.58578681945801
 21
6.71078634262085
 31
5
 12
8.58578681945801
 22
6.71078634262085
 32
3
 13
8.58578681945801
 23
6.71078634262085
 33
3
 0
3DFACE
 8
STL2DXF
 10
8.58578681945801
 20
6.71078634262085
 30
5
 11
8.26794910430908
 21
7.125
 31
3
 12
8.26794910430908
 22
7.125
 32
5
 13
8.26794910430908
 23
7.125
 33
5
 0
3DFACE
 8
STL2DXF
 10
9
 20
6.39294910430908
 30
3
 11
8.58578681945801
 21
6.71078634262085
 31
5
 12
9
 22
6.39294910430908
 32
5
 13
9
 23
6.39294910430908
 33
5
 0
3DFACE
 8
STL2DXF
 10
8.58578681945801
 20
6.71078634262085
 30
5
 11
9
 21
6.39294910430908
 31
3
 12
8.58578681945801
 22
6.71078634262085
 32
3
 13
8.58578681945801
 23
6.71078634262085
 33
3
 0
3DFACE
 8
STL2DXF
 10
9.48236179351807
 20
6.19314813613892
 30
3
 11
9
 21
6.39294910430908
 31
5
 12
9.48236179351807
 22
6.19314813613892
 32
5
 13
9.48236179351807
 23
6.19314813613892
 33
5
 0
3DFACE
 8
STL2DXF
 10
9
 20
6.39294910430908
 30
5
 11
9.48236179351807
 21
6.19314813613892
 31
3
 12
9
 22
6.39294910430908
 32
3
 13
9
 23
6.39294910430908
 33
3
 0
3DFACE
 8
STL2DXF
 10
10
 20
6.125
 30
3
 11
9.48236179351807
 21
6.19314813613892
 31
5
 12
10
 22
6.125
 32
5
 13
10
 23
6.125
 33
5
 0
3DFACE
 8
STL2DXF
 10
9.48236179351807
 20
6.19314813613892
 30
5
 11
10
 21
6.125
 31
3
 12
9.48236179351807
 22
6.19314813613892
 32
3
 13
9.48236179351807
 23
6.19314813613892
 33
3
 0
3DFACE
 8
STL2DXF
 10
10.5176382064819
 20
6.19314813613892
 30
3
 11
10
 21
6.125
 31
5
 12
10.5176382064819
 22
6.19314813613892
 32
5
 13
10.5176382064819
 23
6.19314813613892
 33
5
 0
3DFACE
 8
STL2DXF
 10
10
 20
6.125
 30
5
 11
10.5176382064819
 21
6.19314813613892
 31
3
 12
10
 22
6.125
 32
3
 13
10
 23
6.125
 33
3
 0
3DFACE
 8
STL2DXF
 10
11
 20
6.39294910430908
 30
3
 11
10.5176382064819
 21
6.19314813613892
 31
5
 12
11
 22
6.39294910430908
 32
5
 13
11
 23
6.39294910430908
 33
5
 0
3DFACE
 8
STL2DXF
 10
10.5176382064819
 20
6.19314813613892
 30
5
 11
11
 21
6.39294910430908
 31
3
 12
10.5176382064819
 22
6.19314813613892
 32
3
 13
10.5176382064819
 23
6.19314813613892
 33
3
 0
3DFACE
 8
STL2DXF
 10
11.414213180542
 20
6.71078634262085
 30
3
 11
11
 21
6.39294910430908
 31
5
 12
11.414213180542
 22
6.71078634262085
 32
5
 13
11.414213180542
 23
6.71078634262085
 33
5
 0
3DFACE
 8
STL2DXF
 10
11
 20
6.39294910430908
 30
5
 11
11.414213180542
 21
6.71078634262085
 31
3
 12
11
 22
6.39294910430908
 32
3
 13
11
 23
6.39294910430908
 33
3
 0
3DFACE
 8
STL2DXF
 10
11.7320508956909
 20
7.125
 30
5
 11
11.414213180542
 21
6.71078634262085
 31
3
 12
11.414213180542
 22
6.71078634262085
 32
5
 13
11.414213180542
 23
6.71078634262085
 33
5
 0
3DFACE
 8
STL2DXF
 10
11.414213180542
 20
6.71078634262085
 30
3
 11
11.7320508956909
 21
7.125
 31
5
 12
11.7320508956909
 22
7.125
 32
3
 13
11.7320508956909
 23
7.125
 33
3
 0
3DFACE
 8
STL2DXF
 10
11.9318513870239
 20
7.60736179351807
 30
5
 11
11.7320508956909
 21
7.125
 31
3
 12
11.7320508956909
 22
7.125
 32
5
 13
11.7320508956909
 23
7.125
 33
5
 0
3DFACE
 8
STL2DXF
 10
11.7320508956909
 20
7.125
 30
3
 11
11.9318513870239
 21
7.60736179351807
 31
5
 12
11.9318513870239
 22
7.60736179351807
 32
3
 13
11.9318513870239
 23
7.60736179351807
 33
3
 0
3DFACE
 8
STL2DXF
 10
12
 20
8.125
 30
5
 11
11.9318513870239
 21
7.60736179351807
 31
3
 12
11.9318513870239
 22
7.60736179351807
 32
5
 13
11.9318513870239
 23
7.60736179351807
 33
5
 0
3DFACE
 8
STL2DXF
 10
11.9318513870239
 20
7.60736179351807
 30
3
 11
12
 21
8.125
 31
5
 12
12
 22
8.125
 32
3
 13
12
 23
8.125
 33
3
 0
3DFACE
 8
STL2DXF
 10
11.9318513870239
 20
8.64263820648193
 30
5
 11
12
 21
8.125
 31
3
 12
12
 22
8.125
 32
5
 13
12
 23
8.125
 33
5
 0
3DFACE
 8
STL2DXF
 10
12
 20
8.125
 30
3
 11
11.9318513870239
 21
8.64263820648193
 31
5
 12
11.9318513870239
 22
8.64263820648193
 32
3
 13
11.9318513870239
 23
8.64263820648193
 33
3
 0
3DFACE
 8
STL2DXF
 10
11.7320508956909
 20
9.125
 30
5
 11
11.9318513870239
 21
8.64263820648193
 31
3
 12
11.9318513870239
 22
8.64263820648193
 32
5
 13
11.9318513870239
 23
8.64263820648193
 33
5
 0
3DFACE
 8
STL2DXF
 10
11.9318513870239
 20
8.64263820648193
 30
3
 11
11.7320508956909
 21
9.125
 31
5
 12
11.7320508956909
 22
9.125
 32
3
 13
11.7320508956909
 23
9.125
 33
3
 0
3DFACE
 8
STL2DXF
 10
11.414213180542
 20
9.53921318054199
 30
5
 11
11.7320508956909
 21
9.125
 31
3
 12
11.7320508956909
 22
9.125
 32
5
 13
11.7320508956909
 23
9.125
 33
5
 0
3DFACE
 8
STL2DXF
 10
11.7320508956909
 20
9.125
 30
3
 11
11.414213180542
 21
9.53921318054199
 31
5
 12
11.414213180542
 22
9.53921318054199
 32
3
 13
11.414213180542
 23
9.53921318054199
 33
3
 0
3DFACE
 8
STL2DXF
 10
11
 20
9.85705089569092
 30
3
 11
11.414213180542
 21
9.53921318054199
 31
5
 12
11
 22
9.85705089569092
 32
5
 13
11
 23
9.85705089569092
 33
5
 0
3DFACE
 8
STL2DXF
 10
11.414213180542
 20
9.53921318054199
 30
5
 11
11
 21
9.85705089569092
 31
3
 12
11.414213180542
 22
9.53921318054199
 32
3
 13
11.414213180542
 23
9.53921318054199
 33
3
 0
3DFACE
 8
STL2DXF
 10
10.5176382064819
 20
10.0568513870239
 30
3
 11
11
 21
9.85705089569092
 31
5
 12
10.5176382064819
 22
10.0568513870239
 32
5
 13
10.5176382064819
 23
10.0568513870239
 33
5
 0
3DFACE
 8
STL2DXF
 10
11
 20
9.85705089569092
 30
5
 11
10.5176382064819
 21
10.0568513870239
 31
3
 12
11
 22
9.85705089569092
 32
3
 13
11
 23
9.85705089569092
 33
3
 0
3DFACE
 8
STL2DXF
 10
10
 20
10.125
 30
3
 11
10.5176382064819
 21
10.0568513870239
 31
5
 12
10
 22
10.125
 32
5
 13
10
 23
10.125
 33
5
 0
3DFACE
 8
STL2DXF
 10
10.5176382064819
 20
10.0568513870239
 30
5
 11
10
 21
10.125
 31
3
 12
10.5176382064819
 22
10.0568513870239
 32
3
 13
10.5176382064819
 23
10.0568513870239
 33
3
 0
3DFACE
 8
STL2DXF
 10
9.48236179351807
 20
10.0568513870239
 30
3
 11
10
 21
10.125
 31
5
 12
9.48236179351807
 22
10.0568513870239
 32
5
 13
9.48236179351807
 23
10.0568513870239
 33
5
 0
3DFACE
 8
STL2DXF
 10
10
 20
10.125
 30
5
 11
9.48236179351807
 21
10.0568513870239
 31
3
 12
10
 22
10.125
 32
3
 13
10
 23
10.125
 33
3
 0
3DFACE
 8
STL2DXF
 10
9
 20
9.85705089569092
 30
3
 11
9.48236179351807
 21
10.0568513870239
 31
5
 12
9
 22
9.85705089569092
 32
5
 13
9
 23
9.85705089569092
 33
5
 0
3DFACE
 8
STL2DXF
 10
9.48236179351807
 20
10.0568513870239
 30
5
 11
9
 21
9.85705089569092
 31
3
 12
9.48236179351807
 22
10.0568513870239
 32
3
 13
9.48236179351807
 23
10.0568513870239
 33
3
 0
3DFACE
 8
STL2DXF
 10
8.58578681945801
 20
9.53921318054199
 30
3
 11
9
 21
9.85705089569092
 31
5
 12
8.58578681945801
 22
9.53921318054199
 32
5
 13
8.58578681945801
 23
9.53921318054199
 33
5
 0
3DFACE
 8
STL2DXF
 10
9
 20
9.85705089569092
 30
5
 11
8.58578681945801
 21
9.53921318054199
 31
3
 12
9
 22
9.85705089569092
 32
3
 13
9
 23
9.85705089569092
 33
3
 0
3DFACE
 8
STL2DXF
 10
8.58578681945801
 20
9.53921318054199
 30
3
 11
8.26794910430908
 21
9.125
 31
5
 12
8.26794910430908
 22
9.125
 32
3
 13
8.26794910430908
 23
9.125
 33
3
 0
3DFACE
 8
STL2DXF
 10
8.26794910430908
 20
9.125
 30
5
 11
8.58578681945801
 21
9.53921318054199
 31
3
 12
8.58578681945801
 22
9.53921318054199
 32
5
 13
8.58578681945801
 23
9.53921318054199
 33
5
 0
3DFACE
 8
STL2DXF
 10
11.9318513870239
 20
38.6426391601563
 30
3
 11
11.9318513870239
 21
37.6073608398438
 31
3
 12
12
 22
38.125
 32
3
 13
12
 23
38.125
 33
3
 0
3DFACE
 8
STL2DXF
 10
11.9318513870239
 20
37.6073608398438
 30
3
 11
11.9318513870239
 21
38.6426391601563
 31
3
 12
11.7320508956909
 22
39.125
 32
3
 13
11.7320508956909
 23
39.125
 33
3
 0
3DFACE
 8
STL2DXF
 10
11.9318513870239
 20
37.6073608398438
 30
3
 11
11.7320508956909
 21
39.125
 31
3
 12
11.7320508956909
 22
37.125
 32
3
 13
11.7320508956909
 23
37.125
 33
3
 0
3DFACE
 8
STL2DXF
 10
11.7320508956909
 20
37.125
 30
3
 11
11.7320508956909
 21
39.125
 31
3
 12
11.414213180542
 22
39.5392150878906
 32
3
 13
11.414213180542
 23
39.5392150878906
 33
3
 0
3DFACE
 8
STL2DXF
 10
11.7320508956909
 20
37.125
 30
3
 11
11.414213180542
 21
39.5392150878906
 31
3
 12
11.414213180542
 22
36.7107849121094
 32
3
 13
11.414213180542
 23
36.7107849121094
 33
3
 0
3DFACE
 8
STL2DXF
 10
11.414213180542
 20
36.7107849121094
 30
3
 11
11.414213180542
 21
39.5392150878906
 31
3
 12
11
 22
36.3929481506348
 32
3
 13
11
 23
36.3929481506348
 33
3
 0
3DFACE
 8
STL2DXF
 10
11
 20
36.3929481506348
 30
3
 11
11.414213180542
 21
39.5392150878906
 31
3
 12
11
 22
39.8570518493652
 32
3
 13
11
 23
39.8570518493652
 33
3
 0
3DFACE
 8
STL2DXF
 10
11
 20
36.3929481506348
 30
3
 11
11
 21
39.8570518493652
 31
3
 12
10.5176382064819
 22
40.0568504333496
 32
3
 13
10.5176382064819
 23
40.0568504333496
 33
3
 0
3DFACE
 8
STL2DXF
 10
11
 20
36.3929481506348
 30
3
 11
10.5176382064819
 21
40.0568504333496
 31
3
 12
10.5176382064819
 22
36.1931495666504
 32
3
 13
10.5176382064819
 23
36.1931495666504
 33
3
 0
3DFACE
 8
STL2DXF
 10
10.5176382064819
 20
36.1931495666504
 30
3
 11
10.5176382064819
 21
40.0568504333496
 31
3
 12
10
 22
36.125
 32
3
 13
10
 23
36.125
 33
3
 0
3DFACE
 8
STL2DXF
 10
10
 20
36.125
 30
3
 11
10.5176382064819
 21
40.0568504333496
 31
3
 12
10
 22
40.125
 32
3
 13
10
 23
40.125
 33
3
 0
3DFACE
 8
STL2DXF
 10
10
 20
36.125
 30
3
 11
10
 21
40.125
 31
3
 12
9.48236179351807
 22
40.0568504333496
 32
3
 13
9.48236179351807
 23
40.0568504333496
 33
3
 0
3DFACE
 8
STL2DXF
 10
10
 20
36.125
 30
3
 11
9.48236179351807
 21
40.0568504333496
 31
3
 12
9.48236179351807
 22
36.1931495666504
 32
3
 13
9.48236179351807
 23
36.1931495666504
 33
3
 0
3DFACE
 8
STL2DXF
 10
9.48236179351807
 20
36.1931495666504
 30
3
 11
9.48236179351807
 21
40.0568504333496
 31
3
 12
9
 22
39.8570518493652
 32
3
 13
9
 23
39.8570518493652
 33
3
 0
3DFACE
 8
STL2DXF
 10
9.48236179351807
 20
36.1931495666504
 30
3
 11
9
 21
39.8570518493652
 31
3
 12
9
 22
36.3929481506348
 32
3
 13
9
 23
36.3929481506348
 33
3
 0
3DFACE
 8
STL2DXF
 10
9
 20
36.3929481506348
 30
3
 11
9
 21
39.8570518493652
 31
3
 12
8.58578681945801
 22
36.7107849121094
 32
3
 13
8.58578681945801
 23
36.7107849121094
 33
3
 0
3DFACE
 8
STL2DXF
 10
8.58578681945801
 20
36.7107849121094
 30
3
 11
9
 21
39.8570518493652
 31
3
 12
8.58578681945801
 22
39.5392150878906
 32
3
 13
8.58578681945801
 23
39.5392150878906
 33
3
 0
3DFACE
 8
STL2DXF
 10
8.58578681945801
 20
36.7107849121094
 30
3
 11
8.58578681945801
 21
39.5392150878906
 31
3
 12
8.26794910430908
 22
39.125
 32
3
 13
8.26794910430908
 23
39.125
 33
3
 0
3DFACE
 8
STL2DXF
 10
8.58578681945801
 20
36.7107849121094
 30
3
 11
8.26794910430908
 21
39.125
 31
3
 12
8.26794910430908
 22
37.125
 32
3
 13
8.26794910430908
 23
37.125
 33
3
 0
3DFACE
 8
STL2DXF
 10
8.26794910430908
 20
37.125
 30
3
 11
8.26794910430908
 21
39.125
 31
3
 12
8.06814861297607
 22
38.6426391601563
 32
3
 13
8.06814861297607
 23
38.6426391601563
 33
3
 0
3DFACE
 8
STL2DXF
 10
8.26794910430908
 20
37.125
 30
3
 11
8.06814861297607
 21
38.6426391601563
 31
3
 12
8.06814861297607
 22
37.6073608398438
 32
3
 13
8.06814861297607
 23
37.6073608398438
 33
3
 0
3DFACE
 8
STL2DXF
 10
8.06814861297607
 20
37.6073608398438
 30
3
 11
8.06814861297607
 21
38.6426391601563
 31
3
 12
8
 22
38.125
 32
3
 13
8
 23
38.125
 33
3
 0
3DFACE
 8
STL2DXF
 10
8.58578681945801
 20
39.5392150878906
 30
3
 11
8.26794910430908
 21
39.125
 31
5
 12
8.26794910430908
 22
39.125
 32
3
 13
8.26794910430908
 23
39.125
 33
3
 0
3DFACE
 8
STL2DXF
 10
8.26794910430908
 20
39.125
 30
5
 11
8.58578681945801
 21
39.5392150878906
 31
3
 12
8.58578681945801
 22
39.5392150878906
 32
5
 13
8.58578681945801
 23
39.5392150878906
 33
5
 0
3DFACE
 8
STL2DXF
 10
8.26794910430908
 20
39.125
 30
3
 11
8.06814861297607
 21
38.6426391601563
 31
5
 12
8.06814861297607
 22
38.6426391601563
 32
3
 13
8.06814861297607
 23
38.6426391601563
 33
3
 0
3DFACE
 8
STL2DXF
 10
8.06814861297607
 20
38.6426391601563
 30
5
 11
8.26794910430908
 21
39.125
 31
3
 12
8.26794910430908
 22
39.125
 32
5
 13
8.26794910430908
 23
39.125
 33
5
 0
3DFACE
 8
STL2DXF
 10
8.06814861297607
 20
38.6426391601563
 30
3
 11
8
 21
38.125
 31
5
 12
8
 22
38.125
 32
3
 13
8
 23
38.125
 33
3
 0
3DFACE
 8
STL2DXF
 10
8
 20
38.125
 30
5
 11
8.06814861297607
 21
38.6426391601563
 31
3
 12
8.06814861297607
 22
38.6426391601563
 32
5
 13
8.06814861297607
 23
38.6426391601563
 33
5
 0
3DFACE
 8
STL2DXF
 10
8
 20
38.125
 30
3
 11
8.06814861297607
 21
37.6073608398438
 31
5
 12
8.06814861297607
 22
37.6073608398438
 32
3
 13
8.06814861297607
 23
37.6073608398438
 33
3
 0
3DFACE
 8
STL2DXF
 10
8.06814861297607
 20
37.6073608398438
 30
5
 11
8
 21
38.125
 31
3
 12
8
 22
38.125
 32
5
 13
8
 23
38.125
 33
5
 0
3DFACE
 8
STL2DXF
 10
8.06814861297607
 20
37.6073608398438
 30
3
 11
8.26794910430908
 21
37.125
 31
5
 12
8.26794910430908
 22
37.125
 32
3
 13
8.26794910430908
 23
37.125
 33
3
 0
3DFACE
 8
STL2DXF
 10
8.26794910430908
 20
37.125
 30
5
 11
8.06814861297607
 21
37.6073608398438
 31
3
 12
8.06814861297607
 22
37.6073608398438
 32
5
 13
8.06814861297607
 23
37.6073608398438
 33
5
 0
3DFACE
 8
STL2DXF
 10
8.26794910430908
 20
37.125
 30
3
 11
8.58578681945801
 21
36.7107849121094
 31
5
 12
8.58578681945801
 22
36.7107849121094
 32
3
 13
8.58578681945801
 23
36.7107849121094
 33
3
 0
3DFACE
 8
STL2DXF
 10
8.58578681945801
 20
36.7107849121094
 30
5
 11
8.26794910430908
 21
37.125
 31
3
 12
8.26794910430908
 22
37.125
 32
5
 13
8.26794910430908
 23
37.125
 33
5
 0
3DFACE
 8
STL2DXF
 10
9
 20
36.3929481506348
 30
3
 11
8.58578681945801
 21
36.7107849121094
 31
5
 12
9
 22
36.3929481506348
 32
5
 13
9
 23
36.3929481506348
 33
5
 0
3DFACE
 8
STL2DXF
 10
8.58578681945801
 20
36.7107849121094
 30
5
 11
9
 21
36.3929481506348
 31
3
 12
8.58578681945801
 22
36.7107849121094
 32
3
 13
8.58578681945801
 23
36.7107849121094
 33
3
 0
3DFACE
 8
STL2DXF
 10
9.48236179351807
 20
36.1931495666504
 30
3
 11
9
 21
36.3929481506348
 31
5
 12
9.48236179351807
 22
36.1931495666504
 32
5
 13
9.48236179351807
 23
36.1931495666504
 33
5
 0
3DFACE
 8
STL2DXF
 10
9
 20
36.3929481506348
 30
5
 11
9.48236179351807
 21
36.1931495666504
 31
3
 12
9
 22
36.3929481506348
 32
3
 13
9
 23
36.3929481506348
 33
3
 0
3DFACE
 8
STL2DXF
 10
10
 20
36.125
 30
3
 11
9.48236179351807
 21
36.1931495666504
 31
5
 12
10
 22
36.125
 32
5
 13
10
 23
36.125
 33
5
 0
3DFACE
 8
STL2DXF
 10
9.48236179351807
 20
36.1931495666504
 30
5
 11
10
 21
36.125
 31
3
 12
9.48236179351807
 22
36.1931495666504
 32
3
 13
9.48236179351807
 23
36.1931495666504
 33
3
 0
3DFACE
 8
STL2DXF
 10
10.5176382064819
 20
36.1931495666504
 30
3
 11
10
 21
36.125
 31
5
 12
10.5176382064819
 22
36.1931495666504
 32
5
 13
10.5176382064819
 23
36.1931495666504
 33
5
 0
3DFACE
 8
STL2DXF
 10
10
 20
36.125
 30
5
 11
10.5176382064819
 21
36.1931495666504
 31
3
 12
10
 22
36.125
 32
3
 13
10
 23
36.125
 33
3
 0
3DFACE
 8
STL2DXF
 10
11
 20
36.3929481506348
 30
3
 11
10.5176382064819
 21
36.1931495666504
 31
5
 12
11
 22
36.3929481506348
 32
5
 13
11
 23
36.3929481506348
 33
5
 0
3DFACE
 8
STL2DXF
 10
10.5176382064819
 20
36.1931495666504
 30
5
 11
11
 21
36.3929481506348
 31
3
 12
10.5176382064819
 22
36.1931495666504
 32
3
 13
10.5176382064819
 23
36.1931495666504
 33
3
 0
3DFACE
 8
STL2DXF
 10
11.414213180542
 20
36.7107849121094
 30
3
 11
11
 21
36.3929481506348
 31
5
 12
11.414213180542
 22
36.7107849121094
 32
5
 13
11.414213180542
 23
36.7107849121094
 33
5
 0
3DFACE
 8
STL2DXF
 10
11
 20
36.3929481506348
 30
5
 11
11.414213180542
 21
36.7107849121094
 31
3
 12
11
 22
36.3929481506348
 32
3
 13
11
 23
36.3929481506348
 33
3
 0
3DFACE
 8
STL2DXF
 10
11.7320508956909
 20
37.125
 30
5
 11
11.414213180542
 21
36.7107849121094
 31
3
 12
11.414213180542
 22
36.7107849121094
 32
5
 13
11.414213180542
 23
36.7107849121094
 33
5
 0
3DFACE
 8
STL2DXF
 10
11.414213180542
 20
36.7107849121094
 30
3
 11
11.7320508956909
 21
37.125
 31
5
 12
11.7320508956909
 22
37.125
 32
3
 13
11.7320508956909
 23
37.125
 33
3
 0
3DFACE
 8
STL2DXF
 10
11.9318513870239
 20
37.6073608398438
 30
5
 11
11.7320508956909
 21
37.125
 31
3
 12
11.7320508956909
 22
37.125
 32
5
 13
11.7320508956909
 23
37.125
 33
5
 0
3DFACE
 8
STL2DXF
 10
11.7320508956909
 20
37.125
 30
3
 11
11.9318513870239
 21
37.6073608398438
 31
5
 12
11.9318513870239
 22
37.6073608398438
 32
3
 13
11.9318513870239
 23
37.6073608398438
 33
3
 0
3DFACE
 8
STL2DXF
 10
12
 20
38.125
 30
5
 11
11.9318513870239
 21
37.6073608398438
 31
3
 12
11.9318513870239
 22
37.6073608398438
 32
5
 13
11.9318513870239
 23
37.6073608398438
 33
5
 0
3DFACE
 8
STL2DXF
 10
11.9318513870239
 20
37.6073608398438
 30
3
 11
12
 21
38.125
 31
5
 12
12
 22
38.125
 32
3
 13
12
 23
38.125
 33
3
 0
3DFACE
 8
STL2DXF
 10
11.9318513870239
 20
38.6426391601563
 30
5
 11
12
 21
38.125
 31
3
 12
12
 22
38.125
 32
5
 13
12
 23
38.125
 33
5
 0
3DFACE
 8
STL2DXF
 10
12
 20
38.125
 30
3
 11
11.9318513870239
 21
38.6426391601563
 31
5
 12
11.9318513870239
 22
38.6426391601563
 32
3
 13
11.9318513870239
 23
38.6426391601563
 33
3
 0
3DFACE
 8
STL2DXF
 10
11.7320508956909
 20
39.125
 30
5
 11
11.9318513870239
 21
38.6426391601563
 31
3
 12
11.9318513870239
 22
38.6426391601563
 32
5
 13
11.9318513870239
 23
38.6426391601563
 33
5
 0
3DFACE
 8
STL2DXF
 10
11.9318513870239
 20
38.6426391601563
 30
3
 11
11.7320508956909
 21
39.125
 31
5
 12
11.7320508956909
 22
39.125
 32
3
 13
11.7320508956909
 23
39.125
 33
3
 0
3DFACE
 8
STL2DXF
 10
11.414213180542
 20
39.5392150878906
 30
5
 11
11.7320508956909
 21
39.125
 31
3
 12
11.7320508956909
 22
39.125
 32
5
 13
11.7320508956909
 23
39.125
 33
5
 0
3DFACE
 8
STL2DXF
 10
11.7320508956909
 20
39.125
 30
3
 11
11.414213180542
 21
39.5392150878906
 31
5
 12
11.414213180542
 22
39.5392150878906
 32
3
 13
11.414213180542
 23
39.5392150878906
 33
3
 0
3DFACE
 8
STL2DXF
 10
11
 20
39.8570518493652
 30
3
 11
11.414213180542
 21
39.5392150878906
 31
5
 12
11
 22
39.8570518493652
 32
5
 13
11
 23
39.8570518493652
 33
5
 0
3DFACE
 8
STL2DXF
 10
11.414213180542
 20
39.5392150878906
 30
5
 11
11
 21
39.8570518493652
 31
3
 12
11.414213180542
 22
39.5392150878906
 32
3
 13
11.414213180542
 23
39.5392150878906
 33
3
 0
3DFACE
 8
STL2DXF
 10
10.5176382064819
 20
40.0568504333496
 30
3
 11
11
 21
39.8570518493652
 31
5
 12
10.5176382064819
 22
40.0568504333496
 32
5
 13
10.5176382064819
 23
40.0568504333496
 33
5
 0
3DFACE
 8
STL2DXF
 10
11
 20
39.8570518493652
 30
5
 11
10.5176382064819
 21
40.0568504333496
 31
3
 12
11
 22
39.8570518493652
 32
3
 13
11
 23
39.8570518493652
 33
3
 0
3DFACE
 8
STL2DXF
 10
10
 20
40.125
 30
3
 11
10.5176382064819
 21
40.0568504333496
 31
5
 12
10
 22
40.125
 32
5
 13
10
 23
40.125
 33
5
 0
3DFACE
 8
STL2DXF
 10
10.5176382064819
 20
40.0568504333496
 30
5
 11
10
 21
40.125
 31
3
 12
10.5176382064819
 22
40.0568504333496
 32
3
 13
10.5176382064819
 23
40.0568504333496
 33
3
 0
3DFACE
 8
STL2DXF
 10
9.48236179351807
 20
40.0568504333496
 30
3
 11
10
 21
40.125
 31
5
 12
9.48236179351807
 22
40.0568504333496
 32
5
 13
9.48236179351807
 23
40.0568504333496
 33
5
 0
3DFACE
 8
STL2DXF
 10
10
 20
40.125
 30
5
 11
9.48236179351807
 21
40.0568504333496
 31
3
 12
10
 22
40.125
 32
3
 13
10
 23
40.125
 33
3
 0
3DFACE
 8
STL2DXF
 10
9
 20
39.8570518493652
 30
3
 11
9.48236179351807
 21
40.0568504333496
 31
5
 12
9
 22
39.8570518493652
 32
5
 13
9
 23
39.8570518493652
 33
5
 0
3DFACE
 8
STL2DXF
 10
9.48236179351807
 20
40.0568504333496
 30
5
 11
9
 21
39.8570518493652
 31
3
 12
9.48236179351807
 22
40.0568504333496
 32
3
 13
9.48236179351807
 23
40.0568504333496
 33
3
 0
3DFACE
 8
STL2DXF
 10
8.58578681945801
 20
39.5392150878906
 30
3
 11
9
 21
39.8570518493652
 31
5
 12
8.58578681945801
 22
39.5392150878906
 32
5
 13
8.58578681945801
 23
39.5392150878906
 33
5
 0
3DFACE
 8
STL2DXF
 10
9
 20
39.8570518493652
 30
5
 11
8.58578681945801
 21
39.5392150878906
 31
3
 12
9
 22
39.8570518493652
 32
3
 13
9
 23
39.8570518493652
 33
3
 0
3DFACE
 8
STL2DXF
 10
40.4500007629395
 20
63.125
 30
3.5527136788005E-14
 11
45.4500007629395
 21
63.125
 31
5
 12
40.4500007629395
 22
63.125
 32
5
 13
40.4500007629395
 23
63.125
 33
5
 0
3DFACE
 8
STL2DXF
 10
45.4500007629395
 20
63.125
 30
5
 11
40.4500007629395
 21
63.125
 31
3.5527136788005E-14
 12
45.4500007629395
 22
63.125
 32
4.08562073062058E-14
 13
45.4500007629395
 23
63.125
 33
4.08562073062058E-14
 0
3DFACE
 8
STL2DXF
 10
2
 20
63.125
 30
-8.88178419700125E-16
 11
7
 21
63.125
 31
5
 12
2
 22
63.125
 32
5
 13
2
 23
63.125
 33
5
 0
3DFACE
 8
STL2DXF
 10
7
 20
63.125
 30
5
 11
2
 21
63.125
 31
-8.88178419700125E-16
 12
7
 22
63.125
 32
4.44089209850063E-15
 13
7
 23
63.125
 33
4.44089209850063E-15
 0
3DFACE
 8
STL2DXF
 10
46.4500007629395
 20
66.25
 30
4.35207425653061E-14
 11
23.7250003814697
 21
66.25
 31
5
 12
46.4500007629395
 22
66.25
 32
5
 13
46.4500007629395
 23
66.25
 33
5
 0
3DFACE
 8
STL2DXF
 10
23.7250003814697
 20
66.25
 30
5
 11
46.4500007629395
 21
66.25
 31
4.35207425653061E-14
 12
23.7250003814697
 22
66.25
 32
2.39808173319034E-14
 13
23.7250003814697
 23
66.25
 33
2.39808173319034E-14
 0
3DFACE
 8
STL2DXF
 10
23.7250003814697
 20
66.25
 30
5
 11
2.1316282072803E-14
 21
85.25
 31
5.87747175411144E-39
 12
1.4210854715202E-14
 22
85.25
 32
5
 13
1.4210854715202E-14
 23
85.25
 33
5
 0
3DFACE
 8
STL2DXF
 10
2.1316282072803E-14
 20
85.25
 30
5.87747175411144E-39
 11
23.7250003814697
 21
66.25
 31
5
 12
23.7250003814697
 22
66.25
 32
2.39808173319034E-14
 13
23.7250003814697
 23
66.25
 33
2.39808173319034E-14
 0
3DFACE
 8
STL2DXF
 10
-30.6526317596436
 20
-19.9572238922119
 30
-2.93098878501041E-14
 11
-30
 21
-20
 31
5
 12
-30.6526317596436
 22
-19.9572238922119
 32
5
 13
-30.6526317596436
 23
-19.9572238922119
 33
5
 0
3DFACE
 8
STL2DXF
 10
-30
 20
-20
 30
5
 11
-30.6526317596436
 21
-19.9572238922119
 31
-2.93098878501041E-14
 12
-30
 22
-20
 32
-2.8421709430404E-14
 13
-30
 23
-20
 33
-2.8421709430404E-14
 0
3DFACE
 8
STL2DXF
 10
-31.294095993042
 20
-19.8296298980713
 30
-2.93098878501041E-14
 11
-30.6526317596436
 21
-19.9572238922119
 31
5
 12
-31.294095993042
 22
-19.8296298980713
 32
5
 13
-31.294095993042
 23
-19.8296298980713
 33
5
 0
3DFACE
 8
STL2DXF
 10
-30.6526317596436
 20
-19.9572238922119
 30
5
 11
-31.294095993042
 21
-19.8296298980713
 31
-2.93098878501041E-14
 12
-30.6526317596436
 22
-19.9572238922119
 32
-2.93098878501041E-14
 13
-30.6526317596436
 23
-19.9572238922119
 33
-2.93098878501041E-14
 0
3DFACE
 8
STL2DXF
 10
-31.9134178161621
 20
-19.6193981170654
 30
-3.10862446895044E-14
 11
-31.294095993042
 21
-19.8296298980713
 31
5
 12
-31.9134178161621
 22
-19.6193981170654
 32
5
 13
-31.9134178161621
 23
-19.6193981170654
 33
5
 0
3DFACE
 8
STL2DXF
 10
-31.294095993042
 20
-19.8296298980713
 30
5
 11
-31.9134178161621
 21
-19.6193981170654
 31
-3.10862446895044E-14
 12
-31.294095993042
 22
-19.8296298980713
 32
-2.93098878501041E-14
 13
-31.294095993042
 23
-19.8296298980713
 33
-2.93098878501041E-14
 0
3DFACE
 8
STL2DXF
 10
-32.5
 20
-19.3301277160645
 30
-3.10862446895044E-14
 11
-31.9134178161621
 21
-19.6193981170654
 31
5
 12
-32.5
 22
-19.3301277160645
 32
5
 13
-32.5
 23
-19.3301277160645
 33
5
 0
3DFACE
 8
STL2DXF
 10
-31.9134178161621
 20
-19.6193981170654
 30
5
 11
-32.5
 21
-19.3301277160645
 31
-3.10862446895044E-14
 12
-31.9134178161621
 22
-19.6193981170654
 32
-3.10862446895044E-14
 13
-31.9134178161621
 23
-19.6193981170654
 33
-3.10862446895044E-14
 0
3DFACE
 8
STL2DXF
 10
-33.0438079833984
 20
-18.9667663574219
 30
-3.10862446895044E-14
 11
-32.5
 21
-19.3301277160645
 31
5
 12
-33.0438079833984
 22
-18.9667663574219
 32
5
 13
-33.0438079833984
 23
-18.9667663574219
 33
5
 0
3DFACE
 8
STL2DXF
 10
-32.5
 20
-19.3301277160645
 30
5
 11
-33.0438079833984
 21
-18.9667663574219
 31
-3.10862446895044E-14
 12
-32.5
 22
-19.3301277160645
 32
-3.10862446895044E-14
 13
-32.5
 23
-19.3301277160645
 33
-3.10862446895044E-14
 0
3DFACE
 8
STL2DXF
 10
-33.5355339050293
 20
-18.5355339050293
 30
-3.19744231092045E-14
 11
-33.0438079833984
 21
-18.9667663574219
 31
5
 12
-33.5355339050293
 22
-18.5355339050293
 32
5
 13
-33.5355339050293
 23
-18.5355339050293
 33
5
 0
3DFACE
 8
STL2DXF
 10
-33.0438079833984
 20
-18.9667663574219
 30
5
 11
-33.5355339050293
 21
-18.5355339050293
 31
-3.19744231092045E-14
 12
-33.0438079833984
 22
-18.9667663574219
 32
-3.10862446895044E-14
 13
-33.0438079833984
 23
-18.9667663574219
 33
-3.10862446895044E-14
 0
3DFACE
 8
STL2DXF
 10
-33.9667663574219
 20
-18.0438079833984
 30
5
 11
-33.5355339050293
 21
-18.5355339050293
 31
-3.19744231092045E-14
 12
-33.5355339050293
 22
-18.5355339050293
 32
5
 13
-33.5355339050293
 23
-18.5355339050293
 33
5
 0
3DFACE
 8
STL2DXF
 10
-33.5355339050293
 20
-18.5355339050293
 30
-3.19744231092045E-14
 11
-33.9667663574219
 21
-18.0438079833984
 31
5
 12
-33.9667663574219
 22
-18.0438079833984
 32
-3.28626015289046E-14
 13
-33.9667663574219
 23
-18.0438079833984
 33
-3.28626015289046E-14
 0
3DFACE
 8
STL2DXF
 10
-34.3301277160645
 20
-17.5
 30
5
 11
-33.9667663574219
 21
-18.0438079833984
 31
-3.28626015289046E-14
 12
-33.9667663574219
 22
-18.0438079833984
 32
5
 13
-33.9667663574219
 23
-18.0438079833984
 33
5
 0
3DFACE
 8
STL2DXF
 10
-33.9667663574219
 20
-18.0438079833984
 30
-3.28626015289046E-14
 11
-34.3301277160645
 21
-17.5
 31
5
 12
-34.3301277160645
 22
-17.5
 32
-3.19744231092045E-14
 13
-34.3301277160645
 23
-17.5
 33
-3.19744231092045E-14
 0
3DFACE
 8
STL2DXF
 10
-34.6193962097168
 20
-16.9134178161621
 30
5
 11
-34.3301277160645
 21
-17.5
 31
-3.19744231092045E-14
 12
-34.3301277160645
 22
-17.5
 32
5
 13
-34.3301277160645
 23
-17.5
 33
5
 0
3DFACE
 8
STL2DXF
 10
-34.3301277160645
 20
-17.5
 30
-3.19744231092045E-14
 11
-34.6193962097168
 21
-16.9134178161621
 31
5
 12
-34.6193962097168
 22
-16.9134178161621
 32
-3.28626015289046E-14
 13
-34.6193962097168
 23
-16.9134178161621
 33
-3.28626015289046E-14
 0
3DFACE
 8
STL2DXF
 10
-34.8296279907227
 20
-16.294095993042
 30
5
 11
-34.6193962097168
 21
-16.9134178161621
 31
-3.28626015289046E-14
 12
-34.6193962097168
 22
-16.9134178161621
 32
5
 13
-34.6193962097168
 23
-16.9134178161621
 33
5
 0
3DFACE
 8
STL2DXF
 10
-34.6193962097168
 20
-16.9134178161621
 30
-3.28626015289046E-14
 11
-34.8296279907227
 21
-16.294095993042
 31
5
 12
-34.8296279907227
 22
-16.294095993042
 32
-3.19744231092045E-14
 13
-34.8296279907227
 23
-16.294095993042
 33
-3.19744231092045E-14
 0
3DFACE
 8
STL2DXF
 10
-34.9572257995605
 20
-15.6526308059692
 30
5
 11
-34.8296279907227
 21
-16.294095993042
 31
-3.19744231092045E-14
 12
-34.8296279907227
 22
-16.294095993042
 32
5
 13
-34.8296279907227
 23
-16.294095993042
 33
5
 0
3DFACE
 8
STL2DXF
 10
-34.8296279907227
 20
-16.294095993042
 30
-3.19744231092045E-14
 11
-34.9572257995605
 21
-15.6526308059692
 31
5
 12
-34.9572257995605
 22
-15.6526308059692
 32
-3.37507799486048E-14
 13
-34.9572257995605
 23
-15.6526308059692
 33
-3.37507799486048E-14
 0
3DFACE
 8
STL2DXF
 10
-35
 20
-15
 30
5
 11
-34.9572257995605
 21
-15.6526308059692
 31
-3.37507799486048E-14
 12
-34.9572257995605
 22
-15.6526308059692
 32
5
 13
-34.9572257995605
 23
-15.6526308059692
 33
5
 0
3DFACE
 8
STL2DXF
 10
-34.9572257995605
 20
-15.6526308059692
 30
-3.37507799486048E-14
 11
-35
 21
-15
 31
5
 12
-35
 22
-15
 32
-3.37507799486048E-14
 13
-35
 23
-15
 33
-3.37507799486048E-14
 0
3DFACE
 8
STL2DXF
 10
-34.9572257995605
 20
80.9026336669922
 30
5
 11
-35
 21
80.25
 31
-3.28626015289046E-14
 12
-35
 22
80.25
 32
5
 13
-35
 23
80.25
 33
5
 0
3DFACE
 8
STL2DXF
 10
-35
 20
80.25
 30
-3.28626015289046E-14
 11
-34.9572257995605
 21
80.9026336669922
 31
5
 12
-34.9572257995605
 22
80.9026336669922
 32
-3.28626015289046E-14
 13
-34.9572257995605
 23
80.9026336669922
 33
-3.28626015289046E-14
 0
3DFACE
 8
STL2DXF
 10
-34.8296279907227
 20
81.5440979003906
 30
5
 11
-34.9572257995605
 21
80.9026336669922
 31
-3.28626015289046E-14
 12
-34.9572257995605
 22
80.9026336669922
 32
5
 13
-34.9572257995605
 23
80.9026336669922
 33
5
 0
3DFACE
 8
STL2DXF
 10
-34.9572257995605
 20
80.9026336669922
 30
-3.28626015289046E-14
 11
-34.8296279907227
 21
81.5440979003906
 31
5
 12
-34.8296279907227
 22
81.5440979003906
 32
-3.28626015289046E-14
 13
-34.8296279907227
 23
81.5440979003906
 33
-3.28626015289046E-14
 0
3DFACE
 8
STL2DXF
 10
-34.6193962097168
 20
82.1634140014648
 30
5
 11
-34.8296279907227
 21
81.5440979003906
 31
-3.28626015289046E-14
 12
-34.8296279907227
 22
81.5440979003906
 32
5
 13
-34.8296279907227
 23
81.5440979003906
 33
5
 0
3DFACE
 8
STL2DXF
 10
-34.8296279907227
 20
81.5440979003906
 30
-3.28626015289046E-14
 11
-34.6193962097168
 21
82.1634140014648
 31
5
 12
-34.6193962097168
 22
82.1634140014648
 32
-3.19744231092045E-14
 13
-34.6193962097168
 23
82.1634140014648
 33
-3.19744231092045E-14
 0
3DFACE
 8
STL2DXF
 10
-34.3301277160645
 20
82.75
 30
5
 11
-34.6193962097168
 21
82.1634140014648
 31
-3.19744231092045E-14
 12
-34.6193962097168
 22
82.1634140014648
 32
5
 13
-34.6193962097168
 23
82.1634140014648
 33
5
 0
3DFACE
 8
STL2DXF
 10
-34.6193962097168
 20
82.1634140014648
 30
-3.19744231092045E-14
 11
-34.3301277160645
 21
82.75
 31
5
 12
-34.3301277160645
 22
82.75
 32
-3.19744231092045E-14
 13
-34.3301277160645
 23
82.75
 33
-3.19744231092045E-14
 0
3DFACE
 8
STL2DXF
 10
-33.9667663574219
 20
83.2938079833984
 30
5
 11
-34.3301277160645
 21
82.75
 31
-3.19744231092045E-14
 12
-34.3301277160645
 22
82.75
 32
5
 13
-34.3301277160645
 23
82.75
 33
5
 0
3DFACE
 8
STL2DXF
 10
-34.3301277160645
 20
82.75
 30
-3.19744231092045E-14
 11
-33.9667663574219
 21
83.2938079833984
 31
5
 12
-33.9667663574219
 22
83.2938079833984
 32
-3.19744231092045E-14
 13
-33.9667663574219
 23
83.2938079833984
 33
-3.19744231092045E-14
 0
3DFACE
 8
STL2DXF
 10
-33.5355339050293
 20
83.7855377197266
 30
5
 11
-33.9667663574219
 21
83.2938079833984
 31
-3.19744231092045E-14
 12
-33.9667663574219
 22
83.2938079833984
 32
5
 13
-33.9667663574219
 23
83.2938079833984
 33
5
 0
3DFACE
 8
STL2DXF
 10
-33.9667663574219
 20
83.2938079833984
 30
-3.19744231092045E-14
 11
-33.5355339050293
 21
83.7855377197266
 31
5
 12
-33.5355339050293
 22
83.7855377197266
 32
-3.10862446895044E-14
 13
-33.5355339050293
 23
83.7855377197266
 33
-3.10862446895044E-14
 0
3DFACE
 8
STL2DXF
 10
-33.0438079833984
 20
84.2167663574219
 30
-3.10862446895044E-14
 11
-33.5355339050293
 21
83.7855377197266
 31
5
 12
-33.0438079833984
 22
84.2167663574219
 32
5
 13
-33.0438079833984
 23
84.2167663574219
 33
5
 0
3DFACE
 8
STL2DXF
 10
-33.5355339050293
 20
83.7855377197266
 30
5
 11
-33.0438079833984
 21
84.2167663574219
 31
-3.10862446895044E-14
 12
-33.5355339050293
 22
83.7855377197266
 32
-3.10862446895044E-14
 13
-33.5355339050293
 23
83.7855377197266
 33
-3.10862446895044E-14
 0
3DFACE
 8
STL2DXF
 10
-32.5
 20
84.5801239013672
 30
-3.01980662698043E-14
 11
-33.0438079833984
 21
84.2167663574219
 31
5
 12
-32.5
 22
84.5801239013672
 32
5
 13
-32.5
 23
84.5801239013672
 33
5
 0
3DFACE
 8
STL2DXF
 10
-33.0438079833984
 20
84.2167663574219
 30
5
 11
-32.5
 21
84.5801239013672
 31
-3.01980662698043E-14
 12
-33.0438079833984
 22
84.2167663574219
 32
-3.10862446895044E-14
 13
-33.0438079833984
 23
84.2167663574219
 33
-3.10862446895044E-14
 0
3DFACE
 8
STL2DXF
 10
-31.9134178161621
 20
84.8694000244141
 30
-2.93098878501041E-14
 11
-32.5
 21
84.5801239013672
 31
5
 12
-31.9134178161621
 22
84.8694000244141
 32
5
 13
-31.9134178161621
 23
84.8694000244141
 33
5
 0
3DFACE
 8
STL2DXF
 10
-32.5
 20
84.5801239013672
 30
5
 11
-31.9134178161621
 21
84.8694000244141
 31
-2.93098878501041E-14
 12
-32.5
 22
84.5801239013672
 32
-3.01980662698043E-14
 13
-32.5
 23
84.5801239013672
 33
-3.01980662698043E-14
 0
3DFACE
 8
STL2DXF
 10
-31.294095993042
 20
85.0796279907227
 30
-2.93098878501041E-14
 11
-31.9134178161621
 21
84.8694000244141
 31
5
 12
-31.294095993042
 22
85.0796279907227
 32
5
 13
-31.294095993042
 23
85.0796279907227
 33
5
 0
3DFACE
 8
STL2DXF
 10
-31.9134178161621
 20
84.8694000244141
 30
5
 11
-31.294095993042
 21
85.0796279907227
 31
-2.93098878501041E-14
 12
-31.9134178161621
 22
84.8694000244141
 32
-2.93098878501041E-14
 13
-31.9134178161621
 23
84.8694000244141
 33
-2.93098878501041E-14
 0
3DFACE
 8
STL2DXF
 10
-30.6526317596436
 20
85.2072219848633
 30
-2.8421709430404E-14
 11
-31.294095993042
 21
85.0796279907227
 31
5
 12
-30.6526317596436
 22
85.2072219848633
 32
5
 13
-30.6526317596436
 23
85.2072219848633
 33
5
 0
3DFACE
 8
STL2DXF
 10
-31.294095993042
 20
85.0796279907227
 30
5
 11
-30.6526317596436
 21
85.2072219848633
 31
-2.8421709430404E-14
 12
-31.294095993042
 22
85.0796279907227
 32
-2.93098878501041E-14
 13
-31.294095993042
 23
85.0796279907227
 33
-2.93098878501041E-14
 0
3DFACE
 8
STL2DXF
 10
-30
 20
85.25
 30
-2.75335310107039E-14
 11
-30.6526317596436
 21
85.2072219848633
 31
5
 12
-30
 22
85.25
 32
5
 13
-30
 23
85.25
 33
5
 0
3DFACE
 8
STL2DXF
 10
-30.6526317596436
 20
85.2072219848633
 30
5
 11
-30
 21
85.25
 31
-2.75335310107039E-14
 12
-30.6526317596436
 22
85.2072219848633
 32
-2.8421709430404E-14
 13
-30.6526317596436
 23
85.2072219848633
 33
-2.8421709430404E-14
 0
3DFACE
 8
STL2DXF
 10
10.3397188186646
 20
71.1102828979492
 30
4
 11
21.8250007629395
 21
59.625
 31
1
 12
21.8250007629395
 22
59.625
 32
4
 13
21.8250007629395
 23
59.625
 33
4
 0
3DFACE
 8
STL2DXF
 10
21.8250007629395
 20
59.625
 30
1
 11
10.3397188186646
 21
71.1102828979492
 31
4
 12
10.3397188186646
 22
71.1102828979492
 32
1
 13
10.3397188186646
 23
71.1102828979492
 33
1
 0
3DFACE
 8
STL2DXF
 10
21.8250007629395
 20
59.625
 30
4
 11
26.8250007629395
 21
59.625
 31
1
 12
26.8250007629395
 22
59.625
 32
4
 13
26.8250007629395
 23
59.625
 33
4
 0
3DFACE
 8
STL2DXF
 10
26.8250007629395
 20
59.625
 30
1
 11
21.8250007629395
 21
59.625
 31
4
 12
21.8250007629395
 22
59.625
 32
1
 13
21.8250007629395
 23
59.625
 33
1
 0
3DFACE
 8
STL2DXF
 10
26.8250007629395
 20
56.625
 30
1
 11
20.5823593139648
 21
56.625
 31
4
 12
26.8250007629395
 22
56.625
 32
4
 13
26.8250007629395
 23
56.625
 33
4
 0
3DFACE
 8
STL2DXF
 10
20.5823593139648
 20
56.625
 30
4
 11
26.8250007629395
 21
56.625
 31
1
 12
20.5823593139648
 22
56.625
 32
1
 13
20.5823593139648
 23
56.625
 33
1
 0
3DFACE
 8
STL2DXF
 10
9.09707832336426
 20
68.1102828979492
 30
1
 11
20.5823593139648
 21
56.625
 31
4
 12
20.5823593139648
 22
56.625
 32
1
 13
20.5823593139648
 23
56.625
 33
1
 0
3DFACE
 8
STL2DXF
 10
20.5823593139648
 20
56.625
 30
4
 11
9.09707832336426
 21
68.1102828979492
 31
1
 12
9.09707832336426
 22
68.1102828979492
 32
4
 13
9.09707832336426
 23
68.1102828979492
 33
4
 0
3DFACE
 8
STL2DXF
 10
-15.0129222869873
 20
69.587646484375
 30
5
 11
-15.0129222869873
 21
62.6102828979492
 31
1
 12
-15.0129222869873
 22
62.6102828979492
 32
5
 13
-15.0129222869873
 23
62.6102828979492
 33
5
 0
3DFACE
 8
STL2DXF
 10
-15.0129222869873
 20
62.6102828979492
 30
1
 11
-15.0129222869873
 21
69.587646484375
 31
5
 12
-15.0129222869873
 22
68.1102828979492
 32
4
 13
-15.0129222869873
 23
68.1102828979492
 33
4
 0
3DFACE
 8
STL2DXF
 10
-15.0129222869873
 20
68.1102828979492
 30
4
 11
-15.0129222869873
 21
69.587646484375
 31
5
 12
-15.0129222869873
 22
69.587646484375
 32
4
 13
-15.0129222869873
 23
69.587646484375
 33
4
 0
3DFACE
 8
STL2DXF
 10
-15.0129222869873
 20
68.1102828979492
 30
1
 11
-15.0129222869873
 21
62.6102828979492
 31
1
 12
-15.0129222869873
 22
68.1102828979492
 32
4
 13
-15.0129222869873
 23
68.1102828979492
 33
4
 0
3DFACE
 8
STL2DXF
 10
-14.5536432266235
 20
35.9923439025879
 30
5
 11
-15.0129222869873
 21
62.6102828979492
 31
5
 12
-16.4492092132568
 22
35.5721054077148
 32
5
 13
-16.4492092132568
 23
35.5721054077148
 33
5
 0
3DFACE
 8
STL2DXF
 10
-15.0129222869873
 20
62.6102828979492
 30
5
 11
-14.5536432266235
 21
35.9923439025879
 31
5
 12
-15.0129222869873
 22
69.587646484375
 32
5
 13
-15.0129222869873
 23
69.587646484375
 33
5
 0
3DFACE
 8
STL2DXF
 10
-16.4492092132568
 20
35.5721054077148
 30
5
 11
-15.0129222869873
 21
62.6102828979492
 31
5
 12
-19.3549995422363
 22
62.6102828979492
 32
5
 13
-19.3549995422363
 23
62.6102828979492
 33
5
 0
3DFACE
 8
STL2DXF
 10
-16.4492092132568
 20
35.5721054077148
 30
5
 11
-19.3549995422363
 21
62.6102828979492
 31
5
 12
-16.4954109191895
 22
35.5297698974609
 32
5
 13
-16.4954109191895
 23
35.5297698974609
 33
5
 0
3DFACE
 8
STL2DXF
 10
-16.4954109191895
 20
35.5297698974609
 30
5
 11
-19.3549995422363
 21
62.6102828979492
 31
5
 12
-17.8806991577148
 22
34.2603874206543
 32
5
 13
-17.8806991577148
 23
34.2603874206543
 33
5
 0
3DFACE
 8
STL2DXF
 10
-17.8806991577148
 20
34.2603874206543
 30
5
 11
-19.3549995422363
 21
62.6102828979492
 31
5
 12
-18.4645462036133
 22
32.4086608886719
 32
5
 13
-18.4645462036133
 23
32.4086608886719
 33
5
 0
3DFACE
 8
STL2DXF
 10
23.7250003814697
 20
-7.70651412422465E-15
 30
5
 11
11.7320508956909
 21
7.125
 31
5
 12
7.105427357601E-15
 22
-20
 32
5
 13
7.105427357601E-15
 23
-20
 33
5
 0
3DFACE
 8
STL2DXF
 10
11.7320508956909
 20
7.125
 30
5
 11
23.7250003814697
 21
-7.70651412422465E-15
 31
5
 12
11.9318513870239
 22
7.60736179351807
 32
5
 13
11.9318513870239
 23
7.60736179351807
 33
5
 0
3DFACE
 8
STL2DXF
 10
11.9318513870239
 20
7.60736179351807
 30
5
 11
23.7250003814697
 21
-7.70651412422465E-15
 31
5
 12
12
 22
8.125
 32
5
 13
12
 23
8.125
 33
5
 0
3DFACE
 8
STL2DXF
 10
12
 20
8.125
 30
5
 11
23.7250003814697
 21
-7.70651412422465E-15
 31
5
 12
12
 22
38.125
 32
5
 13
12
 23
38.125
 33
5
 0
3DFACE
 8
STL2DXF
 10
7.105427357601E-15
 20
-20
 30
5
 11
11.7320508956909
 21
7.125
 31
5
 12
11.414213180542
 22
6.71078634262085
 32
5
 13
11.414213180542
 23
6.71078634262085
 33
5
 0
3DFACE
 8
STL2DXF
 10
7.105427357601E-15
 20
-20
 30
5
 11
11.414213180542
 21
6.71078634262085
 31
5
 12
11
 22
6.39294910430908
 32
5
 13
11
 23
6.39294910430908
 33
5
 0
3DFACE
 8
STL2DXF
 10
7.105427357601E-15
 20
-20
 30
5
 11
11
 21
6.39294910430908
 31
5
 12
10.5176382064819
 22
6.19314813613892
 32
5
 13
10.5176382064819
 23
6.19314813613892
 33
5
 0
3DFACE
 8
STL2DXF
 10
7.105427357601E-15
 20
-20
 30
5
 11
10.5176382064819
 21
6.19314813613892
 31
5
 12
10
 22
6.125
 32
5
 13
10
 23
6.125
 33
5
 0
3DFACE
 8
STL2DXF
 10
7.105427357601E-15
 20
-20
 30
5
 11
10
 21
6.125
 31
5
 12
9.48236179351807
 22
6.19314813613892
 32
5
 13
9.48236179351807
 23
6.19314813613892
 33
5
 0
3DFACE
 8
STL2DXF
 10
7.105427357601E-15
 20
-20
 30
5
 11
9.48236179351807
 21
6.19314813613892
 31
5
 12
9
 22
6.39294910430908
 32
5
 13
9
 23
6.39294910430908
 33
5
 0
3DFACE
 8
STL2DXF
 10
7.105427357601E-15
 20
-20
 30
5
 11
9
 21
6.39294910430908
 31
5
 12
8.58578681945801
 22
6.71078634262085
 32
5
 13
8.58578681945801
 23
6.71078634262085
 33
5
 0
3DFACE
 8
STL2DXF
 10
7.105427357601E-15
 20
-20
 30
5
 11
8.58578681945801
 21
6.71078634262085
 31
5
 12
8.26794910430908
 22
7.125
 32
5
 13
8.26794910430908
 23
7.125
 33
5
 0
3DFACE
 8
STL2DXF
 10
7.105427357601E-15
 20
-20
 30
5
 11
8.26794910430908
 21
7.125
 31
5
 12
7
 22
3.125
 32
5
 13
7
 23
3.125
 33
5
 0
3DFACE
 8
STL2DXF
 10
7
 20
3.125
 30
5
 11
8.26794910430908
 21
7.125
 31
5
 12
8.06814861297607
 22
7.60736179351807
 32
5
 13
8.06814861297607
 23
7.60736179351807
 33
5
 0
3DFACE
 8
STL2DXF
 10
7
 20
3.125
 30
5
 11
8.06814861297607
 21
7.60736179351807
 31
5
 12
8
 22
8.125
 32
5
 13
8
 23
8.125
 33
5
 0
3DFACE
 8
STL2DXF
 10
7
 20
3.125
 30
5
 11
8
 21
8.125
 31
5
 12
7
 22
63.125
 32
5
 13
7
 23
63.125
 33
5
 0
3DFACE
 8
STL2DXF
 10
7.105427357601E-15
 20
-20
 30
5
 11
7
 21
3.125
 31
5
 12
2
 22
3.125
 32
5
 13
2
 23
3.125
 33
5
 0
3DFACE
 8
STL2DXF
 10
7.105427357601E-15
 20
-20
 30
5
 11
2
 21
3.125
 31
5
 12
1.4210854715202E-14
 22
85.25
 32
5
 13
1.4210854715202E-14
 23
85.25
 33
5
 0
3DFACE
 8
STL2DXF
 10
7.105427357601E-15
 20
-20
 30
5
 11
1.4210854715202E-14
 21
85.25
 31
5
 12
-15.0129222869873
 22
69.587646484375
 32
5
 13
-15.0129222869873
 23
69.587646484375
 33
5
 0
3DFACE
 8
STL2DXF
 10
-15.0129222869873
 20
69.587646484375
 30
5
 11
1.4210854715202E-14
 21
85.25
 31
5
 12
-16.3587322235107
 22
74.6102828979492
 32
5
 13
-16.3587322235107
 23
74.6102828979492
 33
5
 0
3DFACE
 8
STL2DXF
 10
-16.3587322235107
 20
74.6102828979492
 30
5
 11
1.4210854715202E-14
 21
85.25
 31
5
 12
-30
 22
85.25
 32
5
 13
-30
 23
85.25
 33
5
 0
3DFACE
 8
STL2DXF
 10
7.105427357601E-15
 20
-20
 30
5
 11
-15.0129222869873
 21
69.587646484375
 31
5
 12
-10.9645471572876
 22
32.0814399719238
 32
5
 13
-10.9645471572876
 23
32.0814399719238
 33
5
 0
3DFACE
 8
STL2DXF
 10
-10.9645471572876
 20
32.0814399719238
 30
5
 11
-15.0129222869873
 21
69.587646484375
 31
5
 12
-11.3901977539063
 22
33.9770050048828
 32
5
 13
-11.3901977539063
 23
33.9770050048828
 33
5
 0
3DFACE
 8
STL2DXF
 10
-11.3901977539063
 20
33.9770050048828
 30
5
 11
-15.0129222869873
 21
69.587646484375
 31
5
 12
-12.7019166946411
 22
35.4084968566895
 32
5
 13
-12.7019166946411
 23
35.4084968566895
 33
5
 0
3DFACE
 8
STL2DXF
 10
-12.7019166946411
 20
35.4084968566895
 30
5
 11
-15.0129222869873
 21
69.587646484375
 31
5
 12
-13.0865516662598
 22
35.5297698974609
 32
5
 13
-13.0865516662598
 23
35.5297698974609
 33
5
 0
3DFACE
 8
STL2DXF
 10
-13.0865516662598
 20
35.5297698974609
 30
5
 11
-15.0129222869873
 21
69.587646484375
 31
5
 12
-14.5536432266235
 22
35.9923439025879
 32
5
 13
-14.5536432266235
 23
35.9923439025879
 33
5
 0
3DFACE
 8
STL2DXF
 10
-16.3587322235107
 20
74.6102828979492
 30
5
 11
-30
 21
85.25
 31
5
 12
-21.5129222869873
 22
74.6102828979492
 32
5
 13
-21.5129222869873
 23
74.6102828979492
 33
5
 0
3DFACE
 8
STL2DXF
 10
-21.5129222869873
 20
74.6102828979492
 30
5
 11
-30
 21
85.25
 31
5
 12
-21.5129222869873
 22
70.6637573242188
 32
5
 13
-21.5129222869873
 23
70.6637573242188
 33
5
 0
3DFACE
 8
STL2DXF
 10
-21.5129222869873
 20
70.6637573242188
 30
5
 11
-30
 21
85.25
 31
5
 12
-22.7988967895508
 22
1.49718379974365
 32
5
 13
-22.7988967895508
 23
1.49718379974365
 33
5
 0
3DFACE
 8
STL2DXF
 10
-22.7988967895508
 20
1.49718379974365
 30
5
 11
-30
 21
85.25
 31
5
 12
-23.9635829925537
 22
-2.84948229789734
 32
5
 13
-23.9635829925537
 23
-2.84948229789734
 33
5
 0
3DFACE
 8
STL2DXF
 10
-23.9635829925537
 20
-2.84948229789734
 30
5
 11
-30
 21
85.25
 31
5
 12
-23.9635829925537
 22
-7.50822496414185
 32
5
 13
-23.9635829925537
 23
-7.50822496414185
 33
5
 0
3DFACE
 8
STL2DXF
 10
7.105427357601E-15
 20
-20
 30
5
 11
-15.4690093994141
 21
-9.78433895111084
 31
5
 12
-30
 22
-20
 32
5
 13
-30
 23
-20
 33
5
 0
3DFACE
 8
STL2DXF
 10
-15.4690093994141
 20
-9.78433895111084
 30
5
 11
7.105427357601E-15
 21
-20
 31
5
 12
-13.4635820388794
 22
-2.29998183250427
 32
5
 13
-13.4635820388794
 23
-2.29998183250427
 33
5
 0
3DFACE
 8
STL2DXF
 10
-13.4635820388794
 20
-2.29998183250427
 30
5
 11
7.105427357601E-15
 21
-20
 31
5
 12
-10.9645471572876
 22
32.0814399719238
 32
5
 13
-10.9645471572876
 23
32.0814399719238
 33
5
 0
3DFACE
 8
STL2DXF
 10
-13.4635820388794
 20
-2.29998183250427
 30
5
 11
-10.9645471572876
 21
32.0814399719238
 31
5
 12
-11.5538082122803
 22
30.2297134399414
 32
5
 13
-11.5538082122803
 23
30.2297134399414
 33
5
 0
3DFACE
 8
STL2DXF
 10
-13.4635820388794
 20
-2.29998183250427
 30
5
 11
-11.5538082122803
 21
30.2297134399414
 31
5
 12
-12.8256645202637
 22
29.0297698974609
 32
5
 13
-12.8256645202637
 23
29.0297698974609
 33
5
 0
3DFACE
 8
STL2DXF
 10
-30
 20
-20
 30
5
 11
-15.4690093994141
 21
-9.78433895111084
 31
5
 12
-23.9635829925537
 22
-7.50822496414185
 32
5
 13
-23.9635829925537
 23
-7.50822496414185
 33
5
 0
3DFACE
 8
STL2DXF
 10
-30
 20
-20
 30
5
 11
-23.9635829925537
 21
-7.50822496414185
 31
5
 12
-30
 22
85.25
 32
5
 13
-30
 23
85.25
 33
5
 0
3DFACE
 8
STL2DXF
 10
-30
 20
-20
 30
5
 11
-30
 21
85.25
 31
5
 12
-30.6526317596436
 22
85.2072219848633
 32
5
 13
-30.6526317596436
 23
85.2072219848633
 33
5
 0
3DFACE
 8
STL2DXF
 10
-30
 20
-20
 30
5
 11
-30.6526317596436
 21
85.2072219848633
 31
5
 12
-30.6526317596436
 22
-19.9572238922119
 32
5
 13
-30.6526317596436
 23
-19.9572238922119
 33
5
 0
3DFACE
 8
STL2DXF
 10
-30.6526317596436
 20
-19.9572238922119
 30
5
 11
-30.6526317596436
 21
85.2072219848633
 31
5
 12
-31.294095993042
 22
85.0796279907227
 32
5
 13
-31.294095993042
 23
85.0796279907227
 33
5
 0
3DFACE
 8
STL2DXF
 10
-30.6526317596436
 20
-19.9572238922119
 30
5
 11
-31.294095993042
 21
85.0796279907227
 31
5
 12
-31.294095993042
 22
-19.8296298980713
 32
5
 13
-31.294095993042
 23
-19.8296298980713
 33
5
 0
3DFACE
 8
STL2DXF
 10
-31.294095993042
 20
-19.8296298980713
 30
5
 11
-31.294095993042
 21
85.0796279907227
 31
5
 12
-31.9134178161621
 22
84.8694000244141
 32
5
 13
-31.9134178161621
 23
84.8694000244141
 33
5
 0
3DFACE
 8
STL2DXF
 10
-31.294095993042
 20
-19.8296298980713
 30
5
 11
-31.9134178161621
 21
84.8694000244141
 31
5
 12
-31.9134178161621
 22
-19.6193981170654
 32
5
 13
-31.9134178161621
 23
-19.6193981170654
 33
5
 0
3DFACE
 8
STL2DXF
 10
-31.9134178161621
 20
-19.6193981170654
 30
5
 11
-31.9134178161621
 21
84.8694000244141
 31
5
 12
-32.5
 22
-19.3301277160645
 32
5
 13
-32.5
 23
-19.3301277160645
 33
5
 0
3DFACE
 8
STL2DXF
 10
-32.5
 20
-19.3301277160645
 30
5
 11
-31.9134178161621
 21
84.8694000244141
 31
5
 12
-32.5
 22
84.5801239013672
 32
5
 13
-32.5
 23
84.5801239013672
 33
5
 0
3DFACE
 8
STL2DXF
 10
-32.5
 20
-19.3301277160645
 30
5
 11
-32.5
 21
84.5801239013672
 31
5
 12
-33.0438079833984
 22
-18.9667663574219
 32
5
 13
-33.0438079833984
 23
-18.9667663574219
 33
5
 0
3DFACE
 8
STL2DXF
 10
-33.0438079833984
 20
-18.9667663574219
 30
5
 11
-32.5
 21
84.5801239013672
 31
5
 12
-33.0438079833984
 22
84.2167663574219
 32
5
 13
-33.0438079833984
 23
84.2167663574219
 33
5
 0
3DFACE
 8
STL2DXF
 10
-33.0438079833984
 20
-18.9667663574219
 30
5
 11
-33.0438079833984
 21
84.2167663574219
 31
5
 12
-33.5355339050293
 22
83.7855377197266
 32
5
 13
-33.5355339050293
 23
83.7855377197266
 33
5
 0
3DFACE
 8
STL2DXF
 10
-33.0438079833984
 20
-18.9667663574219
 30
5
 11
-33.5355339050293
 21
83.7855377197266
 31
5
 12
-33.5355339050293
 22
-18.5355339050293
 32
5
 13
-33.5355339050293
 23
-18.5355339050293
 33
5
 0
3DFACE
 8
STL2DXF
 10
-33.5355339050293
 20
-18.5355339050293
 30
5
 11
-33.5355339050293
 21
83.7855377197266
 31
5
 12
-33.9667663574219
 22
-18.0438079833984
 32
5
 13
-33.9667663574219
 23
-18.0438079833984
 33
5
 0
3DFACE
 8
STL2DXF
 10
-33.9667663574219
 20
-18.0438079833984
 30
5
 11
-33.5355339050293
 21
83.7855377197266
 31
5
 12
-33.9667663574219
 22
83.2938079833984
 32
5
 13
-33.9667663574219
 23
83.2938079833984
 33
5
 0
3DFACE
 8
STL2DXF
 10
-33.9667663574219
 20
-18.0438079833984
 30
5
 11
-33.9667663574219
 21
83.2938079833984
 31
5
 12
-34.3301277160645
 22
82.75
 32
5
 13
-34.3301277160645
 23
82.75
 33
5
 0
3DFACE
 8
STL2DXF
 10
-33.9667663574219
 20
-18.0438079833984
 30
5
 11
-34.3301277160645
 21
82.75
 31
5
 12
-34.3301277160645
 22
-17.5
 32
5
 13
-34.3301277160645
 23
-17.5
 33
5
 0
3DFACE
 8
STL2DXF
 10
-34.3301277160645
 20
-17.5
 30
5
 11
-34.3301277160645
 21
82.75
 31
5
 12
-34.6193962097168
 22
82.1634140014648
 32
5
 13
-34.6193962097168
 23
82.1634140014648
 33
5
 0
3DFACE
 8
STL2DXF
 10
-34.3301277160645
 20
-17.5
 30
5
 11
-34.6193962097168
 21
82.1634140014648
 31
5
 12
-34.6193962097168
 22
-16.9134178161621
 32
5
 13
-34.6193962097168
 23
-16.9134178161621
 33
5
 0
3DFACE
 8
STL2DXF
 10
-34.6193962097168
 20
-16.9134178161621
 30
5
 11
-34.6193962097168
 21
82.1634140014648
 31
5
 12
-34.8296279907227
 22
81.5440979003906
 32
5
 13
-34.8296279907227
 23
81.5440979003906
 33
5
 0
3DFACE
 8
STL2DXF
 10
-34.6193962097168
 20
-16.9134178161621
 30
5
 11
-34.8296279907227
 21
81.5440979003906
 31
5
 12
-34.8296279907227
 22
-16.294095993042
 32
5
 13
-34.8296279907227
 23
-16.294095993042
 33
5
 0
3DFACE
 8
STL2DXF
 10
-34.8296279907227
 20
-16.294095993042
 30
5
 11
-34.8296279907227
 21
81.5440979003906
 31
5
 12
-34.9572257995605
 22
80.9026336669922
 32
5
 13
-34.9572257995605
 23
80.9026336669922
 33
5
 0
3DFACE
 8
STL2DXF
 10
-34.8296279907227
 20
-16.294095993042
 30
5
 11
-34.9572257995605
 21
80.9026336669922
 31
5
 12
-34.9572257995605
 22
-15.6526308059692
 32
5
 13
-34.9572257995605
 23
-15.6526308059692
 33
5
 0
3DFACE
 8
STL2DXF
 10
-34.9572257995605
 20
-15.6526308059692
 30
5
 11
-34.9572257995605
 21
80.9026336669922
 31
5
 12
-35
 22
-15
 32
5
 13
-35
 23
-15
 33
5
 0
3DFACE
 8
STL2DXF
 10
-35
 20
-15
 30
5
 11
-34.9572257995605
 21
80.9026336669922
 31
5
 12
-35
 22
80.25
 32
5
 13
-35
 23
80.25
 33
5
 0
3DFACE
 8
STL2DXF
 10
-12.8256645202637
 20
29.0297698974609
 30
5
 11
-13.4635820388794
 21
-1.00420606136322
 31
5
 12
-13.4635820388794
 22
-2.29998183250427
 32
5
 13
-13.4635820388794
 23
-2.29998183250427
 33
5
 0
3DFACE
 8
STL2DXF
 10
-13.4635820388794
 20
-1.00420606136322
 30
5
 11
-12.8256645202637
 21
29.0297698974609
 31
5
 12
-16.6214332580566
 22
29.0297698974609
 32
5
 13
-16.6214332580566
 23
29.0297698974609
 33
5
 0
3DFACE
 8
STL2DXF
 10
-13.4635820388794
 20
-1.00420606136322
 30
5
 11
-16.6214332580566
 21
29.0297698974609
 31
5
 12
-22.7988967895508
 22
1.49718379974365
 32
5
 13
-22.7988967895508
 23
1.49718379974365
 33
5
 0
3DFACE
 8
STL2DXF
 10
-22.7988967895508
 20
1.49718379974365
 30
5
 11
-16.6214332580566
 21
29.0297698974609
 31
5
 12
-18.0443096160889
 22
30.5130939483643
 32
5
 13
-18.0443096160889
 23
30.5130939483643
 33
5
 0
3DFACE
 8
STL2DXF
 10
-22.7988967895508
 20
1.49718379974365
 30
5
 11
-18.0443096160889
 21
30.5130939483643
 31
5
 12
-18.4645462036133
 22
32.4086608886719
 32
5
 13
-18.4645462036133
 23
32.4086608886719
 33
5
 0
3DFACE
 8
STL2DXF
 10
-22.7988967895508
 20
1.49718379974365
 30
5
 11
-18.4645462036133
 21
32.4086608886719
 31
5
 12
-19.3549995422363
 22
62.6102828979492
 32
5
 13
-19.3549995422363
 23
62.6102828979492
 33
5
 0
3DFACE
 8
STL2DXF
 10
-22.7988967895508
 20
1.49718379974365
 30
5
 11
-19.3549995422363
 21
62.6102828979492
 31
5
 12
-21.5129222869873
 22
70.6637573242188
 32
5
 13
-21.5129222869873
 23
70.6637573242188
 33
5
 0
3DFACE
 8
STL2DXF
 10
46.4500007629395
 20
66.25
 30
5
 11
47.4500007629395
 21
-7.5786595830343E-15
 31
5
 12
47.4500007629395
 22
65.25
 32
5
 13
47.4500007629395
 23
65.25
 33
5
 0
3DFACE
 8
STL2DXF
 10
47.4500007629395
 20
-7.5786595830343E-15
 30
5
 11
46.4500007629395
 21
66.25
 31
5
 12
45.4500007629395
 22
3.125
 32
5
 13
45.4500007629395
 23
3.125
 33
5
 0
3DFACE
 8
STL2DXF
 10
47.4500007629395
 20
-7.5786595830343E-15
 30
5
 11
45.4500007629395
 21
3.125
 31
5
 12
23.7250003814697
 22
-7.70651412422465E-15
 32
5
 13
23.7250003814697
 23
-7.70651412422465E-15
 33
5
 0
3DFACE
 8
STL2DXF
 10
23.7250003814697
 20
-7.70651412422465E-15
 30
5
 11
45.4500007629395
 21
3.125
 31
5
 12
40.4500007629395
 22
3.125
 32
5
 13
40.4500007629395
 23
3.125
 33
5
 0
3DFACE
 8
STL2DXF
 10
23.7250003814697
 20
-7.70651412422465E-15
 30
5
 11
40.4500007629395
 21
3.125
 31
5
 12
37.5750007629395
 22
6.82596206665039
 32
5
 13
37.5750007629395
 23
6.82596206665039
 33
5
 0
3DFACE
 8
STL2DXF
 10
37.5750007629395
 20
6.82596206665039
 30
5
 11
40.4500007629395
 21
3.125
 31
5
 12
37.8856620788574
 22
7.06433963775635
 32
5
 13
37.8856620788574
 23
7.06433963775635
 33
5
 0
3DFACE
 8
STL2DXF
 10
37.8856620788574
 20
7.06433963775635
 30
5
 11
40.4500007629395
 21
3.125
 31
5
 12
38.1240386962891
 22
7.375
 32
5
 13
38.1240386962891
 23
7.375
 33
5
 0
3DFACE
 8
STL2DXF
 10
38.1240386962891
 20
7.375
 30
5
 11
40.4500007629395
 21
3.125
 31
5
 12
38.2738876342773
 22
7.73677158355713
 32
5
 13
38.2738876342773
 23
7.73677158355713
 33
5
 0
3DFACE
 8
STL2DXF
 10
38.2738876342773
 20
7.73677158355713
 30
5
 11
40.4500007629395
 21
3.125
 31
5
 12
38.3250007629395
 22
8.125
 32
5
 13
38.3250007629395
 23
8.125
 33
5
 0
3DFACE
 8
STL2DXF
 10
23.7250003814697
 20
-7.70651412422465E-15
 30
5
 11
37.5750007629395
 21
6.82596206665039
 31
5
 12
37.2132301330566
 22
6.67611122131348
 32
5
 13
37.2132301330566
 23
6.67611122131348
 33
5
 0
3DFACE
 8
STL2DXF
 10
23.7250003814697
 20
-7.70651412422465E-15
 30
5
 11
37.2132301330566
 21
6.67611122131348
 31
5
 12
36.8250007629395
 22
6.625
 32
5
 13
36.8250007629395
 23
6.625
 33
5
 0
3DFACE
 8
STL2DXF
 10
23.7250003814697
 20
-7.70651412422465E-15
 30
5
 11
36.8250007629395
 21
6.625
 31
5
 12
36.4367713928223
 22
6.67611122131348
 32
5
 13
36.4367713928223
 23
6.67611122131348
 33
5
 0
3DFACE
 8
STL2DXF
 10
23.7250003814697
 20
-7.70651412422465E-15
 30
5
 11
36.4367713928223
 21
6.67611122131348
 31
5
 12
36.0750007629395
 22
6.82596206665039
 32
5
 13
36.0750007629395
 23
6.82596206665039
 33
5
 0
3DFACE
 8
STL2DXF
 10
23.7250003814697
 20
-7.70651412422465E-15
 30
5
 11
36.0750007629395
 21
6.82596206665039
 31
5
 12
35.7643394470215
 22
7.06433963775635
 32
5
 13
35.7643394470215
 23
7.06433963775635
 33
5
 0
3DFACE
 8
STL2DXF
 10
23.7250003814697
 20
-7.70651412422465E-15
 30
5
 11
35.7643394470215
 21
7.06433963775635
 31
5
 12
35.5259628295898
 22
7.375
 32
5
 13
35.5259628295898
 23
7.375
 33
5
 0
3DFACE
 8
STL2DXF
 10
23.7250003814697
 20
-7.70651412422465E-15
 30
5
 11
35.5259628295898
 21
7.375
 31
5
 12
35.3761100769043
 22
7.73677158355713
 32
5
 13
35.3761100769043
 23
7.73677158355713
 33
5
 0
3DFACE
 8
STL2DXF
 10
23.7250003814697
 20
-7.70651412422465E-15
 30
5
 11
35.3761100769043
 21
7.73677158355713
 31
5
 12
35.3250007629395
 22
8.125
 32
5
 13
35.3250007629395
 23
8.125
 33
5
 0
3DFACE
 8
STL2DXF
 10
23.7250003814697
 20
-7.70651412422465E-15
 30
5
 11
35.3250007629395
 21
8.125
 31
5
 12
28.1240386962891
 22
7.375
 32
5
 13
28.1240386962891
 23
7.375
 33
5
 0
3DFACE
 8
STL2DXF
 10
28.1240386962891
 20
7.375
 30
5
 11
35.3250007629395
 21
8.125
 31
5
 12
28.273889541626
 22
7.73677158355713
 32
5
 13
28.273889541626
 23
7.73677158355713
 33
5
 0
3DFACE
 8
STL2DXF
 10
28.273889541626
 20
7.73677158355713
 30
5
 11
35.3250007629395
 21
8.125
 31
5
 12
28.3250007629395
 22
8.125
 32
5
 13
28.3250007629395
 23
8.125
 33
5
 0
3DFACE
 8
STL2DXF
 10
28.3250007629395
 20
8.125
 30
5
 11
35.3250007629395
 21
8.125
 31
5
 12
28.3250007629395
 22
58.125
 32
5
 13
28.3250007629395
 23
58.125
 33
5
 0
3DFACE
 8
STL2DXF
 10
23.7250003814697
 20
-7.70651412422465E-15
 30
5
 11
28.1240386962891
 21
7.375
 31
5
 12
27.8856601715088
 22
7.06433963775635
 32
5
 13
27.8856601715088
 23
7.06433963775635
 33
5
 0
3DFACE
 8
STL2DXF
 10
23.7250003814697
 20
-7.70651412422465E-15
 30
5
 11
27.8856601715088
 21
7.06433963775635
 31
5
 12
27.5750007629395
 22
6.82596206665039
 32
5
 13
27.5750007629395
 23
6.82596206665039
 33
5
 0
3DFACE
 8
STL2DXF
 10
23.7250003814697
 20
-7.70651412422465E-15
 30
5
 11
27.5750007629395
 21
6.82596206665039
 31
5
 12
27.213228225708
 22
6.67611122131348
 32
5
 13
27.213228225708
 23
6.67611122131348
 33
5
 0
3DFACE
 8
STL2DXF
 10
23.7250003814697
 20
-7.70651412422465E-15
 30
5
 11
27.213228225708
 21
6.67611122131348
 31
5
 12
26.8250007629395
 22
6.625
 32
5
 13
26.8250007629395
 23
6.625
 33
5
 0
3DFACE
 8
STL2DXF
 10
23.7250003814697
 20
-7.70651412422465E-15
 30
5
 11
26.8250007629395
 21
6.625
 31
5
 12
26.4367713928223
 22
6.67611122131348
 32
5
 13
26.4367713928223
 23
6.67611122131348
 33
5
 0
3DFACE
 8
STL2DXF
 10
23.7250003814697
 20
-7.70651412422465E-15
 30
5
 11
26.4367713928223
 21
6.67611122131348
 31
5
 12
26.0750007629395
 22
6.82596206665039
 32
5
 13
26.0750007629395
 23
6.82596206665039
 33
5
 0
3DFACE
 8
STL2DXF
 10
23.7250003814697
 20
-7.70651412422465E-15
 30
5
 11
26.0750007629395
 21
6.82596206665039
 31
5
 12
25.7643394470215
 22
7.06433963775635
 32
5
 13
25.7643394470215
 23
7.06433963775635
 33
5
 0
3DFACE
 8
STL2DXF
 10
23.7250003814697
 20
-7.70651412422465E-15
 30
5
 11
25.7643394470215
 21
7.06433963775635
 31
5
 12
25.5259628295898
 22
7.375
 32
5
 13
25.5259628295898
 23
7.375
 33
5
 0
3DFACE
 8
STL2DXF
 10
23.7250003814697
 20
-7.70651412422465E-15
 30
5
 11
25.5259628295898
 21
7.375
 31
5
 12
25.3761119842529
 22
7.73677158355713
 32
5
 13
25.3761119842529
 23
7.73677158355713
 33
5
 0
3DFACE
 8
STL2DXF
 10
23.7250003814697
 20
-7.70651412422465E-15
 30
5
 11
25.3761119842529
 21
7.73677158355713
 31
5
 12
25.3250007629395
 22
8.125
 32
5
 13
25.3250007629395
 23
8.125
 33
5
 0
3DFACE
 8
STL2DXF
 10
23.7250003814697
 20
-7.70651412422465E-15
 30
5
 11
25.3250007629395
 21
8.125
 31
5
 12
23.7250003814697
 22
66.25
 32
5
 13
23.7250003814697
 23
66.25
 33
5
 0
3DFACE
 8
STL2DXF
 10
23.7250003814697
 20
-7.70651412422465E-15
 30
5
 11
23.7250003814697
 21
66.25
 31
5
 12
7
 22
63.125
 32
5
 13
7
 23
63.125
 33
5
 0
3DFACE
 8
STL2DXF
 10
7
 20
63.125
 30
5
 11
23.7250003814697
 21
66.25
 31
5
 12
1.4210854715202E-14
 22
85.25
 32
5
 13
1.4210854715202E-14
 23
85.25
 33
5
 0
3DFACE
 8
STL2DXF
 10
23.7250003814697
 20
-7.70651412422465E-15
 30
5
 11
7
 21
63.125
 31
5
 12
11.9318513870239
 22
38.6426391601563
 32
5
 13
11.9318513870239
 23
38.6426391601563
 33
5
 0
3DFACE
 8
STL2DXF
 10
23.7250003814697
 20
-7.70651412422465E-15
 30
5
 11
11.9318513870239
 21
38.6426391601563
 31
5
 12
12
 22
38.125
 32
5
 13
12
 23
38.125
 33
5
 0
3DFACE
 8
STL2DXF
 10
11.9318513870239
 20
38.6426391601563
 30
5
 11
7
 21
63.125
 31
5
 12
11.7320508956909
 22
39.125
 32
5
 13
11.7320508956909
 23
39.125
 33
5
 0
3DFACE
 8
STL2DXF
 10
11.7320508956909
 20
39.125
 30
5
 11
7
 21
63.125
 31
5
 12
11.414213180542
 22
39.5392150878906
 32
5
 13
11.414213180542
 23
39.5392150878906
 33
5
 0
3DFACE
 8
STL2DXF
 10
11.414213180542
 20
39.5392150878906
 30
5
 11
7
 21
63.125
 31
5
 12
11
 22
39.8570518493652
 32
5
 13
11
 23
39.8570518493652
 33
5
 0
3DFACE
 8
STL2DXF
 10
11
 20
39.8570518493652
 30
5
 11
7
 21
63.125
 31
5
 12
10.5176382064819
 22
40.0568504333496
 32
5
 13
10.5176382064819
 23
40.0568504333496
 33
5
 0
3DFACE
 8
STL2DXF
 10
10.5176382064819
 20
40.0568504333496
 30
5
 11
7
 21
63.125
 31
5
 12
10
 22
40.125
 32
5
 13
10
 23
40.125
 33
5
 0
3DFACE
 8
STL2DXF
 10
10
 20
40.125
 30
5
 11
7
 21
63.125
 31
5
 12
9.48236179351807
 22
40.0568504333496
 32
5
 13
9.48236179351807
 23
40.0568504333496
 33
5
 0
3DFACE
 8
STL2DXF
 10
9.48236179351807
 20
40.0568504333496
 30
5
 11
7
 21
63.125
 31
5
 12
9
 22
39.8570518493652
 32
5
 13
9
 23
39.8570518493652
 33
5
 0
3DFACE
 8
STL2DXF
 10
9
 20
39.8570518493652
 30
5
 11
7
 21
63.125
 31
5
 12
8.58578681945801
 22
39.5392150878906
 32
5
 13
8.58578681945801
 23
39.5392150878906
 33
5
 0
3DFACE
 8
STL2DXF
 10
8.58578681945801
 20
39.5392150878906
 30
5
 11
7
 21
63.125
 31
5
 12
8.26794910430908
 22
39.125
 32
5
 13
8.26794910430908
 23
39.125
 33
5
 0
3DFACE
 8
STL2DXF
 10
8.26794910430908
 20
39.125
 30
5
 11
7
 21
63.125
 31
5
 12
8.06814861297607
 22
38.6426391601563
 32
5
 13
8.06814861297607
 23
38.6426391601563
 33
5
 0
3DFACE
 8
STL2DXF
 10
8.06814861297607
 20
38.6426391601563
 30
5
 11
7
 21
63.125
 31
5
 12
8
 22
38.125
 32
5
 13
8
 23
38.125
 33
5
 0
3DFACE
 8
STL2DXF
 10
8
 20
38.125
 30
5
 11
7
 21
63.125
 31
5
 12
8
 22
8.125
 32
5
 13
8
 23
8.125
 33
5
 0
3DFACE
 8
STL2DXF
 10
7
 20
63.125
 30
5
 11
1.4210854715202E-14
 21
85.25
 31
5
 12
2
 22
63.125
 32
5
 13
2
 23
63.125
 33
5
 0
3DFACE
 8
STL2DXF
 10
2
 20
63.125
 30
5
 11
1.4210854715202E-14
 21
85.25
 31
5
 12
2
 22
3.125
 32
5
 13
2
 23
3.125
 33
5
 0
3DFACE
 8
STL2DXF
 10
11.9318513870239
 20
37.6073608398438
 30
5
 11
12
 21
8.125
 31
5
 12
12
 22
38.125
 32
5
 13
12
 23
38.125
 33
5
 0
3DFACE
 8
STL2DXF
 10
12
 20
8.125
 30
5
 11
11.9318513870239
 21
37.6073608398438
 31
5
 12
11.9318513870239
 22
8.64263820648193
 32
5
 13
11.9318513870239
 23
8.64263820648193
 33
5
 0
3DFACE
 8
STL2DXF
 10
11.9318513870239
 20
8.64263820648193
 30
5
 11
11.9318513870239
 21
37.6073608398438
 31
5
 12
11.7320508956909
 22
37.125
 32
5
 13
11.7320508956909
 23
37.125
 33
5
 0
3DFACE
 8
STL2DXF
 10
11.9318513870239
 20
8.64263820648193
 30
5
 11
11.7320508956909
 21
37.125
 31
5
 12
11.7320508956909
 22
9.125
 32
5
 13
11.7320508956909
 23
9.125
 33
5
 0
3DFACE
 8
STL2DXF
 10
11.7320508956909
 20
9.125
 30
5
 11
11.7320508956909
 21
37.125
 31
5
 12
11.414213180542
 22
36.7107849121094
 32
5
 13
11.414213180542
 23
36.7107849121094
 33
5
 0
3DFACE
 8
STL2DXF
 10
11.7320508956909
 20
9.125
 30
5
 11
11.414213180542
 21
36.7107849121094
 31
5
 12
11.414213180542
 22
9.53921318054199
 32
5
 13
11.414213180542
 23
9.53921318054199
 33
5
 0
3DFACE
 8
STL2DXF
 10
11.414213180542
 20
9.53921318054199
 30
5
 11
11.414213180542
 21
36.7107849121094
 31
5
 12
11
 22
36.3929481506348
 32
5
 13
11
 23
36.3929481506348
 33
5
 0
3DFACE
 8
STL2DXF
 10
11.414213180542
 20
9.53921318054199
 30
5
 11
11
 21
36.3929481506348
 31
5
 12
11
 22
9.85705089569092
 32
5
 13
11
 23
9.85705089569092
 33
5
 0
3DFACE
 8
STL2DXF
 10
11
 20
9.85705089569092
 30
5
 11
11
 21
36.3929481506348
 31
5
 12
10.5176382064819
 22
36.1931495666504
 32
5
 13
10.5176382064819
 23
36.1931495666504
 33
5
 0
3DFACE
 8
STL2DXF
 10
11
 20
9.85705089569092
 30
5
 11
10.5176382064819
 21
36.1931495666504
 31
5
 12
10.5176382064819
 22
10.0568513870239
 32
5
 13
10.5176382064819
 23
10.0568513870239
 33
5
 0
3DFACE
 8
STL2DXF
 10
10.5176382064819
 20
10.0568513870239
 30
5
 11
10.5176382064819
 21
36.1931495666504
 31
5
 12
10
 22
36.125
 32
5
 13
10
 23
36.125
 33
5
 0
3DFACE
 8
STL2DXF
 10
10.5176382064819
 20
10.0568513870239
 30
5
 11
10
 21
36.125
 31
5
 12
10
 22
10.125
 32
5
 13
10
 23
10.125
 33
5
 0
3DFACE
 8
STL2DXF
 10
10
 20
10.125
 30
5
 11
10
 21
36.125
 31
5
 12
9.48236179351807
 22
36.1931495666504
 32
5
 13
9.48236179351807
 23
36.1931495666504
 33
5
 0
3DFACE
 8
STL2DXF
 10
10
 20
10.125
 30
5
 11
9.48236179351807
 21
36.1931495666504
 31
5
 12
9.48236179351807
 22
10.0568513870239
 32
5
 13
9.48236179351807
 23
10.0568513870239
 33
5
 0
3DFACE
 8
STL2DXF
 10
9.48236179351807
 20
10.0568513870239
 30
5
 11
9.48236179351807
 21
36.1931495666504
 31
5
 12
9
 22
36.3929481506348
 32
5
 13
9
 23
36.3929481506348
 33
5
 0
3DFACE
 8
STL2DXF
 10
9.48236179351807
 20
10.0568513870239
 30
5
 11
9
 21
36.3929481506348
 31
5
 12
9
 22
9.85705089569092
 32
5
 13
9
 23
9.85705089569092
 33
5
 0
3DFACE
 8
STL2DXF
 10
9
 20
9.85705089569092
 30
5
 11
9
 21
36.3929481506348
 31
5
 12
8.58578681945801
 22
36.7107849121094
 32
5
 13
8.58578681945801
 23
36.7107849121094
 33
5
 0
3DFACE
 8
STL2DXF
 10
9
 20
9.85705089569092
 30
5
 11
8.58578681945801
 21
36.7107849121094
 31
5
 12
8.58578681945801
 22
9.53921318054199
 32
5
 13
8.58578681945801
 23
9.53921318054199
 33
5
 0
3DFACE
 8
STL2DXF
 10
8.58578681945801
 20
9.53921318054199
 30
5
 11
8.58578681945801
 21
36.7107849121094
 31
5
 12
8.26794910430908
 22
9.125
 32
5
 13
8.26794910430908
 23
9.125
 33
5
 0
3DFACE
 8
STL2DXF
 10
8.26794910430908
 20
9.125
 30
5
 11
8.58578681945801
 21
36.7107849121094
 31
5
 12
8.26794910430908
 22
37.125
 32
5
 13
8.26794910430908
 23
37.125
 33
5
 0
3DFACE
 8
STL2DXF
 10
8.26794910430908
 20
9.125
 30
5
 11
8.26794910430908
 21
37.125
 31
5
 12
8.06814861297607
 22
37.6073608398438
 32
5
 13
8.06814861297607
 23
37.6073608398438
 33
5
 0
3DFACE
 8
STL2DXF
 10
8.26794910430908
 20
9.125
 30
5
 11
8.06814861297607
 21
37.6073608398438
 31
5
 12
8.06814861297607
 22
8.64263820648193
 32
5
 13
8.06814861297607
 23
8.64263820648193
 33
5
 0
3DFACE
 8
STL2DXF
 10
8.06814861297607
 20
8.64263820648193
 30
5
 11
8.06814861297607
 21
37.6073608398438
 31
5
 12
8
 22
38.125
 32
5
 13
8
 23
38.125
 33
5
 0
3DFACE
 8
STL2DXF
 10
8.06814861297607
 20
8.64263820648193
 30
5
 11
8
 21
38.125
 31
5
 12
8
 22
8.125
 32
5
 13
8
 23
8.125
 33
5
 0
3DFACE
 8
STL2DXF
 10
46.4500007629395
 20
66.25
 30
5
 11
45.4500007629395
 21
63.125
 31
5
 12
45.4500007629395
 22
3.125
 32
5
 13
45.4500007629395
 23
3.125
 33
5
 0
3DFACE
 8
STL2DXF
 10
45.4500007629395
 20
63.125
 30
5
 11
46.4500007629395
 21
66.25
 31
5
 12
23.7250003814697
 22
66.25
 32
5
 13
23.7250003814697
 23
66.25
 33
5
 0
3DFACE
 8
STL2DXF
 10
45.4500007629395
 20
63.125
 30
5
 11
23.7250003814697
 21
66.25
 31
5
 12
40.4500007629395
 22
63.125
 32
5
 13
40.4500007629395
 23
63.125
 33
5
 0
3DFACE
 8
STL2DXF
 10
40.4500007629395
 20
63.125
 30
5
 11
23.7250003814697
 21
66.25
 31
5
 12
28.1240386962891
 22
58.875
 32
5
 13
28.1240386962891
 23
58.875
 33
5
 0
3DFACE
 8
STL2DXF
 10
40.4500007629395
 20
63.125
 30
5
 11
28.1240386962891
 21
58.875
 31
5
 12
28.273889541626
 22
58.5132293701172
 32
5
 13
28.273889541626
 23
58.5132293701172
 33
5
 0
3DFACE
 8
STL2DXF
 10
40.4500007629395
 20
63.125
 30
5
 11
28.273889541626
 21
58.5132293701172
 31
5
 12
40.4500007629395
 22
3.125
 32
5
 13
40.4500007629395
 23
3.125
 33
5
 0
3DFACE
 8
STL2DXF
 10
40.4500007629395
 20
3.125
 30
5
 11
28.273889541626
 21
58.5132293701172
 31
5
 12
38.2738876342773
 22
8.51322841644287
 32
5
 13
38.2738876342773
 23
8.51322841644287
 33
5
 0
3DFACE
 8
STL2DXF
 10
40.4500007629395
 20
3.125
 30
5
 11
38.2738876342773
 21
8.51322841644287
 31
5
 12
38.3250007629395
 22
8.125
 32
5
 13
38.3250007629395
 23
8.125
 33
5
 0
3DFACE
 8
STL2DXF
 10
38.2738876342773
 20
8.51322841644287
 30
5
 11
28.273889541626
 21
58.5132293701172
 31
5
 12
38.1240386962891
 22
8.875
 32
5
 13
38.1240386962891
 23
8.875
 33
5
 0
3DFACE
 8
STL2DXF
 10
38.1240386962891
 20
8.875
 30
5
 11
28.273889541626
 21
58.5132293701172
 31
5
 12
37.8856620788574
 22
9.18566036224365
 32
5
 13
37.8856620788574
 23
9.18566036224365
 33
5
 0
3DFACE
 8
STL2DXF
 10
37.8856620788574
 20
9.18566036224365
 30
5
 11
28.273889541626
 21
58.5132293701172
 31
5
 12
37.5750007629395
 22
9.42403793334961
 32
5
 13
37.5750007629395
 23
9.42403793334961
 33
5
 0
3DFACE
 8
STL2DXF
 10
37.5750007629395
 20
9.42403793334961
 30
5
 11
28.273889541626
 21
58.5132293701172
 31
5
 12
37.2132301330566
 22
9.57388877868652
 32
5
 13
37.2132301330566
 23
9.57388877868652
 33
5
 0
3DFACE
 8
STL2DXF
 10
37.2132301330566
 20
9.57388877868652
 30
5
 11
28.273889541626
 21
58.5132293701172
 31
5
 12
36.8250007629395
 22
9.625
 32
5
 13
36.8250007629395
 23
9.625
 33
5
 0
3DFACE
 8
STL2DXF
 10
36.8250007629395
 20
9.625
 30
5
 11
28.273889541626
 21
58.5132293701172
 31
5
 12
36.4367713928223
 22
9.57388877868652
 32
5
 13
36.4367713928223
 23
9.57388877868652
 33
5
 0
3DFACE
 8
STL2DXF
 10
36.4367713928223
 20
9.57388877868652
 30
5
 11
28.273889541626
 21
58.5132293701172
 31
5
 12
36.0750007629395
 22
9.42403793334961
 32
5
 13
36.0750007629395
 23
9.42403793334961
 33
5
 0
3DFACE
 8
STL2DXF
 10
36.0750007629395
 20
9.42403793334961
 30
5
 11
28.273889541626
 21
58.5132293701172
 31
5
 12
35.7643394470215
 22
9.18566036224365
 32
5
 13
35.7643394470215
 23
9.18566036224365
 33
5
 0
3DFACE
 8
STL2DXF
 10
35.7643394470215
 20
9.18566036224365
 30
5
 11
28.273889541626
 21
58.5132293701172
 31
5
 12
35.5259628295898
 22
8.875
 32
5
 13
35.5259628295898
 23
8.875
 33
5
 0
3DFACE
 8
STL2DXF
 10
35.5259628295898
 20
8.875
 30
5
 11
28.273889541626
 21
58.5132293701172
 31
5
 12
35.3761100769043
 22
8.51322841644287
 32
5
 13
35.3761100769043
 23
8.51322841644287
 33
5
 0
3DFACE
 8
STL2DXF
 10
35.3761100769043
 20
8.51322841644287
 30
5
 11
28.273889541626
 21
58.5132293701172
 31
5
 12
35.3250007629395
 22
8.125
 32
5
 13
35.3250007629395
 23
8.125
 33
5
 0
3DFACE
 8
STL2DXF
 10
35.3250007629395
 20
8.125
 30
5
 11
28.273889541626
 21
58.5132293701172
 31
5
 12
28.3250007629395
 22
58.125
 32
5
 13
28.3250007629395
 23
58.125
 33
5
 0
3DFACE
 8
STL2DXF
 10
28.1240386962891
 20
58.875
 30
5
 11
23.7250003814697
 21
66.25
 31
5
 12
27.8856601715088
 22
59.185661315918
 32
5
 13
27.8856601715088
 23
59.185661315918
 33
5
 0
3DFACE
 8
STL2DXF
 10
27.8856601715088
 20
59.185661315918
 30
5
 11
23.7250003814697
 21
66.25
 31
5
 12
27.5750007629395
 22
59.4240379333496
 32
5
 13
27.5750007629395
 23
59.4240379333496
 33
5
 0
3DFACE
 8
STL2DXF
 10
27.5750007629395
 20
59.4240379333496
 30
5
 11
23.7250003814697
 21
66.25
 31
5
 12
27.213228225708
 22
59.5738868713379
 32
5
 13
27.213228225708
 23
59.5738868713379
 33
5
 0
3DFACE
 8
STL2DXF
 10
27.213228225708
 20
59.5738868713379
 30
5
 11
23.7250003814697
 21
66.25
 31
5
 12
26.8250007629395
 22
59.625
 32
5
 13
26.8250007629395
 23
59.625
 33
5
 0
3DFACE
 8
STL2DXF
 10
26.8250007629395
 20
59.625
 30
5
 11
23.7250003814697
 21
66.25
 31
5
 12
26.4367713928223
 22
59.5738868713379
 32
5
 13
26.4367713928223
 23
59.5738868713379
 33
5
 0
3DFACE
 8
STL2DXF
 10
26.4367713928223
 20
59.5738868713379
 30
5
 11
23.7250003814697
 21
66.25
 31
5
 12
26.0750007629395
 22
59.4240379333496
 32
5
 13
26.0750007629395
 23
59.4240379333496
 33
5
 0
3DFACE
 8
STL2DXF
 10
26.0750007629395
 20
59.4240379333496
 30
5
 11
23.7250003814697
 21
66.25
 31
5
 12
25.7643394470215
 22
59.185661315918
 32
5
 13
25.7643394470215
 23
59.185661315918
 33
5
 0
3DFACE
 8
STL2DXF
 10
25.7643394470215
 20
59.185661315918
 30
5
 11
23.7250003814697
 21
66.25
 31
5
 12
25.5259628295898
 22
58.875
 32
5
 13
25.5259628295898
 23
58.875
 33
5
 0
3DFACE
 8
STL2DXF
 10
25.5259628295898
 20
58.875
 30
5
 11
23.7250003814697
 21
66.25
 31
5
 12
25.3761119842529
 22
58.5132293701172
 32
5
 13
25.3761119842529
 23
58.5132293701172
 33
5
 0
3DFACE
 8
STL2DXF
 10
25.3761119842529
 20
58.5132293701172
 30
5
 11
23.7250003814697
 21
66.25
 31
5
 12
25.3250007629395
 22
58.125
 32
5
 13
25.3250007629395
 23
58.125
 33
5
 0
3DFACE
 8
STL2DXF
 10
25.3250007629395
 20
58.125
 30
5
 11
23.7250003814697
 21
66.25
 31
5
 12
25.3250007629395
 22
8.125
 32
5
 13
25.3250007629395
 23
8.125
 33
5
 0
3DFACE
 8
STL2DXF
 10
28.273889541626
 20
57.7367706298828
 30
5
 11
28.3250007629395
 21
8.125
 31
5
 12
28.3250007629395
 22
58.125
 32
5
 13
28.3250007629395
 23
58.125
 33
5
 0
3DFACE
 8
STL2DXF
 10
28.3250007629395
 20
8.125
 30
5
 11
28.273889541626
 21
57.7367706298828
 31
5
 12
28.273889541626
 22
8.51322841644287
 32
5
 13
28.273889541626
 23
8.51322841644287
 33
5
 0
3DFACE
 8
STL2DXF
 10
28.273889541626
 20
8.51322841644287
 30
5
 11
28.273889541626
 21
57.7367706298828
 31
5
 12
28.1240386962891
 22
57.375
 32
5
 13
28.1240386962891
 23
57.375
 33
5
 0
3DFACE
 8
STL2DXF
 10
28.273889541626
 20
8.51322841644287
 30
5
 11
28.1240386962891
 21
57.375
 31
5
 12
28.1240386962891
 22
8.875
 32
5
 13
28.1240386962891
 23
8.875
 33
5
 0
3DFACE
 8
STL2DXF
 10
28.1240386962891
 20
8.875
 30
5
 11
28.1240386962891
 21
57.375
 31
5
 12
27.8856601715088
 22
57.064338684082
 32
5
 13
27.8856601715088
 23
57.064338684082
 33
5
 0
3DFACE
 8
STL2DXF
 10
28.1240386962891
 20
8.875
 30
5
 11
27.8856601715088
 21
57.064338684082
 31
5
 12
27.8856601715088
 22
9.18566036224365
 32
5
 13
27.8856601715088
 23
9.18566036224365
 33
5
 0
3DFACE
 8
STL2DXF
 10
27.8856601715088
 20
9.18566036224365
 30
5
 11
27.8856601715088
 21
57.064338684082
 31
5
 12
27.5750007629395
 22
56.8259620666504
 32
5
 13
27.5750007629395
 23
56.8259620666504
 33
5
 0
3DFACE
 8
STL2DXF
 10
27.8856601715088
 20
9.18566036224365
 30
5
 11
27.5750007629395
 21
56.8259620666504
 31
5
 12
27.5750007629395
 22
9.42403793334961
 32
5
 13
27.5750007629395
 23
9.42403793334961
 33
5
 0
3DFACE
 8
STL2DXF
 10
27.5750007629395
 20
9.42403793334961
 30
5
 11
27.5750007629395
 21
56.8259620666504
 31
5
 12
27.213228225708
 22
56.6761131286621
 32
5
 13
27.213228225708
 23
56.6761131286621
 33
5
 0
3DFACE
 8
STL2DXF
 10
27.5750007629395
 20
9.42403793334961
 30
5
 11
27.213228225708
 21
56.6761131286621
 31
5
 12
27.213228225708
 22
9.57388877868652
 32
5
 13
27.213228225708
 23
9.57388877868652
 33
5
 0
3DFACE
 8
STL2DXF
 10
27.213228225708
 20
9.57388877868652
 30
5
 11
27.213228225708
 21
56.6761131286621
 31
5
 12
26.8250007629395
 22
56.625
 32
5
 13
26.8250007629395
 23
56.625
 33
5
 0
3DFACE
 8
STL2DXF
 10
27.213228225708
 20
9.57388877868652
 30
5
 11
26.8250007629395
 21
56.625
 31
5
 12
26.8250007629395
 22
9.625
 32
5
 13
26.8250007629395
 23
9.625
 33
5
 0
3DFACE
 8
STL2DXF
 10
26.8250007629395
 20
9.625
 30
5
 11
26.8250007629395
 21
56.625
 31
5
 12
26.4367713928223
 22
56.6761131286621
 32
5
 13
26.4367713928223
 23
56.6761131286621
 33
5
 0
3DFACE
 8
STL2DXF
 10
26.8250007629395
 20
9.625
 30
5
 11
26.4367713928223
 21
56.6761131286621
 31
5
 12
26.4367713928223
 22
9.57388877868652
 32
5
 13
26.4367713928223
 23
9.57388877868652
 33
5
 0
3DFACE
 8
STL2DXF
 10
26.4367713928223
 20
9.57388877868652
 30
5
 11
26.4367713928223
 21
56.6761131286621
 31
5
 12
26.0750007629395
 22
56.8259620666504
 32
5
 13
26.0750007629395
 23
56.8259620666504
 33
5
 0
3DFACE
 8
STL2DXF
 10
26.4367713928223
 20
9.57388877868652
 30
5
 11
26.0750007629395
 21
56.8259620666504
 31
5
 12
26.0750007629395
 22
9.42403793334961
 32
5
 13
26.0750007629395
 23
9.42403793334961
 33
5
 0
3DFACE
 8
STL2DXF
 10
26.0750007629395
 20
9.42403793334961
 30
5
 11
26.0750007629395
 21
56.8259620666504
 31
5
 12
25.7643394470215
 22
57.064338684082
 32
5
 13
25.7643394470215
 23
57.064338684082
 33
5
 0
3DFACE
 8
STL2DXF
 10
26.0750007629395
 20
9.42403793334961
 30
5
 11
25.7643394470215
 21
57.064338684082
 31
5
 12
25.7643394470215
 22
9.18566036224365
 32
5
 13
25.7643394470215
 23
9.18566036224365
 33
5
 0
3DFACE
 8
STL2DXF
 10
25.7643394470215
 20
9.18566036224365
 30
5
 11
25.7643394470215
 21
57.064338684082
 31
5
 12
25.5259628295898
 22
57.375
 32
5
 13
25.5259628295898
 23
57.375
 33
5
 0
3DFACE
 8
STL2DXF
 10
25.7643394470215
 20
9.18566036224365
 30
5
 11
25.5259628295898
 21
57.375
 31
5
 12
25.5259628295898
 22
8.875
 32
5
 13
25.5259628295898
 23
8.875
 33
5
 0
3DFACE
 8
STL2DXF
 10
25.5259628295898
 20
8.875
 30
5
 11
25.5259628295898
 21
57.375
 31
5
 12
25.3761119842529
 22
57.7367706298828
 32
5
 13
25.3761119842529
 23
57.7367706298828
 33
5
 0
3DFACE
 8
STL2DXF
 10
25.5259628295898
 20
8.875
 30
5
 11
25.3761119842529
 21
57.7367706298828
 31
5
 12
25.3761119842529
 22
8.51322841644287
 32
5
 13
25.3761119842529
 23
8.51322841644287
 33
5
 0
3DFACE
 8
STL2DXF
 10
25.3761119842529
 20
8.51322841644287
 30
5
 11
25.3761119842529
 21
57.7367706298828
 31
5
 12
25.3250007629395
 22
58.125
 32
5
 13
25.3250007629395
 23
58.125
 33
5
 0
3DFACE
 8
STL2DXF
 10
25.3761119842529
 20
8.51322841644287
 30
5
 11
25.3250007629395
 21
58.125
 31
5
 12
25.3250007629395
 22
8.125
 32
5
 13
25.3250007629395
 23
8.125
 33
5
 0
3DFACE
 8
STL2DXF
 10
-10.9645471572876
 20
14.2724113464355
 30
1
 11
1.63261187076569
 21
1.67525255680084
 31
4
 12
-10.9645471572876
 22
14.2724113464355
 32
4
 13
-10.9645471572876
 23
14.2724113464355
 33
4
 0
3DFACE
 8
STL2DXF
 10
1.63261187076569
 20
1.67525255680084
 30
4
 11
-10.9645471572876
 21
14.2724113464355
 31
1
 12
1.63261187076569
 22
1.67525255680084
 32
1
 13
1.63261187076569
 23
1.67525255680084
 33
1
 0
3DFACE
 8
STL2DXF
 10
1.63261187076569
 20
1.67525255680084
 30
1
 11
7.6326117515564
 21
1.67525255680084
 31
4
 12
1.63261187076569
 22
1.67525255680084
 32
4
 13
1.63261187076569
 23
1.67525255680084
 33
4
 0
3DFACE
 8
STL2DXF
 10
7.6326117515564
 20
1.67525255680084
 30
4
 11
1.63261187076569
 21
1.67525255680084
 31
1
 12
7.6326117515564
 22
1.67525255680084
 32
1
 13
7.6326117515564
 23
1.67525255680084
 33
1
 0
3DFACE
 8
STL2DXF
 10
7.6326117515564
 20
1.67525255680084
 30
1
 11
15.5823593139648
 21
9.625
 31
4
 12
7.6326117515564
 22
1.67525255680084
 32
4
 13
7.6326117515564
 23
1.67525255680084
 33
4
 0
3DFACE
 8
STL2DXF
 10
15.5823593139648
 20
9.625
 30
4
 11
7.6326117515564
 21
1.67525255680084
 31
1
 12
15.5823593139648
 22
9.625
 32
1
 13
15.5823593139648
 23
9.625
 33
1
 0
3DFACE
 8
STL2DXF
 10
15.5823593139648
 20
9.625
 30
4
 11
26.8250007629395
 21
9.625
 31
1
 12
26.8250007629395
 22
9.625
 32
4
 13
26.8250007629395
 23
9.625
 33
4
 0
3DFACE
 8
STL2DXF
 10
26.8250007629395
 20
9.625
 30
1
 11
15.5823593139648
 21
9.625
 31
4
 12
15.5823593139648
 22
9.625
 32
1
 13
15.5823593139648
 23
9.625
 33
1
 0
3DFACE
 8
STL2DXF
 10
26.8250007629395
 20
6.625
 30
1
 11
16.8250007629395
 21
6.625
 31
4
 12
26.8250007629395
 22
6.625
 32
4
 13
26.8250007629395
 23
6.625
 33
4
 0
3DFACE
 8
STL2DXF
 10
16.8250007629395
 20
6.625
 30
4
 11
26.8250007629395
 21
6.625
 31
1
 12
16.8250007629395
 22
6.625
 32
1
 13
16.8250007629395
 23
6.625
 33
1
 0
3DFACE
 8
STL2DXF
 10
16.8250007629395
 20
6.625
 30
4
 11
8.87525272369385
 21
-1.32474744319916
 31
1
 12
8.87525272369385
 22
-1.32474744319916
 32
4
 13
8.87525272369385
 23
-1.32474744319916
 33
4
 0
3DFACE
 8
STL2DXF
 10
8.87525272369385
 20
-1.32474744319916
 30
1
 11
16.8250007629395
 21
6.625
 31
4
 12
16.8250007629395
 22
6.625
 32
1
 13
16.8250007629395
 23
6.625
 33
1
 0
3DFACE
 8
STL2DXF
 10
8.87525272369385
 20
-1.32474744319916
 30
1
 11
0.389971166849136
 21
-1.32474744319916
 31
4
 12
8.87525272369385
 22
-1.32474744319916
 32
4
 13
8.87525272369385
 23
-1.32474744319916
 33
4
 0
3DFACE
 8
STL2DXF
 10
0.389971166849136
 20
-1.32474744319916
 30
4
 11
8.87525272369385
 21
-1.32474744319916
 31
1
 12
0.389971166849136
 22
-1.32474744319916
 32
1
 13
0.389971166849136
 23
-1.32474744319916
 33
1
 0
3DFACE
 8
STL2DXF
 10
0.389971166849136
 20
-1.32474744319916
 30
1
 11
-13.9645471572876
 21
13.0297708511353
 31
4
 12
0.389971166849136
 22
-1.32474744319916
 32
4
 13
0.389971166849136
 23
-1.32474744319916
 33
4
 0
3DFACE
 8
STL2DXF
 10
-13.9645471572876
 20
13.0297708511353
 30
4
 11
0.389971166849136
 21
-1.32474744319916
 31
1
 12
-13.9645471572876
 22
13.0297708511353
 32
1
 13
-13.9645471572876
 23
13.0297708511353
 33
1
 0
3DFACE
 8
STL2DXF
 10
-10.9645471572876
 20
29.0297698974609
 30
4
 11
-10.9645471572876
 21
14.2724113464355
 31
1
 12
-10.9645471572876
 22
14.2724113464355
 32
4
 13
-10.9645471572876
 23
14.2724113464355
 33
4
 0
3DFACE
 8
STL2DXF
 10
-10.9645471572876
 20
14.2724113464355
 30
1
 11
-10.9645471572876
 21
29.0297698974609
 31
4
 12
-10.9645471572876
 22
29.0297698974609
 32
1
 13
-10.9645471572876
 23
29.0297698974609
 33
1
 0
3DFACE
 8
STL2DXF
 10
37.8856620788574
 20
7.06433963775635
 30
1
 11
31.9662418365479
 21
1.14492249488831
 31
4
 12
37.8856620788574
 22
7.06433963775635
 32
4
 13
37.8856620788574
 23
7.06433963775635
 33
4
 0
3DFACE
 8
STL2DXF
 10
31.9662418365479
 20
1.14492249488831
 30
4
 11
37.8856620788574
 21
7.06433963775635
 31
1
 12
31.9662418365479
 22
1.14492249488831
 32
1
 13
31.9662418365479
 23
1.14492249488831
 33
1
 0
3DFACE
 8
STL2DXF
 10
31.9662418365479
 20
1.14492249488831
 30
1
 11
19.9714469909668
 21
1.15012621879578
 31
4
 12
31.9662418365479
 22
1.14492249488831
 32
4
 13
31.9662418365479
 23
1.14492249488831
 33
4
 0
3DFACE
 8
STL2DXF
 10
19.9714469909668
 20
1.15012621879578
 30
4
 11
31.9662418365479
 21
1.14492249488831
 31
1
 12
19.9714469909668
 22
1.15012621879578
 32
1
 13
19.9714469909668
 23
1.15012621879578
 33
1
 0
3DFACE
 8
STL2DXF
 10
19.9714469909668
 20
1.15012621879578
 30
1
 11
10.7790584564209
 21
-8.04226207733154
 31
4
 12
19.9714469909668
 22
1.15012621879578
 32
4
 13
19.9714469909668
 23
1.15012621879578
 33
4
 0
3DFACE
 8
STL2DXF
 10
10.7790584564209
 20
-8.04226207733154
 30
4
 11
19.9714469909668
 21
1.15012621879578
 31
1
 12
10.7790584564209
 22
-8.04226207733154
 32
1
 13
10.7790584564209
 23
-8.04226207733154
 33
1
 0
3DFACE
 8
STL2DXF
 10
-23.9635829925537
 20
-2.84948229789734
 30
1
 11
-23.9635829925537
 21
-7.50822496414185
 31
5
 12
-23.9635829925537
 22
-7.50822496414185
 32
1
 13
-23.9635829925537
 23
-7.50822496414185
 33
1
 0
3DFACE
 8
STL2DXF
 10
-23.9635829925537
 20
-7.50822496414185
 30
5
 11
-23.9635829925537
 21
-2.84948229789734
 31
1
 12
-23.9635829925537
 22
-2.84948229789734
 32
5
 13
-23.9635829925537
 23
-2.84948229789734
 33
5
 0
3DFACE
 8
STL2DXF
 10
-13.4635820388794
 20
-5.04226207733154
 30
1
 11
9.53641796112061
 21
-5.04226207733154
 31
4
 12
-13.4635820388794
 22
-5.04226207733154
 32
4
 13
-13.4635820388794
 23
-5.04226207733154
 33
4
 0
3DFACE
 8
STL2DXF
 10
9.53641796112061
 20
-5.04226207733154
 30
4
 11
-13.4635820388794
 21
-5.04226207733154
 31
1
 12
9.53641796112061
 22
-5.04226207733154
 32
1
 13
9.53641796112061
 23
-5.04226207733154
 33
1
 0
3DFACE
 8
STL2DXF
 10
18.7288055419922
 20
4.15012645721436
 30
1
 11
9.53641796112061
 21
-5.04226207733154
 31
4
 12
9.53641796112061
 22
-5.04226207733154
 32
1
 13
9.53641796112061
 23
-5.04226207733154
 33
1
 0
3DFACE
 8
STL2DXF
 10
9.53641796112061
 20
-5.04226207733154
 30
4
 11
18.7288055419922
 21
4.15012645721436
 31
1
 12
18.7288055419922
 22
4.15012645721436
 32
4
 13
18.7288055419922
 23
4.15012645721436
 33
4
 0
3DFACE
 8
STL2DXF
 10
18.7288055419922
 20
4.15012645721436
 30
1
 11
30.7288055419922
 21
4.15012645721436
 31
4
 12
18.7288055419922
 22
4.15012645721436
 32
4
 13
18.7288055419922
 23
4.15012645721436
 33
4
 0
3DFACE
 8
STL2DXF
 10
30.7288055419922
 20
4.15012645721436
 30
4
 11
18.7288055419922
 21
4.15012645721436
 31
1
 12
30.7288055419922
 22
4.15012645721436
 32
1
 13
30.7288055419922
 23
4.15012645721436
 33
1
 0
3DFACE
 8
STL2DXF
 10
30.7288055419922
 20
4.15012645721436
 30
1
 11
35.7643394470215
 21
9.18566036224365
 31
4
 12
30.7288055419922
 22
4.15012645721436
 32
4
 13
30.7288055419922
 23
4.15012645721436
 33
4
 0
3DFACE
 8
STL2DXF
 10
35.7643394470215
 20
9.18566036224365
 30
4
 11
30.7288055419922
 21
4.15012645721436
 31
1
 12
35.7643394470215
 22
9.18566036224365
 32
1
 13
35.7643394470215
 23
9.18566036224365
 33
1
 0
3DFACE
 8
STL2DXF
 10
-13.4635820388794
 20
-2.29998183250427
 30
4
 11
-13.4635820388794
 21
-5.04226207733154
 31
1
 12
-13.4635820388794
 22
-5.04226207733154
 32
4
 13
-13.4635820388794
 23
-5.04226207733154
 33
4
 0
3DFACE
 8
STL2DXF
 10
-13.4635820388794
 20
-5.04226207733154
 30
1
 11
-13.4635820388794
 21
-2.29998183250427
 31
4
 12
-13.4635820388794
 22
-1.00420606136322
 32
1
 13
-13.4635820388794
 23
-1.00420606136322
 33
1
 0
3DFACE
 8
STL2DXF
 10
-13.4635820388794
 20
-1.00420606136322
 30
1
 11
-13.4635820388794
 21
-2.29998183250427
 31
4
 12
-13.4635820388794
 22
-2.29998183250427
 32
5
 13
-13.4635820388794
 23
-2.29998183250427
 33
5
 0
3DFACE
 8
STL2DXF
 10
-13.4635820388794
 20
-1.00420606136322
 30
1
 11
-13.4635820388794
 21
-2.29998183250427
 31
5
 12
-13.4635820388794
 22
-1.00420606136322
 32
5
 13
-13.4635820388794
 23
-1.00420606136322
 33
5
 0
3DFACE
 8
STL2DXF
 10
7.105427357601E-15
 20
-20
 30
8.88178419700125E-16
 11
23.7250003814697
 21
-7.70651412422465E-15
 31
5
 12
7.105427357601E-15
 22
-20
 32
5
 13
7.105427357601E-15
 23
-20
 33
5
 0
3DFACE
 8
STL2DXF
 10
23.7250003814697
 20
-7.70651412422465E-15
 30
5
 11
7.105427357601E-15
 21
-20
 31
8.88178419700125E-16
 12
23.7250003814697
 22
-7.70651412422465E-15
 32
3.46389583683049E-14
 13
23.7250003814697
 23
-7.70651412422465E-15
 33
3.46389583683049E-14
 0
3DFACE
 8
STL2DXF
 10
-21.5129222869873
 20
74.6102828979492
 30
1
 11
-16.3587322235107
 21
74.6102828979492
 31
5
 12
-21.5129222869873
 22
74.6102828979492
 32
5
 13
-21.5129222869873
 23
74.6102828979492
 33
5
 0
3DFACE
 8
STL2DXF
 10
-16.3587322235107
 20
74.6102828979492
 30
5
 11
-21.5129222869873
 21
74.6102828979492
 31
1
 12
-16.3587322235107
 22
74.6102828979492
 32
1
 13
-16.3587322235107
 23
74.6102828979492
 33
1
 0
3DFACE
 8
STL2DXF
 10
9.09707832336426
 20
68.1102828979492
 30
1
 11
-15.0129222869873
 21
68.1102828979492
 31
4
 12
9.09707832336426
 22
68.1102828979492
 32
4
 13
9.09707832336426
 23
68.1102828979492
 33
4
 0
3DFACE
 8
STL2DXF
 10
-15.0129222869873
 20
68.1102828979492
 30
4
 11
9.09707832336426
 21
68.1102828979492
 31
1
 12
-15.0129222869873
 22
68.1102828979492
 32
1
 13
-15.0129222869873
 23
68.1102828979492
 33
1
 0
3DFACE
 8
STL2DXF
 10
-13.9645471572876
 20
29.0297698974609
 30
1
 11
-13.9645471572876
 21
13.0297708511353
 31
4
 12
-13.9645471572876
 22
13.0297708511353
 32
1
 13
-13.9645471572876
 23
13.0297708511353
 33
1
 0
3DFACE
 8
STL2DXF
 10
-13.9645471572876
 20
13.0297708511353
 30
4
 11
-13.9645471572876
 21
29.0297698974609
 31
1
 12
-13.9645471572876
 22
29.0297698974609
 32
4
 13
-13.9645471572876
 23
29.0297698974609
 33
4
 0
3DFACE
 8
STL2DXF
 10
-12.8256645202637
 20
29.0297698974609
 30
4
 11
-13.9645471572876
 21
29.0297698974609
 31
4
 12
-12.8256645202637
 22
29.0297698974609
 32
5
 13
-12.8256645202637
 23
29.0297698974609
 33
5
 0
3DFACE
 8
STL2DXF
 10
-16.6214332580566
 20
29.0297698974609
 30
5
 11
-13.9645471572876
 21
29.0297698974609
 31
4
 12
-16.6214332580566
 22
29.0297698974609
 32
1
 13
-16.6214332580566
 23
29.0297698974609
 33
1
 0
3DFACE
 8
STL2DXF
 10
-13.9645471572876
 20
29.0297698974609
 30
4
 11
-16.6214332580566
 21
29.0297698974609
 31
5
 12
-12.8256645202637
 22
29.0297698974609
 32
5
 13
-12.8256645202637
 23
29.0297698974609
 33
5
 0
3DFACE
 8
STL2DXF
 10
-16.6214332580566
 20
29.0297698974609
 30
1
 11
-13.9645471572876
 21
29.0297698974609
 31
4
 12
-13.9645471572876
 22
29.0297698974609
 32
1
 13
-13.9645471572876
 23
29.0297698974609
 33
1
 0
3DFACE
 8
STL2DXF
 10
10.7790584564209
 20
-8.04226207733154
 30
1
 11
-13.4635820388794
 21
-8.04226207733154
 31
4
 12
10.7790584564209
 22
-8.04226207733154
 32
4
 13
10.7790584564209
 23
-8.04226207733154
 33
4
 0
3DFACE
 8
STL2DXF
 10
-13.4635820388794
 20
-8.04226207733154
 30
4
 11
10.7790584564209
 21
-8.04226207733154
 31
1
 12
-13.4635820388794
 22
-8.04226207733154
 32
1
 13
-13.4635820388794
 23
-8.04226207733154
 33
1
 0
3DFACE
 8
STL2DXF
 10
-15.0129222869873
 20
68.1102828979492
 30
4
 11
-15.0129222869873
 21
69.587646484375
 31
4
 12
9.09707832336426
 22
68.1102828979492
 32
4
 13
9.09707832336426
 23
68.1102828979492
 33
4
 0
3DFACE
 8
STL2DXF
 10
20.5823593139648
 20
56.625
 30
4
 11
26.4367713928223
 21
56.6761131286621
 31
4
 12
26.8250007629395
 22
56.625
 32
4
 13
26.8250007629395
 23
56.625
 33
4
 0
3DFACE
 8
STL2DXF
 10
26.4367713928223
 20
56.6761131286621
 30
4
 11
20.5823593139648
 21
56.625
 31
4
 12
26.0750007629395
 22
56.8259620666504
 32
4
 13
26.0750007629395
 23
56.8259620666504
 33
4
 0
3DFACE
 8
STL2DXF
 10
26.0750007629395
 20
56.8259620666504
 30
4
 11
20.5823593139648
 21
56.625
 31
4
 12
25.7643394470215
 22
57.064338684082
 32
4
 13
25.7643394470215
 23
57.064338684082
 33
4
 0
3DFACE
 8
STL2DXF
 10
25.7643394470215
 20
57.064338684082
 30
4
 11
20.5823593139648
 21
56.625
 31
4
 12
25.5259628295898
 22
57.375
 32
4
 13
25.5259628295898
 23
57.375
 33
4
 0
3DFACE
 8
STL2DXF
 10
25.5259628295898
 20
57.375
 30
4
 11
20.5823593139648
 21
56.625
 31
4
 12
25.3761119842529
 22
57.7367706298828
 32
4
 13
25.3761119842529
 23
57.7367706298828
 33
4
 0
3DFACE
 8
STL2DXF
 10
25.3761119842529
 20
57.7367706298828
 30
4
 11
20.5823593139648
 21
56.625
 31
4
 12
25.3250007629395
 22
58.125
 32
4
 13
25.3250007629395
 23
58.125
 33
4
 0
3DFACE
 8
STL2DXF
 10
25.3250007629395
 20
58.125
 30
4
 11
20.5823593139648
 21
56.625
 31
4
 12
21.8250007629395
 22
59.625
 32
4
 13
21.8250007629395
 23
59.625
 33
4
 0
3DFACE
 8
STL2DXF
 10
21.8250007629395
 20
59.625
 30
4
 11
20.5823593139648
 21
56.625
 31
4
 12
10.3397188186646
 22
71.1102828979492
 32
4
 13
10.3397188186646
 23
71.1102828979492
 33
4
 0
3DFACE
 8
STL2DXF
 10
10.3397188186646
 20
71.1102828979492
 30
4
 11
20.5823593139648
 21
56.625
 31
4
 12
9.09707832336426
 22
68.1102828979492
 32
4
 13
9.09707832336426
 23
68.1102828979492
 33
4
 0
3DFACE
 8
STL2DXF
 10
10.3397188186646
 20
71.1102828979492
 30
4
 11
9.09707832336426
 21
68.1102828979492
 31
4
 12
-15.0129222869873
 22
71.1102828979492
 32
4
 13
-15.0129222869873
 23
71.1102828979492
 33
4
 0
3DFACE
 8
STL2DXF
 10
-15.0129222869873
 20
71.1102828979492
 30
4
 11
9.09707832336426
 21
68.1102828979492
 31
4
 12
-15.0129222869873
 22
69.587646484375
 32
4
 13
-15.0129222869873
 23
69.587646484375
 33
4
 0
3DFACE
 8
STL2DXF
 10
-15.0129222869873
 20
71.1102828979492
 30
4
 11
-15.0129222869873
 21
69.587646484375
 31
4
 12
-15.4209108352661
 22
71.1102828979492
 32
4
 13
-15.4209108352661
 23
71.1102828979492
 33
4
 0
3DFACE
 8
STL2DXF
 10
26.4367713928223
 20
59.5738868713379
 30
4
 11
21.8250007629395
 21
59.625
 31
4
 12
26.8250007629395
 22
59.625
 32
4
 13
26.8250007629395
 23
59.625
 33
4
 0
3DFACE
 8
STL2DXF
 10
21.8250007629395
 20
59.625
 30
4
 11
26.4367713928223
 21
59.5738868713379
 31
4
 12
26.0750007629395
 22
59.4240379333496
 32
4
 13
26.0750007629395
 23
59.4240379333496
 33
4
 0
3DFACE
 8
STL2DXF
 10
21.8250007629395
 20
59.625
 30
4
 11
26.0750007629395
 21
59.4240379333496
 31
4
 12
25.7643394470215
 22
59.185661315918
 32
4
 13
25.7643394470215
 23
59.185661315918
 33
4
 0
3DFACE
 8
STL2DXF
 10
21.8250007629395
 20
59.625
 30
4
 11
25.7643394470215
 21
59.185661315918
 31
4
 12
25.5259628295898
 22
58.875
 32
4
 13
25.5259628295898
 23
58.875
 33
4
 0
3DFACE
 8
STL2DXF
 10
21.8250007629395
 20
59.625
 30
4
 11
25.5259628295898
 21
58.875
 31
4
 12
25.3761119842529
 22
58.5132293701172
 32
4
 13
25.3761119842529
 23
58.5132293701172
 33
4
 0
3DFACE
 8
STL2DXF
 10
21.8250007629395
 20
59.625
 30
4
 11
25.3761119842529
 21
58.5132293701172
 31
4
 12
25.3250007629395
 22
58.125
 32
4
 13
25.3250007629395
 23
58.125
 33
4
 0
3DFACE
 8
STL2DXF
 10
28.273889541626
 20
58.5132293701172
 30
1
 11
28.273889541626
 21
57.7367706298828
 31
1
 12
28.3250007629395
 22
58.125
 32
1
 13
28.3250007629395
 23
58.125
 33
1
 0
3DFACE
 8
STL2DXF
 10
28.273889541626
 20
57.7367706298828
 30
1
 11
28.273889541626
 21
58.5132293701172
 31
1
 12
28.1240386962891
 22
58.875
 32
1
 13
28.1240386962891
 23
58.875
 33
1
 0
3DFACE
 8
STL2DXF
 10
28.273889541626
 20
57.7367706298828
 30
1
 11
28.1240386962891
 21
58.875
 31
1
 12
28.1240386962891
 22
57.375
 32
1
 13
28.1240386962891
 23
57.375
 33
1
 0
3DFACE
 8
STL2DXF
 10
28.1240386962891
 20
57.375
 30
1
 11
28.1240386962891
 21
58.875
 31
1
 12
27.8856601715088
 22
59.185661315918
 32
1
 13
27.8856601715088
 23
59.185661315918
 33
1
 0
3DFACE
 8
STL2DXF
 10
28.1240386962891
 20
57.375
 30
1
 11
27.8856601715088
 21
59.185661315918
 31
1
 12
27.8856601715088
 22
57.064338684082
 32
1
 13
27.8856601715088
 23
57.064338684082
 33
1
 0
3DFACE
 8
STL2DXF
 10
27.8856601715088
 20
57.064338684082
 30
1
 11
27.8856601715088
 21
59.185661315918
 31
1
 12
27.5750007629395
 22
59.4240379333496
 32
1
 13
27.5750007629395
 23
59.4240379333496
 33
1
 0
3DFACE
 8
STL2DXF
 10
27.8856601715088
 20
57.064338684082
 30
1
 11
27.5750007629395
 21
59.4240379333496
 31
1
 12
27.5750007629395
 22
56.8259620666504
 32
1
 13
27.5750007629395
 23
56.8259620666504
 33
1
 0
3DFACE
 8
STL2DXF
 10
27.5750007629395
 20
56.8259620666504
 30
1
 11
27.5750007629395
 21
59.4240379333496
 31
1
 12
27.213228225708
 22
59.5738868713379
 32
1
 13
27.213228225708
 23
59.5738868713379
 33
1
 0
3DFACE
 8
STL2DXF
 10
27.5750007629395
 20
56.8259620666504
 30
1
 11
27.213228225708
 21
59.5738868713379
 31
1
 12
27.213228225708
 22
56.6761131286621
 32
1
 13
27.213228225708
 23
56.6761131286621
 33
1
 0
3DFACE
 8
STL2DXF
 10
27.213228225708
 20
56.6761131286621
 30
1
 11
27.213228225708
 21
59.5738868713379
 31
1
 12
26.8250007629395
 22
59.625
 32
1
 13
26.8250007629395
 23
59.625
 33
1
 0
3DFACE
 8
STL2DXF
 10
27.213228225708
 20
56.6761131286621
 30
1
 11
26.8250007629395
 21
59.625
 31
1
 12
26.8250007629395
 22
56.625
 32
1
 13
26.8250007629395
 23
56.625
 33
1
 0
3DFACE
 8
STL2DXF
 10
26.8250007629395
 20
56.625
 30
1
 11
26.8250007629395
 21
59.625
 31
1
 12
21.8250007629395
 22
59.625
 32
1
 13
21.8250007629395
 23
59.625
 33
1
 0
3DFACE
 8
STL2DXF
 10
26.8250007629395
 20
56.625
 30
1
 11
21.8250007629395
 21
59.625
 31
1
 12
20.5823593139648
 22
56.625
 32
1
 13
20.5823593139648
 23
56.625
 33
1
 0
3DFACE
 8
STL2DXF
 10
20.5823593139648
 20
56.625
 30
1
 11
21.8250007629395
 21
59.625
 31
1
 12
10.3397188186646
 22
71.1102828979492
 32
1
 13
10.3397188186646
 23
71.1102828979492
 33
1
 0
3DFACE
 8
STL2DXF
 10
20.5823593139648
 20
56.625
 30
1
 11
10.3397188186646
 21
71.1102828979492
 31
1
 12
9.09707832336426
 22
68.1102828979492
 32
1
 13
9.09707832336426
 23
68.1102828979492
 33
1
 0
3DFACE
 8
STL2DXF
 10
9.09707832336426
 20
68.1102828979492
 30
1
 11
10.3397188186646
 21
71.1102828979492
 31
1
 12
-15.4209108352661
 22
71.1102828979492
 32
1
 13
-15.4209108352661
 23
71.1102828979492
 33
1
 0
3DFACE
 8
STL2DXF
 10
9.09707832336426
 20
68.1102828979492
 30
1
 11
-15.4209108352661
 21
71.1102828979492
 31
1
 12
-15.0129222869873
 22
68.1102828979492
 32
1
 13
-15.0129222869873
 23
68.1102828979492
 33
1
 0
3DFACE
 8
STL2DXF
 10
-15.0129222869873
 20
68.1102828979492
 30
1
 11
-15.4209108352661
 21
71.1102828979492
 31
1
 12
-15.0129222869873
 22
62.6102828979492
 32
1
 13
-15.0129222869873
 23
62.6102828979492
 33
1
 0
3DFACE
 8
STL2DXF
 10
-15.0129222869873
 20
62.6102828979492
 30
1
 11
-15.4209108352661
 21
71.1102828979492
 31
1
 12
-19.3549995422363
 22
62.6102828979492
 32
1
 13
-19.3549995422363
 23
62.6102828979492
 33
1
 0
3DFACE
 8
STL2DXF
 10
-19.3549995422363
 20
62.6102828979492
 30
1
 11
-15.4209108352661
 21
71.1102828979492
 31
1
 12
-16.3587322235107
 22
74.6102828979492
 32
1
 13
-16.3587322235107
 23
74.6102828979492
 33
1
 0
3DFACE
 8
STL2DXF
 10
-19.3549995422363
 20
62.6102828979492
 30
1
 11
-16.3587322235107
 21
74.6102828979492
 31
1
 12
-21.5129222869873
 22
74.6102828979492
 32
1
 13
-21.5129222869873
 23
74.6102828979492
 33
1
 0
3DFACE
 8
STL2DXF
 10
-19.3549995422363
 20
62.6102828979492
 30
1
 11
-21.5129222869873
 21
74.6102828979492
 31
1
 12
-21.5129222869873
 22
70.6637573242188
 32
1
 13
-21.5129222869873
 23
70.6637573242188
 33
1
 0
3DFACE
 8
STL2DXF
 10
-15.4209108352661
 20
71.1102828979492
 30
4
 11
10.3397188186646
 21
71.1102828979492
 31
4
 12
-15.0129222869873
 22
71.1102828979492
 32
4
 13
-15.0129222869873
 23
71.1102828979492
 33
4
 0
3DFACE
 8
STL2DXF
 10
10.3397188186646
 20
71.1102828979492
 30
4
 11
-15.4209108352661
 21
71.1102828979492
 31
4
 12
10.3397188186646
 22
71.1102828979492
 32
1
 13
10.3397188186646
 23
71.1102828979492
 33
1
 0
3DFACE
 8
STL2DXF
 10
10.3397188186646
 20
71.1102828979492
 30
1
 11
-15.4209108352661
 21
71.1102828979492
 31
4
 12
-15.4209108352661
 22
71.1102828979492
 32
1
 13
-15.4209108352661
 23
71.1102828979492
 33
1
 0
3DFACE
 8
STL2DXF
 10
-16.3587322235107
 20
74.6102828979492
 30
5
 11
-15.0129222869873
 21
69.587646484375
 31
4
 12
-15.0129222869873
 22
69.587646484375
 32
5
 13
-15.0129222869873
 23
69.587646484375
 33
5
 0
3DFACE
 8
STL2DXF
 10
-15.0129222869873
 20
69.587646484375
 30
4
 11
-16.3587322235107
 21
74.6102828979492
 31
5
 12
-15.4209108352661
 22
71.1102828979492
 32
4
 13
-15.4209108352661
 23
71.1102828979492
 33
4
 0
3DFACE
 8
STL2DXF
 10
-15.4209108352661
 20
71.1102828979492
 30
4
 11
-16.3587322235107
 21
74.6102828979492
 31
5
 12
-15.4209108352661
 22
71.1102828979492
 32
1
 13
-15.4209108352661
 23
71.1102828979492
 33
1
 0
3DFACE
 8
STL2DXF
 10
-15.4209108352661
 20
71.1102828979492
 30
1
 11
-16.3587322235107
 21
74.6102828979492
 31
5
 12
-16.3587322235107
 22
74.6102828979492
 32
1
 13
-16.3587322235107
 23
74.6102828979492
 33
1
 0
3DFACE
 8
STL2DXF
 10
-15.0129222869873
 20
62.6102828979492
 30
1
 11
-19.3549995422363
 21
62.6102828979492
 31
5
 12
-15.0129222869873
 22
62.6102828979492
 32
5
 13
-15.0129222869873
 23
62.6102828979492
 33
5
 0
3DFACE
 8
STL2DXF
 10
-19.3549995422363
 20
62.6102828979492
 30
5
 11
-15.0129222869873
 21
62.6102828979492
 31
1
 12
-19.3549995422363
 22
62.6102828979492
 32
1
 13
-19.3549995422363
 23
62.6102828979492
 33
1
 0
3DFACE
 8
STL2DXF
 10
-21.5129222869873
 20
74.6102828979492
 30
1
 11
-21.5129222869873
 21
70.6637573242188
 31
5
 12
-21.5129222869873
 22
70.6637573242188
 32
1
 13
-21.5129222869873
 23
70.6637573242188
 33
1
 0
3DFACE
 8
STL2DXF
 10
-21.5129222869873
 20
70.6637573242188
 30
5
 11
-21.5129222869873
 21
74.6102828979492
 31
1
 12
-21.5129222869873
 22
74.6102828979492
 32
5
 13
-21.5129222869873
 23
74.6102828979492
 33
5
 0
3DFACE
 8
STL2DXF
 10
-21.5129222869873
 20
70.6637573242188
 30
1
 11
-19.3549995422363
 21
62.6102828979492
 31
5
 12
-19.3549995422363
 22
62.6102828979492
 32
1
 13
-19.3549995422363
 23
62.6102828979492
 33
1
 0
3DFACE
 8
STL2DXF
 10
-19.3549995422363
 20
62.6102828979492
 30
5
 11
-21.5129222869873
 21
70.6637573242188
 31
1
 12
-21.5129222869873
 22
70.6637573242188
 32
5
 13
-21.5129222869873
 23
70.6637573242188
 33
5
 0
3DFACE
 8
STL2DXF
 10
16.8250007629395
 20
6.625
 30
4
 11
26.4367713928223
 21
6.67611122131348
 31
4
 12
26.8250007629395
 22
6.625
 32
4
 13
26.8250007629395
 23
6.625
 33
4
 0
3DFACE
 8
STL2DXF
 10
26.4367713928223
 20
6.67611122131348
 30
4
 11
16.8250007629395
 21
6.625
 31
4
 12
26.0750007629395
 22
6.82596206665039
 32
4
 13
26.0750007629395
 23
6.82596206665039
 33
4
 0
3DFACE
 8
STL2DXF
 10
26.0750007629395
 20
6.82596206665039
 30
4
 11
16.8250007629395
 21
6.625
 31
4
 12
25.7643394470215
 22
7.06433963775635
 32
4
 13
25.7643394470215
 23
7.06433963775635
 33
4
 0
3DFACE
 8
STL2DXF
 10
25.7643394470215
 20
7.06433963775635
 30
4
 11
16.8250007629395
 21
6.625
 31
4
 12
25.5259628295898
 22
7.375
 32
4
 13
25.5259628295898
 23
7.375
 33
4
 0
3DFACE
 8
STL2DXF
 10
25.5259628295898
 20
7.375
 30
4
 11
16.8250007629395
 21
6.625
 31
4
 12
25.3761119842529
 22
7.73677158355713
 32
4
 13
25.3761119842529
 23
7.73677158355713
 33
4
 0
3DFACE
 8
STL2DXF
 10
25.3761119842529
 20
7.73677158355713
 30
4
 11
16.8250007629395
 21
6.625
 31
4
 12
25.3250007629395
 22
8.125
 32
4
 13
25.3250007629395
 23
8.125
 33
4
 0
3DFACE
 8
STL2DXF
 10
26.4367713928223
 20
9.57388877868652
 30
4
 11
15.5823593139648
 21
9.625
 31
4
 12
26.8250007629395
 22
9.625
 32
4
 13
26.8250007629395
 23
9.625
 33
4
 0
3DFACE
 8
STL2DXF
 10
15.5823593139648
 20
9.625
 30
4
 11
26.4367713928223
 21
9.57388877868652
 31
4
 12
26.0750007629395
 22
9.42403793334961
 32
4
 13
26.0750007629395
 23
9.42403793334961
 33
4
 0
3DFACE
 8
STL2DXF
 10
15.5823593139648
 20
9.625
 30
4
 11
26.0750007629395
 21
9.42403793334961
 31
4
 12
25.7643394470215
 22
9.18566036224365
 32
4
 13
25.7643394470215
 23
9.18566036224365
 33
4
 0
3DFACE
 8
STL2DXF
 10
15.5823593139648
 20
9.625
 30
4
 11
25.7643394470215
 21
9.18566036224365
 31
4
 12
25.5259628295898
 22
8.875
 32
4
 13
25.5259628295898
 23
8.875
 33
4
 0
3DFACE
 8
STL2DXF
 10
15.5823593139648
 20
9.625
 30
4
 11
25.5259628295898
 21
8.875
 31
4
 12
25.3761119842529
 22
8.51322841644287
 32
4
 13
25.3761119842529
 23
8.51322841644287
 33
4
 0
3DFACE
 8
STL2DXF
 10
15.5823593139648
 20
9.625
 30
4
 11
25.3761119842529
 21
8.51322841644287
 31
4
 12
25.3250007629395
 22
8.125
 32
4
 13
25.3250007629395
 23
8.125
 33
4
 0
3DFACE
 8
STL2DXF
 10
15.5823593139648
 20
9.625
 30
4
 11
25.3250007629395
 21
8.125
 31
4
 12
16.8250007629395
 22
6.625
 32
4
 13
16.8250007629395
 23
6.625
 33
4
 0
3DFACE
 8
STL2DXF
 10
15.5823593139648
 20
9.625
 30
4
 11
16.8250007629395
 21
6.625
 31
4
 12
8.87525272369385
 22
-1.32474744319916
 32
4
 13
8.87525272369385
 23
-1.32474744319916
 33
4
 0
3DFACE
 8
STL2DXF
 10
15.5823593139648
 20
9.625
 30
4
 11
8.87525272369385
 21
-1.32474744319916
 31
4
 12
7.6326117515564
 22
1.67525255680084
 32
4
 13
7.6326117515564
 23
1.67525255680084
 33
4
 0
3DFACE
 8
STL2DXF
 10
7.6326117515564
 20
1.67525255680084
 30
4
 11
8.87525272369385
 21
-1.32474744319916
 31
4
 12
0.389971166849136
 22
-1.32474744319916
 32
4
 13
0.389971166849136
 23
-1.32474744319916
 33
4
 0
3DFACE
 8
STL2DXF
 10
7.6326117515564
 20
1.67525255680084
 30
4
 11
0.389971166849136
 21
-1.32474744319916
 31
4
 12
1.63261187076569
 22
1.67525255680084
 32
4
 13
1.63261187076569
 23
1.67525255680084
 33
4
 0
3DFACE
 8
STL2DXF
 10
1.63261187076569
 20
1.67525255680084
 30
4
 11
0.389971166849136
 21
-1.32474744319916
 31
4
 12
-10.9645471572876
 22
14.2724113464355
 32
4
 13
-10.9645471572876
 23
14.2724113464355
 33
4
 0
3DFACE
 8
STL2DXF
 10
-10.9645471572876
 20
14.2724113464355
 30
4
 11
0.389971166849136
 21
-1.32474744319916
 31
4
 12
-13.9645471572876
 22
13.0297708511353
 32
4
 13
-13.9645471572876
 23
13.0297708511353
 33
4
 0
3DFACE
 8
STL2DXF
 10
-10.9645471572876
 20
14.2724113464355
 30
4
 11
-13.9645471572876
 21
13.0297708511353
 31
4
 12
-10.9645471572876
 22
29.0297698974609
 32
4
 13
-10.9645471572876
 23
29.0297698974609
 33
4
 0
3DFACE
 8
STL2DXF
 10
-10.9645471572876
 20
29.0297698974609
 30
4
 11
-13.9645471572876
 21
13.0297708511353
 31
4
 12
-12.8256645202637
 22
29.0297698974609
 32
4
 13
-12.8256645202637
 23
29.0297698974609
 33
4
 0
3DFACE
 8
STL2DXF
 10
-12.8256645202637
 20
29.0297698974609
 30
4
 11
-13.9645471572876
 21
13.0297708511353
 31
4
 12
-13.9645471572876
 22
29.0297698974609
 32
4
 13
-13.9645471572876
 23
29.0297698974609
 33
4
 0
3DFACE
 8
STL2DXF
 10
-23.9635829925537
 20
-7.50822496414185
 30
5
 11
-15.4690093994141
 21
-9.78433895111084
 31
4
 12
-15.4690093994141
 22
-9.78433895111084
 32
5
 13
-15.4690093994141
 23
-9.78433895111084
 33
5
 0
3DFACE
 8
STL2DXF
 10
-15.4690093994141
 20
-9.78433895111084
 30
4
 11
-23.9635829925537
 21
-7.50822496414185
 31
5
 12
-23.9635829925537
 22
-7.50822496414185
 32
1
 13
-23.9635829925537
 23
-7.50822496414185
 33
1
 0
3DFACE
 8
STL2DXF
 10
-15.4690093994141
 20
-9.78433895111084
 30
4
 11
-23.9635829925537
 21
-7.50822496414185
 31
1
 12
-15.4690093994141
 22
-9.78433895111084
 32
1
 13
-15.4690093994141
 23
-9.78433895111084
 33
1
 0
3DFACE
 8
STL2DXF
 10
-13.4635820388794
 20
-2.29998183250427
 30
4
 11
-15.4690093994141
 21
-9.78433895111084
 31
5
 12
-15.4690093994141
 22
-9.78433895111084
 32
4
 13
-15.4690093994141
 23
-9.78433895111084
 33
4
 0
3DFACE
 8
STL2DXF
 10
-15.4690093994141
 20
-9.78433895111084
 30
5
 11
-13.4635820388794
 21
-2.29998183250427
 31
4
 12
-13.4635820388794
 22
-2.29998183250427
 32
5
 13
-13.4635820388794
 23
-2.29998183250427
 33
5
 0
3DFACE
 8
STL2DXF
 10
38.2738876342773
 20
7.73677158355713
 30
1
 11
38.2738876342773
 21
8.51322841644287
 31
1
 12
38.3250007629395
 22
8.125
 32
1
 13
38.3250007629395
 23
8.125
 33
1
 0
3DFACE
 8
STL2DXF
 10
38.2738876342773
 20
8.51322841644287
 30
1
 11
38.2738876342773
 21
7.73677158355713
 31
1
 12
38.1240386962891
 22
7.375
 32
1
 13
38.1240386962891
 23
7.375
 33
1
 0
3DFACE
 8
STL2DXF
 10
38.2738876342773
 20
8.51322841644287
 30
1
 11
38.1240386962891
 21
7.375
 31
1
 12
38.1240386962891
 22
8.875
 32
1
 13
38.1240386962891
 23
8.875
 33
1
 0
3DFACE
 8
STL2DXF
 10
38.1240386962891
 20
8.875
 30
1
 11
38.1240386962891
 21
7.375
 31
1
 12
37.8856620788574
 22
7.06433963775635
 32
1
 13
37.8856620788574
 23
7.06433963775635
 33
1
 0
3DFACE
 8
STL2DXF
 10
38.1240386962891
 20
8.875
 30
1
 11
37.8856620788574
 21
7.06433963775635
 31
1
 12
37.8856620788574
 22
9.18566036224365
 32
1
 13
37.8856620788574
 23
9.18566036224365
 33
1
 0
3DFACE
 8
STL2DXF
 10
37.8856620788574
 20
9.18566036224365
 30
1
 11
37.8856620788574
 21
7.06433963775635
 31
1
 12
31.9662418365479
 22
1.14492249488831
 32
1
 13
31.9662418365479
 23
1.14492249488831
 33
1
 0
3DFACE
 8
STL2DXF
 10
37.8856620788574
 20
9.18566036224365
 30
1
 11
31.9662418365479
 21
1.14492249488831
 31
1
 12
37.5750007629395
 22
9.42403793334961
 32
1
 13
37.5750007629395
 23
9.42403793334961
 33
1
 0
3DFACE
 8
STL2DXF
 10
37.5750007629395
 20
9.42403793334961
 30
1
 11
31.9662418365479
 21
1.14492249488831
 31
1
 12
37.2132301330566
 22
9.57388877868652
 32
1
 13
37.2132301330566
 23
9.57388877868652
 33
1
 0
3DFACE
 8
STL2DXF
 10
37.2132301330566
 20
9.57388877868652
 30
1
 11
31.9662418365479
 21
1.14492249488831
 31
1
 12
36.8250007629395
 22
9.625
 32
1
 13
36.8250007629395
 23
9.625
 33
1
 0
3DFACE
 8
STL2DXF
 10
36.8250007629395
 20
9.625
 30
1
 11
31.9662418365479
 21
1.14492249488831
 31
1
 12
36.4367713928223
 22
9.57388877868652
 32
1
 13
36.4367713928223
 23
9.57388877868652
 33
1
 0
3DFACE
 8
STL2DXF
 10
36.4367713928223
 20
9.57388877868652
 30
1
 11
31.9662418365479
 21
1.14492249488831
 31
1
 12
36.0750007629395
 22
9.42403793334961
 32
1
 13
36.0750007629395
 23
9.42403793334961
 33
1
 0
3DFACE
 8
STL2DXF
 10
36.0750007629395
 20
9.42403793334961
 30
1
 11
31.9662418365479
 21
1.14492249488831
 31
1
 12
35.7643394470215
 22
9.18566036224365
 32
1
 13
35.7643394470215
 23
9.18566036224365
 33
1
 0
3DFACE
 8
STL2DXF
 10
35.7643394470215
 20
9.18566036224365
 30
1
 11
31.9662418365479
 21
1.14492249488831
 31
1
 12
30.7288055419922
 22
4.15012645721436
 32
1
 13
30.7288055419922
 23
4.15012645721436
 33
1
 0
3DFACE
 8
STL2DXF
 10
30.7288055419922
 20
4.15012645721436
 30
1
 11
31.9662418365479
 21
1.14492249488831
 31
1
 12
19.9714469909668
 22
1.15012621879578
 32
1
 13
19.9714469909668
 23
1.15012621879578
 33
1
 0
3DFACE
 8
STL2DXF
 10
30.7288055419922
 20
4.15012645721436
 30
1
 11
19.9714469909668
 21
1.15012621879578
 31
1
 12
18.7288055419922
 22
4.15012645721436
 32
1
 13
18.7288055419922
 23
4.15012645721436
 33
1
 0
3DFACE
 8
STL2DXF
 10
18.7288055419922
 20
4.15012645721436
 30
1
 11
19.9714469909668
 21
1.15012621879578
 31
1
 12
10.7790584564209
 22
-8.04226207733154
 32
1
 13
10.7790584564209
 23
-8.04226207733154
 33
1
 0
3DFACE
 8
STL2DXF
 10
18.7288055419922
 20
4.15012645721436
 30
1
 11
10.7790584564209
 21
-8.04226207733154
 31
1
 12
9.53641796112061
 22
-5.04226207733154
 32
1
 13
9.53641796112061
 23
-5.04226207733154
 33
1
 0
3DFACE
 8
STL2DXF
 10
9.53641796112061
 20
-5.04226207733154
 30
1
 11
10.7790584564209
 21
-8.04226207733154
 31
1
 12
-13.4635820388794
 22
-8.04226207733154
 32
1
 13
-13.4635820388794
 23
-8.04226207733154
 33
1
 0
3DFACE
 8
STL2DXF
 10
9.53641796112061
 20
-5.04226207733154
 30
1
 11
-13.4635820388794
 21
-8.04226207733154
 31
1
 12
-13.4635820388794
 22
-5.04226207733154
 32
1
 13
-13.4635820388794
 23
-5.04226207733154
 33
1
 0
3DFACE
 8
STL2DXF
 10
-13.4635820388794
 20
-5.04226207733154
 30
1
 11
-13.4635820388794
 21
-8.04226207733154
 31
1
 12
-15.4690093994141
 22
-9.78433895111084
 32
1
 13
-15.4690093994141
 23
-9.78433895111084
 33
1
 0
3DFACE
 8
STL2DXF
 10
-13.4635820388794
 20
-5.04226207733154
 30
1
 11
-15.4690093994141
 21
-9.78433895111084
 31
1
 12
-13.4635820388794
 22
-1.00420606136322
 32
1
 13
-13.4635820388794
 23
-1.00420606136322
 33
1
 0
3DFACE
 8
STL2DXF
 10
-13.4635820388794
 20
-1.00420606136322
 30
1
 11
-15.4690093994141
 21
-9.78433895111084
 31
1
 12
-22.7988967895508
 22
1.49718379974365
 32
1
 13
-22.7988967895508
 23
1.49718379974365
 33
1
 0
3DFACE
 8
STL2DXF
 10
-22.7988967895508
 20
1.49718379974365
 30
1
 11
-15.4690093994141
 21
-9.78433895111084
 31
1
 12
-23.9635829925537
 22
-7.50822496414185
 32
1
 13
-23.9635829925537
 23
-7.50822496414185
 33
1
 0
3DFACE
 8
STL2DXF
 10
-22.7988967895508
 20
1.49718379974365
 30
1
 11
-23.9635829925537
 21
-7.50822496414185
 31
1
 12
-23.9635829925537
 22
-2.84948229789734
 32
1
 13
-23.9635829925537
 23
-2.84948229789734
 33
1
 0
3DFACE
 8
STL2DXF
 10
-13.4635820388794
 20
-1.00420606136322
 30
5
 11
-22.7988967895508
 21
1.49718379974365
 31
1
 12
-22.7988967895508
 22
1.49718379974365
 32
5
 13
-22.7988967895508
 23
1.49718379974365
 33
5
 0
3DFACE
 8
STL2DXF
 10
-22.7988967895508
 20
1.49718379974365
 30
1
 11
-13.4635820388794
 21
-1.00420606136322
 31
5
 12
-13.4635820388794
 22
-1.00420606136322
 32
1
 13
-13.4635820388794
 23
-1.00420606136322
 33
1
 0
3DFACE
 8
STL2DXF
 10
-22.7988967895508
 20
1.49718379974365
 30
5
 11
-23.9635829925537
 21
-2.84948229789734
 31
1
 12
-23.9635829925537
 22
-2.84948229789734
 32
5
 13
-23.9635829925537
 23
-2.84948229789734
 33
5
 0
3DFACE
 8
STL2DXF
 10
-23.9635829925537
 20
-2.84948229789734
 30
1
 11
-22.7988967895508
 21
1.49718379974365
 31
5
 12
-22.7988967895508
 22
1.49718379974365
 32
1
 13
-22.7988967895508
 23
1.49718379974365
 33
1
 0
3DFACE
 8
STL2DXF
 10
-15.4690093994141
 20
-9.78433895111084
 30
1
 11
-13.4635820388794
 21
-8.04226207733154
 31
4
 12
-15.4690093994141
 22
-9.78433895111084
 32
4
 13
-15.4690093994141
 23
-9.78433895111084
 33
4
 0
3DFACE
 8
STL2DXF
 10
-13.4635820388794
 20
-8.04226207733154
 30
4
 11
-15.4690093994141
 21
-9.78433895111084
 31
1
 12
-13.4635820388794
 22
-8.04226207733154
 32
1
 13
-13.4635820388794
 23
-8.04226207733154
 33
1
 0
3DFACE
 8
STL2DXF
 10
-15.4690093994141
 20
-9.78433895111084
 30
4
 11
-13.4635820388794
 21
-5.04226207733154
 31
4
 12
-13.4635820388794
 22
-2.29998183250427
 32
4
 13
-13.4635820388794
 23
-2.29998183250427
 33
4
 0
3DFACE
 8
STL2DXF
 10
-13.4635820388794
 20
-5.04226207733154
 30
4
 11
-15.4690093994141
 21
-9.78433895111084
 31
4
 12
-13.4635820388794
 22
-8.04226207733154
 32
4
 13
-13.4635820388794
 23
-8.04226207733154
 33
4
 0
3DFACE
 8
STL2DXF
 10
30.7288055419922
 20
4.15012645721436
 30
4
 11
35.5259628295898
 21
8.875
 31
4
 12
35.7643394470215
 22
9.18566036224365
 32
4
 13
35.7643394470215
 23
9.18566036224365
 33
4
 0
3DFACE
 8
STL2DXF
 10
35.5259628295898
 20
8.875
 30
4
 11
30.7288055419922
 21
4.15012645721436
 31
4
 12
35.3761100769043
 22
8.51322841644287
 32
4
 13
35.3761100769043
 23
8.51322841644287
 33
4
 0
3DFACE
 8
STL2DXF
 10
35.3761100769043
 20
8.51322841644287
 30
4
 11
30.7288055419922
 21
4.15012645721436
 31
4
 12
35.3250007629395
 22
8.125
 32
4
 13
35.3250007629395
 23
8.125
 33
4
 0
3DFACE
 8
STL2DXF
 10
35.3250007629395
 20
8.125
 30
4
 11
30.7288055419922
 21
4.15012645721436
 31
4
 12
31.9662418365479
 22
1.14492249488831
 32
4
 13
31.9662418365479
 23
1.14492249488831
 33
4
 0
3DFACE
 8
STL2DXF
 10
31.9662418365479
 20
1.14492249488831
 30
4
 11
30.7288055419922
 21
4.15012645721436
 31
4
 12
19.9714469909668
 22
1.15012621879578
 32
4
 13
19.9714469909668
 23
1.15012621879578
 33
4
 0
3DFACE
 8
STL2DXF
 10
19.9714469909668
 20
1.15012621879578
 30
4
 11
30.7288055419922
 21
4.15012645721436
 31
4
 12
18.7288055419922
 22
4.15012645721436
 32
4
 13
18.7288055419922
 23
4.15012645721436
 33
4
 0
3DFACE
 8
STL2DXF
 10
19.9714469909668
 20
1.15012621879578
 30
4
 11
18.7288055419922
 21
4.15012645721436
 31
4
 12
10.7790584564209
 22
-8.04226207733154
 32
4
 13
10.7790584564209
 23
-8.04226207733154
 33
4
 0
3DFACE
 8
STL2DXF
 10
10.7790584564209
 20
-8.04226207733154
 30
4
 11
18.7288055419922
 21
4.15012645721436
 31
4
 12
9.53641796112061
 22
-5.04226207733154
 32
4
 13
9.53641796112061
 23
-5.04226207733154
 33
4
 0
3DFACE
 8
STL2DXF
 10
10.7790584564209
 20
-8.04226207733154
 30
4
 11
9.53641796112061
 21
-5.04226207733154
 31
4
 12
-13.4635820388794
 22
-8.04226207733154
 32
4
 13
-13.4635820388794
 23
-8.04226207733154
 33
4
 0
3DFACE
 8
STL2DXF
 10
-13.4635820388794
 20
-8.04226207733154
 30
4
 11
9.53641796112061
 21
-5.04226207733154
 31
4
 12
-13.4635820388794
 22
-5.04226207733154
 32
4
 13
-13.4635820388794
 23
-5.04226207733154
 33
4
 0
3DFACE
 8
STL2DXF
 10
37.5750007629395
 20
6.82596206665039
 30
4
 11
31.9662418365479
 21
1.14492249488831
 31
4
 12
37.8856620788574
 22
7.06433963775635
 32
4
 13
37.8856620788574
 23
7.06433963775635
 33
4
 0
3DFACE
 8
STL2DXF
 10
31.9662418365479
 20
1.14492249488831
 30
4
 11
37.5750007629395
 21
6.82596206665039
 31
4
 12
37.2132301330566
 22
6.67611122131348
 32
4
 13
37.2132301330566
 23
6.67611122131348
 33
4
 0
3DFACE
 8
STL2DXF
 10
31.9662418365479
 20
1.14492249488831
 30
4
 11
37.2132301330566
 21
6.67611122131348
 31
4
 12
36.8250007629395
 22
6.625
 32
4
 13
36.8250007629395
 23
6.625
 33
4
 0
3DFACE
 8
STL2DXF
 10
31.9662418365479
 20
1.14492249488831
 30
4
 11
36.8250007629395
 21
6.625
 31
4
 12
36.4367713928223
 22
6.67611122131348
 32
4
 13
36.4367713928223
 23
6.67611122131348
 33
4
 0
3DFACE
 8
STL2DXF
 10
31.9662418365479
 20
1.14492249488831
 30
4
 11
36.4367713928223
 21
6.67611122131348
 31
4
 12
36.0750007629395
 22
6.82596206665039
 32
4
 13
36.0750007629395
 23
6.82596206665039
 33
4
 0
3DFACE
 8
STL2DXF
 10
31.9662418365479
 20
1.14492249488831
 30
4
 11
36.0750007629395
 21
6.82596206665039
 31
4
 12
35.7643394470215
 22
7.06433963775635
 32
4
 13
35.7643394470215
 23
7.06433963775635
 33
4
 0
3DFACE
 8
STL2DXF
 10
31.9662418365479
 20
1.14492249488831
 30
4
 11
35.7643394470215
 21
7.06433963775635
 31
4
 12
35.5259628295898
 22
7.375
 32
4
 13
35.5259628295898
 23
7.375
 33
4
 0
3DFACE
 8
STL2DXF
 10
31.9662418365479
 20
1.14492249488831
 30
4
 11
35.5259628295898
 21
7.375
 31
4
 12
35.3761100769043
 22
7.73677158355713
 32
4
 13
35.3761100769043
 23
7.73677158355713
 33
4
 0
3DFACE
 8
STL2DXF
 10
31.9662418365479
 20
1.14492249488831
 30
4
 11
35.3761100769043
 21
7.73677158355713
 31
4
 12
35.3250007629395
 22
8.125
 32
4
 13
35.3250007629395
 23
8.125
 33
4
 0
3DFACE
 8
STL2DXF
 10
-30
 20
-20
 30
-2.8421709430404E-14
 11
7.105427357601E-15
 21
-20
 31
5
 12
-30
 22
-20
 32
5
 13
-30
 23
-20
 33
5
 0
3DFACE
 8
STL2DXF
 10
7.105427357601E-15
 20
-20
 30
5
 11
-30
 21
-20
 31
-2.8421709430404E-14
 12
7.105427357601E-15
 22
-20
 32
8.88178419700125E-16
 13
7.105427357601E-15
 23
-20
 33
8.88178419700125E-16
 0
3DFACE
 8
STL2DXF
 10
-18.0443096160889
 20
30.5130939483643
 30
5
 11
-18.4645462036133
 21
32.4086608886719
 31
1
 12
-18.0443096160889
 22
30.5130939483643
 32
1
 13
-18.0443096160889
 23
30.5130939483643
 33
1
 0
3DFACE
 8
STL2DXF
 10
-18.4645462036133
 20
32.4086608886719
 30
1
 11
-18.0443096160889
 21
30.5130939483643
 31
5
 12
-18.4645462036133
 22
32.4086608886719
 32
5
 13
-18.4645462036133
 23
32.4086608886719
 33
5
 0
3DFACE
 8
STL2DXF
 10
-16.6214332580566
 20
29.0297698974609
 30
5
 11
-18.0443096160889
 21
30.5130939483643
 31
1
 12
-16.6214332580566
 22
29.0297698974609
 32
1
 13
-16.6214332580566
 23
29.0297698974609
 33
1
 0
3DFACE
 8
STL2DXF
 10
-18.0443096160889
 20
30.5130939483643
 30
1
 11
-16.6214332580566
 21
29.0297698974609
 31
5
 12
-18.0443096160889
 22
30.5130939483643
 32
5
 13
-18.0443096160889
 23
30.5130939483643
 33
5
 0
3DFACE
 8
STL2DXF
 10
-14.5536432266235
 20
35.9923439025879
 30
1
 11
-13.0865516662598
 21
35.5297698974609
 31
5
 12
-14.5536432266235
 22
35.9923439025879
 32
5
 13
-14.5536432266235
 23
35.9923439025879
 33
5
 0
3DFACE
 8
STL2DXF
 10
-13.0865516662598
 20
35.5297698974609
 30
5
 11
-14.5536432266235
 21
35.9923439025879
 31
1
 12
-13.0865516662598
 22
35.5297698974609
 32
1
 13
-13.0865516662598
 23
35.5297698974609
 33
1
 0
3DFACE
 8
STL2DXF
 10
-16.4492092132568
 20
35.5721054077148
 30
1
 11
-14.5536432266235
 21
35.9923439025879
 31
5
 12
-16.4492092132568
 22
35.5721054077148
 32
5
 13
-16.4492092132568
 23
35.5721054077148
 33
5
 0
3DFACE
 8
STL2DXF
 10
-14.5536432266235
 20
35.9923439025879
 30
5
 11
-16.4492092132568
 21
35.5721054077148
 31
1
 12
-14.5536432266235
 22
35.9923439025879
 32
1
 13
-14.5536432266235
 23
35.9923439025879
 33
1
 0
3DFACE
 8
STL2DXF
 10
-16.4954109191895
 20
35.5297698974609
 30
1
 11
-16.4492092132568
 21
35.5721054077148
 31
5
 12
-16.4954109191895
 22
35.5297698974609
 32
5
 13
-16.4954109191895
 23
35.5297698974609
 33
5
 0
3DFACE
 8
STL2DXF
 10
-16.4492092132568
 20
35.5721054077148
 30
5
 11
-16.4954109191895
 21
35.5297698974609
 31
1
 12
-16.4492092132568
 22
35.5721054077148
 32
1
 13
-16.4492092132568
 23
35.5721054077148
 33
1
 0
3DFACE
 8
STL2DXF
 10
-16.4954109191895
 20
35.5297698974609
 30
1
 11
-17.8806991577148
 21
34.2603874206543
 31
5
 12
-16.4954109191895
 22
35.5297698974609
 32
5
 13
-16.4954109191895
 23
35.5297698974609
 33
5
 0
3DFACE
 8
STL2DXF
 10
-17.8806991577148
 20
34.2603874206543
 30
5
 11
-16.4954109191895
 21
35.5297698974609
 31
1
 12
-17.8806991577148
 22
34.2603874206543
 32
1
 13
-17.8806991577148
 23
34.2603874206543
 33
1
 0
3DFACE
 8
STL2DXF
 10
-18.4645462036133
 20
32.4086608886719
 30
5
 11
-17.8806991577148
 21
34.2603874206543
 31
1
 12
-18.4645462036133
 22
32.4086608886719
 32
1
 13
-18.4645462036133
 23
32.4086608886719
 33
1
 0
3DFACE
 8
STL2DXF
 10
-17.8806991577148
 20
34.2603874206543
 30
1
 11
-18.4645462036133
 21
32.4086608886719
 31
5
 12
-17.8806991577148
 22
34.2603874206543
 32
5
 13
-17.8806991577148
 23
34.2603874206543
 33
5
 0
3DFACE
 8
STL2DXF
 10
28.273889541626
 20
7.73677158355713
 30
1
 11
28.273889541626
 21
8.51322841644287
 31
1
 12
28.3250007629395
 22
8.125
 32
1
 13
28.3250007629395
 23
8.125
 33
1
 0
3DFACE
 8
STL2DXF
 10
28.273889541626
 20
8.51322841644287
 30
1
 11
28.273889541626
 21
7.73677158355713
 31
1
 12
28.1240386962891
 22
7.375
 32
1
 13
28.1240386962891
 23
7.375
 33
1
 0
3DFACE
 8
STL2DXF
 10
28.273889541626
 20
8.51322841644287
 30
1
 11
28.1240386962891
 21
7.375
 31
1
 12
28.1240386962891
 22
8.875
 32
1
 13
28.1240386962891
 23
8.875
 33
1
 0
3DFACE
 8
STL2DXF
 10
28.1240386962891
 20
8.875
 30
1
 11
28.1240386962891
 21
7.375
 31
1
 12
27.8856601715088
 22
7.06433963775635
 32
1
 13
27.8856601715088
 23
7.06433963775635
 33
1
 0
3DFACE
 8
STL2DXF
 10
28.1240386962891
 20
8.875
 30
1
 11
27.8856601715088
 21
7.06433963775635
 31
1
 12
27.8856601715088
 22
9.18566036224365
 32
1
 13
27.8856601715088
 23
9.18566036224365
 33
1
 0
3DFACE
 8
STL2DXF
 10
27.8856601715088
 20
9.18566036224365
 30
1
 11
27.8856601715088
 21
7.06433963775635
 31
1
 12
27.5750007629395
 22
6.82596206665039
 32
1
 13
27.5750007629395
 23
6.82596206665039
 33
1
 0
3DFACE
 8
STL2DXF
 10
27.8856601715088
 20
9.18566036224365
 30
1
 11
27.5750007629395
 21
6.82596206665039
 31
1
 12
27.5750007629395
 22
9.42403793334961
 32
1
 13
27.5750007629395
 23
9.42403793334961
 33
1
 0
3DFACE
 8
STL2DXF
 10
27.5750007629395
 20
9.42403793334961
 30
1
 11
27.5750007629395
 21
6.82596206665039
 31
1
 12
27.213228225708
 22
6.67611122131348
 32
1
 13
27.213228225708
 23
6.67611122131348
 33
1
 0
3DFACE
 8
STL2DXF
 10
27.5750007629395
 20
9.42403793334961
 30
1
 11
27.213228225708
 21
6.67611122131348
 31
1
 12
27.213228225708
 22
9.57388877868652
 32
1
 13
27.213228225708
 23
9.57388877868652
 33
1
 0
3DFACE
 8
STL2DXF
 10
27.213228225708
 20
9.57388877868652
 30
1
 11
27.213228225708
 21
6.67611122131348
 31
1
 12
26.8250007629395
 22
6.625
 32
1
 13
26.8250007629395
 23
6.625
 33
1
 0
3DFACE
 8
STL2DXF
 10
27.213228225708
 20
9.57388877868652
 30
1
 11
26.8250007629395
 21
6.625
 31
1
 12
26.8250007629395
 22
9.625
 32
1
 13
26.8250007629395
 23
9.625
 33
1
 0
3DFACE
 8
STL2DXF
 10
26.8250007629395
 20
9.625
 30
1
 11
26.8250007629395
 21
6.625
 31
1
 12
16.8250007629395
 22
6.625
 32
1
 13
16.8250007629395
 23
6.625
 33
1
 0
3DFACE
 8
STL2DXF
 10
26.8250007629395
 20
9.625
 30
1
 11
16.8250007629395
 21
6.625
 31
1
 12
15.5823593139648
 22
9.625
 32
1
 13
15.5823593139648
 23
9.625
 33
1
 0
3DFACE
 8
STL2DXF
 10
15.5823593139648
 20
9.625
 30
1
 11
16.8250007629395
 21
6.625
 31
1
 12
8.87525272369385
 22
-1.32474744319916
 32
1
 13
8.87525272369385
 23
-1.32474744319916
 33
1
 0
3DFACE
 8
STL2DXF
 10
15.5823593139648
 20
9.625
 30
1
 11
8.87525272369385
 21
-1.32474744319916
 31
1
 12
7.6326117515564
 22
1.67525255680084
 32
1
 13
7.6326117515564
 23
1.67525255680084
 33
1
 0
3DFACE
 8
STL2DXF
 10
7.6326117515564
 20
1.67525255680084
 30
1
 11
8.87525272369385
 21
-1.32474744319916
 31
1
 12
0.389971166849136
 22
-1.32474744319916
 32
1
 13
0.389971166849136
 23
-1.32474744319916
 33
1
 0
3DFACE
 8
STL2DXF
 10
7.6326117515564
 20
1.67525255680084
 30
1
 11
0.389971166849136
 21
-1.32474744319916
 31
1
 12
1.63261187076569
 22
1.67525255680084
 32
1
 13
1.63261187076569
 23
1.67525255680084
 33
1
 0
3DFACE
 8
STL2DXF
 10
1.63261187076569
 20
1.67525255680084
 30
1
 11
0.389971166849136
 21
-1.32474744319916
 31
1
 12
-10.9645471572876
 22
14.2724113464355
 32
1
 13
-10.9645471572876
 23
14.2724113464355
 33
1
 0
3DFACE
 8
STL2DXF
 10
-10.9645471572876
 20
14.2724113464355
 30
1
 11
0.389971166849136
 21
-1.32474744319916
 31
1
 12
-13.9645471572876
 22
13.0297708511353
 32
1
 13
-13.9645471572876
 23
13.0297708511353
 33
1
 0
3DFACE
 8
STL2DXF
 10
-10.9645471572876
 20
14.2724113464355
 30
1
 11
-13.9645471572876
 21
13.0297708511353
 31
1
 12
-10.9645471572876
 22
29.0297698974609
 32
1
 13
-10.9645471572876
 23
29.0297698974609
 33
1
 0
3DFACE
 8
STL2DXF
 10
-10.9645471572876
 20
29.0297698974609
 30
1
 11
-13.9645471572876
 21
13.0297708511353
 31
1
 12
-10.9645471572876
 22
32.0814399719238
 32
1
 13
-10.9645471572876
 23
32.0814399719238
 33
1
 0
3DFACE
 8
STL2DXF
 10
-10.9645471572876
 20
32.0814399719238
 30
1
 11
-13.9645471572876
 21
13.0297708511353
 31
1
 12
-11.3901977539063
 22
33.9770050048828
 32
1
 13
-11.3901977539063
 23
33.9770050048828
 33
1
 0
3DFACE
 8
STL2DXF
 10
-11.3901977539063
 20
33.9770050048828
 30
1
 11
-13.9645471572876
 21
13.0297708511353
 31
1
 12
-12.7019166946411
 22
35.4084968566895
 32
1
 13
-12.7019166946411
 23
35.4084968566895
 33
1
 0
3DFACE
 8
STL2DXF
 10
-12.7019166946411
 20
35.4084968566895
 30
1
 11
-13.9645471572876
 21
13.0297708511353
 31
1
 12
-13.0865516662598
 22
35.5297698974609
 32
1
 13
-13.0865516662598
 23
35.5297698974609
 33
1
 0
3DFACE
 8
STL2DXF
 10
-13.0865516662598
 20
35.5297698974609
 30
1
 11
-13.9645471572876
 21
13.0297708511353
 31
1
 12
-13.9645471572876
 22
29.0297698974609
 32
1
 13
-13.9645471572876
 23
29.0297698974609
 33
1
 0
3DFACE
 8
STL2DXF
 10
-13.0865516662598
 20
35.5297698974609
 30
1
 11
-13.9645471572876
 21
29.0297698974609
 31
1
 12
-14.5536432266235
 22
35.9923439025879
 32
1
 13
-14.5536432266235
 23
35.9923439025879
 33
1
 0
3DFACE
 8
STL2DXF
 10
-14.5536432266235
 20
35.9923439025879
 30
1
 11
-13.9645471572876
 21
29.0297698974609
 31
1
 12
-16.6214332580566
 22
29.0297698974609
 32
1
 13
-16.6214332580566
 23
29.0297698974609
 33
1
 0
3DFACE
 8
STL2DXF
 10
-14.5536432266235
 20
35.9923439025879
 30
1
 11
-16.6214332580566
 21
29.0297698974609
 31
1
 12
-16.4492092132568
 22
35.5721054077148
 32
1
 13
-16.4492092132568
 23
35.5721054077148
 33
1
 0
3DFACE
 8
STL2DXF
 10
-16.4492092132568
 20
35.5721054077148
 30
1
 11
-16.6214332580566
 21
29.0297698974609
 31
1
 12
-16.4954109191895
 22
35.5297698974609
 32
1
 13
-16.4954109191895
 23
35.5297698974609
 33
1
 0
3DFACE
 8
STL2DXF
 10
-16.4954109191895
 20
35.5297698974609
 30
1
 11
-16.6214332580566
 21
29.0297698974609
 31
1
 12
-17.8806991577148
 22
34.2603874206543
 32
1
 13
-17.8806991577148
 23
34.2603874206543
 33
1
 0
3DFACE
 8
STL2DXF
 10
-17.8806991577148
 20
34.2603874206543
 30
1
 11
-16.6214332580566
 21
29.0297698974609
 31
1
 12
-18.0443096160889
 22
30.5130939483643
 32
1
 13
-18.0443096160889
 23
30.5130939483643
 33
1
 0
3DFACE
 8
STL2DXF
 10
-17.8806991577148
 20
34.2603874206543
 30
1
 11
-18.0443096160889
 21
30.5130939483643
 31
1
 12
-18.4645462036133
 22
32.4086608886719
 32
1
 13
-18.4645462036133
 23
32.4086608886719
 33
1
 0
3DFACE
 8
STL2DXF
 10
-10.9645471572876
 20
32.0814399719238
 30
1
 11
-10.9645471572876
 21
29.0297698974609
 31
4
 12
-10.9645471572876
 22
29.0297698974609
 32
1
 13
-10.9645471572876
 23
29.0297698974609
 33
1
 0
3DFACE
 8
STL2DXF
 10
-10.9645471572876
 20
29.0297698974609
 30
4
 11
-10.9645471572876
 21
32.0814399719238
 31
1
 12
-10.9699611663818
 22
32.0814399719238
 32
4
 13
-10.9699611663818
 23
32.0814399719238
 33
4
 0
3DFACE
 8
STL2DXF
 10
-11.3901977539063
 20
33.9770050048828
 30
1
 11
-10.9699611663818
 21
32.0814399719238
 31
4
 12
-10.9645471572876
 22
32.0814399719238
 32
1
 13
-10.9645471572876
 23
32.0814399719238
 33
1
 0
3DFACE
 8
STL2DXF
 10
-10.9699611663818
 20
32.0814399719238
 30
4
 11
-11.3901977539063
 21
33.9770050048828
 31
5
 12
-10.9645471572876
 22
32.0814399719238
 32
5
 13
-10.9645471572876
 23
32.0814399719238
 33
5
 0
3DFACE
 8
STL2DXF
 10
-11.3901977539063
 20
33.9770050048828
 30
5
 11
-10.9699611663818
 21
32.0814399719238
 31
4
 12
-11.3901977539063
 22
33.9770050048828
 32
1
 13
-11.3901977539063
 23
33.9770050048828
 33
1
 0
3DFACE
 8
STL2DXF
 10
-12.7019166946411
 20
35.4084968566895
 30
1
 11
-11.3901977539063
 21
33.9770050048828
 31
5
 12
-11.3901977539063
 22
33.9770050048828
 32
1
 13
-11.3901977539063
 23
33.9770050048828
 33
1
 0
3DFACE
 8
STL2DXF
 10
-11.3901977539063
 20
33.9770050048828
 30
5
 11
-12.7019166946411
 21
35.4084968566895
 31
1
 12
-12.7019166946411
 22
35.4084968566895
 32
5
 13
-12.7019166946411
 23
35.4084968566895
 33
5
 0
3DFACE
 8
STL2DXF
 10
-12.7019166946411
 20
35.4084968566895
 30
5
 11
-13.0865516662598
 21
35.5297698974609
 31
1
 12
-13.0865516662598
 22
35.5297698974609
 32
5
 13
-13.0865516662598
 23
35.5297698974609
 33
5
 0
3DFACE
 8
STL2DXF
 10
-13.0865516662598
 20
35.5297698974609
 30
1
 11
-12.7019166946411
 21
35.4084968566895
 31
5
 12
-12.7019166946411
 22
35.4084968566895
 32
1
 13
-12.7019166946411
 23
35.4084968566895
 33
1
 0
3DFACE
 8
STL2DXF
 10
-12.8256645202637
 20
29.0297698974609
 30
4
 11
-11.5538082122803
 21
30.2297134399414
 31
5
 12
-12.8256645202637
 22
29.0297698974609
 32
5
 13
-12.8256645202637
 23
29.0297698974609
 33
5
 0
3DFACE
 8
STL2DXF
 10
-11.5538082122803
 20
30.2297134399414
 30
5
 11
-12.8256645202637
 21
29.0297698974609
 31
4
 12
-11.5538082122803
 22
30.2297134399414
 32
4
 13
-11.5538082122803
 23
30.2297134399414
 33
4
 0
3DFACE
 8
STL2DXF
 10
-10.9699611663818
 20
32.0814399719238
 30
4
 11
-11.5538082122803
 21
30.2297134399414
 31
5
 12
-11.5538082122803
 22
30.2297134399414
 32
4
 13
-11.5538082122803
 23
30.2297134399414
 33
4
 0
3DFACE
 8
STL2DXF
 10
-11.5538082122803
 20
30.2297134399414
 30
5
 11
-10.9699611663818
 21
32.0814399719238
 31
4
 12
-10.9645471572876
 22
32.0814399719238
 32
5
 13
-10.9645471572876
 23
32.0814399719238
 33
5
 0
3DFACE
 8
STL2DXF
 10
-35
 20
80.25
 30
5
 11
-35
 21
-15
 31
-3.37507799486048E-14
 12
-35
 22
-15
 32
5
 13
-35
 23
-15
 33
5
 0
3DFACE
 8
STL2DXF
 10
-35
 20
-15
 30
-3.37507799486048E-14
 11
-35
 21
80.25
 31
5
 12
-35
 22
80.25
 32
-3.28626015289046E-14
 13
-35
 23
80.25
 33
-3.28626015289046E-14
 0
3DFACE
 8
STL2DXF
 10
1.4210854715202E-14
 20
85.25
 30
5
 11
-30
 21
85.25
 31
-2.75335310107039E-14
 12
-30
 22
85.25
 32
5
 13
-30
 23
85.25
 33
5
 0
3DFACE
 8
STL2DXF
 10
-30
 20
85.25
 30
-2.75335310107039E-14
 11
1.4210854715202E-14
 21
85.25
 31
5
 12
2.1316282072803E-14
 22
85.25
 32
5.87747175411144E-39
 13
2.1316282072803E-14
 23
85.25
 33
5.87747175411144E-39
 0
3DFACE
 8
STL2DXF
 10
46.4500007629395
 20
66.25
 30
4.35207425653061E-14
 11
45.4500007629395
 21
63.125
 31
4.08562073062058E-14
 12
23.7250003814697
 22
66.25
 32
2.39808173319034E-14
 13
23.7250003814697
 23
66.25
 33
2.39808173319034E-14
 0
3DFACE
 8
STL2DXF
 10
45.4500007629395
 20
63.125
 30
4.08562073062058E-14
 11
46.4500007629395
 21
66.25
 31
4.35207425653061E-14
 12
45.4500007629395
 22
3.125
 32
4.17443857259059E-14
 13
45.4500007629395
 23
3.125
 33
4.17443857259059E-14
 0
3DFACE
 8
STL2DXF
 10
23.7250003814697
 20
66.25
 30
2.39808173319034E-14
 11
45.4500007629395
 21
63.125
 31
4.08562073062058E-14
 12
40.4500007629395
 22
63.125
 32
3.5527136788005E-14
 13
40.4500007629395
 23
63.125
 33
3.5527136788005E-14
 0
3DFACE
 8
STL2DXF
 10
23.7250003814697
 20
66.25
 30
2.39808173319034E-14
 11
40.4500007629395
 21
63.125
 31
3.5527136788005E-14
 12
23.7250003814697
 22
-7.70651412422465E-15
 32
3.46389583683049E-14
 13
23.7250003814697
 23
-7.70651412422465E-15
 33
3.46389583683049E-14
 0
3DFACE
 8
STL2DXF
 10
23.7250003814697
 20
66.25
 30
2.39808173319034E-14
 11
23.7250003814697
 21
-7.70651412422465E-15
 31
3.46389583683049E-14
 12
7
 22
3.125
 32
5.32907051820075E-15
 13
7
 23
3.125
 33
5.32907051820075E-15
 0
3DFACE
 8
STL2DXF
 10
7
 20
3.125
 30
5.32907051820075E-15
 11
23.7250003814697
 21
-7.70651412422465E-15
 31
3.46389583683049E-14
 12
7.105427357601E-15
 22
-20
 32
8.88178419700125E-16
 13
7.105427357601E-15
 23
-20
 33
8.88178419700125E-16
 0
3DFACE
 8
STL2DXF
 10
7
 20
3.125
 30
5.32907051820075E-15
 11
7.105427357601E-15
 21
-20
 31
8.88178419700125E-16
 12
2
 22
3.125
 32
5.87747175411144E-39
 13
2
 23
3.125
 33
5.87747175411144E-39
 0
3DFACE
 8
STL2DXF
 10
2
 20
3.125
 30
5.87747175411144E-39
 11
7.105427357601E-15
 21
-20
 31
8.88178419700125E-16
 12
2
 22
63.125
 32
-8.88178419700125E-16
 13
2
 23
63.125
 33
-8.88178419700125E-16
 0
3DFACE
 8
STL2DXF
 10
2
 20
63.125
 30
-8.88178419700125E-16
 11
7.105427357601E-15
 21
-20
 31
8.88178419700125E-16
 12
2.1316282072803E-14
 22
85.25
 32
5.87747175411144E-39
 13
2.1316282072803E-14
 23
85.25
 33
5.87747175411144E-39
 0
3DFACE
 8
STL2DXF
 10
2.1316282072803E-14
 20
85.25
 30
5.87747175411144E-39
 11
7.105427357601E-15
 21
-20
 31
8.88178419700125E-16
 12
-30
 22
85.25
 32
-2.75335310107039E-14
 13
-30
 23
85.25
 33
-2.75335310107039E-14
 0
3DFACE
 8
STL2DXF
 10
-30
 20
85.25
 30
-2.75335310107039E-14
 11
7.105427357601E-15
 21
-20
 31
8.88178419700125E-16
 12
-30
 22
-20
 32
-2.8421709430404E-14
 13
-30
 23
-20
 33
-2.8421709430404E-14
 0
3DFACE
 8
STL2DXF
 10
-30
 20
85.25
 30
-2.75335310107039E-14
 11
-30
 21
-20
 31
-2.8421709430404E-14
 12
-30.6526317596436
 22
-19.9572238922119
 32
-2.93098878501041E-14
 13
-30.6526317596436
 23
-19.9572238922119
 33
-2.93098878501041E-14
 0
3DFACE
 8
STL2DXF
 10
-30
 20
85.25
 30
-2.75335310107039E-14
 11
-30.6526317596436
 21
-19.9572238922119
 31
-2.93098878501041E-14
 12
-30.6526317596436
 22
85.2072219848633
 32
-2.8421709430404E-14
 13
-30.6526317596436
 23
85.2072219848633
 33
-2.8421709430404E-14
 0
3DFACE
 8
STL2DXF
 10
-30.6526317596436
 20
85.2072219848633
 30
-2.8421709430404E-14
 11
-30.6526317596436
 21
-19.9572238922119
 31
-2.93098878501041E-14
 12
-31.294095993042
 22
-19.8296298980713
 32
-2.93098878501041E-14
 13
-31.294095993042
 23
-19.8296298980713
 33
-2.93098878501041E-14
 0
3DFACE
 8
STL2DXF
 10
-30.6526317596436
 20
85.2072219848633
 30
-2.8421709430404E-14
 11
-31.294095993042
 21
-19.8296298980713
 31
-2.93098878501041E-14
 12
-31.294095993042
 22
85.0796279907227
 32
-2.93098878501041E-14
 13
-31.294095993042
 23
85.0796279907227
 33
-2.93098878501041E-14
 0
3DFACE
 8
STL2DXF
 10
-31.294095993042
 20
85.0796279907227
 30
-2.93098878501041E-14
 11
-31.294095993042
 21
-19.8296298980713
 31
-2.93098878501041E-14
 12
-31.9134178161621
 22
-19.6193981170654
 32
-3.10862446895044E-14
 13
-31.9134178161621
 23
-19.6193981170654
 33
-3.10862446895044E-14
 0
3DFACE
 8
STL2DXF
 10
-31.294095993042
 20
85.0796279907227
 30
-2.93098878501041E-14
 11
-31.9134178161621
 21
-19.6193981170654
 31
-3.10862446895044E-14
 12
-31.9134178161621
 22
84.8694000244141
 32
-2.93098878501041E-14
 13
-31.9134178161621
 23
84.8694000244141
 33
-2.93098878501041E-14
 0
3DFACE
 8
STL2DXF
 10
-31.9134178161621
 20
84.8694000244141
 30
-2.93098878501041E-14
 11
-31.9134178161621
 21
-19.6193981170654
 31
-3.10862446895044E-14
 12
-32.5
 22
-19.3301277160645
 32
-3.10862446895044E-14
 13
-32.5
 23
-19.3301277160645
 33
-3.10862446895044E-14
 0
3DFACE
 8
STL2DXF
 10
-31.9134178161621
 20
84.8694000244141
 30
-2.93098878501041E-14
 11
-32.5
 21
-19.3301277160645
 31
-3.10862446895044E-14
 12
-32.5
 22
84.5801239013672
 32
-3.01980662698043E-14
 13
-32.5
 23
84.5801239013672
 33
-3.01980662698043E-14
 0
3DFACE
 8
STL2DXF
 10
-32.5
 20
84.5801239013672
 30
-3.01980662698043E-14
 11
-32.5
 21
-19.3301277160645
 31
-3.10862446895044E-14
 12
-33.0438079833984
 22
-18.9667663574219
 32
-3.10862446895044E-14
 13
-33.0438079833984
 23
-18.9667663574219
 33
-3.10862446895044E-14
 0
3DFACE
 8
STL2DXF
 10
-32.5
 20
84.5801239013672
 30
-3.01980662698043E-14
 11
-33.0438079833984
 21
-18.9667663574219
 31
-3.10862446895044E-14
 12
-33.0438079833984
 22
84.2167663574219
 32
-3.10862446895044E-14
 13
-33.0438079833984
 23
84.2167663574219
 33
-3.10862446895044E-14
 0
3DFACE
 8
STL2DXF
 10
-33.0438079833984
 20
84.2167663574219
 30
-3.10862446895044E-14
 11
-33.0438079833984
 21
-18.9667663574219
 31
-3.10862446895044E-14
 12
-33.5355339050293
 22
-18.5355339050293
 32
-3.19744231092045E-14
 13
-33.5355339050293
 23
-18.5355339050293
 33
-3.19744231092045E-14
 0
3DFACE
 8
STL2DXF
 10
-33.0438079833984
 20
84.2167663574219
 30
-3.10862446895044E-14
 11
-33.5355339050293
 21
-18.5355339050293
 31
-3.19744231092045E-14
 12
-33.5355339050293
 22
83.7855377197266
 32
-3.10862446895044E-14
 13
-33.5355339050293
 23
83.7855377197266
 33
-3.10862446895044E-14
 0
3DFACE
 8
STL2DXF
 10
-33.5355339050293
 20
83.7855377197266
 30
-3.10862446895044E-14
 11
-33.5355339050293
 21
-18.5355339050293
 31
-3.19744231092045E-14
 12
-33.9667663574219
 22
-18.0438079833984
 32
-3.28626015289046E-14
 13
-33.9667663574219
 23
-18.0438079833984
 33
-3.28626015289046E-14
 0
3DFACE
 8
STL2DXF
 10
-33.5355339050293
 20
83.7855377197266
 30
-3.10862446895044E-14
 11
-33.9667663574219
 21
-18.0438079833984
 31
-3.28626015289046E-14
 12
-33.9667663574219
 22
83.2938079833984
 32
-3.19744231092045E-14
 13
-33.9667663574219
 23
83.2938079833984
 33
-3.19744231092045E-14
 0
3DFACE
 8
STL2DXF
 10
-33.9667663574219
 20
83.2938079833984
 30
-3.19744231092045E-14
 11
-33.9667663574219
 21
-18.0438079833984
 31
-3.28626015289046E-14
 12
-34.3301277160645
 22
-17.5
 32
-3.19744231092045E-14
 13
-34.3301277160645
 23
-17.5
 33
-3.19744231092045E-14
 0
3DFACE
 8
STL2DXF
 10
-33.9667663574219
 20
83.2938079833984
 30
-3.19744231092045E-14
 11
-34.3301277160645
 21
-17.5
 31
-3.19744231092045E-14
 12
-34.3301277160645
 22
82.75
 32
-3.19744231092045E-14
 13
-34.3301277160645
 23
82.75
 33
-3.19744231092045E-14
 0
3DFACE
 8
STL2DXF
 10
-34.3301277160645
 20
82.75
 30
-3.19744231092045E-14
 11
-34.3301277160645
 21
-17.5
 31
-3.19744231092045E-14
 12
-34.6193962097168
 22
-16.9134178161621
 32
-3.28626015289046E-14
 13
-34.6193962097168
 23
-16.9134178161621
 33
-3.28626015289046E-14
 0
3DFACE
 8
STL2DXF
 10
-34.3301277160645
 20
82.75
 30
-3.19744231092045E-14
 11
-34.6193962097168
 21
-16.9134178161621
 31
-3.28626015289046E-14
 12
-34.6193962097168
 22
82.1634140014648
 32
-3.19744231092045E-14
 13
-34.6193962097168
 23
82.1634140014648
 33
-3.19744231092045E-14
 0
3DFACE
 8
STL2DXF
 10
-34.6193962097168
 20
82.1634140014648
 30
-3.19744231092045E-14
 11
-34.6193962097168
 21
-16.9134178161621
 31
-3.28626015289046E-14
 12
-34.8296279907227
 22
-16.294095993042
 32
-3.19744231092045E-14
 13
-34.8296279907227
 23
-16.294095993042
 33
-3.19744231092045E-14
 0
3DFACE
 8
STL2DXF
 10
-34.6193962097168
 20
82.1634140014648
 30
-3.19744231092045E-14
 11
-34.8296279907227
 21
-16.294095993042
 31
-3.19744231092045E-14
 12
-34.8296279907227
 22
81.5440979003906
 32
-3.28626015289046E-14
 13
-34.8296279907227
 23
81.5440979003906
 33
-3.28626015289046E-14
 0
3DFACE
 8
STL2DXF
 10
-34.8296279907227
 20
81.5440979003906
 30
-3.28626015289046E-14
 11
-34.8296279907227
 21
-16.294095993042
 31
-3.19744231092045E-14
 12
-34.9572257995605
 22
-15.6526308059692
 32
-3.37507799486048E-14
 13
-34.9572257995605
 23
-15.6526308059692
 33
-3.37507799486048E-14
 0
3DFACE
 8
STL2DXF
 10
-34.8296279907227
 20
81.5440979003906
 30
-3.28626015289046E-14
 11
-34.9572257995605
 21
-15.6526308059692
 31
-3.37507799486048E-14
 12
-34.9572257995605
 22
80.9026336669922
 32
-3.28626015289046E-14
 13
-34.9572257995605
 23
80.9026336669922
 33
-3.28626015289046E-14
 0
3DFACE
 8
STL2DXF
 10
-34.9572257995605
 20
80.9026336669922
 30
-3.28626015289046E-14
 11
-34.9572257995605
 21
-15.6526308059692
 31
-3.37507799486048E-14
 12
-35
 22
-15
 32
-3.37507799486048E-14
 13
-35
 23
-15
 33
-3.37507799486048E-14
 0
3DFACE
 8
STL2DXF
 10
-34.9572257995605
 20
80.9026336669922
 30
-3.28626015289046E-14
 11
-35
 21
-15
 31
-3.37507799486048E-14
 12
-35
 22
80.25
 32
-3.28626015289046E-14
 13
-35
 23
80.25
 33
-3.28626015289046E-14
 0
3DFACE
 8
STL2DXF
 10
23.7250003814697
 20
66.25
 30
2.39808173319034E-14
 11
7
 21
63.125
 31
4.44089209850063E-15
 12
2.1316282072803E-14
 22
85.25
 32
5.87747175411144E-39
 13
2.1316282072803E-14
 23
85.25
 33
5.87747175411144E-39
 0
3DFACE
 8
STL2DXF
 10
7
 20
63.125
 30
4.44089209850063E-15
 11
23.7250003814697
 21
66.25
 31
2.39808173319034E-14
 12
7
 22
3.125
 32
5.32907051820075E-15
 13
7
 23
3.125
 33
5.32907051820075E-15
 0
3DFACE
 8
STL2DXF
 10
2.1316282072803E-14
 20
85.25
 30
5.87747175411144E-39
 11
7
 21
63.125
 31
4.44089209850063E-15
 12
2
 22
63.125
 32
-8.88178419700125E-16
 13
2
 23
63.125
 33
-8.88178419700125E-16
 0
3DFACE
 8
STL2DXF
 10
47.4500007629395
 20
-7.65793678469961E-15
 30
4.52970994047064E-14
 11
45.4500007629395
 21
3.125
 31
4.17443857259059E-14
 12
47.4500007629395
 22
65.25
 32
4.44089209850063E-14
 13
47.4500007629395
 23
65.25
 33
4.44089209850063E-14
 0
3DFACE
 8
STL2DXF
 10
45.4500007629395
 20
3.125
 30
4.17443857259059E-14
 11
47.4500007629395
 21
-7.65793678469961E-15
 31
4.52970994047064E-14
 12
23.7250003814697
 22
-7.70651412422465E-15
 32
3.46389583683049E-14
 13
23.7250003814697
 23
-7.70651412422465E-15
 33
3.46389583683049E-14
 0
3DFACE
 8
STL2DXF
 10
47.4500007629395
 20
65.25
 30
4.44089209850063E-14
 11
45.4500007629395
 21
3.125
 31
4.17443857259059E-14
 12
46.4500007629395
 22
66.25
 32
4.35207425653061E-14
 13
46.4500007629395
 23
66.25
 33
4.35207425653061E-14
 0
3DFACE
 8
STL2DXF
 10
45.4500007629395
 20
3.125
 30
4.17443857259059E-14
 11
23.7250003814697
 21
-7.70651412422465E-15
 31
3.46389583683049E-14
 12
40.4500007629395
 22
3.125
 32
3.64153152077051E-14
 13
40.4500007629395
 23
3.125
 33
3.64153152077051E-14
 0
3DFACE
 8
STL2DXF
 10
40.4500007629395
 20
3.125
 30
3.64153152077051E-14
 11
23.7250003814697
 21
-7.70651412422465E-15
 31
3.46389583683049E-14
 12
40.4500007629395
 22
63.125
 32
3.5527136788005E-14
 13
40.4500007629395
 23
63.125
 33
3.5527136788005E-14
 0
ENDSEC
 0
EOF
