 999
Conversion of STL file (binary) from www.cadforum.cz; drag the file into AutoCAD or load it with _DXFIN
 0
SECTION
 2
ENTITIES
 0
3DFACE
 8
STL2DXF
 10
34.5181465148926
 20
120.857360839844
 30
15.3000001907349
 11
34.5181465148926
 21
121.892639160156
 31
15.3000001907349
 12
34.4500007629395
 22
121.375
 32
15.3000001907349
 13
34.4500007629395
 23
121.375
 33
15.3000001907349
 0
3DFACE
 8
STL2DXF
 10
34.5181465148926
 20
121.892639160156
 30
15.3000001907349
 11
34.5181465148926
 21
120.857360839844
 31
15.3000001907349
 12
34.7179489135742
 22
120.375
 32
15.3000001907349
 13
34.7179489135742
 23
120.375
 33
15.3000001907349
 0
3DFACE
 8
STL2DXF
 10
34.5181465148926
 20
121.892639160156
 30
15.3000001907349
 11
34.7179489135742
 21
120.375
 31
15.3000001907349
 12
34.7179489135742
 22
122.375
 32
15.3000001907349
 13
34.7179489135742
 23
122.375
 33
15.3000001907349
 0
3DFACE
 8
STL2DXF
 10
34.7179489135742
 20
122.375
 30
15.3000001907349
 11
34.7179489135742
 21
120.375
 31
15.3000001907349
 12
35.0357856750488
 22
119.960784912109
 32
15.3000001907349
 13
35.0357856750488
 23
119.960784912109
 33
15.3000001907349
 0
3DFACE
 8
STL2DXF
 10
34.7179489135742
 20
122.375
 30
15.3000001907349
 11
35.0357856750488
 21
119.960784912109
 31
15.3000001907349
 12
35.0357856750488
 22
122.789215087891
 32
15.3000001907349
 13
35.0357856750488
 23
122.789215087891
 33
15.3000001907349
 0
3DFACE
 8
STL2DXF
 10
35.0357856750488
 20
122.789215087891
 30
15.3000001907349
 11
35.0357856750488
 21
119.960784912109
 31
15.3000001907349
 12
35.4500007629395
 22
119.642951965332
 32
15.3000001907349
 13
35.4500007629395
 23
119.642951965332
 33
15.3000001907349
 0
3DFACE
 8
STL2DXF
 10
35.0357856750488
 20
122.789215087891
 30
15.3000001907349
 11
35.4500007629395
 21
119.642951965332
 31
15.3000001907349
 12
35.4500007629395
 22
123.107048034668
 32
15.3000001907349
 13
35.4500007629395
 23
123.107048034668
 33
15.3000001907349
 0
3DFACE
 8
STL2DXF
 10
35.4500007629395
 20
123.107048034668
 30
15.3000001907349
 11
35.4500007629395
 21
119.642951965332
 31
15.3000001907349
 12
35.9323616027832
 22
119.443145751953
 32
15.3000001907349
 13
35.9323616027832
 23
119.443145751953
 33
15.3000001907349
 0
3DFACE
 8
STL2DXF
 10
35.4500007629395
 20
123.107048034668
 30
15.3000001907349
 11
35.9323616027832
 21
119.443145751953
 31
15.3000001907349
 12
35.9323616027832
 22
123.306854248047
 32
15.3000001907349
 13
35.9323616027832
 23
123.306854248047
 33
15.3000001907349
 0
3DFACE
 8
STL2DXF
 10
35.9323616027832
 20
123.306854248047
 30
15.3000001907349
 11
35.9323616027832
 21
119.443145751953
 31
15.3000001907349
 12
36.4500007629395
 22
123.375
 32
15.3000001907349
 13
36.4500007629395
 23
123.375
 33
15.3000001907349
 0
3DFACE
 8
STL2DXF
 10
36.4500007629395
 20
123.375
 30
15.3000001907349
 11
35.9323616027832
 21
119.443145751953
 31
15.3000001907349
 12
36.4500007629395
 22
119.375
 32
15.3000001907349
 13
36.4500007629395
 23
119.375
 33
15.3000001907349
 0
3DFACE
 8
STL2DXF
 10
36.4500007629395
 20
123.375
 30
15.3000001907349
 11
36.4500007629395
 21
119.375
 31
15.3000001907349
 12
36.9676399230957
 22
119.443145751953
 32
15.3000001907349
 13
36.9676399230957
 23
119.443145751953
 33
15.3000001907349
 0
3DFACE
 8
STL2DXF
 10
36.4500007629395
 20
123.375
 30
15.3000001907349
 11
36.9676399230957
 21
119.443145751953
 31
15.3000001907349
 12
36.9676399230957
 22
123.306854248047
 32
15.3000001907349
 13
36.9676399230957
 23
123.306854248047
 33
15.3000001907349
 0
3DFACE
 8
STL2DXF
 10
36.9676399230957
 20
123.306854248047
 30
15.3000001907349
 11
36.9676399230957
 21
119.443145751953
 31
15.3000001907349
 12
37.4500007629395
 22
119.642951965332
 32
15.3000001907349
 13
37.4500007629395
 23
119.642951965332
 33
15.3000001907349
 0
3DFACE
 8
STL2DXF
 10
36.9676399230957
 20
123.306854248047
 30
15.3000001907349
 11
37.4500007629395
 21
119.642951965332
 31
15.3000001907349
 12
37.4500007629395
 22
123.107048034668
 32
15.3000001907349
 13
37.4500007629395
 23
123.107048034668
 33
15.3000001907349
 0
3DFACE
 8
STL2DXF
 10
37.4500007629395
 20
123.107048034668
 30
15.3000001907349
 11
37.4500007629395
 21
119.642951965332
 31
15.3000001907349
 12
37.8642120361328
 22
119.960784912109
 32
15.3000001907349
 13
37.8642120361328
 23
119.960784912109
 33
15.3000001907349
 0
3DFACE
 8
STL2DXF
 10
37.4500007629395
 20
123.107048034668
 30
15.3000001907349
 11
37.8642120361328
 21
119.960784912109
 31
15.3000001907349
 12
37.8642120361328
 22
122.789215087891
 32
15.3000001907349
 13
37.8642120361328
 23
122.789215087891
 33
15.3000001907349
 0
3DFACE
 8
STL2DXF
 10
37.8642120361328
 20
122.789215087891
 30
15.3000001907349
 11
37.8642120361328
 21
119.960784912109
 31
15.3000001907349
 12
38.1820526123047
 22
120.375
 32
15.3000001907349
 13
38.1820526123047
 23
120.375
 33
15.3000001907349
 0
3DFACE
 8
STL2DXF
 10
37.8642120361328
 20
122.789215087891
 30
15.3000001907349
 11
38.1820526123047
 21
120.375
 31
15.3000001907349
 12
38.1820526123047
 22
122.375
 32
15.3000001907349
 13
38.1820526123047
 23
122.375
 33
15.3000001907349
 0
3DFACE
 8
STL2DXF
 10
38.1820526123047
 20
122.375
 30
15.3000001907349
 11
38.1820526123047
 21
120.375
 31
15.3000001907349
 12
38.3818511962891
 22
120.857360839844
 32
15.3000001907349
 13
38.3818511962891
 23
120.857360839844
 33
15.3000001907349
 0
3DFACE
 8
STL2DXF
 10
38.1820526123047
 20
122.375
 30
15.3000001907349
 11
38.3818511962891
 21
120.857360839844
 31
15.3000001907349
 12
38.3818511962891
 22
121.892639160156
 32
15.3000001907349
 13
38.3818511962891
 23
121.892639160156
 33
15.3000001907349
 0
3DFACE
 8
STL2DXF
 10
38.3818511962891
 20
121.892639160156
 30
15.3000001907349
 11
38.3818511962891
 21
120.857360839844
 31
15.3000001907349
 12
38.4500007629395
 22
121.375
 32
15.3000001907349
 13
38.4500007629395
 23
121.375
 33
15.3000001907349
 0
3DFACE
 8
STL2DXF
 10
38.1820526123047
 20
120.375
 30
15.3000001907349
 11
38.3818511962891
 21
120.857360839844
 31
17.2999992370605
 12
38.3818511962891
 22
120.857360839844
 32
15.3000001907349
 13
38.3818511962891
 23
120.857360839844
 33
15.3000001907349
 0
3DFACE
 8
STL2DXF
 10
38.3818511962891
 20
120.857360839844
 30
17.2999992370605
 11
38.1820526123047
 21
120.375
 31
15.3000001907349
 12
38.1820526123047
 22
120.375
 32
17.2999992370605
 13
38.1820526123047
 23
120.375
 33
17.2999992370605
 0
3DFACE
 8
STL2DXF
 10
38.3818511962891
 20
120.857360839844
 30
15.3000001907349
 11
38.4500007629395
 21
121.375
 31
17.2999992370605
 12
38.4500007629395
 22
121.375
 32
15.3000001907349
 13
38.4500007629395
 23
121.375
 33
15.3000001907349
 0
3DFACE
 8
STL2DXF
 10
38.4500007629395
 20
121.375
 30
17.2999992370605
 11
38.3818511962891
 21
120.857360839844
 31
15.3000001907349
 12
38.3818511962891
 22
120.857360839844
 32
17.2999992370605
 13
38.3818511962891
 23
120.857360839844
 33
17.2999992370605
 0
3DFACE
 8
STL2DXF
 10
38.4500007629395
 20
121.375
 30
15.3000001907349
 11
38.3818511962891
 21
121.892639160156
 31
17.2999992370605
 12
38.3818511962891
 22
121.892639160156
 32
15.3000001907349
 13
38.3818511962891
 23
121.892639160156
 33
15.3000001907349
 0
3DFACE
 8
STL2DXF
 10
38.3818511962891
 20
121.892639160156
 30
17.2999992370605
 11
38.4500007629395
 21
121.375
 31
15.3000001907349
 12
38.4500007629395
 22
121.375
 32
17.2999992370605
 13
38.4500007629395
 23
121.375
 33
17.2999992370605
 0
3DFACE
 8
STL2DXF
 10
38.3818511962891
 20
121.892639160156
 30
15.3000001907349
 11
38.1820526123047
 21
122.375
 31
17.2999992370605
 12
38.1820526123047
 22
122.375
 32
15.3000001907349
 13
38.1820526123047
 23
122.375
 33
15.3000001907349
 0
3DFACE
 8
STL2DXF
 10
38.1820526123047
 20
122.375
 30
17.2999992370605
 11
38.3818511962891
 21
121.892639160156
 31
15.3000001907349
 12
38.3818511962891
 22
121.892639160156
 32
17.2999992370605
 13
38.3818511962891
 23
121.892639160156
 33
17.2999992370605
 0
3DFACE
 8
STL2DXF
 10
38.1820526123047
 20
122.375
 30
15.3000001907349
 11
37.8642120361328
 21
122.789215087891
 31
17.2999992370605
 12
37.8642120361328
 22
122.789215087891
 32
15.3000001907349
 13
37.8642120361328
 23
122.789215087891
 33
15.3000001907349
 0
3DFACE
 8
STL2DXF
 10
37.8642120361328
 20
122.789215087891
 30
17.2999992370605
 11
38.1820526123047
 21
122.375
 31
15.3000001907349
 12
38.1820526123047
 22
122.375
 32
17.2999992370605
 13
38.1820526123047
 23
122.375
 33
17.2999992370605
 0
3DFACE
 8
STL2DXF
 10
37.4500007629395
 20
123.107048034668
 30
15.3000001907349
 11
37.8642120361328
 21
122.789215087891
 31
17.2999992370605
 12
37.4500007629395
 22
123.107048034668
 32
17.2999992370605
 13
37.4500007629395
 23
123.107048034668
 33
17.2999992370605
 0
3DFACE
 8
STL2DXF
 10
37.8642120361328
 20
122.789215087891
 30
17.2999992370605
 11
37.4500007629395
 21
123.107048034668
 31
15.3000001907349
 12
37.8642120361328
 22
122.789215087891
 32
15.3000001907349
 13
37.8642120361328
 23
122.789215087891
 33
15.3000001907349
 0
3DFACE
 8
STL2DXF
 10
36.9676399230957
 20
123.306854248047
 30
15.3000001907349
 11
37.4500007629395
 21
123.107048034668
 31
17.2999992370605
 12
36.9676399230957
 22
123.306854248047
 32
17.2999992370605
 13
36.9676399230957
 23
123.306854248047
 33
17.2999992370605
 0
3DFACE
 8
STL2DXF
 10
37.4500007629395
 20
123.107048034668
 30
17.2999992370605
 11
36.9676399230957
 21
123.306854248047
 31
15.3000001907349
 12
37.4500007629395
 22
123.107048034668
 32
15.3000001907349
 13
37.4500007629395
 23
123.107048034668
 33
15.3000001907349
 0
3DFACE
 8
STL2DXF
 10
36.4500007629395
 20
123.375
 30
15.3000001907349
 11
36.9676399230957
 21
123.306854248047
 31
17.2999992370605
 12
36.4500007629395
 22
123.375
 32
17.2999992370605
 13
36.4500007629395
 23
123.375
 33
17.2999992370605
 0
3DFACE
 8
STL2DXF
 10
36.9676399230957
 20
123.306854248047
 30
17.2999992370605
 11
36.4500007629395
 21
123.375
 31
15.3000001907349
 12
36.9676399230957
 22
123.306854248047
 32
15.3000001907349
 13
36.9676399230957
 23
123.306854248047
 33
15.3000001907349
 0
3DFACE
 8
STL2DXF
 10
35.9323616027832
 20
123.306854248047
 30
15.3000001907349
 11
36.4500007629395
 21
123.375
 31
17.2999992370605
 12
35.9323616027832
 22
123.306854248047
 32
17.2999992370605
 13
35.9323616027832
 23
123.306854248047
 33
17.2999992370605
 0
3DFACE
 8
STL2DXF
 10
36.4500007629395
 20
123.375
 30
17.2999992370605
 11
35.9323616027832
 21
123.306854248047
 31
15.3000001907349
 12
36.4500007629395
 22
123.375
 32
15.3000001907349
 13
36.4500007629395
 23
123.375
 33
15.3000001907349
 0
3DFACE
 8
STL2DXF
 10
35.4500007629395
 20
123.107048034668
 30
15.3000001907349
 11
35.9323616027832
 21
123.306854248047
 31
17.2999992370605
 12
35.4500007629395
 22
123.107048034668
 32
17.2999992370605
 13
35.4500007629395
 23
123.107048034668
 33
17.2999992370605
 0
3DFACE
 8
STL2DXF
 10
35.9323616027832
 20
123.306854248047
 30
17.2999992370605
 11
35.4500007629395
 21
123.107048034668
 31
15.3000001907349
 12
35.9323616027832
 22
123.306854248047
 32
15.3000001907349
 13
35.9323616027832
 23
123.306854248047
 33
15.3000001907349
 0
3DFACE
 8
STL2DXF
 10
35.0357856750488
 20
122.789215087891
 30
15.3000001907349
 11
35.4500007629395
 21
123.107048034668
 31
17.2999992370605
 12
35.0357856750488
 22
122.789215087891
 32
17.2999992370605
 13
35.0357856750488
 23
122.789215087891
 33
17.2999992370605
 0
3DFACE
 8
STL2DXF
 10
35.4500007629395
 20
123.107048034668
 30
17.2999992370605
 11
35.0357856750488
 21
122.789215087891
 31
15.3000001907349
 12
35.4500007629395
 22
123.107048034668
 32
15.3000001907349
 13
35.4500007629395
 23
123.107048034668
 33
15.3000001907349
 0
3DFACE
 8
STL2DXF
 10
34.7179489135742
 20
122.375
 30
17.2999992370605
 11
35.0357856750488
 21
122.789215087891
 31
15.3000001907349
 12
35.0357856750488
 22
122.789215087891
 32
17.2999992370605
 13
35.0357856750488
 23
122.789215087891
 33
17.2999992370605
 0
3DFACE
 8
STL2DXF
 10
35.0357856750488
 20
122.789215087891
 30
15.3000001907349
 11
34.7179489135742
 21
122.375
 31
17.2999992370605
 12
34.7179489135742
 22
122.375
 32
15.3000001907349
 13
34.7179489135742
 23
122.375
 33
15.3000001907349
 0
3DFACE
 8
STL2DXF
 10
34.5181465148926
 20
121.892639160156
 30
17.2999992370605
 11
34.7179489135742
 21
122.375
 31
15.3000001907349
 12
34.7179489135742
 22
122.375
 32
17.2999992370605
 13
34.7179489135742
 23
122.375
 33
17.2999992370605
 0
3DFACE
 8
STL2DXF
 10
34.7179489135742
 20
122.375
 30
15.3000001907349
 11
34.5181465148926
 21
121.892639160156
 31
17.2999992370605
 12
34.5181465148926
 22
121.892639160156
 32
15.3000001907349
 13
34.5181465148926
 23
121.892639160156
 33
15.3000001907349
 0
3DFACE
 8
STL2DXF
 10
34.4500007629395
 20
121.375
 30
17.2999992370605
 11
34.5181465148926
 21
121.892639160156
 31
15.3000001907349
 12
34.5181465148926
 22
121.892639160156
 32
17.2999992370605
 13
34.5181465148926
 23
121.892639160156
 33
17.2999992370605
 0
3DFACE
 8
STL2DXF
 10
34.5181465148926
 20
121.892639160156
 30
15.3000001907349
 11
34.4500007629395
 21
121.375
 31
17.2999992370605
 12
34.4500007629395
 22
121.375
 32
15.3000001907349
 13
34.4500007629395
 23
121.375
 33
15.3000001907349
 0
3DFACE
 8
STL2DXF
 10
34.5181465148926
 20
120.857360839844
 30
17.2999992370605
 11
34.4500007629395
 21
121.375
 31
15.3000001907349
 12
34.4500007629395
 22
121.375
 32
17.2999992370605
 13
34.4500007629395
 23
121.375
 33
17.2999992370605
 0
3DFACE
 8
STL2DXF
 10
34.4500007629395
 20
121.375
 30
15.3000001907349
 11
34.5181465148926
 21
120.857360839844
 31
17.2999992370605
 12
34.5181465148926
 22
120.857360839844
 32
15.3000001907349
 13
34.5181465148926
 23
120.857360839844
 33
15.3000001907349
 0
3DFACE
 8
STL2DXF
 10
34.7179489135742
 20
120.375
 30
17.2999992370605
 11
34.5181465148926
 21
120.857360839844
 31
15.3000001907349
 12
34.5181465148926
 22
120.857360839844
 32
17.2999992370605
 13
34.5181465148926
 23
120.857360839844
 33
17.2999992370605
 0
3DFACE
 8
STL2DXF
 10
34.5181465148926
 20
120.857360839844
 30
15.3000001907349
 11
34.7179489135742
 21
120.375
 31
17.2999992370605
 12
34.7179489135742
 22
120.375
 32
15.3000001907349
 13
34.7179489135742
 23
120.375
 33
15.3000001907349
 0
3DFACE
 8
STL2DXF
 10
35.0357856750488
 20
119.960784912109
 30
17.2999992370605
 11
34.7179489135742
 21
120.375
 31
15.3000001907349
 12
34.7179489135742
 22
120.375
 32
17.2999992370605
 13
34.7179489135742
 23
120.375
 33
17.2999992370605
 0
3DFACE
 8
STL2DXF
 10
34.7179489135742
 20
120.375
 30
15.3000001907349
 11
35.0357856750488
 21
119.960784912109
 31
17.2999992370605
 12
35.0357856750488
 22
119.960784912109
 32
15.3000001907349
 13
35.0357856750488
 23
119.960784912109
 33
15.3000001907349
 0
3DFACE
 8
STL2DXF
 10
35.4500007629395
 20
119.642951965332
 30
15.3000001907349
 11
35.0357856750488
 21
119.960784912109
 31
17.2999992370605
 12
35.4500007629395
 22
119.642951965332
 32
17.2999992370605
 13
35.4500007629395
 23
119.642951965332
 33
17.2999992370605
 0
3DFACE
 8
STL2DXF
 10
35.0357856750488
 20
119.960784912109
 30
17.2999992370605
 11
35.4500007629395
 21
119.642951965332
 31
15.3000001907349
 12
35.0357856750488
 22
119.960784912109
 32
15.3000001907349
 13
35.0357856750488
 23
119.960784912109
 33
15.3000001907349
 0
3DFACE
 8
STL2DXF
 10
35.9323616027832
 20
119.443145751953
 30
15.3000001907349
 11
35.4500007629395
 21
119.642951965332
 31
17.2999992370605
 12
35.9323616027832
 22
119.443145751953
 32
17.2999992370605
 13
35.9323616027832
 23
119.443145751953
 33
17.2999992370605
 0
3DFACE
 8
STL2DXF
 10
35.4500007629395
 20
119.642951965332
 30
17.2999992370605
 11
35.9323616027832
 21
119.443145751953
 31
15.3000001907349
 12
35.4500007629395
 22
119.642951965332
 32
15.3000001907349
 13
35.4500007629395
 23
119.642951965332
 33
15.3000001907349
 0
3DFACE
 8
STL2DXF
 10
36.4500007629395
 20
119.375
 30
17.2999992370605
 11
35.9323616027832
 21
119.443145751953
 31
15.3000001907349
 12
35.9323616027832
 22
119.443145751953
 32
17.2999992370605
 13
35.9323616027832
 23
119.443145751953
 33
17.2999992370605
 0
3DFACE
 8
STL2DXF
 10
35.9323616027832
 20
119.443145751953
 30
15.3000001907349
 11
36.4500007629395
 21
119.375
 31
17.2999992370605
 12
36.4500007629395
 22
119.375
 32
15.3000001907349
 13
36.4500007629395
 23
119.375
 33
15.3000001907349
 0
3DFACE
 8
STL2DXF
 10
36.9676399230957
 20
119.443145751953
 30
15.3000001907349
 11
36.4500007629395
 21
119.375
 31
17.2999992370605
 12
36.9676399230957
 22
119.443145751953
 32
17.2999992370605
 13
36.9676399230957
 23
119.443145751953
 33
17.2999992370605
 0
3DFACE
 8
STL2DXF
 10
36.4500007629395
 20
119.375
 30
17.2999992370605
 11
36.9676399230957
 21
119.443145751953
 31
15.3000001907349
 12
36.4500007629395
 22
119.375
 32
15.3000001907349
 13
36.4500007629395
 23
119.375
 33
15.3000001907349
 0
3DFACE
 8
STL2DXF
 10
37.4500007629395
 20
119.642951965332
 30
15.3000001907349
 11
36.9676399230957
 21
119.443145751953
 31
17.2999992370605
 12
37.4500007629395
 22
119.642951965332
 32
17.2999992370605
 13
37.4500007629395
 23
119.642951965332
 33
17.2999992370605
 0
3DFACE
 8
STL2DXF
 10
36.9676399230957
 20
119.443145751953
 30
17.2999992370605
 11
37.4500007629395
 21
119.642951965332
 31
15.3000001907349
 12
36.9676399230957
 22
119.443145751953
 32
15.3000001907349
 13
36.9676399230957
 23
119.443145751953
 33
15.3000001907349
 0
3DFACE
 8
STL2DXF
 10
37.8642120361328
 20
119.960784912109
 30
15.3000001907349
 11
37.4500007629395
 21
119.642951965332
 31
17.2999992370605
 12
37.8642120361328
 22
119.960784912109
 32
17.2999992370605
 13
37.8642120361328
 23
119.960784912109
 33
17.2999992370605
 0
3DFACE
 8
STL2DXF
 10
37.4500007629395
 20
119.642951965332
 30
17.2999992370605
 11
37.8642120361328
 21
119.960784912109
 31
15.3000001907349
 12
37.4500007629395
 22
119.642951965332
 32
15.3000001907349
 13
37.4500007629395
 23
119.642951965332
 33
15.3000001907349
 0
3DFACE
 8
STL2DXF
 10
37.8642120361328
 20
119.960784912109
 30
15.3000001907349
 11
38.1820526123047
 21
120.375
 31
17.2999992370605
 12
38.1820526123047
 22
120.375
 32
15.3000001907349
 13
38.1820526123047
 23
120.375
 33
15.3000001907349
 0
3DFACE
 8
STL2DXF
 10
38.1820526123047
 20
120.375
 30
17.2999992370605
 11
37.8642120361328
 21
119.960784912109
 31
15.3000001907349
 12
37.8642120361328
 22
119.960784912109
 32
17.2999992370605
 13
37.8642120361328
 23
119.960784912109
 33
17.2999992370605
 0
3DFACE
 8
STL2DXF
 10
34.5181465148926
 20
90.8573608398438
 30
15.3000001907349
 11
34.5181465148926
 21
91.8926391601563
 31
15.3000001907349
 12
34.4500007629395
 22
91.375
 32
15.3000001907349
 13
34.4500007629395
 23
91.375
 33
15.3000001907349
 0
3DFACE
 8
STL2DXF
 10
34.5181465148926
 20
91.8926391601563
 30
15.3000001907349
 11
34.5181465148926
 21
90.8573608398438
 31
15.3000001907349
 12
34.7179489135742
 22
90.375
 32
15.3000001907349
 13
34.7179489135742
 23
90.375
 33
15.3000001907349
 0
3DFACE
 8
STL2DXF
 10
34.5181465148926
 20
91.8926391601563
 30
15.3000001907349
 11
34.7179489135742
 21
90.375
 31
15.3000001907349
 12
34.7179489135742
 22
92.375
 32
15.3000001907349
 13
34.7179489135742
 23
92.375
 33
15.3000001907349
 0
3DFACE
 8
STL2DXF
 10
34.7179489135742
 20
92.375
 30
15.3000001907349
 11
34.7179489135742
 21
90.375
 31
15.3000001907349
 12
35.0357856750488
 22
89.9607849121094
 32
15.3000001907349
 13
35.0357856750488
 23
89.9607849121094
 33
15.3000001907349
 0
3DFACE
 8
STL2DXF
 10
34.7179489135742
 20
92.375
 30
15.3000001907349
 11
35.0357856750488
 21
89.9607849121094
 31
15.3000001907349
 12
35.0357856750488
 22
92.7892150878906
 32
15.3000001907349
 13
35.0357856750488
 23
92.7892150878906
 33
15.3000001907349
 0
3DFACE
 8
STL2DXF
 10
35.0357856750488
 20
92.7892150878906
 30
15.3000001907349
 11
35.0357856750488
 21
89.9607849121094
 31
15.3000001907349
 12
35.4500007629395
 22
93.107048034668
 32
15.3000001907349
 13
35.4500007629395
 23
93.107048034668
 33
15.3000001907349
 0
3DFACE
 8
STL2DXF
 10
35.4500007629395
 20
93.107048034668
 30
15.3000001907349
 11
35.0357856750488
 21
89.9607849121094
 31
15.3000001907349
 12
35.4500007629395
 22
89.642951965332
 32
15.3000001907349
 13
35.4500007629395
 23
89.642951965332
 33
15.3000001907349
 0
3DFACE
 8
STL2DXF
 10
35.4500007629395
 20
93.107048034668
 30
15.3000001907349
 11
35.4500007629395
 21
89.642951965332
 31
15.3000001907349
 12
35.9323616027832
 22
93.3068542480469
 32
15.3000001907349
 13
35.9323616027832
 23
93.3068542480469
 33
15.3000001907349
 0
3DFACE
 8
STL2DXF
 10
35.9323616027832
 20
93.3068542480469
 30
15.3000001907349
 11
35.4500007629395
 21
89.642951965332
 31
15.3000001907349
 12
35.9323616027832
 22
89.4431457519531
 32
15.3000001907349
 13
35.9323616027832
 23
89.4431457519531
 33
15.3000001907349
 0
3DFACE
 8
STL2DXF
 10
35.9323616027832
 20
93.3068542480469
 30
15.3000001907349
 11
35.9323616027832
 21
89.4431457519531
 31
15.3000001907349
 12
36.4500007629395
 22
93.375
 32
15.3000001907349
 13
36.4500007629395
 23
93.375
 33
15.3000001907349
 0
3DFACE
 8
STL2DXF
 10
36.4500007629395
 20
93.375
 30
15.3000001907349
 11
35.9323616027832
 21
89.4431457519531
 31
15.3000001907349
 12
36.4500007629395
 22
89.375
 32
15.3000001907349
 13
36.4500007629395
 23
89.375
 33
15.3000001907349
 0
3DFACE
 8
STL2DXF
 10
36.4500007629395
 20
93.375
 30
15.3000001907349
 11
36.4500007629395
 21
89.375
 31
15.3000001907349
 12
36.9676399230957
 22
89.4431457519531
 32
15.3000001907349
 13
36.9676399230957
 23
89.4431457519531
 33
15.3000001907349
 0
3DFACE
 8
STL2DXF
 10
36.4500007629395
 20
93.375
 30
15.3000001907349
 11
36.9676399230957
 21
89.4431457519531
 31
15.3000001907349
 12
36.9676399230957
 22
93.3068542480469
 32
15.3000001907349
 13
36.9676399230957
 23
93.3068542480469
 33
15.3000001907349
 0
3DFACE
 8
STL2DXF
 10
36.9676399230957
 20
93.3068542480469
 30
15.3000001907349
 11
36.9676399230957
 21
89.4431457519531
 31
15.3000001907349
 12
37.4500007629395
 22
89.642951965332
 32
15.3000001907349
 13
37.4500007629395
 23
89.642951965332
 33
15.3000001907349
 0
3DFACE
 8
STL2DXF
 10
36.9676399230957
 20
93.3068542480469
 30
15.3000001907349
 11
37.4500007629395
 21
89.642951965332
 31
15.3000001907349
 12
37.4500007629395
 22
93.107048034668
 32
15.3000001907349
 13
37.4500007629395
 23
93.107048034668
 33
15.3000001907349
 0
3DFACE
 8
STL2DXF
 10
37.4500007629395
 20
93.107048034668
 30
15.3000001907349
 11
37.4500007629395
 21
89.642951965332
 31
15.3000001907349
 12
37.8642120361328
 22
92.7892150878906
 32
15.3000001907349
 13
37.8642120361328
 23
92.7892150878906
 33
15.3000001907349
 0
3DFACE
 8
STL2DXF
 10
37.8642120361328
 20
92.7892150878906
 30
15.3000001907349
 11
37.4500007629395
 21
89.642951965332
 31
15.3000001907349
 12
37.8642120361328
 22
89.9607849121094
 32
15.3000001907349
 13
37.8642120361328
 23
89.9607849121094
 33
15.3000001907349
 0
3DFACE
 8
STL2DXF
 10
37.8642120361328
 20
92.7892150878906
 30
15.3000001907349
 11
37.8642120361328
 21
89.9607849121094
 31
15.3000001907349
 12
38.1820526123047
 22
90.375
 32
15.3000001907349
 13
38.1820526123047
 23
90.375
 33
15.3000001907349
 0
3DFACE
 8
STL2DXF
 10
37.8642120361328
 20
92.7892150878906
 30
15.3000001907349
 11
38.1820526123047
 21
90.375
 31
15.3000001907349
 12
38.1820526123047
 22
92.375
 32
15.3000001907349
 13
38.1820526123047
 23
92.375
 33
15.3000001907349
 0
3DFACE
 8
STL2DXF
 10
38.1820526123047
 20
92.375
 30
15.3000001907349
 11
38.1820526123047
 21
90.375
 31
15.3000001907349
 12
38.3818511962891
 22
90.8573608398438
 32
15.3000001907349
 13
38.3818511962891
 23
90.8573608398438
 33
15.3000001907349
 0
3DFACE
 8
STL2DXF
 10
38.1820526123047
 20
92.375
 30
15.3000001907349
 11
38.3818511962891
 21
90.8573608398438
 31
15.3000001907349
 12
38.3818511962891
 22
91.8926391601563
 32
15.3000001907349
 13
38.3818511962891
 23
91.8926391601563
 33
15.3000001907349
 0
3DFACE
 8
STL2DXF
 10
38.3818511962891
 20
91.8926391601563
 30
15.3000001907349
 11
38.3818511962891
 21
90.8573608398438
 31
15.3000001907349
 12
38.4500007629395
 22
91.375
 32
15.3000001907349
 13
38.4500007629395
 23
91.375
 33
15.3000001907349
 0
3DFACE
 8
STL2DXF
 10
37.8642120361328
 20
89.9607849121094
 30
15.3000001907349
 11
38.1820526123047
 21
90.375
 31
17.2999992370605
 12
38.1820526123047
 22
90.375
 32
15.3000001907349
 13
38.1820526123047
 23
90.375
 33
15.3000001907349
 0
3DFACE
 8
STL2DXF
 10
38.1820526123047
 20
90.375
 30
17.2999992370605
 11
37.8642120361328
 21
89.9607849121094
 31
15.3000001907349
 12
37.8642120361328
 22
89.9607849121094
 32
17.2999992370605
 13
37.8642120361328
 23
89.9607849121094
 33
17.2999992370605
 0
3DFACE
 8
STL2DXF
 10
38.1820526123047
 20
90.375
 30
15.3000001907349
 11
38.3818511962891
 21
90.8573608398438
 31
17.2999992370605
 12
38.3818511962891
 22
90.8573608398438
 32
15.3000001907349
 13
38.3818511962891
 23
90.8573608398438
 33
15.3000001907349
 0
3DFACE
 8
STL2DXF
 10
38.3818511962891
 20
90.8573608398438
 30
17.2999992370605
 11
38.1820526123047
 21
90.375
 31
15.3000001907349
 12
38.1820526123047
 22
90.375
 32
17.2999992370605
 13
38.1820526123047
 23
90.375
 33
17.2999992370605
 0
3DFACE
 8
STL2DXF
 10
38.3818511962891
 20
90.8573608398438
 30
15.3000001907349
 11
38.4500007629395
 21
91.375
 31
17.2999992370605
 12
38.4500007629395
 22
91.375
 32
15.3000001907349
 13
38.4500007629395
 23
91.375
 33
15.3000001907349
 0
3DFACE
 8
STL2DXF
 10
38.4500007629395
 20
91.375
 30
17.2999992370605
 11
38.3818511962891
 21
90.8573608398438
 31
15.3000001907349
 12
38.3818511962891
 22
90.8573608398438
 32
17.2999992370605
 13
38.3818511962891
 23
90.8573608398438
 33
17.2999992370605
 0
3DFACE
 8
STL2DXF
 10
38.4500007629395
 20
91.375
 30
15.3000001907349
 11
38.3818511962891
 21
91.8926391601563
 31
17.2999992370605
 12
38.3818511962891
 22
91.8926391601563
 32
15.3000001907349
 13
38.3818511962891
 23
91.8926391601563
 33
15.3000001907349
 0
3DFACE
 8
STL2DXF
 10
38.3818511962891
 20
91.8926391601563
 30
17.2999992370605
 11
38.4500007629395
 21
91.375
 31
15.3000001907349
 12
38.4500007629395
 22
91.375
 32
17.2999992370605
 13
38.4500007629395
 23
91.375
 33
17.2999992370605
 0
3DFACE
 8
STL2DXF
 10
38.3818511962891
 20
91.8926391601563
 30
15.3000001907349
 11
38.1820526123047
 21
92.375
 31
17.2999992370605
 12
38.1820526123047
 22
92.375
 32
15.3000001907349
 13
38.1820526123047
 23
92.375
 33
15.3000001907349
 0
3DFACE
 8
STL2DXF
 10
38.1820526123047
 20
92.375
 30
17.2999992370605
 11
38.3818511962891
 21
91.8926391601563
 31
15.3000001907349
 12
38.3818511962891
 22
91.8926391601563
 32
17.2999992370605
 13
38.3818511962891
 23
91.8926391601563
 33
17.2999992370605
 0
3DFACE
 8
STL2DXF
 10
38.1820526123047
 20
92.375
 30
15.3000001907349
 11
37.8642120361328
 21
92.7892150878906
 31
17.2999992370605
 12
37.8642120361328
 22
92.7892150878906
 32
15.3000001907349
 13
37.8642120361328
 23
92.7892150878906
 33
15.3000001907349
 0
3DFACE
 8
STL2DXF
 10
37.8642120361328
 20
92.7892150878906
 30
17.2999992370605
 11
38.1820526123047
 21
92.375
 31
15.3000001907349
 12
38.1820526123047
 22
92.375
 32
17.2999992370605
 13
38.1820526123047
 23
92.375
 33
17.2999992370605
 0
3DFACE
 8
STL2DXF
 10
37.4500007629395
 20
93.107048034668
 30
17.2999992370605
 11
37.8642120361328
 21
92.7892150878906
 31
15.3000001907349
 12
37.8642120361328
 22
92.7892150878906
 32
17.2999992370605
 13
37.8642120361328
 23
92.7892150878906
 33
17.2999992370605
 0
3DFACE
 8
STL2DXF
 10
37.8642120361328
 20
92.7892150878906
 30
15.3000001907349
 11
37.4500007629395
 21
93.107048034668
 31
17.2999992370605
 12
37.4500007629395
 22
93.107048034668
 32
15.3000001907349
 13
37.4500007629395
 23
93.107048034668
 33
15.3000001907349
 0
3DFACE
 8
STL2DXF
 10
36.9676399230957
 20
93.3068542480469
 30
15.3000001907349
 11
37.4500007629395
 21
93.107048034668
 31
17.2999992370605
 12
36.9676399230957
 22
93.3068542480469
 32
17.2999992370605
 13
36.9676399230957
 23
93.3068542480469
 33
17.2999992370605
 0
3DFACE
 8
STL2DXF
 10
37.4500007629395
 20
93.107048034668
 30
17.2999992370605
 11
36.9676399230957
 21
93.3068542480469
 31
15.3000001907349
 12
37.4500007629395
 22
93.107048034668
 32
15.3000001907349
 13
37.4500007629395
 23
93.107048034668
 33
15.3000001907349
 0
3DFACE
 8
STL2DXF
 10
36.4500007629395
 20
93.375
 30
15.3000001907349
 11
36.9676399230957
 21
93.3068542480469
 31
17.2999992370605
 12
36.4500007629395
 22
93.375
 32
17.2999992370605
 13
36.4500007629395
 23
93.375
 33
17.2999992370605
 0
3DFACE
 8
STL2DXF
 10
36.9676399230957
 20
93.3068542480469
 30
17.2999992370605
 11
36.4500007629395
 21
93.375
 31
15.3000001907349
 12
36.9676399230957
 22
93.3068542480469
 32
15.3000001907349
 13
36.9676399230957
 23
93.3068542480469
 33
15.3000001907349
 0
3DFACE
 8
STL2DXF
 10
35.9323616027832
 20
93.3068542480469
 30
15.3000001907349
 11
36.4500007629395
 21
93.375
 31
17.2999992370605
 12
35.9323616027832
 22
93.3068542480469
 32
17.2999992370605
 13
35.9323616027832
 23
93.3068542480469
 33
17.2999992370605
 0
3DFACE
 8
STL2DXF
 10
36.4500007629395
 20
93.375
 30
17.2999992370605
 11
35.9323616027832
 21
93.3068542480469
 31
15.3000001907349
 12
36.4500007629395
 22
93.375
 32
15.3000001907349
 13
36.4500007629395
 23
93.375
 33
15.3000001907349
 0
3DFACE
 8
STL2DXF
 10
35.4500007629395
 20
93.107048034668
 30
15.3000001907349
 11
35.9323616027832
 21
93.3068542480469
 31
17.2999992370605
 12
35.4500007629395
 22
93.107048034668
 32
17.2999992370605
 13
35.4500007629395
 23
93.107048034668
 33
17.2999992370605
 0
3DFACE
 8
STL2DXF
 10
35.9323616027832
 20
93.3068542480469
 30
17.2999992370605
 11
35.4500007629395
 21
93.107048034668
 31
15.3000001907349
 12
35.9323616027832
 22
93.3068542480469
 32
15.3000001907349
 13
35.9323616027832
 23
93.3068542480469
 33
15.3000001907349
 0
3DFACE
 8
STL2DXF
 10
35.0357856750488
 20
92.7892150878906
 30
15.3000001907349
 11
35.4500007629395
 21
93.107048034668
 31
17.2999992370605
 12
35.0357856750488
 22
92.7892150878906
 32
17.2999992370605
 13
35.0357856750488
 23
92.7892150878906
 33
17.2999992370605
 0
3DFACE
 8
STL2DXF
 10
35.4500007629395
 20
93.107048034668
 30
17.2999992370605
 11
35.0357856750488
 21
92.7892150878906
 31
15.3000001907349
 12
35.4500007629395
 22
93.107048034668
 32
15.3000001907349
 13
35.4500007629395
 23
93.107048034668
 33
15.3000001907349
 0
3DFACE
 8
STL2DXF
 10
35.0357856750488
 20
92.7892150878906
 30
17.2999992370605
 11
34.7179489135742
 21
92.375
 31
15.3000001907349
 12
35.0357856750488
 22
92.7892150878906
 32
15.3000001907349
 13
35.0357856750488
 23
92.7892150878906
 33
15.3000001907349
 0
3DFACE
 8
STL2DXF
 10
34.7179489135742
 20
92.375
 30
15.3000001907349
 11
35.0357856750488
 21
92.7892150878906
 31
17.2999992370605
 12
34.7179489135742
 22
92.375
 32
17.2999992370605
 13
34.7179489135742
 23
92.375
 33
17.2999992370605
 0
3DFACE
 8
STL2DXF
 10
34.7179489135742
 20
92.375
 30
17.2999992370605
 11
34.5181465148926
 21
91.8926391601563
 31
15.3000001907349
 12
34.7179489135742
 22
92.375
 32
15.3000001907349
 13
34.7179489135742
 23
92.375
 33
15.3000001907349
 0
3DFACE
 8
STL2DXF
 10
34.5181465148926
 20
91.8926391601563
 30
15.3000001907349
 11
34.7179489135742
 21
92.375
 31
17.2999992370605
 12
34.5181465148926
 22
91.8926391601563
 32
17.2999992370605
 13
34.5181465148926
 23
91.8926391601563
 33
17.2999992370605
 0
3DFACE
 8
STL2DXF
 10
34.5181465148926
 20
91.8926391601563
 30
17.2999992370605
 11
34.4500007629395
 21
91.375
 31
15.3000001907349
 12
34.5181465148926
 22
91.8926391601563
 32
15.3000001907349
 13
34.5181465148926
 23
91.8926391601563
 33
15.3000001907349
 0
3DFACE
 8
STL2DXF
 10
34.4500007629395
 20
91.375
 30
15.3000001907349
 11
34.5181465148926
 21
91.8926391601563
 31
17.2999992370605
 12
34.4500007629395
 22
91.375
 32
17.2999992370605
 13
34.4500007629395
 23
91.375
 33
17.2999992370605
 0
3DFACE
 8
STL2DXF
 10
34.4500007629395
 20
91.375
 30
17.2999992370605
 11
34.5181465148926
 21
90.8573608398438
 31
15.3000001907349
 12
34.4500007629395
 22
91.375
 32
15.3000001907349
 13
34.4500007629395
 23
91.375
 33
15.3000001907349
 0
3DFACE
 8
STL2DXF
 10
34.5181465148926
 20
90.8573608398438
 30
15.3000001907349
 11
34.4500007629395
 21
91.375
 31
17.2999992370605
 12
34.5181465148926
 22
90.8573608398438
 32
17.2999992370605
 13
34.5181465148926
 23
90.8573608398438
 33
17.2999992370605
 0
3DFACE
 8
STL2DXF
 10
34.5181465148926
 20
90.8573608398438
 30
17.2999992370605
 11
34.7179489135742
 21
90.375
 31
15.3000001907349
 12
34.5181465148926
 22
90.8573608398438
 32
15.3000001907349
 13
34.5181465148926
 23
90.8573608398438
 33
15.3000001907349
 0
3DFACE
 8
STL2DXF
 10
34.7179489135742
 20
90.375
 30
15.3000001907349
 11
34.5181465148926
 21
90.8573608398438
 31
17.2999992370605
 12
34.7179489135742
 22
90.375
 32
17.2999992370605
 13
34.7179489135742
 23
90.375
 33
17.2999992370605
 0
3DFACE
 8
STL2DXF
 10
34.7179489135742
 20
90.375
 30
17.2999992370605
 11
35.0357856750488
 21
89.9607849121094
 31
15.3000001907349
 12
34.7179489135742
 22
90.375
 32
15.3000001907349
 13
34.7179489135742
 23
90.375
 33
15.3000001907349
 0
3DFACE
 8
STL2DXF
 10
35.0357856750488
 20
89.9607849121094
 30
15.3000001907349
 11
34.7179489135742
 21
90.375
 31
17.2999992370605
 12
35.0357856750488
 22
89.9607849121094
 32
17.2999992370605
 13
35.0357856750488
 23
89.9607849121094
 33
17.2999992370605
 0
3DFACE
 8
STL2DXF
 10
35.4500007629395
 20
89.642951965332
 30
15.3000001907349
 11
35.0357856750488
 21
89.9607849121094
 31
17.2999992370605
 12
35.4500007629395
 22
89.642951965332
 32
17.2999992370605
 13
35.4500007629395
 23
89.642951965332
 33
17.2999992370605
 0
3DFACE
 8
STL2DXF
 10
35.0357856750488
 20
89.9607849121094
 30
17.2999992370605
 11
35.4500007629395
 21
89.642951965332
 31
15.3000001907349
 12
35.0357856750488
 22
89.9607849121094
 32
15.3000001907349
 13
35.0357856750488
 23
89.9607849121094
 33
15.3000001907349
 0
3DFACE
 8
STL2DXF
 10
35.9323616027832
 20
89.4431457519531
 30
15.3000001907349
 11
35.4500007629395
 21
89.642951965332
 31
17.2999992370605
 12
35.9323616027832
 22
89.4431457519531
 32
17.2999992370605
 13
35.9323616027832
 23
89.4431457519531
 33
17.2999992370605
 0
3DFACE
 8
STL2DXF
 10
35.4500007629395
 20
89.642951965332
 30
17.2999992370605
 11
35.9323616027832
 21
89.4431457519531
 31
15.3000001907349
 12
35.4500007629395
 22
89.642951965332
 32
15.3000001907349
 13
35.4500007629395
 23
89.642951965332
 33
15.3000001907349
 0
3DFACE
 8
STL2DXF
 10
36.4500007629395
 20
89.375
 30
15.3000001907349
 11
35.9323616027832
 21
89.4431457519531
 31
17.2999992370605
 12
36.4500007629395
 22
89.375
 32
17.2999992370605
 13
36.4500007629395
 23
89.375
 33
17.2999992370605
 0
3DFACE
 8
STL2DXF
 10
35.9323616027832
 20
89.4431457519531
 30
17.2999992370605
 11
36.4500007629395
 21
89.375
 31
15.3000001907349
 12
35.9323616027832
 22
89.4431457519531
 32
15.3000001907349
 13
35.9323616027832
 23
89.4431457519531
 33
15.3000001907349
 0
3DFACE
 8
STL2DXF
 10
36.9676399230957
 20
89.4431457519531
 30
15.3000001907349
 11
36.4500007629395
 21
89.375
 31
17.2999992370605
 12
36.9676399230957
 22
89.4431457519531
 32
17.2999992370605
 13
36.9676399230957
 23
89.4431457519531
 33
17.2999992370605
 0
3DFACE
 8
STL2DXF
 10
36.4500007629395
 20
89.375
 30
17.2999992370605
 11
36.9676399230957
 21
89.4431457519531
 31
15.3000001907349
 12
36.4500007629395
 22
89.375
 32
15.3000001907349
 13
36.4500007629395
 23
89.375
 33
15.3000001907349
 0
3DFACE
 8
STL2DXF
 10
37.4500007629395
 20
89.642951965332
 30
15.3000001907349
 11
36.9676399230957
 21
89.4431457519531
 31
17.2999992370605
 12
37.4500007629395
 22
89.642951965332
 32
17.2999992370605
 13
37.4500007629395
 23
89.642951965332
 33
17.2999992370605
 0
3DFACE
 8
STL2DXF
 10
36.9676399230957
 20
89.4431457519531
 30
17.2999992370605
 11
37.4500007629395
 21
89.642951965332
 31
15.3000001907349
 12
36.9676399230957
 22
89.4431457519531
 32
15.3000001907349
 13
36.9676399230957
 23
89.4431457519531
 33
15.3000001907349
 0
3DFACE
 8
STL2DXF
 10
37.8642120361328
 20
89.9607849121094
 30
17.2999992370605
 11
37.4500007629395
 21
89.642951965332
 31
15.3000001907349
 12
37.4500007629395
 22
89.642951965332
 32
17.2999992370605
 13
37.4500007629395
 23
89.642951965332
 33
17.2999992370605
 0
3DFACE
 8
STL2DXF
 10
37.4500007629395
 20
89.642951965332
 30
15.3000001907349
 11
37.8642120361328
 21
89.9607849121094
 31
17.2999992370605
 12
37.8642120361328
 22
89.9607849121094
 32
15.3000001907349
 13
37.8642120361328
 23
89.9607849121094
 33
15.3000001907349
 0
3DFACE
 8
STL2DXF
 10
21.5568523406982
 20
120.857360839844
 30
17.2999992370605
 11
21.625
 21
121.375
 31
16.2999992370605
 12
21.625
 22
121.375
 32
17.2999992370605
 13
21.625
 23
121.375
 33
17.2999992370605
 0
3DFACE
 8
STL2DXF
 10
21.625
 20
121.375
 30
16.2999992370605
 11
21.5568523406982
 21
120.857360839844
 31
17.2999992370605
 12
21.5568523406982
 22
120.857360839844
 32
16.2999992370605
 13
21.5568523406982
 23
120.857360839844
 33
16.2999992370605
 0
3DFACE
 8
STL2DXF
 10
19.1073627471924
 20
123.306854248047
 30
14.3000001907349
 11
18.625
 21
123.107048034668
 31
17.2999992370605
 12
19.1073627471924
 22
123.306854248047
 32
17.2999992370605
 13
19.1073627471924
 23
123.306854248047
 33
17.2999992370605
 0
3DFACE
 8
STL2DXF
 10
18.625
 20
123.107048034668
 30
17.2999992370605
 11
19.1073627471924
 21
123.306854248047
 31
14.3000001907349
 12
18.625
 22
123.107048034668
 32
14.3000001907349
 13
18.625
 23
123.107048034668
 33
14.3000001907349
 0
3DFACE
 8
STL2DXF
 10
21.625
 20
121.375
 30
17.2999992370605
 11
21.5568523406982
 21
121.892639160156
 31
16.2999992370605
 12
21.5568523406982
 22
121.892639160156
 32
17.2999992370605
 13
21.5568523406982
 23
121.892639160156
 33
17.2999992370605
 0
3DFACE
 8
STL2DXF
 10
21.5568523406982
 20
121.892639160156
 30
16.2999992370605
 11
21.625
 21
121.375
 31
17.2999992370605
 12
21.625
 22
121.375
 32
16.2999992370605
 13
21.625
 23
121.375
 33
16.2999992370605
 0
3DFACE
 8
STL2DXF
 10
21.3570499420166
 20
122.375
 30
17.2999992370605
 11
21.039213180542
 21
122.789215087891
 31
16.2999992370605
 12
21.039213180542
 22
122.789215087891
 32
17.2999992370605
 13
21.039213180542
 23
122.789215087891
 33
17.2999992370605
 0
3DFACE
 8
STL2DXF
 10
21.039213180542
 20
122.789215087891
 30
16.2999992370605
 11
21.3570499420166
 21
122.375
 31
17.2999992370605
 12
21.3570499420166
 22
122.375
 32
16.2999992370605
 13
21.3570499420166
 23
122.375
 33
16.2999992370605
 0
3DFACE
 8
STL2DXF
 10
21.039213180542
 20
122.789215087891
 30
16.2999992370605
 11
20.625
 21
123.107048034668
 31
17.2999992370605
 12
21.039213180542
 22
122.789215087891
 32
17.2999992370605
 13
21.039213180542
 23
122.789215087891
 33
17.2999992370605
 0
3DFACE
 8
STL2DXF
 10
20.625
 20
123.107048034668
 30
17.2999992370605
 11
21.039213180542
 21
122.789215087891
 31
16.2999992370605
 12
20.625
 22
123.107048034668
 32
16.2999992370605
 13
20.625
 23
123.107048034668
 33
16.2999992370605
 0
3DFACE
 8
STL2DXF
 10
20.625
 20
123.107048034668
 30
16.2999992370605
 11
20.1426372528076
 21
123.306854248047
 31
17.2999992370605
 12
20.625
 22
123.107048034668
 32
17.2999992370605
 13
20.625
 23
123.107048034668
 33
17.2999992370605
 0
3DFACE
 8
STL2DXF
 10
20.1426372528076
 20
123.306854248047
 30
17.2999992370605
 11
20.625
 21
123.107048034668
 31
16.2999992370605
 12
20.1426372528076
 22
123.306854248047
 32
16.2999992370605
 13
20.1426372528076
 23
123.306854248047
 33
16.2999992370605
 0
3DFACE
 8
STL2DXF
 10
20.1426372528076
 20
123.306854248047
 30
16.2999992370605
 11
19.625
 21
123.375
 31
17.2999992370605
 12
20.1426372528076
 22
123.306854248047
 32
17.2999992370605
 13
20.1426372528076
 23
123.306854248047
 33
17.2999992370605
 0
3DFACE
 8
STL2DXF
 10
19.625
 20
123.375
 30
17.2999992370605
 11
20.1426372528076
 21
123.306854248047
 31
16.2999992370605
 12
19.625
 22
123.375
 32
16.2999992370605
 13
19.625
 23
123.375
 33
16.2999992370605
 0
3DFACE
 8
STL2DXF
 10
19.625
 20
123.375
 30
16.2999992370605
 11
19.1073627471924
 21
123.306854248047
 31
17.2999992370605
 12
19.625
 22
123.375
 32
17.2999992370605
 13
19.625
 23
123.375
 33
17.2999992370605
 0
3DFACE
 8
STL2DXF
 10
19.1073627471924
 20
123.306854248047
 30
17.2999992370605
 11
19.625
 21
123.375
 31
16.2999992370605
 12
19.1073627471924
 22
123.306854248047
 32
14.3000001907349
 13
19.1073627471924
 23
123.306854248047
 33
14.3000001907349
 0
3DFACE
 8
STL2DXF
 10
19.1073627471924
 20
123.306854248047
 30
14.3000001907349
 11
19.625
 21
123.375
 31
16.2999992370605
 12
19.625
 22
123.375
 32
14.3000001907349
 13
19.625
 23
123.375
 33
14.3000001907349
 0
3DFACE
 8
STL2DXF
 10
17.8929500579834
 20
120.375
 30
14.3000001907349
 11
18.210786819458
 21
119.960784912109
 31
17.2999992370605
 12
17.8929500579834
 22
120.375
 32
17.2999992370605
 13
17.8929500579834
 23
120.375
 33
17.2999992370605
 0
3DFACE
 8
STL2DXF
 10
18.210786819458
 20
119.960784912109
 30
17.2999992370605
 11
17.8929500579834
 21
120.375
 31
14.3000001907349
 12
18.210786819458
 22
119.960784912109
 32
14.3000001907349
 13
18.210786819458
 23
119.960784912109
 33
14.3000001907349
 0
3DFACE
 8
STL2DXF
 10
20.625
 20
119.642951965332
 30
16.2999992370605
 11
21.039213180542
 21
119.960784912109
 31
17.2999992370605
 12
20.625
 22
119.642951965332
 32
17.2999992370605
 13
20.625
 23
119.642951965332
 33
17.2999992370605
 0
3DFACE
 8
STL2DXF
 10
21.039213180542
 20
119.960784912109
 30
17.2999992370605
 11
20.625
 21
119.642951965332
 31
16.2999992370605
 12
21.039213180542
 22
119.960784912109
 32
16.2999992370605
 13
21.039213180542
 23
119.960784912109
 33
16.2999992370605
 0
3DFACE
 8
STL2DXF
 10
18.210786819458
 20
119.960784912109
 30
14.3000001907349
 11
18.625
 21
119.642951965332
 31
17.2999992370605
 12
18.210786819458
 22
119.960784912109
 32
17.2999992370605
 13
18.210786819458
 23
119.960784912109
 33
17.2999992370605
 0
3DFACE
 8
STL2DXF
 10
18.625
 20
119.642951965332
 30
17.2999992370605
 11
18.210786819458
 21
119.960784912109
 31
14.3000001907349
 12
18.625
 22
119.642951965332
 32
14.3000001907349
 13
18.625
 23
119.642951965332
 33
14.3000001907349
 0
3DFACE
 8
STL2DXF
 10
19.1073627471924
 20
119.443145751953
 30
14.3000001907349
 11
19.625
 21
119.375
 31
17.2999992370605
 12
19.1073627471924
 22
119.443145751953
 32
17.2999992370605
 13
19.1073627471924
 23
119.443145751953
 33
17.2999992370605
 0
3DFACE
 8
STL2DXF
 10
19.625
 20
119.375
 30
17.2999992370605
 11
19.1073627471924
 21
119.443145751953
 31
14.3000001907349
 12
19.625
 22
119.375
 32
16.2999992370605
 13
19.625
 23
119.375
 33
16.2999992370605
 0
3DFACE
 8
STL2DXF
 10
19.625
 20
119.375
 30
16.2999992370605
 11
19.1073627471924
 21
119.443145751953
 31
14.3000001907349
 12
19.625
 22
119.375
 32
14.3000001907349
 13
19.625
 23
119.375
 33
14.3000001907349
 0
3DFACE
 8
STL2DXF
 10
18.625
 20
123.107048034668
 30
14.3000001907349
 11
18.210786819458
 21
122.789215087891
 31
17.2999992370605
 12
18.625
 22
123.107048034668
 32
17.2999992370605
 13
18.625
 23
123.107048034668
 33
17.2999992370605
 0
3DFACE
 8
STL2DXF
 10
18.210786819458
 20
122.789215087891
 30
17.2999992370605
 11
18.625
 21
123.107048034668
 31
14.3000001907349
 12
18.210786819458
 22
122.789215087891
 32
14.3000001907349
 13
18.210786819458
 23
122.789215087891
 33
14.3000001907349
 0
3DFACE
 8
STL2DXF
 10
19.625
 20
119.375
 30
17.2999992370605
 11
20.1426372528076
 21
119.443145751953
 31
16.2999992370605
 12
20.1426372528076
 22
119.443145751953
 32
17.2999992370605
 13
20.1426372528076
 23
119.443145751953
 33
17.2999992370605
 0
3DFACE
 8
STL2DXF
 10
20.1426372528076
 20
119.443145751953
 30
16.2999992370605
 11
19.625
 21
119.375
 31
17.2999992370605
 12
19.625
 22
119.375
 32
16.2999992370605
 13
19.625
 23
119.375
 33
16.2999992370605
 0
3DFACE
 8
STL2DXF
 10
18.210786819458
 20
122.789215087891
 30
14.3000001907349
 11
17.8929500579834
 21
122.375
 31
17.2999992370605
 12
18.210786819458
 22
122.789215087891
 32
17.2999992370605
 13
18.210786819458
 23
122.789215087891
 33
17.2999992370605
 0
3DFACE
 8
STL2DXF
 10
17.8929500579834
 20
122.375
 30
17.2999992370605
 11
18.210786819458
 21
122.789215087891
 31
14.3000001907349
 12
17.8929500579834
 22
122.375
 32
14.3000001907349
 13
17.8929500579834
 23
122.375
 33
14.3000001907349
 0
3DFACE
 8
STL2DXF
 10
20.1426372528076
 20
119.443145751953
 30
16.2999992370605
 11
20.625
 21
119.642951965332
 31
17.2999992370605
 12
20.1426372528076
 22
119.443145751953
 32
17.2999992370605
 13
20.1426372528076
 23
119.443145751953
 33
17.2999992370605
 0
3DFACE
 8
STL2DXF
 10
20.625
 20
119.642951965332
 30
17.2999992370605
 11
20.1426372528076
 21
119.443145751953
 31
16.2999992370605
 12
20.625
 22
119.642951965332
 32
16.2999992370605
 13
20.625
 23
119.642951965332
 33
16.2999992370605
 0
3DFACE
 8
STL2DXF
 10
17.6931476593018
 20
121.892639160156
 30
14.3000001907349
 11
17.8929500579834
 21
122.375
 31
17.2999992370605
 12
17.8929500579834
 22
122.375
 32
14.3000001907349
 13
17.8929500579834
 23
122.375
 33
14.3000001907349
 0
3DFACE
 8
STL2DXF
 10
17.8929500579834
 20
122.375
 30
17.2999992370605
 11
17.6931476593018
 21
121.892639160156
 31
14.3000001907349
 12
17.6931476593018
 22
121.892639160156
 32
17.2999992370605
 13
17.6931476593018
 23
121.892639160156
 33
17.2999992370605
 0
3DFACE
 8
STL2DXF
 10
17.6931476593018
 20
121.892639160156
 30
14.3000001907349
 11
17.625
 21
121.375
 31
17.2999992370605
 12
17.6931476593018
 22
121.892639160156
 32
17.2999992370605
 13
17.6931476593018
 23
121.892639160156
 33
17.2999992370605
 0
3DFACE
 8
STL2DXF
 10
17.625
 20
121.375
 30
17.2999992370605
 11
17.6931476593018
 21
121.892639160156
 31
14.3000001907349
 12
17.625
 22
121.375
 32
14.3000001907349
 13
17.625
 23
121.375
 33
14.3000001907349
 0
3DFACE
 8
STL2DXF
 10
21.3570499420166
 20
120.375
 30
17.2999992370605
 11
21.5568523406982
 21
120.857360839844
 31
16.2999992370605
 12
21.5568523406982
 22
120.857360839844
 32
17.2999992370605
 13
21.5568523406982
 23
120.857360839844
 33
17.2999992370605
 0
3DFACE
 8
STL2DXF
 10
21.5568523406982
 20
120.857360839844
 30
16.2999992370605
 11
21.3570499420166
 21
120.375
 31
17.2999992370605
 12
21.3570499420166
 22
120.375
 32
16.2999992370605
 13
21.3570499420166
 23
120.375
 33
16.2999992370605
 0
3DFACE
 8
STL2DXF
 10
17.6931476593018
 20
120.857360839844
 30
14.3000001907349
 11
17.625
 21
121.375
 31
17.2999992370605
 12
17.625
 22
121.375
 32
14.3000001907349
 13
17.625
 23
121.375
 33
14.3000001907349
 0
3DFACE
 8
STL2DXF
 10
17.625
 20
121.375
 30
17.2999992370605
 11
17.6931476593018
 21
120.857360839844
 31
14.3000001907349
 12
17.6931476593018
 22
120.857360839844
 32
17.2999992370605
 13
17.6931476593018
 23
120.857360839844
 33
17.2999992370605
 0
3DFACE
 8
STL2DXF
 10
21.039213180542
 20
119.960784912109
 30
17.2999992370605
 11
21.3570499420166
 21
120.375
 31
16.2999992370605
 12
21.3570499420166
 22
120.375
 32
17.2999992370605
 13
21.3570499420166
 23
120.375
 33
17.2999992370605
 0
3DFACE
 8
STL2DXF
 10
21.3570499420166
 20
120.375
 30
16.2999992370605
 11
21.039213180542
 21
119.960784912109
 31
17.2999992370605
 12
21.039213180542
 22
119.960784912109
 32
16.2999992370605
 13
21.039213180542
 23
119.960784912109
 33
16.2999992370605
 0
3DFACE
 8
STL2DXF
 10
21.5568523406982
 20
121.892639160156
 30
17.2999992370605
 11
21.3570499420166
 21
122.375
 31
16.2999992370605
 12
21.3570499420166
 22
122.375
 32
17.2999992370605
 13
21.3570499420166
 23
122.375
 33
17.2999992370605
 0
3DFACE
 8
STL2DXF
 10
21.3570499420166
 20
122.375
 30
16.2999992370605
 11
21.5568523406982
 21
121.892639160156
 31
17.2999992370605
 12
21.5568523406982
 22
121.892639160156
 32
16.2999992370605
 13
21.5568523406982
 23
121.892639160156
 33
16.2999992370605
 0
3DFACE
 8
STL2DXF
 10
17.8929500579834
 20
120.375
 30
14.3000001907349
 11
17.6931476593018
 21
120.857360839844
 31
17.2999992370605
 12
17.6931476593018
 22
120.857360839844
 32
14.3000001907349
 13
17.6931476593018
 23
120.857360839844
 33
14.3000001907349
 0
3DFACE
 8
STL2DXF
 10
17.6931476593018
 20
120.857360839844
 30
17.2999992370605
 11
17.8929500579834
 21
120.375
 31
14.3000001907349
 12
17.8929500579834
 22
120.375
 32
17.2999992370605
 13
17.8929500579834
 23
120.375
 33
17.2999992370605
 0
3DFACE
 8
STL2DXF
 10
18.625
 20
119.642951965332
 30
14.3000001907349
 11
19.1073627471924
 21
119.443145751953
 31
17.2999992370605
 12
18.625
 22
119.642951965332
 32
17.2999992370605
 13
18.625
 23
119.642951965332
 33
17.2999992370605
 0
3DFACE
 8
STL2DXF
 10
19.1073627471924
 20
119.443145751953
 30
17.2999992370605
 11
18.625
 21
119.642951965332
 31
14.3000001907349
 12
19.1073627471924
 22
119.443145751953
 32
14.3000001907349
 13
19.1073627471924
 23
119.443145751953
 33
14.3000001907349
 0
3DFACE
 8
STL2DXF
 10
11.5568513870239
 20
120.857360839844
 30
17.2999992370605
 11
11.625
 21
121.375
 31
12.1000003814697
 12
11.625
 22
121.375
 32
17.2999992370605
 13
11.625
 23
121.375
 33
17.2999992370605
 0
3DFACE
 8
STL2DXF
 10
11.625
 20
121.375
 30
12.1000003814697
 11
11.5568513870239
 21
120.857360839844
 31
17.2999992370605
 12
11.5568513870239
 22
120.857360839844
 32
12.1000003814697
 13
11.5568513870239
 23
120.857360839844
 33
12.1000003814697
 0
3DFACE
 8
STL2DXF
 10
11.625
 20
121.375
 30
17.2999992370605
 11
11.5568513870239
 21
121.892639160156
 31
12.1000003814697
 12
11.5568513870239
 22
121.892639160156
 32
17.2999992370605
 13
11.5568513870239
 23
121.892639160156
 33
17.2999992370605
 0
3DFACE
 8
STL2DXF
 10
11.5568513870239
 20
121.892639160156
 30
12.1000003814697
 11
11.625
 21
121.375
 31
17.2999992370605
 12
11.625
 22
121.375
 32
12.1000003814697
 13
11.625
 23
121.375
 33
12.1000003814697
 0
3DFACE
 8
STL2DXF
 10
11.5568513870239
 20
121.892639160156
 30
17.2999992370605
 11
11.3570508956909
 21
122.375
 31
12.1000003814697
 12
11.3570508956909
 22
122.375
 32
17.2999992370605
 13
11.3570508956909
 23
122.375
 33
17.2999992370605
 0
3DFACE
 8
STL2DXF
 10
11.3570508956909
 20
122.375
 30
12.1000003814697
 11
11.5568513870239
 21
121.892639160156
 31
17.2999992370605
 12
11.5568513870239
 22
121.892639160156
 32
12.1000003814697
 13
11.5568513870239
 23
121.892639160156
 33
12.1000003814697
 0
3DFACE
 8
STL2DXF
 10
11.3570508956909
 20
122.375
 30
17.2999992370605
 11
11.039213180542
 21
122.789215087891
 31
12.1000003814697
 12
11.039213180542
 22
122.789215087891
 32
17.2999992370605
 13
11.039213180542
 23
122.789215087891
 33
17.2999992370605
 0
3DFACE
 8
STL2DXF
 10
11.039213180542
 20
122.789215087891
 30
12.1000003814697
 11
11.3570508956909
 21
122.375
 31
17.2999992370605
 12
11.3570508956909
 22
122.375
 32
12.1000003814697
 13
11.3570508956909
 23
122.375
 33
12.1000003814697
 0
3DFACE
 8
STL2DXF
 10
11.039213180542
 20
122.789215087891
 30
12.1000003814697
 11
10.625
 21
123.107048034668
 31
17.2999992370605
 12
11.039213180542
 22
122.789215087891
 32
17.2999992370605
 13
11.039213180542
 23
122.789215087891
 33
17.2999992370605
 0
3DFACE
 8
STL2DXF
 10
10.625
 20
123.107048034668
 30
17.2999992370605
 11
11.039213180542
 21
122.789215087891
 31
12.1000003814697
 12
10.625
 22
123.107048034668
 32
12.1000003814697
 13
10.625
 23
123.107048034668
 33
12.1000003814697
 0
3DFACE
 8
STL2DXF
 10
10.625
 20
123.107048034668
 30
12.1000003814697
 11
10.1426382064819
 21
123.306854248047
 31
17.2999992370605
 12
10.625
 22
123.107048034668
 32
17.2999992370605
 13
10.625
 23
123.107048034668
 33
17.2999992370605
 0
3DFACE
 8
STL2DXF
 10
10.1426382064819
 20
123.306854248047
 30
17.2999992370605
 11
10.625
 21
123.107048034668
 31
12.1000003814697
 12
10.1426382064819
 22
123.306854248047
 32
12.1000003814697
 13
10.1426382064819
 23
123.306854248047
 33
12.1000003814697
 0
3DFACE
 8
STL2DXF
 10
10.1426382064819
 20
123.306854248047
 30
12.1000003814697
 11
9.625
 21
123.375
 31
17.2999992370605
 12
10.1426382064819
 22
123.306854248047
 32
17.2999992370605
 13
10.1426382064819
 23
123.306854248047
 33
17.2999992370605
 0
3DFACE
 8
STL2DXF
 10
9.625
 20
123.375
 30
17.2999992370605
 11
10.1426382064819
 21
123.306854248047
 31
12.1000003814697
 12
9.625
 22
123.375
 32
12.1000003814697
 13
9.625
 23
123.375
 33
12.1000003814697
 0
3DFACE
 8
STL2DXF
 10
9.625
 20
123.375
 30
12.1000003814697
 11
9.10736179351807
 21
123.306854248047
 31
17.2999992370605
 12
9.625
 22
123.375
 32
17.2999992370605
 13
9.625
 23
123.375
 33
17.2999992370605
 0
3DFACE
 8
STL2DXF
 10
9.10736179351807
 20
123.306854248047
 30
17.2999992370605
 11
9.625
 21
123.375
 31
12.1000003814697
 12
9.10736179351807
 22
123.306854248047
 32
12.1000003814697
 13
9.10736179351807
 23
123.306854248047
 33
12.1000003814697
 0
3DFACE
 8
STL2DXF
 10
9.10736179351807
 20
123.306854248047
 30
12.1000003814697
 11
8.625
 21
123.107048034668
 31
17.2999992370605
 12
9.10736179351807
 22
123.306854248047
 32
17.2999992370605
 13
9.10736179351807
 23
123.306854248047
 33
17.2999992370605
 0
3DFACE
 8
STL2DXF
 10
8.625
 20
123.107048034668
 30
17.2999992370605
 11
9.10736179351807
 21
123.306854248047
 31
12.1000003814697
 12
8.625
 22
123.107048034668
 32
12.1000003814697
 13
8.625
 23
123.107048034668
 33
12.1000003814697
 0
3DFACE
 8
STL2DXF
 10
8.625
 20
123.107048034668
 30
12.1000003814697
 11
8.21078681945801
 21
122.789215087891
 31
17.2999992370605
 12
8.625
 22
123.107048034668
 32
17.2999992370605
 13
8.625
 23
123.107048034668
 33
17.2999992370605
 0
3DFACE
 8
STL2DXF
 10
8.21078681945801
 20
122.789215087891
 30
17.2999992370605
 11
8.625
 21
123.107048034668
 31
12.1000003814697
 12
8.21078681945801
 22
122.789215087891
 32
12.1000003814697
 13
8.21078681945801
 23
122.789215087891
 33
12.1000003814697
 0
3DFACE
 8
STL2DXF
 10
8.21078681945801
 20
122.789215087891
 30
12.1000003814697
 11
7.89294910430908
 21
122.375
 31
17.2999992370605
 12
8.21078681945801
 22
122.789215087891
 32
17.2999992370605
 13
8.21078681945801
 23
122.789215087891
 33
17.2999992370605
 0
3DFACE
 8
STL2DXF
 10
7.89294910430908
 20
122.375
 30
17.2999992370605
 11
8.21078681945801
 21
122.789215087891
 31
12.1000003814697
 12
7.89294910430908
 22
122.375
 32
12.1000003814697
 13
7.89294910430908
 23
122.375
 33
12.1000003814697
 0
3DFACE
 8
STL2DXF
 10
7.69314813613892
 20
121.892639160156
 30
12.1000003814697
 11
7.89294910430908
 21
122.375
 31
17.2999992370605
 12
7.89294910430908
 22
122.375
 32
12.1000003814697
 13
7.89294910430908
 23
122.375
 33
12.1000003814697
 0
3DFACE
 8
STL2DXF
 10
7.89294910430908
 20
122.375
 30
17.2999992370605
 11
7.69314813613892
 21
121.892639160156
 31
12.1000003814697
 12
7.69314813613892
 22
121.892639160156
 32
17.2999992370605
 13
7.69314813613892
 23
121.892639160156
 33
17.2999992370605
 0
3DFACE
 8
STL2DXF
 10
7.69314813613892
 20
121.892639160156
 30
12.1000003814697
 11
7.625
 21
121.375
 31
17.2999992370605
 12
7.69314813613892
 22
121.892639160156
 32
17.2999992370605
 13
7.69314813613892
 23
121.892639160156
 33
17.2999992370605
 0
3DFACE
 8
STL2DXF
 10
7.625
 20
121.375
 30
17.2999992370605
 11
7.69314813613892
 21
121.892639160156
 31
12.1000003814697
 12
7.625
 22
121.375
 32
12.1000003814697
 13
7.625
 23
121.375
 33
12.1000003814697
 0
3DFACE
 8
STL2DXF
 10
7.69314813613892
 20
120.857360839844
 30
12.1000003814697
 11
7.625
 21
121.375
 31
17.2999992370605
 12
7.625
 22
121.375
 32
12.1000003814697
 13
7.625
 23
121.375
 33
12.1000003814697
 0
3DFACE
 8
STL2DXF
 10
7.625
 20
121.375
 30
17.2999992370605
 11
7.69314813613892
 21
120.857360839844
 31
12.1000003814697
 12
7.69314813613892
 22
120.857360839844
 32
17.2999992370605
 13
7.69314813613892
 23
120.857360839844
 33
17.2999992370605
 0
3DFACE
 8
STL2DXF
 10
7.89294910430908
 20
120.375
 30
12.1000003814697
 11
7.69314813613892
 21
120.857360839844
 31
17.2999992370605
 12
7.69314813613892
 22
120.857360839844
 32
12.1000003814697
 13
7.69314813613892
 23
120.857360839844
 33
12.1000003814697
 0
3DFACE
 8
STL2DXF
 10
7.69314813613892
 20
120.857360839844
 30
17.2999992370605
 11
7.89294910430908
 21
120.375
 31
12.1000003814697
 12
7.89294910430908
 22
120.375
 32
17.2999992370605
 13
7.89294910430908
 23
120.375
 33
17.2999992370605
 0
3DFACE
 8
STL2DXF
 10
7.89294910430908
 20
120.375
 30
12.1000003814697
 11
8.21078681945801
 21
119.960784912109
 31
17.2999992370605
 12
7.89294910430908
 22
120.375
 32
17.2999992370605
 13
7.89294910430908
 23
120.375
 33
17.2999992370605
 0
3DFACE
 8
STL2DXF
 10
8.21078681945801
 20
119.960784912109
 30
17.2999992370605
 11
7.89294910430908
 21
120.375
 31
12.1000003814697
 12
8.21078681945801
 22
119.960784912109
 32
12.1000003814697
 13
8.21078681945801
 23
119.960784912109
 33
12.1000003814697
 0
3DFACE
 8
STL2DXF
 10
8.21078681945801
 20
119.960784912109
 30
12.1000003814697
 11
8.625
 21
119.642951965332
 31
17.2999992370605
 12
8.21078681945801
 22
119.960784912109
 32
17.2999992370605
 13
8.21078681945801
 23
119.960784912109
 33
17.2999992370605
 0
3DFACE
 8
STL2DXF
 10
8.625
 20
119.642951965332
 30
17.2999992370605
 11
8.21078681945801
 21
119.960784912109
 31
12.1000003814697
 12
8.625
 22
119.642951965332
 32
12.1000003814697
 13
8.625
 23
119.642951965332
 33
12.1000003814697
 0
3DFACE
 8
STL2DXF
 10
8.625
 20
119.642951965332
 30
12.1000003814697
 11
9.10736179351807
 21
119.443145751953
 31
17.2999992370605
 12
8.625
 22
119.642951965332
 32
17.2999992370605
 13
8.625
 23
119.642951965332
 33
17.2999992370605
 0
3DFACE
 8
STL2DXF
 10
9.10736179351807
 20
119.443145751953
 30
17.2999992370605
 11
8.625
 21
119.642951965332
 31
12.1000003814697
 12
9.10736179351807
 22
119.443145751953
 32
12.1000003814697
 13
9.10736179351807
 23
119.443145751953
 33
12.1000003814697
 0
3DFACE
 8
STL2DXF
 10
9.10736179351807
 20
119.443145751953
 30
12.1000003814697
 11
9.625
 21
119.375
 31
17.2999992370605
 12
9.10736179351807
 22
119.443145751953
 32
17.2999992370605
 13
9.10736179351807
 23
119.443145751953
 33
17.2999992370605
 0
3DFACE
 8
STL2DXF
 10
9.625
 20
119.375
 30
17.2999992370605
 11
9.10736179351807
 21
119.443145751953
 31
12.1000003814697
 12
9.625
 22
119.375
 32
12.1000003814697
 13
9.625
 23
119.375
 33
12.1000003814697
 0
3DFACE
 8
STL2DXF
 10
9.625
 20
119.375
 30
17.2999992370605
 11
10.1426382064819
 21
119.443145751953
 31
12.1000003814697
 12
10.1426382064819
 22
119.443145751953
 32
17.2999992370605
 13
10.1426382064819
 23
119.443145751953
 33
17.2999992370605
 0
3DFACE
 8
STL2DXF
 10
10.1426382064819
 20
119.443145751953
 30
12.1000003814697
 11
9.625
 21
119.375
 31
17.2999992370605
 12
9.625
 22
119.375
 32
12.1000003814697
 13
9.625
 23
119.375
 33
12.1000003814697
 0
3DFACE
 8
STL2DXF
 10
10.1426382064819
 20
119.443145751953
 30
12.1000003814697
 11
10.625
 21
119.642951965332
 31
17.2999992370605
 12
10.1426382064819
 22
119.443145751953
 32
17.2999992370605
 13
10.1426382064819
 23
119.443145751953
 33
17.2999992370605
 0
3DFACE
 8
STL2DXF
 10
10.625
 20
119.642951965332
 30
17.2999992370605
 11
10.1426382064819
 21
119.443145751953
 31
12.1000003814697
 12
10.625
 22
119.642951965332
 32
12.1000003814697
 13
10.625
 23
119.642951965332
 33
12.1000003814697
 0
3DFACE
 8
STL2DXF
 10
10.625
 20
119.642951965332
 30
12.1000003814697
 11
11.039213180542
 21
119.960784912109
 31
17.2999992370605
 12
10.625
 22
119.642951965332
 32
17.2999992370605
 13
10.625
 23
119.642951965332
 33
17.2999992370605
 0
3DFACE
 8
STL2DXF
 10
11.039213180542
 20
119.960784912109
 30
17.2999992370605
 11
10.625
 21
119.642951965332
 31
12.1000003814697
 12
11.039213180542
 22
119.960784912109
 32
12.1000003814697
 13
11.039213180542
 23
119.960784912109
 33
12.1000003814697
 0
3DFACE
 8
STL2DXF
 10
11.039213180542
 20
119.960784912109
 30
17.2999992370605
 11
11.3570508956909
 21
120.375
 31
12.1000003814697
 12
11.3570508956909
 22
120.375
 32
17.2999992370605
 13
11.3570508956909
 23
120.375
 33
17.2999992370605
 0
3DFACE
 8
STL2DXF
 10
11.3570508956909
 20
120.375
 30
12.1000003814697
 11
11.039213180542
 21
119.960784912109
 31
17.2999992370605
 12
11.039213180542
 22
119.960784912109
 32
12.1000003814697
 13
11.039213180542
 23
119.960784912109
 33
12.1000003814697
 0
3DFACE
 8
STL2DXF
 10
11.3570508956909
 20
120.375
 30
17.2999992370605
 11
11.5568513870239
 21
120.857360839844
 31
12.1000003814697
 12
11.5568513870239
 22
120.857360839844
 32
17.2999992370605
 13
11.5568513870239
 23
120.857360839844
 33
17.2999992370605
 0
3DFACE
 8
STL2DXF
 10
11.5568513870239
 20
120.857360839844
 30
12.1000003814697
 11
11.3570508956909
 21
120.375
 31
17.2999992370605
 12
11.3570508956909
 22
120.375
 32
12.1000003814697
 13
11.3570508956909
 23
120.375
 33
12.1000003814697
 0
3DFACE
 8
STL2DXF
 10
6
 20
66.375
 30
12.3000001907349
 11
6
 21
126.375
 31
17.2999992370605
 12
6
 22
126.375
 32
12.3000001907349
 13
6
 23
126.375
 33
12.3000001907349
 0
3DFACE
 8
STL2DXF
 10
6
 20
126.375
 30
17.2999992370605
 11
6
 21
66.375
 31
12.3000001907349
 12
6
 22
66.375
 32
14.3000001907349
 13
6
 23
66.375
 33
14.3000001907349
 0
3DFACE
 8
STL2DXF
 10
6
 20
66.375
 30
17.2999992370605
 11
6
 21
126.375
 31
17.2999992370605
 12
6
 22
66.375
 32
14.3000001907349
 13
6
 23
66.375
 33
14.3000001907349
 0
3DFACE
 8
STL2DXF
 10
1
 20
66.375
 30
12.3000001907349
 11
1
 21
126.375
 31
17.2999992370605
 12
1
 22
126.375
 32
12.3000001907349
 13
1
 23
126.375
 33
12.3000001907349
 0
3DFACE
 8
STL2DXF
 10
1
 20
126.375
 30
17.2999992370605
 11
1
 21
66.375
 31
12.3000001907349
 12
1
 22
66.375
 32
17.2999992370605
 13
1
 23
66.375
 33
17.2999992370605
 0
3DFACE
 8
STL2DXF
 10
6
 20
66.375
 30
17.2999992370605
 11
1
 21
66.375
 31
12.3000001907349
 12
1
 22
66.375
 32
17.2999992370605
 13
1
 23
66.375
 33
17.2999992370605
 0
3DFACE
 8
STL2DXF
 10
1
 20
66.375
 30
12.3000001907349
 11
6
 21
66.375
 31
17.2999992370605
 12
6
 22
66.375
 32
14.3000001907349
 13
6
 23
66.375
 33
14.3000001907349
 0
3DFACE
 8
STL2DXF
 10
1
 20
66.375
 30
12.3000001907349
 11
6
 21
66.375
 31
14.3000001907349
 12
6
 22
66.375
 32
12.3000001907349
 13
6
 23
66.375
 33
12.3000001907349
 0
3DFACE
 8
STL2DXF
 10
-2
 20
63.375
 30
17.2999992370605
 11
1
 21
66.375
 31
17.2999992370605
 12
1
 22
126.375
 32
17.2999992370605
 13
1
 23
126.375
 33
17.2999992370605
 0
3DFACE
 8
STL2DXF
 10
1
 20
66.375
 30
17.2999992370605
 11
-2
 21
63.375
 31
17.2999992370605
 12
1
 22
63.375
 32
17.2999992370605
 13
1
 23
63.375
 33
17.2999992370605
 0
3DFACE
 8
STL2DXF
 10
1
 20
66.375
 30
17.2999992370605
 11
1
 21
63.375
 31
17.2999992370605
 12
6
 22
66.375
 32
17.2999992370605
 13
6
 23
66.375
 33
17.2999992370605
 0
3DFACE
 8
STL2DXF
 10
6
 20
66.375
 30
17.2999992370605
 11
1
 21
63.375
 31
17.2999992370605
 12
1
 22
61.375
 32
17.2999992370605
 13
1
 23
61.375
 33
17.2999992370605
 0
3DFACE
 8
STL2DXF
 10
6
 20
66.375
 30
17.2999992370605
 11
1
 21
61.375
 31
17.2999992370605
 12
44.4500007629395
 22
61.375
 32
17.2999992370605
 13
44.4500007629395
 23
61.375
 33
17.2999992370605
 0
3DFACE
 8
STL2DXF
 10
6
 20
66.375
 30
17.2999992370605
 11
44.4500007629395
 21
61.375
 31
17.2999992370605
 12
39.4500007629395
 22
66.375
 32
17.2999992370605
 13
39.4500007629395
 23
66.375
 33
17.2999992370605
 0
3DFACE
 8
STL2DXF
 10
6
 20
66.375
 30
17.2999992370605
 11
39.4500007629395
 21
66.375
 31
17.2999992370605
 12
7.89294910430908
 22
120.375
 32
17.2999992370605
 13
7.89294910430908
 23
120.375
 33
17.2999992370605
 0
3DFACE
 8
STL2DXF
 10
6
 20
66.375
 30
17.2999992370605
 11
7.89294910430908
 21
120.375
 31
17.2999992370605
 12
7.69314813613892
 22
120.857360839844
 32
17.2999992370605
 13
7.69314813613892
 23
120.857360839844
 33
17.2999992370605
 0
3DFACE
 8
STL2DXF
 10
6
 20
66.375
 30
17.2999992370605
 11
7.69314813613892
 21
120.857360839844
 31
17.2999992370605
 12
6
 22
126.375
 32
17.2999992370605
 13
6
 23
126.375
 33
17.2999992370605
 0
3DFACE
 8
STL2DXF
 10
6
 20
126.375
 30
17.2999992370605
 11
7.69314813613892
 21
120.857360839844
 31
17.2999992370605
 12
7.625
 22
121.375
 32
17.2999992370605
 13
7.625
 23
121.375
 33
17.2999992370605
 0
3DFACE
 8
STL2DXF
 10
7.89294910430908
 20
120.375
 30
17.2999992370605
 11
39.4500007629395
 21
66.375
 31
17.2999992370605
 12
8.21078681945801
 22
119.960784912109
 32
17.2999992370605
 13
8.21078681945801
 23
119.960784912109
 33
17.2999992370605
 0
3DFACE
 8
STL2DXF
 10
8.21078681945801
 20
119.960784912109
 30
17.2999992370605
 11
39.4500007629395
 21
66.375
 31
17.2999992370605
 12
8.625
 22
119.642951965332
 32
17.2999992370605
 13
8.625
 23
119.642951965332
 33
17.2999992370605
 0
3DFACE
 8
STL2DXF
 10
8.625
 20
119.642951965332
 30
17.2999992370605
 11
39.4500007629395
 21
66.375
 31
17.2999992370605
 12
9.10736179351807
 22
119.443145751953
 32
17.2999992370605
 13
9.10736179351807
 23
119.443145751953
 33
17.2999992370605
 0
3DFACE
 8
STL2DXF
 10
9.10736179351807
 20
119.443145751953
 30
17.2999992370605
 11
39.4500007629395
 21
66.375
 31
17.2999992370605
 12
9.625
 22
119.375
 32
17.2999992370605
 13
9.625
 23
119.375
 33
17.2999992370605
 0
3DFACE
 8
STL2DXF
 10
9.625
 20
119.375
 30
17.2999992370605
 11
39.4500007629395
 21
66.375
 31
17.2999992370605
 12
10.1426382064819
 22
119.443145751953
 32
17.2999992370605
 13
10.1426382064819
 23
119.443145751953
 33
17.2999992370605
 0
3DFACE
 8
STL2DXF
 10
10.1426382064819
 20
119.443145751953
 30
17.2999992370605
 11
39.4500007629395
 21
66.375
 31
17.2999992370605
 12
10.625
 22
119.642951965332
 32
17.2999992370605
 13
10.625
 23
119.642951965332
 33
17.2999992370605
 0
3DFACE
 8
STL2DXF
 10
10.625
 20
119.642951965332
 30
17.2999992370605
 11
39.4500007629395
 21
66.375
 31
17.2999992370605
 12
11.039213180542
 22
119.960784912109
 32
17.2999992370605
 13
11.039213180542
 23
119.960784912109
 33
17.2999992370605
 0
3DFACE
 8
STL2DXF
 10
11.039213180542
 20
119.960784912109
 30
17.2999992370605
 11
39.4500007629395
 21
66.375
 31
17.2999992370605
 12
11.3570508956909
 22
120.375
 32
17.2999992370605
 13
11.3570508956909
 23
120.375
 33
17.2999992370605
 0
3DFACE
 8
STL2DXF
 10
11.3570508956909
 20
120.375
 30
17.2999992370605
 11
39.4500007629395
 21
66.375
 31
17.2999992370605
 12
11.5568513870239
 22
120.857360839844
 32
17.2999992370605
 13
11.5568513870239
 23
120.857360839844
 33
17.2999992370605
 0
3DFACE
 8
STL2DXF
 10
11.5568513870239
 20
120.857360839844
 30
17.2999992370605
 11
39.4500007629395
 21
66.375
 31
17.2999992370605
 12
11.625
 22
121.375
 32
17.2999992370605
 13
11.625
 23
121.375
 33
17.2999992370605
 0
3DFACE
 8
STL2DXF
 10
11.625
 20
121.375
 30
17.2999992370605
 11
39.4500007629395
 21
66.375
 31
17.2999992370605
 12
17.6931476593018
 22
120.857360839844
 32
17.2999992370605
 13
17.6931476593018
 23
120.857360839844
 33
17.2999992370605
 0
3DFACE
 8
STL2DXF
 10
11.625
 20
121.375
 30
17.2999992370605
 11
17.6931476593018
 21
120.857360839844
 31
17.2999992370605
 12
17.625
 22
121.375
 32
17.2999992370605
 13
17.625
 23
121.375
 33
17.2999992370605
 0
3DFACE
 8
STL2DXF
 10
17.6931476593018
 20
120.857360839844
 30
17.2999992370605
 11
39.4500007629395
 21
66.375
 31
17.2999992370605
 12
17.8929500579834
 22
120.375
 32
17.2999992370605
 13
17.8929500579834
 23
120.375
 33
17.2999992370605
 0
3DFACE
 8
STL2DXF
 10
17.8929500579834
 20
120.375
 30
17.2999992370605
 11
39.4500007629395
 21
66.375
 31
17.2999992370605
 12
18.210786819458
 22
119.960784912109
 32
17.2999992370605
 13
18.210786819458
 23
119.960784912109
 33
17.2999992370605
 0
3DFACE
 8
STL2DXF
 10
18.210786819458
 20
119.960784912109
 30
17.2999992370605
 11
39.4500007629395
 21
66.375
 31
17.2999992370605
 12
18.625
 22
119.642951965332
 32
17.2999992370605
 13
18.625
 23
119.642951965332
 33
17.2999992370605
 0
3DFACE
 8
STL2DXF
 10
18.625
 20
119.642951965332
 30
17.2999992370605
 11
39.4500007629395
 21
66.375
 31
17.2999992370605
 12
19.1073627471924
 22
119.443145751953
 32
17.2999992370605
 13
19.1073627471924
 23
119.443145751953
 33
17.2999992370605
 0
3DFACE
 8
STL2DXF
 10
19.1073627471924
 20
119.443145751953
 30
17.2999992370605
 11
39.4500007629395
 21
66.375
 31
17.2999992370605
 12
19.625
 22
119.375
 32
17.2999992370605
 13
19.625
 23
119.375
 33
17.2999992370605
 0
3DFACE
 8
STL2DXF
 10
19.625
 20
119.375
 30
17.2999992370605
 11
39.4500007629395
 21
66.375
 31
17.2999992370605
 12
20.1426372528076
 22
119.443145751953
 32
17.2999992370605
 13
20.1426372528076
 23
119.443145751953
 33
17.2999992370605
 0
3DFACE
 8
STL2DXF
 10
20.1426372528076
 20
119.443145751953
 30
17.2999992370605
 11
39.4500007629395
 21
66.375
 31
17.2999992370605
 12
20.625
 22
119.642951965332
 32
17.2999992370605
 13
20.625
 23
119.642951965332
 33
17.2999992370605
 0
3DFACE
 8
STL2DXF
 10
20.625
 20
119.642951965332
 30
17.2999992370605
 11
39.4500007629395
 21
66.375
 31
17.2999992370605
 12
21.039213180542
 22
119.960784912109
 32
17.2999992370605
 13
21.039213180542
 23
119.960784912109
 33
17.2999992370605
 0
3DFACE
 8
STL2DXF
 10
21.039213180542
 20
119.960784912109
 30
17.2999992370605
 11
39.4500007629395
 21
66.375
 31
17.2999992370605
 12
21.3570499420166
 22
120.375
 32
17.2999992370605
 13
21.3570499420166
 23
120.375
 33
17.2999992370605
 0
3DFACE
 8
STL2DXF
 10
21.3570499420166
 20
120.375
 30
17.2999992370605
 11
39.4500007629395
 21
66.375
 31
17.2999992370605
 12
21.5568523406982
 22
120.857360839844
 32
17.2999992370605
 13
21.5568523406982
 23
120.857360839844
 33
17.2999992370605
 0
3DFACE
 8
STL2DXF
 10
21.5568523406982
 20
120.857360839844
 30
17.2999992370605
 11
39.4500007629395
 21
66.375
 31
17.2999992370605
 12
21.625
 22
121.375
 32
17.2999992370605
 13
21.625
 23
121.375
 33
17.2999992370605
 0
3DFACE
 8
STL2DXF
 10
21.625
 20
121.375
 30
17.2999992370605
 11
39.4500007629395
 21
66.375
 31
17.2999992370605
 12
34.5181465148926
 22
90.8573608398438
 32
17.2999992370605
 13
34.5181465148926
 23
90.8573608398438
 33
17.2999992370605
 0
3DFACE
 8
STL2DXF
 10
21.625
 20
121.375
 30
17.2999992370605
 11
34.5181465148926
 21
90.8573608398438
 31
17.2999992370605
 12
34.4500007629395
 22
91.375
 32
17.2999992370605
 13
34.4500007629395
 23
91.375
 33
17.2999992370605
 0
3DFACE
 8
STL2DXF
 10
34.5181465148926
 20
90.8573608398438
 30
17.2999992370605
 11
39.4500007629395
 21
66.375
 31
17.2999992370605
 12
34.7179489135742
 22
90.375
 32
17.2999992370605
 13
34.7179489135742
 23
90.375
 33
17.2999992370605
 0
3DFACE
 8
STL2DXF
 10
34.7179489135742
 20
90.375
 30
17.2999992370605
 11
39.4500007629395
 21
66.375
 31
17.2999992370605
 12
35.0357856750488
 22
89.9607849121094
 32
17.2999992370605
 13
35.0357856750488
 23
89.9607849121094
 33
17.2999992370605
 0
3DFACE
 8
STL2DXF
 10
35.0357856750488
 20
89.9607849121094
 30
17.2999992370605
 11
39.4500007629395
 21
66.375
 31
17.2999992370605
 12
35.4500007629395
 22
89.642951965332
 32
17.2999992370605
 13
35.4500007629395
 23
89.642951965332
 33
17.2999992370605
 0
3DFACE
 8
STL2DXF
 10
35.4500007629395
 20
89.642951965332
 30
17.2999992370605
 11
39.4500007629395
 21
66.375
 31
17.2999992370605
 12
35.9323616027832
 22
89.4431457519531
 32
17.2999992370605
 13
35.9323616027832
 23
89.4431457519531
 33
17.2999992370605
 0
3DFACE
 8
STL2DXF
 10
35.9323616027832
 20
89.4431457519531
 30
17.2999992370605
 11
39.4500007629395
 21
66.375
 31
17.2999992370605
 12
36.4500007629395
 22
89.375
 32
17.2999992370605
 13
36.4500007629395
 23
89.375
 33
17.2999992370605
 0
3DFACE
 8
STL2DXF
 10
36.4500007629395
 20
89.375
 30
17.2999992370605
 11
39.4500007629395
 21
66.375
 31
17.2999992370605
 12
36.9676399230957
 22
89.4431457519531
 32
17.2999992370605
 13
36.9676399230957
 23
89.4431457519531
 33
17.2999992370605
 0
3DFACE
 8
STL2DXF
 10
36.9676399230957
 20
89.4431457519531
 30
17.2999992370605
 11
39.4500007629395
 21
66.375
 31
17.2999992370605
 12
37.4500007629395
 22
89.642951965332
 32
17.2999992370605
 13
37.4500007629395
 23
89.642951965332
 33
17.2999992370605
 0
3DFACE
 8
STL2DXF
 10
37.4500007629395
 20
89.642951965332
 30
17.2999992370605
 11
39.4500007629395
 21
66.375
 31
17.2999992370605
 12
37.8642120361328
 22
89.9607849121094
 32
17.2999992370605
 13
37.8642120361328
 23
89.9607849121094
 33
17.2999992370605
 0
3DFACE
 8
STL2DXF
 10
37.8642120361328
 20
89.9607849121094
 30
17.2999992370605
 11
39.4500007629395
 21
66.375
 31
17.2999992370605
 12
38.1820526123047
 22
90.375
 32
17.2999992370605
 13
38.1820526123047
 23
90.375
 33
17.2999992370605
 0
3DFACE
 8
STL2DXF
 10
38.1820526123047
 20
90.375
 30
17.2999992370605
 11
39.4500007629395
 21
66.375
 31
17.2999992370605
 12
38.3818511962891
 22
90.8573608398438
 32
17.2999992370605
 13
38.3818511962891
 23
90.8573608398438
 33
17.2999992370605
 0
3DFACE
 8
STL2DXF
 10
38.3818511962891
 20
90.8573608398438
 30
17.2999992370605
 11
39.4500007629395
 21
66.375
 31
17.2999992370605
 12
38.4500007629395
 22
91.375
 32
17.2999992370605
 13
38.4500007629395
 23
91.375
 33
17.2999992370605
 0
3DFACE
 8
STL2DXF
 10
38.4500007629395
 20
91.375
 30
17.2999992370605
 11
39.4500007629395
 21
66.375
 31
17.2999992370605
 12
38.4500007629395
 22
121.375
 32
17.2999992370605
 13
38.4500007629395
 23
121.375
 33
17.2999992370605
 0
3DFACE
 8
STL2DXF
 10
39.4500007629395
 20
66.375
 30
17.2999992370605
 11
44.4500007629395
 21
61.375
 31
17.2999992370605
 12
44.4500007629395
 22
63.375
 32
17.2999992370605
 13
44.4500007629395
 23
63.375
 33
17.2999992370605
 0
3DFACE
 8
STL2DXF
 10
39.4500007629395
 20
66.375
 30
17.2999992370605
 11
44.4500007629395
 21
63.375
 31
17.2999992370605
 12
44.4500007629395
 22
66.375
 32
17.2999992370605
 13
44.4500007629395
 23
66.375
 33
17.2999992370605
 0
3DFACE
 8
STL2DXF
 10
44.4500007629395
 20
66.375
 30
17.2999992370605
 11
44.4500007629395
 21
63.375
 31
17.2999992370605
 12
47.4500007629395
 22
63.375
 32
17.2999992370605
 13
47.4500007629395
 23
63.375
 33
17.2999992370605
 0
3DFACE
 8
STL2DXF
 10
44.4500007629395
 20
66.375
 30
17.2999992370605
 11
47.4500007629395
 21
63.375
 31
17.2999992370605
 12
44.4500007629395
 22
126.375
 32
17.2999992370605
 13
44.4500007629395
 23
126.375
 33
17.2999992370605
 0
3DFACE
 8
STL2DXF
 10
-2
 20
130.375
 30
17.2999992370605
 11
1
 21
126.375
 31
17.2999992370605
 12
47.4500007629395
 22
130.375
 32
17.2999992370605
 13
47.4500007629395
 23
130.375
 33
17.2999992370605
 0
3DFACE
 8
STL2DXF
 10
1
 20
126.375
 30
17.2999992370605
 11
-2
 21
130.375
 31
17.2999992370605
 12
-2
 22
63.375
 32
17.2999992370605
 13
-2
 23
63.375
 33
17.2999992370605
 0
3DFACE
 8
STL2DXF
 10
47.4500007629395
 20
130.375
 30
17.2999992370605
 11
1
 21
126.375
 31
17.2999992370605
 12
6
 22
126.375
 32
17.2999992370605
 13
6
 23
126.375
 33
17.2999992370605
 0
3DFACE
 8
STL2DXF
 10
47.4500007629395
 20
130.375
 30
17.2999992370605
 11
6
 21
126.375
 31
17.2999992370605
 12
9.10736179351807
 22
123.306854248047
 32
17.2999992370605
 13
9.10736179351807
 23
123.306854248047
 33
17.2999992370605
 0
3DFACE
 8
STL2DXF
 10
9.10736179351807
 20
123.306854248047
 30
17.2999992370605
 11
6
 21
126.375
 31
17.2999992370605
 12
8.625
 22
123.107048034668
 32
17.2999992370605
 13
8.625
 23
123.107048034668
 33
17.2999992370605
 0
3DFACE
 8
STL2DXF
 10
8.625
 20
123.107048034668
 30
17.2999992370605
 11
6
 21
126.375
 31
17.2999992370605
 12
8.21078681945801
 22
122.789215087891
 32
17.2999992370605
 13
8.21078681945801
 23
122.789215087891
 33
17.2999992370605
 0
3DFACE
 8
STL2DXF
 10
8.21078681945801
 20
122.789215087891
 30
17.2999992370605
 11
6
 21
126.375
 31
17.2999992370605
 12
7.89294910430908
 22
122.375
 32
17.2999992370605
 13
7.89294910430908
 23
122.375
 33
17.2999992370605
 0
3DFACE
 8
STL2DXF
 10
7.89294910430908
 20
122.375
 30
17.2999992370605
 11
6
 21
126.375
 31
17.2999992370605
 12
7.69314813613892
 22
121.892639160156
 32
17.2999992370605
 13
7.69314813613892
 23
121.892639160156
 33
17.2999992370605
 0
3DFACE
 8
STL2DXF
 10
7.69314813613892
 20
121.892639160156
 30
17.2999992370605
 11
6
 21
126.375
 31
17.2999992370605
 12
7.625
 22
121.375
 32
17.2999992370605
 13
7.625
 23
121.375
 33
17.2999992370605
 0
3DFACE
 8
STL2DXF
 10
47.4500007629395
 20
130.375
 30
17.2999992370605
 11
9.10736179351807
 21
123.306854248047
 31
17.2999992370605
 12
9.625
 22
123.375
 32
17.2999992370605
 13
9.625
 23
123.375
 33
17.2999992370605
 0
3DFACE
 8
STL2DXF
 10
47.4500007629395
 20
130.375
 30
17.2999992370605
 11
9.625
 21
123.375
 31
17.2999992370605
 12
10.1426382064819
 22
123.306854248047
 32
17.2999992370605
 13
10.1426382064819
 23
123.306854248047
 33
17.2999992370605
 0
3DFACE
 8
STL2DXF
 10
47.4500007629395
 20
130.375
 30
17.2999992370605
 11
10.1426382064819
 21
123.306854248047
 31
17.2999992370605
 12
10.625
 22
123.107048034668
 32
17.2999992370605
 13
10.625
 23
123.107048034668
 33
17.2999992370605
 0
3DFACE
 8
STL2DXF
 10
47.4500007629395
 20
130.375
 30
17.2999992370605
 11
10.625
 21
123.107048034668
 31
17.2999992370605
 12
11.039213180542
 22
122.789215087891
 32
17.2999992370605
 13
11.039213180542
 23
122.789215087891
 33
17.2999992370605
 0
3DFACE
 8
STL2DXF
 10
47.4500007629395
 20
130.375
 30
17.2999992370605
 11
11.039213180542
 21
122.789215087891
 31
17.2999992370605
 12
11.3570508956909
 22
122.375
 32
17.2999992370605
 13
11.3570508956909
 23
122.375
 33
17.2999992370605
 0
3DFACE
 8
STL2DXF
 10
47.4500007629395
 20
130.375
 30
17.2999992370605
 11
11.3570508956909
 21
122.375
 31
17.2999992370605
 12
11.5568513870239
 22
121.892639160156
 32
17.2999992370605
 13
11.5568513870239
 23
121.892639160156
 33
17.2999992370605
 0
3DFACE
 8
STL2DXF
 10
47.4500007629395
 20
130.375
 30
17.2999992370605
 11
11.5568513870239
 21
121.892639160156
 31
17.2999992370605
 12
19.1073627471924
 22
123.306854248047
 32
17.2999992370605
 13
19.1073627471924
 23
123.306854248047
 33
17.2999992370605
 0
3DFACE
 8
STL2DXF
 10
19.1073627471924
 20
123.306854248047
 30
17.2999992370605
 11
11.5568513870239
 21
121.892639160156
 31
17.2999992370605
 12
11.625
 22
121.375
 32
17.2999992370605
 13
11.625
 23
121.375
 33
17.2999992370605
 0
3DFACE
 8
STL2DXF
 10
19.1073627471924
 20
123.306854248047
 30
17.2999992370605
 11
11.625
 21
121.375
 31
17.2999992370605
 12
18.625
 22
123.107048034668
 32
17.2999992370605
 13
18.625
 23
123.107048034668
 33
17.2999992370605
 0
3DFACE
 8
STL2DXF
 10
18.625
 20
123.107048034668
 30
17.2999992370605
 11
11.625
 21
121.375
 31
17.2999992370605
 12
18.210786819458
 22
122.789215087891
 32
17.2999992370605
 13
18.210786819458
 23
122.789215087891
 33
17.2999992370605
 0
3DFACE
 8
STL2DXF
 10
18.210786819458
 20
122.789215087891
 30
17.2999992370605
 11
11.625
 21
121.375
 31
17.2999992370605
 12
17.8929500579834
 22
122.375
 32
17.2999992370605
 13
17.8929500579834
 23
122.375
 33
17.2999992370605
 0
3DFACE
 8
STL2DXF
 10
17.8929500579834
 20
122.375
 30
17.2999992370605
 11
11.625
 21
121.375
 31
17.2999992370605
 12
17.6931476593018
 22
121.892639160156
 32
17.2999992370605
 13
17.6931476593018
 23
121.892639160156
 33
17.2999992370605
 0
3DFACE
 8
STL2DXF
 10
17.6931476593018
 20
121.892639160156
 30
17.2999992370605
 11
11.625
 21
121.375
 31
17.2999992370605
 12
17.625
 22
121.375
 32
17.2999992370605
 13
17.625
 23
121.375
 33
17.2999992370605
 0
3DFACE
 8
STL2DXF
 10
47.4500007629395
 20
130.375
 30
17.2999992370605
 11
19.1073627471924
 21
123.306854248047
 31
17.2999992370605
 12
19.625
 22
123.375
 32
17.2999992370605
 13
19.625
 23
123.375
 33
17.2999992370605
 0
3DFACE
 8
STL2DXF
 10
47.4500007629395
 20
130.375
 30
17.2999992370605
 11
19.625
 21
123.375
 31
17.2999992370605
 12
20.1426372528076
 22
123.306854248047
 32
17.2999992370605
 13
20.1426372528076
 23
123.306854248047
 33
17.2999992370605
 0
3DFACE
 8
STL2DXF
 10
47.4500007629395
 20
130.375
 30
17.2999992370605
 11
20.1426372528076
 21
123.306854248047
 31
17.2999992370605
 12
20.625
 22
123.107048034668
 32
17.2999992370605
 13
20.625
 23
123.107048034668
 33
17.2999992370605
 0
3DFACE
 8
STL2DXF
 10
47.4500007629395
 20
130.375
 30
17.2999992370605
 11
20.625
 21
123.107048034668
 31
17.2999992370605
 12
21.039213180542
 22
122.789215087891
 32
17.2999992370605
 13
21.039213180542
 23
122.789215087891
 33
17.2999992370605
 0
3DFACE
 8
STL2DXF
 10
47.4500007629395
 20
130.375
 30
17.2999992370605
 11
21.039213180542
 21
122.789215087891
 31
17.2999992370605
 12
21.3570499420166
 22
122.375
 32
17.2999992370605
 13
21.3570499420166
 23
122.375
 33
17.2999992370605
 0
3DFACE
 8
STL2DXF
 10
47.4500007629395
 20
130.375
 30
17.2999992370605
 11
21.3570499420166
 21
122.375
 31
17.2999992370605
 12
21.5568523406982
 22
121.892639160156
 32
17.2999992370605
 13
21.5568523406982
 23
121.892639160156
 33
17.2999992370605
 0
3DFACE
 8
STL2DXF
 10
47.4500007629395
 20
130.375
 30
17.2999992370605
 11
21.5568523406982
 21
121.892639160156
 31
17.2999992370605
 12
21.625
 22
121.375
 32
17.2999992370605
 13
21.625
 23
121.375
 33
17.2999992370605
 0
3DFACE
 8
STL2DXF
 10
47.4500007629395
 20
130.375
 30
17.2999992370605
 11
21.625
 21
121.375
 31
17.2999992370605
 12
39.4500007629395
 22
126.375
 32
17.2999992370605
 13
39.4500007629395
 23
126.375
 33
17.2999992370605
 0
3DFACE
 8
STL2DXF
 10
39.4500007629395
 20
126.375
 30
17.2999992370605
 11
21.625
 21
121.375
 31
17.2999992370605
 12
35.0357856750488
 22
122.789215087891
 32
17.2999992370605
 13
35.0357856750488
 23
122.789215087891
 33
17.2999992370605
 0
3DFACE
 8
STL2DXF
 10
35.0357856750488
 20
122.789215087891
 30
17.2999992370605
 11
21.625
 21
121.375
 31
17.2999992370605
 12
34.7179489135742
 22
122.375
 32
17.2999992370605
 13
34.7179489135742
 23
122.375
 33
17.2999992370605
 0
3DFACE
 8
STL2DXF
 10
34.7179489135742
 20
122.375
 30
17.2999992370605
 11
21.625
 21
121.375
 31
17.2999992370605
 12
34.5181465148926
 22
121.892639160156
 32
17.2999992370605
 13
34.5181465148926
 23
121.892639160156
 33
17.2999992370605
 0
3DFACE
 8
STL2DXF
 10
34.5181465148926
 20
121.892639160156
 30
17.2999992370605
 11
21.625
 21
121.375
 31
17.2999992370605
 12
34.4500007629395
 22
121.375
 32
17.2999992370605
 13
34.4500007629395
 23
121.375
 33
17.2999992370605
 0
3DFACE
 8
STL2DXF
 10
34.4500007629395
 20
121.375
 30
17.2999992370605
 11
21.625
 21
121.375
 31
17.2999992370605
 12
34.4500007629395
 22
91.375
 32
17.2999992370605
 13
34.4500007629395
 23
91.375
 33
17.2999992370605
 0
3DFACE
 8
STL2DXF
 10
39.4500007629395
 20
126.375
 30
17.2999992370605
 11
35.0357856750488
 21
122.789215087891
 31
17.2999992370605
 12
35.4500007629395
 22
123.107048034668
 32
17.2999992370605
 13
35.4500007629395
 23
123.107048034668
 33
17.2999992370605
 0
3DFACE
 8
STL2DXF
 10
39.4500007629395
 20
126.375
 30
17.2999992370605
 11
35.4500007629395
 21
123.107048034668
 31
17.2999992370605
 12
35.9323616027832
 22
123.306854248047
 32
17.2999992370605
 13
35.9323616027832
 23
123.306854248047
 33
17.2999992370605
 0
3DFACE
 8
STL2DXF
 10
39.4500007629395
 20
126.375
 30
17.2999992370605
 11
35.9323616027832
 21
123.306854248047
 31
17.2999992370605
 12
36.4500007629395
 22
123.375
 32
17.2999992370605
 13
36.4500007629395
 23
123.375
 33
17.2999992370605
 0
3DFACE
 8
STL2DXF
 10
39.4500007629395
 20
126.375
 30
17.2999992370605
 11
36.4500007629395
 21
123.375
 31
17.2999992370605
 12
36.9676399230957
 22
123.306854248047
 32
17.2999992370605
 13
36.9676399230957
 23
123.306854248047
 33
17.2999992370605
 0
3DFACE
 8
STL2DXF
 10
39.4500007629395
 20
126.375
 30
17.2999992370605
 11
36.9676399230957
 21
123.306854248047
 31
17.2999992370605
 12
37.4500007629395
 22
123.107048034668
 32
17.2999992370605
 13
37.4500007629395
 23
123.107048034668
 33
17.2999992370605
 0
3DFACE
 8
STL2DXF
 10
39.4500007629395
 20
126.375
 30
17.2999992370605
 11
37.4500007629395
 21
123.107048034668
 31
17.2999992370605
 12
37.8642120361328
 22
122.789215087891
 32
17.2999992370605
 13
37.8642120361328
 23
122.789215087891
 33
17.2999992370605
 0
3DFACE
 8
STL2DXF
 10
39.4500007629395
 20
126.375
 30
17.2999992370605
 11
37.8642120361328
 21
122.789215087891
 31
17.2999992370605
 12
38.1820526123047
 22
122.375
 32
17.2999992370605
 13
38.1820526123047
 23
122.375
 33
17.2999992370605
 0
3DFACE
 8
STL2DXF
 10
39.4500007629395
 20
126.375
 30
17.2999992370605
 11
38.1820526123047
 21
122.375
 31
17.2999992370605
 12
38.3818511962891
 22
121.892639160156
 32
17.2999992370605
 13
38.3818511962891
 23
121.892639160156
 33
17.2999992370605
 0
3DFACE
 8
STL2DXF
 10
39.4500007629395
 20
126.375
 30
17.2999992370605
 11
38.3818511962891
 21
121.892639160156
 31
17.2999992370605
 12
38.4500007629395
 22
121.375
 32
17.2999992370605
 13
38.4500007629395
 23
121.375
 33
17.2999992370605
 0
3DFACE
 8
STL2DXF
 10
39.4500007629395
 20
126.375
 30
17.2999992370605
 11
38.4500007629395
 21
121.375
 31
17.2999992370605
 12
39.4500007629395
 22
66.375
 32
17.2999992370605
 13
39.4500007629395
 23
66.375
 33
17.2999992370605
 0
3DFACE
 8
STL2DXF
 10
47.4500007629395
 20
130.375
 30
17.2999992370605
 11
39.4500007629395
 21
126.375
 31
17.2999992370605
 12
44.4500007629395
 22
126.375
 32
17.2999992370605
 13
44.4500007629395
 23
126.375
 33
17.2999992370605
 0
3DFACE
 8
STL2DXF
 10
47.4500007629395
 20
130.375
 30
17.2999992370605
 11
44.4500007629395
 21
126.375
 31
17.2999992370605
 12
47.4500007629395
 22
63.375
 32
17.2999992370605
 13
47.4500007629395
 23
63.375
 33
17.2999992370605
 0
3DFACE
 8
STL2DXF
 10
34.5181465148926
 20
91.8926391601563
 30
17.2999992370605
 11
34.4500007629395
 21
121.375
 31
17.2999992370605
 12
34.4500007629395
 22
91.375
 32
17.2999992370605
 13
34.4500007629395
 23
91.375
 33
17.2999992370605
 0
3DFACE
 8
STL2DXF
 10
34.4500007629395
 20
121.375
 30
17.2999992370605
 11
34.5181465148926
 21
91.8926391601563
 31
17.2999992370605
 12
34.5181465148926
 22
120.857360839844
 32
17.2999992370605
 13
34.5181465148926
 23
120.857360839844
 33
17.2999992370605
 0
3DFACE
 8
STL2DXF
 10
34.5181465148926
 20
120.857360839844
 30
17.2999992370605
 11
34.5181465148926
 21
91.8926391601563
 31
17.2999992370605
 12
34.7179489135742
 22
92.375
 32
17.2999992370605
 13
34.7179489135742
 23
92.375
 33
17.2999992370605
 0
3DFACE
 8
STL2DXF
 10
34.5181465148926
 20
120.857360839844
 30
17.2999992370605
 11
34.7179489135742
 21
92.375
 31
17.2999992370605
 12
34.7179489135742
 22
120.375
 32
17.2999992370605
 13
34.7179489135742
 23
120.375
 33
17.2999992370605
 0
3DFACE
 8
STL2DXF
 10
34.7179489135742
 20
120.375
 30
17.2999992370605
 11
34.7179489135742
 21
92.375
 31
17.2999992370605
 12
35.0357856750488
 22
92.7892150878906
 32
17.2999992370605
 13
35.0357856750488
 23
92.7892150878906
 33
17.2999992370605
 0
3DFACE
 8
STL2DXF
 10
34.7179489135742
 20
120.375
 30
17.2999992370605
 11
35.0357856750488
 21
92.7892150878906
 31
17.2999992370605
 12
35.0357856750488
 22
119.960784912109
 32
17.2999992370605
 13
35.0357856750488
 23
119.960784912109
 33
17.2999992370605
 0
3DFACE
 8
STL2DXF
 10
35.0357856750488
 20
119.960784912109
 30
17.2999992370605
 11
35.0357856750488
 21
92.7892150878906
 31
17.2999992370605
 12
35.4500007629395
 22
93.107048034668
 32
17.2999992370605
 13
35.4500007629395
 23
93.107048034668
 33
17.2999992370605
 0
3DFACE
 8
STL2DXF
 10
35.0357856750488
 20
119.960784912109
 30
17.2999992370605
 11
35.4500007629395
 21
93.107048034668
 31
17.2999992370605
 12
35.4500007629395
 22
119.642951965332
 32
17.2999992370605
 13
35.4500007629395
 23
119.642951965332
 33
17.2999992370605
 0
3DFACE
 8
STL2DXF
 10
35.4500007629395
 20
119.642951965332
 30
17.2999992370605
 11
35.4500007629395
 21
93.107048034668
 31
17.2999992370605
 12
35.9323616027832
 22
93.3068542480469
 32
17.2999992370605
 13
35.9323616027832
 23
93.3068542480469
 33
17.2999992370605
 0
3DFACE
 8
STL2DXF
 10
35.4500007629395
 20
119.642951965332
 30
17.2999992370605
 11
35.9323616027832
 21
93.3068542480469
 31
17.2999992370605
 12
35.9323616027832
 22
119.443145751953
 32
17.2999992370605
 13
35.9323616027832
 23
119.443145751953
 33
17.2999992370605
 0
3DFACE
 8
STL2DXF
 10
35.9323616027832
 20
119.443145751953
 30
17.2999992370605
 11
35.9323616027832
 21
93.3068542480469
 31
17.2999992370605
 12
36.4500007629395
 22
93.375
 32
17.2999992370605
 13
36.4500007629395
 23
93.375
 33
17.2999992370605
 0
3DFACE
 8
STL2DXF
 10
35.9323616027832
 20
119.443145751953
 30
17.2999992370605
 11
36.4500007629395
 21
93.375
 31
17.2999992370605
 12
36.4500007629395
 22
119.375
 32
17.2999992370605
 13
36.4500007629395
 23
119.375
 33
17.2999992370605
 0
3DFACE
 8
STL2DXF
 10
36.4500007629395
 20
119.375
 30
17.2999992370605
 11
36.4500007629395
 21
93.375
 31
17.2999992370605
 12
36.9676399230957
 22
93.3068542480469
 32
17.2999992370605
 13
36.9676399230957
 23
93.3068542480469
 33
17.2999992370605
 0
3DFACE
 8
STL2DXF
 10
36.4500007629395
 20
119.375
 30
17.2999992370605
 11
36.9676399230957
 21
93.3068542480469
 31
17.2999992370605
 12
36.9676399230957
 22
119.443145751953
 32
17.2999992370605
 13
36.9676399230957
 23
119.443145751953
 33
17.2999992370605
 0
3DFACE
 8
STL2DXF
 10
36.9676399230957
 20
119.443145751953
 30
17.2999992370605
 11
36.9676399230957
 21
93.3068542480469
 31
17.2999992370605
 12
37.4500007629395
 22
93.107048034668
 32
17.2999992370605
 13
37.4500007629395
 23
93.107048034668
 33
17.2999992370605
 0
3DFACE
 8
STL2DXF
 10
36.9676399230957
 20
119.443145751953
 30
17.2999992370605
 11
37.4500007629395
 21
93.107048034668
 31
17.2999992370605
 12
37.4500007629395
 22
119.642951965332
 32
17.2999992370605
 13
37.4500007629395
 23
119.642951965332
 33
17.2999992370605
 0
3DFACE
 8
STL2DXF
 10
37.4500007629395
 20
119.642951965332
 30
17.2999992370605
 11
37.4500007629395
 21
93.107048034668
 31
17.2999992370605
 12
37.8642120361328
 22
92.7892150878906
 32
17.2999992370605
 13
37.8642120361328
 23
92.7892150878906
 33
17.2999992370605
 0
3DFACE
 8
STL2DXF
 10
37.4500007629395
 20
119.642951965332
 30
17.2999992370605
 11
37.8642120361328
 21
92.7892150878906
 31
17.2999992370605
 12
37.8642120361328
 22
119.960784912109
 32
17.2999992370605
 13
37.8642120361328
 23
119.960784912109
 33
17.2999992370605
 0
3DFACE
 8
STL2DXF
 10
37.8642120361328
 20
119.960784912109
 30
17.2999992370605
 11
37.8642120361328
 21
92.7892150878906
 31
17.2999992370605
 12
38.1820526123047
 22
120.375
 32
17.2999992370605
 13
38.1820526123047
 23
120.375
 33
17.2999992370605
 0
3DFACE
 8
STL2DXF
 10
38.1820526123047
 20
120.375
 30
17.2999992370605
 11
37.8642120361328
 21
92.7892150878906
 31
17.2999992370605
 12
38.1820526123047
 22
92.375
 32
17.2999992370605
 13
38.1820526123047
 23
92.375
 33
17.2999992370605
 0
3DFACE
 8
STL2DXF
 10
38.1820526123047
 20
120.375
 30
17.2999992370605
 11
38.1820526123047
 21
92.375
 31
17.2999992370605
 12
38.3818511962891
 22
91.8926391601563
 32
17.2999992370605
 13
38.3818511962891
 23
91.8926391601563
 33
17.2999992370605
 0
3DFACE
 8
STL2DXF
 10
38.1820526123047
 20
120.375
 30
17.2999992370605
 11
38.3818511962891
 21
91.8926391601563
 31
17.2999992370605
 12
38.3818511962891
 22
120.857360839844
 32
17.2999992370605
 13
38.3818511962891
 23
120.857360839844
 33
17.2999992370605
 0
3DFACE
 8
STL2DXF
 10
38.3818511962891
 20
120.857360839844
 30
17.2999992370605
 11
38.3818511962891
 21
91.8926391601563
 31
17.2999992370605
 12
38.4500007629395
 22
91.375
 32
17.2999992370605
 13
38.4500007629395
 23
91.375
 33
17.2999992370605
 0
3DFACE
 8
STL2DXF
 10
38.3818511962891
 20
120.857360839844
 30
17.2999992370605
 11
38.4500007629395
 21
91.375
 31
17.2999992370605
 12
38.4500007629395
 22
121.375
 32
17.2999992370605
 13
38.4500007629395
 23
121.375
 33
17.2999992370605
 0
3DFACE
 8
STL2DXF
 10
44.4500007629395
 20
66.375
 30
12.3000001907349
 11
44.4500007629395
 21
126.375
 31
17.2999992370605
 12
44.4500007629395
 22
126.375
 32
12.3000001907349
 13
44.4500007629395
 23
126.375
 33
12.3000001907349
 0
3DFACE
 8
STL2DXF
 10
44.4500007629395
 20
126.375
 30
17.2999992370605
 11
44.4500007629395
 21
66.375
 31
12.3000001907349
 12
44.4500007629395
 22
66.375
 32
17.2999992370605
 13
44.4500007629395
 23
66.375
 33
17.2999992370605
 0
3DFACE
 8
STL2DXF
 10
44.4500007629395
 20
66.375
 30
12.3000001907349
 11
39.4500007629395
 21
126.375
 31
12.3000001907349
 12
39.4500007629395
 22
66.375
 32
12.3000001907349
 13
39.4500007629395
 23
66.375
 33
12.3000001907349
 0
3DFACE
 8
STL2DXF
 10
39.4500007629395
 20
126.375
 30
12.3000001907349
 11
44.4500007629395
 21
66.375
 31
12.3000001907349
 12
44.4500007629395
 22
126.375
 32
12.3000001907349
 13
44.4500007629395
 23
126.375
 33
12.3000001907349
 0
3DFACE
 8
STL2DXF
 10
1
 20
126.375
 30
17.2999992370605
 11
6
 21
126.375
 31
12.3000001907349
 12
6
 22
126.375
 32
17.2999992370605
 13
6
 23
126.375
 33
17.2999992370605
 0
3DFACE
 8
STL2DXF
 10
6
 20
126.375
 30
12.3000001907349
 11
1
 21
126.375
 31
17.2999992370605
 12
1
 22
126.375
 32
12.3000001907349
 13
1
 23
126.375
 33
12.3000001907349
 0
3DFACE
 8
STL2DXF
 10
6
 20
66.375
 30
12.3000001907349
 11
1
 21
126.375
 31
12.3000001907349
 12
1
 22
66.375
 32
12.3000001907349
 13
1
 23
66.375
 33
12.3000001907349
 0
3DFACE
 8
STL2DXF
 10
1
 20
126.375
 30
12.3000001907349
 11
6
 21
66.375
 31
12.3000001907349
 12
6
 22
126.375
 32
12.3000001907349
 13
6
 23
126.375
 33
12.3000001907349
 0
3DFACE
 8
STL2DXF
 10
39.4500007629395
 20
126.375
 30
12.3000001907349
 11
44.4500007629395
 21
126.375
 31
17.2999992370605
 12
39.4500007629395
 22
126.375
 32
17.2999992370605
 13
39.4500007629395
 23
126.375
 33
17.2999992370605
 0
3DFACE
 8
STL2DXF
 10
44.4500007629395
 20
126.375
 30
17.2999992370605
 11
39.4500007629395
 21
126.375
 31
12.3000001907349
 12
44.4500007629395
 22
126.375
 32
12.3000001907349
 13
44.4500007629395
 23
126.375
 33
12.3000001907349
 0
3DFACE
 8
STL2DXF
 10
39.4500007629395
 20
66.375
 30
17.2999992370605
 11
39.4500007629395
 21
126.375
 31
12.3000001907349
 12
39.4500007629395
 22
126.375
 32
17.2999992370605
 13
39.4500007629395
 23
126.375
 33
17.2999992370605
 0
3DFACE
 8
STL2DXF
 10
39.4500007629395
 20
126.375
 30
12.3000001907349
 11
39.4500007629395
 21
66.375
 31
17.2999992370605
 12
39.4500007629395
 22
66.375
 32
12.3000001907349
 13
39.4500007629395
 23
66.375
 33
12.3000001907349
 0
3DFACE
 8
STL2DXF
 10
44.4500007629395
 20
66.375
 30
12.3000001907349
 11
39.4500007629395
 21
66.375
 31
17.2999992370605
 12
44.4500007629395
 22
66.375
 32
17.2999992370605
 13
44.4500007629395
 23
66.375
 33
17.2999992370605
 0
3DFACE
 8
STL2DXF
 10
39.4500007629395
 20
66.375
 30
17.2999992370605
 11
44.4500007629395
 21
66.375
 31
12.3000001907349
 12
39.4500007629395
 22
66.375
 32
12.3000001907349
 13
39.4500007629395
 23
66.375
 33
12.3000001907349
 0
3DFACE
 8
STL2DXF
 10
23.7250003814697
 20
123.375
 30
12.1000003814697
 11
23.7250003814697
 21
127.375
 31
11.3000001907349
 12
23.7250003814697
 22
127.375
 32
12.1000003814697
 13
23.7250003814697
 23
127.375
 33
12.1000003814697
 0
3DFACE
 8
STL2DXF
 10
23.7250003814697
 20
127.375
 30
11.3000001907349
 11
23.7250003814697
 21
123.375
 31
12.1000003814697
 12
23.7250003814697
 22
112.375
 32
11.3000001907349
 13
23.7250003814697
 23
112.375
 33
11.3000001907349
 0
3DFACE
 8
STL2DXF
 10
23.7250003814697
 20
112.375
 30
11.3000001907349
 11
23.7250003814697
 21
123.375
 31
12.1000003814697
 12
23.7250003814697
 22
119.375
 32
12.1000003814697
 13
23.7250003814697
 23
119.375
 33
12.1000003814697
 0
3DFACE
 8
STL2DXF
 10
23.7250003814697
 20
119.375
 30
12.1000003814697
 11
23.7250003814697
 21
123.375
 31
12.1000003814697
 12
23.7250003814697
 22
123.375
 32
14.3000001907349
 13
23.7250003814697
 23
123.375
 33
14.3000001907349
 0
3DFACE
 8
STL2DXF
 10
23.7250003814697
 20
119.375
 30
12.1000003814697
 11
23.7250003814697
 21
123.375
 31
14.3000001907349
 12
23.7250003814697
 22
119.375
 32
14.3000001907349
 13
23.7250003814697
 23
119.375
 33
14.3000001907349
 0
3DFACE
 8
STL2DXF
 10
23.7250003814697
 20
112.375
 30
11.3000001907349
 11
23.7250003814697
 21
119.375
 31
12.1000003814697
 12
23.7250003814697
 22
112.375
 32
12.1000003814697
 13
23.7250003814697
 23
112.375
 33
12.1000003814697
 0
3DFACE
 8
STL2DXF
 10
23.7250003814697
 20
127.375
 30
12.1000003814697
 11
45.4500007629395
 21
127.375
 31
11.3000001907349
 12
45.4500007629395
 22
127.375
 32
12.1000003814697
 13
45.4500007629395
 23
127.375
 33
12.1000003814697
 0
3DFACE
 8
STL2DXF
 10
45.4500007629395
 20
127.375
 30
11.3000001907349
 11
23.7250003814697
 21
127.375
 31
12.1000003814697
 12
23.7250003814697
 22
127.375
 32
11.3000001907349
 13
23.7250003814697
 23
127.375
 33
11.3000001907349
 0
3DFACE
 8
STL2DXF
 10
45.4500007629395
 20
107.375
 30
11.3000001907349
 11
45.4500007629395
 21
127.375
 31
12.1000003814697
 12
45.4500007629395
 22
127.375
 32
11.3000001907349
 13
45.4500007629395
 23
127.375
 33
11.3000001907349
 0
3DFACE
 8
STL2DXF
 10
45.4500007629395
 20
127.375
 30
12.1000003814697
 11
45.4500007629395
 21
107.375
 31
11.3000001907349
 12
45.4500007629395
 22
107.375
 32
12.1000003814697
 13
45.4500007629395
 23
107.375
 33
12.1000003814697
 0
3DFACE
 8
STL2DXF
 10
45.4500007629395
 20
107.375
 30
11.3000001907349
 11
28.7250003814697
 21
107.375
 31
12.1000003814697
 12
45.4500007629395
 22
107.375
 32
12.1000003814697
 13
45.4500007629395
 23
107.375
 33
12.1000003814697
 0
3DFACE
 8
STL2DXF
 10
28.7250003814697
 20
107.375
 30
12.1000003814697
 11
45.4500007629395
 21
107.375
 31
11.3000001907349
 12
28.7250003814697
 22
107.375
 32
11.3000001907349
 13
28.7250003814697
 23
107.375
 33
11.3000001907349
 0
3DFACE
 8
STL2DXF
 10
28.7250003814697
 20
107.375
 30
12.1000003814697
 11
23.7250003814697
 21
112.375
 31
11.3000001907349
 12
23.7250003814697
 22
112.375
 32
12.1000003814697
 13
23.7250003814697
 23
112.375
 33
12.1000003814697
 0
3DFACE
 8
STL2DXF
 10
23.7250003814697
 20
112.375
 30
11.3000001907349
 11
28.7250003814697
 21
107.375
 31
12.1000003814697
 12
28.7250003814697
 22
107.375
 32
11.3000001907349
 13
28.7250003814697
 23
107.375
 33
11.3000001907349
 0
3DFACE
 8
STL2DXF
 10
45.4500007629395
 20
127.375
 30
12.1000003814697
 11
23.7250003814697
 21
123.375
 31
12.1000003814697
 12
23.7250003814697
 22
127.375
 32
12.1000003814697
 13
23.7250003814697
 23
127.375
 33
12.1000003814697
 0
3DFACE
 8
STL2DXF
 10
23.7250003814697
 20
123.375
 30
12.1000003814697
 11
45.4500007629395
 21
127.375
 31
12.1000003814697
 12
26.7250003814697
 22
123.375
 32
12.1000003814697
 13
26.7250003814697
 23
123.375
 33
12.1000003814697
 0
3DFACE
 8
STL2DXF
 10
26.7250003814697
 20
123.375
 30
12.1000003814697
 11
45.4500007629395
 21
127.375
 31
12.1000003814697
 12
26.7250003814697
 22
119.375
 32
12.1000003814697
 13
26.7250003814697
 23
119.375
 33
12.1000003814697
 0
3DFACE
 8
STL2DXF
 10
26.7250003814697
 20
119.375
 30
12.1000003814697
 11
45.4500007629395
 21
127.375
 31
12.1000003814697
 12
28.7250003814697
 22
107.375
 32
12.1000003814697
 13
28.7250003814697
 23
107.375
 33
12.1000003814697
 0
3DFACE
 8
STL2DXF
 10
28.7250003814697
 20
107.375
 30
12.1000003814697
 11
45.4500007629395
 21
127.375
 31
12.1000003814697
 12
45.4500007629395
 22
107.375
 32
12.1000003814697
 13
45.4500007629395
 23
107.375
 33
12.1000003814697
 0
3DFACE
 8
STL2DXF
 10
26.7250003814697
 20
119.375
 30
12.1000003814697
 11
23.7250003814697
 21
112.375
 31
12.1000003814697
 12
23.7250003814697
 22
119.375
 32
12.1000003814697
 13
23.7250003814697
 23
119.375
 33
12.1000003814697
 0
3DFACE
 8
STL2DXF
 10
23.7250003814697
 20
112.375
 30
12.1000003814697
 11
26.7250003814697
 21
119.375
 31
12.1000003814697
 12
28.7250003814697
 22
107.375
 32
12.1000003814697
 13
28.7250003814697
 23
107.375
 33
12.1000003814697
 0
3DFACE
 8
STL2DXF
 10
26.7250003814697
 20
123.375
 30
16.2999992370605
 11
20.1426372528076
 21
123.306854248047
 31
16.2999992370605
 12
19.625
 22
123.375
 32
16.2999992370605
 13
19.625
 23
123.375
 33
16.2999992370605
 0
3DFACE
 8
STL2DXF
 10
20.1426372528076
 20
123.306854248047
 30
16.2999992370605
 11
26.7250003814697
 21
123.375
 31
16.2999992370605
 12
20.625
 22
123.107048034668
 32
16.2999992370605
 13
20.625
 23
123.107048034668
 33
16.2999992370605
 0
3DFACE
 8
STL2DXF
 10
20.625
 20
123.107048034668
 30
16.2999992370605
 11
26.7250003814697
 21
123.375
 31
16.2999992370605
 12
21.039213180542
 22
122.789215087891
 32
16.2999992370605
 13
21.039213180542
 23
122.789215087891
 33
16.2999992370605
 0
3DFACE
 8
STL2DXF
 10
21.039213180542
 20
122.789215087891
 30
16.2999992370605
 11
26.7250003814697
 21
123.375
 31
16.2999992370605
 12
21.3570499420166
 22
122.375
 32
16.2999992370605
 13
21.3570499420166
 23
122.375
 33
16.2999992370605
 0
3DFACE
 8
STL2DXF
 10
21.3570499420166
 20
122.375
 30
16.2999992370605
 11
26.7250003814697
 21
123.375
 31
16.2999992370605
 12
21.5568523406982
 22
121.892639160156
 32
16.2999992370605
 13
21.5568523406982
 23
121.892639160156
 33
16.2999992370605
 0
3DFACE
 8
STL2DXF
 10
21.5568523406982
 20
121.892639160156
 30
16.2999992370605
 11
26.7250003814697
 21
123.375
 31
16.2999992370605
 12
21.625
 22
121.375
 32
16.2999992370605
 13
21.625
 23
121.375
 33
16.2999992370605
 0
3DFACE
 8
STL2DXF
 10
20.1426372528076
 20
119.443145751953
 30
16.2999992370605
 11
26.7250003814697
 21
119.375
 31
16.2999992370605
 12
19.625
 22
119.375
 32
16.2999992370605
 13
19.625
 23
119.375
 33
16.2999992370605
 0
3DFACE
 8
STL2DXF
 10
26.7250003814697
 20
119.375
 30
16.2999992370605
 11
20.1426372528076
 21
119.443145751953
 31
16.2999992370605
 12
20.625
 22
119.642951965332
 32
16.2999992370605
 13
20.625
 23
119.642951965332
 33
16.2999992370605
 0
3DFACE
 8
STL2DXF
 10
26.7250003814697
 20
119.375
 30
16.2999992370605
 11
20.625
 21
119.642951965332
 31
16.2999992370605
 12
21.039213180542
 22
119.960784912109
 32
16.2999992370605
 13
21.039213180542
 23
119.960784912109
 33
16.2999992370605
 0
3DFACE
 8
STL2DXF
 10
26.7250003814697
 20
119.375
 30
16.2999992370605
 11
21.039213180542
 21
119.960784912109
 31
16.2999992370605
 12
21.3570499420166
 22
120.375
 32
16.2999992370605
 13
21.3570499420166
 23
120.375
 33
16.2999992370605
 0
3DFACE
 8
STL2DXF
 10
26.7250003814697
 20
119.375
 30
16.2999992370605
 11
21.3570499420166
 21
120.375
 31
16.2999992370605
 12
21.5568523406982
 22
120.857360839844
 32
16.2999992370605
 13
21.5568523406982
 23
120.857360839844
 33
16.2999992370605
 0
3DFACE
 8
STL2DXF
 10
26.7250003814697
 20
119.375
 30
16.2999992370605
 11
21.5568523406982
 21
120.857360839844
 31
16.2999992370605
 12
21.625
 22
121.375
 32
16.2999992370605
 13
21.625
 23
121.375
 33
16.2999992370605
 0
3DFACE
 8
STL2DXF
 10
26.7250003814697
 20
119.375
 30
16.2999992370605
 11
21.625
 21
121.375
 31
16.2999992370605
 12
26.7250003814697
 22
123.375
 32
16.2999992370605
 13
26.7250003814697
 23
123.375
 33
16.2999992370605
 0
3DFACE
 8
STL2DXF
 10
19.625
 20
123.375
 30
14.3000001907349
 11
26.7250003814697
 21
123.375
 31
16.2999992370605
 12
19.625
 22
123.375
 32
16.2999992370605
 13
19.625
 23
123.375
 33
16.2999992370605
 0
3DFACE
 8
STL2DXF
 10
26.7250003814697
 20
123.375
 30
16.2999992370605
 11
19.625
 21
123.375
 31
14.3000001907349
 12
23.7250003814697
 22
123.375
 32
14.3000001907349
 13
23.7250003814697
 23
123.375
 33
14.3000001907349
 0
3DFACE
 8
STL2DXF
 10
26.7250003814697
 20
123.375
 30
16.2999992370605
 11
23.7250003814697
 21
123.375
 31
14.3000001907349
 12
26.7250003814697
 22
123.375
 32
12.1000003814697
 13
26.7250003814697
 23
123.375
 33
12.1000003814697
 0
3DFACE
 8
STL2DXF
 10
26.7250003814697
 20
123.375
 30
12.1000003814697
 11
23.7250003814697
 21
123.375
 31
14.3000001907349
 12
23.7250003814697
 22
123.375
 32
12.1000003814697
 13
23.7250003814697
 23
123.375
 33
12.1000003814697
 0
3DFACE
 8
STL2DXF
 10
26.7250003814697
 20
119.375
 30
12.1000003814697
 11
26.7250003814697
 21
123.375
 31
16.2999992370605
 12
26.7250003814697
 22
123.375
 32
12.1000003814697
 13
26.7250003814697
 23
123.375
 33
12.1000003814697
 0
3DFACE
 8
STL2DXF
 10
26.7250003814697
 20
123.375
 30
16.2999992370605
 11
26.7250003814697
 21
119.375
 31
12.1000003814697
 12
26.7250003814697
 22
119.375
 32
16.2999992370605
 13
26.7250003814697
 23
119.375
 33
16.2999992370605
 0
3DFACE
 8
STL2DXF
 10
26.7250003814697
 20
119.375
 30
12.1000003814697
 11
23.7250003814697
 21
119.375
 31
14.3000001907349
 12
26.7250003814697
 22
119.375
 32
16.2999992370605
 13
26.7250003814697
 23
119.375
 33
16.2999992370605
 0
3DFACE
 8
STL2DXF
 10
23.7250003814697
 20
119.375
 30
14.3000001907349
 11
26.7250003814697
 21
119.375
 31
12.1000003814697
 12
23.7250003814697
 22
119.375
 32
12.1000003814697
 13
23.7250003814697
 23
119.375
 33
12.1000003814697
 0
3DFACE
 8
STL2DXF
 10
26.7250003814697
 20
119.375
 30
16.2999992370605
 11
19.625
 21
119.375
 31
14.3000001907349
 12
19.625
 22
119.375
 32
16.2999992370605
 13
19.625
 23
119.375
 33
16.2999992370605
 0
3DFACE
 8
STL2DXF
 10
19.625
 20
119.375
 30
14.3000001907349
 11
26.7250003814697
 21
119.375
 31
16.2999992370605
 12
23.7250003814697
 22
119.375
 32
14.3000001907349
 13
23.7250003814697
 23
119.375
 33
14.3000001907349
 0
3DFACE
 8
STL2DXF
 10
17.6931476593018
 20
120.857360839844
 30
14.3000001907349
 11
17.6931476593018
 21
121.892639160156
 31
14.3000001907349
 12
17.625
 22
121.375
 32
14.3000001907349
 13
17.625
 23
121.375
 33
14.3000001907349
 0
3DFACE
 8
STL2DXF
 10
17.6931476593018
 20
121.892639160156
 30
14.3000001907349
 11
17.6931476593018
 21
120.857360839844
 31
14.3000001907349
 12
17.8929500579834
 22
120.375
 32
14.3000001907349
 13
17.8929500579834
 23
120.375
 33
14.3000001907349
 0
3DFACE
 8
STL2DXF
 10
17.6931476593018
 20
121.892639160156
 30
14.3000001907349
 11
17.8929500579834
 21
120.375
 31
14.3000001907349
 12
17.8929500579834
 22
122.375
 32
14.3000001907349
 13
17.8929500579834
 23
122.375
 33
14.3000001907349
 0
3DFACE
 8
STL2DXF
 10
17.8929500579834
 20
122.375
 30
14.3000001907349
 11
17.8929500579834
 21
120.375
 31
14.3000001907349
 12
18.210786819458
 22
122.789215087891
 32
14.3000001907349
 13
18.210786819458
 23
122.789215087891
 33
14.3000001907349
 0
3DFACE
 8
STL2DXF
 10
18.210786819458
 20
122.789215087891
 30
14.3000001907349
 11
17.8929500579834
 21
120.375
 31
14.3000001907349
 12
18.210786819458
 22
119.960784912109
 32
14.3000001907349
 13
18.210786819458
 23
119.960784912109
 33
14.3000001907349
 0
3DFACE
 8
STL2DXF
 10
18.210786819458
 20
122.789215087891
 30
14.3000001907349
 11
18.210786819458
 21
119.960784912109
 31
14.3000001907349
 12
18.625
 22
123.107048034668
 32
14.3000001907349
 13
18.625
 23
123.107048034668
 33
14.3000001907349
 0
3DFACE
 8
STL2DXF
 10
18.625
 20
123.107048034668
 30
14.3000001907349
 11
18.210786819458
 21
119.960784912109
 31
14.3000001907349
 12
18.625
 22
119.642951965332
 32
14.3000001907349
 13
18.625
 23
119.642951965332
 33
14.3000001907349
 0
3DFACE
 8
STL2DXF
 10
18.625
 20
123.107048034668
 30
14.3000001907349
 11
18.625
 21
119.642951965332
 31
14.3000001907349
 12
19.1073627471924
 22
123.306854248047
 32
14.3000001907349
 13
19.1073627471924
 23
123.306854248047
 33
14.3000001907349
 0
3DFACE
 8
STL2DXF
 10
19.1073627471924
 20
123.306854248047
 30
14.3000001907349
 11
18.625
 21
119.642951965332
 31
14.3000001907349
 12
19.1073627471924
 22
119.443145751953
 32
14.3000001907349
 13
19.1073627471924
 23
119.443145751953
 33
14.3000001907349
 0
3DFACE
 8
STL2DXF
 10
19.1073627471924
 20
123.306854248047
 30
14.3000001907349
 11
19.1073627471924
 21
119.443145751953
 31
14.3000001907349
 12
19.625
 22
123.375
 32
14.3000001907349
 13
19.625
 23
123.375
 33
14.3000001907349
 0
3DFACE
 8
STL2DXF
 10
19.625
 20
123.375
 30
14.3000001907349
 11
19.1073627471924
 21
119.443145751953
 31
14.3000001907349
 12
19.625
 22
119.375
 32
14.3000001907349
 13
19.625
 23
119.375
 33
14.3000001907349
 0
3DFACE
 8
STL2DXF
 10
19.625
 20
123.375
 30
14.3000001907349
 11
19.625
 21
119.375
 31
14.3000001907349
 12
23.7250003814697
 22
119.375
 32
14.3000001907349
 13
23.7250003814697
 23
119.375
 33
14.3000001907349
 0
3DFACE
 8
STL2DXF
 10
19.625
 20
123.375
 30
14.3000001907349
 11
23.7250003814697
 21
119.375
 31
14.3000001907349
 12
23.7250003814697
 22
123.375
 32
14.3000001907349
 13
23.7250003814697
 23
123.375
 33
14.3000001907349
 0
3DFACE
 8
STL2DXF
 10
1.82076576038526E-14
 20
127.375
 30
12.1000003814697
 11
7.89294910430908
 21
122.375
 31
12.1000003814697
 12
1.79856129989275E-14
 22
107.375
 32
12.1000003814697
 13
1.79856129989275E-14
 23
107.375
 33
12.1000003814697
 0
3DFACE
 8
STL2DXF
 10
7.89294910430908
 20
122.375
 30
12.1000003814697
 11
1.82076576038526E-14
 21
127.375
 31
12.1000003814697
 12
8.21078681945801
 22
122.789215087891
 32
12.1000003814697
 13
8.21078681945801
 23
122.789215087891
 33
12.1000003814697
 0
3DFACE
 8
STL2DXF
 10
8.21078681945801
 20
122.789215087891
 30
12.1000003814697
 11
1.82076576038526E-14
 21
127.375
 31
12.1000003814697
 12
8.625
 22
123.107048034668
 32
12.1000003814697
 13
8.625
 23
123.107048034668
 33
12.1000003814697
 0
3DFACE
 8
STL2DXF
 10
8.625
 20
123.107048034668
 30
12.1000003814697
 11
1.82076576038526E-14
 21
127.375
 31
12.1000003814697
 12
9.10736179351807
 22
123.306854248047
 32
12.1000003814697
 13
9.10736179351807
 23
123.306854248047
 33
12.1000003814697
 0
3DFACE
 8
STL2DXF
 10
9.10736179351807
 20
123.306854248047
 30
12.1000003814697
 11
1.82076576038526E-14
 21
127.375
 31
12.1000003814697
 12
21.7250003814697
 22
127.375
 32
12.1000003814697
 13
21.7250003814697
 23
127.375
 33
12.1000003814697
 0
3DFACE
 8
STL2DXF
 10
1.79856129989275E-14
 20
107.375
 30
12.1000003814697
 11
7.89294910430908
 21
122.375
 31
12.1000003814697
 12
7.69314813613892
 22
121.892639160156
 32
12.1000003814697
 13
7.69314813613892
 23
121.892639160156
 33
12.1000003814697
 0
3DFACE
 8
STL2DXF
 10
1.79856129989275E-14
 20
107.375
 30
12.1000003814697
 11
7.69314813613892
 21
121.892639160156
 31
12.1000003814697
 12
7.625
 22
121.375
 32
12.1000003814697
 13
7.625
 23
121.375
 33
12.1000003814697
 0
3DFACE
 8
STL2DXF
 10
9.10736179351807
 20
123.306854248047
 30
12.1000003814697
 11
21.7250003814697
 21
127.375
 31
12.1000003814697
 12
9.625
 22
123.375
 32
12.1000003814697
 13
9.625
 23
123.375
 33
12.1000003814697
 0
3DFACE
 8
STL2DXF
 10
9.625
 20
123.375
 30
12.1000003814697
 11
21.7250003814697
 21
127.375
 31
12.1000003814697
 12
10.1426382064819
 22
123.306854248047
 32
12.1000003814697
 13
10.1426382064819
 23
123.306854248047
 33
12.1000003814697
 0
3DFACE
 8
STL2DXF
 10
10.1426382064819
 20
123.306854248047
 30
12.1000003814697
 11
21.7250003814697
 21
127.375
 31
12.1000003814697
 12
10.625
 22
123.107048034668
 32
12.1000003814697
 13
10.625
 23
123.107048034668
 33
12.1000003814697
 0
3DFACE
 8
STL2DXF
 10
10.625
 20
123.107048034668
 30
12.1000003814697
 11
21.7250003814697
 21
127.375
 31
12.1000003814697
 12
11.039213180542
 22
122.789215087891
 32
12.1000003814697
 13
11.039213180542
 23
122.789215087891
 33
12.1000003814697
 0
3DFACE
 8
STL2DXF
 10
11.039213180542
 20
122.789215087891
 30
12.1000003814697
 11
21.7250003814697
 21
127.375
 31
12.1000003814697
 12
11.3570508956909
 22
122.375
 32
12.1000003814697
 13
11.3570508956909
 23
122.375
 33
12.1000003814697
 0
3DFACE
 8
STL2DXF
 10
11.3570508956909
 20
122.375
 30
12.1000003814697
 11
21.7250003814697
 21
127.375
 31
12.1000003814697
 12
11.5568513870239
 22
121.892639160156
 32
12.1000003814697
 13
11.5568513870239
 23
121.892639160156
 33
12.1000003814697
 0
3DFACE
 8
STL2DXF
 10
11.5568513870239
 20
121.892639160156
 30
12.1000003814697
 11
21.7250003814697
 21
127.375
 31
12.1000003814697
 12
11.625
 22
121.375
 32
12.1000003814697
 13
11.625
 23
121.375
 33
12.1000003814697
 0
3DFACE
 8
STL2DXF
 10
11.625
 20
121.375
 30
12.1000003814697
 11
21.7250003814697
 21
127.375
 31
12.1000003814697
 12
16.7250003814697
 22
107.375
 32
12.1000003814697
 13
16.7250003814697
 23
107.375
 33
12.1000003814697
 0
3DFACE
 8
STL2DXF
 10
16.7250003814697
 20
107.375
 30
12.1000003814697
 11
21.7250003814697
 21
127.375
 31
12.1000003814697
 12
21.7250003814697
 22
112.375
 32
12.1000003814697
 13
21.7250003814697
 23
112.375
 33
12.1000003814697
 0
3DFACE
 8
STL2DXF
 10
1.79856129989275E-14
 20
107.375
 30
12.1000003814697
 11
7.89294910430908
 21
120.375
 31
12.1000003814697
 12
16.7250003814697
 22
107.375
 32
12.1000003814697
 13
16.7250003814697
 23
107.375
 33
12.1000003814697
 0
3DFACE
 8
STL2DXF
 10
7.89294910430908
 20
120.375
 30
12.1000003814697
 11
1.79856129989275E-14
 21
107.375
 31
12.1000003814697
 12
7.69314813613892
 22
120.857360839844
 32
12.1000003814697
 13
7.69314813613892
 23
120.857360839844
 33
12.1000003814697
 0
3DFACE
 8
STL2DXF
 10
7.69314813613892
 20
120.857360839844
 30
12.1000003814697
 11
1.79856129989275E-14
 21
107.375
 31
12.1000003814697
 12
7.625
 22
121.375
 32
12.1000003814697
 13
7.625
 23
121.375
 33
12.1000003814697
 0
3DFACE
 8
STL2DXF
 10
16.7250003814697
 20
107.375
 30
12.1000003814697
 11
7.89294910430908
 21
120.375
 31
12.1000003814697
 12
8.21078681945801
 22
119.960784912109
 32
12.1000003814697
 13
8.21078681945801
 23
119.960784912109
 33
12.1000003814697
 0
3DFACE
 8
STL2DXF
 10
16.7250003814697
 20
107.375
 30
12.1000003814697
 11
8.21078681945801
 21
119.960784912109
 31
12.1000003814697
 12
8.625
 22
119.642951965332
 32
12.1000003814697
 13
8.625
 23
119.642951965332
 33
12.1000003814697
 0
3DFACE
 8
STL2DXF
 10
16.7250003814697
 20
107.375
 30
12.1000003814697
 11
8.625
 21
119.642951965332
 31
12.1000003814697
 12
9.10736179351807
 22
119.443145751953
 32
12.1000003814697
 13
9.10736179351807
 23
119.443145751953
 33
12.1000003814697
 0
3DFACE
 8
STL2DXF
 10
16.7250003814697
 20
107.375
 30
12.1000003814697
 11
9.10736179351807
 21
119.443145751953
 31
12.1000003814697
 12
9.625
 22
119.375
 32
12.1000003814697
 13
9.625
 23
119.375
 33
12.1000003814697
 0
3DFACE
 8
STL2DXF
 10
16.7250003814697
 20
107.375
 30
12.1000003814697
 11
9.625
 21
119.375
 31
12.1000003814697
 12
10.1426382064819
 22
119.443145751953
 32
12.1000003814697
 13
10.1426382064819
 23
119.443145751953
 33
12.1000003814697
 0
3DFACE
 8
STL2DXF
 10
16.7250003814697
 20
107.375
 30
12.1000003814697
 11
10.1426382064819
 21
119.443145751953
 31
12.1000003814697
 12
10.625
 22
119.642951965332
 32
12.1000003814697
 13
10.625
 23
119.642951965332
 33
12.1000003814697
 0
3DFACE
 8
STL2DXF
 10
16.7250003814697
 20
107.375
 30
12.1000003814697
 11
10.625
 21
119.642951965332
 31
12.1000003814697
 12
11.039213180542
 22
119.960784912109
 32
12.1000003814697
 13
11.039213180542
 23
119.960784912109
 33
12.1000003814697
 0
3DFACE
 8
STL2DXF
 10
16.7250003814697
 20
107.375
 30
12.1000003814697
 11
11.039213180542
 21
119.960784912109
 31
12.1000003814697
 12
11.3570508956909
 22
120.375
 32
12.1000003814697
 13
11.3570508956909
 23
120.375
 33
12.1000003814697
 0
3DFACE
 8
STL2DXF
 10
16.7250003814697
 20
107.375
 30
12.1000003814697
 11
11.3570508956909
 21
120.375
 31
12.1000003814697
 12
11.5568513870239
 22
120.857360839844
 32
12.1000003814697
 13
11.5568513870239
 23
120.857360839844
 33
12.1000003814697
 0
3DFACE
 8
STL2DXF
 10
16.7250003814697
 20
107.375
 30
12.1000003814697
 11
11.5568513870239
 21
120.857360839844
 31
12.1000003814697
 12
11.625
 22
121.375
 32
12.1000003814697
 13
11.625
 23
121.375
 33
12.1000003814697
 0
3DFACE
 8
STL2DXF
 10
21.7250003814697
 20
112.375
 30
11.3000001907349
 11
21.7250003814697
 21
127.375
 31
12.1000003814697
 12
21.7250003814697
 22
127.375
 32
11.3000001907349
 13
21.7250003814697
 23
127.375
 33
11.3000001907349
 0
3DFACE
 8
STL2DXF
 10
21.7250003814697
 20
127.375
 30
12.1000003814697
 11
21.7250003814697
 21
112.375
 31
11.3000001907349
 12
21.7250003814697
 22
112.375
 32
12.1000003814697
 13
21.7250003814697
 23
112.375
 33
12.1000003814697
 0
3DFACE
 8
STL2DXF
 10
21.7250003814697
 20
112.375
 30
11.3000001907349
 11
16.7250003814697
 21
107.375
 31
12.1000003814697
 12
21.7250003814697
 22
112.375
 32
12.1000003814697
 13
21.7250003814697
 23
112.375
 33
12.1000003814697
 0
3DFACE
 8
STL2DXF
 10
16.7250003814697
 20
107.375
 30
12.1000003814697
 11
21.7250003814697
 21
112.375
 31
11.3000001907349
 12
16.7250003814697
 22
107.375
 32
11.3000001907349
 13
16.7250003814697
 23
107.375
 33
11.3000001907349
 0
3DFACE
 8
STL2DXF
 10
16.7250003814697
 20
107.375
 30
11.3000001907349
 11
1.79856129989275E-14
 21
107.375
 31
12.1000003814697
 12
16.7250003814697
 22
107.375
 32
12.1000003814697
 13
16.7250003814697
 23
107.375
 33
12.1000003814697
 0
3DFACE
 8
STL2DXF
 10
1.79856129989275E-14
 20
107.375
 30
12.1000003814697
 11
16.7250003814697
 21
107.375
 31
11.3000001907349
 12
1.84297022087776E-14
 22
107.375
 32
11.3000001907349
 13
1.84297022087776E-14
 23
107.375
 33
11.3000001907349
 0
3DFACE
 8
STL2DXF
 10
1.79856129989275E-14
 20
107.375
 30
12.1000003814697
 11
1.86517468137026E-14
 21
127.375
 31
11.3000001907349
 12
1.82076576038526E-14
 22
127.375
 32
12.1000003814697
 13
1.82076576038526E-14
 23
127.375
 33
12.1000003814697
 0
3DFACE
 8
STL2DXF
 10
1.86517468137026E-14
 20
127.375
 30
11.3000001907349
 11
1.79856129989275E-14
 21
107.375
 31
12.1000003814697
 12
1.84297022087776E-14
 22
107.375
 32
11.3000001907349
 13
1.84297022087776E-14
 23
107.375
 33
11.3000001907349
 0
3DFACE
 8
STL2DXF
 10
1.86517468137026E-14
 20
127.375
 30
11.3000001907349
 11
21.7250003814697
 21
127.375
 31
12.1000003814697
 12
1.82076576038526E-14
 22
127.375
 32
12.1000003814697
 13
1.82076576038526E-14
 23
127.375
 33
12.1000003814697
 0
3DFACE
 8
STL2DXF
 10
21.7250003814697
 20
127.375
 30
12.1000003814697
 11
1.86517468137026E-14
 21
127.375
 31
11.3000001907349
 12
21.7250003814697
 22
127.375
 32
11.3000001907349
 13
21.7250003814697
 23
127.375
 33
11.3000001907349
 0
3DFACE
 8
STL2DXF
 10
17.5534267425537
 20
105.375
 30
12.1000003814697
 11
1.95399252334028E-14
 21
104.375
 31
12.1000003814697
 12
1.95399252334028E-14
 22
105.375
 32
12.1000003814697
 13
1.95399252334028E-14
 23
105.375
 33
12.1000003814697
 0
3DFACE
 8
STL2DXF
 10
1.95399252334028E-14
 20
104.375
 30
12.1000003814697
 11
17.5534267425537
 21
105.375
 31
12.1000003814697
 12
17.9676399230957
 22
104.375
 32
12.1000003814697
 13
17.9676399230957
 23
104.375
 33
12.1000003814697
 0
3DFACE
 8
STL2DXF
 10
17.9676399230957
 20
104.375
 30
12.1000003814697
 11
17.5534267425537
 21
105.375
 31
12.1000003814697
 12
22.7250003814697
 22
110.546569824219
 32
12.1000003814697
 13
22.7250003814697
 23
110.546569824219
 33
12.1000003814697
 0
3DFACE
 8
STL2DXF
 10
17.9676399230957
 20
104.375
 30
12.1000003814697
 11
22.7250003814697
 21
110.546569824219
 31
12.1000003814697
 12
22.7250003814697
 22
109.132362365723
 32
12.1000003814697
 13
22.7250003814697
 23
109.132362365723
 33
12.1000003814697
 0
3DFACE
 8
STL2DXF
 10
22.7250003814697
 20
109.132362365723
 30
12.1000003814697
 11
22.7250003814697
 21
110.546569824219
 31
12.1000003814697
 12
27.8965721130371
 22
105.375
 32
12.1000003814697
 13
27.8965721130371
 23
105.375
 33
12.1000003814697
 0
3DFACE
 8
STL2DXF
 10
22.7250003814697
 20
109.132362365723
 30
12.1000003814697
 11
27.8965721130371
 21
105.375
 31
12.1000003814697
 12
27.4823589324951
 22
104.375
 32
12.1000003814697
 13
27.4823589324951
 23
104.375
 33
12.1000003814697
 0
3DFACE
 8
STL2DXF
 10
27.4823589324951
 20
104.375
 30
12.1000003814697
 11
27.8965721130371
 21
105.375
 31
12.1000003814697
 12
45.4500007629395
 22
104.375
 32
12.1000003814697
 13
45.4500007629395
 23
104.375
 33
12.1000003814697
 0
3DFACE
 8
STL2DXF
 10
45.4500007629395
 20
104.375
 30
12.1000003814697
 11
27.8965721130371
 21
105.375
 31
12.1000003814697
 12
45.4500007629395
 22
105.375
 32
12.1000003814697
 13
45.4500007629395
 23
105.375
 33
12.1000003814697
 0
3DFACE
 8
STL2DXF
 10
22.7250003814697
 20
110.546569824219
 30
11.3000001907349
 11
27.8965721130371
 21
105.375
 31
12.1000003814697
 12
22.7250003814697
 22
110.546569824219
 32
12.1000003814697
 13
22.7250003814697
 23
110.546569824219
 33
12.1000003814697
 0
3DFACE
 8
STL2DXF
 10
27.8965721130371
 20
105.375
 30
12.1000003814697
 11
22.7250003814697
 21
110.546569824219
 31
11.3000001907349
 12
27.8965721130371
 22
105.375
 32
11.3000001907349
 13
27.8965721130371
 23
105.375
 33
11.3000001907349
 0
3DFACE
 8
STL2DXF
 10
27.8965721130371
 20
105.375
 30
11.3000001907349
 11
45.4500007629395
 21
105.375
 31
12.1000003814697
 12
27.8965721130371
 22
105.375
 32
12.1000003814697
 13
27.8965721130371
 23
105.375
 33
12.1000003814697
 0
3DFACE
 8
STL2DXF
 10
45.4500007629395
 20
105.375
 30
12.1000003814697
 11
27.8965721130371
 21
105.375
 31
11.3000001907349
 12
45.4500007629395
 22
105.375
 32
11.3000001907349
 13
45.4500007629395
 23
105.375
 33
11.3000001907349
 0
3DFACE
 8
STL2DXF
 10
45.4500007629395
 20
104.375
 30
11.3000001907349
 11
45.4500007629395
 21
105.375
 31
12.1000003814697
 12
45.4500007629395
 22
105.375
 32
11.3000001907349
 13
45.4500007629395
 23
105.375
 33
11.3000001907349
 0
3DFACE
 8
STL2DXF
 10
45.4500007629395
 20
105.375
 30
12.1000003814697
 11
45.4500007629395
 21
104.375
 31
11.3000001907349
 12
45.4500007629395
 22
104.375
 32
12.1000003814697
 13
45.4500007629395
 23
104.375
 33
12.1000003814697
 0
3DFACE
 8
STL2DXF
 10
45.4500007629395
 20
104.375
 30
12.1000003814697
 11
27.4823589324951
 21
104.375
 31
11.3000001907349
 12
27.4823589324951
 22
104.375
 32
12.1000003814697
 13
27.4823589324951
 23
104.375
 33
12.1000003814697
 0
3DFACE
 8
STL2DXF
 10
27.4823589324951
 20
104.375
 30
11.3000001907349
 11
45.4500007629395
 21
104.375
 31
12.1000003814697
 12
45.4500007629395
 22
104.375
 32
11.3000001907349
 13
45.4500007629395
 23
104.375
 33
11.3000001907349
 0
3DFACE
 8
STL2DXF
 10
27.4823589324951
 20
104.375
 30
12.1000003814697
 11
22.7250003814697
 21
109.132362365723
 31
11.3000001907349
 12
22.7250003814697
 22
109.132362365723
 32
12.1000003814697
 13
22.7250003814697
 23
109.132362365723
 33
12.1000003814697
 0
3DFACE
 8
STL2DXF
 10
22.7250003814697
 20
109.132362365723
 30
11.3000001907349
 11
27.4823589324951
 21
104.375
 31
12.1000003814697
 12
27.4823589324951
 22
104.375
 32
11.3000001907349
 13
27.4823589324951
 23
104.375
 33
11.3000001907349
 0
3DFACE
 8
STL2DXF
 10
22.7250003814697
 20
109.132362365723
 30
11.3000001907349
 11
17.9676399230957
 21
104.375
 31
12.1000003814697
 12
22.7250003814697
 22
109.132362365723
 32
12.1000003814697
 13
22.7250003814697
 23
109.132362365723
 33
12.1000003814697
 0
3DFACE
 8
STL2DXF
 10
17.9676399230957
 20
104.375
 30
12.1000003814697
 11
22.7250003814697
 21
109.132362365723
 31
11.3000001907349
 12
17.9676399230957
 22
104.375
 32
11.3000001907349
 13
17.9676399230957
 23
104.375
 33
11.3000001907349
 0
3DFACE
 8
STL2DXF
 10
17.9676399230957
 20
104.375
 30
12.1000003814697
 11
1.95399252334028E-14
 21
104.375
 31
11.3000001907349
 12
1.95399252334028E-14
 22
104.375
 32
12.1000003814697
 13
1.95399252334028E-14
 23
104.375
 33
12.1000003814697
 0
3DFACE
 8
STL2DXF
 10
1.95399252334028E-14
 20
104.375
 30
11.3000001907349
 11
17.9676399230957
 21
104.375
 31
12.1000003814697
 12
17.9676399230957
 22
104.375
 32
11.3000001907349
 13
17.9676399230957
 23
104.375
 33
11.3000001907349
 0
3DFACE
 8
STL2DXF
 10
1.95399252334028E-14
 20
104.375
 30
12.1000003814697
 11
1.95399252334028E-14
 21
105.375
 31
11.3000001907349
 12
1.95399252334028E-14
 22
105.375
 32
12.1000003814697
 13
1.95399252334028E-14
 23
105.375
 33
12.1000003814697
 0
3DFACE
 8
STL2DXF
 10
1.95399252334028E-14
 20
105.375
 30
11.3000001907349
 11
1.95399252334028E-14
 21
104.375
 31
12.1000003814697
 12
1.95399252334028E-14
 22
104.375
 32
11.3000001907349
 13
1.95399252334028E-14
 23
104.375
 33
11.3000001907349
 0
3DFACE
 8
STL2DXF
 10
1.95399252334028E-14
 20
105.375
 30
11.3000001907349
 11
17.5534267425537
 21
105.375
 31
12.1000003814697
 12
1.95399252334028E-14
 22
105.375
 32
12.1000003814697
 13
1.95399252334028E-14
 23
105.375
 33
12.1000003814697
 0
3DFACE
 8
STL2DXF
 10
17.5534267425537
 20
105.375
 30
12.1000003814697
 11
1.95399252334028E-14
 21
105.375
 31
11.3000001907349
 12
17.5534267425537
 22
105.375
 32
11.3000001907349
 13
17.5534267425537
 23
105.375
 33
11.3000001907349
 0
3DFACE
 8
STL2DXF
 10
17.5534267425537
 20
105.375
 30
12.1000003814697
 11
22.7250003814697
 21
110.546569824219
 31
11.3000001907349
 12
22.7250003814697
 22
110.546569824219
 32
12.1000003814697
 13
22.7250003814697
 23
110.546569824219
 33
12.1000003814697
 0
3DFACE
 8
STL2DXF
 10
22.7250003814697
 20
110.546569824219
 30
11.3000001907349
 11
17.5534267425537
 21
105.375
 31
12.1000003814697
 12
17.5534267425537
 22
105.375
 32
11.3000001907349
 13
17.5534267425537
 23
105.375
 33
11.3000001907349
 0
3DFACE
 8
STL2DXF
 10
-2
 20
61.375
 30
25.2999992370605
 11
1
 21
61.375
 31
17.2999992370605
 12
1
 22
61.375
 32
25.2999992370605
 13
1
 23
61.375
 33
25.2999992370605
 0
3DFACE
 8
STL2DXF
 10
1
 20
61.375
 30
17.2999992370605
 11
-2
 21
61.375
 31
25.2999992370605
 12
-2
 22
61.375
 32
11.3000001907349
 13
-2
 23
61.375
 33
11.3000001907349
 0
3DFACE
 8
STL2DXF
 10
1
 20
61.375
 30
17.2999992370605
 11
-2
 21
61.375
 31
11.3000001907349
 12
44.4500007629395
 22
61.375
 32
17.2999992370605
 13
44.4500007629395
 23
61.375
 33
17.2999992370605
 0
3DFACE
 8
STL2DXF
 10
44.4500007629395
 20
61.375
 30
17.2999992370605
 11
-2
 21
61.375
 31
11.3000001907349
 12
47.4500007629395
 22
61.375
 32
11.3000001907349
 13
47.4500007629395
 23
61.375
 33
11.3000001907349
 0
3DFACE
 8
STL2DXF
 10
44.4500007629395
 20
61.375
 30
17.2999992370605
 11
47.4500007629395
 21
61.375
 31
25.2999992370605
 12
44.4500007629395
 22
61.375
 32
25.2999992370605
 13
44.4500007629395
 23
61.375
 33
25.2999992370605
 0
3DFACE
 8
STL2DXF
 10
47.4500007629395
 20
61.375
 30
25.2999992370605
 11
44.4500007629395
 21
61.375
 31
17.2999992370605
 12
47.4500007629395
 22
61.375
 32
11.3000001907349
 13
47.4500007629395
 23
61.375
 33
11.3000001907349
 0
3DFACE
 8
STL2DXF
 10
-4
 20
130.375
 30
11.3000001907349
 11
-4
 21
63.375
 31
25.2999992370605
 12
-4
 22
130.375
 32
25.2999992370605
 13
-4
 23
130.375
 33
25.2999992370605
 0
3DFACE
 8
STL2DXF
 10
-4
 20
63.375
 30
25.2999992370605
 11
-4
 21
130.375
 31
11.3000001907349
 12
-4
 22
63.375
 32
11.3000001907349
 13
-4
 23
63.375
 33
11.3000001907349
 0
3DFACE
 8
STL2DXF
 10
47.4500007629395
 20
132.375
 30
11.3000001907349
 11
-2
 21
132.375
 31
25.2999992370605
 12
47.4500007629395
 22
132.375
 32
25.2999992370605
 13
47.4500007629395
 23
132.375
 33
25.2999992370605
 0
3DFACE
 8
STL2DXF
 10
-2
 20
132.375
 30
25.2999992370605
 11
47.4500007629395
 21
132.375
 31
11.3000001907349
 12
-2
 22
132.375
 32
11.3000001907349
 13
-2
 23
132.375
 33
11.3000001907349
 0
3DFACE
 8
STL2DXF
 10
-2
 20
132.375
 30
11.3000001907349
 11
-4
 21
63.375
 31
11.3000001907349
 12
-4
 22
130.375
 32
11.3000001907349
 13
-4
 23
130.375
 33
11.3000001907349
 0
3DFACE
 8
STL2DXF
 10
-4
 20
63.375
 30
11.3000001907349
 11
-2
 21
132.375
 31
11.3000001907349
 12
-2
 22
61.375
 32
11.3000001907349
 13
-2
 23
61.375
 33
11.3000001907349
 0
3DFACE
 8
STL2DXF
 10
-2
 20
61.375
 30
11.3000001907349
 11
-2
 21
132.375
 31
11.3000001907349
 12
1.86517468137026E-14
 22
127.375
 32
11.3000001907349
 13
1.86517468137026E-14
 23
127.375
 33
11.3000001907349
 0
3DFACE
 8
STL2DXF
 10
1.86517468137026E-14
 20
127.375
 30
11.3000001907349
 11
-2
 21
132.375
 31
11.3000001907349
 12
47.4500007629395
 22
132.375
 32
11.3000001907349
 13
47.4500007629395
 23
132.375
 33
11.3000001907349
 0
3DFACE
 8
STL2DXF
 10
1.86517468137026E-14
 20
127.375
 30
11.3000001907349
 11
47.4500007629395
 21
132.375
 31
11.3000001907349
 12
21.7250003814697
 22
127.375
 32
11.3000001907349
 13
21.7250003814697
 23
127.375
 33
11.3000001907349
 0
3DFACE
 8
STL2DXF
 10
21.7250003814697
 20
127.375
 30
11.3000001907349
 11
47.4500007629395
 21
132.375
 31
11.3000001907349
 12
23.7250003814697
 22
127.375
 32
11.3000001907349
 13
23.7250003814697
 23
127.375
 33
11.3000001907349
 0
3DFACE
 8
STL2DXF
 10
21.7250003814697
 20
127.375
 30
11.3000001907349
 11
23.7250003814697
 21
127.375
 31
11.3000001907349
 12
21.7250003814697
 22
112.375
 32
11.3000001907349
 13
21.7250003814697
 23
112.375
 33
11.3000001907349
 0
3DFACE
 8
STL2DXF
 10
21.7250003814697
 20
112.375
 30
11.3000001907349
 11
23.7250003814697
 21
127.375
 31
11.3000001907349
 12
22.7250003814697
 22
110.546569824219
 32
11.3000001907349
 13
22.7250003814697
 23
110.546569824219
 33
11.3000001907349
 0
3DFACE
 8
STL2DXF
 10
23.7250003814697
 20
127.375
 30
11.3000001907349
 11
47.4500007629395
 21
132.375
 31
11.3000001907349
 12
45.4500007629395
 22
127.375
 32
11.3000001907349
 13
45.4500007629395
 23
127.375
 33
11.3000001907349
 0
3DFACE
 8
STL2DXF
 10
45.4500007629395
 20
127.375
 30
11.3000001907349
 11
47.4500007629395
 21
132.375
 31
11.3000001907349
 12
45.4500007629395
 22
107.375
 32
11.3000001907349
 13
45.4500007629395
 23
107.375
 33
11.3000001907349
 0
3DFACE
 8
STL2DXF
 10
45.4500007629395
 20
107.375
 30
11.3000001907349
 11
47.4500007629395
 21
132.375
 31
11.3000001907349
 12
45.4500007629395
 22
105.375
 32
11.3000001907349
 13
45.4500007629395
 23
105.375
 33
11.3000001907349
 0
3DFACE
 8
STL2DXF
 10
45.4500007629395
 20
105.375
 30
11.3000001907349
 11
47.4500007629395
 21
132.375
 31
11.3000001907349
 12
45.4500007629395
 22
104.375
 32
11.3000001907349
 13
45.4500007629395
 23
104.375
 33
11.3000001907349
 0
3DFACE
 8
STL2DXF
 10
45.4500007629395
 20
104.375
 30
11.3000001907349
 11
47.4500007629395
 21
132.375
 31
11.3000001907349
 12
47.4500007629395
 22
61.375
 32
11.3000001907349
 13
47.4500007629395
 23
61.375
 33
11.3000001907349
 0
3DFACE
 8
STL2DXF
 10
47.4500007629395
 20
61.375
 30
11.3000001907349
 11
47.4500007629395
 21
132.375
 31
11.3000001907349
 12
49.4500007629395
 22
63.375
 32
11.3000001907349
 13
49.4500007629395
 23
63.375
 33
11.3000001907349
 0
3DFACE
 8
STL2DXF
 10
49.4500007629395
 20
63.375
 30
11.3000001907349
 11
47.4500007629395
 21
132.375
 31
11.3000001907349
 12
49.4500007629395
 22
130.375
 32
11.3000001907349
 13
49.4500007629395
 23
130.375
 33
11.3000001907349
 0
3DFACE
 8
STL2DXF
 10
-2
 20
61.375
 30
11.3000001907349
 11
1.95399252334028E-14
 21
104.375
 31
11.3000001907349
 12
47.4500007629395
 22
61.375
 32
11.3000001907349
 13
47.4500007629395
 23
61.375
 33
11.3000001907349
 0
3DFACE
 8
STL2DXF
 10
1.95399252334028E-14
 20
104.375
 30
11.3000001907349
 11
-2
 21
61.375
 31
11.3000001907349
 12
1.84297022087776E-14
 22
107.375
 32
11.3000001907349
 13
1.84297022087776E-14
 23
107.375
 33
11.3000001907349
 0
3DFACE
 8
STL2DXF
 10
1.84297022087776E-14
 20
107.375
 30
11.3000001907349
 11
-2
 21
61.375
 31
11.3000001907349
 12
1.86517468137026E-14
 22
127.375
 32
11.3000001907349
 13
1.86517468137026E-14
 23
127.375
 33
11.3000001907349
 0
3DFACE
 8
STL2DXF
 10
1.95399252334028E-14
 20
104.375
 30
11.3000001907349
 11
1.84297022087776E-14
 21
107.375
 31
11.3000001907349
 12
1.95399252334028E-14
 22
105.375
 32
11.3000001907349
 13
1.95399252334028E-14
 23
105.375
 33
11.3000001907349
 0
3DFACE
 8
STL2DXF
 10
47.4500007629395
 20
61.375
 30
11.3000001907349
 11
1.95399252334028E-14
 21
104.375
 31
11.3000001907349
 12
17.9676399230957
 22
104.375
 32
11.3000001907349
 13
17.9676399230957
 23
104.375
 33
11.3000001907349
 0
3DFACE
 8
STL2DXF
 10
47.4500007629395
 20
61.375
 30
11.3000001907349
 11
17.9676399230957
 21
104.375
 31
11.3000001907349
 12
22.7250003814697
 22
109.132362365723
 32
11.3000001907349
 13
22.7250003814697
 23
109.132362365723
 33
11.3000001907349
 0
3DFACE
 8
STL2DXF
 10
47.4500007629395
 20
61.375
 30
11.3000001907349
 11
22.7250003814697
 21
109.132362365723
 31
11.3000001907349
 12
27.4823589324951
 22
104.375
 32
11.3000001907349
 13
27.4823589324951
 23
104.375
 33
11.3000001907349
 0
3DFACE
 8
STL2DXF
 10
47.4500007629395
 20
61.375
 30
11.3000001907349
 11
27.4823589324951
 21
104.375
 31
11.3000001907349
 12
45.4500007629395
 22
104.375
 32
11.3000001907349
 13
45.4500007629395
 23
104.375
 33
11.3000001907349
 0
3DFACE
 8
STL2DXF
 10
22.7250003814697
 20
110.546569824219
 30
11.3000001907349
 11
23.7250003814697
 21
112.375
 31
11.3000001907349
 12
27.8965721130371
 22
105.375
 32
11.3000001907349
 13
27.8965721130371
 23
105.375
 33
11.3000001907349
 0
3DFACE
 8
STL2DXF
 10
23.7250003814697
 20
112.375
 30
11.3000001907349
 11
22.7250003814697
 21
110.546569824219
 31
11.3000001907349
 12
23.7250003814697
 22
127.375
 32
11.3000001907349
 13
23.7250003814697
 23
127.375
 33
11.3000001907349
 0
3DFACE
 8
STL2DXF
 10
27.8965721130371
 20
105.375
 30
11.3000001907349
 11
23.7250003814697
 21
112.375
 31
11.3000001907349
 12
28.7250003814697
 22
107.375
 32
11.3000001907349
 13
28.7250003814697
 23
107.375
 33
11.3000001907349
 0
3DFACE
 8
STL2DXF
 10
27.8965721130371
 20
105.375
 30
11.3000001907349
 11
28.7250003814697
 21
107.375
 31
11.3000001907349
 12
45.4500007629395
 22
105.375
 32
11.3000001907349
 13
45.4500007629395
 23
105.375
 33
11.3000001907349
 0
3DFACE
 8
STL2DXF
 10
45.4500007629395
 20
105.375
 30
11.3000001907349
 11
28.7250003814697
 21
107.375
 31
11.3000001907349
 12
45.4500007629395
 22
107.375
 32
11.3000001907349
 13
45.4500007629395
 23
107.375
 33
11.3000001907349
 0
3DFACE
 8
STL2DXF
 10
16.7250003814697
 20
107.375
 30
11.3000001907349
 11
1.95399252334028E-14
 21
105.375
 31
11.3000001907349
 12
1.84297022087776E-14
 22
107.375
 32
11.3000001907349
 13
1.84297022087776E-14
 23
107.375
 33
11.3000001907349
 0
3DFACE
 8
STL2DXF
 10
1.95399252334028E-14
 20
105.375
 30
11.3000001907349
 11
16.7250003814697
 21
107.375
 31
11.3000001907349
 12
17.5534267425537
 22
105.375
 32
11.3000001907349
 13
17.5534267425537
 23
105.375
 33
11.3000001907349
 0
3DFACE
 8
STL2DXF
 10
17.5534267425537
 20
105.375
 30
11.3000001907349
 11
16.7250003814697
 21
107.375
 31
11.3000001907349
 12
21.7250003814697
 22
112.375
 32
11.3000001907349
 13
21.7250003814697
 23
112.375
 33
11.3000001907349
 0
3DFACE
 8
STL2DXF
 10
17.5534267425537
 20
105.375
 30
11.3000001907349
 11
21.7250003814697
 21
112.375
 31
11.3000001907349
 12
22.7250003814697
 22
110.546569824219
 32
11.3000001907349
 13
22.7250003814697
 23
110.546569824219
 33
11.3000001907349
 0
3DFACE
 8
STL2DXF
 10
49.4500007629395
 20
63.375
 30
25.2999992370605
 11
49.4500007629395
 21
130.375
 31
11.3000001907349
 12
49.4500007629395
 22
130.375
 32
25.2999992370605
 13
49.4500007629395
 23
130.375
 33
25.2999992370605
 0
3DFACE
 8
STL2DXF
 10
49.4500007629395
 20
130.375
 30
11.3000001907349
 11
49.4500007629395
 21
63.375
 31
25.2999992370605
 12
49.4500007629395
 22
63.375
 32
11.3000001907349
 13
49.4500007629395
 23
63.375
 33
11.3000001907349
 0
3DFACE
 8
STL2DXF
 10
47.4500007629395
 20
61.375
 30
25.2999992370605
 11
49.4500007629395
 21
63.375
 31
11.3000001907349
 12
49.4500007629395
 22
63.375
 32
25.2999992370605
 13
49.4500007629395
 23
63.375
 33
25.2999992370605
 0
3DFACE
 8
STL2DXF
 10
49.4500007629395
 20
63.375
 30
11.3000001907349
 11
47.4500007629395
 21
61.375
 31
25.2999992370605
 12
47.4500007629395
 22
61.375
 32
11.3000001907349
 13
47.4500007629395
 23
61.375
 33
11.3000001907349
 0
3DFACE
 8
STL2DXF
 10
-4
 20
63.375
 30
11.3000001907349
 11
-2
 21
61.375
 31
25.2999992370605
 12
-4
 22
63.375
 32
25.2999992370605
 13
-4
 23
63.375
 33
25.2999992370605
 0
3DFACE
 8
STL2DXF
 10
-2
 20
61.375
 30
25.2999992370605
 11
-4
 21
63.375
 31
11.3000001907349
 12
-2
 22
61.375
 32
11.3000001907349
 13
-2
 23
61.375
 33
11.3000001907349
 0
3DFACE
 8
STL2DXF
 10
49.4500007629395
 20
130.375
 30
11.3000001907349
 11
47.4500007629395
 21
132.375
 31
25.2999992370605
 12
49.4500007629395
 22
130.375
 32
25.2999992370605
 13
49.4500007629395
 23
130.375
 33
25.2999992370605
 0
3DFACE
 8
STL2DXF
 10
47.4500007629395
 20
132.375
 30
25.2999992370605
 11
49.4500007629395
 21
130.375
 31
11.3000001907349
 12
47.4500007629395
 22
132.375
 32
11.3000001907349
 13
47.4500007629395
 23
132.375
 33
11.3000001907349
 0
3DFACE
 8
STL2DXF
 10
-2
 20
132.375
 30
25.2999992370605
 11
-4
 21
130.375
 31
11.3000001907349
 12
-4
 22
130.375
 32
25.2999992370605
 13
-4
 23
130.375
 33
25.2999992370605
 0
3DFACE
 8
STL2DXF
 10
-4
 20
130.375
 30
11.3000001907349
 11
-2
 21
132.375
 31
25.2999992370605
 12
-2
 22
132.375
 32
11.3000001907349
 13
-2
 23
132.375
 33
11.3000001907349
 0
3DFACE
 8
STL2DXF
 10
-2
 20
130.375
 30
17.2999992370605
 11
47.4500007629395
 21
130.375
 31
25.2999992370605
 12
-2
 22
130.375
 32
25.2999992370605
 13
-2
 23
130.375
 33
25.2999992370605
 0
3DFACE
 8
STL2DXF
 10
47.4500007629395
 20
130.375
 30
25.2999992370605
 11
-2
 21
130.375
 31
17.2999992370605
 12
47.4500007629395
 22
130.375
 32
17.2999992370605
 13
47.4500007629395
 23
130.375
 33
17.2999992370605
 0
3DFACE
 8
STL2DXF
 10
47.4500007629395
 20
63.375
 30
17.2999992370605
 11
47.4500007629395
 21
130.375
 31
25.2999992370605
 12
47.4500007629395
 22
130.375
 32
17.2999992370605
 13
47.4500007629395
 23
130.375
 33
17.2999992370605
 0
3DFACE
 8
STL2DXF
 10
47.4500007629395
 20
130.375
 30
25.2999992370605
 11
47.4500007629395
 21
63.375
 31
17.2999992370605
 12
47.4500007629395
 22
63.375
 32
25.2999992370605
 13
47.4500007629395
 23
63.375
 33
25.2999992370605
 0
3DFACE
 8
STL2DXF
 10
47.4500007629395
 20
63.375
 30
25.2999992370605
 11
44.4500007629395
 21
63.375
 31
17.2999992370605
 12
44.4500007629395
 22
63.375
 32
25.2999992370605
 13
44.4500007629395
 23
63.375
 33
25.2999992370605
 0
3DFACE
 8
STL2DXF
 10
44.4500007629395
 20
63.375
 30
17.2999992370605
 11
47.4500007629395
 21
63.375
 31
25.2999992370605
 12
47.4500007629395
 22
63.375
 32
17.2999992370605
 13
47.4500007629395
 23
63.375
 33
17.2999992370605
 0
3DFACE
 8
STL2DXF
 10
-2
 20
63.375
 30
25.2999992370605
 11
-2
 21
130.375
 31
17.2999992370605
 12
-2
 22
130.375
 32
25.2999992370605
 13
-2
 23
130.375
 33
25.2999992370605
 0
3DFACE
 8
STL2DXF
 10
-2
 20
130.375
 30
17.2999992370605
 11
-2
 21
63.375
 31
25.2999992370605
 12
-2
 22
63.375
 32
17.2999992370605
 13
-2
 23
63.375
 33
17.2999992370605
 0
3DFACE
 8
STL2DXF
 10
-2
 20
61.375
 30
25.2999992370605
 11
-2
 21
130.375
 31
25.2999992370605
 12
-4
 22
63.375
 32
25.2999992370605
 13
-4
 23
63.375
 33
25.2999992370605
 0
3DFACE
 8
STL2DXF
 10
-2
 20
130.375
 30
25.2999992370605
 11
-2
 21
61.375
 31
25.2999992370605
 12
-2
 22
63.375
 32
25.2999992370605
 13
-2
 23
63.375
 33
25.2999992370605
 0
3DFACE
 8
STL2DXF
 10
-2
 20
63.375
 30
25.2999992370605
 11
-2
 21
61.375
 31
25.2999992370605
 12
1
 22
61.375
 32
25.2999992370605
 13
1
 23
61.375
 33
25.2999992370605
 0
3DFACE
 8
STL2DXF
 10
-2
 20
63.375
 30
25.2999992370605
 11
1
 21
61.375
 31
25.2999992370605
 12
1
 22
63.375
 32
25.2999992370605
 13
1
 23
63.375
 33
25.2999992370605
 0
3DFACE
 8
STL2DXF
 10
47.4500007629395
 20
61.375
 30
25.2999992370605
 11
44.4500007629395
 21
63.375
 31
25.2999992370605
 12
44.4500007629395
 22
61.375
 32
25.2999992370605
 13
44.4500007629395
 23
61.375
 33
25.2999992370605
 0
3DFACE
 8
STL2DXF
 10
44.4500007629395
 20
63.375
 30
25.2999992370605
 11
47.4500007629395
 21
61.375
 31
25.2999992370605
 12
47.4500007629395
 22
63.375
 32
25.2999992370605
 13
47.4500007629395
 23
63.375
 33
25.2999992370605
 0
3DFACE
 8
STL2DXF
 10
47.4500007629395
 20
63.375
 30
25.2999992370605
 11
47.4500007629395
 21
61.375
 31
25.2999992370605
 12
49.4500007629395
 22
63.375
 32
25.2999992370605
 13
49.4500007629395
 23
63.375
 33
25.2999992370605
 0
3DFACE
 8
STL2DXF
 10
47.4500007629395
 20
63.375
 30
25.2999992370605
 11
49.4500007629395
 21
63.375
 31
25.2999992370605
 12
47.4500007629395
 22
130.375
 32
25.2999992370605
 13
47.4500007629395
 23
130.375
 33
25.2999992370605
 0
3DFACE
 8
STL2DXF
 10
47.4500007629395
 20
130.375
 30
25.2999992370605
 11
49.4500007629395
 21
63.375
 31
25.2999992370605
 12
47.4500007629395
 22
132.375
 32
25.2999992370605
 13
47.4500007629395
 23
132.375
 33
25.2999992370605
 0
3DFACE
 8
STL2DXF
 10
47.4500007629395
 20
132.375
 30
25.2999992370605
 11
49.4500007629395
 21
63.375
 31
25.2999992370605
 12
49.4500007629395
 22
130.375
 32
25.2999992370605
 13
49.4500007629395
 23
130.375
 33
25.2999992370605
 0
3DFACE
 8
STL2DXF
 10
-4
 20
63.375
 30
25.2999992370605
 11
-2
 21
132.375
 31
25.2999992370605
 12
-4
 22
130.375
 32
25.2999992370605
 13
-4
 23
130.375
 33
25.2999992370605
 0
3DFACE
 8
STL2DXF
 10
-2
 20
132.375
 30
25.2999992370605
 11
-4
 21
63.375
 31
25.2999992370605
 12
-2
 22
130.375
 32
25.2999992370605
 13
-2
 23
130.375
 33
25.2999992370605
 0
3DFACE
 8
STL2DXF
 10
-2
 20
132.375
 30
25.2999992370605
 11
-2
 21
130.375
 31
25.2999992370605
 12
47.4500007629395
 22
130.375
 32
25.2999992370605
 13
47.4500007629395
 23
130.375
 33
25.2999992370605
 0
3DFACE
 8
STL2DXF
 10
-2
 20
132.375
 30
25.2999992370605
 11
47.4500007629395
 21
130.375
 31
25.2999992370605
 12
47.4500007629395
 22
132.375
 32
25.2999992370605
 13
47.4500007629395
 23
132.375
 33
25.2999992370605
 0
3DFACE
 8
STL2DXF
 10
1
 20
63.375
 30
25.2999992370605
 11
1
 21
61.375
 31
17.2999992370605
 12
1
 22
63.375
 32
17.2999992370605
 13
1
 23
63.375
 33
17.2999992370605
 0
3DFACE
 8
STL2DXF
 10
1
 20
61.375
 30
17.2999992370605
 11
1
 21
63.375
 31
25.2999992370605
 12
1
 22
61.375
 32
25.2999992370605
 13
1
 23
61.375
 33
25.2999992370605
 0
3DFACE
 8
STL2DXF
 10
44.4500007629395
 20
61.375
 30
17.2999992370605
 11
44.4500007629395
 21
63.375
 31
25.2999992370605
 12
44.4500007629395
 22
63.375
 32
17.2999992370605
 13
44.4500007629395
 23
63.375
 33
17.2999992370605
 0
3DFACE
 8
STL2DXF
 10
44.4500007629395
 20
63.375
 30
25.2999992370605
 11
44.4500007629395
 21
61.375
 31
17.2999992370605
 12
44.4500007629395
 22
61.375
 32
25.2999992370605
 13
44.4500007629395
 23
61.375
 33
25.2999992370605
 0
3DFACE
 8
STL2DXF
 10
1
 20
63.375
 30
25.2999992370605
 11
-2
 21
63.375
 31
17.2999992370605
 12
-2
 22
63.375
 32
25.2999992370605
 13
-2
 23
63.375
 33
25.2999992370605
 0
3DFACE
 8
STL2DXF
 10
-2
 20
63.375
 30
17.2999992370605
 11
1
 21
63.375
 31
25.2999992370605
 12
1
 22
63.375
 32
17.2999992370605
 13
1
 23
63.375
 33
17.2999992370605
 0
ENDSEC
 0
EOF
