 999
Conversion of STL file (binary) from www.cadforum.cz; drag the file into AutoCAD or load it with _DXFIN
 0
SECTION
 2
ENTITIES
 0
3DFACE
 8
STL2DXF
 10
17.6889801025391
 20
121.893753051758
 30
14.3000001907349
 11
17.6889801025391
 21
120.856246948242
 31
14.3000001907349
 12
17.6206855773926
 22
121.375
 32
14.3000001907349
 13
17.6206855773926
 23
121.375
 33
14.3000001907349
 0
3DFACE
 8
STL2DXF
 10
17.6889801025391
 20
120.856246948242
 30
14.3000001907349
 11
17.6889801025391
 21
121.893753051758
 31
14.3000001907349
 12
17.8892135620117
 22
122.377159118652
 32
14.3000001907349
 13
17.8892135620117
 23
122.377159118652
 33
14.3000001907349
 0
3DFACE
 8
STL2DXF
 10
17.6889801025391
 20
120.856246948242
 30
14.3000001907349
 11
17.8892135620117
 21
122.377159118652
 31
14.3000001907349
 12
17.8892135620117
 22
120.372840881348
 32
14.3000001907349
 13
17.8892135620117
 23
120.372840881348
 33
14.3000001907349
 0
3DFACE
 8
STL2DXF
 10
17.8892135620117
 20
120.372840881348
 30
14.3000001907349
 11
17.8892135620117
 21
122.377159118652
 31
14.3000001907349
 12
18.2077350616455
 22
122.792266845703
 32
14.3000001907349
 13
18.2077350616455
 23
122.792266845703
 33
14.3000001907349
 0
3DFACE
 8
STL2DXF
 10
17.8892135620117
 20
120.372840881348
 30
14.3000001907349
 11
18.2077350616455
 21
122.792266845703
 31
14.3000001907349
 12
18.2077350616455
 22
119.957733154297
 32
14.3000001907349
 13
18.2077350616455
 23
119.957733154297
 33
14.3000001907349
 0
3DFACE
 8
STL2DXF
 10
18.2077350616455
 20
119.957733154297
 30
14.3000001907349
 11
18.2077350616455
 21
122.792266845703
 31
14.3000001907349
 12
18.6228427886963
 22
123.110786437988
 32
14.3000001907349
 13
18.6228427886963
 23
123.110786437988
 33
14.3000001907349
 0
3DFACE
 8
STL2DXF
 10
18.2077350616455
 20
119.957733154297
 30
14.3000001907349
 11
18.6228427886963
 21
123.110786437988
 31
14.3000001907349
 12
18.6228427886963
 22
119.639213562012
 32
14.3000001907349
 13
18.6228427886963
 23
119.639213562012
 33
14.3000001907349
 0
3DFACE
 8
STL2DXF
 10
18.6228427886963
 20
119.639213562012
 30
14.3000001907349
 11
18.6228427886963
 21
123.110786437988
 31
14.3000001907349
 12
19.1062450408936
 22
123.311019897461
 32
14.3000001907349
 13
19.1062450408936
 23
123.311019897461
 33
14.3000001907349
 0
3DFACE
 8
STL2DXF
 10
18.6228427886963
 20
119.639213562012
 30
14.3000001907349
 11
19.1062450408936
 21
123.311019897461
 31
14.3000001907349
 12
19.1062450408936
 22
119.438980102539
 32
14.3000001907349
 13
19.1062450408936
 23
119.438980102539
 33
14.3000001907349
 0
3DFACE
 8
STL2DXF
 10
19.1062450408936
 20
119.438980102539
 30
14.3000001907349
 11
19.1062450408936
 21
123.311019897461
 31
14.3000001907349
 12
19.625
 22
123.379318237305
 32
14.3000001907349
 13
19.625
 23
123.379318237305
 33
14.3000001907349
 0
3DFACE
 8
STL2DXF
 10
19.1062450408936
 20
119.438980102539
 30
14.3000001907349
 11
19.625
 21
123.379318237305
 31
14.3000001907349
 12
19.625
 22
119.370681762695
 32
14.3000001907349
 13
19.625
 23
119.370681762695
 33
14.3000001907349
 0
3DFACE
 8
STL2DXF
 10
19.625
 20
119.370681762695
 30
14.3000001907349
 11
19.625
 21
123.379318237305
 31
14.3000001907349
 12
23.7250003814697
 22
123.375
 32
14.3000001907349
 13
23.7250003814697
 23
123.375
 33
14.3000001907349
 0
3DFACE
 8
STL2DXF
 10
19.625
 20
119.370681762695
 30
14.3000001907349
 11
23.7250003814697
 21
123.375
 31
14.3000001907349
 12
23.7250003814697
 22
119.370681762695
 32
14.3000001907349
 13
23.7250003814697
 23
119.370681762695
 33
14.3000001907349
 0
3DFACE
 8
STL2DXF
 10
7.68898105621338
 20
120.856246948242
 30
17.2999992370605
 11
7.68898105621338
 21
121.893753051758
 31
17.2999992370605
 12
7.62068557739258
 22
121.375
 32
17.2999992370605
 13
7.62068557739258
 23
121.375
 33
17.2999992370605
 0
3DFACE
 8
STL2DXF
 10
7.68898105621338
 20
121.893753051758
 30
17.2999992370605
 11
7.68898105621338
 21
120.856246948242
 31
17.2999992370605
 12
7.8892126083374
 22
120.372840881348
 32
17.2999992370605
 13
7.8892126083374
 23
120.372840881348
 33
17.2999992370605
 0
3DFACE
 8
STL2DXF
 10
7.68898105621338
 20
121.893753051758
 30
17.2999992370605
 11
7.8892126083374
 21
120.372840881348
 31
17.2999992370605
 12
7.8892126083374
 22
122.377159118652
 32
17.2999992370605
 13
7.8892126083374
 23
122.377159118652
 33
17.2999992370605
 0
3DFACE
 8
STL2DXF
 10
7.8892126083374
 20
122.377159118652
 30
17.2999992370605
 11
7.8892126083374
 21
120.372840881348
 31
17.2999992370605
 12
8.20773601531982
 22
119.957733154297
 32
17.2999992370605
 13
8.20773601531982
 23
119.957733154297
 33
17.2999992370605
 0
3DFACE
 8
STL2DXF
 10
7.8892126083374
 20
122.377159118652
 30
17.2999992370605
 11
8.20773601531982
 21
119.957733154297
 31
17.2999992370605
 12
8.20773601531982
 22
122.792266845703
 32
17.2999992370605
 13
8.20773601531982
 23
122.792266845703
 33
17.2999992370605
 0
3DFACE
 8
STL2DXF
 10
8.20773601531982
 20
122.792266845703
 30
17.2999992370605
 11
8.20773601531982
 21
119.957733154297
 31
17.2999992370605
 12
8.62284278869629
 22
119.639213562012
 32
17.2999992370605
 13
8.62284278869629
 23
119.639213562012
 33
17.2999992370605
 0
3DFACE
 8
STL2DXF
 10
8.20773601531982
 20
122.792266845703
 30
17.2999992370605
 11
8.62284278869629
 21
119.639213562012
 31
17.2999992370605
 12
8.62284278869629
 22
123.110786437988
 32
17.2999992370605
 13
8.62284278869629
 23
123.110786437988
 33
17.2999992370605
 0
3DFACE
 8
STL2DXF
 10
8.62284278869629
 20
123.110786437988
 30
17.2999992370605
 11
8.62284278869629
 21
119.639213562012
 31
17.2999992370605
 12
9.10624504089355
 22
119.438980102539
 32
17.2999992370605
 13
9.10624504089355
 23
119.438980102539
 33
17.2999992370605
 0
3DFACE
 8
STL2DXF
 10
8.62284278869629
 20
123.110786437988
 30
17.2999992370605
 11
9.10624504089355
 21
119.438980102539
 31
17.2999992370605
 12
9.10624504089355
 22
123.311019897461
 32
17.2999992370605
 13
9.10624504089355
 23
123.311019897461
 33
17.2999992370605
 0
3DFACE
 8
STL2DXF
 10
9.10624504089355
 20
123.311019897461
 30
17.2999992370605
 11
9.10624504089355
 21
119.438980102539
 31
17.2999992370605
 12
9.625
 22
119.370681762695
 32
17.2999992370605
 13
9.625
 23
119.370681762695
 33
17.2999992370605
 0
3DFACE
 8
STL2DXF
 10
9.10624504089355
 20
123.311019897461
 30
17.2999992370605
 11
9.625
 21
119.370681762695
 31
17.2999992370605
 12
9.625
 22
123.379318237305
 32
17.2999992370605
 13
9.625
 23
123.379318237305
 33
17.2999992370605
 0
3DFACE
 8
STL2DXF
 10
9.625
 20
123.379318237305
 30
17.2999992370605
 11
9.625
 21
119.370681762695
 31
17.2999992370605
 12
10.1437549591064
 22
119.438980102539
 32
17.2999992370605
 13
10.1437549591064
 23
119.438980102539
 33
17.2999992370605
 0
3DFACE
 8
STL2DXF
 10
9.625
 20
123.379318237305
 30
17.2999992370605
 11
10.1437549591064
 21
119.438980102539
 31
17.2999992370605
 12
10.1437549591064
 22
123.311019897461
 32
17.2999992370605
 13
10.1437549591064
 23
123.311019897461
 33
17.2999992370605
 0
3DFACE
 8
STL2DXF
 10
10.1437549591064
 20
123.311019897461
 30
17.2999992370605
 11
10.1437549591064
 21
119.438980102539
 31
17.2999992370605
 12
10.6271572113037
 22
123.110786437988
 32
17.2999992370605
 13
10.6271572113037
 23
123.110786437988
 33
17.2999992370605
 0
3DFACE
 8
STL2DXF
 10
10.6271572113037
 20
123.110786437988
 30
17.2999992370605
 11
10.1437549591064
 21
119.438980102539
 31
17.2999992370605
 12
10.6271572113037
 22
119.639213562012
 32
17.2999992370605
 13
10.6271572113037
 23
119.639213562012
 33
17.2999992370605
 0
3DFACE
 8
STL2DXF
 10
10.6271572113037
 20
123.110786437988
 30
17.2999992370605
 11
10.6271572113037
 21
119.639213562012
 31
17.2999992370605
 12
11.0422639846802
 22
122.792266845703
 32
17.2999992370605
 13
11.0422639846802
 23
122.792266845703
 33
17.2999992370605
 0
3DFACE
 8
STL2DXF
 10
11.0422639846802
 20
122.792266845703
 30
17.2999992370605
 11
10.6271572113037
 21
119.639213562012
 31
17.2999992370605
 12
11.0422639846802
 22
119.957733154297
 32
17.2999992370605
 13
11.0422639846802
 23
119.957733154297
 33
17.2999992370605
 0
3DFACE
 8
STL2DXF
 10
11.0422639846802
 20
122.792266845703
 30
17.2999992370605
 11
11.0422639846802
 21
119.957733154297
 31
17.2999992370605
 12
11.3607873916626
 22
122.377159118652
 32
17.2999992370605
 13
11.3607873916626
 23
122.377159118652
 33
17.2999992370605
 0
3DFACE
 8
STL2DXF
 10
11.3607873916626
 20
122.377159118652
 30
17.2999992370605
 11
11.0422639846802
 21
119.957733154297
 31
17.2999992370605
 12
11.3607873916626
 22
120.372840881348
 32
17.2999992370605
 13
11.3607873916626
 23
120.372840881348
 33
17.2999992370605
 0
3DFACE
 8
STL2DXF
 10
11.3607873916626
 20
122.377159118652
 30
17.2999992370605
 11
11.3607873916626
 21
120.372840881348
 31
17.2999992370605
 12
11.5610189437866
 22
121.893753051758
 32
17.2999992370605
 13
11.5610189437866
 23
121.893753051758
 33
17.2999992370605
 0
3DFACE
 8
STL2DXF
 10
11.5610189437866
 20
121.893753051758
 30
17.2999992370605
 11
11.3607873916626
 21
120.372840881348
 31
17.2999992370605
 12
11.5610189437866
 22
120.856246948242
 32
17.2999992370605
 13
11.5610189437866
 23
120.856246948242
 33
17.2999992370605
 0
3DFACE
 8
STL2DXF
 10
11.5610189437866
 20
121.893753051758
 30
17.2999992370605
 11
11.5610189437866
 21
120.856246948242
 31
17.2999992370605
 12
11.6293144226074
 22
121.375
 32
17.2999992370605
 13
11.6293144226074
 23
121.375
 33
17.2999992370605
 0
3DFACE
 8
STL2DXF
 10
9.625
 20
119.370681762695
 30
17.2999992370605
 11
10.1437549591064
 21
119.438980102539
 31
12.1000003814697
 12
10.1437549591064
 22
119.438980102539
 32
17.2999992370605
 13
10.1437549591064
 23
119.438980102539
 33
17.2999992370605
 0
3DFACE
 8
STL2DXF
 10
10.1437549591064
 20
119.438980102539
 30
12.1000003814697
 11
9.625
 21
119.370681762695
 31
17.2999992370605
 12
9.625
 22
119.370681762695
 32
12.1000003814697
 13
9.625
 23
119.370681762695
 33
12.1000003814697
 0
3DFACE
 8
STL2DXF
 10
9.10624504089355
 20
119.438980102539
 30
12.1000003814697
 11
9.625
 21
119.370681762695
 31
17.2999992370605
 12
9.10624504089355
 22
119.438980102539
 32
17.2999992370605
 13
9.10624504089355
 23
119.438980102539
 33
17.2999992370605
 0
3DFACE
 8
STL2DXF
 10
9.625
 20
119.370681762695
 30
17.2999992370605
 11
9.10624504089355
 21
119.438980102539
 31
12.1000003814697
 12
9.625
 22
119.370681762695
 32
12.1000003814697
 13
9.625
 23
119.370681762695
 33
12.1000003814697
 0
3DFACE
 8
STL2DXF
 10
8.62284278869629
 20
119.639213562012
 30
12.1000003814697
 11
9.10624504089355
 21
119.438980102539
 31
17.2999992370605
 12
8.62284278869629
 22
119.639213562012
 32
17.2999992370605
 13
8.62284278869629
 23
119.639213562012
 33
17.2999992370605
 0
3DFACE
 8
STL2DXF
 10
9.10624504089355
 20
119.438980102539
 30
17.2999992370605
 11
8.62284278869629
 21
119.639213562012
 31
12.1000003814697
 12
9.10624504089355
 22
119.438980102539
 32
12.1000003814697
 13
9.10624504089355
 23
119.438980102539
 33
12.1000003814697
 0
3DFACE
 8
STL2DXF
 10
8.20773601531982
 20
119.957733154297
 30
17.2999992370605
 11
8.62284278869629
 21
119.639213562012
 31
12.1000003814697
 12
8.62284278869629
 22
119.639213562012
 32
17.2999992370605
 13
8.62284278869629
 23
119.639213562012
 33
17.2999992370605
 0
3DFACE
 8
STL2DXF
 10
8.62284278869629
 20
119.639213562012
 30
12.1000003814697
 11
8.20773601531982
 21
119.957733154297
 31
17.2999992370605
 12
8.20773601531982
 22
119.957733154297
 32
12.1000003814697
 13
8.20773601531982
 23
119.957733154297
 33
12.1000003814697
 0
3DFACE
 8
STL2DXF
 10
8.20773601531982
 20
119.957733154297
 30
12.1000003814697
 11
7.8892126083374
 21
120.372840881348
 31
17.2999992370605
 12
7.8892126083374
 22
120.372840881348
 32
12.1000003814697
 13
7.8892126083374
 23
120.372840881348
 33
12.1000003814697
 0
3DFACE
 8
STL2DXF
 10
7.8892126083374
 20
120.372840881348
 30
17.2999992370605
 11
8.20773601531982
 21
119.957733154297
 31
12.1000003814697
 12
8.20773601531982
 22
119.957733154297
 32
17.2999992370605
 13
8.20773601531982
 23
119.957733154297
 33
17.2999992370605
 0
3DFACE
 8
STL2DXF
 10
7.68898105621338
 20
120.856246948242
 30
12.1000003814697
 11
7.8892126083374
 21
120.372840881348
 31
17.2999992370605
 12
7.68898105621338
 22
120.856246948242
 32
17.2999992370605
 13
7.68898105621338
 23
120.856246948242
 33
17.2999992370605
 0
3DFACE
 8
STL2DXF
 10
7.8892126083374
 20
120.372840881348
 30
17.2999992370605
 11
7.68898105621338
 21
120.856246948242
 31
12.1000003814697
 12
7.8892126083374
 22
120.372840881348
 32
12.1000003814697
 13
7.8892126083374
 23
120.372840881348
 33
12.1000003814697
 0
3DFACE
 8
STL2DXF
 10
7.68898105621338
 20
120.856246948242
 30
12.1000003814697
 11
7.62068557739258
 21
121.375
 31
17.2999992370605
 12
7.62068557739258
 22
121.375
 32
12.1000003814697
 13
7.62068557739258
 23
121.375
 33
12.1000003814697
 0
3DFACE
 8
STL2DXF
 10
7.62068557739258
 20
121.375
 30
17.2999992370605
 11
7.68898105621338
 21
120.856246948242
 31
12.1000003814697
 12
7.68898105621338
 22
120.856246948242
 32
17.2999992370605
 13
7.68898105621338
 23
120.856246948242
 33
17.2999992370605
 0
3DFACE
 8
STL2DXF
 10
7.62068557739258
 20
121.375
 30
12.1000003814697
 11
7.68898105621338
 21
121.893753051758
 31
17.2999992370605
 12
7.68898105621338
 22
121.893753051758
 32
12.1000003814697
 13
7.68898105621338
 23
121.893753051758
 33
12.1000003814697
 0
3DFACE
 8
STL2DXF
 10
7.68898105621338
 20
121.893753051758
 30
17.2999992370605
 11
7.62068557739258
 21
121.375
 31
12.1000003814697
 12
7.62068557739258
 22
121.375
 32
17.2999992370605
 13
7.62068557739258
 23
121.375
 33
17.2999992370605
 0
3DFACE
 8
STL2DXF
 10
7.68898105621338
 20
121.893753051758
 30
12.1000003814697
 11
7.8892126083374
 21
122.377159118652
 31
17.2999992370605
 12
7.8892126083374
 22
122.377159118652
 32
12.1000003814697
 13
7.8892126083374
 23
122.377159118652
 33
12.1000003814697
 0
3DFACE
 8
STL2DXF
 10
7.8892126083374
 20
122.377159118652
 30
17.2999992370605
 11
7.68898105621338
 21
121.893753051758
 31
12.1000003814697
 12
7.68898105621338
 22
121.893753051758
 32
17.2999992370605
 13
7.68898105621338
 23
121.893753051758
 33
17.2999992370605
 0
3DFACE
 8
STL2DXF
 10
7.8892126083374
 20
122.377159118652
 30
12.1000003814697
 11
8.20773601531982
 21
122.792266845703
 31
17.2999992370605
 12
8.20773601531982
 22
122.792266845703
 32
12.1000003814697
 13
8.20773601531982
 23
122.792266845703
 33
12.1000003814697
 0
3DFACE
 8
STL2DXF
 10
8.20773601531982
 20
122.792266845703
 30
17.2999992370605
 11
7.8892126083374
 21
122.377159118652
 31
12.1000003814697
 12
7.8892126083374
 22
122.377159118652
 32
17.2999992370605
 13
7.8892126083374
 23
122.377159118652
 33
17.2999992370605
 0
3DFACE
 8
STL2DXF
 10
8.62284278869629
 20
123.110786437988
 30
12.1000003814697
 11
8.20773601531982
 21
122.792266845703
 31
17.2999992370605
 12
8.62284278869629
 22
123.110786437988
 32
17.2999992370605
 13
8.62284278869629
 23
123.110786437988
 33
17.2999992370605
 0
3DFACE
 8
STL2DXF
 10
8.20773601531982
 20
122.792266845703
 30
17.2999992370605
 11
8.62284278869629
 21
123.110786437988
 31
12.1000003814697
 12
8.20773601531982
 22
122.792266845703
 32
12.1000003814697
 13
8.20773601531982
 23
122.792266845703
 33
12.1000003814697
 0
3DFACE
 8
STL2DXF
 10
9.10624504089355
 20
123.311019897461
 30
17.2999992370605
 11
8.62284278869629
 21
123.110786437988
 31
12.1000003814697
 12
8.62284278869629
 22
123.110786437988
 32
17.2999992370605
 13
8.62284278869629
 23
123.110786437988
 33
17.2999992370605
 0
3DFACE
 8
STL2DXF
 10
8.62284278869629
 20
123.110786437988
 30
12.1000003814697
 11
9.10624504089355
 21
123.311019897461
 31
17.2999992370605
 12
9.10624504089355
 22
123.311019897461
 32
12.1000003814697
 13
9.10624504089355
 23
123.311019897461
 33
12.1000003814697
 0
3DFACE
 8
STL2DXF
 10
9.625
 20
123.379318237305
 30
12.1000003814697
 11
9.10624504089355
 21
123.311019897461
 31
17.2999992370605
 12
9.625
 22
123.379318237305
 32
17.2999992370605
 13
9.625
 23
123.379318237305
 33
17.2999992370605
 0
3DFACE
 8
STL2DXF
 10
9.10624504089355
 20
123.311019897461
 30
17.2999992370605
 11
9.625
 21
123.379318237305
 31
12.1000003814697
 12
9.10624504089355
 22
123.311019897461
 32
12.1000003814697
 13
9.10624504089355
 23
123.311019897461
 33
12.1000003814697
 0
3DFACE
 8
STL2DXF
 10
10.1437549591064
 20
123.311019897461
 30
12.1000003814697
 11
9.625
 21
123.379318237305
 31
17.2999992370605
 12
10.1437549591064
 22
123.311019897461
 32
17.2999992370605
 13
10.1437549591064
 23
123.311019897461
 33
17.2999992370605
 0
3DFACE
 8
STL2DXF
 10
9.625
 20
123.379318237305
 30
17.2999992370605
 11
10.1437549591064
 21
123.311019897461
 31
12.1000003814697
 12
9.625
 22
123.379318237305
 32
12.1000003814697
 13
9.625
 23
123.379318237305
 33
12.1000003814697
 0
3DFACE
 8
STL2DXF
 10
10.6271572113037
 20
123.110786437988
 30
12.1000003814697
 11
10.1437549591064
 21
123.311019897461
 31
17.2999992370605
 12
10.6271572113037
 22
123.110786437988
 32
17.2999992370605
 13
10.6271572113037
 23
123.110786437988
 33
17.2999992370605
 0
3DFACE
 8
STL2DXF
 10
10.1437549591064
 20
123.311019897461
 30
17.2999992370605
 11
10.6271572113037
 21
123.110786437988
 31
12.1000003814697
 12
10.1437549591064
 22
123.311019897461
 32
12.1000003814697
 13
10.1437549591064
 23
123.311019897461
 33
12.1000003814697
 0
3DFACE
 8
STL2DXF
 10
11.0422639846802
 20
122.792266845703
 30
12.1000003814697
 11
10.6271572113037
 21
123.110786437988
 31
17.2999992370605
 12
11.0422639846802
 22
122.792266845703
 32
17.2999992370605
 13
11.0422639846802
 23
122.792266845703
 33
17.2999992370605
 0
3DFACE
 8
STL2DXF
 10
10.6271572113037
 20
123.110786437988
 30
17.2999992370605
 11
11.0422639846802
 21
122.792266845703
 31
12.1000003814697
 12
10.6271572113037
 22
123.110786437988
 32
12.1000003814697
 13
10.6271572113037
 23
123.110786437988
 33
12.1000003814697
 0
3DFACE
 8
STL2DXF
 10
11.3607873916626
 20
122.377159118652
 30
17.2999992370605
 11
11.0422639846802
 21
122.792266845703
 31
12.1000003814697
 12
11.0422639846802
 22
122.792266845703
 32
17.2999992370605
 13
11.0422639846802
 23
122.792266845703
 33
17.2999992370605
 0
3DFACE
 8
STL2DXF
 10
11.0422639846802
 20
122.792266845703
 30
12.1000003814697
 11
11.3607873916626
 21
122.377159118652
 31
17.2999992370605
 12
11.3607873916626
 22
122.377159118652
 32
12.1000003814697
 13
11.3607873916626
 23
122.377159118652
 33
12.1000003814697
 0
3DFACE
 8
STL2DXF
 10
11.5610189437866
 20
121.893753051758
 30
17.2999992370605
 11
11.3607873916626
 21
122.377159118652
 31
12.1000003814697
 12
11.3607873916626
 22
122.377159118652
 32
17.2999992370605
 13
11.3607873916626
 23
122.377159118652
 33
17.2999992370605
 0
3DFACE
 8
STL2DXF
 10
11.3607873916626
 20
122.377159118652
 30
12.1000003814697
 11
11.5610189437866
 21
121.893753051758
 31
17.2999992370605
 12
11.5610189437866
 22
121.893753051758
 32
12.1000003814697
 13
11.5610189437866
 23
121.893753051758
 33
12.1000003814697
 0
3DFACE
 8
STL2DXF
 10
11.6293144226074
 20
121.375
 30
17.2999992370605
 11
11.5610189437866
 21
121.893753051758
 31
12.1000003814697
 12
11.5610189437866
 22
121.893753051758
 32
17.2999992370605
 13
11.5610189437866
 23
121.893753051758
 33
17.2999992370605
 0
3DFACE
 8
STL2DXF
 10
11.5610189437866
 20
121.893753051758
 30
12.1000003814697
 11
11.6293144226074
 21
121.375
 31
17.2999992370605
 12
11.6293144226074
 22
121.375
 32
12.1000003814697
 13
11.6293144226074
 23
121.375
 33
12.1000003814697
 0
3DFACE
 8
STL2DXF
 10
11.5610189437866
 20
120.856246948242
 30
17.2999992370605
 11
11.6293144226074
 21
121.375
 31
12.1000003814697
 12
11.6293144226074
 22
121.375
 32
17.2999992370605
 13
11.6293144226074
 23
121.375
 33
17.2999992370605
 0
3DFACE
 8
STL2DXF
 10
11.6293144226074
 20
121.375
 30
12.1000003814697
 11
11.5610189437866
 21
120.856246948242
 31
17.2999992370605
 12
11.5610189437866
 22
120.856246948242
 32
12.1000003814697
 13
11.5610189437866
 23
120.856246948242
 33
12.1000003814697
 0
3DFACE
 8
STL2DXF
 10
11.3607873916626
 20
120.372840881348
 30
17.2999992370605
 11
11.5610189437866
 21
120.856246948242
 31
12.1000003814697
 12
11.5610189437866
 22
120.856246948242
 32
17.2999992370605
 13
11.5610189437866
 23
120.856246948242
 33
17.2999992370605
 0
3DFACE
 8
STL2DXF
 10
11.5610189437866
 20
120.856246948242
 30
12.1000003814697
 11
11.3607873916626
 21
120.372840881348
 31
17.2999992370605
 12
11.3607873916626
 22
120.372840881348
 32
12.1000003814697
 13
11.3607873916626
 23
120.372840881348
 33
12.1000003814697
 0
3DFACE
 8
STL2DXF
 10
11.0422639846802
 20
119.957733154297
 30
17.2999992370605
 11
11.3607873916626
 21
120.372840881348
 31
12.1000003814697
 12
11.3607873916626
 22
120.372840881348
 32
17.2999992370605
 13
11.3607873916626
 23
120.372840881348
 33
17.2999992370605
 0
3DFACE
 8
STL2DXF
 10
11.3607873916626
 20
120.372840881348
 30
12.1000003814697
 11
11.0422639846802
 21
119.957733154297
 31
17.2999992370605
 12
11.0422639846802
 22
119.957733154297
 32
12.1000003814697
 13
11.0422639846802
 23
119.957733154297
 33
12.1000003814697
 0
3DFACE
 8
STL2DXF
 10
10.6271572113037
 20
119.639213562012
 30
12.1000003814697
 11
11.0422639846802
 21
119.957733154297
 31
17.2999992370605
 12
10.6271572113037
 22
119.639213562012
 32
17.2999992370605
 13
10.6271572113037
 23
119.639213562012
 33
17.2999992370605
 0
3DFACE
 8
STL2DXF
 10
11.0422639846802
 20
119.957733154297
 30
17.2999992370605
 11
10.6271572113037
 21
119.639213562012
 31
12.1000003814697
 12
11.0422639846802
 22
119.957733154297
 32
12.1000003814697
 13
11.0422639846802
 23
119.957733154297
 33
12.1000003814697
 0
3DFACE
 8
STL2DXF
 10
10.1437549591064
 20
119.438980102539
 30
12.1000003814697
 11
10.6271572113037
 21
119.639213562012
 31
17.2999992370605
 12
10.1437549591064
 22
119.438980102539
 32
17.2999992370605
 13
10.1437549591064
 23
119.438980102539
 33
17.2999992370605
 0
3DFACE
 8
STL2DXF
 10
10.6271572113037
 20
119.639213562012
 30
17.2999992370605
 11
10.1437549591064
 21
119.438980102539
 31
12.1000003814697
 12
10.6271572113037
 22
119.639213562012
 32
12.1000003814697
 13
10.6271572113037
 23
119.639213562012
 33
12.1000003814697
 0
3DFACE
 8
STL2DXF
 10
19.625
 20
123.379318237305
 30
16.2999992370605
 11
19.1062450408936
 21
123.311019897461
 31
17.2999992370605
 12
19.625
 22
123.379318237305
 32
17.2999992370605
 13
19.625
 23
123.379318237305
 33
17.2999992370605
 0
3DFACE
 8
STL2DXF
 10
19.1062450408936
 20
123.311019897461
 30
17.2999992370605
 11
19.625
 21
123.379318237305
 31
16.2999992370605
 12
19.1062450408936
 22
123.311019897461
 32
14.3000001907349
 13
19.1062450408936
 23
123.311019897461
 33
14.3000001907349
 0
3DFACE
 8
STL2DXF
 10
19.1062450408936
 20
123.311019897461
 30
14.3000001907349
 11
19.625
 21
123.379318237305
 31
16.2999992370605
 12
19.625
 22
123.379318237305
 32
14.3000001907349
 13
19.625
 23
123.379318237305
 33
14.3000001907349
 0
3DFACE
 8
STL2DXF
 10
20.1437549591064
 20
123.311019897461
 30
16.2999992370605
 11
19.625
 21
123.379318237305
 31
17.2999992370605
 12
20.1437549591064
 22
123.311019897461
 32
17.2999992370605
 13
20.1437549591064
 23
123.311019897461
 33
17.2999992370605
 0
3DFACE
 8
STL2DXF
 10
19.625
 20
123.379318237305
 30
17.2999992370605
 11
20.1437549591064
 21
123.311019897461
 31
16.2999992370605
 12
19.625
 22
123.379318237305
 32
16.2999992370605
 13
19.625
 23
123.379318237305
 33
16.2999992370605
 0
3DFACE
 8
STL2DXF
 10
20.6271572113037
 20
123.110786437988
 30
16.2999992370605
 11
20.1437549591064
 21
123.311019897461
 31
17.2999992370605
 12
20.6271572113037
 22
123.110786437988
 32
17.2999992370605
 13
20.6271572113037
 23
123.110786437988
 33
17.2999992370605
 0
3DFACE
 8
STL2DXF
 10
20.1437549591064
 20
123.311019897461
 30
17.2999992370605
 11
20.6271572113037
 21
123.110786437988
 31
16.2999992370605
 12
20.1437549591064
 22
123.311019897461
 32
16.2999992370605
 13
20.1437549591064
 23
123.311019897461
 33
16.2999992370605
 0
3DFACE
 8
STL2DXF
 10
21.0422649383545
 20
122.792266845703
 30
16.2999992370605
 11
20.6271572113037
 21
123.110786437988
 31
17.2999992370605
 12
21.0422649383545
 22
122.792266845703
 32
17.2999992370605
 13
21.0422649383545
 23
122.792266845703
 33
17.2999992370605
 0
3DFACE
 8
STL2DXF
 10
20.6271572113037
 20
123.110786437988
 30
17.2999992370605
 11
21.0422649383545
 21
122.792266845703
 31
16.2999992370605
 12
20.6271572113037
 22
123.110786437988
 32
16.2999992370605
 13
20.6271572113037
 23
123.110786437988
 33
16.2999992370605
 0
3DFACE
 8
STL2DXF
 10
21.3607864379883
 20
122.377159118652
 30
17.2999992370605
 11
21.0422649383545
 21
122.792266845703
 31
16.2999992370605
 12
21.0422649383545
 22
122.792266845703
 32
17.2999992370605
 13
21.0422649383545
 23
122.792266845703
 33
17.2999992370605
 0
3DFACE
 8
STL2DXF
 10
21.0422649383545
 20
122.792266845703
 30
16.2999992370605
 11
21.3607864379883
 21
122.377159118652
 31
17.2999992370605
 12
21.3607864379883
 22
122.377159118652
 32
16.2999992370605
 13
21.3607864379883
 23
122.377159118652
 33
16.2999992370605
 0
3DFACE
 8
STL2DXF
 10
21.5610198974609
 20
121.893753051758
 30
17.2999992370605
 11
21.3607864379883
 21
122.377159118652
 31
16.2999992370605
 12
21.3607864379883
 22
122.377159118652
 32
17.2999992370605
 13
21.3607864379883
 23
122.377159118652
 33
17.2999992370605
 0
3DFACE
 8
STL2DXF
 10
21.3607864379883
 20
122.377159118652
 30
16.2999992370605
 11
21.5610198974609
 21
121.893753051758
 31
17.2999992370605
 12
21.5610198974609
 22
121.893753051758
 32
16.2999992370605
 13
21.5610198974609
 23
121.893753051758
 33
16.2999992370605
 0
3DFACE
 8
STL2DXF
 10
21.6293144226074
 20
121.375
 30
17.2999992370605
 11
21.5610198974609
 21
121.893753051758
 31
16.2999992370605
 12
21.5610198974609
 22
121.893753051758
 32
17.2999992370605
 13
21.5610198974609
 23
121.893753051758
 33
17.2999992370605
 0
3DFACE
 8
STL2DXF
 10
21.5610198974609
 20
121.893753051758
 30
16.2999992370605
 11
21.6293144226074
 21
121.375
 31
17.2999992370605
 12
21.6293144226074
 22
121.375
 32
16.2999992370605
 13
21.6293144226074
 23
121.375
 33
16.2999992370605
 0
3DFACE
 8
STL2DXF
 10
21.5610198974609
 20
120.856246948242
 30
17.2999992370605
 11
21.6293144226074
 21
121.375
 31
16.2999992370605
 12
21.6293144226074
 22
121.375
 32
17.2999992370605
 13
21.6293144226074
 23
121.375
 33
17.2999992370605
 0
3DFACE
 8
STL2DXF
 10
21.6293144226074
 20
121.375
 30
16.2999992370605
 11
21.5610198974609
 21
120.856246948242
 31
17.2999992370605
 12
21.5610198974609
 22
120.856246948242
 32
16.2999992370605
 13
21.5610198974609
 23
120.856246948242
 33
16.2999992370605
 0
3DFACE
 8
STL2DXF
 10
21.3607864379883
 20
120.372840881348
 30
17.2999992370605
 11
21.5610198974609
 21
120.856246948242
 31
16.2999992370605
 12
21.5610198974609
 22
120.856246948242
 32
17.2999992370605
 13
21.5610198974609
 23
120.856246948242
 33
17.2999992370605
 0
3DFACE
 8
STL2DXF
 10
21.5610198974609
 20
120.856246948242
 30
16.2999992370605
 11
21.3607864379883
 21
120.372840881348
 31
17.2999992370605
 12
21.3607864379883
 22
120.372840881348
 32
16.2999992370605
 13
21.3607864379883
 23
120.372840881348
 33
16.2999992370605
 0
3DFACE
 8
STL2DXF
 10
21.0422649383545
 20
119.957733154297
 30
17.2999992370605
 11
21.3607864379883
 21
120.372840881348
 31
16.2999992370605
 12
21.3607864379883
 22
120.372840881348
 32
17.2999992370605
 13
21.3607864379883
 23
120.372840881348
 33
17.2999992370605
 0
3DFACE
 8
STL2DXF
 10
21.3607864379883
 20
120.372840881348
 30
16.2999992370605
 11
21.0422649383545
 21
119.957733154297
 31
17.2999992370605
 12
21.0422649383545
 22
119.957733154297
 32
16.2999992370605
 13
21.0422649383545
 23
119.957733154297
 33
16.2999992370605
 0
3DFACE
 8
STL2DXF
 10
20.6271572113037
 20
119.639213562012
 30
16.2999992370605
 11
21.0422649383545
 21
119.957733154297
 31
17.2999992370605
 12
20.6271572113037
 22
119.639213562012
 32
17.2999992370605
 13
20.6271572113037
 23
119.639213562012
 33
17.2999992370605
 0
3DFACE
 8
STL2DXF
 10
21.0422649383545
 20
119.957733154297
 30
17.2999992370605
 11
20.6271572113037
 21
119.639213562012
 31
16.2999992370605
 12
21.0422649383545
 22
119.957733154297
 32
16.2999992370605
 13
21.0422649383545
 23
119.957733154297
 33
16.2999992370605
 0
3DFACE
 8
STL2DXF
 10
20.1437549591064
 20
119.438980102539
 30
16.2999992370605
 11
20.6271572113037
 21
119.639213562012
 31
17.2999992370605
 12
20.1437549591064
 22
119.438980102539
 32
17.2999992370605
 13
20.1437549591064
 23
119.438980102539
 33
17.2999992370605
 0
3DFACE
 8
STL2DXF
 10
20.6271572113037
 20
119.639213562012
 30
17.2999992370605
 11
20.1437549591064
 21
119.438980102539
 31
16.2999992370605
 12
20.6271572113037
 22
119.639213562012
 32
16.2999992370605
 13
20.6271572113037
 23
119.639213562012
 33
16.2999992370605
 0
3DFACE
 8
STL2DXF
 10
19.625
 20
119.370681762695
 30
17.2999992370605
 11
20.1437549591064
 21
119.438980102539
 31
16.2999992370605
 12
20.1437549591064
 22
119.438980102539
 32
17.2999992370605
 13
20.1437549591064
 23
119.438980102539
 33
17.2999992370605
 0
3DFACE
 8
STL2DXF
 10
20.1437549591064
 20
119.438980102539
 30
16.2999992370605
 11
19.625
 21
119.370681762695
 31
17.2999992370605
 12
19.625
 22
119.370681762695
 32
16.2999992370605
 13
19.625
 23
119.370681762695
 33
16.2999992370605
 0
3DFACE
 8
STL2DXF
 10
19.1062450408936
 20
119.438980102539
 30
14.3000001907349
 11
19.625
 21
119.370681762695
 31
17.2999992370605
 12
19.1062450408936
 22
119.438980102539
 32
17.2999992370605
 13
19.1062450408936
 23
119.438980102539
 33
17.2999992370605
 0
3DFACE
 8
STL2DXF
 10
19.625
 20
119.370681762695
 30
17.2999992370605
 11
19.1062450408936
 21
119.438980102539
 31
14.3000001907349
 12
19.625
 22
119.370681762695
 32
16.2999992370605
 13
19.625
 23
119.370681762695
 33
16.2999992370605
 0
3DFACE
 8
STL2DXF
 10
19.625
 20
119.370681762695
 30
16.2999992370605
 11
19.1062450408936
 21
119.438980102539
 31
14.3000001907349
 12
19.625
 22
119.370681762695
 32
14.3000001907349
 13
19.625
 23
119.370681762695
 33
14.3000001907349
 0
3DFACE
 8
STL2DXF
 10
18.6228427886963
 20
119.639213562012
 30
14.3000001907349
 11
19.1062450408936
 21
119.438980102539
 31
17.2999992370605
 12
18.6228427886963
 22
119.639213562012
 32
17.2999992370605
 13
18.6228427886963
 23
119.639213562012
 33
17.2999992370605
 0
3DFACE
 8
STL2DXF
 10
19.1062450408936
 20
119.438980102539
 30
17.2999992370605
 11
18.6228427886963
 21
119.639213562012
 31
14.3000001907349
 12
19.1062450408936
 22
119.438980102539
 32
14.3000001907349
 13
19.1062450408936
 23
119.438980102539
 33
14.3000001907349
 0
3DFACE
 8
STL2DXF
 10
18.2077350616455
 20
119.957733154297
 30
17.2999992370605
 11
18.6228427886963
 21
119.639213562012
 31
14.3000001907349
 12
18.6228427886963
 22
119.639213562012
 32
17.2999992370605
 13
18.6228427886963
 23
119.639213562012
 33
17.2999992370605
 0
3DFACE
 8
STL2DXF
 10
18.6228427886963
 20
119.639213562012
 30
14.3000001907349
 11
18.2077350616455
 21
119.957733154297
 31
17.2999992370605
 12
18.2077350616455
 22
119.957733154297
 32
14.3000001907349
 13
18.2077350616455
 23
119.957733154297
 33
14.3000001907349
 0
3DFACE
 8
STL2DXF
 10
18.2077350616455
 20
119.957733154297
 30
14.3000001907349
 11
17.8892135620117
 21
120.372840881348
 31
17.2999992370605
 12
17.8892135620117
 22
120.372840881348
 32
14.3000001907349
 13
17.8892135620117
 23
120.372840881348
 33
14.3000001907349
 0
3DFACE
 8
STL2DXF
 10
17.8892135620117
 20
120.372840881348
 30
17.2999992370605
 11
18.2077350616455
 21
119.957733154297
 31
14.3000001907349
 12
18.2077350616455
 22
119.957733154297
 32
17.2999992370605
 13
18.2077350616455
 23
119.957733154297
 33
17.2999992370605
 0
3DFACE
 8
STL2DXF
 10
17.8892135620117
 20
120.372840881348
 30
14.3000001907349
 11
17.6889801025391
 21
120.856246948242
 31
17.2999992370605
 12
17.6889801025391
 22
120.856246948242
 32
14.3000001907349
 13
17.6889801025391
 23
120.856246948242
 33
14.3000001907349
 0
3DFACE
 8
STL2DXF
 10
17.6889801025391
 20
120.856246948242
 30
17.2999992370605
 11
17.8892135620117
 21
120.372840881348
 31
14.3000001907349
 12
17.8892135620117
 22
120.372840881348
 32
17.2999992370605
 13
17.8892135620117
 23
120.372840881348
 33
17.2999992370605
 0
3DFACE
 8
STL2DXF
 10
17.6889801025391
 20
120.856246948242
 30
14.3000001907349
 11
17.6206855773926
 21
121.375
 31
17.2999992370605
 12
17.6206855773926
 22
121.375
 32
14.3000001907349
 13
17.6206855773926
 23
121.375
 33
14.3000001907349
 0
3DFACE
 8
STL2DXF
 10
17.6206855773926
 20
121.375
 30
17.2999992370605
 11
17.6889801025391
 21
120.856246948242
 31
14.3000001907349
 12
17.6889801025391
 22
120.856246948242
 32
17.2999992370605
 13
17.6889801025391
 23
120.856246948242
 33
17.2999992370605
 0
3DFACE
 8
STL2DXF
 10
17.6889801025391
 20
121.893753051758
 30
14.3000001907349
 11
17.6206855773926
 21
121.375
 31
17.2999992370605
 12
17.6889801025391
 22
121.893753051758
 32
17.2999992370605
 13
17.6889801025391
 23
121.893753051758
 33
17.2999992370605
 0
3DFACE
 8
STL2DXF
 10
17.6206855773926
 20
121.375
 30
17.2999992370605
 11
17.6889801025391
 21
121.893753051758
 31
14.3000001907349
 12
17.6206855773926
 22
121.375
 32
14.3000001907349
 13
17.6206855773926
 23
121.375
 33
14.3000001907349
 0
3DFACE
 8
STL2DXF
 10
17.6889801025391
 20
121.893753051758
 30
14.3000001907349
 11
17.8892135620117
 21
122.377159118652
 31
17.2999992370605
 12
17.8892135620117
 22
122.377159118652
 32
14.3000001907349
 13
17.8892135620117
 23
122.377159118652
 33
14.3000001907349
 0
3DFACE
 8
STL2DXF
 10
17.8892135620117
 20
122.377159118652
 30
17.2999992370605
 11
17.6889801025391
 21
121.893753051758
 31
14.3000001907349
 12
17.6889801025391
 22
121.893753051758
 32
17.2999992370605
 13
17.6889801025391
 23
121.893753051758
 33
17.2999992370605
 0
3DFACE
 8
STL2DXF
 10
17.8892135620117
 20
122.377159118652
 30
14.3000001907349
 11
18.2077350616455
 21
122.792266845703
 31
17.2999992370605
 12
18.2077350616455
 22
122.792266845703
 32
14.3000001907349
 13
18.2077350616455
 23
122.792266845703
 33
14.3000001907349
 0
3DFACE
 8
STL2DXF
 10
18.2077350616455
 20
122.792266845703
 30
17.2999992370605
 11
17.8892135620117
 21
122.377159118652
 31
14.3000001907349
 12
17.8892135620117
 22
122.377159118652
 32
17.2999992370605
 13
17.8892135620117
 23
122.377159118652
 33
17.2999992370605
 0
3DFACE
 8
STL2DXF
 10
18.6228427886963
 20
123.110786437988
 30
14.3000001907349
 11
18.2077350616455
 21
122.792266845703
 31
17.2999992370605
 12
18.6228427886963
 22
123.110786437988
 32
17.2999992370605
 13
18.6228427886963
 23
123.110786437988
 33
17.2999992370605
 0
3DFACE
 8
STL2DXF
 10
18.2077350616455
 20
122.792266845703
 30
17.2999992370605
 11
18.6228427886963
 21
123.110786437988
 31
14.3000001907349
 12
18.2077350616455
 22
122.792266845703
 32
14.3000001907349
 13
18.2077350616455
 23
122.792266845703
 33
14.3000001907349
 0
3DFACE
 8
STL2DXF
 10
19.1062450408936
 20
123.311019897461
 30
17.2999992370605
 11
18.6228427886963
 21
123.110786437988
 31
14.3000001907349
 12
18.6228427886963
 22
123.110786437988
 32
17.2999992370605
 13
18.6228427886963
 23
123.110786437988
 33
17.2999992370605
 0
3DFACE
 8
STL2DXF
 10
18.6228427886963
 20
123.110786437988
 30
14.3000001907349
 11
19.1062450408936
 21
123.311019897461
 31
17.2999992370605
 12
19.1062450408936
 22
123.311019897461
 32
14.3000001907349
 13
19.1062450408936
 23
123.311019897461
 33
14.3000001907349
 0
3DFACE
 8
STL2DXF
 10
26.7250003814697
 20
119.375
 30
12.1000003814697
 11
26.7250003814697
 21
123.379318237305
 31
16.2999992370605
 12
26.7250003814697
 22
123.379318237305
 32
12.1000003814697
 13
26.7250003814697
 23
123.379318237305
 33
12.1000003814697
 0
3DFACE
 8
STL2DXF
 10
26.7250003814697
 20
123.379318237305
 30
16.2999992370605
 11
26.7250003814697
 21
119.375
 31
12.1000003814697
 12
26.7250003814697
 22
119.375
 32
16.2999992370605
 13
26.7250003814697
 23
119.375
 33
16.2999992370605
 0
3DFACE
 8
STL2DXF
 10
23.7250003814697
 20
112.375
 30
11.3000001907349
 11
23.7250003814697
 21
127.375
 31
12.1000003814697
 12
23.7250003814697
 22
127.375
 32
11.3000001907349
 13
23.7250003814697
 23
127.375
 33
11.3000001907349
 0
3DFACE
 8
STL2DXF
 10
23.7250003814697
 20
127.375
 30
12.1000003814697
 11
23.7250003814697
 21
112.375
 31
11.3000001907349
 12
23.7250003814697
 22
123.375
 32
12.1000003814697
 13
23.7250003814697
 23
123.375
 33
12.1000003814697
 0
3DFACE
 8
STL2DXF
 10
23.7250003814697
 20
123.375
 30
12.1000003814697
 11
23.7250003814697
 21
112.375
 31
11.3000001907349
 12
23.7250003814697
 22
119.370681762695
 32
12.1000003814697
 13
23.7250003814697
 23
119.370681762695
 33
12.1000003814697
 0
3DFACE
 8
STL2DXF
 10
23.7250003814697
 20
123.375
 30
12.1000003814697
 11
23.7250003814697
 21
119.370681762695
 31
12.1000003814697
 12
23.7250003814697
 22
123.375
 32
14.3000001907349
 13
23.7250003814697
 23
123.375
 33
14.3000001907349
 0
3DFACE
 8
STL2DXF
 10
23.7250003814697
 20
119.370681762695
 30
12.1000003814697
 11
23.7250003814697
 21
112.375
 31
11.3000001907349
 12
23.7250003814697
 22
112.375
 32
12.1000003814697
 13
23.7250003814697
 23
112.375
 33
12.1000003814697
 0
3DFACE
 8
STL2DXF
 10
23.7250003814697
 20
119.370681762695
 30
14.3000001907349
 11
23.7250003814697
 21
123.375
 31
14.3000001907349
 12
23.7250003814697
 22
119.370681762695
 32
12.1000003814697
 13
23.7250003814697
 23
119.370681762695
 33
12.1000003814697
 0
3DFACE
 8
STL2DXF
 10
19.625
 20
123.379318237305
 30
14.3000001907349
 11
26.7250003814697
 21
123.379318237305
 31
16.2999992370605
 12
19.625
 22
123.379318237305
 32
16.2999992370605
 13
19.625
 23
123.379318237305
 33
16.2999992370605
 0
3DFACE
 8
STL2DXF
 10
26.7250003814697
 20
123.379318237305
 30
16.2999992370605
 11
19.625
 21
123.379318237305
 31
14.3000001907349
 12
23.7250003814697
 22
123.375
 32
14.3000001907349
 13
23.7250003814697
 23
123.375
 33
14.3000001907349
 0
3DFACE
 8
STL2DXF
 10
26.7250003814697
 20
123.379318237305
 30
16.2999992370605
 11
23.7250003814697
 21
123.375
 31
14.3000001907349
 12
26.7250003814697
 22
123.379318237305
 32
12.1000003814697
 13
26.7250003814697
 23
123.379318237305
 33
12.1000003814697
 0
3DFACE
 8
STL2DXF
 10
26.7250003814697
 20
123.379318237305
 30
12.1000003814697
 11
23.7250003814697
 21
123.375
 31
14.3000001907349
 12
23.7250003814697
 22
123.375
 32
12.1000003814697
 13
23.7250003814697
 23
123.375
 33
12.1000003814697
 0
3DFACE
 8
STL2DXF
 10
19.625
 20
119.370681762695
 30
14.3000001907349
 11
26.7250003814697
 21
119.375
 31
16.2999992370605
 12
19.625
 22
119.370681762695
 32
16.2999992370605
 13
19.625
 23
119.370681762695
 33
16.2999992370605
 0
3DFACE
 8
STL2DXF
 10
26.7250003814697
 20
119.375
 30
16.2999992370605
 11
19.625
 21
119.370681762695
 31
14.3000001907349
 12
23.7250003814697
 22
119.370681762695
 32
14.3000001907349
 13
23.7250003814697
 23
119.370681762695
 33
14.3000001907349
 0
3DFACE
 8
STL2DXF
 10
26.7250003814697
 20
119.375
 30
16.2999992370605
 11
23.7250003814697
 21
119.370681762695
 31
14.3000001907349
 12
26.7250003814697
 22
119.375
 32
12.1000003814697
 13
26.7250003814697
 23
119.375
 33
12.1000003814697
 0
3DFACE
 8
STL2DXF
 10
26.7250003814697
 20
119.375
 30
12.1000003814697
 11
23.7250003814697
 21
119.370681762695
 31
14.3000001907349
 12
23.7250003814697
 22
119.370681762695
 32
12.1000003814697
 13
23.7250003814697
 23
119.370681762695
 33
12.1000003814697
 0
3DFACE
 8
STL2DXF
 10
28.7250003814697
 20
107.375
 30
12.1000003814697
 11
23.7250003814697
 21
119.370681762695
 31
12.1000003814697
 12
23.7250003814697
 22
112.375
 32
12.1000003814697
 13
23.7250003814697
 23
112.375
 33
12.1000003814697
 0
3DFACE
 8
STL2DXF
 10
23.7250003814697
 20
119.370681762695
 30
12.1000003814697
 11
28.7250003814697
 21
107.375
 31
12.1000003814697
 12
26.7250003814697
 22
119.375
 32
12.1000003814697
 13
26.7250003814697
 23
119.375
 33
12.1000003814697
 0
3DFACE
 8
STL2DXF
 10
26.7250003814697
 20
119.375
 30
12.1000003814697
 11
28.7250003814697
 21
107.375
 31
12.1000003814697
 12
26.7250003814697
 22
123.379318237305
 32
12.1000003814697
 13
26.7250003814697
 23
123.379318237305
 33
12.1000003814697
 0
3DFACE
 8
STL2DXF
 10
26.7250003814697
 20
123.379318237305
 30
12.1000003814697
 11
23.7250003814697
 21
127.375
 31
12.1000003814697
 12
23.7250003814697
 22
123.375
 32
12.1000003814697
 13
23.7250003814697
 23
123.375
 33
12.1000003814697
 0
3DFACE
 8
STL2DXF
 10
23.7250003814697
 20
127.375
 30
12.1000003814697
 11
26.7250003814697
 21
123.379318237305
 31
12.1000003814697
 12
45.4500007629395
 22
127.375
 32
12.1000003814697
 13
45.4500007629395
 23
127.375
 33
12.1000003814697
 0
3DFACE
 8
STL2DXF
 10
45.4500007629395
 20
127.375
 30
12.1000003814697
 11
26.7250003814697
 21
123.379318237305
 31
12.1000003814697
 12
28.7250003814697
 22
107.375
 32
12.1000003814697
 13
28.7250003814697
 23
107.375
 33
12.1000003814697
 0
3DFACE
 8
STL2DXF
 10
45.4500007629395
 20
127.375
 30
12.1000003814697
 11
28.7250003814697
 21
107.375
 31
12.1000003814697
 12
45.4500007629395
 22
107.375
 32
12.1000003814697
 13
45.4500007629395
 23
107.375
 33
12.1000003814697
 0
3DFACE
 8
STL2DXF
 10
45.4500007629395
 20
127.375
 30
11.3000001907349
 11
23.7250003814697
 21
127.375
 31
12.1000003814697
 12
45.4500007629395
 22
127.375
 32
12.1000003814697
 13
45.4500007629395
 23
127.375
 33
12.1000003814697
 0
3DFACE
 8
STL2DXF
 10
23.7250003814697
 20
127.375
 30
12.1000003814697
 11
45.4500007629395
 21
127.375
 31
11.3000001907349
 12
23.7250003814697
 22
127.375
 32
11.3000001907349
 13
23.7250003814697
 23
127.375
 33
11.3000001907349
 0
3DFACE
 8
STL2DXF
 10
45.4500007629395
 20
127.375
 30
12.1000003814697
 11
45.4500007629395
 21
107.375
 31
11.3000001907349
 12
45.4500007629395
 22
127.375
 32
11.3000001907349
 13
45.4500007629395
 23
127.375
 33
11.3000001907349
 0
3DFACE
 8
STL2DXF
 10
45.4500007629395
 20
107.375
 30
11.3000001907349
 11
45.4500007629395
 21
127.375
 31
12.1000003814697
 12
45.4500007629395
 22
107.375
 32
12.1000003814697
 13
45.4500007629395
 23
107.375
 33
12.1000003814697
 0
3DFACE
 8
STL2DXF
 10
28.7250003814697
 20
107.375
 30
11.3000001907349
 11
45.4500007629395
 21
107.375
 31
12.1000003814697
 12
28.7250003814697
 22
107.375
 32
12.1000003814697
 13
28.7250003814697
 23
107.375
 33
12.1000003814697
 0
3DFACE
 8
STL2DXF
 10
45.4500007629395
 20
107.375
 30
12.1000003814697
 11
28.7250003814697
 21
107.375
 31
11.3000001907349
 12
45.4500007629395
 22
107.375
 32
11.3000001907349
 13
45.4500007629395
 23
107.375
 33
11.3000001907349
 0
3DFACE
 8
STL2DXF
 10
23.7250003814697
 20
112.375
 30
11.3000001907349
 11
28.7250003814697
 21
107.375
 31
12.1000003814697
 12
23.7250003814697
 22
112.375
 32
12.1000003814697
 13
23.7250003814697
 23
112.375
 33
12.1000003814697
 0
3DFACE
 8
STL2DXF
 10
28.7250003814697
 20
107.375
 30
12.1000003814697
 11
23.7250003814697
 21
112.375
 31
11.3000001907349
 12
28.7250003814697
 22
107.375
 32
11.3000001907349
 13
28.7250003814697
 23
107.375
 33
11.3000001907349
 0
3DFACE
 8
STL2DXF
 10
2.30926389122033E-14
 20
107.375
 30
11.3000001907349
 11
1.77635683940025E-14
 21
127.375
 31
12.1000003814697
 12
1.95399252334028E-14
 22
127.375
 32
11.3000001907349
 13
1.95399252334028E-14
 23
127.375
 33
11.3000001907349
 0
3DFACE
 8
STL2DXF
 10
1.77635683940025E-14
 20
127.375
 30
12.1000003814697
 11
2.30926389122033E-14
 21
107.375
 31
11.3000001907349
 12
2.1316282072803E-14
 22
107.375
 32
12.1000003814697
 13
2.1316282072803E-14
 23
107.375
 33
12.1000003814697
 0
3DFACE
 8
STL2DXF
 10
21.7250003814697
 20
127.375
 30
11.3000001907349
 11
1.77635683940025E-14
 21
127.375
 31
12.1000003814697
 12
21.7250003814697
 22
127.375
 32
12.1000003814697
 13
21.7250003814697
 23
127.375
 33
12.1000003814697
 0
3DFACE
 8
STL2DXF
 10
1.77635683940025E-14
 20
127.375
 30
12.1000003814697
 11
21.7250003814697
 21
127.375
 31
11.3000001907349
 12
1.95399252334028E-14
 22
127.375
 32
11.3000001907349
 13
1.95399252334028E-14
 23
127.375
 33
11.3000001907349
 0
3DFACE
 8
STL2DXF
 10
21.7250003814697
 20
112.375
 30
12.1000003814697
 11
21.7250003814697
 21
127.375
 31
11.3000001907349
 12
21.7250003814697
 22
127.375
 32
12.1000003814697
 13
21.7250003814697
 23
127.375
 33
12.1000003814697
 0
3DFACE
 8
STL2DXF
 10
21.7250003814697
 20
127.375
 30
11.3000001907349
 11
21.7250003814697
 21
112.375
 31
12.1000003814697
 12
21.7250003814697
 22
112.375
 32
11.3000001907349
 13
21.7250003814697
 23
112.375
 33
11.3000001907349
 0
3DFACE
 8
STL2DXF
 10
16.7250003814697
 20
107.375
 30
12.1000003814697
 11
21.7250003814697
 21
112.375
 31
11.3000001907349
 12
21.7250003814697
 22
112.375
 32
12.1000003814697
 13
21.7250003814697
 23
112.375
 33
12.1000003814697
 0
3DFACE
 8
STL2DXF
 10
21.7250003814697
 20
112.375
 30
11.3000001907349
 11
16.7250003814697
 21
107.375
 31
12.1000003814697
 12
16.7250003814697
 22
107.375
 32
11.3000001907349
 13
16.7250003814697
 23
107.375
 33
11.3000001907349
 0
3DFACE
 8
STL2DXF
 10
2.30926389122033E-14
 20
107.375
 30
11.3000001907349
 11
16.7250003814697
 21
107.375
 31
12.1000003814697
 12
2.1316282072803E-14
 22
107.375
 32
12.1000003814697
 13
2.1316282072803E-14
 23
107.375
 33
12.1000003814697
 0
3DFACE
 8
STL2DXF
 10
16.7250003814697
 20
107.375
 30
12.1000003814697
 11
2.30926389122033E-14
 21
107.375
 31
11.3000001907349
 12
16.7250003814697
 22
107.375
 32
11.3000001907349
 13
16.7250003814697
 23
107.375
 33
11.3000001907349
 0
3DFACE
 8
STL2DXF
 10
17.6889801025391
 20
120.856246948242
 30
17.2999992370605
 11
17.6889801025391
 21
121.893753051758
 31
17.2999992370605
 12
17.6206855773926
 22
121.375
 32
17.2999992370605
 13
17.6206855773926
 23
121.375
 33
17.2999992370605
 0
3DFACE
 8
STL2DXF
 10
17.6889801025391
 20
121.893753051758
 30
17.2999992370605
 11
17.6889801025391
 21
120.856246948242
 31
17.2999992370605
 12
17.8892135620117
 22
120.372840881348
 32
17.2999992370605
 13
17.8892135620117
 23
120.372840881348
 33
17.2999992370605
 0
3DFACE
 8
STL2DXF
 10
17.6889801025391
 20
121.893753051758
 30
17.2999992370605
 11
17.8892135620117
 21
120.372840881348
 31
17.2999992370605
 12
17.8892135620117
 22
122.377159118652
 32
17.2999992370605
 13
17.8892135620117
 23
122.377159118652
 33
17.2999992370605
 0
3DFACE
 8
STL2DXF
 10
17.8892135620117
 20
122.377159118652
 30
17.2999992370605
 11
17.8892135620117
 21
120.372840881348
 31
17.2999992370605
 12
18.2077350616455
 22
122.792266845703
 32
17.2999992370605
 13
18.2077350616455
 23
122.792266845703
 33
17.2999992370605
 0
3DFACE
 8
STL2DXF
 10
18.2077350616455
 20
122.792266845703
 30
17.2999992370605
 11
17.8892135620117
 21
120.372840881348
 31
17.2999992370605
 12
18.2077350616455
 22
119.957733154297
 32
17.2999992370605
 13
18.2077350616455
 23
119.957733154297
 33
17.2999992370605
 0
3DFACE
 8
STL2DXF
 10
18.2077350616455
 20
122.792266845703
 30
17.2999992370605
 11
18.2077350616455
 21
119.957733154297
 31
17.2999992370605
 12
18.6228427886963
 22
119.639213562012
 32
17.2999992370605
 13
18.6228427886963
 23
119.639213562012
 33
17.2999992370605
 0
3DFACE
 8
STL2DXF
 10
18.2077350616455
 20
122.792266845703
 30
17.2999992370605
 11
18.6228427886963
 21
119.639213562012
 31
17.2999992370605
 12
18.6228427886963
 22
123.110786437988
 32
17.2999992370605
 13
18.6228427886963
 23
123.110786437988
 33
17.2999992370605
 0
3DFACE
 8
STL2DXF
 10
18.6228427886963
 20
123.110786437988
 30
17.2999992370605
 11
18.6228427886963
 21
119.639213562012
 31
17.2999992370605
 12
19.1062450408936
 22
123.311019897461
 32
17.2999992370605
 13
19.1062450408936
 23
123.311019897461
 33
17.2999992370605
 0
3DFACE
 8
STL2DXF
 10
19.1062450408936
 20
123.311019897461
 30
17.2999992370605
 11
18.6228427886963
 21
119.639213562012
 31
17.2999992370605
 12
19.1062450408936
 22
119.438980102539
 32
17.2999992370605
 13
19.1062450408936
 23
119.438980102539
 33
17.2999992370605
 0
3DFACE
 8
STL2DXF
 10
19.1062450408936
 20
123.311019897461
 30
17.2999992370605
 11
19.1062450408936
 21
119.438980102539
 31
17.2999992370605
 12
19.625
 22
123.379318237305
 32
17.2999992370605
 13
19.625
 23
123.379318237305
 33
17.2999992370605
 0
3DFACE
 8
STL2DXF
 10
19.625
 20
123.379318237305
 30
17.2999992370605
 11
19.1062450408936
 21
119.438980102539
 31
17.2999992370605
 12
19.625
 22
119.370681762695
 32
17.2999992370605
 13
19.625
 23
119.370681762695
 33
17.2999992370605
 0
3DFACE
 8
STL2DXF
 10
19.625
 20
123.379318237305
 30
17.2999992370605
 11
19.625
 21
119.370681762695
 31
17.2999992370605
 12
20.1437549591064
 22
119.438980102539
 32
17.2999992370605
 13
20.1437549591064
 23
119.438980102539
 33
17.2999992370605
 0
3DFACE
 8
STL2DXF
 10
19.625
 20
123.379318237305
 30
17.2999992370605
 11
20.1437549591064
 21
119.438980102539
 31
17.2999992370605
 12
20.1437549591064
 22
123.311019897461
 32
17.2999992370605
 13
20.1437549591064
 23
123.311019897461
 33
17.2999992370605
 0
3DFACE
 8
STL2DXF
 10
20.1437549591064
 20
123.311019897461
 30
17.2999992370605
 11
20.1437549591064
 21
119.438980102539
 31
17.2999992370605
 12
20.6271572113037
 22
119.639213562012
 32
17.2999992370605
 13
20.6271572113037
 23
119.639213562012
 33
17.2999992370605
 0
3DFACE
 8
STL2DXF
 10
20.1437549591064
 20
123.311019897461
 30
17.2999992370605
 11
20.6271572113037
 21
119.639213562012
 31
17.2999992370605
 12
20.6271572113037
 22
123.110786437988
 32
17.2999992370605
 13
20.6271572113037
 23
123.110786437988
 33
17.2999992370605
 0
3DFACE
 8
STL2DXF
 10
20.6271572113037
 20
123.110786437988
 30
17.2999992370605
 11
20.6271572113037
 21
119.639213562012
 31
17.2999992370605
 12
21.0422649383545
 22
119.957733154297
 32
17.2999992370605
 13
21.0422649383545
 23
119.957733154297
 33
17.2999992370605
 0
3DFACE
 8
STL2DXF
 10
20.6271572113037
 20
123.110786437988
 30
17.2999992370605
 11
21.0422649383545
 21
119.957733154297
 31
17.2999992370605
 12
21.0422649383545
 22
122.792266845703
 32
17.2999992370605
 13
21.0422649383545
 23
122.792266845703
 33
17.2999992370605
 0
3DFACE
 8
STL2DXF
 10
21.0422649383545
 20
122.792266845703
 30
17.2999992370605
 11
21.0422649383545
 21
119.957733154297
 31
17.2999992370605
 12
21.3607864379883
 22
120.372840881348
 32
17.2999992370605
 13
21.3607864379883
 23
120.372840881348
 33
17.2999992370605
 0
3DFACE
 8
STL2DXF
 10
21.0422649383545
 20
122.792266845703
 30
17.2999992370605
 11
21.3607864379883
 21
120.372840881348
 31
17.2999992370605
 12
21.3607864379883
 22
122.377159118652
 32
17.2999992370605
 13
21.3607864379883
 23
122.377159118652
 33
17.2999992370605
 0
3DFACE
 8
STL2DXF
 10
21.3607864379883
 20
122.377159118652
 30
17.2999992370605
 11
21.3607864379883
 21
120.372840881348
 31
17.2999992370605
 12
21.5610198974609
 22
121.893753051758
 32
17.2999992370605
 13
21.5610198974609
 23
121.893753051758
 33
17.2999992370605
 0
3DFACE
 8
STL2DXF
 10
21.5610198974609
 20
121.893753051758
 30
17.2999992370605
 11
21.3607864379883
 21
120.372840881348
 31
17.2999992370605
 12
21.5610198974609
 22
120.856246948242
 32
17.2999992370605
 13
21.5610198974609
 23
120.856246948242
 33
17.2999992370605
 0
3DFACE
 8
STL2DXF
 10
21.5610198974609
 20
121.893753051758
 30
17.2999992370605
 11
21.5610198974609
 21
120.856246948242
 31
17.2999992370605
 12
21.6293144226074
 22
121.375
 32
17.2999992370605
 13
21.6293144226074
 23
121.375
 33
17.2999992370605
 0
3DFACE
 8
STL2DXF
 10
26.7250003814697
 20
123.379318237305
 30
16.2999992370605
 11
20.1437549591064
 21
123.311019897461
 31
16.2999992370605
 12
19.625
 22
123.379318237305
 32
16.2999992370605
 13
19.625
 23
123.379318237305
 33
16.2999992370605
 0
3DFACE
 8
STL2DXF
 10
20.1437549591064
 20
123.311019897461
 30
16.2999992370605
 11
26.7250003814697
 21
123.379318237305
 31
16.2999992370605
 12
20.6271572113037
 22
123.110786437988
 32
16.2999992370605
 13
20.6271572113037
 23
123.110786437988
 33
16.2999992370605
 0
3DFACE
 8
STL2DXF
 10
20.6271572113037
 20
123.110786437988
 30
16.2999992370605
 11
26.7250003814697
 21
123.379318237305
 31
16.2999992370605
 12
21.0422649383545
 22
122.792266845703
 32
16.2999992370605
 13
21.0422649383545
 23
122.792266845703
 33
16.2999992370605
 0
3DFACE
 8
STL2DXF
 10
21.0422649383545
 20
122.792266845703
 30
16.2999992370605
 11
26.7250003814697
 21
123.379318237305
 31
16.2999992370605
 12
21.3607864379883
 22
122.377159118652
 32
16.2999992370605
 13
21.3607864379883
 23
122.377159118652
 33
16.2999992370605
 0
3DFACE
 8
STL2DXF
 10
21.3607864379883
 20
122.377159118652
 30
16.2999992370605
 11
26.7250003814697
 21
123.379318237305
 31
16.2999992370605
 12
21.5610198974609
 22
121.893753051758
 32
16.2999992370605
 13
21.5610198974609
 23
121.893753051758
 33
16.2999992370605
 0
3DFACE
 8
STL2DXF
 10
21.5610198974609
 20
121.893753051758
 30
16.2999992370605
 11
26.7250003814697
 21
123.379318237305
 31
16.2999992370605
 12
21.6293144226074
 22
121.375
 32
16.2999992370605
 13
21.6293144226074
 23
121.375
 33
16.2999992370605
 0
3DFACE
 8
STL2DXF
 10
20.1437549591064
 20
119.438980102539
 30
16.2999992370605
 11
26.7250003814697
 21
119.375
 31
16.2999992370605
 12
19.625
 22
119.370681762695
 32
16.2999992370605
 13
19.625
 23
119.370681762695
 33
16.2999992370605
 0
3DFACE
 8
STL2DXF
 10
26.7250003814697
 20
119.375
 30
16.2999992370605
 11
20.1437549591064
 21
119.438980102539
 31
16.2999992370605
 12
20.6271572113037
 22
119.639213562012
 32
16.2999992370605
 13
20.6271572113037
 23
119.639213562012
 33
16.2999992370605
 0
3DFACE
 8
STL2DXF
 10
26.7250003814697
 20
119.375
 30
16.2999992370605
 11
20.6271572113037
 21
119.639213562012
 31
16.2999992370605
 12
21.0422649383545
 22
119.957733154297
 32
16.2999992370605
 13
21.0422649383545
 23
119.957733154297
 33
16.2999992370605
 0
3DFACE
 8
STL2DXF
 10
26.7250003814697
 20
119.375
 30
16.2999992370605
 11
21.0422649383545
 21
119.957733154297
 31
16.2999992370605
 12
21.3607864379883
 22
120.372840881348
 32
16.2999992370605
 13
21.3607864379883
 23
120.372840881348
 33
16.2999992370605
 0
3DFACE
 8
STL2DXF
 10
26.7250003814697
 20
119.375
 30
16.2999992370605
 11
21.3607864379883
 21
120.372840881348
 31
16.2999992370605
 12
21.5610198974609
 22
120.856246948242
 32
16.2999992370605
 13
21.5610198974609
 23
120.856246948242
 33
16.2999992370605
 0
3DFACE
 8
STL2DXF
 10
26.7250003814697
 20
119.375
 30
16.2999992370605
 11
21.5610198974609
 21
120.856246948242
 31
16.2999992370605
 12
21.6293144226074
 22
121.375
 32
16.2999992370605
 13
21.6293144226074
 23
121.375
 33
16.2999992370605
 0
3DFACE
 8
STL2DXF
 10
26.7250003814697
 20
119.375
 30
16.2999992370605
 11
21.6293144226074
 21
121.375
 31
16.2999992370605
 12
26.7250003814697
 22
123.379318237305
 32
16.2999992370605
 13
26.7250003814697
 23
123.379318237305
 33
16.2999992370605
 0
3DFACE
 8
STL2DXF
 10
45.4500007629395
 20
127.375
 30
11.3000001907349
 11
23.7250003814697
 21
112.375
 31
11.3000001907349
 12
23.7250003814697
 22
127.375
 32
11.3000001907349
 13
23.7250003814697
 23
127.375
 33
11.3000001907349
 0
3DFACE
 8
STL2DXF
 10
23.7250003814697
 20
112.375
 30
11.3000001907349
 11
45.4500007629395
 21
127.375
 31
11.3000001907349
 12
28.7250003814697
 22
107.375
 32
11.3000001907349
 13
28.7250003814697
 23
107.375
 33
11.3000001907349
 0
3DFACE
 8
STL2DXF
 10
28.7250003814697
 20
107.375
 30
11.3000001907349
 11
45.4500007629395
 21
127.375
 31
11.3000001907349
 12
45.4500007629395
 22
107.375
 32
11.3000001907349
 13
45.4500007629395
 23
107.375
 33
11.3000001907349
 0
3DFACE
 8
STL2DXF
 10
2.1316282072803E-14
 20
107.375
 30
12.1000003814697
 11
7.68898105621338
 21
120.856246948242
 31
12.1000003814697
 12
7.62068557739258
 22
121.375
 32
12.1000003814697
 13
7.62068557739258
 23
121.375
 33
12.1000003814697
 0
3DFACE
 8
STL2DXF
 10
7.68898105621338
 20
120.856246948242
 30
12.1000003814697
 11
2.1316282072803E-14
 21
107.375
 31
12.1000003814697
 12
7.8892126083374
 22
120.372840881348
 32
12.1000003814697
 13
7.8892126083374
 23
120.372840881348
 33
12.1000003814697
 0
3DFACE
 8
STL2DXF
 10
7.8892126083374
 20
120.372840881348
 30
12.1000003814697
 11
2.1316282072803E-14
 21
107.375
 31
12.1000003814697
 12
16.7250003814697
 22
107.375
 32
12.1000003814697
 13
16.7250003814697
 23
107.375
 33
12.1000003814697
 0
3DFACE
 8
STL2DXF
 10
7.8892126083374
 20
120.372840881348
 30
12.1000003814697
 11
16.7250003814697
 21
107.375
 31
12.1000003814697
 12
8.20773601531982
 22
119.957733154297
 32
12.1000003814697
 13
8.20773601531982
 23
119.957733154297
 33
12.1000003814697
 0
3DFACE
 8
STL2DXF
 10
8.20773601531982
 20
119.957733154297
 30
12.1000003814697
 11
16.7250003814697
 21
107.375
 31
12.1000003814697
 12
8.62284278869629
 22
119.639213562012
 32
12.1000003814697
 13
8.62284278869629
 23
119.639213562012
 33
12.1000003814697
 0
3DFACE
 8
STL2DXF
 10
8.62284278869629
 20
119.639213562012
 30
12.1000003814697
 11
16.7250003814697
 21
107.375
 31
12.1000003814697
 12
9.10624504089355
 22
119.438980102539
 32
12.1000003814697
 13
9.10624504089355
 23
119.438980102539
 33
12.1000003814697
 0
3DFACE
 8
STL2DXF
 10
9.10624504089355
 20
119.438980102539
 30
12.1000003814697
 11
16.7250003814697
 21
107.375
 31
12.1000003814697
 12
9.625
 22
119.370681762695
 32
12.1000003814697
 13
9.625
 23
119.370681762695
 33
12.1000003814697
 0
3DFACE
 8
STL2DXF
 10
9.625
 20
119.370681762695
 30
12.1000003814697
 11
16.7250003814697
 21
107.375
 31
12.1000003814697
 12
10.1437549591064
 22
119.438980102539
 32
12.1000003814697
 13
10.1437549591064
 23
119.438980102539
 33
12.1000003814697
 0
3DFACE
 8
STL2DXF
 10
10.1437549591064
 20
119.438980102539
 30
12.1000003814697
 11
16.7250003814697
 21
107.375
 31
12.1000003814697
 12
10.6271572113037
 22
119.639213562012
 32
12.1000003814697
 13
10.6271572113037
 23
119.639213562012
 33
12.1000003814697
 0
3DFACE
 8
STL2DXF
 10
10.6271572113037
 20
119.639213562012
 30
12.1000003814697
 11
16.7250003814697
 21
107.375
 31
12.1000003814697
 12
11.0422639846802
 22
119.957733154297
 32
12.1000003814697
 13
11.0422639846802
 23
119.957733154297
 33
12.1000003814697
 0
3DFACE
 8
STL2DXF
 10
11.0422639846802
 20
119.957733154297
 30
12.1000003814697
 11
16.7250003814697
 21
107.375
 31
12.1000003814697
 12
11.3607873916626
 22
120.372840881348
 32
12.1000003814697
 13
11.3607873916626
 23
120.372840881348
 33
12.1000003814697
 0
3DFACE
 8
STL2DXF
 10
11.3607873916626
 20
120.372840881348
 30
12.1000003814697
 11
16.7250003814697
 21
107.375
 31
12.1000003814697
 12
11.5610189437866
 22
120.856246948242
 32
12.1000003814697
 13
11.5610189437866
 23
120.856246948242
 33
12.1000003814697
 0
3DFACE
 8
STL2DXF
 10
11.5610189437866
 20
120.856246948242
 30
12.1000003814697
 11
16.7250003814697
 21
107.375
 31
12.1000003814697
 12
11.6293144226074
 22
121.375
 32
12.1000003814697
 13
11.6293144226074
 23
121.375
 33
12.1000003814697
 0
3DFACE
 8
STL2DXF
 10
1.77635683940025E-14
 20
127.375
 30
12.1000003814697
 11
9.10624504089355
 21
123.311019897461
 31
12.1000003814697
 12
21.7250003814697
 22
127.375
 32
12.1000003814697
 13
21.7250003814697
 23
127.375
 33
12.1000003814697
 0
3DFACE
 8
STL2DXF
 10
9.10624504089355
 20
123.311019897461
 30
12.1000003814697
 11
1.77635683940025E-14
 21
127.375
 31
12.1000003814697
 12
8.62284278869629
 22
123.110786437988
 32
12.1000003814697
 13
8.62284278869629
 23
123.110786437988
 33
12.1000003814697
 0
3DFACE
 8
STL2DXF
 10
8.62284278869629
 20
123.110786437988
 30
12.1000003814697
 11
1.77635683940025E-14
 21
127.375
 31
12.1000003814697
 12
8.20773601531982
 22
122.792266845703
 32
12.1000003814697
 13
8.20773601531982
 23
122.792266845703
 33
12.1000003814697
 0
3DFACE
 8
STL2DXF
 10
8.20773601531982
 20
122.792266845703
 30
12.1000003814697
 11
1.77635683940025E-14
 21
127.375
 31
12.1000003814697
 12
7.8892126083374
 22
122.377159118652
 32
12.1000003814697
 13
7.8892126083374
 23
122.377159118652
 33
12.1000003814697
 0
3DFACE
 8
STL2DXF
 10
7.8892126083374
 20
122.377159118652
 30
12.1000003814697
 11
1.77635683940025E-14
 21
127.375
 31
12.1000003814697
 12
2.1316282072803E-14
 22
107.375
 32
12.1000003814697
 13
2.1316282072803E-14
 23
107.375
 33
12.1000003814697
 0
3DFACE
 8
STL2DXF
 10
7.8892126083374
 20
122.377159118652
 30
12.1000003814697
 11
2.1316282072803E-14
 21
107.375
 31
12.1000003814697
 12
7.68898105621338
 22
121.893753051758
 32
12.1000003814697
 13
7.68898105621338
 23
121.893753051758
 33
12.1000003814697
 0
3DFACE
 8
STL2DXF
 10
7.68898105621338
 20
121.893753051758
 30
12.1000003814697
 11
2.1316282072803E-14
 21
107.375
 31
12.1000003814697
 12
7.62068557739258
 22
121.375
 32
12.1000003814697
 13
7.62068557739258
 23
121.375
 33
12.1000003814697
 0
3DFACE
 8
STL2DXF
 10
21.7250003814697
 20
127.375
 30
12.1000003814697
 11
9.10624504089355
 21
123.311019897461
 31
12.1000003814697
 12
9.625
 22
123.379318237305
 32
12.1000003814697
 13
9.625
 23
123.379318237305
 33
12.1000003814697
 0
3DFACE
 8
STL2DXF
 10
21.7250003814697
 20
127.375
 30
12.1000003814697
 11
9.625
 21
123.379318237305
 31
12.1000003814697
 12
10.1437549591064
 22
123.311019897461
 32
12.1000003814697
 13
10.1437549591064
 23
123.311019897461
 33
12.1000003814697
 0
3DFACE
 8
STL2DXF
 10
21.7250003814697
 20
127.375
 30
12.1000003814697
 11
10.1437549591064
 21
123.311019897461
 31
12.1000003814697
 12
10.6271572113037
 22
123.110786437988
 32
12.1000003814697
 13
10.6271572113037
 23
123.110786437988
 33
12.1000003814697
 0
3DFACE
 8
STL2DXF
 10
21.7250003814697
 20
127.375
 30
12.1000003814697
 11
10.6271572113037
 21
123.110786437988
 31
12.1000003814697
 12
11.0422639846802
 22
122.792266845703
 32
12.1000003814697
 13
11.0422639846802
 23
122.792266845703
 33
12.1000003814697
 0
3DFACE
 8
STL2DXF
 10
21.7250003814697
 20
127.375
 30
12.1000003814697
 11
11.0422639846802
 21
122.792266845703
 31
12.1000003814697
 12
11.3607873916626
 22
122.377159118652
 32
12.1000003814697
 13
11.3607873916626
 23
122.377159118652
 33
12.1000003814697
 0
3DFACE
 8
STL2DXF
 10
21.7250003814697
 20
127.375
 30
12.1000003814697
 11
11.3607873916626
 21
122.377159118652
 31
12.1000003814697
 12
11.5610189437866
 22
121.893753051758
 32
12.1000003814697
 13
11.5610189437866
 23
121.893753051758
 33
12.1000003814697
 0
3DFACE
 8
STL2DXF
 10
21.7250003814697
 20
127.375
 30
12.1000003814697
 11
11.5610189437866
 21
121.893753051758
 31
12.1000003814697
 12
11.6293144226074
 22
121.375
 32
12.1000003814697
 13
11.6293144226074
 23
121.375
 33
12.1000003814697
 0
3DFACE
 8
STL2DXF
 10
21.7250003814697
 20
127.375
 30
12.1000003814697
 11
11.6293144226074
 21
121.375
 31
12.1000003814697
 12
16.7250003814697
 22
107.375
 32
12.1000003814697
 13
16.7250003814697
 23
107.375
 33
12.1000003814697
 0
3DFACE
 8
STL2DXF
 10
21.7250003814697
 20
127.375
 30
12.1000003814697
 11
16.7250003814697
 21
107.375
 31
12.1000003814697
 12
21.7250003814697
 22
112.375
 32
12.1000003814697
 13
21.7250003814697
 23
112.375
 33
12.1000003814697
 0
3DFACE
 8
STL2DXF
 10
21.7250003814697
 20
127.375
 30
11.3000001907349
 11
2.30926389122033E-14
 21
107.375
 31
11.3000001907349
 12
1.95399252334028E-14
 22
127.375
 32
11.3000001907349
 13
1.95399252334028E-14
 23
127.375
 33
11.3000001907349
 0
3DFACE
 8
STL2DXF
 10
2.30926389122033E-14
 20
107.375
 30
11.3000001907349
 11
21.7250003814697
 21
127.375
 31
11.3000001907349
 12
16.7250003814697
 22
107.375
 32
11.3000001907349
 13
16.7250003814697
 23
107.375
 33
11.3000001907349
 0
3DFACE
 8
STL2DXF
 10
16.7250003814697
 20
107.375
 30
11.3000001907349
 11
21.7250003814697
 21
127.375
 31
11.3000001907349
 12
21.7250003814697
 22
112.375
 32
11.3000001907349
 13
21.7250003814697
 23
112.375
 33
11.3000001907349
 0
ENDSEC
 0
EOF
