 999
Conversion of STL file (binary) from www.cadforum.cz; drag the file into AutoCAD or load it with _DXFIN
 0
SECTION
 2
ENTITIES
 0
3DFACE
 8
STL2DXF
 10
72.1213226318359
 20
70
 30
4.43263488251761E-14
 11
66.060661315918
 21
63.939338684082
 31
0.5
 12
66.060661315918
 22
63.939338684082
 32
3.9303284205764E-14
 13
66.060661315918
 23
63.939338684082
 33
3.9303284205764E-14
 0
3DFACE
 8
STL2DXF
 10
66.060661315918
 20
63.939338684082
 30
0.5
 11
72.1213226318359
 21
70
 31
4.43263488251761E-14
 12
72.1213226318359
 22
70
 32
0.5
 13
72.1213226318359
 23
70
 33
0.5
 0
3DFACE
 8
STL2DXF
 10
66.060661315918
 20
63.939338684082
 30
0.5
 11
65.75
 21
63.7009620666504
 31
3.9303284205764E-14
 12
66.060661315918
 22
63.939338684082
 32
3.9303284205764E-14
 13
66.060661315918
 23
63.939338684082
 33
3.9303284205764E-14
 0
3DFACE
 8
STL2DXF
 10
65.75
 20
63.7009620666504
 30
3.9303284205764E-14
 11
66.060661315918
 21
63.939338684082
 31
0.5
 12
65.75
 22
63.7009620666504
 32
5.5
 13
65.75
 23
63.7009620666504
 33
5.5
 0
3DFACE
 8
STL2DXF
 10
65.75
 20
63.7009620666504
 30
5.5
 11
66.060661315918
 21
63.939338684082
 31
0.5
 12
66.060661315918
 22
63.939338684082
 32
5.5
 13
66.060661315918
 23
63.939338684082
 33
5.5
 0
3DFACE
 8
STL2DXF
 10
56.060661315918
 20
63.939338684082
 30
5.5
 11
55.75
 21
63.7009620666504
 31
2.28241040569352E-14
 12
56.060661315918
 22
63.939338684082
 32
2.24716079078036E-14
 13
56.060661315918
 23
63.939338684082
 33
2.24716079078036E-14
 0
3DFACE
 8
STL2DXF
 10
55.75
 20
63.7009620666504
 30
2.28241040569352E-14
 11
56.060661315918
 21
63.939338684082
 31
5.5
 12
55.75
 22
63.7009620666504
 32
5.5
 13
55.75
 23
63.7009620666504
 33
5.5
 0
3DFACE
 8
STL2DXF
 10
55.3882293701172
 20
56.4488868713379
 30
2.50272028714258E-14
 11
55.75
 21
56.2990379333496
 31
5.5
 12
55.75
 22
56.2990379333496
 32
2.3617219968965E-14
 13
55.75
 23
56.2990379333496
 33
2.3617219968965E-14
 0
3DFACE
 8
STL2DXF
 10
55.75
 20
56.2990379333496
 30
5.5
 11
55.3882293701172
 21
56.4488868713379
 31
2.50272028714258E-14
 12
55.3882293701172
 22
56.4488868713379
 32
5.5
 13
55.3882293701172
 23
56.4488868713379
 33
5.5
 0
3DFACE
 8
STL2DXF
 10
56.060661315918
 20
66.060661315918
 30
2.24716079078036E-14
 11
56.2990379333496
 21
65.75
 31
5.5
 12
56.2990379333496
 22
65.75
 32
2.17666156095402E-14
 13
56.2990379333496
 23
65.75
 33
2.17666156095402E-14
 0
3DFACE
 8
STL2DXF
 10
56.2990379333496
 20
65.75
 30
5.5
 11
56.060661315918
 21
66.060661315918
 31
2.24716079078036E-14
 12
56.060661315918
 22
66.060661315918
 32
5.5
 13
56.060661315918
 23
66.060661315918
 33
5.5
 0
3DFACE
 8
STL2DXF
 10
56.060661315918
 20
66.060661315918
 30
5.5
 11
56.060661315918
 21
66.060661315918
 31
2.24716079078036E-14
 12
56.060661315918
 22
66.060661315918
 32
0.5
 13
56.060661315918
 23
66.060661315918
 33
0.5
 0
3DFACE
 8
STL2DXF
 10
55.3882293701172
 20
63.5511131286621
 30
5.5
 11
55
 21
63.5
 31
2.38815908102643E-14
 12
55.3882293701172
 22
63.5511131286621
 32
2.31766002060669E-14
 13
55.3882293701172
 23
63.5511131286621
 33
2.31766002060669E-14
 0
3DFACE
 8
STL2DXF
 10
55
 20
63.5
 30
2.38815908102643E-14
 11
55.3882293701172
 21
63.5511131286621
 31
5.5
 12
55
 22
63.5
 32
5.5
 13
55
 23
63.5
 33
5.5
 0
3DFACE
 8
STL2DXF
 10
56.2990379333496
 20
54.25
 30
2.22072353724383E-14
 11
56.060661315918
 21
53.939338684082
 31
0.5
 12
56.060661315918
 22
53.939338684082
 32
2.22072353724383E-14
 13
56.060661315918
 23
53.939338684082
 33
2.22072353724383E-14
 0
3DFACE
 8
STL2DXF
 10
56.060661315918
 20
53.939338684082
 30
0.5
 11
56.2990379333496
 21
54.25
 31
2.22072353724383E-14
 12
56.060661315918
 22
53.939338684082
 32
5.5
 13
56.060661315918
 23
53.939338684082
 33
5.5
 0
3DFACE
 8
STL2DXF
 10
56.060661315918
 20
53.939338684082
 30
5.5
 11
56.2990379333496
 21
54.25
 31
2.22072353724383E-14
 12
56.2990379333496
 22
54.25
 32
5.5
 13
56.2990379333496
 23
54.25
 33
5.5
 0
3DFACE
 8
STL2DXF
 10
53.939338684082
 20
56.060661315918
 30
2.64371857738865E-14
 11
54.25
 21
56.2990379333496
 31
5.5
 12
54.25
 22
56.2990379333496
 32
2.50272028714258E-14
 13
54.25
 23
56.2990379333496
 33
2.50272028714258E-14
 0
3DFACE
 8
STL2DXF
 10
54.25
 20
56.2990379333496
 30
5.5
 11
53.939338684082
 21
56.060661315918
 31
2.64371857738865E-14
 12
53.939338684082
 22
56.060661315918
 32
0.5
 13
53.939338684082
 23
56.060661315918
 33
0.5
 0
3DFACE
 8
STL2DXF
 10
54.25
 20
56.2990379333496
 30
5.5
 11
53.939338684082
 21
56.060661315918
 31
0.5
 12
53.939338684082
 22
56.060661315918
 32
5.5
 13
53.939338684082
 23
56.060661315918
 33
5.5
 0
3DFACE
 8
STL2DXF
 10
63.939338684082
 20
56.060661315918
 30
2.81996644019625E-15
 11
64.25
 21
56.2990379333496
 31
5.5
 12
64.25
 22
56.2990379333496
 32
2.11497477720763E-15
 13
64.25
 23
56.2990379333496
 33
2.11497477720763E-15
 0
3DFACE
 8
STL2DXF
 10
64.25
 20
56.2990379333496
 30
5.5
 11
63.939338684082
 21
56.060661315918
 31
2.81996644019625E-15
 12
63.939338684082
 22
56.060661315918
 32
5.5
 13
63.939338684082
 23
56.060661315918
 33
5.5
 0
3DFACE
 8
STL2DXF
 10
53.939338684082
 20
63.939338684082
 30
0.5
 11
47.8786811828613
 21
70
 31
2.70540527643175E-14
 12
53.939338684082
 22
63.939338684082
 32
2.52915737127251E-14
 13
53.939338684082
 23
63.939338684082
 33
2.52915737127251E-14
 0
3DFACE
 8
STL2DXF
 10
47.8786811828613
 20
70
 30
2.70540527643175E-14
 11
53.939338684082
 21
63.939338684082
 31
0.5
 12
47.8786811828613
 22
70
 32
0.5
 13
47.8786811828613
 23
70
 33
0.5
 0
3DFACE
 8
STL2DXF
 10
63.5
 20
65
 30
5.5
 11
63.5511131286621
 21
64.6117706298828
 31
4.28282423089489E-14
 12
63.5511131286621
 22
64.6117706298828
 32
5.5
 13
63.5511131286621
 23
64.6117706298828
 33
5.5
 0
3DFACE
 8
STL2DXF
 10
63.5511131286621
 20
64.6117706298828
 30
4.28282423089489E-14
 11
63.5
 21
65
 31
5.5
 12
63.5
 22
65
 32
4.28282423089489E-14
 13
63.5
 23
65
 33
4.28282423089489E-14
 0
3DFACE
 8
STL2DXF
 10
63.5511131286621
 20
64.6117706298828
 30
5.5
 11
63.7009620666504
 21
64.25
 31
4.28282423089489E-14
 12
63.7009620666504
 22
64.25
 32
5.5
 13
63.7009620666504
 23
64.25
 33
5.5
 0
3DFACE
 8
STL2DXF
 10
63.7009620666504
 20
64.25
 30
4.28282423089489E-14
 11
63.5511131286621
 21
64.6117706298828
 31
5.5
 12
63.5511131286621
 22
64.6117706298828
 32
4.28282423089489E-14
 13
63.5511131286621
 23
64.6117706298828
 33
4.28282423089489E-14
 0
3DFACE
 8
STL2DXF
 10
64.25
 20
63.7009620666504
 30
5.5
 11
63.939338684082
 21
63.939338684082
 31
4.21232500106856E-14
 12
64.25
 22
63.7009620666504
 32
4.21232500106856E-14
 13
64.25
 23
63.7009620666504
 33
4.21232500106856E-14
 0
3DFACE
 8
STL2DXF
 10
63.939338684082
 20
63.939338684082
 30
4.21232500106856E-14
 11
64.25
 21
63.7009620666504
 31
5.5
 12
63.939338684082
 22
63.939338684082
 32
5.5
 13
63.939338684082
 23
63.939338684082
 33
5.5
 0
3DFACE
 8
STL2DXF
 10
70
 20
72.1213226318359
 30
0.5
 11
63.939338684082
 21
66.060661315918
 31
4.21232500106856E-14
 12
63.939338684082
 22
66.060661315918
 32
0.5
 13
63.939338684082
 23
66.060661315918
 33
0.5
 0
3DFACE
 8
STL2DXF
 10
63.939338684082
 20
66.060661315918
 30
4.21232500106856E-14
 11
70
 21
72.1213226318359
 31
0.5
 12
70
 22
72.1213226318359
 32
4.42382235173438E-14
 13
70
 23
72.1213226318359
 33
4.42382235173438E-14
 0
3DFACE
 8
STL2DXF
 10
63.5511131286621
 20
65.3882293701172
 30
5.5
 11
63.5
 21
65
 31
4.28282423089489E-14
 12
63.5
 22
65
 32
5.5
 13
63.5
 23
65
 33
5.5
 0
3DFACE
 8
STL2DXF
 10
63.5
 20
65
 30
4.28282423089489E-14
 11
63.5511131286621
 21
65.3882293701172
 31
5.5
 12
63.5511131286621
 22
65.3882293701172
 32
4.28282423089489E-14
 13
63.5511131286621
 23
65.3882293701172
 33
4.28282423089489E-14
 0
3DFACE
 8
STL2DXF
 10
64.6117706298828
 20
63.5511131286621
 30
5.5
 11
64.25
 21
63.7009620666504
 31
4.21232500106856E-14
 12
64.6117706298828
 22
63.5511131286621
 32
4.14182577124222E-14
 13
64.6117706298828
 23
63.5511131286621
 33
4.14182577124222E-14
 0
3DFACE
 8
STL2DXF
 10
64.25
 20
63.7009620666504
 30
4.21232500106856E-14
 11
64.6117706298828
 21
63.5511131286621
 31
5.5
 12
64.25
 22
63.7009620666504
 32
5.5
 13
64.25
 23
63.7009620666504
 33
5.5
 0
3DFACE
 8
STL2DXF
 10
64.6117706298828
 20
56.4488868713379
 30
5.5
 11
65
 21
56.5
 31
1.40998322009813E-15
 12
64.6117706298828
 22
56.4488868713379
 32
1.40998322009813E-15
 13
64.6117706298828
 23
56.4488868713379
 33
1.40998322009813E-15
 0
3DFACE
 8
STL2DXF
 10
65
 20
56.5
 30
1.40998322009813E-15
 11
64.6117706298828
 21
56.4488868713379
 31
5.5
 12
65
 22
56.5
 32
5.5
 13
65
 23
56.5
 33
5.5
 0
3DFACE
 8
STL2DXF
 10
47.8786811828613
 20
50
 30
0.5
 11
53.939338684082
 21
56.060661315918
 31
2.64371857738865E-14
 12
47.8786811828613
 22
50
 32
2.44103341869289E-14
 13
47.8786811828613
 23
50
 33
2.44103341869289E-14
 0
3DFACE
 8
STL2DXF
 10
53.939338684082
 20
56.060661315918
 30
2.64371857738865E-14
 11
47.8786811828613
 21
50
 31
0.5
 12
53.939338684082
 22
56.060661315918
 32
0.5
 13
53.939338684082
 23
56.060661315918
 33
0.5
 0
3DFACE
 8
STL2DXF
 10
63.7009620666504
 20
64.25
 30
5.5
 11
63.939338684082
 21
63.939338684082
 31
4.21232500106856E-14
 12
63.939338684082
 22
63.939338684082
 32
5.5
 13
63.939338684082
 23
63.939338684082
 33
5.5
 0
3DFACE
 8
STL2DXF
 10
63.939338684082
 20
63.939338684082
 30
4.21232500106856E-14
 11
63.7009620666504
 21
64.25
 31
5.5
 12
63.7009620666504
 22
64.25
 32
4.28282423089489E-14
 13
63.7009620666504
 23
64.25
 33
4.28282423089489E-14
 0
3DFACE
 8
STL2DXF
 10
55.75
 20
63.7009620666504
 30
5.5
 11
55.3882293701172
 21
63.5511131286621
 31
2.31766002060669E-14
 12
55.75
 22
63.7009620666504
 32
2.28241040569352E-14
 13
55.75
 23
63.7009620666504
 33
2.28241040569352E-14
 0
3DFACE
 8
STL2DXF
 10
55.3882293701172
 20
63.5511131286621
 30
2.31766002060669E-14
 11
55.75
 21
63.7009620666504
 31
5.5
 12
55.3882293701172
 22
63.5511131286621
 32
5.5
 13
55.3882293701172
 23
63.5511131286621
 33
5.5
 0
3DFACE
 8
STL2DXF
 10
56.060661315918
 20
53.939338684082
 30
2.22072353724383E-14
 11
50
 21
47.8786811828613
 31
0.5
 12
50
 22
47.8786811828613
 32
2.12378722328757E-14
 13
50
 23
47.8786811828613
 33
2.12378722328757E-14
 0
3DFACE
 8
STL2DXF
 10
50
 20
47.8786811828613
 30
0.5
 11
56.060661315918
 21
53.939338684082
 31
2.22072353724383E-14
 12
56.060661315918
 22
53.939338684082
 32
0.5
 13
56.060661315918
 23
53.939338684082
 33
0.5
 0
3DFACE
 8
STL2DXF
 10
54.25
 20
63.7009620666504
 30
5.5
 11
53.939338684082
 21
63.939338684082
 31
2.52915737127251E-14
 12
54.25
 22
63.7009620666504
 32
2.49390792576593E-14
 13
54.25
 23
63.7009620666504
 33
2.49390792576593E-14
 0
3DFACE
 8
STL2DXF
 10
53.939338684082
 20
63.939338684082
 30
2.52915737127251E-14
 11
54.25
 21
63.7009620666504
 31
5.5
 12
53.939338684082
 22
63.939338684082
 32
0.5
 13
53.939338684082
 23
63.939338684082
 33
0.5
 0
3DFACE
 8
STL2DXF
 10
53.939338684082
 20
63.939338684082
 30
0.5
 11
54.25
 21
63.7009620666504
 31
5.5
 12
53.939338684082
 22
63.939338684082
 32
5.5
 13
53.939338684082
 23
63.939338684082
 33
5.5
 0
3DFACE
 8
STL2DXF
 10
55
 20
63.5
 30
5.5
 11
54.6117706298828
 21
63.5511131286621
 31
2.45865831085277E-14
 12
55
 22
63.5
 32
2.38815908102643E-14
 13
55
 23
63.5
 33
2.38815908102643E-14
 0
3DFACE
 8
STL2DXF
 10
54.6117706298828
 20
63.5511131286621
 30
2.45865831085277E-14
 11
55
 21
63.5
 31
5.5
 12
54.6117706298828
 22
63.5511131286621
 32
5.5
 13
54.6117706298828
 23
63.5511131286621
 33
5.5
 0
3DFACE
 8
STL2DXF
 10
63.7009620666504
 20
65.75
 30
5.5
 11
63.5511131286621
 21
65.3882293701172
 31
4.28282423089489E-14
 12
63.5511131286621
 22
65.3882293701172
 32
5.5
 13
63.5511131286621
 23
65.3882293701172
 33
5.5
 0
3DFACE
 8
STL2DXF
 10
63.5511131286621
 20
65.3882293701172
 30
4.28282423089489E-14
 11
63.7009620666504
 21
65.75
 31
5.5
 12
63.7009620666504
 22
65.75
 32
4.28282423089489E-14
 13
63.7009620666504
 23
65.75
 33
4.28282423089489E-14
 0
3DFACE
 8
STL2DXF
 10
54.6117706298828
 20
63.5511131286621
 30
5.5
 11
54.25
 21
63.7009620666504
 31
2.49390792576593E-14
 12
54.6117706298828
 22
63.5511131286621
 32
2.45865831085277E-14
 13
54.6117706298828
 23
63.5511131286621
 33
2.45865831085277E-14
 0
3DFACE
 8
STL2DXF
 10
54.25
 20
63.7009620666504
 30
2.49390792576593E-14
 11
54.6117706298828
 21
63.5511131286621
 31
5.5
 12
54.25
 22
63.7009620666504
 32
5.5
 13
54.25
 23
63.7009620666504
 33
5.5
 0
3DFACE
 8
STL2DXF
 10
63.939338684082
 20
56.060661315918
 30
5.5
 11
63.7009620666504
 21
55.75
 31
2.81996644019625E-15
 12
63.7009620666504
 22
55.75
 32
5.5
 13
63.7009620666504
 23
55.75
 33
5.5
 0
3DFACE
 8
STL2DXF
 10
63.7009620666504
 20
55.75
 30
2.81996644019625E-15
 11
63.939338684082
 21
56.060661315918
 31
5.5
 12
63.939338684082
 22
56.060661315918
 32
2.81996644019625E-15
 13
63.939338684082
 23
56.060661315918
 33
2.81996644019625E-15
 0
3DFACE
 8
STL2DXF
 10
56.2990379333496
 20
65.75
 30
2.17666156095402E-14
 11
56.4488868713379
 21
65.3882293701172
 31
5.5
 12
56.4488868713379
 22
65.3882293701172
 32
2.17666156095402E-14
 13
56.4488868713379
 23
65.3882293701172
 33
2.17666156095402E-14
 0
3DFACE
 8
STL2DXF
 10
56.4488868713379
 20
65.3882293701172
 30
5.5
 11
56.2990379333496
 21
65.75
 31
2.17666156095402E-14
 12
56.2990379333496
 22
65.75
 32
5.5
 13
56.2990379333496
 23
65.75
 33
5.5
 0
3DFACE
 8
STL2DXF
 10
70
 20
47.8786811828613
 30
0.5
 11
64.25
 21
53.7009620666504
 31
0.5
 12
63.939338684082
 22
53.939338684082
 32
0.5
 13
63.939338684082
 23
53.939338684082
 33
0.5
 0
3DFACE
 8
STL2DXF
 10
64.25
 20
53.7009620666504
 30
0.5
 11
70
 21
47.8786811828613
 31
0.5
 12
64.6117706298828
 22
53.5511131286621
 32
0.5
 13
64.6117706298828
 23
53.5511131286621
 33
0.5
 0
3DFACE
 8
STL2DXF
 10
64.6117706298828
 20
53.5511131286621
 30
0.5
 11
70
 21
47.8786811828613
 31
0.5
 12
65
 22
53.5
 32
0.5
 13
65
 23
53.5
 33
0.5
 0
3DFACE
 8
STL2DXF
 10
65
 20
53.5
 30
0.5
 11
70
 21
47.8786811828613
 31
0.5
 12
65.3882293701172
 22
53.5511131286621
 32
0.5
 13
65.3882293701172
 23
53.5511131286621
 33
0.5
 0
3DFACE
 8
STL2DXF
 10
65.3882293701172
 20
53.5511131286621
 30
0.5
 11
70
 21
47.8786811828613
 31
0.5
 12
65.75
 22
53.7009620666504
 32
0.5
 13
65.75
 23
53.7009620666504
 33
0.5
 0
3DFACE
 8
STL2DXF
 10
65.75
 20
53.7009620666504
 30
0.5
 11
70
 21
47.8786811828613
 31
0.5
 12
66.060661315918
 22
53.939338684082
 32
0.5
 13
66.060661315918
 23
53.939338684082
 33
0.5
 0
3DFACE
 8
STL2DXF
 10
66.060661315918
 20
53.939338684082
 30
0.5
 11
70
 21
47.8786811828613
 31
0.5
 12
66.2990417480469
 22
54.25
 32
0.5
 13
66.2990417480469
 23
54.25
 33
0.5
 0
3DFACE
 8
STL2DXF
 10
66.2990417480469
 20
54.25
 30
0.5
 11
70
 21
47.8786811828613
 31
0.5
 12
66.4488906860352
 22
54.6117706298828
 32
0.5
 13
66.4488906860352
 23
54.6117706298828
 33
0.5
 0
3DFACE
 8
STL2DXF
 10
66.4488906860352
 20
54.6117706298828
 30
0.5
 11
70
 21
47.8786811828613
 31
0.5
 12
66.5
 22
55
 32
0.5
 13
66.5
 23
55
 33
0.5
 0
3DFACE
 8
STL2DXF
 10
85
 20
10
 30
0.5
 11
80
 21
37.8786811828613
 31
0.5
 12
80
 22
15
 32
0.5
 13
80
 23
15
 33
0.5
 0
3DFACE
 8
STL2DXF
 10
80
 20
37.8786811828613
 30
0.5
 11
85
 21
10
 31
0.5
 12
82.1213226318359
 22
40
 32
0.5
 13
82.1213226318359
 23
40
 33
0.5
 0
3DFACE
 8
STL2DXF
 10
82.1213226318359
 20
40
 30
0.5
 11
85
 21
10
 31
0.5
 12
105
 22
40
 32
0.5
 13
105
 23
40
 33
0.5
 0
3DFACE
 8
STL2DXF
 10
105
 20
40
 30
0.5
 11
85
 21
10
 31
0.5
 12
105
 22
10
 32
0.5
 13
105
 23
10
 33
0.5
 0
3DFACE
 8
STL2DXF
 10
105
 20
40
 30
0.5
 11
105
 21
10
 31
0.5
 12
110
 22
15
 32
0.5
 13
110
 23
15
 33
0.5
 0
3DFACE
 8
STL2DXF
 10
105
 20
40
 30
0.5
 11
110
 21
15
 31
0.5
 12
110
 22
35
 32
0.5
 13
110
 23
35
 33
0.5
 0
3DFACE
 8
STL2DXF
 10
66.2990417480469
 20
55.75
 30
0.5
 11
72.1213226318359
 21
50
 31
0.5
 12
66.060661315918
 22
56.060661315918
 32
0.5
 13
66.060661315918
 23
56.060661315918
 33
0.5
 0
3DFACE
 8
STL2DXF
 10
72.1213226318359
 20
50
 30
0.5
 11
66.2990417480469
 21
55.75
 31
0.5
 12
66.4488906860352
 22
55.3882293701172
 32
0.5
 13
66.4488906860352
 23
55.3882293701172
 33
0.5
 0
3DFACE
 8
STL2DXF
 10
72.1213226318359
 20
50
 30
0.5
 11
66.4488906860352
 21
55.3882293701172
 31
0.5
 12
66.5
 22
55
 32
0.5
 13
66.5
 23
55
 33
0.5
 0
3DFACE
 8
STL2DXF
 10
72.1213226318359
 20
50
 30
0.5
 11
66.5
 21
55
 31
0.5
 12
70
 22
47.8786811828613
 32
0.5
 13
70
 23
47.8786811828613
 33
0.5
 0
3DFACE
 8
STL2DXF
 10
72.1213226318359
 20
50
 30
0.5
 11
70
 21
47.8786811828613
 31
0.5
 12
80
 22
37.8786811828613
 32
0.5
 13
80
 23
37.8786811828613
 33
0.5
 0
3DFACE
 8
STL2DXF
 10
72.1213226318359
 20
50
 30
0.5
 11
80
 21
37.8786811828613
 31
0.5
 12
82.1213226318359
 22
40
 32
0.5
 13
82.1213226318359
 23
40
 33
0.5
 0
3DFACE
 8
STL2DXF
 10
64.25
 20
56.2990379333496
 30
2.11497477720763E-15
 11
64.6117706298828
 21
56.4488868713379
 31
5.5
 12
64.6117706298828
 22
56.4488868713379
 32
1.40998322009813E-15
 13
64.6117706298828
 23
56.4488868713379
 33
1.40998322009813E-15
 0
3DFACE
 8
STL2DXF
 10
64.6117706298828
 20
56.4488868713379
 30
5.5
 11
64.25
 21
56.2990379333496
 31
2.11497477720763E-15
 12
64.25
 22
56.2990379333496
 32
5.5
 13
64.25
 23
56.2990379333496
 33
5.5
 0
3DFACE
 8
STL2DXF
 10
56.4488868713379
 20
64.6117706298828
 30
2.17666156095402E-14
 11
56.2990379333496
 21
64.25
 31
5.5
 12
56.2990379333496
 22
64.25
 32
2.17666156095402E-14
 13
56.2990379333496
 23
64.25
 33
2.17666156095402E-14
 0
3DFACE
 8
STL2DXF
 10
56.2990379333496
 20
64.25
 30
5.5
 11
56.4488868713379
 21
64.6117706298828
 31
2.17666156095402E-14
 12
56.4488868713379
 22
64.6117706298828
 32
5.5
 13
56.4488868713379
 23
64.6117706298828
 33
5.5
 0
3DFACE
 8
STL2DXF
 10
65.75
 20
56.2990379333496
 30
5.5
 11
66.060661315918
 21
56.060661315918
 31
5.87747175411144E-39
 12
65.75
 22
56.2990379333496
 32
5.87747175411144E-39
 13
65.75
 23
56.2990379333496
 33
5.87747175411144E-39
 0
3DFACE
 8
STL2DXF
 10
66.060661315918
 20
56.060661315918
 30
5.87747175411144E-39
 11
65.75
 21
56.2990379333496
 31
5.5
 12
66.060661315918
 22
56.060661315918
 32
0.5
 13
66.060661315918
 23
56.060661315918
 33
0.5
 0
3DFACE
 8
STL2DXF
 10
66.060661315918
 20
56.060661315918
 30
0.5
 11
65.75
 21
56.2990379333496
 31
5.5
 12
66.060661315918
 22
56.060661315918
 32
5.5
 13
66.060661315918
 23
56.060661315918
 33
5.5
 0
3DFACE
 8
STL2DXF
 10
56.4488868713379
 20
65.3882293701172
 30
2.17666156095402E-14
 11
56.5
 21
65
 31
5.5
 12
56.5
 22
65
 32
2.17666156095402E-14
 13
56.5
 23
65
 33
2.17666156095402E-14
 0
3DFACE
 8
STL2DXF
 10
56.5
 20
65
 30
5.5
 11
56.4488868713379
 21
65.3882293701172
 31
2.17666156095402E-14
 12
56.4488868713379
 22
65.3882293701172
 32
5.5
 13
56.4488868713379
 23
65.3882293701172
 33
5.5
 0
3DFACE
 8
STL2DXF
 10
56.5
 20
65
 30
2.17666156095402E-14
 11
56.4488868713379
 21
64.6117706298828
 31
5.5
 12
56.4488868713379
 22
64.6117706298828
 32
2.17666156095402E-14
 13
56.4488868713379
 23
64.6117706298828
 33
2.17666156095402E-14
 0
3DFACE
 8
STL2DXF
 10
56.4488868713379
 20
64.6117706298828
 30
5.5
 11
56.5
 21
65
 31
2.17666156095402E-14
 12
56.5
 22
65
 32
5.5
 13
56.5
 23
65
 33
5.5
 0
3DFACE
 8
STL2DXF
 10
65.75
 20
63.7009620666504
 30
5.5
 11
65.3882293701172
 21
63.5511131286621
 31
4.00082731158956E-14
 12
65.75
 22
63.7009620666504
 32
3.9303284205764E-14
 13
65.75
 23
63.7009620666504
 33
3.9303284205764E-14
 0
3DFACE
 8
STL2DXF
 10
65.3882293701172
 20
63.5511131286621
 30
4.00082731158956E-14
 11
65.75
 21
63.7009620666504
 31
5.5
 12
65.3882293701172
 22
63.5511131286621
 32
5.5
 13
65.3882293701172
 23
63.5511131286621
 33
5.5
 0
3DFACE
 8
STL2DXF
 10
65.3882293701172
 20
56.4488868713379
 30
5.5
 11
65.75
 21
56.2990379333496
 31
5.87747175411144E-39
 12
65.3882293701172
 22
56.4488868713379
 32
5.87747175411144E-39
 13
65.3882293701172
 23
56.4488868713379
 33
5.87747175411144E-39
 0
3DFACE
 8
STL2DXF
 10
65.75
 20
56.2990379333496
 30
5.87747175411144E-39
 11
65.3882293701172
 21
56.4488868713379
 31
5.5
 12
65.75
 22
56.2990379333496
 32
5.5
 13
65.75
 23
56.2990379333496
 33
5.5
 0
3DFACE
 8
STL2DXF
 10
72.1213226318359
 20
70
 30
0.5
 11
66.2990417480469
 21
64.25
 31
0.5
 12
66.060661315918
 22
63.939338684082
 32
0.5
 13
66.060661315918
 23
63.939338684082
 33
0.5
 0
3DFACE
 8
STL2DXF
 10
66.2990417480469
 20
64.25
 30
0.5
 11
72.1213226318359
 21
70
 31
0.5
 12
66.4488906860352
 22
64.6117706298828
 32
0.5
 13
66.4488906860352
 23
64.6117706298828
 33
0.5
 0
3DFACE
 8
STL2DXF
 10
66.4488906860352
 20
64.6117706298828
 30
0.5
 11
72.1213226318359
 21
70
 31
0.5
 12
66.5
 22
65
 32
0.5
 13
66.5
 23
65
 33
0.5
 0
3DFACE
 8
STL2DXF
 10
66.5
 20
65
 30
0.5
 11
72.1213226318359
 21
70
 31
0.5
 12
70
 22
72.1213226318359
 32
0.5
 13
70
 23
72.1213226318359
 33
0.5
 0
3DFACE
 8
STL2DXF
 10
70
 20
72.1213226318359
 30
0.5
 11
72.1213226318359
 21
70
 31
0.5
 12
80
 22
82.1213226318359
 32
0.5
 13
80
 23
82.1213226318359
 33
0.5
 0
3DFACE
 8
STL2DXF
 10
80
 20
82.1213226318359
 30
0.5
 11
72.1213226318359
 21
70
 31
0.5
 12
82.1213226318359
 22
80
 32
0.5
 13
82.1213226318359
 23
80
 33
0.5
 0
3DFACE
 8
STL2DXF
 10
80
 20
82.1213226318359
 30
0.5
 11
82.1213226318359
 21
80
 31
0.5
 12
80
 22
105
 32
0.5
 13
80
 23
105
 33
0.5
 0
3DFACE
 8
STL2DXF
 10
80
 20
105
 30
0.5
 11
82.1213226318359
 21
80
 31
0.5
 12
85
 22
110
 32
0.5
 13
85
 23
110
 33
0.5
 0
3DFACE
 8
STL2DXF
 10
85
 20
110
 30
0.5
 11
82.1213226318359
 21
80
 31
0.5
 12
105
 22
80
 32
0.5
 13
105
 23
80
 33
0.5
 0
3DFACE
 8
STL2DXF
 10
85
 20
110
 30
0.5
 11
105
 21
80
 31
0.5
 12
105
 22
110
 32
0.5
 13
105
 23
110
 33
0.5
 0
3DFACE
 8
STL2DXF
 10
105
 20
110
 30
0.5
 11
105
 21
80
 31
0.5
 12
110
 22
85
 32
0.5
 13
110
 23
85
 33
0.5
 0
3DFACE
 8
STL2DXF
 10
105
 20
110
 30
0.5
 11
110
 21
85
 31
0.5
 12
110
 22
105
 32
0.5
 13
110
 23
105
 33
0.5
 0
3DFACE
 8
STL2DXF
 10
64.25
 20
66.2990417480469
 30
0.5
 11
70
 21
72.1213226318359
 31
0.5
 12
63.939338684082
 22
66.060661315918
 32
0.5
 13
63.939338684082
 23
66.060661315918
 33
0.5
 0
3DFACE
 8
STL2DXF
 10
70
 20
72.1213226318359
 30
0.5
 11
64.25
 21
66.2990417480469
 31
0.5
 12
64.6117706298828
 22
66.4488906860352
 32
0.5
 13
64.6117706298828
 23
66.4488906860352
 33
0.5
 0
3DFACE
 8
STL2DXF
 10
70
 20
72.1213226318359
 30
0.5
 11
64.6117706298828
 21
66.4488906860352
 31
0.5
 12
65
 22
66.5
 32
0.5
 13
65
 23
66.5
 33
0.5
 0
3DFACE
 8
STL2DXF
 10
70
 20
72.1213226318359
 30
0.5
 11
65
 21
66.5
 31
0.5
 12
65.3882293701172
 22
66.4488906860352
 32
0.5
 13
65.3882293701172
 23
66.4488906860352
 33
0.5
 0
3DFACE
 8
STL2DXF
 10
70
 20
72.1213226318359
 30
0.5
 11
65.3882293701172
 21
66.4488906860352
 31
0.5
 12
65.75
 22
66.2990417480469
 32
0.5
 13
65.75
 23
66.2990417480469
 33
0.5
 0
3DFACE
 8
STL2DXF
 10
70
 20
72.1213226318359
 30
0.5
 11
65.75
 21
66.2990417480469
 31
0.5
 12
66.060661315918
 22
66.060661315918
 32
0.5
 13
66.060661315918
 23
66.060661315918
 33
0.5
 0
3DFACE
 8
STL2DXF
 10
70
 20
72.1213226318359
 30
0.5
 11
66.060661315918
 21
66.060661315918
 31
0.5
 12
66.2990417480469
 22
65.75
 32
0.5
 13
66.2990417480469
 23
65.75
 33
0.5
 0
3DFACE
 8
STL2DXF
 10
70
 20
72.1213226318359
 30
0.5
 11
66.2990417480469
 21
65.75
 31
0.5
 12
66.4488906860352
 22
65.3882293701172
 32
0.5
 13
66.4488906860352
 23
65.3882293701172
 33
0.5
 0
3DFACE
 8
STL2DXF
 10
70
 20
72.1213226318359
 30
0.5
 11
66.4488906860352
 21
65.3882293701172
 31
0.5
 12
66.5
 22
65
 32
0.5
 13
66.5
 23
65
 33
0.5
 0
3DFACE
 8
STL2DXF
 10
15
 20
110
 30
0.5
 11
35
 21
110
 31
3.16697622987361E-14
 12
15
 22
110
 32
3.14503231671568E-14
 13
15
 23
110
 33
3.14503231671568E-14
 0
3DFACE
 8
STL2DXF
 10
35
 20
110
 30
3.16697622987361E-14
 11
15
 21
110
 31
0.5
 12
35
 22
110
 32
0.5
 13
35
 23
110
 33
0.5
 0
3DFACE
 8
STL2DXF
 10
85
 20
110
 30
0.5
 11
105
 21
110
 31
3.17246229286638E-14
 12
85
 22
110
 32
3.17246229286638E-14
 13
85
 23
110
 33
3.17246229286638E-14
 0
3DFACE
 8
STL2DXF
 10
105
 20
110
 30
3.17246229286638E-14
 11
85
 21
110
 31
0.5
 12
105
 22
110
 32
0.5
 13
105
 23
110
 33
0.5
 0
3DFACE
 8
STL2DXF
 10
110
 20
105
 30
3.17246229286638E-14
 11
110
 21
85
 31
0.5
 12
110
 22
85
 32
3.17246229286638E-14
 13
110
 23
85
 33
3.17246229286638E-14
 0
3DFACE
 8
STL2DXF
 10
110
 20
85
 30
0.5
 11
110
 21
105
 31
3.17246229286638E-14
 12
110
 22
105
 32
0.5
 13
110
 23
105
 33
0.5
 0
3DFACE
 8
STL2DXF
 10
105
 20
10
 30
0.5
 11
85
 21
10
 31
3.8168585317095E-14
 12
105
 22
10
 32
3.30134140510974E-14
 13
105
 23
10
 33
3.30134140510974E-14
 0
3DFACE
 8
STL2DXF
 10
85
 20
10
 30
3.8168585317095E-14
 11
105
 21
10
 31
0.5
 12
85
 22
10
 32
0.5
 13
85
 23
10
 33
0.5
 0
3DFACE
 8
STL2DXF
 10
35
 20
10
 30
0.5
 11
15
 21
10
 31
3.17246229286638E-14
 12
35
 22
10
 32
3.17246229286638E-14
 13
35
 23
10
 33
3.17246229286638E-14
 0
3DFACE
 8
STL2DXF
 10
15
 20
10
 30
3.17246229286638E-14
 11
35
 21
10
 31
0.5
 12
15
 22
10
 32
0.5
 13
15
 23
10
 33
0.5
 0
3DFACE
 8
STL2DXF
 10
10
 20
105
 30
0.5
 11
10
 21
85
 31
3.1395462537229E-14
 12
10
 22
85
 32
0.5
 13
10
 23
85
 33
0.5
 0
3DFACE
 8
STL2DXF
 10
10
 20
85
 30
3.1395462537229E-14
 11
10
 21
105
 31
0.5
 12
10
 22
105
 32
3.1395462537229E-14
 13
10
 23
105
 33
3.1395462537229E-14
 0
3DFACE
 8
STL2DXF
 10
110
 20
35
 30
3.17246229286638E-14
 11
110
 21
15
 31
0.5
 12
110
 22
15
 32
3.17246229286638E-14
 13
110
 23
15
 33
3.17246229286638E-14
 0
3DFACE
 8
STL2DXF
 10
110
 20
15
 30
0.5
 11
110
 21
35
 31
3.17246229286638E-14
 12
110
 22
35
 32
0.5
 13
110
 23
35
 33
0.5
 0
3DFACE
 8
STL2DXF
 10
15
 20
80
 30
0.5
 11
10
 21
105
 31
0.5
 12
10
 22
85
 32
0.5
 13
10
 23
85
 33
0.5
 0
3DFACE
 8
STL2DXF
 10
10
 20
105
 30
0.5
 11
15
 21
80
 31
0.5
 12
15
 22
110
 32
0.5
 13
15
 23
110
 33
0.5
 0
3DFACE
 8
STL2DXF
 10
15
 20
110
 30
0.5
 11
15
 21
80
 31
0.5
 12
37.8786811828613
 22
80
 32
0.5
 13
37.8786811828613
 23
80
 33
0.5
 0
3DFACE
 8
STL2DXF
 10
15
 20
110
 30
0.5
 11
37.8786811828613
 21
80
 31
0.5
 12
35
 22
110
 32
0.5
 13
35
 23
110
 33
0.5
 0
3DFACE
 8
STL2DXF
 10
35
 20
110
 30
0.5
 11
37.8786811828613
 21
80
 31
0.5
 12
40
 22
105
 32
0.5
 13
40
 23
105
 33
0.5
 0
3DFACE
 8
STL2DXF
 10
40
 20
105
 30
0.5
 11
37.8786811828613
 21
80
 31
0.5
 12
40
 22
82.1213226318359
 32
0.5
 13
40
 23
82.1213226318359
 33
0.5
 0
3DFACE
 8
STL2DXF
 10
40
 20
82.1213226318359
 30
0.5
 11
37.8786811828613
 21
80
 31
0.5
 12
47.8786811828613
 22
70
 32
0.5
 13
47.8786811828613
 23
70
 33
0.5
 0
3DFACE
 8
STL2DXF
 10
40
 20
82.1213226318359
 30
0.5
 11
47.8786811828613
 21
70
 31
0.5
 12
50
 22
72.1213226318359
 32
0.5
 13
50
 23
72.1213226318359
 33
0.5
 0
3DFACE
 8
STL2DXF
 10
50
 20
72.1213226318359
 30
0.5
 11
47.8786811828613
 21
70
 31
0.5
 12
53.7009620666504
 22
64.25
 32
0.5
 13
53.7009620666504
 23
64.25
 33
0.5
 0
3DFACE
 8
STL2DXF
 10
53.7009620666504
 20
64.25
 30
0.5
 11
47.8786811828613
 21
70
 31
0.5
 12
53.939338684082
 22
63.939338684082
 32
0.5
 13
53.939338684082
 23
63.939338684082
 33
0.5
 0
3DFACE
 8
STL2DXF
 10
50
 20
72.1213226318359
 30
0.5
 11
53.7009620666504
 21
64.25
 31
0.5
 12
53.5511131286621
 22
64.6117706298828
 32
0.5
 13
53.5511131286621
 23
64.6117706298828
 33
0.5
 0
3DFACE
 8
STL2DXF
 10
50
 20
72.1213226318359
 30
0.5
 11
53.5511131286621
 21
64.6117706298828
 31
0.5
 12
53.5
 22
65
 32
0.5
 13
53.5
 23
65
 33
0.5
 0
3DFACE
 8
STL2DXF
 10
50
 20
72.1213226318359
 30
0.5
 11
55.75
 21
66.2990417480469
 31
0.5
 12
56.060661315918
 22
66.060661315918
 32
0.5
 13
56.060661315918
 23
66.060661315918
 33
0.5
 0
3DFACE
 8
STL2DXF
 10
55.75
 20
66.2990417480469
 30
0.5
 11
50
 21
72.1213226318359
 31
0.5
 12
55.3882293701172
 22
66.4488906860352
 32
0.5
 13
55.3882293701172
 23
66.4488906860352
 33
0.5
 0
3DFACE
 8
STL2DXF
 10
55.3882293701172
 20
66.4488906860352
 30
0.5
 11
50
 21
72.1213226318359
 31
0.5
 12
55
 22
66.5
 32
0.5
 13
55
 23
66.5
 33
0.5
 0
3DFACE
 8
STL2DXF
 10
55
 20
66.5
 30
0.5
 11
50
 21
72.1213226318359
 31
0.5
 12
54.6117706298828
 22
66.4488906860352
 32
0.5
 13
54.6117706298828
 23
66.4488906860352
 33
0.5
 0
3DFACE
 8
STL2DXF
 10
54.6117706298828
 20
66.4488906860352
 30
0.5
 11
50
 21
72.1213226318359
 31
0.5
 12
54.25
 22
66.2990417480469
 32
0.5
 13
54.25
 23
66.2990417480469
 33
0.5
 0
3DFACE
 8
STL2DXF
 10
54.25
 20
66.2990417480469
 30
0.5
 11
50
 21
72.1213226318359
 31
0.5
 12
53.939338684082
 22
66.060661315918
 32
0.5
 13
53.939338684082
 23
66.060661315918
 33
0.5
 0
3DFACE
 8
STL2DXF
 10
53.939338684082
 20
66.060661315918
 30
0.5
 11
50
 21
72.1213226318359
 31
0.5
 12
53.7009620666504
 22
65.75
 32
0.5
 13
53.7009620666504
 23
65.75
 33
0.5
 0
3DFACE
 8
STL2DXF
 10
53.7009620666504
 20
65.75
 30
0.5
 11
50
 21
72.1213226318359
 31
0.5
 12
53.5511131286621
 22
65.3882293701172
 32
0.5
 13
53.5511131286621
 23
65.3882293701172
 33
0.5
 0
3DFACE
 8
STL2DXF
 10
53.5511131286621
 20
65.3882293701172
 30
0.5
 11
50
 21
72.1213226318359
 31
0.5
 12
53.5
 22
65
 32
0.5
 13
53.5
 23
65
 33
0.5
 0
3DFACE
 8
STL2DXF
 10
55
 20
56.5
 30
5.5
 11
55.3882293701172
 21
56.4488868713379
 31
2.50272028714258E-14
 12
55
 22
56.5
 32
2.50272028714258E-14
 13
55
 23
56.5
 33
2.50272028714258E-14
 0
3DFACE
 8
STL2DXF
 10
55.3882293701172
 20
56.4488868713379
 30
2.50272028714258E-14
 11
55
 21
56.5
 31
5.5
 12
55.3882293701172
 22
56.4488868713379
 32
5.5
 13
55.3882293701172
 23
56.4488868713379
 33
5.5
 0
3DFACE
 8
STL2DXF
 10
56.5
 20
55
 30
2.22072353724383E-14
 11
56.4488868713379
 21
54.6117706298828
 31
5.5
 12
56.4488868713379
 22
54.6117706298828
 32
2.22072353724383E-14
 13
56.4488868713379
 23
54.6117706298828
 33
2.22072353724383E-14
 0
3DFACE
 8
STL2DXF
 10
56.4488868713379
 20
54.6117706298828
 30
5.5
 11
56.5
 21
55
 31
2.22072353724383E-14
 12
56.5
 22
55
 32
5.5
 13
56.5
 23
55
 33
5.5
 0
3DFACE
 8
STL2DXF
 10
54.25
 20
56.2990379333496
 30
5.5
 11
54.6117706298828
 21
56.4488868713379
 31
2.50272028714258E-14
 12
54.25
 22
56.2990379333496
 32
2.50272028714258E-14
 13
54.25
 23
56.2990379333496
 33
2.50272028714258E-14
 0
3DFACE
 8
STL2DXF
 10
54.6117706298828
 20
56.4488868713379
 30
2.50272028714258E-14
 11
54.25
 21
56.2990379333496
 31
5.5
 12
54.6117706298828
 22
56.4488868713379
 32
5.5
 13
54.6117706298828
 23
56.4488868713379
 33
5.5
 0
3DFACE
 8
STL2DXF
 10
55.75
 20
56.2990379333496
 30
2.3617219968965E-14
 11
56.060661315918
 21
56.060661315918
 31
5.5
 12
56.060661315918
 22
56.060661315918
 32
2.22072353724383E-14
 13
56.060661315918
 23
56.060661315918
 33
2.22072353724383E-14
 0
3DFACE
 8
STL2DXF
 10
56.060661315918
 20
56.060661315918
 30
5.5
 11
55.75
 21
56.2990379333496
 31
2.3617219968965E-14
 12
55.75
 22
56.2990379333496
 32
5.5
 13
55.75
 23
56.2990379333496
 33
5.5
 0
3DFACE
 8
STL2DXF
 10
65.3882293701172
 20
63.5511131286621
 30
5.5
 11
65
 21
63.5
 31
4.07132654141589E-14
 12
65.3882293701172
 22
63.5511131286621
 32
4.00082731158956E-14
 13
65.3882293701172
 23
63.5511131286621
 33
4.00082731158956E-14
 0
3DFACE
 8
STL2DXF
 10
65
 20
63.5
 30
4.07132654141589E-14
 11
65.3882293701172
 21
63.5511131286621
 31
5.5
 12
65
 22
63.5
 32
5.5
 13
65
 23
63.5
 33
5.5
 0
3DFACE
 8
STL2DXF
 10
56.2990379333496
 20
64.25
 30
2.17666156095402E-14
 11
56.060661315918
 21
63.939338684082
 31
5.5
 12
56.060661315918
 22
63.939338684082
 32
2.24716079078036E-14
 13
56.060661315918
 23
63.939338684082
 33
2.24716079078036E-14
 0
3DFACE
 8
STL2DXF
 10
56.060661315918
 20
63.939338684082
 30
5.5
 11
56.2990379333496
 21
64.25
 31
2.17666156095402E-14
 12
56.2990379333496
 22
64.25
 32
5.5
 13
56.2990379333496
 23
64.25
 33
5.5
 0
3DFACE
 8
STL2DXF
 10
56.4488868713379
 20
54.6117706298828
 30
2.22072353724383E-14
 11
56.2990379333496
 21
54.25
 31
5.5
 12
56.2990379333496
 22
54.25
 32
2.22072353724383E-14
 13
56.2990379333496
 23
54.25
 33
2.22072353724383E-14
 0
3DFACE
 8
STL2DXF
 10
56.2990379333496
 20
54.25
 30
5.5
 11
56.4488868713379
 21
54.6117706298828
 31
2.22072353724383E-14
 12
56.4488868713379
 22
54.6117706298828
 32
5.5
 13
56.4488868713379
 23
54.6117706298828
 33
5.5
 0
3DFACE
 8
STL2DXF
 10
56.4488868713379
 20
55.3882293701172
 30
2.22072353724383E-14
 11
56.5
 21
55
 31
5.5
 12
56.5
 22
55
 32
2.22072353724383E-14
 13
56.5
 23
55
 33
2.22072353724383E-14
 0
3DFACE
 8
STL2DXF
 10
56.5
 20
55
 30
5.5
 11
56.4488868713379
 21
55.3882293701172
 31
2.22072353724383E-14
 12
56.4488868713379
 22
55.3882293701172
 32
5.5
 13
56.4488868713379
 23
55.3882293701172
 33
5.5
 0
3DFACE
 8
STL2DXF
 10
65
 20
63.5
 30
5.5
 11
64.6117706298828
 21
63.5511131286621
 31
4.14182577124222E-14
 12
65
 22
63.5
 32
4.07132654141589E-14
 13
65
 23
63.5
 33
4.07132654141589E-14
 0
3DFACE
 8
STL2DXF
 10
64.6117706298828
 20
63.5511131286621
 30
4.14182577124222E-14
 11
65
 21
63.5
 31
5.5
 12
64.6117706298828
 22
63.5511131286621
 32
5.5
 13
64.6117706298828
 23
63.5511131286621
 33
5.5
 0
3DFACE
 8
STL2DXF
 10
56.060661315918
 20
56.060661315918
 30
2.22072353724383E-14
 11
56.2990379333496
 21
55.75
 31
5.5
 12
56.2990379333496
 22
55.75
 32
2.22072353724383E-14
 13
56.2990379333496
 23
55.75
 33
2.22072353724383E-14
 0
3DFACE
 8
STL2DXF
 10
56.2990379333496
 20
55.75
 30
5.5
 11
56.060661315918
 21
56.060661315918
 31
2.22072353724383E-14
 12
56.060661315918
 22
56.060661315918
 32
5.5
 13
56.060661315918
 23
56.060661315918
 33
5.5
 0
3DFACE
 8
STL2DXF
 10
56.2990379333496
 20
55.75
 30
2.22072353724383E-14
 11
56.4488868713379
 21
55.3882293701172
 31
5.5
 12
56.4488868713379
 22
55.3882293701172
 32
2.22072353724383E-14
 13
56.4488868713379
 23
55.3882293701172
 33
2.22072353724383E-14
 0
3DFACE
 8
STL2DXF
 10
56.4488868713379
 20
55.3882293701172
 30
5.5
 11
56.2990379333496
 21
55.75
 31
2.22072353724383E-14
 12
56.2990379333496
 22
55.75
 32
5.5
 13
56.2990379333496
 23
55.75
 33
5.5
 0
3DFACE
 8
STL2DXF
 10
54.6117706298828
 20
56.4488868713379
 30
5.5
 11
55
 21
56.5
 31
2.50272028714258E-14
 12
54.6117706298828
 22
56.4488868713379
 32
2.50272028714258E-14
 13
54.6117706298828
 23
56.4488868713379
 33
2.50272028714258E-14
 0
3DFACE
 8
STL2DXF
 10
55
 20
56.5
 30
2.50272028714258E-14
 11
54.6117706298828
 21
56.4488868713379
 31
5.5
 12
55
 22
56.5
 32
5.5
 13
55
 23
56.5
 33
5.5
 0
3DFACE
 8
STL2DXF
 10
65
 20
56.5
 30
1.40998322009813E-15
 11
65.3882293701172
 21
56.4488868713379
 31
5.5
 12
65.3882293701172
 22
56.4488868713379
 32
5.87747175411144E-39
 13
65.3882293701172
 23
56.4488868713379
 33
5.87747175411144E-39
 0
3DFACE
 8
STL2DXF
 10
65.3882293701172
 20
56.4488868713379
 30
5.5
 11
65
 21
56.5
 31
1.40998322009813E-15
 12
65
 22
56.5
 32
5.5
 13
65
 23
56.5
 33
5.5
 0
3DFACE
 8
STL2DXF
 10
63.939338684082
 20
66.060661315918
 30
5.5
 11
63.7009620666504
 21
65.75
 31
4.28282423089489E-14
 12
63.7009620666504
 22
65.75
 32
5.5
 13
63.7009620666504
 23
65.75
 33
5.5
 0
3DFACE
 8
STL2DXF
 10
63.7009620666504
 20
65.75
 30
4.28282423089489E-14
 11
63.939338684082
 21
66.060661315918
 31
5.5
 12
63.939338684082
 22
66.060661315918
 32
4.21232500106856E-14
 13
63.939338684082
 23
66.060661315918
 33
4.21232500106856E-14
 0
3DFACE
 8
STL2DXF
 10
63.939338684082
 20
66.060661315918
 30
4.21232500106856E-14
 11
63.939338684082
 21
66.060661315918
 31
5.5
 12
63.939338684082
 22
66.060661315918
 32
0.5
 13
63.939338684082
 23
66.060661315918
 33
0.5
 0
3DFACE
 8
STL2DXF
 10
50
 20
47.8786811828613
 30
0.5
 11
53.5511131286621
 21
54.6117706298828
 31
0.5
 12
53.5
 22
55
 32
0.5
 13
53.5
 23
55
 33
0.5
 0
3DFACE
 8
STL2DXF
 10
53.5511131286621
 20
54.6117706298828
 30
0.5
 11
50
 21
47.8786811828613
 31
0.5
 12
53.7009620666504
 22
54.25
 32
0.5
 13
53.7009620666504
 23
54.25
 33
0.5
 0
3DFACE
 8
STL2DXF
 10
53.7009620666504
 20
54.25
 30
0.5
 11
50
 21
47.8786811828613
 31
0.5
 12
53.939338684082
 22
53.939338684082
 32
0.5
 13
53.939338684082
 23
53.939338684082
 33
0.5
 0
3DFACE
 8
STL2DXF
 10
53.939338684082
 20
53.939338684082
 30
0.5
 11
50
 21
47.8786811828613
 31
0.5
 12
54.25
 22
53.7009620666504
 32
0.5
 13
54.25
 23
53.7009620666504
 33
0.5
 0
3DFACE
 8
STL2DXF
 10
54.25
 20
53.7009620666504
 30
0.5
 11
50
 21
47.8786811828613
 31
0.5
 12
54.6117706298828
 22
53.5511131286621
 32
0.5
 13
54.6117706298828
 23
53.5511131286621
 33
0.5
 0
3DFACE
 8
STL2DXF
 10
54.6117706298828
 20
53.5511131286621
 30
0.5
 11
50
 21
47.8786811828613
 31
0.5
 12
55
 22
53.5
 32
0.5
 13
55
 23
53.5
 33
0.5
 0
3DFACE
 8
STL2DXF
 10
55
 20
53.5
 30
0.5
 11
50
 21
47.8786811828613
 31
0.5
 12
55.3882293701172
 22
53.5511131286621
 32
0.5
 13
55.3882293701172
 23
53.5511131286621
 33
0.5
 0
3DFACE
 8
STL2DXF
 10
55.3882293701172
 20
53.5511131286621
 30
0.5
 11
50
 21
47.8786811828613
 31
0.5
 12
55.75
 22
53.7009620666504
 32
0.5
 13
55.75
 23
53.7009620666504
 33
0.5
 0
3DFACE
 8
STL2DXF
 10
55.75
 20
53.7009620666504
 30
0.5
 11
50
 21
47.8786811828613
 31
0.5
 12
56.060661315918
 22
53.939338684082
 32
0.5
 13
56.060661315918
 23
53.939338684082
 33
0.5
 0
3DFACE
 8
STL2DXF
 10
15
 20
10
 30
0.5
 11
10
 21
35
 31
0.5
 12
10
 22
15
 32
0.5
 13
10
 23
15
 33
0.5
 0
3DFACE
 8
STL2DXF
 10
10
 20
35
 30
0.5
 11
15
 21
10
 31
0.5
 12
15
 22
40
 32
0.5
 13
15
 23
40
 33
0.5
 0
3DFACE
 8
STL2DXF
 10
15
 20
40
 30
0.5
 11
15
 21
10
 31
0.5
 12
35
 22
10
 32
0.5
 13
35
 23
10
 33
0.5
 0
3DFACE
 8
STL2DXF
 10
15
 20
40
 30
0.5
 11
35
 21
10
 31
0.5
 12
37.8786811828613
 22
40
 32
0.5
 13
37.8786811828613
 23
40
 33
0.5
 0
3DFACE
 8
STL2DXF
 10
37.8786811828613
 20
40
 30
0.5
 11
35
 21
10
 31
0.5
 12
40
 22
15
 32
0.5
 13
40
 23
15
 33
0.5
 0
3DFACE
 8
STL2DXF
 10
37.8786811828613
 20
40
 30
0.5
 11
40
 21
15
 31
0.5
 12
40
 22
37.8786811828613
 32
0.5
 13
40
 23
37.8786811828613
 33
0.5
 0
3DFACE
 8
STL2DXF
 10
37.8786811828613
 20
40
 30
0.5
 11
40
 21
37.8786811828613
 31
0.5
 12
47.8786811828613
 22
50
 32
0.5
 13
47.8786811828613
 23
50
 33
0.5
 0
3DFACE
 8
STL2DXF
 10
47.8786811828613
 20
50
 30
0.5
 11
40
 21
37.8786811828613
 31
0.5
 12
50
 22
47.8786811828613
 32
0.5
 13
50
 23
47.8786811828613
 33
0.5
 0
3DFACE
 8
STL2DXF
 10
47.8786811828613
 20
50
 30
0.5
 11
50
 21
47.8786811828613
 31
0.5
 12
53.7009620666504
 22
55.75
 32
0.5
 13
53.7009620666504
 23
55.75
 33
0.5
 0
3DFACE
 8
STL2DXF
 10
47.8786811828613
 20
50
 30
0.5
 11
53.7009620666504
 21
55.75
 31
0.5
 12
53.939338684082
 22
56.060661315918
 32
0.5
 13
53.939338684082
 23
56.060661315918
 33
0.5
 0
3DFACE
 8
STL2DXF
 10
53.7009620666504
 20
55.75
 30
0.5
 11
50
 21
47.8786811828613
 31
0.5
 12
53.5511131286621
 22
55.3882293701172
 32
0.5
 13
53.5511131286621
 23
55.3882293701172
 33
0.5
 0
3DFACE
 8
STL2DXF
 10
53.5511131286621
 20
55.3882293701172
 30
0.5
 11
50
 21
47.8786811828613
 31
0.5
 12
53.5
 22
55
 32
0.5
 13
53.5
 23
55
 33
0.5
 0
3DFACE
 8
STL2DXF
 10
10
 20
35
 30
0.5
 11
10
 21
15
 31
3.08364106276458E-14
 12
10
 22
15
 32
0.5
 13
10
 23
15
 33
0.5
 0
3DFACE
 8
STL2DXF
 10
10
 20
15
 30
3.08364106276458E-14
 11
10
 21
35
 31
0.5
 12
10
 22
35
 32
2.72835546473102E-14
 13
10
 23
35
 33
2.72835546473102E-14
 0
3DFACE
 8
STL2DXF
 10
63.939338684082
 20
53.939338684082
 30
0.5
 11
70
 21
47.8786811828613
 31
1.95635167950497E-14
 12
70
 22
47.8786811828613
 32
0.5
 13
70
 23
47.8786811828613
 33
0.5
 0
3DFACE
 8
STL2DXF
 10
70
 20
47.8786811828613
 30
1.95635167950497E-14
 11
63.939338684082
 21
53.939338684082
 31
0.5
 12
63.939338684082
 22
53.939338684082
 32
2.81996644019625E-15
 13
63.939338684082
 23
53.939338684082
 33
2.81996644019625E-15
 0
3DFACE
 8
STL2DXF
 10
66.060661315918
 20
56.060661315918
 30
5.87747175411144E-39
 11
72.1213226318359
 21
50
 31
0.5
 12
72.1213226318359
 22
50
 32
1.63910548409965E-14
 13
72.1213226318359
 23
50
 33
1.63910548409965E-14
 0
3DFACE
 8
STL2DXF
 10
72.1213226318359
 20
50
 30
0.5
 11
66.060661315918
 21
56.060661315918
 31
5.87747175411144E-39
 12
66.060661315918
 22
56.060661315918
 32
0.5
 13
66.060661315918
 23
56.060661315918
 33
0.5
 0
3DFACE
 8
STL2DXF
 10
63.5
 20
55
 30
5.5
 11
63.5511131286621
 21
54.6117706298828
 31
2.81996644019625E-15
 12
63.5511131286621
 22
54.6117706298828
 32
5.5
 13
63.5511131286621
 23
54.6117706298828
 33
5.5
 0
3DFACE
 8
STL2DXF
 10
63.5511131286621
 20
54.6117706298828
 30
2.81996644019625E-15
 11
63.5
 21
55
 31
5.5
 12
63.5
 22
55
 32
2.81996644019625E-15
 13
63.5
 23
55
 33
2.81996644019625E-15
 0
3DFACE
 8
STL2DXF
 10
63.5511131286621
 20
54.6117706298828
 30
5.5
 11
63.7009620666504
 21
54.25
 31
2.81996644019625E-15
 12
63.7009620666504
 22
54.25
 32
5.5
 13
63.7009620666504
 23
54.25
 33
5.5
 0
3DFACE
 8
STL2DXF
 10
63.7009620666504
 20
54.25
 30
2.81996644019625E-15
 11
63.5511131286621
 21
54.6117706298828
 31
5.5
 12
63.5511131286621
 22
54.6117706298828
 32
2.81996644019625E-15
 13
63.5511131286621
 23
54.6117706298828
 33
2.81996644019625E-15
 0
3DFACE
 8
STL2DXF
 10
50
 20
72.1213226318359
 30
2.56440698618568E-14
 11
56.060661315918
 21
66.060661315918
 31
0.5
 12
56.060661315918
 22
66.060661315918
 32
2.24716079078036E-14
 13
56.060661315918
 23
66.060661315918
 33
2.24716079078036E-14
 0
3DFACE
 8
STL2DXF
 10
56.060661315918
 20
66.060661315918
 30
0.5
 11
50
 21
72.1213226318359
 31
2.56440698618568E-14
 12
50
 22
72.1213226318359
 32
0.5
 13
50
 23
72.1213226318359
 33
0.5
 0
3DFACE
 8
STL2DXF
 10
63.7009620666504
 20
54.25
 30
5.5
 11
63.939338684082
 21
53.939338684082
 31
0.5
 12
63.939338684082
 22
53.939338684082
 32
5.5
 13
63.939338684082
 23
53.939338684082
 33
5.5
 0
3DFACE
 8
STL2DXF
 10
63.939338684082
 20
53.939338684082
 30
0.5
 11
63.7009620666504
 21
54.25
 31
5.5
 12
63.939338684082
 22
53.939338684082
 32
2.81996644019625E-15
 13
63.939338684082
 23
53.939338684082
 33
2.81996644019625E-15
 0
3DFACE
 8
STL2DXF
 10
63.939338684082
 20
53.939338684082
 30
2.81996644019625E-15
 11
63.7009620666504
 21
54.25
 31
5.5
 12
63.7009620666504
 22
54.25
 32
2.81996644019625E-15
 13
63.7009620666504
 23
54.25
 33
2.81996644019625E-15
 0
3DFACE
 8
STL2DXF
 10
63.5511131286621
 20
55.3882293701172
 30
5.5
 11
63.5
 21
55
 31
2.81996644019625E-15
 12
63.5
 22
55
 32
5.5
 13
63.5
 23
55
 33
5.5
 0
3DFACE
 8
STL2DXF
 10
63.5
 20
55
 30
2.81996644019625E-15
 11
63.5511131286621
 21
55.3882293701172
 31
5.5
 12
63.5511131286621
 22
55.3882293701172
 32
2.81996644019625E-15
 13
63.5511131286621
 23
55.3882293701172
 33
2.81996644019625E-15
 0
3DFACE
 8
STL2DXF
 10
63.7009620666504
 20
55.75
 30
5.5
 11
63.5511131286621
 21
55.3882293701172
 31
2.81996644019625E-15
 12
63.5511131286621
 22
55.3882293701172
 32
5.5
 13
63.5511131286621
 23
55.3882293701172
 33
5.5
 0
3DFACE
 8
STL2DXF
 10
63.5511131286621
 20
55.3882293701172
 30
2.81996644019625E-15
 11
63.7009620666504
 21
55.75
 31
5.5
 12
63.7009620666504
 22
55.75
 32
2.81996644019625E-15
 13
63.7009620666504
 23
55.75
 33
2.81996644019625E-15
 0
3DFACE
 8
STL2DXF
 10
53.5511131286621
 20
54.6117706298828
 30
5.5
 11
53.5511131286621
 21
55.3882293701172
 31
5.5
 12
53.5
 22
55
 32
5.5
 13
53.5
 23
55
 33
5.5
 0
3DFACE
 8
STL2DXF
 10
53.5511131286621
 20
55.3882293701172
 30
5.5
 11
53.5511131286621
 21
54.6117706298828
 31
5.5
 12
53.7009620666504
 22
54.25
 32
5.5
 13
53.7009620666504
 23
54.25
 33
5.5
 0
3DFACE
 8
STL2DXF
 10
53.5511131286621
 20
55.3882293701172
 30
5.5
 11
53.7009620666504
 21
54.25
 31
5.5
 12
53.7009620666504
 22
55.75
 32
5.5
 13
53.7009620666504
 23
55.75
 33
5.5
 0
3DFACE
 8
STL2DXF
 10
53.7009620666504
 20
55.75
 30
5.5
 11
53.7009620666504
 21
54.25
 31
5.5
 12
53.939338684082
 22
53.939338684082
 32
5.5
 13
53.939338684082
 23
53.939338684082
 33
5.5
 0
3DFACE
 8
STL2DXF
 10
53.7009620666504
 20
55.75
 30
5.5
 11
53.939338684082
 21
53.939338684082
 31
5.5
 12
53.939338684082
 22
56.060661315918
 32
5.5
 13
53.939338684082
 23
56.060661315918
 33
5.5
 0
3DFACE
 8
STL2DXF
 10
53.939338684082
 20
56.060661315918
 30
5.5
 11
53.939338684082
 21
53.939338684082
 31
5.5
 12
54.25
 22
53.7009620666504
 32
5.5
 13
54.25
 23
53.7009620666504
 33
5.5
 0
3DFACE
 8
STL2DXF
 10
53.939338684082
 20
56.060661315918
 30
5.5
 11
54.25
 21
53.7009620666504
 31
5.5
 12
54.25
 22
56.2990379333496
 32
5.5
 13
54.25
 23
56.2990379333496
 33
5.5
 0
3DFACE
 8
STL2DXF
 10
54.25
 20
56.2990379333496
 30
5.5
 11
54.25
 21
53.7009620666504
 31
5.5
 12
54.6117706298828
 22
53.5511131286621
 32
5.5
 13
54.6117706298828
 23
53.5511131286621
 33
5.5
 0
3DFACE
 8
STL2DXF
 10
54.25
 20
56.2990379333496
 30
5.5
 11
54.6117706298828
 21
53.5511131286621
 31
5.5
 12
54.6117706298828
 22
56.4488868713379
 32
5.5
 13
54.6117706298828
 23
56.4488868713379
 33
5.5
 0
3DFACE
 8
STL2DXF
 10
54.6117706298828
 20
56.4488868713379
 30
5.5
 11
54.6117706298828
 21
53.5511131286621
 31
5.5
 12
55
 22
53.5
 32
5.5
 13
55
 23
53.5
 33
5.5
 0
3DFACE
 8
STL2DXF
 10
54.6117706298828
 20
56.4488868713379
 30
5.5
 11
55
 21
53.5
 31
5.5
 12
55
 22
56.5
 32
5.5
 13
55
 23
56.5
 33
5.5
 0
3DFACE
 8
STL2DXF
 10
55
 20
56.5
 30
5.5
 11
55
 21
53.5
 31
5.5
 12
55.3882293701172
 22
53.5511131286621
 32
5.5
 13
55.3882293701172
 23
53.5511131286621
 33
5.5
 0
3DFACE
 8
STL2DXF
 10
55
 20
56.5
 30
5.5
 11
55.3882293701172
 21
53.5511131286621
 31
5.5
 12
55.3882293701172
 22
56.4488868713379
 32
5.5
 13
55.3882293701172
 23
56.4488868713379
 33
5.5
 0
3DFACE
 8
STL2DXF
 10
55.3882293701172
 20
56.4488868713379
 30
5.5
 11
55.3882293701172
 21
53.5511131286621
 31
5.5
 12
55.75
 22
53.7009620666504
 32
5.5
 13
55.75
 23
53.7009620666504
 33
5.5
 0
3DFACE
 8
STL2DXF
 10
55.3882293701172
 20
56.4488868713379
 30
5.5
 11
55.75
 21
53.7009620666504
 31
5.5
 12
55.75
 22
56.2990379333496
 32
5.5
 13
55.75
 23
56.2990379333496
 33
5.5
 0
3DFACE
 8
STL2DXF
 10
55.75
 20
56.2990379333496
 30
5.5
 11
55.75
 21
53.7009620666504
 31
5.5
 12
56.060661315918
 22
53.939338684082
 32
5.5
 13
56.060661315918
 23
53.939338684082
 33
5.5
 0
3DFACE
 8
STL2DXF
 10
55.75
 20
56.2990379333496
 30
5.5
 11
56.060661315918
 21
53.939338684082
 31
5.5
 12
56.060661315918
 22
56.060661315918
 32
5.5
 13
56.060661315918
 23
56.060661315918
 33
5.5
 0
3DFACE
 8
STL2DXF
 10
56.060661315918
 20
56.060661315918
 30
5.5
 11
56.060661315918
 21
53.939338684082
 31
5.5
 12
56.2990379333496
 22
54.25
 32
5.5
 13
56.2990379333496
 23
54.25
 33
5.5
 0
3DFACE
 8
STL2DXF
 10
56.060661315918
 20
56.060661315918
 30
5.5
 11
56.2990379333496
 21
54.25
 31
5.5
 12
56.2990379333496
 22
55.75
 32
5.5
 13
56.2990379333496
 23
55.75
 33
5.5
 0
3DFACE
 8
STL2DXF
 10
56.2990379333496
 20
55.75
 30
5.5
 11
56.2990379333496
 21
54.25
 31
5.5
 12
56.4488868713379
 22
54.6117706298828
 32
5.5
 13
56.4488868713379
 23
54.6117706298828
 33
5.5
 0
3DFACE
 8
STL2DXF
 10
56.2990379333496
 20
55.75
 30
5.5
 11
56.4488868713379
 21
54.6117706298828
 31
5.5
 12
56.4488868713379
 22
55.3882293701172
 32
5.5
 13
56.4488868713379
 23
55.3882293701172
 33
5.5
 0
3DFACE
 8
STL2DXF
 10
56.4488868713379
 20
55.3882293701172
 30
5.5
 11
56.4488868713379
 21
54.6117706298828
 31
5.5
 12
56.5
 22
55
 32
5.5
 13
56.5
 23
55
 33
5.5
 0
3DFACE
 8
STL2DXF
 10
53.939338684082
 20
56.060661315918
 30
5.5
 11
53.7009620666504
 21
55.75
 31
0.5
 12
53.7009620666504
 22
55.75
 32
5.5
 13
53.7009620666504
 23
55.75
 33
5.5
 0
3DFACE
 8
STL2DXF
 10
53.7009620666504
 20
55.75
 30
0.5
 11
53.939338684082
 21
56.060661315918
 31
5.5
 12
53.939338684082
 22
56.060661315918
 32
0.5
 13
53.939338684082
 23
56.060661315918
 33
0.5
 0
3DFACE
 8
STL2DXF
 10
53.7009620666504
 20
55.75
 30
5.5
 11
53.5511131286621
 21
55.3882293701172
 31
0.5
 12
53.5511131286621
 22
55.3882293701172
 32
5.5
 13
53.5511131286621
 23
55.3882293701172
 33
5.5
 0
3DFACE
 8
STL2DXF
 10
53.5511131286621
 20
55.3882293701172
 30
0.5
 11
53.7009620666504
 21
55.75
 31
5.5
 12
53.7009620666504
 22
55.75
 32
0.5
 13
53.7009620666504
 23
55.75
 33
0.5
 0
3DFACE
 8
STL2DXF
 10
53.5511131286621
 20
55.3882293701172
 30
5.5
 11
53.5
 21
55
 31
0.5
 12
53.5
 22
55
 32
5.5
 13
53.5
 23
55
 33
5.5
 0
3DFACE
 8
STL2DXF
 10
53.5
 20
55
 30
0.5
 11
53.5511131286621
 21
55.3882293701172
 31
5.5
 12
53.5511131286621
 22
55.3882293701172
 32
0.5
 13
53.5511131286621
 23
55.3882293701172
 33
0.5
 0
3DFACE
 8
STL2DXF
 10
53.5
 20
55
 30
5.5
 11
53.5511131286621
 21
54.6117706298828
 31
0.5
 12
53.5511131286621
 22
54.6117706298828
 32
5.5
 13
53.5511131286621
 23
54.6117706298828
 33
5.5
 0
3DFACE
 8
STL2DXF
 10
53.5511131286621
 20
54.6117706298828
 30
0.5
 11
53.5
 21
55
 31
5.5
 12
53.5
 22
55
 32
0.5
 13
53.5
 23
55
 33
0.5
 0
3DFACE
 8
STL2DXF
 10
53.5511131286621
 20
54.6117706298828
 30
5.5
 11
53.7009620666504
 21
54.25
 31
0.5
 12
53.7009620666504
 22
54.25
 32
5.5
 13
53.7009620666504
 23
54.25
 33
5.5
 0
3DFACE
 8
STL2DXF
 10
53.7009620666504
 20
54.25
 30
0.5
 11
53.5511131286621
 21
54.6117706298828
 31
5.5
 12
53.5511131286621
 22
54.6117706298828
 32
0.5
 13
53.5511131286621
 23
54.6117706298828
 33
0.5
 0
3DFACE
 8
STL2DXF
 10
53.7009620666504
 20
54.25
 30
5.5
 11
53.939338684082
 21
53.939338684082
 31
0.5
 12
53.939338684082
 22
53.939338684082
 32
5.5
 13
53.939338684082
 23
53.939338684082
 33
5.5
 0
3DFACE
 8
STL2DXF
 10
53.939338684082
 20
53.939338684082
 30
0.5
 11
53.7009620666504
 21
54.25
 31
5.5
 12
53.7009620666504
 22
54.25
 32
0.5
 13
53.7009620666504
 23
54.25
 33
0.5
 0
3DFACE
 8
STL2DXF
 10
54.25
 20
53.7009620666504
 30
5.5
 11
53.939338684082
 21
53.939338684082
 31
0.5
 12
54.25
 22
53.7009620666504
 32
0.5
 13
54.25
 23
53.7009620666504
 33
0.5
 0
3DFACE
 8
STL2DXF
 10
53.939338684082
 20
53.939338684082
 30
0.5
 11
54.25
 21
53.7009620666504
 31
5.5
 12
53.939338684082
 22
53.939338684082
 32
5.5
 13
53.939338684082
 23
53.939338684082
 33
5.5
 0
3DFACE
 8
STL2DXF
 10
54.6117706298828
 20
53.5511131286621
 30
5.5
 11
54.25
 21
53.7009620666504
 31
0.5
 12
54.6117706298828
 22
53.5511131286621
 32
0.5
 13
54.6117706298828
 23
53.5511131286621
 33
0.5
 0
3DFACE
 8
STL2DXF
 10
54.25
 20
53.7009620666504
 30
0.5
 11
54.6117706298828
 21
53.5511131286621
 31
5.5
 12
54.25
 22
53.7009620666504
 32
5.5
 13
54.25
 23
53.7009620666504
 33
5.5
 0
3DFACE
 8
STL2DXF
 10
55
 20
53.5
 30
5.5
 11
54.6117706298828
 21
53.5511131286621
 31
0.5
 12
55
 22
53.5
 32
0.5
 13
55
 23
53.5
 33
0.5
 0
3DFACE
 8
STL2DXF
 10
54.6117706298828
 20
53.5511131286621
 30
0.5
 11
55
 21
53.5
 31
5.5
 12
54.6117706298828
 22
53.5511131286621
 32
5.5
 13
54.6117706298828
 23
53.5511131286621
 33
5.5
 0
3DFACE
 8
STL2DXF
 10
55.3882293701172
 20
53.5511131286621
 30
5.5
 11
55
 21
53.5
 31
0.5
 12
55.3882293701172
 22
53.5511131286621
 32
0.5
 13
55.3882293701172
 23
53.5511131286621
 33
0.5
 0
3DFACE
 8
STL2DXF
 10
55
 20
53.5
 30
0.5
 11
55.3882293701172
 21
53.5511131286621
 31
5.5
 12
55
 22
53.5
 32
5.5
 13
55
 23
53.5
 33
5.5
 0
3DFACE
 8
STL2DXF
 10
55.75
 20
53.7009620666504
 30
5.5
 11
55.3882293701172
 21
53.5511131286621
 31
0.5
 12
55.75
 22
53.7009620666504
 32
0.5
 13
55.75
 23
53.7009620666504
 33
0.5
 0
3DFACE
 8
STL2DXF
 10
55.3882293701172
 20
53.5511131286621
 30
0.5
 11
55.75
 21
53.7009620666504
 31
5.5
 12
55.3882293701172
 22
53.5511131286621
 32
5.5
 13
55.3882293701172
 23
53.5511131286621
 33
5.5
 0
3DFACE
 8
STL2DXF
 10
56.060661315918
 20
53.939338684082
 30
5.5
 11
55.75
 21
53.7009620666504
 31
0.5
 12
56.060661315918
 22
53.939338684082
 32
0.5
 13
56.060661315918
 23
53.939338684082
 33
0.5
 0
3DFACE
 8
STL2DXF
 10
55.75
 20
53.7009620666504
 30
0.5
 11
56.060661315918
 21
53.939338684082
 31
5.5
 12
55.75
 22
53.7009620666504
 32
5.5
 13
55.75
 23
53.7009620666504
 33
5.5
 0
3DFACE
 8
STL2DXF
 10
63.5511131286621
 20
54.6117706298828
 30
5.5
 11
63.5511131286621
 21
55.3882293701172
 31
5.5
 12
63.5
 22
55
 32
5.5
 13
63.5
 23
55
 33
5.5
 0
3DFACE
 8
STL2DXF
 10
63.5511131286621
 20
55.3882293701172
 30
5.5
 11
63.5511131286621
 21
54.6117706298828
 31
5.5
 12
63.7009620666504
 22
54.25
 32
5.5
 13
63.7009620666504
 23
54.25
 33
5.5
 0
3DFACE
 8
STL2DXF
 10
63.5511131286621
 20
55.3882293701172
 30
5.5
 11
63.7009620666504
 21
54.25
 31
5.5
 12
63.7009620666504
 22
55.75
 32
5.5
 13
63.7009620666504
 23
55.75
 33
5.5
 0
3DFACE
 8
STL2DXF
 10
63.7009620666504
 20
55.75
 30
5.5
 11
63.7009620666504
 21
54.25
 31
5.5
 12
63.939338684082
 22
53.939338684082
 32
5.5
 13
63.939338684082
 23
53.939338684082
 33
5.5
 0
3DFACE
 8
STL2DXF
 10
63.7009620666504
 20
55.75
 30
5.5
 11
63.939338684082
 21
53.939338684082
 31
5.5
 12
63.939338684082
 22
56.060661315918
 32
5.5
 13
63.939338684082
 23
56.060661315918
 33
5.5
 0
3DFACE
 8
STL2DXF
 10
63.939338684082
 20
56.060661315918
 30
5.5
 11
63.939338684082
 21
53.939338684082
 31
5.5
 12
64.25
 22
53.7009620666504
 32
5.5
 13
64.25
 23
53.7009620666504
 33
5.5
 0
3DFACE
 8
STL2DXF
 10
63.939338684082
 20
56.060661315918
 30
5.5
 11
64.25
 21
53.7009620666504
 31
5.5
 12
64.25
 22
56.2990379333496
 32
5.5
 13
64.25
 23
56.2990379333496
 33
5.5
 0
3DFACE
 8
STL2DXF
 10
64.25
 20
56.2990379333496
 30
5.5
 11
64.25
 21
53.7009620666504
 31
5.5
 12
64.6117706298828
 22
53.5511131286621
 32
5.5
 13
64.6117706298828
 23
53.5511131286621
 33
5.5
 0
3DFACE
 8
STL2DXF
 10
64.25
 20
56.2990379333496
 30
5.5
 11
64.6117706298828
 21
53.5511131286621
 31
5.5
 12
64.6117706298828
 22
56.4488868713379
 32
5.5
 13
64.6117706298828
 23
56.4488868713379
 33
5.5
 0
3DFACE
 8
STL2DXF
 10
64.6117706298828
 20
56.4488868713379
 30
5.5
 11
64.6117706298828
 21
53.5511131286621
 31
5.5
 12
65
 22
53.5
 32
5.5
 13
65
 23
53.5
 33
5.5
 0
3DFACE
 8
STL2DXF
 10
64.6117706298828
 20
56.4488868713379
 30
5.5
 11
65
 21
53.5
 31
5.5
 12
65
 22
56.5
 32
5.5
 13
65
 23
56.5
 33
5.5
 0
3DFACE
 8
STL2DXF
 10
65
 20
56.5
 30
5.5
 11
65
 21
53.5
 31
5.5
 12
65.3882293701172
 22
53.5511131286621
 32
5.5
 13
65.3882293701172
 23
53.5511131286621
 33
5.5
 0
3DFACE
 8
STL2DXF
 10
65
 20
56.5
 30
5.5
 11
65.3882293701172
 21
53.5511131286621
 31
5.5
 12
65.3882293701172
 22
56.4488868713379
 32
5.5
 13
65.3882293701172
 23
56.4488868713379
 33
5.5
 0
3DFACE
 8
STL2DXF
 10
65.3882293701172
 20
56.4488868713379
 30
5.5
 11
65.3882293701172
 21
53.5511131286621
 31
5.5
 12
65.75
 22
53.7009620666504
 32
5.5
 13
65.75
 23
53.7009620666504
 33
5.5
 0
3DFACE
 8
STL2DXF
 10
65.3882293701172
 20
56.4488868713379
 30
5.5
 11
65.75
 21
53.7009620666504
 31
5.5
 12
65.75
 22
56.2990379333496
 32
5.5
 13
65.75
 23
56.2990379333496
 33
5.5
 0
3DFACE
 8
STL2DXF
 10
65.75
 20
56.2990379333496
 30
5.5
 11
65.75
 21
53.7009620666504
 31
5.5
 12
66.060661315918
 22
53.939338684082
 32
5.5
 13
66.060661315918
 23
53.939338684082
 33
5.5
 0
3DFACE
 8
STL2DXF
 10
65.75
 20
56.2990379333496
 30
5.5
 11
66.060661315918
 21
53.939338684082
 31
5.5
 12
66.060661315918
 22
56.060661315918
 32
5.5
 13
66.060661315918
 23
56.060661315918
 33
5.5
 0
3DFACE
 8
STL2DXF
 10
66.060661315918
 20
56.060661315918
 30
5.5
 11
66.060661315918
 21
53.939338684082
 31
5.5
 12
66.2990417480469
 22
54.25
 32
5.5
 13
66.2990417480469
 23
54.25
 33
5.5
 0
3DFACE
 8
STL2DXF
 10
66.060661315918
 20
56.060661315918
 30
5.5
 11
66.2990417480469
 21
54.25
 31
5.5
 12
66.2990417480469
 22
55.75
 32
5.5
 13
66.2990417480469
 23
55.75
 33
5.5
 0
3DFACE
 8
STL2DXF
 10
66.2990417480469
 20
55.75
 30
5.5
 11
66.2990417480469
 21
54.25
 31
5.5
 12
66.4488906860352
 22
54.6117706298828
 32
5.5
 13
66.4488906860352
 23
54.6117706298828
 33
5.5
 0
3DFACE
 8
STL2DXF
 10
66.2990417480469
 20
55.75
 30
5.5
 11
66.4488906860352
 21
54.6117706298828
 31
5.5
 12
66.4488906860352
 22
55.3882293701172
 32
5.5
 13
66.4488906860352
 23
55.3882293701172
 33
5.5
 0
3DFACE
 8
STL2DXF
 10
66.4488906860352
 20
55.3882293701172
 30
5.5
 11
66.4488906860352
 21
54.6117706298828
 31
5.5
 12
66.5
 22
55
 32
5.5
 13
66.5
 23
55
 33
5.5
 0
3DFACE
 8
STL2DXF
 10
64.25
 20
53.7009620666504
 30
5.5
 11
63.939338684082
 21
53.939338684082
 31
0.5
 12
64.25
 22
53.7009620666504
 32
0.5
 13
64.25
 23
53.7009620666504
 33
0.5
 0
3DFACE
 8
STL2DXF
 10
63.939338684082
 20
53.939338684082
 30
0.5
 11
64.25
 21
53.7009620666504
 31
5.5
 12
63.939338684082
 22
53.939338684082
 32
5.5
 13
63.939338684082
 23
53.939338684082
 33
5.5
 0
3DFACE
 8
STL2DXF
 10
64.6117706298828
 20
53.5511131286621
 30
5.5
 11
64.25
 21
53.7009620666504
 31
0.5
 12
64.6117706298828
 22
53.5511131286621
 32
0.5
 13
64.6117706298828
 23
53.5511131286621
 33
0.5
 0
3DFACE
 8
STL2DXF
 10
64.25
 20
53.7009620666504
 30
0.5
 11
64.6117706298828
 21
53.5511131286621
 31
5.5
 12
64.25
 22
53.7009620666504
 32
5.5
 13
64.25
 23
53.7009620666504
 33
5.5
 0
3DFACE
 8
STL2DXF
 10
65
 20
53.5
 30
0.5
 11
64.6117706298828
 21
53.5511131286621
 31
5.5
 12
64.6117706298828
 22
53.5511131286621
 32
0.5
 13
64.6117706298828
 23
53.5511131286621
 33
0.5
 0
3DFACE
 8
STL2DXF
 10
64.6117706298828
 20
53.5511131286621
 30
5.5
 11
65
 21
53.5
 31
0.5
 12
65
 22
53.5
 32
5.5
 13
65
 23
53.5
 33
5.5
 0
3DFACE
 8
STL2DXF
 10
65.3882293701172
 20
53.5511131286621
 30
5.5
 11
65
 21
53.5
 31
0.5
 12
65.3882293701172
 22
53.5511131286621
 32
0.5
 13
65.3882293701172
 23
53.5511131286621
 33
0.5
 0
3DFACE
 8
STL2DXF
 10
65
 20
53.5
 30
0.5
 11
65.3882293701172
 21
53.5511131286621
 31
5.5
 12
65
 22
53.5
 32
5.5
 13
65
 23
53.5
 33
5.5
 0
3DFACE
 8
STL2DXF
 10
65.75
 20
53.7009620666504
 30
5.5
 11
65.3882293701172
 21
53.5511131286621
 31
0.5
 12
65.75
 22
53.7009620666504
 32
0.5
 13
65.75
 23
53.7009620666504
 33
0.5
 0
3DFACE
 8
STL2DXF
 10
65.3882293701172
 20
53.5511131286621
 30
0.5
 11
65.75
 21
53.7009620666504
 31
5.5
 12
65.3882293701172
 22
53.5511131286621
 32
5.5
 13
65.3882293701172
 23
53.5511131286621
 33
5.5
 0
3DFACE
 8
STL2DXF
 10
66.060661315918
 20
53.939338684082
 30
5.5
 11
65.75
 21
53.7009620666504
 31
0.5
 12
66.060661315918
 22
53.939338684082
 32
0.5
 13
66.060661315918
 23
53.939338684082
 33
0.5
 0
3DFACE
 8
STL2DXF
 10
65.75
 20
53.7009620666504
 30
0.5
 11
66.060661315918
 21
53.939338684082
 31
5.5
 12
65.75
 22
53.7009620666504
 32
5.5
 13
65.75
 23
53.7009620666504
 33
5.5
 0
3DFACE
 8
STL2DXF
 10
66.2990417480469
 20
54.25
 30
0.5
 11
66.060661315918
 21
53.939338684082
 31
5.5
 12
66.060661315918
 22
53.939338684082
 32
0.5
 13
66.060661315918
 23
53.939338684082
 33
0.5
 0
3DFACE
 8
STL2DXF
 10
66.060661315918
 20
53.939338684082
 30
5.5
 11
66.2990417480469
 21
54.25
 31
0.5
 12
66.2990417480469
 22
54.25
 32
5.5
 13
66.2990417480469
 23
54.25
 33
5.5
 0
3DFACE
 8
STL2DXF
 10
66.4488906860352
 20
54.6117706298828
 30
0.5
 11
66.2990417480469
 21
54.25
 31
5.5
 12
66.2990417480469
 22
54.25
 32
0.5
 13
66.2990417480469
 23
54.25
 33
0.5
 0
3DFACE
 8
STL2DXF
 10
66.2990417480469
 20
54.25
 30
5.5
 11
66.4488906860352
 21
54.6117706298828
 31
0.5
 12
66.4488906860352
 22
54.6117706298828
 32
5.5
 13
66.4488906860352
 23
54.6117706298828
 33
5.5
 0
3DFACE
 8
STL2DXF
 10
66.5
 20
55
 30
0.5
 11
66.4488906860352
 21
54.6117706298828
 31
5.5
 12
66.4488906860352
 22
54.6117706298828
 32
0.5
 13
66.4488906860352
 23
54.6117706298828
 33
0.5
 0
3DFACE
 8
STL2DXF
 10
66.4488906860352
 20
54.6117706298828
 30
5.5
 11
66.5
 21
55
 31
0.5
 12
66.5
 22
55
 32
5.5
 13
66.5
 23
55
 33
5.5
 0
3DFACE
 8
STL2DXF
 10
66.4488906860352
 20
55.3882293701172
 30
0.5
 11
66.5
 21
55
 31
5.5
 12
66.5
 22
55
 32
0.5
 13
66.5
 23
55
 33
0.5
 0
3DFACE
 8
STL2DXF
 10
66.5
 20
55
 30
5.5
 11
66.4488906860352
 21
55.3882293701172
 31
0.5
 12
66.4488906860352
 22
55.3882293701172
 32
5.5
 13
66.4488906860352
 23
55.3882293701172
 33
5.5
 0
3DFACE
 8
STL2DXF
 10
66.2990417480469
 20
55.75
 30
0.5
 11
66.4488906860352
 21
55.3882293701172
 31
5.5
 12
66.4488906860352
 22
55.3882293701172
 32
0.5
 13
66.4488906860352
 23
55.3882293701172
 33
0.5
 0
3DFACE
 8
STL2DXF
 10
66.4488906860352
 20
55.3882293701172
 30
5.5
 11
66.2990417480469
 21
55.75
 31
0.5
 12
66.2990417480469
 22
55.75
 32
5.5
 13
66.2990417480469
 23
55.75
 33
5.5
 0
3DFACE
 8
STL2DXF
 10
66.060661315918
 20
56.060661315918
 30
0.5
 11
66.2990417480469
 21
55.75
 31
5.5
 12
66.2990417480469
 22
55.75
 32
0.5
 13
66.2990417480469
 23
55.75
 33
0.5
 0
3DFACE
 8
STL2DXF
 10
66.2990417480469
 20
55.75
 30
5.5
 11
66.060661315918
 21
56.060661315918
 31
0.5
 12
66.060661315918
 22
56.060661315918
 32
5.5
 13
66.060661315918
 23
56.060661315918
 33
5.5
 0
3DFACE
 8
STL2DXF
 10
63.5511131286621
 20
64.6117706298828
 30
5.5
 11
63.5511131286621
 21
65.3882293701172
 31
5.5
 12
63.5
 22
65
 32
5.5
 13
63.5
 23
65
 33
5.5
 0
3DFACE
 8
STL2DXF
 10
63.5511131286621
 20
65.3882293701172
 30
5.5
 11
63.5511131286621
 21
64.6117706298828
 31
5.5
 12
63.7009620666504
 22
64.25
 32
5.5
 13
63.7009620666504
 23
64.25
 33
5.5
 0
3DFACE
 8
STL2DXF
 10
63.5511131286621
 20
65.3882293701172
 30
5.5
 11
63.7009620666504
 21
64.25
 31
5.5
 12
63.7009620666504
 22
65.75
 32
5.5
 13
63.7009620666504
 23
65.75
 33
5.5
 0
3DFACE
 8
STL2DXF
 10
63.7009620666504
 20
65.75
 30
5.5
 11
63.7009620666504
 21
64.25
 31
5.5
 12
63.939338684082
 22
63.939338684082
 32
5.5
 13
63.939338684082
 23
63.939338684082
 33
5.5
 0
3DFACE
 8
STL2DXF
 10
63.7009620666504
 20
65.75
 30
5.5
 11
63.939338684082
 21
63.939338684082
 31
5.5
 12
63.939338684082
 22
66.060661315918
 32
5.5
 13
63.939338684082
 23
66.060661315918
 33
5.5
 0
3DFACE
 8
STL2DXF
 10
63.939338684082
 20
66.060661315918
 30
5.5
 11
63.939338684082
 21
63.939338684082
 31
5.5
 12
64.25
 22
63.7009620666504
 32
5.5
 13
64.25
 23
63.7009620666504
 33
5.5
 0
3DFACE
 8
STL2DXF
 10
63.939338684082
 20
66.060661315918
 30
5.5
 11
64.25
 21
63.7009620666504
 31
5.5
 12
64.25
 22
66.2990417480469
 32
5.5
 13
64.25
 23
66.2990417480469
 33
5.5
 0
3DFACE
 8
STL2DXF
 10
64.25
 20
66.2990417480469
 30
5.5
 11
64.25
 21
63.7009620666504
 31
5.5
 12
64.6117706298828
 22
63.5511131286621
 32
5.5
 13
64.6117706298828
 23
63.5511131286621
 33
5.5
 0
3DFACE
 8
STL2DXF
 10
64.25
 20
66.2990417480469
 30
5.5
 11
64.6117706298828
 21
63.5511131286621
 31
5.5
 12
64.6117706298828
 22
66.4488906860352
 32
5.5
 13
64.6117706298828
 23
66.4488906860352
 33
5.5
 0
3DFACE
 8
STL2DXF
 10
64.6117706298828
 20
66.4488906860352
 30
5.5
 11
64.6117706298828
 21
63.5511131286621
 31
5.5
 12
65
 22
63.5
 32
5.5
 13
65
 23
63.5
 33
5.5
 0
3DFACE
 8
STL2DXF
 10
64.6117706298828
 20
66.4488906860352
 30
5.5
 11
65
 21
63.5
 31
5.5
 12
65
 22
66.5
 32
5.5
 13
65
 23
66.5
 33
5.5
 0
3DFACE
 8
STL2DXF
 10
65
 20
66.5
 30
5.5
 11
65
 21
63.5
 31
5.5
 12
65.3882293701172
 22
63.5511131286621
 32
5.5
 13
65.3882293701172
 23
63.5511131286621
 33
5.5
 0
3DFACE
 8
STL2DXF
 10
65
 20
66.5
 30
5.5
 11
65.3882293701172
 21
63.5511131286621
 31
5.5
 12
65.3882293701172
 22
66.4488906860352
 32
5.5
 13
65.3882293701172
 23
66.4488906860352
 33
5.5
 0
3DFACE
 8
STL2DXF
 10
65.3882293701172
 20
66.4488906860352
 30
5.5
 11
65.3882293701172
 21
63.5511131286621
 31
5.5
 12
65.75
 22
63.7009620666504
 32
5.5
 13
65.75
 23
63.7009620666504
 33
5.5
 0
3DFACE
 8
STL2DXF
 10
65.3882293701172
 20
66.4488906860352
 30
5.5
 11
65.75
 21
63.7009620666504
 31
5.5
 12
65.75
 22
66.2990417480469
 32
5.5
 13
65.75
 23
66.2990417480469
 33
5.5
 0
3DFACE
 8
STL2DXF
 10
65.75
 20
66.2990417480469
 30
5.5
 11
65.75
 21
63.7009620666504
 31
5.5
 12
66.060661315918
 22
63.939338684082
 32
5.5
 13
66.060661315918
 23
63.939338684082
 33
5.5
 0
3DFACE
 8
STL2DXF
 10
65.75
 20
66.2990417480469
 30
5.5
 11
66.060661315918
 21
63.939338684082
 31
5.5
 12
66.060661315918
 22
66.060661315918
 32
5.5
 13
66.060661315918
 23
66.060661315918
 33
5.5
 0
3DFACE
 8
STL2DXF
 10
66.060661315918
 20
66.060661315918
 30
5.5
 11
66.060661315918
 21
63.939338684082
 31
5.5
 12
66.2990417480469
 22
64.25
 32
5.5
 13
66.2990417480469
 23
64.25
 33
5.5
 0
3DFACE
 8
STL2DXF
 10
66.060661315918
 20
66.060661315918
 30
5.5
 11
66.2990417480469
 21
64.25
 31
5.5
 12
66.2990417480469
 22
65.75
 32
5.5
 13
66.2990417480469
 23
65.75
 33
5.5
 0
3DFACE
 8
STL2DXF
 10
66.2990417480469
 20
65.75
 30
5.5
 11
66.2990417480469
 21
64.25
 31
5.5
 12
66.4488906860352
 22
64.6117706298828
 32
5.5
 13
66.4488906860352
 23
64.6117706298828
 33
5.5
 0
3DFACE
 8
STL2DXF
 10
66.2990417480469
 20
65.75
 30
5.5
 11
66.4488906860352
 21
64.6117706298828
 31
5.5
 12
66.4488906860352
 22
65.3882293701172
 32
5.5
 13
66.4488906860352
 23
65.3882293701172
 33
5.5
 0
3DFACE
 8
STL2DXF
 10
66.4488906860352
 20
65.3882293701172
 30
5.5
 11
66.4488906860352
 21
64.6117706298828
 31
5.5
 12
66.5
 22
65
 32
5.5
 13
66.5
 23
65
 33
5.5
 0
3DFACE
 8
STL2DXF
 10
66.2990417480469
 20
64.25
 30
0.5
 11
66.060661315918
 21
63.939338684082
 31
5.5
 12
66.060661315918
 22
63.939338684082
 32
0.5
 13
66.060661315918
 23
63.939338684082
 33
0.5
 0
3DFACE
 8
STL2DXF
 10
66.060661315918
 20
63.939338684082
 30
5.5
 11
66.2990417480469
 21
64.25
 31
0.5
 12
66.2990417480469
 22
64.25
 32
5.5
 13
66.2990417480469
 23
64.25
 33
5.5
 0
3DFACE
 8
STL2DXF
 10
66.4488906860352
 20
64.6117706298828
 30
0.5
 11
66.2990417480469
 21
64.25
 31
5.5
 12
66.2990417480469
 22
64.25
 32
0.5
 13
66.2990417480469
 23
64.25
 33
0.5
 0
3DFACE
 8
STL2DXF
 10
66.2990417480469
 20
64.25
 30
5.5
 11
66.4488906860352
 21
64.6117706298828
 31
0.5
 12
66.4488906860352
 22
64.6117706298828
 32
5.5
 13
66.4488906860352
 23
64.6117706298828
 33
5.5
 0
3DFACE
 8
STL2DXF
 10
66.5
 20
65
 30
0.5
 11
66.4488906860352
 21
64.6117706298828
 31
5.5
 12
66.4488906860352
 22
64.6117706298828
 32
0.5
 13
66.4488906860352
 23
64.6117706298828
 33
0.5
 0
3DFACE
 8
STL2DXF
 10
66.4488906860352
 20
64.6117706298828
 30
5.5
 11
66.5
 21
65
 31
0.5
 12
66.5
 22
65
 32
5.5
 13
66.5
 23
65
 33
5.5
 0
3DFACE
 8
STL2DXF
 10
66.4488906860352
 20
65.3882293701172
 30
0.5
 11
66.5
 21
65
 31
5.5
 12
66.5
 22
65
 32
0.5
 13
66.5
 23
65
 33
0.5
 0
3DFACE
 8
STL2DXF
 10
66.5
 20
65
 30
5.5
 11
66.4488906860352
 21
65.3882293701172
 31
0.5
 12
66.4488906860352
 22
65.3882293701172
 32
5.5
 13
66.4488906860352
 23
65.3882293701172
 33
5.5
 0
3DFACE
 8
STL2DXF
 10
66.2990417480469
 20
65.75
 30
0.5
 11
66.4488906860352
 21
65.3882293701172
 31
5.5
 12
66.4488906860352
 22
65.3882293701172
 32
0.5
 13
66.4488906860352
 23
65.3882293701172
 33
0.5
 0
3DFACE
 8
STL2DXF
 10
66.4488906860352
 20
65.3882293701172
 30
5.5
 11
66.2990417480469
 21
65.75
 31
0.5
 12
66.2990417480469
 22
65.75
 32
5.5
 13
66.2990417480469
 23
65.75
 33
5.5
 0
3DFACE
 8
STL2DXF
 10
66.060661315918
 20
66.060661315918
 30
0.5
 11
66.2990417480469
 21
65.75
 31
5.5
 12
66.2990417480469
 22
65.75
 32
0.5
 13
66.2990417480469
 23
65.75
 33
0.5
 0
3DFACE
 8
STL2DXF
 10
66.2990417480469
 20
65.75
 30
5.5
 11
66.060661315918
 21
66.060661315918
 31
0.5
 12
66.060661315918
 22
66.060661315918
 32
5.5
 13
66.060661315918
 23
66.060661315918
 33
5.5
 0
3DFACE
 8
STL2DXF
 10
65.75
 20
66.2990417480469
 30
5.5
 11
66.060661315918
 21
66.060661315918
 31
0.5
 12
65.75
 22
66.2990417480469
 32
0.5
 13
65.75
 23
66.2990417480469
 33
0.5
 0
3DFACE
 8
STL2DXF
 10
66.060661315918
 20
66.060661315918
 30
0.5
 11
65.75
 21
66.2990417480469
 31
5.5
 12
66.060661315918
 22
66.060661315918
 32
5.5
 13
66.060661315918
 23
66.060661315918
 33
5.5
 0
3DFACE
 8
STL2DXF
 10
65.3882293701172
 20
66.4488906860352
 30
5.5
 11
65.75
 21
66.2990417480469
 31
0.5
 12
65.3882293701172
 22
66.4488906860352
 32
0.5
 13
65.3882293701172
 23
66.4488906860352
 33
0.5
 0
3DFACE
 8
STL2DXF
 10
65.75
 20
66.2990417480469
 30
0.5
 11
65.3882293701172
 21
66.4488906860352
 31
5.5
 12
65.75
 22
66.2990417480469
 32
5.5
 13
65.75
 23
66.2990417480469
 33
5.5
 0
3DFACE
 8
STL2DXF
 10
65
 20
66.5
 30
5.5
 11
65.3882293701172
 21
66.4488906860352
 31
0.5
 12
65
 22
66.5
 32
0.5
 13
65
 23
66.5
 33
0.5
 0
3DFACE
 8
STL2DXF
 10
65.3882293701172
 20
66.4488906860352
 30
0.5
 11
65
 21
66.5
 31
5.5
 12
65.3882293701172
 22
66.4488906860352
 32
5.5
 13
65.3882293701172
 23
66.4488906860352
 33
5.5
 0
3DFACE
 8
STL2DXF
 10
64.6117706298828
 20
66.4488906860352
 30
5.5
 11
65
 21
66.5
 31
0.5
 12
64.6117706298828
 22
66.4488906860352
 32
0.5
 13
64.6117706298828
 23
66.4488906860352
 33
0.5
 0
3DFACE
 8
STL2DXF
 10
65
 20
66.5
 30
0.5
 11
64.6117706298828
 21
66.4488906860352
 31
5.5
 12
65
 22
66.5
 32
5.5
 13
65
 23
66.5
 33
5.5
 0
3DFACE
 8
STL2DXF
 10
64.25
 20
66.2990417480469
 30
5.5
 11
64.6117706298828
 21
66.4488906860352
 31
0.5
 12
64.25
 22
66.2990417480469
 32
0.5
 13
64.25
 23
66.2990417480469
 33
0.5
 0
3DFACE
 8
STL2DXF
 10
64.6117706298828
 20
66.4488906860352
 30
0.5
 11
64.25
 21
66.2990417480469
 31
5.5
 12
64.6117706298828
 22
66.4488906860352
 32
5.5
 13
64.6117706298828
 23
66.4488906860352
 33
5.5
 0
3DFACE
 8
STL2DXF
 10
63.939338684082
 20
66.060661315918
 30
0.5
 11
64.25
 21
66.2990417480469
 31
5.5
 12
64.25
 22
66.2990417480469
 32
0.5
 13
64.25
 23
66.2990417480469
 33
0.5
 0
3DFACE
 8
STL2DXF
 10
64.25
 20
66.2990417480469
 30
5.5
 11
63.939338684082
 21
66.060661315918
 31
0.5
 12
63.939338684082
 22
66.060661315918
 32
5.5
 13
63.939338684082
 23
66.060661315918
 33
5.5
 0
3DFACE
 8
STL2DXF
 10
53.5511131286621
 20
64.6117706298828
 30
5.5
 11
53.5511131286621
 21
65.3882293701172
 31
5.5
 12
53.5
 22
65
 32
5.5
 13
53.5
 23
65
 33
5.5
 0
3DFACE
 8
STL2DXF
 10
53.5511131286621
 20
65.3882293701172
 30
5.5
 11
53.5511131286621
 21
64.6117706298828
 31
5.5
 12
53.7009620666504
 22
64.25
 32
5.5
 13
53.7009620666504
 23
64.25
 33
5.5
 0
3DFACE
 8
STL2DXF
 10
53.5511131286621
 20
65.3882293701172
 30
5.5
 11
53.7009620666504
 21
64.25
 31
5.5
 12
53.7009620666504
 22
65.75
 32
5.5
 13
53.7009620666504
 23
65.75
 33
5.5
 0
3DFACE
 8
STL2DXF
 10
53.7009620666504
 20
65.75
 30
5.5
 11
53.7009620666504
 21
64.25
 31
5.5
 12
53.939338684082
 22
63.939338684082
 32
5.5
 13
53.939338684082
 23
63.939338684082
 33
5.5
 0
3DFACE
 8
STL2DXF
 10
53.7009620666504
 20
65.75
 30
5.5
 11
53.939338684082
 21
63.939338684082
 31
5.5
 12
53.939338684082
 22
66.060661315918
 32
5.5
 13
53.939338684082
 23
66.060661315918
 33
5.5
 0
3DFACE
 8
STL2DXF
 10
53.939338684082
 20
66.060661315918
 30
5.5
 11
53.939338684082
 21
63.939338684082
 31
5.5
 12
54.25
 22
63.7009620666504
 32
5.5
 13
54.25
 23
63.7009620666504
 33
5.5
 0
3DFACE
 8
STL2DXF
 10
53.939338684082
 20
66.060661315918
 30
5.5
 11
54.25
 21
63.7009620666504
 31
5.5
 12
54.25
 22
66.2990417480469
 32
5.5
 13
54.25
 23
66.2990417480469
 33
5.5
 0
3DFACE
 8
STL2DXF
 10
54.25
 20
66.2990417480469
 30
5.5
 11
54.25
 21
63.7009620666504
 31
5.5
 12
54.6117706298828
 22
63.5511131286621
 32
5.5
 13
54.6117706298828
 23
63.5511131286621
 33
5.5
 0
3DFACE
 8
STL2DXF
 10
54.25
 20
66.2990417480469
 30
5.5
 11
54.6117706298828
 21
63.5511131286621
 31
5.5
 12
54.6117706298828
 22
66.4488906860352
 32
5.5
 13
54.6117706298828
 23
66.4488906860352
 33
5.5
 0
3DFACE
 8
STL2DXF
 10
54.6117706298828
 20
66.4488906860352
 30
5.5
 11
54.6117706298828
 21
63.5511131286621
 31
5.5
 12
55
 22
63.5
 32
5.5
 13
55
 23
63.5
 33
5.5
 0
3DFACE
 8
STL2DXF
 10
54.6117706298828
 20
66.4488906860352
 30
5.5
 11
55
 21
63.5
 31
5.5
 12
55
 22
66.5
 32
5.5
 13
55
 23
66.5
 33
5.5
 0
3DFACE
 8
STL2DXF
 10
55
 20
66.5
 30
5.5
 11
55
 21
63.5
 31
5.5
 12
55.3882293701172
 22
63.5511131286621
 32
5.5
 13
55.3882293701172
 23
63.5511131286621
 33
5.5
 0
3DFACE
 8
STL2DXF
 10
55
 20
66.5
 30
5.5
 11
55.3882293701172
 21
63.5511131286621
 31
5.5
 12
55.3882293701172
 22
66.4488906860352
 32
5.5
 13
55.3882293701172
 23
66.4488906860352
 33
5.5
 0
3DFACE
 8
STL2DXF
 10
55.3882293701172
 20
66.4488906860352
 30
5.5
 11
55.3882293701172
 21
63.5511131286621
 31
5.5
 12
55.75
 22
63.7009620666504
 32
5.5
 13
55.75
 23
63.7009620666504
 33
5.5
 0
3DFACE
 8
STL2DXF
 10
55.3882293701172
 20
66.4488906860352
 30
5.5
 11
55.75
 21
63.7009620666504
 31
5.5
 12
55.75
 22
66.2990417480469
 32
5.5
 13
55.75
 23
66.2990417480469
 33
5.5
 0
3DFACE
 8
STL2DXF
 10
55.75
 20
66.2990417480469
 30
5.5
 11
55.75
 21
63.7009620666504
 31
5.5
 12
56.060661315918
 22
63.939338684082
 32
5.5
 13
56.060661315918
 23
63.939338684082
 33
5.5
 0
3DFACE
 8
STL2DXF
 10
55.75
 20
66.2990417480469
 30
5.5
 11
56.060661315918
 21
63.939338684082
 31
5.5
 12
56.060661315918
 22
66.060661315918
 32
5.5
 13
56.060661315918
 23
66.060661315918
 33
5.5
 0
3DFACE
 8
STL2DXF
 10
56.060661315918
 20
66.060661315918
 30
5.5
 11
56.060661315918
 21
63.939338684082
 31
5.5
 12
56.2990379333496
 22
64.25
 32
5.5
 13
56.2990379333496
 23
64.25
 33
5.5
 0
3DFACE
 8
STL2DXF
 10
56.060661315918
 20
66.060661315918
 30
5.5
 11
56.2990379333496
 21
64.25
 31
5.5
 12
56.2990379333496
 22
65.75
 32
5.5
 13
56.2990379333496
 23
65.75
 33
5.5
 0
3DFACE
 8
STL2DXF
 10
56.2990379333496
 20
65.75
 30
5.5
 11
56.2990379333496
 21
64.25
 31
5.5
 12
56.4488868713379
 22
64.6117706298828
 32
5.5
 13
56.4488868713379
 23
64.6117706298828
 33
5.5
 0
3DFACE
 8
STL2DXF
 10
56.2990379333496
 20
65.75
 30
5.5
 11
56.4488868713379
 21
64.6117706298828
 31
5.5
 12
56.4488868713379
 22
65.3882293701172
 32
5.5
 13
56.4488868713379
 23
65.3882293701172
 33
5.5
 0
3DFACE
 8
STL2DXF
 10
56.4488868713379
 20
65.3882293701172
 30
5.5
 11
56.4488868713379
 21
64.6117706298828
 31
5.5
 12
56.5
 22
65
 32
5.5
 13
56.5
 23
65
 33
5.5
 0
3DFACE
 8
STL2DXF
 10
55.75
 20
66.2990417480469
 30
0.5
 11
56.060661315918
 21
66.060661315918
 31
5.5
 12
56.060661315918
 22
66.060661315918
 32
0.5
 13
56.060661315918
 23
66.060661315918
 33
0.5
 0
3DFACE
 8
STL2DXF
 10
56.060661315918
 20
66.060661315918
 30
5.5
 11
55.75
 21
66.2990417480469
 31
0.5
 12
55.75
 22
66.2990417480469
 32
5.5
 13
55.75
 23
66.2990417480469
 33
5.5
 0
3DFACE
 8
STL2DXF
 10
55.3882293701172
 20
66.4488906860352
 30
0.5
 11
55.75
 21
66.2990417480469
 31
5.5
 12
55.75
 22
66.2990417480469
 32
0.5
 13
55.75
 23
66.2990417480469
 33
0.5
 0
3DFACE
 8
STL2DXF
 10
55.75
 20
66.2990417480469
 30
5.5
 11
55.3882293701172
 21
66.4488906860352
 31
0.5
 12
55.3882293701172
 22
66.4488906860352
 32
5.5
 13
55.3882293701172
 23
66.4488906860352
 33
5.5
 0
3DFACE
 8
STL2DXF
 10
55
 20
66.5
 30
0.5
 11
55.3882293701172
 21
66.4488906860352
 31
5.5
 12
55.3882293701172
 22
66.4488906860352
 32
0.5
 13
55.3882293701172
 23
66.4488906860352
 33
0.5
 0
3DFACE
 8
STL2DXF
 10
55.3882293701172
 20
66.4488906860352
 30
5.5
 11
55
 21
66.5
 31
0.5
 12
55
 22
66.5
 32
5.5
 13
55
 23
66.5
 33
5.5
 0
3DFACE
 8
STL2DXF
 10
54.6117706298828
 20
66.4488906860352
 30
0.5
 11
55
 21
66.5
 31
5.5
 12
55
 22
66.5
 32
0.5
 13
55
 23
66.5
 33
0.5
 0
3DFACE
 8
STL2DXF
 10
55
 20
66.5
 30
5.5
 11
54.6117706298828
 21
66.4488906860352
 31
0.5
 12
54.6117706298828
 22
66.4488906860352
 32
5.5
 13
54.6117706298828
 23
66.4488906860352
 33
5.5
 0
3DFACE
 8
STL2DXF
 10
54.25
 20
66.2990417480469
 30
0.5
 11
54.6117706298828
 21
66.4488906860352
 31
5.5
 12
54.6117706298828
 22
66.4488906860352
 32
0.5
 13
54.6117706298828
 23
66.4488906860352
 33
0.5
 0
3DFACE
 8
STL2DXF
 10
54.6117706298828
 20
66.4488906860352
 30
5.5
 11
54.25
 21
66.2990417480469
 31
0.5
 12
54.25
 22
66.2990417480469
 32
5.5
 13
54.25
 23
66.2990417480469
 33
5.5
 0
3DFACE
 8
STL2DXF
 10
53.939338684082
 20
66.060661315918
 30
0.5
 11
54.25
 21
66.2990417480469
 31
5.5
 12
54.25
 22
66.2990417480469
 32
0.5
 13
54.25
 23
66.2990417480469
 33
0.5
 0
3DFACE
 8
STL2DXF
 10
54.25
 20
66.2990417480469
 30
5.5
 11
53.939338684082
 21
66.060661315918
 31
0.5
 12
53.939338684082
 22
66.060661315918
 32
5.5
 13
53.939338684082
 23
66.060661315918
 33
5.5
 0
3DFACE
 8
STL2DXF
 10
53.939338684082
 20
66.060661315918
 30
5.5
 11
53.7009620666504
 21
65.75
 31
0.5
 12
53.7009620666504
 22
65.75
 32
5.5
 13
53.7009620666504
 23
65.75
 33
5.5
 0
3DFACE
 8
STL2DXF
 10
53.7009620666504
 20
65.75
 30
0.5
 11
53.939338684082
 21
66.060661315918
 31
5.5
 12
53.939338684082
 22
66.060661315918
 32
0.5
 13
53.939338684082
 23
66.060661315918
 33
0.5
 0
3DFACE
 8
STL2DXF
 10
53.7009620666504
 20
65.75
 30
5.5
 11
53.5511131286621
 21
65.3882293701172
 31
0.5
 12
53.5511131286621
 22
65.3882293701172
 32
5.5
 13
53.5511131286621
 23
65.3882293701172
 33
5.5
 0
3DFACE
 8
STL2DXF
 10
53.5511131286621
 20
65.3882293701172
 30
0.5
 11
53.7009620666504
 21
65.75
 31
5.5
 12
53.7009620666504
 22
65.75
 32
0.5
 13
53.7009620666504
 23
65.75
 33
0.5
 0
3DFACE
 8
STL2DXF
 10
53.5511131286621
 20
65.3882293701172
 30
5.5
 11
53.5
 21
65
 31
0.5
 12
53.5
 22
65
 32
5.5
 13
53.5
 23
65
 33
5.5
 0
3DFACE
 8
STL2DXF
 10
53.5
 20
65
 30
0.5
 11
53.5511131286621
 21
65.3882293701172
 31
5.5
 12
53.5511131286621
 22
65.3882293701172
 32
0.5
 13
53.5511131286621
 23
65.3882293701172
 33
0.5
 0
3DFACE
 8
STL2DXF
 10
53.5
 20
65
 30
5.5
 11
53.5511131286621
 21
64.6117706298828
 31
0.5
 12
53.5511131286621
 22
64.6117706298828
 32
5.5
 13
53.5511131286621
 23
64.6117706298828
 33
5.5
 0
3DFACE
 8
STL2DXF
 10
53.5511131286621
 20
64.6117706298828
 30
0.5
 11
53.5
 21
65
 31
5.5
 12
53.5
 22
65
 32
0.5
 13
53.5
 23
65
 33
0.5
 0
3DFACE
 8
STL2DXF
 10
53.5511131286621
 20
64.6117706298828
 30
5.5
 11
53.7009620666504
 21
64.25
 31
0.5
 12
53.7009620666504
 22
64.25
 32
5.5
 13
53.7009620666504
 23
64.25
 33
5.5
 0
3DFACE
 8
STL2DXF
 10
53.7009620666504
 20
64.25
 30
0.5
 11
53.5511131286621
 21
64.6117706298828
 31
5.5
 12
53.5511131286621
 22
64.6117706298828
 32
0.5
 13
53.5511131286621
 23
64.6117706298828
 33
0.5
 0
3DFACE
 8
STL2DXF
 10
53.7009620666504
 20
64.25
 30
5.5
 11
53.939338684082
 21
63.939338684082
 31
0.5
 12
53.939338684082
 22
63.939338684082
 32
5.5
 13
53.939338684082
 23
63.939338684082
 33
5.5
 0
3DFACE
 8
STL2DXF
 10
53.939338684082
 20
63.939338684082
 30
0.5
 11
53.7009620666504
 21
64.25
 31
5.5
 12
53.7009620666504
 22
64.25
 32
0.5
 13
53.7009620666504
 23
64.25
 33
0.5
 0
3DFACE
 8
STL2DXF
 10
37.8786811828613
 20
80
 30
0.5
 11
15
 21
80
 31
3.1249569582394E-14
 12
37.8786811828613
 22
80
 32
3.05820093641357E-14
 13
37.8786811828613
 23
80
 33
3.05820093641357E-14
 0
3DFACE
 8
STL2DXF
 10
15
 20
80
 30
3.1249569582394E-14
 11
37.8786811828613
 21
80
 31
0.5
 12
15
 22
80
 32
0.5
 13
15
 23
80
 33
0.5
 0
3DFACE
 8
STL2DXF
 10
47.8786811828613
 20
70
 30
0.5
 11
37.8786811828613
 21
80
 31
3.05820093641357E-14
 12
47.8786811828613
 22
70
 32
2.70540527643175E-14
 13
47.8786811828613
 23
70
 33
2.70540527643175E-14
 0
3DFACE
 8
STL2DXF
 10
37.8786811828613
 20
80
 30
3.05820093641357E-14
 11
47.8786811828613
 21
70
 31
0.5
 12
37.8786811828613
 22
80
 32
0.5
 13
37.8786811828613
 23
80
 33
0.5
 0
3DFACE
 8
STL2DXF
 10
40
 20
82.1213226318359
 30
3.13016045104097E-14
 11
50
 21
72.1213226318359
 31
0.5
 12
50
 22
72.1213226318359
 32
2.56440698618568E-14
 13
50
 23
72.1213226318359
 33
2.56440698618568E-14
 0
3DFACE
 8
STL2DXF
 10
50
 20
72.1213226318359
 30
0.5
 11
40
 21
82.1213226318359
 31
3.13016045104097E-14
 12
40
 22
82.1213226318359
 32
0.5
 13
40
 23
82.1213226318359
 33
0.5
 0
3DFACE
 8
STL2DXF
 10
40
 20
105
 30
3.16487558816442E-14
 11
40
 21
82.1213226318359
 31
0.5
 12
40
 22
82.1213226318359
 32
3.13016045104097E-14
 13
40
 23
82.1213226318359
 33
3.13016045104097E-14
 0
3DFACE
 8
STL2DXF
 10
40
 20
82.1213226318359
 30
0.5
 11
40
 21
105
 31
3.16487558816442E-14
 12
40
 22
105
 32
0.5
 13
40
 23
105
 33
0.5
 0
3DFACE
 8
STL2DXF
 10
10
 20
85
 30
0.5
 11
15
 21
80
 31
3.1249569582394E-14
 12
15
 22
80
 32
0.5
 13
15
 23
80
 33
0.5
 0
3DFACE
 8
STL2DXF
 10
15
 20
80
 30
3.1249569582394E-14
 11
10
 21
85
 31
0.5
 12
10
 22
85
 32
3.1395462537229E-14
 13
10
 23
85
 33
3.1395462537229E-14
 0
3DFACE
 8
STL2DXF
 10
10
 20
105
 30
0.5
 11
15
 21
110
 31
3.14503231671568E-14
 12
10
 22
105
 32
3.1395462537229E-14
 13
10
 23
105
 33
3.1395462537229E-14
 0
3DFACE
 8
STL2DXF
 10
15
 20
110
 30
3.14503231671568E-14
 11
10
 21
105
 31
0.5
 12
15
 22
110
 32
0.5
 13
15
 23
110
 33
0.5
 0
3DFACE
 8
STL2DXF
 10
15
 20
110
 30
3.14503231671568E-14
 11
10
 21
85
 31
3.1395462537229E-14
 12
10
 22
105
 32
3.1395462537229E-14
 13
10
 23
105
 33
3.1395462537229E-14
 0
3DFACE
 8
STL2DXF
 10
10
 20
85
 30
3.1395462537229E-14
 11
15
 21
110
 31
3.14503231671568E-14
 12
15
 22
80
 32
3.1249569582394E-14
 13
15
 23
80
 33
3.1249569582394E-14
 0
3DFACE
 8
STL2DXF
 10
15
 20
80
 30
3.1249569582394E-14
 11
15
 21
110
 31
3.14503231671568E-14
 12
35
 22
110
 32
3.16697622987361E-14
 13
35
 23
110
 33
3.16697622987361E-14
 0
3DFACE
 8
STL2DXF
 10
15
 20
80
 30
3.1249569582394E-14
 11
35
 21
110
 31
3.16697622987361E-14
 12
37.8786811828613
 22
80
 32
3.05820093641357E-14
 13
37.8786811828613
 23
80
 33
3.05820093641357E-14
 0
3DFACE
 8
STL2DXF
 10
37.8786811828613
 20
80
 30
3.05820093641357E-14
 11
35
 21
110
 31
3.16697622987361E-14
 12
40
 22
105
 32
3.16487558816442E-14
 13
40
 23
105
 33
3.16487558816442E-14
 0
3DFACE
 8
STL2DXF
 10
37.8786811828613
 20
80
 30
3.05820093641357E-14
 11
40
 21
105
 31
3.16487558816442E-14
 12
40
 22
82.1213226318359
 32
3.13016045104097E-14
 13
40
 23
82.1213226318359
 33
3.13016045104097E-14
 0
3DFACE
 8
STL2DXF
 10
37.8786811828613
 20
80
 30
3.05820093641357E-14
 11
40
 21
82.1213226318359
 31
3.13016045104097E-14
 12
47.8786811828613
 22
70
 32
2.70540527643175E-14
 13
47.8786811828613
 23
70
 33
2.70540527643175E-14
 0
3DFACE
 8
STL2DXF
 10
47.8786811828613
 20
70
 30
2.70540527643175E-14
 11
40
 21
82.1213226318359
 31
3.13016045104097E-14
 12
50
 22
72.1213226318359
 32
2.56440698618568E-14
 13
50
 23
72.1213226318359
 33
2.56440698618568E-14
 0
3DFACE
 8
STL2DXF
 10
47.8786811828613
 20
70
 30
2.70540527643175E-14
 11
50
 21
72.1213226318359
 31
2.56440698618568E-14
 12
53.939338684082
 22
63.939338684082
 32
2.52915737127251E-14
 13
53.939338684082
 23
63.939338684082
 33
2.52915737127251E-14
 0
3DFACE
 8
STL2DXF
 10
53.939338684082
 20
63.939338684082
 30
2.52915737127251E-14
 11
50
 21
72.1213226318359
 31
2.56440698618568E-14
 12
56.060661315918
 22
66.060661315918
 32
2.24716079078036E-14
 13
56.060661315918
 23
66.060661315918
 33
2.24716079078036E-14
 0
3DFACE
 8
STL2DXF
 10
53.939338684082
 20
63.939338684082
 30
2.52915737127251E-14
 11
56.060661315918
 21
66.060661315918
 31
2.24716079078036E-14
 12
54.25
 22
63.7009620666504
 32
2.49390792576593E-14
 13
54.25
 23
63.7009620666504
 33
2.49390792576593E-14
 0
3DFACE
 8
STL2DXF
 10
54.25
 20
63.7009620666504
 30
2.49390792576593E-14
 11
56.060661315918
 21
66.060661315918
 31
2.24716079078036E-14
 12
54.6117706298828
 22
63.5511131286621
 32
2.45865831085277E-14
 13
54.6117706298828
 23
63.5511131286621
 33
2.45865831085277E-14
 0
3DFACE
 8
STL2DXF
 10
54.6117706298828
 20
63.5511131286621
 30
2.45865831085277E-14
 11
56.060661315918
 21
66.060661315918
 31
2.24716079078036E-14
 12
55
 22
63.5
 32
2.38815908102643E-14
 13
55
 23
63.5
 33
2.38815908102643E-14
 0
3DFACE
 8
STL2DXF
 10
55
 20
63.5
 30
2.38815908102643E-14
 11
56.060661315918
 21
66.060661315918
 31
2.24716079078036E-14
 12
55.3882293701172
 22
63.5511131286621
 32
2.31766002060669E-14
 13
55.3882293701172
 23
63.5511131286621
 33
2.31766002060669E-14
 0
3DFACE
 8
STL2DXF
 10
55.3882293701172
 20
63.5511131286621
 30
2.31766002060669E-14
 11
56.060661315918
 21
66.060661315918
 31
2.24716079078036E-14
 12
55.75
 22
63.7009620666504
 32
2.28241040569352E-14
 13
55.75
 23
63.7009620666504
 33
2.28241040569352E-14
 0
3DFACE
 8
STL2DXF
 10
55.75
 20
63.7009620666504
 30
2.28241040569352E-14
 11
56.060661315918
 21
66.060661315918
 31
2.24716079078036E-14
 12
56.060661315918
 22
63.939338684082
 32
2.24716079078036E-14
 13
56.060661315918
 23
63.939338684082
 33
2.24716079078036E-14
 0
3DFACE
 8
STL2DXF
 10
56.060661315918
 20
63.939338684082
 30
2.24716079078036E-14
 11
56.060661315918
 21
66.060661315918
 31
2.24716079078036E-14
 12
56.2990379333496
 22
64.25
 32
2.17666156095402E-14
 13
56.2990379333496
 23
64.25
 33
2.17666156095402E-14
 0
3DFACE
 8
STL2DXF
 10
56.2990379333496
 20
64.25
 30
2.17666156095402E-14
 11
56.060661315918
 21
66.060661315918
 31
2.24716079078036E-14
 12
56.2990379333496
 22
65.75
 32
2.17666156095402E-14
 13
56.2990379333496
 23
65.75
 33
2.17666156095402E-14
 0
3DFACE
 8
STL2DXF
 10
56.2990379333496
 20
64.25
 30
2.17666156095402E-14
 11
56.2990379333496
 21
65.75
 31
2.17666156095402E-14
 12
56.4488868713379
 22
64.6117706298828
 32
2.17666156095402E-14
 13
56.4488868713379
 23
64.6117706298828
 33
2.17666156095402E-14
 0
3DFACE
 8
STL2DXF
 10
56.4488868713379
 20
64.6117706298828
 30
2.17666156095402E-14
 11
56.2990379333496
 21
65.75
 31
2.17666156095402E-14
 12
56.4488868713379
 22
65.3882293701172
 32
2.17666156095402E-14
 13
56.4488868713379
 23
65.3882293701172
 33
2.17666156095402E-14
 0
3DFACE
 8
STL2DXF
 10
56.4488868713379
 20
64.6117706298828
 30
2.17666156095402E-14
 11
56.4488868713379
 21
65.3882293701172
 31
2.17666156095402E-14
 12
56.5
 22
65
 32
2.17666156095402E-14
 13
56.5
 23
65
 33
2.17666156095402E-14
 0
3DFACE
 8
STL2DXF
 10
35
 20
110
 30
3.16697622987361E-14
 11
40
 21
105
 31
0.5
 12
40
 22
105
 32
3.16487558816442E-14
 13
40
 23
105
 33
3.16487558816442E-14
 0
3DFACE
 8
STL2DXF
 10
40
 20
105
 30
0.5
 11
35
 21
110
 31
3.16697622987361E-14
 12
35
 22
110
 32
0.5
 13
35
 23
110
 33
0.5
 0
3DFACE
 8
STL2DXF
 10
80
 20
105
 30
0.5
 11
80
 21
82.1213226318359
 31
3.97262619664367E-14
 12
80
 22
82.1213226318359
 32
0.5
 13
80
 23
82.1213226318359
 33
0.5
 0
3DFACE
 8
STL2DXF
 10
80
 20
82.1213226318359
 30
3.97262619664367E-14
 11
80
 21
105
 31
0.5
 12
80
 22
105
 32
3.31597068054836E-14
 13
80
 23
105
 33
3.31597068054836E-14
 0
3DFACE
 8
STL2DXF
 10
80
 20
82.1213226318359
 30
0.5
 11
70
 21
72.1213226318359
 31
4.42382235173438E-14
 12
70
 22
72.1213226318359
 32
0.5
 13
70
 23
72.1213226318359
 33
0.5
 0
3DFACE
 8
STL2DXF
 10
70
 20
72.1213226318359
 30
4.42382235173438E-14
 11
80
 21
82.1213226318359
 31
0.5
 12
80
 22
82.1213226318359
 32
3.97262619664367E-14
 13
80
 23
82.1213226318359
 33
3.97262619664367E-14
 0
3DFACE
 8
STL2DXF
 10
82.1213226318359
 20
80
 30
4.21694776808149E-14
 11
72.1213226318359
 21
70
 31
0.5
 12
72.1213226318359
 22
70
 32
4.43263488251761E-14
 13
72.1213226318359
 23
70
 33
4.43263488251761E-14
 0
3DFACE
 8
STL2DXF
 10
72.1213226318359
 20
70
 30
0.5
 11
82.1213226318359
 21
80
 31
4.21694776808149E-14
 12
82.1213226318359
 22
80
 32
0.5
 13
82.1213226318359
 23
80
 33
0.5
 0
3DFACE
 8
STL2DXF
 10
105
 20
80
 30
0.5
 11
82.1213226318359
 21
80
 31
4.21694776808149E-14
 12
105
 22
80
 32
3.35978905016254E-14
 13
105
 23
80
 33
3.35978905016254E-14
 0
3DFACE
 8
STL2DXF
 10
82.1213226318359
 20
80
 30
4.21694776808149E-14
 11
105
 21
80
 31
0.5
 12
82.1213226318359
 22
80
 32
0.5
 13
82.1213226318359
 23
80
 33
0.5
 0
3DFACE
 8
STL2DXF
 10
85
 20
110
 30
3.17246229286638E-14
 11
80
 21
82.1213226318359
 31
3.97262619664367E-14
 12
80
 22
105
 32
3.31597068054836E-14
 13
80
 23
105
 33
3.31597068054836E-14
 0
3DFACE
 8
STL2DXF
 10
80
 20
82.1213226318359
 30
3.97262619664367E-14
 11
85
 21
110
 31
3.17246229286638E-14
 12
82.1213226318359
 22
80
 32
4.21694776808149E-14
 13
82.1213226318359
 23
80
 33
4.21694776808149E-14
 0
3DFACE
 8
STL2DXF
 10
82.1213226318359
 20
80
 30
4.21694776808149E-14
 11
85
 21
110
 31
3.17246229286638E-14
 12
105
 22
80
 32
3.35978905016254E-14
 13
105
 23
80
 33
3.35978905016254E-14
 0
3DFACE
 8
STL2DXF
 10
105
 20
80
 30
3.35978905016254E-14
 11
85
 21
110
 31
3.17246229286638E-14
 12
105
 22
110
 32
3.17246229286638E-14
 13
105
 23
110
 33
3.17246229286638E-14
 0
3DFACE
 8
STL2DXF
 10
105
 20
80
 30
3.35978905016254E-14
 11
105
 21
110
 31
3.17246229286638E-14
 12
110
 22
105
 32
3.17246229286638E-14
 13
110
 23
105
 33
3.17246229286638E-14
 0
3DFACE
 8
STL2DXF
 10
105
 20
80
 30
3.35978905016254E-14
 11
110
 21
105
 31
3.17246229286638E-14
 12
110
 22
85
 32
3.17246229286638E-14
 13
110
 23
85
 33
3.17246229286638E-14
 0
3DFACE
 8
STL2DXF
 10
63.5511131286621
 20
65.3882293701172
 30
4.28282423089489E-14
 11
63.5511131286621
 21
64.6117706298828
 31
4.28282423089489E-14
 12
63.5
 22
65
 32
4.28282423089489E-14
 13
63.5
 23
65
 33
4.28282423089489E-14
 0
3DFACE
 8
STL2DXF
 10
63.5511131286621
 20
64.6117706298828
 30
4.28282423089489E-14
 11
63.5511131286621
 21
65.3882293701172
 31
4.28282423089489E-14
 12
63.7009620666504
 22
65.75
 32
4.28282423089489E-14
 13
63.7009620666504
 23
65.75
 33
4.28282423089489E-14
 0
3DFACE
 8
STL2DXF
 10
63.5511131286621
 20
64.6117706298828
 30
4.28282423089489E-14
 11
63.7009620666504
 21
65.75
 31
4.28282423089489E-14
 12
63.7009620666504
 22
64.25
 32
4.28282423089489E-14
 13
63.7009620666504
 23
64.25
 33
4.28282423089489E-14
 0
3DFACE
 8
STL2DXF
 10
63.7009620666504
 20
64.25
 30
4.28282423089489E-14
 11
63.7009620666504
 21
65.75
 31
4.28282423089489E-14
 12
63.939338684082
 22
66.060661315918
 32
4.21232500106856E-14
 13
63.939338684082
 23
66.060661315918
 33
4.21232500106856E-14
 0
3DFACE
 8
STL2DXF
 10
63.7009620666504
 20
64.25
 30
4.28282423089489E-14
 11
63.939338684082
 21
66.060661315918
 31
4.21232500106856E-14
 12
63.939338684082
 22
63.939338684082
 32
4.21232500106856E-14
 13
63.939338684082
 23
63.939338684082
 33
4.21232500106856E-14
 0
3DFACE
 8
STL2DXF
 10
63.939338684082
 20
63.939338684082
 30
4.21232500106856E-14
 11
63.939338684082
 21
66.060661315918
 31
4.21232500106856E-14
 12
70
 22
72.1213226318359
 32
4.42382235173438E-14
 13
70
 23
72.1213226318359
 33
4.42382235173438E-14
 0
3DFACE
 8
STL2DXF
 10
63.939338684082
 20
63.939338684082
 30
4.21232500106856E-14
 11
70
 21
72.1213226318359
 31
4.42382235173438E-14
 12
64.25
 22
63.7009620666504
 32
4.21232500106856E-14
 13
64.25
 23
63.7009620666504
 33
4.21232500106856E-14
 0
3DFACE
 8
STL2DXF
 10
64.25
 20
63.7009620666504
 30
4.21232500106856E-14
 11
70
 21
72.1213226318359
 31
4.42382235173438E-14
 12
64.6117706298828
 22
63.5511131286621
 32
4.14182577124222E-14
 13
64.6117706298828
 23
63.5511131286621
 33
4.14182577124222E-14
 0
3DFACE
 8
STL2DXF
 10
64.6117706298828
 20
63.5511131286621
 30
4.14182577124222E-14
 11
70
 21
72.1213226318359
 31
4.42382235173438E-14
 12
65
 22
63.5
 32
4.07132654141589E-14
 13
65
 23
63.5
 33
4.07132654141589E-14
 0
3DFACE
 8
STL2DXF
 10
65
 20
63.5
 30
4.07132654141589E-14
 11
70
 21
72.1213226318359
 31
4.42382235173438E-14
 12
65.3882293701172
 22
63.5511131286621
 32
4.00082731158956E-14
 13
65.3882293701172
 23
63.5511131286621
 33
4.00082731158956E-14
 0
3DFACE
 8
STL2DXF
 10
65.3882293701172
 20
63.5511131286621
 30
4.00082731158956E-14
 11
70
 21
72.1213226318359
 31
4.42382235173438E-14
 12
65.75
 22
63.7009620666504
 32
3.9303284205764E-14
 13
65.75
 23
63.7009620666504
 33
3.9303284205764E-14
 0
3DFACE
 8
STL2DXF
 10
65.75
 20
63.7009620666504
 30
3.9303284205764E-14
 11
70
 21
72.1213226318359
 31
4.42382235173438E-14
 12
66.060661315918
 22
63.939338684082
 32
3.9303284205764E-14
 13
66.060661315918
 23
63.939338684082
 33
3.9303284205764E-14
 0
3DFACE
 8
STL2DXF
 10
66.060661315918
 20
63.939338684082
 30
3.9303284205764E-14
 11
70
 21
72.1213226318359
 31
4.42382235173438E-14
 12
72.1213226318359
 22
70
 32
4.43263488251761E-14
 13
72.1213226318359
 23
70
 33
4.43263488251761E-14
 0
3DFACE
 8
STL2DXF
 10
72.1213226318359
 20
70
 30
4.43263488251761E-14
 11
70
 21
72.1213226318359
 31
4.42382235173438E-14
 12
80
 22
82.1213226318359
 32
3.97262619664367E-14
 13
80
 23
82.1213226318359
 33
3.97262619664367E-14
 0
3DFACE
 8
STL2DXF
 10
72.1213226318359
 20
70
 30
4.43263488251761E-14
 11
80
 21
82.1213226318359
 31
3.97262619664367E-14
 12
82.1213226318359
 22
80
 32
4.21694776808149E-14
 13
82.1213226318359
 23
80
 33
4.21694776808149E-14
 0
3DFACE
 8
STL2DXF
 10
80
 20
105
 30
3.31597068054836E-14
 11
85
 21
110
 31
0.5
 12
85
 22
110
 32
3.17246229286638E-14
 13
85
 23
110
 33
3.17246229286638E-14
 0
3DFACE
 8
STL2DXF
 10
85
 20
110
 30
0.5
 11
80
 21
105
 31
3.31597068054836E-14
 12
80
 22
105
 32
0.5
 13
80
 23
105
 33
0.5
 0
3DFACE
 8
STL2DXF
 10
105
 20
110
 30
3.17246229286638E-14
 11
110
 21
105
 31
0.5
 12
110
 22
105
 32
3.17246229286638E-14
 13
110
 23
105
 33
3.17246229286638E-14
 0
3DFACE
 8
STL2DXF
 10
110
 20
105
 30
0.5
 11
105
 21
110
 31
3.17246229286638E-14
 12
105
 22
110
 32
0.5
 13
105
 23
110
 33
0.5
 0
3DFACE
 8
STL2DXF
 10
110
 20
85
 30
3.17246229286638E-14
 11
105
 21
80
 31
0.5
 12
105
 22
80
 32
3.35978905016254E-14
 13
105
 23
80
 33
3.35978905016254E-14
 0
3DFACE
 8
STL2DXF
 10
105
 20
80
 30
0.5
 11
110
 21
85
 31
3.17246229286638E-14
 12
110
 22
85
 32
0.5
 13
110
 23
85
 33
0.5
 0
3DFACE
 8
STL2DXF
 10
82.1213226318359
 20
40
 30
3.75803378758859E-14
 11
105
 21
40
 31
0.5
 12
105
 22
40
 32
3.27748353630419E-14
 13
105
 23
40
 33
3.27748353630419E-14
 0
3DFACE
 8
STL2DXF
 10
105
 20
40
 30
0.5
 11
82.1213226318359
 21
40
 31
3.75803378758859E-14
 12
82.1213226318359
 22
40
 32
0.5
 13
82.1213226318359
 23
40
 33
0.5
 0
3DFACE
 8
STL2DXF
 10
72.1213226318359
 20
50
 30
1.63910548409965E-14
 11
82.1213226318359
 21
40
 31
0.5
 12
82.1213226318359
 22
40
 32
3.75803378758859E-14
 13
82.1213226318359
 23
40
 33
3.75803378758859E-14
 0
3DFACE
 8
STL2DXF
 10
82.1213226318359
 20
40
 30
0.5
 11
72.1213226318359
 21
50
 31
1.63910548409965E-14
 12
72.1213226318359
 22
50
 32
0.5
 13
72.1213226318359
 23
50
 33
0.5
 0
3DFACE
 8
STL2DXF
 10
80
 20
37.8786811828613
 30
4.71901299503932E-14
 11
70
 21
47.8786811828613
 31
0.5
 12
70
 22
47.8786811828613
 32
1.95635167950497E-14
 13
70
 23
47.8786811828613
 33
1.95635167950497E-14
 0
3DFACE
 8
STL2DXF
 10
70
 20
47.8786811828613
 30
0.5
 11
80
 21
37.8786811828613
 31
4.71901299503932E-14
 12
80
 22
37.8786811828613
 32
0.5
 13
80
 23
37.8786811828613
 33
0.5
 0
3DFACE
 8
STL2DXF
 10
80
 20
37.8786811828613
 30
0.5
 11
80
 21
15
 31
4.08442336484634E-14
 12
80
 22
15
 32
0.5
 13
80
 23
15
 33
0.5
 0
3DFACE
 8
STL2DXF
 10
80
 20
15
 30
4.08442336484634E-14
 11
80
 21
37.8786811828613
 31
0.5
 12
80
 22
37.8786811828613
 32
4.71901299503932E-14
 13
80
 23
37.8786811828613
 33
4.71901299503932E-14
 0
3DFACE
 8
STL2DXF
 10
105
 20
40
 30
3.27748353630419E-14
 11
110
 21
35
 31
0.5
 12
110
 22
35
 32
3.17246229286638E-14
 13
110
 23
35
 33
3.17246229286638E-14
 0
3DFACE
 8
STL2DXF
 10
110
 20
35
 30
0.5
 11
105
 21
40
 31
3.27748353630419E-14
 12
105
 22
40
 32
0.5
 13
105
 23
40
 33
0.5
 0
3DFACE
 8
STL2DXF
 10
110
 20
15
 30
3.17246229286638E-14
 11
105
 21
10
 31
0.5
 12
105
 22
10
 32
3.30134140510974E-14
 13
105
 23
10
 33
3.30134140510974E-14
 0
3DFACE
 8
STL2DXF
 10
105
 20
10
 30
0.5
 11
110
 21
15
 31
3.17246229286638E-14
 12
110
 22
15
 32
0.5
 13
110
 23
15
 33
0.5
 0
3DFACE
 8
STL2DXF
 10
63.5511131286621
 20
55.3882293701172
 30
2.81996644019625E-15
 11
63.5511131286621
 21
54.6117706298828
 31
2.81996644019625E-15
 12
63.5
 22
55
 32
2.81996644019625E-15
 13
63.5
 23
55
 33
2.81996644019625E-15
 0
3DFACE
 8
STL2DXF
 10
63.5511131286621
 20
54.6117706298828
 30
2.81996644019625E-15
 11
63.5511131286621
 21
55.3882293701172
 31
2.81996644019625E-15
 12
63.7009620666504
 22
55.75
 32
2.81996644019625E-15
 13
63.7009620666504
 23
55.75
 33
2.81996644019625E-15
 0
3DFACE
 8
STL2DXF
 10
63.5511131286621
 20
54.6117706298828
 30
2.81996644019625E-15
 11
63.7009620666504
 21
55.75
 31
2.81996644019625E-15
 12
63.7009620666504
 22
54.25
 32
2.81996644019625E-15
 13
63.7009620666504
 23
54.25
 33
2.81996644019625E-15
 0
3DFACE
 8
STL2DXF
 10
63.7009620666504
 20
54.25
 30
2.81996644019625E-15
 11
63.7009620666504
 21
55.75
 31
2.81996644019625E-15
 12
63.939338684082
 22
56.060661315918
 32
2.81996644019625E-15
 13
63.939338684082
 23
56.060661315918
 33
2.81996644019625E-15
 0
3DFACE
 8
STL2DXF
 10
63.7009620666504
 20
54.25
 30
2.81996644019625E-15
 11
63.939338684082
 21
56.060661315918
 31
2.81996644019625E-15
 12
63.939338684082
 22
53.939338684082
 32
2.81996644019625E-15
 13
63.939338684082
 23
53.939338684082
 33
2.81996644019625E-15
 0
3DFACE
 8
STL2DXF
 10
63.939338684082
 20
53.939338684082
 30
2.81996644019625E-15
 11
63.939338684082
 21
56.060661315918
 31
2.81996644019625E-15
 12
64.25
 22
56.2990379333496
 32
2.11497477720763E-15
 13
64.25
 23
56.2990379333496
 33
2.11497477720763E-15
 0
3DFACE
 8
STL2DXF
 10
63.939338684082
 20
53.939338684082
 30
2.81996644019625E-15
 11
64.25
 21
56.2990379333496
 31
2.11497477720763E-15
 12
70
 22
47.8786811828613
 32
1.95635167950497E-14
 13
70
 23
47.8786811828613
 33
1.95635167950497E-14
 0
3DFACE
 8
STL2DXF
 10
70
 20
47.8786811828613
 30
1.95635167950497E-14
 11
64.25
 21
56.2990379333496
 31
2.11497477720763E-15
 12
64.6117706298828
 22
56.4488868713379
 32
1.40998322009813E-15
 13
64.6117706298828
 23
56.4488868713379
 33
1.40998322009813E-15
 0
3DFACE
 8
STL2DXF
 10
70
 20
47.8786811828613
 30
1.95635167950497E-14
 11
64.6117706298828
 21
56.4488868713379
 31
1.40998322009813E-15
 12
65
 22
56.5
 32
1.40998322009813E-15
 13
65
 23
56.5
 33
1.40998322009813E-15
 0
3DFACE
 8
STL2DXF
 10
70
 20
47.8786811828613
 30
1.95635167950497E-14
 11
65
 21
56.5
 31
1.40998322009813E-15
 12
65.3882293701172
 22
56.4488868713379
 32
5.87747175411144E-39
 13
65.3882293701172
 23
56.4488868713379
 33
5.87747175411144E-39
 0
3DFACE
 8
STL2DXF
 10
70
 20
47.8786811828613
 30
1.95635167950497E-14
 11
65.3882293701172
 21
56.4488868713379
 31
5.87747175411144E-39
 12
65.75
 22
56.2990379333496
 32
5.87747175411144E-39
 13
65.75
 23
56.2990379333496
 33
5.87747175411144E-39
 0
3DFACE
 8
STL2DXF
 10
70
 20
47.8786811828613
 30
1.95635167950497E-14
 11
65.75
 21
56.2990379333496
 31
5.87747175411144E-39
 12
66.060661315918
 22
56.060661315918
 32
5.87747175411144E-39
 13
66.060661315918
 23
56.060661315918
 33
5.87747175411144E-39
 0
3DFACE
 8
STL2DXF
 10
70
 20
47.8786811828613
 30
1.95635167950497E-14
 11
66.060661315918
 21
56.060661315918
 31
5.87747175411144E-39
 12
72.1213226318359
 22
50
 32
1.63910548409965E-14
 13
72.1213226318359
 23
50
 33
1.63910548409965E-14
 0
3DFACE
 8
STL2DXF
 10
70
 20
47.8786811828613
 30
1.95635167950497E-14
 11
72.1213226318359
 21
50
 31
1.63910548409965E-14
 12
80
 22
37.8786811828613
 32
4.71901299503932E-14
 13
80
 23
37.8786811828613
 33
4.71901299503932E-14
 0
3DFACE
 8
STL2DXF
 10
80
 20
37.8786811828613
 30
4.71901299503932E-14
 11
72.1213226318359
 21
50
 31
1.63910548409965E-14
 12
82.1213226318359
 22
40
 32
3.75803378758859E-14
 13
82.1213226318359
 23
40
 33
3.75803378758859E-14
 0
3DFACE
 8
STL2DXF
 10
80
 20
37.8786811828613
 30
4.71901299503932E-14
 11
82.1213226318359
 21
40
 31
3.75803378758859E-14
 12
80
 22
15
 32
4.08442336484634E-14
 13
80
 23
15
 33
4.08442336484634E-14
 0
3DFACE
 8
STL2DXF
 10
80
 20
15
 30
4.08442336484634E-14
 11
82.1213226318359
 21
40
 31
3.75803378758859E-14
 12
85
 22
10
 32
3.8168585317095E-14
 13
85
 23
10
 33
3.8168585317095E-14
 0
3DFACE
 8
STL2DXF
 10
85
 20
10
 30
3.8168585317095E-14
 11
82.1213226318359
 21
40
 31
3.75803378758859E-14
 12
105
 22
40
 32
3.27748353630419E-14
 13
105
 23
40
 33
3.27748353630419E-14
 0
3DFACE
 8
STL2DXF
 10
85
 20
10
 30
3.8168585317095E-14
 11
105
 21
40
 31
3.27748353630419E-14
 12
105
 22
10
 32
3.30134140510974E-14
 13
105
 23
10
 33
3.30134140510974E-14
 0
3DFACE
 8
STL2DXF
 10
105
 20
10
 30
3.30134140510974E-14
 11
105
 21
40
 31
3.27748353630419E-14
 12
110
 22
35
 32
3.17246229286638E-14
 13
110
 23
35
 33
3.17246229286638E-14
 0
3DFACE
 8
STL2DXF
 10
105
 20
10
 30
3.30134140510974E-14
 11
110
 21
35
 31
3.17246229286638E-14
 12
110
 22
15
 32
3.17246229286638E-14
 13
110
 23
15
 33
3.17246229286638E-14
 0
3DFACE
 8
STL2DXF
 10
85
 20
10
 30
0.5
 11
80
 21
15
 31
4.08442336484634E-14
 12
85
 22
10
 32
3.8168585317095E-14
 13
85
 23
10
 33
3.8168585317095E-14
 0
3DFACE
 8
STL2DXF
 10
80
 20
15
 30
4.08442336484634E-14
 11
85
 21
10
 31
0.5
 12
80
 22
15
 32
0.5
 13
80
 23
15
 33
0.5
 0
3DFACE
 8
STL2DXF
 10
40
 20
37.8786811828613
 30
2.5681530740982E-14
 11
40
 21
15
 31
0.5
 12
40
 22
15
 32
3.06408036150705E-14
 13
40
 23
15
 33
3.06408036150705E-14
 0
3DFACE
 8
STL2DXF
 10
40
 20
15
 30
0.5
 11
40
 21
37.8786811828613
 31
2.5681530740982E-14
 12
40
 22
37.8786811828613
 32
0.5
 13
40
 23
37.8786811828613
 33
0.5
 0
3DFACE
 8
STL2DXF
 10
50
 20
47.8786811828613
 30
0.5
 11
40
 21
37.8786811828613
 31
2.5681530740982E-14
 12
50
 22
47.8786811828613
 32
2.12378722328757E-14
 13
50
 23
47.8786811828613
 33
2.12378722328757E-14
 0
3DFACE
 8
STL2DXF
 10
40
 20
37.8786811828613
 30
2.5681530740982E-14
 11
50
 21
47.8786811828613
 31
0.5
 12
40
 22
37.8786811828613
 32
0.5
 13
40
 23
37.8786811828613
 33
0.5
 0
3DFACE
 8
STL2DXF
 10
37.8786811828613
 20
40
 30
0.5
 11
47.8786811828613
 21
50
 31
2.44103341869289E-14
 12
37.8786811828613
 22
40
 32
2.10660600698546E-14
 13
37.8786811828613
 23
40
 33
2.10660600698546E-14
 0
3DFACE
 8
STL2DXF
 10
47.8786811828613
 20
50
 30
2.44103341869289E-14
 11
37.8786811828613
 21
40
 31
0.5
 12
47.8786811828613
 22
50
 32
0.5
 13
47.8786811828613
 23
50
 33
0.5
 0
3DFACE
 8
STL2DXF
 10
15
 20
40
 30
2.54395435923468E-14
 11
37.8786811828613
 21
40
 31
0.5
 12
37.8786811828613
 22
40
 32
2.10660600698546E-14
 13
37.8786811828613
 23
40
 33
2.10660600698546E-14
 0
3DFACE
 8
STL2DXF
 10
37.8786811828613
 20
40
 30
0.5
 11
15
 21
40
 31
2.54395435923468E-14
 12
15
 22
40
 32
0.5
 13
15
 23
40
 33
0.5
 0
3DFACE
 8
STL2DXF
 10
40
 20
15
 30
3.06408036150705E-14
 11
35
 21
10
 31
0.5
 12
35
 22
10
 32
3.17246229286638E-14
 13
35
 23
10
 33
3.17246229286638E-14
 0
3DFACE
 8
STL2DXF
 10
35
 20
10
 30
0.5
 11
40
 21
15
 31
3.06408036150705E-14
 12
40
 22
15
 32
0.5
 13
40
 23
15
 33
0.5
 0
3DFACE
 8
STL2DXF
 10
10
 20
15
 30
0.5
 11
15
 21
10
 31
3.17246229286638E-14
 12
15
 22
10
 32
0.5
 13
15
 23
10
 33
0.5
 0
3DFACE
 8
STL2DXF
 10
15
 20
10
 30
3.17246229286638E-14
 11
10
 21
15
 31
0.5
 12
10
 22
15
 32
3.08364106276458E-14
 13
10
 23
15
 33
3.08364106276458E-14
 0
3DFACE
 8
STL2DXF
 10
47.8786811828613
 20
50
 30
2.44103341869289E-14
 11
40
 21
37.8786811828613
 31
2.5681530740982E-14
 12
37.8786811828613
 22
40
 32
2.10660600698546E-14
 13
37.8786811828613
 23
40
 33
2.10660600698546E-14
 0
3DFACE
 8
STL2DXF
 10
40
 20
37.8786811828613
 30
2.5681530740982E-14
 11
47.8786811828613
 21
50
 31
2.44103341869289E-14
 12
50
 22
47.8786811828613
 32
2.12378722328757E-14
 13
50
 23
47.8786811828613
 33
2.12378722328757E-14
 0
3DFACE
 8
STL2DXF
 10
50
 20
47.8786811828613
 30
2.12378722328757E-14
 11
47.8786811828613
 21
50
 31
2.44103341869289E-14
 12
53.939338684082
 22
56.060661315918
 32
2.64371857738865E-14
 13
53.939338684082
 23
56.060661315918
 33
2.64371857738865E-14
 0
3DFACE
 8
STL2DXF
 10
50
 20
47.8786811828613
 30
2.12378722328757E-14
 11
53.939338684082
 21
56.060661315918
 31
2.64371857738865E-14
 12
56.060661315918
 22
53.939338684082
 32
2.22072353724383E-14
 13
56.060661315918
 23
53.939338684082
 33
2.22072353724383E-14
 0
3DFACE
 8
STL2DXF
 10
56.060661315918
 20
53.939338684082
 30
2.22072353724383E-14
 11
53.939338684082
 21
56.060661315918
 31
2.64371857738865E-14
 12
54.25
 22
56.2990379333496
 32
2.50272028714258E-14
 13
54.25
 23
56.2990379333496
 33
2.50272028714258E-14
 0
3DFACE
 8
STL2DXF
 10
56.060661315918
 20
53.939338684082
 30
2.22072353724383E-14
 11
54.25
 21
56.2990379333496
 31
2.50272028714258E-14
 12
54.6117706298828
 22
56.4488868713379
 32
2.50272028714258E-14
 13
54.6117706298828
 23
56.4488868713379
 33
2.50272028714258E-14
 0
3DFACE
 8
STL2DXF
 10
56.060661315918
 20
53.939338684082
 30
2.22072353724383E-14
 11
54.6117706298828
 21
56.4488868713379
 31
2.50272028714258E-14
 12
55
 22
56.5
 32
2.50272028714258E-14
 13
55
 23
56.5
 33
2.50272028714258E-14
 0
3DFACE
 8
STL2DXF
 10
56.060661315918
 20
53.939338684082
 30
2.22072353724383E-14
 11
55
 21
56.5
 31
2.50272028714258E-14
 12
55.3882293701172
 22
56.4488868713379
 32
2.50272028714258E-14
 13
55.3882293701172
 23
56.4488868713379
 33
2.50272028714258E-14
 0
3DFACE
 8
STL2DXF
 10
56.060661315918
 20
53.939338684082
 30
2.22072353724383E-14
 11
55.3882293701172
 21
56.4488868713379
 31
2.50272028714258E-14
 12
55.75
 22
56.2990379333496
 32
2.3617219968965E-14
 13
55.75
 23
56.2990379333496
 33
2.3617219968965E-14
 0
3DFACE
 8
STL2DXF
 10
56.060661315918
 20
53.939338684082
 30
2.22072353724383E-14
 11
55.75
 21
56.2990379333496
 31
2.3617219968965E-14
 12
56.060661315918
 22
56.060661315918
 32
2.22072353724383E-14
 13
56.060661315918
 23
56.060661315918
 33
2.22072353724383E-14
 0
3DFACE
 8
STL2DXF
 10
56.060661315918
 20
53.939338684082
 30
2.22072353724383E-14
 11
56.060661315918
 21
56.060661315918
 31
2.22072353724383E-14
 12
56.2990379333496
 22
55.75
 32
2.22072353724383E-14
 13
56.2990379333496
 23
55.75
 33
2.22072353724383E-14
 0
3DFACE
 8
STL2DXF
 10
56.060661315918
 20
53.939338684082
 30
2.22072353724383E-14
 11
56.2990379333496
 21
55.75
 31
2.22072353724383E-14
 12
56.2990379333496
 22
54.25
 32
2.22072353724383E-14
 13
56.2990379333496
 23
54.25
 33
2.22072353724383E-14
 0
3DFACE
 8
STL2DXF
 10
56.2990379333496
 20
54.25
 30
2.22072353724383E-14
 11
56.2990379333496
 21
55.75
 31
2.22072353724383E-14
 12
56.4488868713379
 22
55.3882293701172
 32
2.22072353724383E-14
 13
56.4488868713379
 23
55.3882293701172
 33
2.22072353724383E-14
 0
3DFACE
 8
STL2DXF
 10
56.2990379333496
 20
54.25
 30
2.22072353724383E-14
 11
56.4488868713379
 21
55.3882293701172
 31
2.22072353724383E-14
 12
56.4488868713379
 22
54.6117706298828
 32
2.22072353724383E-14
 13
56.4488868713379
 23
54.6117706298828
 33
2.22072353724383E-14
 0
3DFACE
 8
STL2DXF
 10
56.4488868713379
 20
54.6117706298828
 30
2.22072353724383E-14
 11
56.4488868713379
 21
55.3882293701172
 31
2.22072353724383E-14
 12
56.5
 22
55
 32
2.22072353724383E-14
 13
56.5
 23
55
 33
2.22072353724383E-14
 0
3DFACE
 8
STL2DXF
 10
15
 20
40
 30
2.54395435923468E-14
 11
10
 21
15
 31
3.08364106276458E-14
 12
10
 22
35
 32
2.72835546473102E-14
 13
10
 23
35
 33
2.72835546473102E-14
 0
3DFACE
 8
STL2DXF
 10
10
 20
15
 30
3.08364106276458E-14
 11
15
 21
40
 31
2.54395435923468E-14
 12
15
 22
10
 32
3.17246229286638E-14
 13
15
 23
10
 33
3.17246229286638E-14
 0
3DFACE
 8
STL2DXF
 10
15
 20
10
 30
3.17246229286638E-14
 11
15
 21
40
 31
2.54395435923468E-14
 12
37.8786811828613
 22
40
 32
2.10660600698546E-14
 13
37.8786811828613
 23
40
 33
2.10660600698546E-14
 0
3DFACE
 8
STL2DXF
 10
15
 20
10
 30
3.17246229286638E-14
 11
37.8786811828613
 21
40
 31
2.10660600698546E-14
 12
35
 22
10
 32
3.17246229286638E-14
 13
35
 23
10
 33
3.17246229286638E-14
 0
3DFACE
 8
STL2DXF
 10
35
 20
10
 30
3.17246229286638E-14
 11
37.8786811828613
 21
40
 31
2.10660600698546E-14
 12
40
 22
15
 32
3.06408036150705E-14
 13
40
 23
15
 33
3.06408036150705E-14
 0
3DFACE
 8
STL2DXF
 10
40
 20
15
 30
3.06408036150705E-14
 11
37.8786811828613
 21
40
 31
2.10660600698546E-14
 12
40
 22
37.8786811828613
 32
2.5681530740982E-14
 13
40
 23
37.8786811828613
 33
2.5681530740982E-14
 0
3DFACE
 8
STL2DXF
 10
10
 20
35
 30
2.72835546473102E-14
 11
15
 21
40
 31
0.5
 12
15
 22
40
 32
2.54395435923468E-14
 13
15
 23
40
 33
2.54395435923468E-14
 0
3DFACE
 8
STL2DXF
 10
15
 20
40
 30
0.5
 11
10
 21
35
 31
2.72835546473102E-14
 12
10
 22
35
 32
0.5
 13
10
 23
35
 33
0.5
 0
ENDSEC
 0
EOF
